<svg xmlns="http://www.w3.org/2000/svg" viewBox="0 -0.5 480 480" shape-rendering="crispEdges">
<metadata>Made with Pixels to Svg https://codepen.io/shshaw/pen/XbxvNj</metadata>
<path stroke="#fbf236" d="M90 40h50M90 41h50M90 42h50M90 43h34M125 43h15M90 44h50M90 45h50M90 46h50M90 47h50M90 48h50M90 49h50M80 50h10M140 50h10M230 50h40M290 50h20M330 50h20M360 50h20M80 51h10M140 51h10M230 51h40M290 51h20M330 51h20M360 51h20M80 52h10M140 52h10M230 52h40M290 52h20M330 52h20M360 52h20M80 53h10M140 53h10M230 53h40M290 53h20M330 53h20M360 53h20M80 54h10M140 54h10M230 54h40M290 54h20M330 54h20M360 54h20M80 55h10M140 55h10M230 55h40M290 55h20M330 55h20M360 55h20M80 56h10M140 56h10M230 56h40M290 56h20M330 56h20M360 56h20M80 57h10M140 57h10M230 57h40M290 57h19M330 57h20M360 57h20M80 58h10M140 58h10M230 58h40M290 58h20M330 58h20M360 58h20M80 59h10M140 59h10M230 59h40M290 59h20M330 59h20M360 59h20M70 60h10M150 60h10M220 60h60M290 60h20M330 60h20M360 60h20M70 61h10M150 61h10M220 61h60M290 61h20M330 61h20M360 61h20M70 62h10M150 62h10M220 62h23M244 62h36M290 62h20M330 62h20M360 62h20M70 63h10M150 63h10M220 63h60M290 63h20M330 63h20M360 63h20M70 64h10M150 64h10M220 64h60M290 64h20M330 64h20M360 64h20M70 65h10M150 65h10M220 65h60M290 65h20M330 65h20M360 65h20M70 66h10M150 66h10M220 66h33M254 66h26M290 66h20M330 66h20M360 66h20M70 67h10M150 67h10M220 67h60M290 67h20M330 67h20M360 67h20M70 68h10M150 68h10M220 68h60M290 68h20M330 68h20M360 68h20M70 69h10M150 69h10M220 69h60M290 69h20M330 69h20M360 69h20M70 70h10M160 70h30M220 70h20M260 70h20M290 70h20M330 70h20M360 70h20M70 71h10M160 71h30M220 71h20M260 71h20M290 71h20M330 71h20M360 71h20M70 72h10M160 72h30M220 72h20M260 72h20M290 72h20M330 72h20M360 72h20M70 73h10M160 73h30M220 73h20M260 73h20M290 73h20M330 73h20M360 73h20M70 74h10M160 74h30M220 74h20M260 74h20M290 74h20M330 74h20M360 74h20M70 75h10M160 75h30M220 75h20M260 75h20M290 75h20M330 75h20M360 75h20M70 76h10M160 76h30M220 76h20M260 76h20M290 76h20M330 76h20M360 76h20M70 77h10M160 77h30M220 77h20M260 77h20M290 77h20M330 77h20M360 77h20M70 78h10M160 78h30M220 78h20M260 78h20M290 78h20M330 78h20M360 78h20M70 79h10M160 79h30M220 79h20M260 79h20M290 79h20M330 79h20M360 79h20M70 80h10M190 80h10M220 80h20M260 80h20M290 80h20M320 80h30M360 80h16M377 80h3M70 81h10M190 81h10M220 81h20M260 81h20M290 81h20M320 81h30M360 81h20M70 82h10M190 82h10M220 82h20M260 82h20M290 82h20M320 82h30M360 82h20M70 83h10M190 83h10M220 83h20M260 83h20M290 83h20M320 83h30M360 83h20M70 84h10M190 84h10M220 84h20M260 84h20M290 84h20M320 84h30M360 84h20M70 85h10M190 85h10M220 85h20M260 85h20M290 85h20M320 85h30M360 85h20M70 86h10M190 86h10M220 86h20M260 86h20M290 86h20M320 86h30M360 86h20M70 87h10M190 87h10M220 87h20M260 87h20M290 87h20M320 87h30M360 87h20M70 88h10M190 88h10M220 88h20M260 88h20M290 88h20M320 88h30M360 88h20M70 89h10M190 89h10M220 89h20M260 89h20M290 89h20M320 89h30M360 89h20M70 90h10M170 90h10M190 90h10M220 90h60M290 90h50M360 90h20M70 91h10M170 91h10M190 91h10M220 91h60M290 91h50M360 91h20M70 92h10M170 92h10M190 92h10M220 92h60M290 92h50M360 92h20M70 93h10M170 93h10M190 93h10M220 93h60M290 93h50M360 93h20M70 94h10M170 94h10M190 94h10M220 94h25M246 94h34M290 94h50M360 94h20M70 95h10M170 95h10M190 95h10M220 95h60M290 95h50M360 95h20M70 96h10M170 96h10M190 96h10M220 96h60M290 96h50M360 96h20M70 97h10M170 97h10M190 97h10M220 97h60M290 97h50M360 97h20M70 98h10M170 98h10M190 98h10M220 98h60M290 98h50M360 98h20M70 99h10M170 99h1M172 99h8M190 99h10M220 99h60M290 99h50M360 99h20M70 100h10M140 100h20M190 100h10M220 100h4M225 100h55M290 100h40M360 100h20M70 101h10M140 101h20M190 101h10M220 101h60M290 101h40M360 101h20M70 102h10M140 102h20M190 102h10M220 102h60M290 102h40M360 102h20M70 103h10M140 103h20M190 103h10M220 103h48M269 103h11M290 103h40M360 103h20M70 104h10M140 104h20M190 104h10M220 104h60M290 104h40M360 104h20M70 105h10M140 105h20M190 105h10M220 105h60M290 105h40M360 105h20M70 106h10M140 106h20M190 106h10M220 106h60M290 106h40M360 106h20M70 107h10M140 107h20M190 107h10M220 107h60M290 107h40M360 107h20M70 108h10M140 108h20M190 108h10M220 108h60M290 108h40M360 108h20M70 109h10M140 109h20M190 109h9M220 109h60M290 109h40M360 109h20M80 110h10M130 110h10M160 110h20M190 110h10M220 110h20M260 110h20M290 110h50M360 110h20M80 111h10M130 111h10M160 111h20M190 111h10M220 111h20M260 111h11M272 111h8M290 111h50M360 111h20M80 112h10M130 112h10M160 112h20M190 112h10M220 112h20M260 112h20M290 112h50M360 112h20M80 113h10M130 113h10M160 113h20M190 113h10M220 113h20M260 113h20M290 113h50M360 113h20M80 114h10M130 114h10M160 114h20M190 114h10M220 114h20M260 114h20M290 114h50M360 114h20M80 115h10M130 115h10M160 115h20M190 115h10M220 115h20M260 115h20M290 115h50M360 115h20M80 116h10M130 116h10M160 116h20M190 116h10M220 116h20M260 116h20M290 116h50M360 116h6M367 116h13M80 117h10M130 117h10M160 117h20M190 117h10M220 117h20M260 117h20M290 117h50M360 117h20M80 118h10M130 118h10M160 118h20M190 118h10M220 118h20M260 118h20M290 118h50M360 118h20M80 119h10M130 119h10M160 119h20M190 119h10M220 119h20M260 119h20M290 119h50M360 119h20M90 120h40M180 120h20M220 120h20M260 120h20M290 120h20M320 120h30M360 120h20M90 121h40M180 121h20M220 121h20M260 121h20M290 121h20M320 121h30M360 121h20M90 122h40M180 122h20M220 122h20M260 122h20M290 122h20M320 122h30M360 122h20M90 123h40M180 123h20M220 123h20M260 123h20M290 123h20M320 123h30M360 123h20M90 124h40M180 124h20M220 124h20M260 124h20M290 124h20M320 124h30M360 124h20M90 125h40M180 125h20M220 125h20M260 125h20M290 125h20M320 125h30M360 125h20M90 126h40M180 126h20M220 126h20M260 126h20M290 126h20M320 126h30M360 126h20M90 127h40M180 127h20M220 127h20M260 127h20M290 127h20M320 127h30M360 127h20M90 128h40M180 128h20M220 128h20M260 128h20M290 128h20M320 128h30M360 128h20M90 129h40M180 129h20M220 129h20M260 129h20M290 129h20M320 129h30M360 129h20M90 130h10M120 130h10M190 130h2M193 130h7M220 130h20M260 130h20M290 130h20M330 130h20M360 130h50M90 131h10M120 131h10M190 131h10M220 131h20M260 131h20M290 131h19M330 131h20M360 131h28M389 131h21M90 132h10M120 132h1M122 132h8M190 132h10M220 132h20M260 132h20M290 132h20M330 132h20M360 132h50M90 133h10M120 133h10M190 133h10M220 133h20M260 133h20M290 133h20M330 133h20M360 133h50M90 134h10M120 134h10M190 134h10M220 134h20M260 134h20M290 134h20M330 134h20M360 134h50M90 135h10M120 135h10M190 135h10M220 135h20M260 135h20M290 135h20M330 135h20M360 135h50M90 136h10M120 136h10M190 136h10M220 136h20M260 136h4M265 136h15M290 136h20M330 136h20M360 136h50M90 137h10M120 137h10M190 137h10M220 137h20M260 137h20M290 137h1M292 137h6M299 137h11M330 137h20M360 137h50M90 138h10M120 138h10M190 138h10M220 138h20M260 138h20M290 138h20M330 138h20M360 138h50M90 139h10M120 139h10M190 139h10M220 139h20M260 139h20M290 139h20M330 139h20M360 139h50M80 140h30M120 140h20M190 140h10M220 140h20M260 140h20M290 140h20M330 140h20M360 140h50M80 141h30M120 141h20M190 141h10M220 141h20M260 141h20M290 141h20M330 141h20M360 141h50M80 142h30M120 142h20M190 142h10M220 142h20M260 142h20M290 142h20M330 142h20M360 142h50M80 143h30M120 143h20M190 143h10M220 143h20M260 143h20M290 143h20M330 143h20M360 143h50M80 144h30M120 144h20M190 144h10M220 144h20M260 144h20M290 144h20M330 144h20M360 144h39M400 144h10M80 145h30M120 145h20M190 145h10M220 145h20M260 145h20M290 145h20M330 145h20M360 145h50M80 146h30M120 146h20M190 146h10M220 146h20M260 146h20M290 146h20M330 146h20M360 146h50M80 147h30M120 147h20M190 147h10M220 147h20M260 147h20M290 147h20M330 147h20M360 147h50M80 148h30M120 148h20M190 148h10M220 148h20M260 148h20M290 148h20M330 148h20M360 148h50M80 149h30M120 149h20M190 149h10M220 149h20M260 149h20M290 149h20M330 149h20M360 149h50" />
<path stroke="#fbf336" d="M124 43h1M253 66h1M376 80h1M268 103h1M199 109h1M271 111h1M388 131h1M121 132h1M298 137h1" />
<path stroke="#faf236" d="M309 57h1M243 62h1M171 99h1M366 116h1M192 130h1M309 131h1M264 136h1M291 137h1M399 144h1" />
<path stroke="#fbf237" d="M245 94h1M224 100h1" />
</svg>