<svg xmlns="http://www.w3.org/2000/svg" viewBox="0 -0.5 480 480" shape-rendering="crispEdges">
<metadata>Made with Pixels to Svg https://codepen.io/shshaw/pen/XbxvNj</metadata>
<path stroke="#fbf236" d="M40 40h10M60 40h10M190 40h10M210 40h10M40 41h10M60 41h2M63 41h7M190 41h10M210 41h10M40 42h10M60 42h10M190 42h10M210 42h10M40 43h10M60 43h10M190 43h10M210 43h10M40 44h10M60 44h10M190 44h10M210 44h10M40 45h10M60 45h10M190 45h10M210 45h10M40 46h10M60 46h10M190 46h10M210 46h10M40 47h10M60 47h10M190 47h10M210 47h10M40 48h10M60 48h10M190 48h10M210 48h10M40 49h10M60 49h10M190 49h10M210 49h10M40 50h30M80 50h10M170 50h10M190 50h30M250 50h40M310 50h20M350 50h20M390 50h40M40 51h30M80 51h10M170 51h10M190 51h30M250 51h40M310 51h20M350 51h20M390 51h40M40 52h30M80 52h10M170 52h10M190 52h30M250 52h40M310 52h20M350 52h20M390 52h40M40 53h30M80 53h10M170 53h10M190 53h30M250 53h40M310 53h20M350 53h20M390 53h40M40 54h30M80 54h10M170 54h10M190 54h30M250 54h40M310 54h20M350 54h20M390 54h40M40 55h30M80 55h10M170 55h10M190 55h30M250 55h40M310 55h20M350 55h14M365 55h5M390 55h40M40 56h30M80 56h10M170 56h10M190 56h30M250 56h40M310 56h20M350 56h20M390 56h40M40 57h30M80 57h10M170 57h10M190 57h30M250 57h40M310 57h20M350 57h20M390 57h40M40 58h30M80 58h10M170 58h10M190 58h30M250 58h40M310 58h20M350 58h20M390 58h40M40 59h30M80 59h10M170 59h5M176 59h4M190 59h30M250 59h40M310 59h20M350 59h20M390 59h40M40 60h50M110 60h40M170 60h50M240 60h60M310 60h30M350 60h20M380 60h50M40 61h50M110 61h40M170 61h50M240 61h11M252 61h48M310 61h30M350 61h20M380 61h50M40 62h50M110 62h40M170 62h50M240 62h60M310 62h30M350 62h20M380 62h50M40 63h37M78 63h12M110 63h40M170 63h50M240 63h60M310 63h30M350 63h20M380 63h50M40 64h50M110 64h40M170 64h50M240 64h60M310 64h30M350 64h20M380 64h50M40 65h50M110 65h40M170 65h50M240 65h60M310 65h30M350 65h20M380 65h50M40 66h50M110 66h40M170 66h50M240 66h9M250 66h50M310 66h30M350 66h20M380 66h50M40 67h50M110 67h40M170 67h8M179 67h41M240 67h60M310 67h30M350 67h20M380 67h50M40 68h50M110 68h40M170 68h50M240 68h60M310 68h30M350 68h20M380 68h50M40 69h50M110 69h40M170 69h50M240 69h60M310 69h30M350 69h20M380 69h50M50 70h60M150 70h60M240 70h20M280 70h20M310 70h60M380 70h20M50 71h60M150 71h60M240 71h20M280 71h20M310 71h60M380 71h20M50 72h60M150 72h60M240 72h20M280 72h20M310 72h60M380 72h20M50 73h28M79 73h31M150 73h60M240 73h20M280 73h20M310 73h60M380 73h20M50 74h60M150 74h60M240 74h20M280 74h20M310 74h60M380 74h20M50 75h60M150 75h60M240 75h20M280 75h20M310 75h60M380 75h20M50 76h39M90 76h20M150 76h60M240 76h20M280 76h20M310 76h7M318 76h52M380 76h20M50 77h60M150 77h60M240 77h20M280 77h20M310 77h60M380 77h20M50 78h60M150 78h60M240 78h20M280 78h20M310 78h60M380 78h20M50 79h60M150 79h60M240 79h20M280 79h20M310 79h60M380 79h20M80 80h20M160 80h20M240 80h20M280 80h20M310 80h60M380 80h20M80 81h20M160 81h20M240 81h20M280 81h20M310 81h60M380 81h20M80 82h20M160 82h20M240 82h20M280 82h20M310 82h20M331 82h39M380 82h20M80 83h20M160 83h20M240 83h20M280 83h20M310 83h60M380 83h20M80 84h20M160 84h20M240 84h20M280 84h20M310 84h60M380 84h20M80 85h20M160 85h20M240 85h20M280 85h20M310 85h60M380 85h20M80 86h20M160 86h20M240 86h20M280 86h20M310 86h60M380 86h20M80 87h20M160 87h20M240 87h20M280 87h20M310 87h60M380 87h17M398 87h2M80 88h20M160 88h20M240 88h20M280 88h20M310 88h60M380 88h20M80 89h20M160 89h20M240 89h20M280 89h20M310 89h60M380 89h20M90 90h10M101 90h19M140 90h30M240 90h60M310 90h20M340 90h30M380 90h20M90 91h30M140 91h30M240 91h60M310 91h20M340 91h30M380 91h20M90 92h30M140 92h30M240 92h60M310 92h20M340 92h30M380 92h20M90 93h30M140 93h30M240 93h60M310 93h20M340 93h30M380 93h13M394 93h6M90 94h30M140 94h30M240 94h60M310 94h20M340 94h30M380 94h20M90 95h30M140 95h30M240 95h60M310 95h20M340 95h30M380 95h20M90 96h30M140 96h30M240 96h60M310 96h20M340 96h28M369 96h1M380 96h20M90 97h30M140 97h30M240 97h60M310 97h20M340 97h30M380 97h20M90 98h30M140 98h30M240 98h60M310 98h20M340 98h30M380 98h20M90 99h30M140 99h30M240 99h60M310 99h20M340 99h30M380 99h20M90 100h10M160 100h10M240 100h60M310 100h20M350 100h20M380 100h20M90 101h10M160 101h10M240 101h60M310 101h20M350 101h20M380 101h20M90 102h10M160 102h10M240 102h1M242 102h48M291 102h9M310 102h20M350 102h20M380 102h20M90 103h10M160 103h10M240 103h60M310 103h20M350 103h20M380 103h20M90 104h10M160 104h10M240 104h60M310 104h20M350 104h20M380 104h9M390 104h10M90 105h10M160 105h10M240 105h60M310 105h20M350 105h20M380 105h20M90 106h10M160 106h10M240 106h60M310 106h20M350 106h20M380 106h20M90 107h10M160 107h10M240 107h60M310 107h20M350 107h20M380 107h20M90 108h10M160 108h10M240 108h60M310 108h20M350 108h20M380 108h20M90 109h10M160 109h10M240 109h60M310 109h20M350 109h20M380 109h20M100 110h10M150 110h10M240 110h20M280 110h20M310 110h20M350 110h20M380 110h20M100 111h10M150 111h10M240 111h20M280 111h20M310 111h20M350 111h20M380 111h20M100 112h10M150 112h10M240 112h20M280 112h20M310 112h20M350 112h20M380 112h20M100 113h10M150 113h10M240 113h20M280 113h20M310 113h20M350 113h20M380 113h20M100 114h10M150 114h10M240 114h20M280 114h20M310 114h20M350 114h20M380 114h20M100 115h10M150 115h10M240 115h20M280 115h20M310 115h20M350 115h20M380 115h20M100 116h10M150 116h10M240 116h20M280 116h20M310 116h20M350 116h20M380 116h20M100 117h10M150 117h10M240 117h20M280 117h20M310 117h20M350 117h20M380 117h20M100 118h10M150 118h10M240 118h20M280 118h20M310 118h20M350 118h20M380 118h20M100 119h10M150 119h10M240 119h20M280 119h20M310 119h20M350 119h20M380 119h20M100 120h10M150 120h10M240 120h20M280 120h20M310 120h20M350 120h20M380 120h20M100 121h10M150 121h10M240 121h20M280 121h20M310 121h20M350 121h20M380 121h20M100 122h10M150 122h10M240 122h20M280 122h20M310 122h20M350 122h20M380 122h20M100 123h10M150 123h10M240 123h20M280 123h20M310 123h20M350 123h20M380 123h20M100 124h10M150 124h10M240 124h20M280 124h20M310 124h20M350 124h20M380 124h20M100 125h10M150 125h10M240 125h20M280 125h20M310 125h20M350 125h20M380 125h20M100 126h10M150 126h10M240 126h20M280 126h20M310 126h1M312 126h18M350 126h20M380 126h20M100 127h10M150 127h10M240 127h20M280 127h20M310 127h20M350 127h20M380 127h20M100 128h10M150 128h10M240 128h20M280 128h20M310 128h20M350 128h20M380 128h20M100 129h10M150 129h10M240 129h20M280 129h20M310 129h20M350 129h20M380 129h20M100 130h10M120 130h20M150 130h10M240 130h20M280 130h20M310 130h20M350 130h20M380 130h50M100 131h10M120 131h20M150 131h10M240 131h20M280 131h20M310 131h20M350 131h20M380 131h50M100 132h10M120 132h20M150 132h10M240 132h20M280 132h20M310 132h20M350 132h20M380 132h6M387 132h43M100 133h10M120 133h20M150 133h10M240 133h20M280 133h20M310 133h20M350 133h20M380 133h50M100 134h10M120 134h20M150 134h10M240 134h20M280 134h20M310 134h20M350 134h20M380 134h23M404 134h26M100 135h10M120 135h20M150 135h10M240 135h20M280 135h20M310 135h20M350 135h20M380 135h50M100 136h10M120 136h20M150 136h10M240 136h20M280 136h20M310 136h20M350 136h20M380 136h50M100 137h10M120 137h20M150 137h10M240 137h20M280 137h20M310 137h20M350 137h20M380 137h50M100 138h10M120 138h20M150 138h10M240 138h20M280 138h20M310 138h20M350 138h20M380 138h50M100 139h10M120 139h20M150 139h10M240 139h20M280 139h20M310 139h20M350 139h20M380 139h50M110 140h10M140 140h10M240 140h20M280 140h20M310 140h20M350 140h20M390 140h40M110 141h10M140 141h10M240 141h20M280 141h20M310 141h20M350 141h20M390 141h40M110 142h10M140 142h10M240 142h20M280 142h20M310 142h20M350 142h20M390 142h40M110 143h10M140 143h10M240 143h20M280 143h20M310 143h20M350 143h20M390 143h40M110 144h10M140 144h10M240 144h20M280 144h20M310 144h20M350 144h20M390 144h40M110 145h10M140 145h10M240 145h20M280 145h20M310 145h20M350 145h20M390 145h40M110 146h10M140 146h10M240 146h20M280 146h20M310 146h20M350 146h20M390 146h40M110 147h10M140 147h10M240 147h20M280 147h20M310 147h20M350 147h20M390 147h16M407 147h23M110 148h10M140 148h10M240 148h20M280 148h20M310 148h20M350 148h20M390 148h40M110 149h10M140 149h10M240 149h20M280 149h20M310 149h20M350 149h20M390 149h40M120 150h20M120 151h20M120 152h20M120 153h20M120 154h20M120 155h20M120 156h20M120 157h20M120 158h20M120 159h20" />
<path stroke="#fbf237" d="M62 41h1M251 61h1M77 63h1M89 76h1M317 76h1M368 96h1M290 102h1M389 104h1M311 126h1M386 132h1" />
<path stroke="#fbf336" d="M364 55h1M175 59h1M178 67h1M397 87h1M100 90h1M241 102h1M403 134h1M406 147h1" />
<path stroke="#faf236" d="M249 66h1M78 73h1M330 82h1M393 93h1" />
</svg>