<svg xmlns="http://www.w3.org/2000/svg" viewBox="0 -0.5 480 480" shape-rendering="crispEdges">
<metadata>Made with Pixels to Svg https://codepen.io/shshaw/pen/XbxvNj</metadata>
<path stroke="#fbf236" d="M270 50h40M330 50h40M390 50h20M270 51h40M330 51h40M390 51h20M270 52h23M294 52h16M330 52h40M390 52h20M270 53h40M330 53h40M390 53h20M270 54h40M330 54h40M390 54h14M405 54h5M270 55h40M330 55h40M390 55h20M270 56h40M330 56h40M390 56h20M270 57h40M330 57h40M390 57h20M270 58h40M330 58h40M390 58h20M270 59h40M330 59h40M390 59h20M260 60h50M320 60h60M390 60h20M260 61h50M320 61h60M390 61h20M260 62h50M320 62h60M390 62h20M260 63h50M320 63h60M390 63h20M260 64h50M320 64h54M375 64h5M390 64h20M260 65h50M320 65h60M390 65h20M260 66h50M320 66h60M390 66h20M260 67h50M320 67h60M390 67h20M260 68h11M272 68h38M320 68h60M390 68h20M260 69h50M320 69h60M390 69h20M120 70h10M180 70h10M260 70h20M320 70h20M360 70h20M390 70h20M120 71h10M180 71h10M260 71h20M320 71h20M360 71h20M390 71h20M120 72h10M180 72h10M260 72h20M320 72h20M360 72h20M390 72h20M120 73h10M180 73h10M260 73h20M320 73h20M360 73h20M390 73h20M120 74h10M180 74h10M260 74h20M320 74h20M360 74h20M390 74h20M120 75h10M180 75h10M260 75h20M320 75h6M327 75h13M360 75h20M390 75h20M120 76h10M180 76h10M260 76h20M320 76h20M360 76h20M390 76h20M120 77h10M180 77h10M260 77h20M320 77h20M360 77h20M390 77h20M120 78h10M180 78h10M260 78h20M320 78h20M360 78h20M390 78h20M120 79h10M180 79h10M260 79h20M320 79h20M360 79h20M390 79h20M110 80h10M130 80h10M170 80h10M190 80h10M260 80h20M320 80h20M360 80h20M390 80h20M110 81h10M130 81h10M170 81h10M190 81h10M260 81h20M320 81h20M360 81h20M390 81h20M110 82h10M130 82h10M170 82h10M190 82h10M260 82h20M320 82h20M360 82h20M390 82h20M110 83h10M130 83h10M170 83h10M190 83h10M260 83h20M320 83h20M360 83h20M390 83h20M110 84h10M130 84h10M170 84h10M190 84h10M260 84h20M320 84h20M360 84h20M390 84h20M110 85h10M130 85h10M170 85h10M190 85h10M260 85h20M320 85h20M360 85h20M390 85h20M110 86h10M130 86h10M170 86h10M190 86h10M260 86h20M320 86h20M360 86h20M390 86h20M110 87h10M130 87h10M170 87h10M190 87h10M260 87h20M320 87h20M360 87h20M390 87h20M110 88h10M130 88h10M170 88h10M190 88h10M260 88h20M320 88h20M360 88h20M390 88h20M110 89h10M130 89h10M170 89h10M190 89h10M260 89h20M320 89h20M360 89h20M390 89h20M100 90h10M140 90h10M160 90h10M200 90h10M260 90h20M320 90h60M390 90h20M100 91h10M140 91h10M160 91h10M200 91h10M260 91h20M320 91h60M390 91h20M100 92h10M140 92h10M160 92h10M200 92h10M260 92h20M320 92h60M390 92h20M100 93h10M140 93h10M160 93h10M200 93h10M260 93h20M320 93h60M390 93h20M100 94h10M140 94h10M160 94h10M200 94h10M260 94h20M320 94h60M390 94h20M100 95h10M140 95h10M160 95h10M200 95h10M260 95h20M320 95h60M390 95h20M100 96h10M140 96h10M160 96h10M200 96h10M260 96h20M320 96h60M390 96h20M100 97h10M140 97h10M160 97h10M200 97h10M260 97h20M320 97h60M390 97h20M100 98h10M140 98h10M160 98h10M200 98h10M260 98h20M320 98h60M390 98h20M100 99h10M140 99h10M160 99h9M200 99h10M260 99h20M320 99h60M390 99h20M90 100h10M150 100h10M210 100h10M260 100h20M320 100h56M377 100h3M390 100h20M90 101h10M150 101h10M210 101h10M260 101h20M320 101h60M390 101h20M90 102h10M150 102h10M210 102h10M260 102h20M320 102h60M390 102h20M90 103h10M150 103h10M210 103h10M260 103h20M320 103h60M390 103h20M90 104h10M150 104h10M210 104h10M260 104h20M320 104h60M390 104h20M90 105h10M150 105h10M210 105h10M260 105h20M320 105h60M390 105h20M90 106h10M150 106h10M210 106h10M260 106h20M320 106h60M390 106h20M90 107h10M150 107h10M210 107h10M260 107h20M320 107h60M390 107h20M90 108h10M150 108h10M210 108h10M260 108h20M320 108h60M390 108h20M90 109h10M150 109h10M210 109h10M260 109h20M320 109h9M330 109h50M390 109h20M80 110h10M160 110h10M220 110h10M260 110h20M320 110h20M360 110h20M390 110h20M80 111h10M160 111h10M220 111h10M260 111h20M320 111h20M360 111h20M390 111h20M80 112h10M160 112h10M220 112h10M260 112h20M320 112h20M360 112h20M390 112h20M80 113h10M160 113h10M220 113h10M260 113h20M320 113h20M360 113h20M390 113h20M80 114h10M160 114h10M220 114h10M260 114h20M320 114h20M360 114h20M390 114h20M80 115h10M160 115h10M220 115h10M260 115h20M320 115h20M360 115h20M390 115h20M80 116h10M160 116h10M220 116h10M260 116h20M320 116h20M360 116h20M390 116h20M80 117h10M160 117h10M220 117h10M260 117h20M320 117h20M360 117h20M390 117h20M80 118h10M160 118h10M220 118h10M260 118h20M320 118h20M360 118h20M390 118h20M80 119h10M160 119h10M220 119h10M260 119h20M320 119h20M360 119h20M390 119h20M70 120h10M170 120h10M230 120h10M260 120h20M320 120h20M360 120h20M390 120h20M70 121h10M170 121h10M230 121h10M260 121h20M320 121h20M360 121h1M362 121h18M390 121h20M70 122h10M170 122h10M230 122h10M260 122h20M320 122h20M360 122h20M390 122h20M70 123h10M170 123h10M230 123h10M260 123h20M320 123h20M360 123h20M390 123h20M70 124h10M170 124h10M230 124h10M260 124h20M320 124h20M360 124h20M390 124h20M70 125h10M170 125h10M230 125h10M260 125h20M320 125h20M360 125h20M390 125h20M70 126h10M170 126h10M230 126h10M260 126h20M320 126h20M360 126h20M390 126h20M70 127h10M170 127h10M230 127h10M260 127h20M320 127h20M360 127h20M390 127h20M70 128h10M170 128h10M230 128h10M260 128h20M320 128h20M360 128h20M390 128h20M70 129h10M170 129h10M230 129h10M260 129h20M320 129h20M360 129h20M390 129h20M260 130h50M320 130h20M360 130h20M390 130h20M260 131h50M320 131h20M360 131h13M374 131h6M390 131h20M260 132h50M320 132h20M360 132h20M390 132h20M260 133h50M320 133h20M360 133h20M390 133h20M260 134h50M320 134h20M360 134h20M390 134h20M260 135h39M300 135h10M320 135h20M360 135h20M390 135h20M260 136h50M320 136h20M360 136h20M390 136h20M260 137h50M320 137h20M360 137h20M390 137h20M260 138h50M320 138h20M360 138h20M390 138h20M260 139h50M320 139h20M360 139h20M390 139h20M270 140h40M320 140h20M360 140h20M390 140h20M270 141h40M320 141h20M360 141h20M390 141h20M270 142h4M275 142h35M320 142h20M360 142h20M390 142h20M270 143h40M320 143h10M331 143h9M360 143h20M390 143h20M270 144h40M320 144h20M360 144h20M390 144h20M270 145h40M320 145h20M360 145h20M390 145h20M270 146h40M320 146h20M360 146h20M390 146h20M270 147h40M320 147h20M360 147h20M390 147h20M270 148h40M320 148h20M360 148h20M390 148h20M270 149h40M320 149h20M360 149h20M390 149h20" />
<path stroke="#fbf237" d="M293 52h1M404 54h1M374 64h1M326 75h1M329 109h1M299 135h1" />
<path stroke="#fbf336" d="M271 68h1M169 99h1M376 100h1M361 121h1M373 131h1M274 142h1" />
<path stroke="#faf236" d="M330 143h1" />
</svg>