<svg xmlns="http://www.w3.org/2000/svg" viewBox="0 -0.5 480 480" shape-rendering="crispEdges">
<metadata>Made with Pixels to Svg https://codepen.io/shshaw/pen/XbxvNj</metadata>
<path stroke="#fbf236" d="M70 40h20M100 40h70M180 40h20M70 41h20M100 41h70M180 41h20M70 42h20M100 42h70M180 42h20M70 43h20M100 43h70M180 43h20M70 44h20M100 44h70M180 44h20M70 45h20M100 45h70M180 45h20M70 46h20M100 46h70M180 46h20M70 47h20M100 47h70M180 47h20M70 48h20M100 48h70M180 48h20M70 49h20M100 49h70M180 49h20M60 50h10M90 50h10M130 50h10M170 50h10M200 50h10M230 50h50M310 50h13M324 50h26M380 50h40M60 51h10M90 51h10M130 51h10M170 51h10M200 51h10M230 51h50M310 51h40M380 51h40M60 52h10M90 52h10M130 52h10M170 52h10M200 52h10M230 52h50M310 52h40M380 52h40M60 53h10M90 53h10M130 53h10M170 53h10M200 53h10M230 53h50M310 53h40M380 53h40M60 54h10M90 54h10M130 54h10M170 54h10M200 54h10M230 54h50M310 54h40M380 54h40M60 55h10M90 55h10M130 55h10M170 55h10M200 55h10M230 55h50M310 55h40M380 55h40M60 56h10M90 56h10M130 56h10M170 56h10M200 56h10M230 56h50M310 56h40M380 56h40M60 57h10M90 57h10M130 57h10M170 57h10M200 57h10M230 57h50M310 57h40M380 57h40M60 58h10M90 58h10M130 58h10M170 58h10M200 58h10M230 58h50M310 58h40M380 58h40M60 59h10M90 59h10M130 59h10M170 59h10M200 59h10M230 59h50M310 59h40M380 59h40M60 60h10M80 60h10M180 60h10M200 60h10M230 60h60M300 60h60M370 60h50M60 61h10M80 61h10M180 61h10M200 61h10M230 61h60M300 61h60M370 61h50M60 62h10M80 62h10M180 62h10M200 62h10M230 62h60M300 62h60M370 62h50M60 63h10M80 63h10M180 63h10M200 63h10M230 63h60M300 63h60M370 63h50M60 64h10M80 64h10M180 64h10M200 64h10M230 64h60M300 64h60M370 64h50M60 65h10M80 65h10M180 65h10M200 65h10M230 65h60M300 65h60M370 65h50M60 66h10M80 66h10M180 66h10M200 66h10M230 66h60M300 66h60M370 66h50M60 67h10M80 67h10M180 67h10M200 67h10M230 67h60M300 67h60M370 67h50M60 68h10M80 68h10M180 68h10M200 68h10M230 68h60M300 68h60M370 68h50M60 69h10M80 69h10M180 69h10M200 69h10M230 69h60M300 69h60M370 69h50M70 70h10M100 70h20M150 70h20M190 70h10M230 70h20M270 70h20M300 70h20M340 70h5M346 70h14M370 70h20M70 71h10M100 71h20M150 71h20M190 71h10M230 71h20M270 71h20M300 71h20M340 71h20M370 71h20M70 72h10M100 72h20M150 72h20M190 72h10M230 72h20M270 72h20M300 72h20M340 72h20M370 72h20M70 73h10M100 73h20M150 73h20M190 73h10M230 73h20M270 73h20M300 73h20M340 73h20M370 73h20M70 74h10M100 74h20M150 74h20M190 74h10M230 74h20M270 74h20M300 74h20M340 74h20M370 74h20M70 75h10M100 75h20M150 75h20M190 75h10M230 75h20M270 75h20M300 75h20M340 75h20M370 75h20M70 76h10M100 76h20M150 76h20M190 76h10M230 76h20M270 76h20M300 76h20M340 76h20M370 76h20M70 77h10M100 77h20M150 77h20M190 77h10M230 77h20M270 77h20M300 77h20M340 77h20M370 77h20M70 78h10M100 78h20M150 78h20M190 78h10M230 78h20M270 78h20M300 78h20M340 78h20M370 78h20M70 79h10M100 79h20M150 79h20M190 79h10M230 79h20M270 79h20M300 79h20M340 79h20M370 79h20M80 80h10M120 80h10M140 80h10M180 80h10M230 80h20M270 80h20M300 80h20M340 80h20M370 80h20M80 81h10M120 81h10M140 81h10M180 81h10M230 81h20M270 81h20M300 81h20M340 81h20M370 81h20M80 82h10M120 82h10M140 82h10M180 82h10M230 82h20M270 82h20M300 82h20M340 82h20M370 82h20M80 83h10M120 83h10M140 83h10M180 83h10M230 83h20M270 83h20M300 83h20M340 83h20M370 83h20M80 84h10M120 84h10M140 84h10M180 84h10M230 84h19M270 84h20M300 84h20M340 84h20M370 84h20M80 85h10M120 85h10M140 85h10M180 85h10M230 85h20M270 85h20M300 85h20M340 85h20M370 85h20M80 86h10M120 86h10M140 86h10M180 86h10M230 86h20M270 86h20M300 86h20M340 86h20M370 86h20M80 87h10M120 87h10M140 87h10M180 87h10M230 87h20M270 87h20M300 87h20M340 87h20M370 87h20M80 88h10M120 88h10M140 88h10M180 88h10M230 88h20M270 88h20M300 88h20M340 88h20M370 88h20M80 89h10M120 89h10M140 89h10M180 89h10M230 89h20M270 89h20M300 89h20M340 89h20M370 89h20M80 90h20M120 90h30M170 90h20M230 90h20M270 90h20M300 90h60M370 90h20M80 91h20M120 91h30M170 91h20M230 91h20M270 91h20M300 91h60M370 91h20M80 92h20M120 92h30M170 92h20M230 92h20M270 92h20M300 92h60M370 92h20M80 93h20M120 93h30M170 93h20M230 93h20M270 93h20M300 93h60M370 93h20M80 94h20M120 94h30M170 94h20M230 94h20M270 94h20M300 94h60M370 94h20M80 95h20M120 95h24M145 95h5M170 95h20M230 95h20M270 95h20M300 95h60M370 95h20M80 96h20M120 96h30M170 96h20M230 96h20M270 96h2M273 96h17M300 96h60M370 96h20M80 97h20M120 97h30M170 97h20M230 97h20M270 97h20M300 97h60M370 97h20M80 98h20M120 98h5M126 98h13M140 98h10M170 98h20M230 98h20M270 98h20M300 98h60M370 98h20M80 99h20M120 99h30M170 99h20M230 99h20M270 99h20M300 99h58M359 99h1M370 99h20M60 100h20M100 100h10M130 100h10M160 100h10M190 100h20M230 100h20M270 100h20M300 100h60M370 100h20M60 101h20M100 101h10M130 101h10M160 101h10M190 101h20M230 101h20M270 101h20M300 101h60M370 101h20M60 102h20M100 102h10M130 102h10M160 102h10M190 102h20M230 102h20M270 102h20M300 102h60M370 102h20M60 103h20M100 103h10M130 103h10M160 103h10M190 103h20M230 103h20M270 103h20M300 103h60M370 103h20M60 104h20M100 104h10M130 104h10M160 104h10M190 104h20M230 104h20M270 104h20M300 104h60M370 104h20M60 105h20M100 105h10M130 105h10M160 105h10M190 105h20M230 105h14M245 105h5M270 105h20M300 105h60M370 105h20M60 106h20M100 106h10M130 106h10M160 106h10M190 106h20M230 106h20M270 106h20M300 106h60M370 106h20M60 107h20M100 107h10M130 107h10M160 107h10M190 107h20M230 107h20M270 107h20M300 107h60M370 107h20M60 108h20M100 108h10M130 108h10M160 108h10M190 108h20M230 108h20M270 108h20M300 108h60M370 108h20M60 109h20M100 109h10M130 109h10M160 109h10M190 109h20M230 109h20M270 109h20M300 109h60M370 109h20M80 110h10M110 110h8M119 110h41M180 110h10M230 110h20M270 110h20M300 110h20M340 110h20M370 110h20M80 111h10M110 111h50M180 111h10M230 111h20M270 111h20M300 111h20M340 111h20M370 111h20M80 112h10M110 112h50M180 112h10M230 112h20M270 112h20M300 112h20M340 112h20M370 112h20M80 113h10M110 113h35M146 113h14M180 113h10M230 113h20M270 113h20M300 113h20M340 113h20M370 113h20M80 114h10M110 114h50M180 114h10M230 114h20M270 114h20M300 114h20M340 114h20M370 114h20M80 115h10M110 115h50M180 115h10M230 115h20M270 115h20M300 115h20M340 115h20M370 115h20M80 116h10M110 116h50M180 116h10M230 116h9M240 116h10M270 116h20M300 116h20M340 116h20M370 116h20M80 117h10M110 117h50M180 117h10M230 117h20M270 117h20M300 117h20M340 117h20M370 117h20M80 118h10M110 118h50M180 118h10M230 118h20M270 118h20M300 118h20M340 118h20M370 118h20M80 119h10M110 119h50M180 119h10M230 119h20M270 119h20M300 119h20M340 119h20M370 119h20M60 120h20M100 120h4M105 120h5M120 120h10M140 120h10M160 120h10M190 120h20M230 120h20M270 120h20M300 120h20M340 120h20M370 120h20M60 121h20M100 121h10M120 121h10M140 121h10M160 121h10M190 121h20M230 121h20M270 121h1M272 121h18M300 121h20M340 121h20M370 121h20M60 122h20M100 122h10M120 122h10M140 122h10M160 122h10M190 122h20M230 122h20M270 122h20M300 122h2M303 122h17M340 122h20M370 122h20M60 123h20M100 123h10M120 123h10M140 123h10M160 123h10M190 123h20M230 123h20M270 123h20M300 123h20M340 123h20M370 123h20M60 124h20M100 124h10M120 124h10M140 124h10M160 124h10M190 124h20M230 124h20M270 124h20M300 124h20M340 124h20M370 124h20M60 125h20M100 125h10M120 125h10M140 125h10M160 125h10M190 125h20M230 125h20M270 125h20M300 125h20M340 125h20M370 125h20M60 126h20M100 126h10M120 126h10M140 126h10M160 126h10M190 126h20M230 126h15M246 126h4M270 126h20M300 126h20M340 126h20M370 126h20M60 127h20M100 127h10M120 127h10M140 127h10M160 127h10M190 127h20M230 127h20M270 127h20M300 127h20M340 127h20M370 127h20M60 128h20M100 128h10M120 128h10M140 128h10M160 128h10M190 128h20M230 128h20M270 128h20M300 128h20M340 128h20M370 128h20M60 129h20M100 129h10M120 129h10M140 129h10M160 129h10M190 129h20M230 129h20M270 129h20M300 129h20M340 129h20M370 129h20M80 130h10M100 130h10M120 130h10M140 130h10M160 130h10M180 130h10M230 130h60M300 130h20M340 130h20M370 130h50M80 131h10M100 131h10M120 131h10M140 131h10M160 131h10M180 131h10M230 131h60M300 131h20M340 131h20M370 131h50M80 132h10M100 132h10M120 132h10M140 132h10M160 132h10M180 132h10M230 132h60M300 132h20M340 132h20M370 132h50M80 133h10M100 133h10M120 133h10M140 133h10M160 133h10M180 133h10M230 133h60M300 133h20M340 133h20M370 133h50M80 134h10M100 134h10M120 134h10M140 134h10M160 134h10M180 134h10M230 134h60M300 134h20M340 134h20M371 134h49M80 135h10M100 135h10M120 135h10M140 135h10M160 135h10M180 135h10M230 135h60M300 135h20M340 135h20M370 135h50M80 136h10M100 136h10M120 136h10M140 136h10M160 136h10M180 136h10M230 136h60M300 136h20M340 136h20M370 136h50M80 137h10M100 137h10M120 137h10M140 137h9M160 137h10M180 137h10M230 137h19M250 137h40M300 137h20M340 137h20M370 137h50M80 138h10M100 138h10M120 138h10M140 138h10M160 138h10M180 138h10M230 138h60M300 138h20M340 138h20M370 138h50M80 139h10M100 139h10M120 139h10M140 139h10M160 139h10M180 139h10M230 139h60M300 139h20M340 139h20M370 139h50M70 140h10M90 140h20M160 140h20M190 140h10M230 140h50M300 140h20M340 140h20M380 140h40M70 141h10M90 141h20M160 141h20M190 141h10M230 141h50M300 141h20M340 141h20M380 141h40M70 142h10M90 142h20M160 142h20M190 142h10M230 142h50M300 142h20M340 142h20M380 142h40M70 143h10M90 143h20M160 143h20M190 143h10M230 143h50M300 143h20M340 143h20M380 143h28M409 143h11M70 144h10M90 144h20M160 144h20M190 144h10M230 144h50M300 144h20M340 144h20M380 144h40M70 145h10M90 145h20M160 145h20M190 145h10M230 145h50M300 145h20M340 145h20M380 145h40M70 146h10M90 146h20M160 146h20M190 146h10M230 146h50M300 146h20M340 146h20M380 146h40M70 147h10M90 147h20M160 147h20M190 147h10M230 147h50M300 147h20M340 147h20M380 147h40M70 148h10M90 148h20M160 148h20M190 148h10M230 148h50M300 148h20M340 148h20M380 148h40M70 149h10M90 149h20M160 149h20M190 149h10M230 149h50M300 149h20M340 149h20M380 149h40M110 150h50M110 151h50M110 152h50M110 153h50M110 154h50M110 155h50M110 156h50M110 157h50M110 158h50M110 159h50" />
<path stroke="#fbf237" d="M323 50h1M272 96h1M125 98h1M239 116h1M104 120h1M302 122h1M245 126h1M149 137h1" />
<path stroke="#faf236" d="M345 70h1M249 84h1M144 95h1M249 137h1M408 143h1" />
<path stroke="#fbf336" d="M139 98h1M358 99h1M244 105h1M118 110h1M145 113h1M271 121h1M370 134h1" />
</svg>