<svg xmlns="http://www.w3.org/2000/svg" viewBox="0 -0.5 480 480" shape-rendering="crispEdges">
<metadata>Made with Pixels to Svg https://codepen.io/shshaw/pen/XbxvNj</metadata>
<path stroke="#fbf236" d="M130 40h30M130 41h30M130 42h30M130 43h30M130 44h30M130 45h30M130 46h30M130 47h30M130 48h30M130 49h30M110 50h70M240 50h50M310 50h50M370 50h5M376 50h14M110 51h70M240 51h50M310 51h50M370 51h20M110 52h70M240 52h50M310 52h50M370 52h20M110 53h70M240 53h50M310 53h50M370 53h20M110 54h70M240 54h50M310 54h50M370 54h20M110 55h70M240 55h50M310 55h50M370 55h20M110 56h70M240 56h23M264 56h26M310 56h50M370 56h20M110 57h70M240 57h50M310 57h50M370 57h20M110 58h70M240 58h34M275 58h15M310 58h50M370 58h20M110 59h70M240 59h50M310 59h50M370 59h20M100 60h57M158 60h32M240 60h60M310 60h50M370 60h20M100 61h90M240 61h60M310 61h50M370 61h20M100 62h90M240 62h60M310 62h50M370 62h20M100 63h90M240 63h60M310 63h50M370 63h20M100 64h90M240 64h60M310 64h50M370 64h6M377 64h13M100 65h90M240 65h60M310 65h50M370 65h20M100 66h90M240 66h59M310 66h50M370 66h20M100 67h90M240 67h60M310 67h50M370 67h20M100 68h90M240 68h60M310 68h50M370 68h20M100 69h90M240 69h60M310 69h50M370 69h20M100 70h20M170 70h20M240 70h20M280 70h20M310 70h20M370 70h20M100 71h20M170 71h20M240 71h20M280 71h20M310 71h20M370 71h20M100 72h20M170 72h20M240 72h20M280 72h20M310 72h20M370 72h20M100 73h20M170 73h20M240 73h20M280 73h20M310 73h20M370 73h20M100 74h20M170 74h20M240 74h20M280 74h20M310 74h20M370 74h20M100 75h20M170 75h20M240 75h20M280 75h20M310 75h20M370 75h20M100 76h20M170 76h20M240 76h20M280 76h20M310 76h20M370 76h20M100 77h20M170 77h20M240 77h19M280 77h20M310 77h20M370 77h20M100 78h20M170 78h20M240 78h20M280 78h20M310 78h20M370 78h20M100 79h20M170 79h20M240 79h20M280 79h20M310 79h20M370 79h20M90 80h20M140 80h10M180 80h20M240 80h20M280 80h20M310 80h20M370 80h20M90 81h20M140 81h10M180 81h20M240 81h20M280 81h20M310 81h20M370 81h20M90 82h20M140 82h10M180 82h20M240 82h20M280 82h20M310 82h20M370 82h20M90 83h20M140 83h10M180 83h20M240 83h20M280 83h20M310 83h20M370 83h20M90 84h20M140 84h10M180 84h20M240 84h20M280 84h20M310 84h20M370 84h20M90 85h20M140 85h10M180 85h20M240 85h20M280 85h20M310 85h20M370 85h20M90 86h20M140 86h10M180 86h20M240 86h20M280 86h20M310 86h20M370 86h20M90 87h20M140 87h10M180 87h20M240 87h20M280 87h20M310 87h20M370 87h20M90 88h20M140 88h10M180 88h20M240 88h20M280 88h20M310 88h20M370 88h20M90 89h20M140 89h10M180 89h20M240 89h20M280 89h20M310 89h20M370 89h20M80 90h10M100 90h10M180 90h10M200 90h10M240 90h20M280 90h20M310 90h40M370 90h20M80 91h10M100 91h10M180 91h10M200 91h10M240 91h20M280 91h20M310 91h40M370 91h20M80 92h10M100 92h10M180 92h10M200 92h10M240 92h20M280 92h20M310 92h40M370 92h20M80 93h10M100 93h10M180 93h10M200 93h10M240 93h20M280 93h20M310 93h40M370 93h20M80 94h10M100 94h10M180 94h10M200 94h10M240 94h20M280 94h20M310 94h40M370 94h20M80 95h10M100 95h10M180 95h10M200 95h10M240 95h20M280 95h20M310 95h40M370 95h20M80 96h10M100 96h10M180 96h10M200 96h10M240 96h20M280 96h11M292 96h8M310 96h40M370 96h20M80 97h10M100 97h10M180 97h10M200 97h8M209 97h1M240 97h20M280 97h20M310 97h40M370 97h20M80 98h10M100 98h10M180 98h10M200 98h10M240 98h20M280 98h20M310 98h40M370 98h20M80 99h10M100 99h10M180 99h10M200 99h10M240 99h20M280 99h20M310 99h40M370 99h20M80 100h10M110 100h20M140 100h10M160 100h20M200 100h10M240 100h20M280 100h20M310 100h40M370 100h20M80 101h10M110 101h20M140 101h10M160 101h20M200 101h10M240 101h20M280 101h20M310 101h19M330 101h20M370 101h20M80 102h10M110 102h20M140 102h10M160 102h20M200 102h10M240 102h20M280 102h20M310 102h40M370 102h20M80 103h10M110 103h20M140 103h10M160 103h20M200 103h10M240 103h20M280 103h20M310 103h40M370 103h20M80 104h10M110 104h20M140 104h10M160 104h20M200 104h10M240 104h20M280 104h20M310 104h40M370 104h20M80 105h10M110 105h20M140 105h10M160 105h20M200 105h10M240 105h20M280 105h20M310 105h40M370 105h20M80 106h10M110 106h20M140 106h10M160 106h20M200 106h6M207 106h3M240 106h20M280 106h20M310 106h40M370 106h20M80 107h10M110 107h20M140 107h10M160 107h20M200 107h10M240 107h20M280 107h20M310 107h40M370 107h20M80 108h10M110 108h20M140 108h10M160 108h20M200 108h10M240 108h20M280 108h20M310 108h40M370 108h20M80 109h10M110 109h20M140 109h10M160 109h20M200 109h10M240 109h20M280 109h20M310 109h40M370 109h20M70 110h10M90 110h10M140 110h10M190 110h10M210 110h10M240 110h20M280 110h20M310 110h19M370 110h20M70 111h10M90 111h10M140 111h10M190 111h10M210 111h10M240 111h20M280 111h20M310 111h20M370 111h20M70 112h10M90 112h10M140 112h10M190 112h10M210 112h10M240 112h20M280 112h20M310 112h20M370 112h20M70 113h10M90 113h10M140 113h10M190 113h10M210 113h10M240 113h20M280 113h20M310 113h20M370 113h20M70 114h10M90 114h10M140 114h10M190 114h10M210 114h10M240 114h20M280 114h20M310 114h20M370 114h20M70 115h10M90 115h10M140 115h10M190 115h10M210 115h10M240 115h20M280 115h20M310 115h20M370 115h20M70 116h10M90 116h10M140 116h10M190 116h10M210 116h10M240 116h20M280 116h20M310 116h20M370 116h20M70 117h10M90 117h10M140 117h10M190 117h10M210 117h10M240 117h20M280 117h20M310 117h20M370 117h20M70 118h10M90 118h10M140 118h10M190 118h10M210 118h10M240 118h20M280 118h20M310 118h20M370 118h20M70 119h10M90 119h10M140 119h10M190 119h10M210 119h10M240 119h20M280 119h20M310 119h20M370 119h20M70 120h10M90 120h10M190 120h10M210 120h10M240 120h20M280 120h20M310 120h20M370 120h20M70 121h10M90 121h10M190 121h10M210 121h10M240 121h20M280 121h20M310 121h20M370 121h20M70 122h10M90 122h10M190 122h10M210 122h10M240 122h20M280 122h20M310 122h20M370 122h20M70 123h10M90 123h10M190 123h10M210 123h10M240 123h20M280 123h20M310 123h20M370 123h20M70 124h10M90 124h10M190 124h10M210 124h10M240 124h20M280 124h20M310 124h20M370 124h20M70 125h10M90 125h10M190 125h10M210 125h10M240 125h20M280 125h20M310 125h20M370 125h20M70 126h10M90 126h10M190 126h10M210 126h10M240 126h20M280 126h20M310 126h20M370 126h20M70 127h10M90 127h10M190 127h10M210 127h10M240 127h20M280 127h20M310 127h20M370 127h20M70 128h10M90 128h10M190 128h10M210 128h4M215 128h5M240 128h20M280 128h20M310 128h20M370 128h20M70 129h10M90 129h10M190 129h10M210 129h10M240 129h20M280 129h20M310 129h20M370 129h20M70 130h10M90 130h10M130 130h30M190 130h10M210 130h10M240 130h60M310 130h50M370 130h50M70 131h10M90 131h10M130 131h30M190 131h10M210 131h10M240 131h60M310 131h17M328 131h32M370 131h50M70 132h10M90 132h10M130 132h30M190 132h10M210 132h10M240 132h60M310 132h50M370 132h50M70 133h10M90 133h10M130 133h30M190 133h10M210 133h10M240 133h60M310 133h50M370 133h50M70 134h10M90 134h10M130 134h30M190 134h10M210 134h10M240 134h60M310 134h50M370 134h50M70 135h10M90 135h10M130 135h30M190 135h10M210 135h10M240 135h60M310 135h50M370 135h50M70 136h3M74 136h6M90 136h10M130 136h30M190 136h10M210 136h10M240 136h60M310 136h50M370 136h50M70 137h10M90 137h10M130 137h30M190 137h10M210 137h10M240 137h60M310 137h50M370 137h50M70 138h10M90 138h10M130 138h30M190 138h10M210 138h10M240 138h60M310 138h50M370 138h50M70 139h10M90 139h10M130 139h30M190 139h10M210 139h10M240 139h60M310 139h50M370 139h50M70 140h10M90 140h20M180 140h20M210 140h10M240 140h50M310 140h50M370 140h50M70 141h10M90 141h20M180 141h20M210 141h10M240 141h50M310 141h50M370 141h50M70 142h10M90 142h20M180 142h20M210 142h10M240 142h50M310 142h21M332 142h28M370 142h50M70 143h10M90 143h20M180 143h20M210 143h10M240 143h20M261 143h29M310 143h50M370 143h50M70 144h10M90 144h20M180 144h20M210 144h10M240 144h50M310 144h15M326 144h34M370 144h50M70 145h10M90 145h20M180 145h20M210 145h10M240 145h50M310 145h50M370 145h50M70 146h10M90 146h20M180 146h20M210 146h10M240 146h50M310 146h50M370 146h50M70 147h10M90 147h20M180 147h20M210 147h10M240 147h50M310 147h50M370 147h50M70 148h10M90 148h20M180 148h3M184 148h16M210 148h10M240 148h50M310 148h50M370 148h50M70 149h10M90 149h20M180 149h20M210 149h10M240 149h50M310 149h50M370 149h50M80 150h20M110 150h70M190 150h20M80 151h20M110 151h70M190 151h20M80 152h20M110 152h70M190 152h20M80 153h20M110 153h70M190 153h20M80 154h20M110 154h70M190 154h20M80 155h20M110 155h70M190 155h20M80 156h20M110 156h70M190 156h20M80 157h20M110 157h70M190 157h20M80 158h20M110 158h70M190 158h20M80 159h20M110 159h70M190 159h20" />
<path stroke="#faf236" d="M375 50h1M291 96h1M327 131h1M183 148h1" />
<path stroke="#fbf237" d="M263 56h1M299 66h1M329 101h1M206 106h1M329 110h1M260 143h1" />
<path stroke="#fbf336" d="M274 58h1M157 60h1M376 64h1M259 77h1M208 97h1M214 128h1M73 136h1M331 142h1M325 144h1" />
</svg>