<svg xmlns="http://www.w3.org/2000/svg" viewBox="0 -0.5 480 480" shape-rendering="crispEdges">
<metadata>Made with Pixels to Svg https://codepen.io/shshaw/pen/XbxvNj</metadata>
<path stroke="#fbf236" d="M240 40h50M310 40h50M370 40h20M410 40h20M240 41h50M310 41h50M370 41h20M410 41h20M240 42h50M310 42h44M355 42h5M370 42h20M410 42h20M240 43h50M310 43h50M370 43h20M410 43h20M240 44h50M310 44h50M370 44h20M410 44h20M240 45h50M310 45h50M370 45h20M410 45h20M240 46h50M310 46h50M370 46h20M410 46h20M240 47h50M310 47h50M370 47h9M380 47h10M410 47h20M240 48h50M310 48h50M370 48h20M410 48h20M240 49h50M310 49h50M370 49h20M410 49h20M240 50h60M310 50h50M370 50h30M410 50h20M240 51h60M310 51h50M370 51h30M410 51h20M240 52h60M310 52h50M370 52h30M410 52h20M240 53h60M310 53h50M370 53h30M410 53h20M240 54h60M310 54h50M370 54h30M410 54h20M240 55h60M310 55h50M370 55h30M410 55h20M240 56h60M310 56h50M370 56h30M410 56h20M240 57h60M310 57h50M370 57h30M410 57h20M240 58h60M310 58h50M370 58h30M410 58h20M240 59h60M310 59h50M370 59h30M410 59h20M150 60h10M240 60h20M280 60h20M310 60h20M370 60h60M150 61h10M240 61h20M280 61h20M310 61h20M370 61h60M151 62h9M240 62h20M280 62h20M310 62h20M370 62h60M150 63h10M240 63h20M280 63h20M310 63h20M370 63h60M150 64h10M240 64h20M280 64h20M310 64h20M370 64h60M150 65h10M240 65h20M280 65h20M310 65h20M370 65h60M150 66h10M240 66h20M280 66h20M310 66h20M370 66h60M150 67h10M240 67h20M280 67h20M310 67h20M370 67h60M150 68h10M240 68h20M280 68h20M310 68h20M370 68h60M150 69h10M240 69h20M280 69h20M310 69h20M370 69h60M80 70h10M140 70h30M240 70h20M280 70h20M310 70h20M370 70h60M80 71h10M140 71h30M240 71h20M280 71h12M293 71h7M310 71h20M370 71h60M80 72h10M140 72h5M146 72h24M240 72h20M280 72h20M310 72h20M370 72h60M80 73h10M140 73h30M240 73h20M280 73h20M310 73h20M370 73h60M80 74h10M140 74h30M240 74h20M280 74h20M310 74h20M370 74h60M80 75h10M140 75h30M240 75h20M280 75h20M310 75h20M370 75h60M80 76h10M140 76h30M240 76h20M280 76h20M310 76h20M370 76h60M80 77h10M140 77h30M240 77h20M280 77h20M310 77h20M370 77h60M80 78h10M140 78h30M240 78h20M280 78h20M310 78h20M370 78h60M80 79h10M140 79h30M240 79h20M280 79h20M310 79h20M370 79h60M70 80h30M130 80h50M240 80h20M280 80h20M310 80h40M370 80h20M400 80h30M70 81h30M130 81h50M240 81h20M280 81h20M310 81h40M370 81h9M380 81h10M400 81h30M70 82h30M130 82h50M240 82h20M280 82h20M310 82h40M370 82h20M400 82h30M70 83h30M130 83h50M240 83h20M280 83h20M310 83h40M370 83h20M400 83h30M70 84h30M130 84h50M240 84h20M280 84h20M310 84h40M370 84h20M400 84h30M70 85h30M130 85h50M241 85h19M280 85h20M310 85h40M370 85h20M400 85h30M70 86h30M130 86h50M240 86h20M280 86h20M310 86h40M370 86h20M400 86h30M70 87h30M130 87h50M240 87h20M280 87h20M310 87h33M344 87h6M370 87h20M400 87h30M70 88h30M130 88h50M240 88h20M280 88h20M310 88h40M370 88h20M400 88h30M70 89h30M130 89h50M240 89h20M280 89h20M310 89h40M370 89h20M400 89h30M60 90h10M80 90h10M100 90h10M120 90h10M140 90h30M180 90h10M240 90h20M280 90h20M310 90h40M370 90h20M410 90h5M416 90h14M60 91h10M80 91h10M100 91h10M120 91h10M140 91h30M180 91h10M240 91h20M280 91h20M310 91h40M370 91h20M410 91h20M60 92h10M80 92h10M100 92h10M120 92h10M140 92h9M150 92h20M180 92h10M240 92h20M280 92h20M310 92h40M370 92h20M410 92h20M60 93h10M80 93h10M100 93h10M120 93h10M140 93h30M180 93h10M240 93h20M280 93h20M310 93h40M370 93h20M410 93h20M60 94h10M80 94h10M100 94h10M120 94h10M140 94h30M180 94h10M240 94h20M280 94h20M310 94h40M370 94h20M410 94h20M60 95h10M80 95h10M100 95h10M120 95h10M140 95h30M180 95h10M240 95h20M280 95h20M310 95h40M370 95h20M410 95h20M60 96h10M80 96h10M100 96h10M120 96h10M140 96h30M180 96h10M240 96h20M280 96h20M310 96h26M337 96h13M370 96h20M410 96h20M60 97h10M80 97h10M100 97h10M120 97h10M140 97h30M180 97h10M240 97h20M280 97h16M297 97h3M310 97h40M370 97h20M410 97h20M60 98h10M80 98h10M100 98h10M120 98h10M140 98h30M180 98h10M240 98h20M280 98h20M310 98h40M370 98h20M410 98h20M60 99h10M80 99h10M100 99h10M120 99h10M140 99h30M180 99h10M240 99h20M280 99h20M310 99h40M370 99h20M410 99h20M50 100h10M110 100h10M150 100h10M190 100h10M240 100h20M280 100h20M310 100h20M370 100h20M410 100h20M50 101h10M110 101h10M150 101h10M190 101h10M240 101h20M280 101h20M310 101h20M370 101h20M410 101h20M50 102h10M110 102h10M150 102h10M190 102h10M240 102h20M280 102h20M310 102h20M370 102h20M410 102h20M50 103h10M110 103h10M150 103h10M190 103h10M240 103h20M280 103h20M310 103h20M370 103h20M410 103h20M50 104h10M110 104h10M150 104h10M190 104h10M240 104h20M280 104h20M310 104h20M370 104h20M410 104h20M50 105h10M110 105h10M150 105h10M190 105h10M240 105h20M280 105h20M310 105h20M370 105h20M410 105h20M50 106h10M110 106h10M150 106h10M190 106h10M240 106h20M280 106h20M310 106h20M370 106h20M410 106h20M50 107h10M110 107h10M150 107h10M190 107h10M240 107h20M280 107h20M310 107h20M370 107h20M410 107h20M50 108h10M110 108h10M150 108h10M190 108h10M240 108h20M280 108h20M310 108h20M370 108h20M410 108h20M50 109h10M110 109h10M150 109h10M190 109h10M240 109h20M280 109h20M310 109h20M370 109h20M410 109h20M100 110h10M200 110h10M240 110h20M280 110h20M310 110h20M370 110h20M410 110h20M100 111h10M200 111h10M240 111h20M280 111h20M310 111h20M370 111h20M410 111h20M100 112h10M200 112h10M240 112h20M280 112h20M310 112h20M370 112h20M410 112h20M100 113h10M200 113h10M240 113h20M280 113h20M310 113h20M370 113h20M410 113h20M100 114h10M200 114h10M240 114h20M280 114h20M310 114h20M370 114h20M410 114h20M100 115h10M200 115h10M240 115h20M280 115h20M310 115h20M370 115h20M410 115h20M100 116h10M200 116h10M240 116h20M280 116h20M310 116h20M370 116h20M410 116h20M100 117h10M200 117h10M240 117h20M280 117h20M310 117h20M370 117h20M410 117h20M100 118h10M200 118h10M240 118h20M280 118h20M310 118h20M370 118h20M410 118h20M100 119h10M200 119h10M240 119h20M280 119h20M310 119h20M370 119h20M410 119h20M90 120h10M210 120h10M240 120h60M310 120h50M370 120h20M410 120h20M90 121h10M210 121h10M240 121h60M310 121h50M370 121h20M410 121h20M90 122h10M210 122h10M240 122h60M310 122h50M370 122h20M410 122h20M90 123h10M210 123h10M240 123h60M310 123h50M370 123h20M410 123h20M90 124h10M210 124h10M240 124h60M310 124h50M370 124h20M410 124h20M90 125h10M210 125h10M240 125h60M310 125h50M370 125h20M410 125h20M90 126h10M210 126h10M240 126h60M310 126h50M370 126h20M410 126h20M90 127h10M210 127h10M240 127h10M251 127h21M273 127h27M310 127h50M370 127h20M410 127h20M90 128h10M210 128h10M240 128h60M310 128h34M345 128h15M370 128h20M410 128h20M90 129h10M210 129h10M240 129h60M310 129h50M370 129h20M410 129h20M240 130h50M310 130h50M370 130h20M410 130h20M240 131h50M310 131h50M370 131h20M410 131h20M240 132h50M310 132h50M370 132h20M410 132h20M240 133h50M310 133h50M370 133h20M410 133h20M240 134h50M310 134h50M370 134h20M410 134h20M240 135h50M310 135h50M370 135h20M410 135h20M240 136h50M310 136h50M370 136h20M410 136h20M240 137h50M310 137h50M370 137h20M410 137h20M240 138h50M310 138h6M317 138h43M370 138h14M385 138h5M410 138h20M240 139h50M310 139h50M370 139h20M410 139h20" />
<path stroke="#faf236" d="M354 42h1M150 62h1M240 85h1M336 96h1M384 138h1" />
<path stroke="#fbf336" d="M379 47h1M292 71h1M145 72h1M379 81h1M343 87h1M415 90h1M250 127h1M316 138h1" />
<path stroke="#fbf237" d="M149 92h1M296 97h1M272 127h1M344 128h1" />
</svg>