<svg xmlns="http://www.w3.org/2000/svg" viewBox="0 -0.5 480 480" shape-rendering="crispEdges">
<metadata>Made with Pixels to Svg https://codepen.io/shshaw/pen/XbxvNj</metadata>
<path stroke="#fbf236" d="M100 40h10M100 41h10M100 42h10M100 43h10M100 44h10M100 45h10M100 46h10M100 47h10M100 48h10M100 49h10M100 50h10M160 50h50M230 50h20M280 50h20M310 50h50M100 51h10M160 51h50M230 51h20M280 51h20M310 51h50M100 52h10M160 52h50M230 52h20M280 52h20M310 52h50M100 53h10M160 53h50M230 53h20M280 53h20M310 53h50M100 54h10M160 54h50M230 54h20M280 54h20M310 54h50M100 55h10M160 55h50M230 55h20M280 55h20M310 55h50M100 56h10M160 56h50M230 56h20M280 56h20M310 56h5M316 56h44M100 57h10M160 57h50M230 57h20M280 57h20M310 57h50M100 58h10M160 58h50M230 58h20M280 58h20M310 58h50M100 59h10M160 59h50M230 59h20M280 59h20M310 59h50M100 60h10M160 60h60M230 60h20M280 60h20M310 60h60M100 61h10M160 61h60M230 61h20M280 61h20M310 61h60M100 62h10M160 62h60M230 62h20M280 62h20M310 62h60M100 63h10M160 63h60M230 63h20M280 63h20M310 63h60M100 64h10M160 64h60M230 64h20M280 64h20M310 64h60M100 65h10M160 65h60M230 65h20M280 65h20M310 65h60M100 66h10M160 66h60M230 66h20M280 66h20M310 66h60M100 67h10M160 67h60M230 67h20M280 67h20M310 67h60M100 68h10M160 68h60M230 68h20M280 68h1M282 68h18M310 68h60M100 69h10M160 69h60M230 69h20M280 69h20M310 69h60M100 70h10M160 70h20M200 70h20M240 70h20M270 70h20M310 70h20M350 70h20M100 71h10M160 71h20M200 71h20M240 71h20M270 71h20M310 71h20M350 71h20M100 72h10M160 72h20M200 72h20M240 72h20M270 72h20M310 72h20M350 72h20M100 73h10M160 73h20M200 73h20M240 73h20M270 73h20M310 73h20M350 73h20M100 74h10M160 74h20M200 74h20M240 74h20M270 74h20M310 74h20M350 74h20M100 75h10M160 75h20M200 75h20M240 75h20M270 75h20M310 75h20M350 75h20M100 76h10M160 76h20M200 76h20M240 76h20M270 76h20M310 76h20M350 76h20M100 77h10M160 77h20M200 77h20M240 77h20M270 77h20M310 77h20M350 77h20M100 78h10M160 78h20M200 78h20M240 78h20M270 78h20M310 78h20M350 78h20M100 79h10M160 79h20M200 79h20M240 79h20M270 79h20M310 79h20M350 79h20M100 80h20M160 80h20M200 80h20M240 80h10M251 80h9M270 80h20M310 80h20M350 80h20M100 81h20M160 81h20M200 81h20M240 81h20M270 81h20M310 81h20M350 81h20M100 82h20M160 82h20M200 82h20M240 82h20M270 82h20M310 82h20M350 82h20M100 83h20M160 83h20M200 83h20M240 83h20M270 83h20M310 83h20M350 83h20M100 84h20M160 84h20M200 84h20M240 84h20M270 84h20M310 84h20M350 84h20M100 85h20M160 85h20M200 85h20M240 85h20M270 85h20M310 85h20M350 85h20M100 86h20M160 86h20M200 86h20M240 86h20M270 86h20M310 86h20M350 86h20M100 87h20M160 87h20M200 87h20M240 87h20M270 87h20M310 87h20M350 87h20M100 88h20M160 88h20M200 88h20M240 88h20M270 88h20M310 88h20M350 88h20M100 89h20M160 89h20M200 89h20M240 89h20M270 89h20M310 89h20M350 89h20M90 90h30M160 90h20M200 90h20M250 90h30M310 90h60M90 91h30M160 91h20M200 91h20M250 91h30M310 91h60M90 92h30M160 92h20M200 92h20M250 92h30M310 92h60M90 93h6M97 93h23M160 93h20M200 93h20M250 93h30M310 93h60M90 94h30M160 94h20M200 94h20M250 94h30M310 94h60M90 95h30M160 95h20M200 95h20M250 95h30M310 95h60M90 96h30M160 96h20M200 96h20M250 96h30M310 96h60M90 97h30M160 97h20M200 97h20M250 97h30M310 97h60M90 98h30M160 98h20M200 98h20M250 98h30M310 98h60M90 99h30M160 99h20M200 99h20M250 99h30M310 99h60M90 100h30M160 100h20M200 100h20M250 100h30M310 100h50M90 101h30M160 101h20M200 101h20M250 101h30M310 101h50M90 102h30M160 102h20M200 102h16M217 102h3M250 102h30M310 102h50M90 103h30M160 103h20M200 103h20M250 103h30M310 103h50M90 104h30M160 104h20M200 104h20M250 104h30M310 104h50M90 105h30M160 105h20M200 105h20M250 105h30M310 105h50M90 106h30M160 106h20M200 106h20M250 106h30M310 106h50M90 107h30M160 107h20M200 107h20M250 107h30M310 107h50M90 108h30M160 108h20M200 108h20M250 108h30M310 108h50M90 109h30M160 109h20M200 109h20M250 109h30M310 109h50M90 110h40M160 110h20M200 110h20M240 110h20M270 110h20M310 110h20M350 110h20M90 111h40M160 111h20M200 111h20M240 111h20M270 111h20M310 111h20M350 111h20M90 112h40M160 112h20M200 112h20M240 112h20M270 112h20M310 112h20M350 112h20M90 113h40M160 113h20M200 113h20M240 113h20M270 113h20M310 113h20M350 113h20M90 114h40M160 114h20M200 114h20M240 114h20M270 114h20M310 114h20M350 114h20M90 115h40M160 115h20M200 115h20M240 115h20M270 115h20M310 115h20M350 115h20M90 116h40M160 116h20M200 116h20M240 116h20M270 116h5M276 116h14M310 116h20M350 116h20M90 117h40M160 117h20M200 117h20M240 117h20M270 117h20M310 117h20M350 117h20M90 118h40M160 118h20M200 118h20M240 118h20M270 118h20M310 118h20M350 118h17M368 118h2M90 119h40M160 119h20M200 119h20M240 119h20M270 119h20M310 119h20M350 119h20M90 120h40M160 120h20M200 120h20M240 120h20M270 120h20M310 120h20M350 120h20M90 121h40M160 121h20M200 121h20M240 121h20M270 121h20M310 121h20M350 121h20M90 122h40M160 122h20M200 122h20M240 122h20M270 122h20M310 122h20M350 122h20M90 123h40M160 123h20M200 123h20M240 123h20M270 123h20M310 123h20M350 123h20M90 124h40M160 124h20M200 124h20M240 124h20M270 124h20M310 124h7M318 124h12M350 124h20M90 125h40M160 125h20M200 125h20M240 125h20M270 125h20M310 125h20M350 125h20M90 126h40M160 126h20M200 126h20M240 126h20M270 126h20M310 126h20M350 126h20M90 127h40M160 127h20M200 127h20M240 127h20M270 127h20M310 127h20M350 127h20M90 128h40M160 128h20M200 128h20M240 128h20M270 128h20M310 128h20M350 128h20M90 129h40M160 129h20M200 129h20M240 129h20M270 129h20M310 129h20M350 129h20M80 130h50M160 130h60M230 130h20M280 130h20M310 130h60M80 131h50M160 131h60M230 131h20M280 131h20M310 131h60M80 132h50M160 132h60M230 132h20M280 132h20M310 132h60M80 133h50M160 133h38M199 133h21M230 133h20M280 133h20M310 133h60M80 134h50M160 134h60M230 134h20M280 134h20M310 134h41M352 134h18M80 135h50M160 135h60M230 135h20M280 135h20M310 135h60M80 136h50M160 136h60M230 136h20M280 136h20M310 136h60M80 137h50M160 137h60M230 137h20M280 137h20M310 137h60M80 138h50M160 138h60M230 138h20M280 138h20M310 138h60M80 139h50M160 139h60M230 139h20M280 139h20M310 139h60M80 140h50M131 140h9M160 140h50M230 140h20M280 140h20M310 140h50M80 141h60M160 141h50M230 141h20M280 141h20M310 141h50M80 142h60M160 142h50M230 142h20M280 142h20M310 142h50M80 143h60M160 143h50M230 143h20M280 143h20M310 143h50M80 144h60M160 144h50M230 144h20M280 144h20M310 144h50M80 145h60M160 145h50M230 145h20M280 145h20M310 145h50M80 146h60M160 146h50M230 146h20M280 146h20M310 146h50M80 147h60M160 147h50M230 147h20M280 147h20M310 147h50M80 148h60M160 148h50M230 148h20M280 148h20M310 148h50M80 149h40M121 149h19M160 149h50M230 149h20M280 149h17M298 149h2M310 149h50M80 150h60M80 151h60M80 152h60M80 153h60M80 154h60M80 155h60M80 156h60M80 157h60M80 158h60M80 159h60" />
<path stroke="#faf236" d="M315 56h1M96 93h1M216 102h1M198 133h1M351 134h1M120 149h1M297 149h1" />
<path stroke="#fbf237" d="M281 68h1M275 116h1M317 124h1" />
<path stroke="#fbf336" d="M250 80h1M367 118h1M130 140h1" />
</svg>