<svg xmlns="http://www.w3.org/2000/svg" viewBox="0 -0.5 480 480" shape-rendering="crispEdges">
<metadata>Made with Pixels to Svg https://codepen.io/shshaw/pen/XbxvNj</metadata>
<path stroke="#fbf236" d="M70 40h20M100 40h30M140 40h20M70 41h20M100 41h30M140 41h20M70 42h17M88 42h2M100 42h30M140 42h20M70 43h20M100 43h30M140 43h20M70 44h20M100 44h30M140 44h20M70 45h20M100 45h30M140 45h20M70 46h20M100 46h30M140 46h20M70 47h20M100 47h30M140 47h20M70 48h20M100 48h30M140 48h20M70 49h20M100 49h30M140 49h20M60 50h10M90 50h10M130 50h10M160 50h10M210 50h50M270 50h20M330 50h10M341 50h9M360 50h50M60 51h10M90 51h10M130 51h10M160 51h10M210 51h50M270 51h20M330 51h20M360 51h50M60 52h10M90 52h10M130 52h10M160 52h10M210 52h50M270 52h20M330 52h20M360 52h50M60 53h10M90 53h10M130 53h10M160 53h10M210 53h50M270 53h20M330 53h20M360 53h50M60 54h10M90 54h10M130 54h1M132 54h8M160 54h10M210 54h50M270 54h20M330 54h20M360 54h50M60 55h10M90 55h10M130 55h10M160 55h10M210 55h50M270 55h20M330 55h20M360 55h50M60 56h10M90 56h10M130 56h10M160 56h10M210 56h50M270 56h20M330 56h20M360 56h50M60 57h10M90 57h10M130 57h10M160 57h10M210 57h50M270 57h20M330 57h20M360 57h50M60 58h10M90 58h10M130 58h10M160 58h10M210 58h50M270 58h20M330 58h20M360 58h42M403 58h7M60 59h10M90 59h10M130 59h10M160 59h10M210 59h50M270 59h20M330 59h20M360 59h50M50 60h10M90 60h10M130 60h10M170 60h10M200 60h60M270 60h30M320 60h30M360 60h60M50 61h10M90 61h10M130 61h10M170 61h10M200 61h60M270 61h30M320 61h30M360 61h60M50 62h10M90 62h10M130 62h10M170 62h10M200 62h60M270 62h30M320 62h30M360 62h60M50 63h10M90 63h10M130 63h10M170 63h10M200 63h60M270 63h30M320 63h30M360 63h60M50 64h10M90 64h10M130 64h10M170 64h10M200 64h60M270 64h30M320 64h19M340 64h10M360 64h60M50 65h7M58 65h2M90 65h10M130 65h10M170 65h10M200 65h60M270 65h30M320 65h30M360 65h60M50 66h10M90 66h10M130 66h10M170 66h10M200 66h60M270 66h30M320 66h30M360 66h60M50 67h10M90 67h3M94 67h6M130 67h10M170 67h10M200 67h60M270 67h30M320 67h30M360 67h60M50 68h10M90 68h10M130 68h10M170 68h10M200 68h60M270 68h30M320 68h30M360 68h60M50 69h10M90 69h10M130 69h10M170 69h10M200 69h60M270 69h30M320 69h30M360 69h60M50 70h10M90 70h10M130 70h10M170 70h10M200 70h20M270 70h80M360 70h20M400 70h20M50 71h10M90 71h10M130 71h10M170 71h10M200 71h20M270 71h66M337 71h13M360 71h20M400 71h20M50 72h10M90 72h10M130 72h10M170 72h10M200 72h20M270 72h80M360 72h20M400 72h20M50 73h10M90 73h10M130 73h10M170 73h10M200 73h20M270 73h80M360 73h20M400 73h20M50 74h10M90 74h10M130 74h10M170 74h10M200 74h20M270 74h80M360 74h20M400 74h20M50 75h10M90 75h10M130 75h10M170 75h10M200 75h20M270 75h80M360 75h20M400 75h20M50 76h10M90 76h10M130 76h10M170 76h10M200 76h20M270 76h80M360 76h20M400 76h20M50 77h10M90 77h10M130 77h10M170 77h10M200 77h20M270 77h21M292 77h58M360 77h20M400 77h20M50 78h10M90 78h10M130 78h10M170 78h10M200 78h20M270 78h80M360 78h20M400 78h20M50 79h10M90 79h10M130 79h10M170 79h10M200 79h20M270 79h80M360 79h20M400 79h20M60 80h10M100 80h10M120 80h10M160 80h10M200 80h20M270 80h80M360 80h20M400 80h20M60 81h10M100 81h10M120 81h10M160 81h10M200 81h20M270 81h80M360 81h20M400 81h20M60 82h10M100 82h10M120 82h10M160 82h10M200 82h20M270 82h80M360 82h20M400 82h20M60 83h10M100 83h10M120 83h10M160 83h10M200 83h20M270 83h80M360 83h20M400 83h20M60 84h10M100 84h10M120 84h10M160 84h10M200 84h20M270 84h80M360 84h20M400 84h20M60 85h10M100 85h10M120 85h10M160 85h10M200 85h20M270 85h80M360 85h20M400 85h20M60 86h10M100 86h10M120 86h10M160 86h10M200 86h20M270 86h80M360 86h20M400 86h20M60 87h10M100 87h10M120 87h10M160 87h10M200 87h20M270 87h80M360 87h20M400 87h20M60 88h10M100 88h10M120 88h10M160 88h10M200 88h20M270 88h80M360 88h20M400 88h20M60 89h10M100 89h10M120 89h10M160 89h10M200 89h20M270 89h80M360 89h20M400 89h20M70 90h10M100 90h10M120 90h10M150 90h10M200 90h20M230 90h30M270 90h20M300 90h20M330 90h20M360 90h60M70 91h10M100 91h10M120 91h10M150 91h10M200 91h20M230 91h30M270 91h20M300 91h20M330 91h20M360 91h60M70 92h10M100 92h10M120 92h10M150 92h10M200 92h20M230 92h30M270 92h20M300 92h20M330 92h20M360 92h60M70 93h10M100 93h10M120 93h10M150 93h10M200 93h20M230 93h30M270 93h20M300 93h20M330 93h20M360 93h60M70 94h10M100 94h10M120 94h10M150 94h10M200 94h20M230 94h30M270 94h20M300 94h20M330 94h20M360 94h60M70 95h10M100 95h10M120 95h10M150 95h10M200 95h20M230 95h30M270 95h6M277 95h13M300 95h20M330 95h20M360 95h60M70 96h10M100 96h10M120 96h10M150 96h10M200 96h20M230 96h30M270 96h20M300 96h20M330 96h20M360 96h60M70 97h10M100 97h10M120 97h10M150 97h10M200 97h20M230 97h30M270 97h20M300 97h20M330 97h20M360 97h60M70 98h10M100 98h10M120 98h10M150 98h10M200 98h20M230 98h30M270 98h20M300 98h20M330 98h20M360 98h60M70 99h10M100 99h10M120 99h10M150 99h10M200 99h20M230 99h30M270 99h20M300 99h20M330 99h20M360 99h60M80 100h10M140 100h10M200 100h20M230 100h30M271 100h19M300 100h20M330 100h20M360 100h50M80 101h10M140 101h10M200 101h20M230 101h30M270 101h20M300 101h20M330 101h20M360 101h50M80 102h10M140 102h10M200 102h20M230 102h30M270 102h20M300 102h20M330 102h20M360 102h11M372 102h38M80 103h10M140 103h10M200 103h20M230 103h30M270 103h20M300 103h20M330 103h20M360 103h50M80 104h10M140 104h10M200 104h20M230 104h30M270 104h20M300 104h20M330 104h20M360 104h50M80 105h8M89 105h1M140 105h10M200 105h20M230 105h30M270 105h20M300 105h20M330 105h20M360 105h50M80 106h10M140 106h10M200 106h20M230 106h30M270 106h20M300 106h20M330 106h20M360 106h50M80 107h10M140 107h10M200 107h20M230 107h30M270 107h20M300 107h9M310 107h10M330 107h20M360 107h50M80 108h10M140 108h10M200 108h20M230 108h30M270 108h20M300 108h20M330 108h20M360 108h50M80 109h10M140 109h10M200 109h20M230 109h22M253 109h7M270 109h20M300 109h20M330 109h20M360 109h50M90 110h10M110 110h10M130 110h10M200 110h20M240 110h20M270 110h20M300 110h20M330 110h20M360 110h20M400 110h20M90 111h10M110 111h10M130 111h10M200 111h20M240 111h20M270 111h10M281 111h9M300 111h20M330 111h20M360 111h20M400 111h20M90 112h10M110 112h10M130 112h10M200 112h20M240 112h20M270 112h20M300 112h20M330 112h20M360 112h20M400 112h20M90 113h10M110 113h10M130 113h10M200 113h20M240 113h20M270 113h20M300 113h20M330 113h20M360 113h20M400 113h20M90 114h10M110 114h10M130 114h10M200 114h20M240 114h20M270 114h20M300 114h20M330 114h20M360 114h20M400 114h20M90 115h10M110 115h10M130 115h10M200 115h20M240 115h20M270 115h20M300 115h20M330 115h20M360 115h20M400 115h20M90 116h10M110 116h10M130 116h10M200 116h20M240 116h3M244 116h16M270 116h20M300 116h20M330 116h20M360 116h20M400 116h20M90 117h10M110 117h10M130 117h10M200 117h20M240 117h20M270 117h20M300 117h20M330 117h20M360 117h20M400 117h20M90 118h10M110 118h10M130 118h10M200 118h20M240 118h20M270 118h20M300 118h20M330 118h20M360 118h20M400 118h20M90 119h10M110 119h10M130 119h10M200 119h20M240 119h20M270 119h20M300 119h20M330 119h20M360 119h20M400 119h20M80 120h10M140 120h10M200 120h20M240 120h20M270 120h20M300 120h20M330 120h20M360 120h20M400 120h20M80 121h10M140 121h10M200 121h20M240 121h20M270 121h20M300 121h20M330 121h20M360 121h20M400 121h20M80 122h10M140 122h10M200 122h20M240 122h20M270 122h20M300 122h20M330 122h20M360 122h20M400 122h20M80 123h10M140 123h10M200 123h20M240 123h20M270 123h20M300 123h20M330 123h20M360 123h20M400 123h20M80 124h10M140 124h10M200 124h20M240 124h20M270 124h20M300 124h20M330 124h20M360 124h20M400 124h20M80 125h10M140 125h10M200 125h20M240 125h20M270 125h20M300 125h20M330 125h20M360 125h20M400 125h20M80 126h10M140 126h10M200 126h20M240 126h20M270 126h20M300 126h20M330 126h20M360 126h20M400 126h20M80 127h10M140 127h10M200 127h20M240 127h20M270 127h20M300 127h20M330 127h20M360 127h20M400 127h20M80 128h10M140 128h10M200 128h20M240 128h20M270 128h20M300 128h20M330 128h20M360 128h20M400 128h20M80 129h10M140 129h10M200 129h20M240 129h20M270 129h20M300 129h20M330 129h20M360 129h20M400 129h20M80 130h10M100 130h10M120 130h10M140 130h10M200 130h60M270 130h20M300 130h20M330 130h20M360 130h20M400 130h20M80 131h10M100 131h10M120 131h10M140 131h10M200 131h60M270 131h20M300 131h20M330 131h20M360 131h20M400 131h20M80 132h10M100 132h10M120 132h10M140 132h10M200 132h60M270 132h20M300 132h20M330 132h20M360 132h20M400 132h20M80 133h10M100 133h10M120 133h10M140 133h10M200 133h60M270 133h20M300 133h20M330 133h20M360 133h20M400 133h20M80 134h10M100 134h10M120 134h10M140 134h10M200 134h60M270 134h20M300 134h20M330 134h20M360 134h20M400 134h20M80 135h10M100 135h10M120 135h10M140 135h10M200 135h60M270 135h20M300 135h20M330 135h20M360 135h12M373 135h7M400 135h20M80 136h10M100 136h10M120 136h10M140 136h10M200 136h60M270 136h20M300 136h20M330 136h20M360 136h20M400 136h20M80 137h10M100 137h10M120 137h10M140 137h10M200 137h60M270 137h20M300 137h20M330 137h20M360 137h20M400 137h20M80 138h10M100 138h10M120 138h10M140 138h10M200 138h60M270 138h20M300 138h20M330 138h20M360 138h20M400 138h20M80 139h10M100 139h10M120 139h10M140 139h10M200 139h60M270 139h20M300 139h20M330 139h20M360 139h20M400 139h20M90 140h10M110 140h10M130 140h10M210 140h50M270 140h20M300 140h20M330 140h20M360 140h20M400 140h20M90 141h10M110 141h10M130 141h10M210 141h50M270 141h20M300 141h20M330 141h20M360 141h20M400 141h20M90 142h10M110 142h10M130 142h10M210 142h50M270 142h20M300 142h20M330 142h20M360 142h20M400 142h20M90 143h10M110 143h10M130 143h10M210 143h50M270 143h20M300 143h20M330 143h20M360 143h20M400 143h20M90 144h10M110 144h10M130 144h10M210 144h50M270 144h20M300 144h20M330 144h20M360 144h20M400 144h20M90 145h10M110 145h10M130 145h10M210 145h50M270 145h20M300 145h20M330 145h20M360 145h20M400 145h20M90 146h10M110 146h10M130 146h10M210 146h50M270 146h20M300 146h20M330 146h20M360 146h20M400 146h20M90 147h10M110 147h10M130 147h10M210 147h50M270 147h20M300 147h20M330 147h20M360 147h20M400 147h20M90 148h10M110 148h10M130 148h10M210 148h50M270 148h20M300 148h20M330 148h20M360 148h20M400 148h20M90 149h10M110 149h10M130 149h10M210 149h50M270 149h20M300 149h20M330 149h20M360 149h11M372 149h8M400 149h20" />
<path stroke="#faf236" d="M87 42h1M402 58h1M339 64h1M57 65h1M93 67h1M336 71h1M291 77h1M276 95h1M270 100h1M309 107h1M252 109h1M243 116h1M372 135h1" />
<path stroke="#fbf336" d="M340 50h1M88 105h1M280 111h1" />
<path stroke="#fbf237" d="M131 54h1M371 102h1M371 149h1" />
</svg>