<svg xmlns="http://www.w3.org/2000/svg" viewBox="0 -0.5 480 480" shape-rendering="crispEdges">
<metadata>Made with Pixels to Svg https://codepen.io/shshaw/pen/XbxvNj</metadata>
<path stroke="#fbf236" d="M80 50h10M100 50h10M130 50h20M80 51h10M100 51h10M130 51h20M80 52h10M100 52h10M130 52h20M80 53h10M100 53h10M130 53h20M80 54h10M100 54h10M130 54h20M80 55h10M100 55h10M130 55h20M80 56h10M100 56h10M130 56h20M80 57h10M100 57h10M130 57h20M80 58h10M100 58h10M130 58h20M80 59h10M100 59h10M130 59h20M90 60h10M120 60h40M220 60h20M260 60h20M290 60h20M330 60h20M360 60h20M90 61h10M120 61h40M220 61h20M260 61h20M290 61h20M330 61h20M360 61h20M90 62h10M120 62h40M220 62h20M260 62h20M290 62h20M330 62h20M360 62h20M90 63h10M120 63h40M220 63h20M260 63h20M290 63h20M330 63h20M360 63h20M90 64h10M120 64h40M220 64h20M260 64h20M290 64h20M330 64h20M360 64h20M90 65h10M120 65h40M220 65h20M260 65h20M290 65h20M330 65h20M360 65h20M90 66h10M120 66h40M220 66h20M260 66h20M290 66h20M330 66h20M360 66h20M90 67h10M120 67h40M220 67h20M260 67h20M290 67h20M330 67h20M360 67h20M90 68h10M120 68h40M220 68h20M260 68h20M290 68h20M330 68h20M360 68h20M90 69h10M120 69h40M220 69h20M260 69h20M290 69h20M330 69h20M360 69h20M80 70h10M100 70h10M120 70h40M220 70h20M260 70h20M290 70h30M330 70h20M360 70h14M375 70h5M80 71h10M100 71h10M120 71h40M220 71h20M260 71h20M290 71h30M330 71h20M360 71h20M80 72h10M100 72h10M120 72h40M220 72h20M260 72h20M290 72h30M330 72h20M360 72h20M80 73h10M100 73h10M120 73h40M220 73h20M260 73h20M290 73h30M330 73h20M360 73h20M80 74h10M100 74h10M120 74h40M220 74h20M260 74h20M290 74h30M330 74h20M360 74h20M80 75h10M100 75h10M120 75h40M220 75h20M260 75h20M290 75h30M330 75h20M360 75h20M80 76h10M100 76h10M120 76h40M220 76h20M260 76h20M290 76h30M330 76h20M360 76h20M80 77h10M100 77h10M120 77h40M220 77h20M260 77h20M290 77h30M330 77h20M360 77h20M80 78h10M100 78h10M120 78h40M220 78h20M260 78h20M290 78h30M330 78h20M360 78h20M80 79h10M100 79h10M120 79h40M220 79h20M260 79h20M290 79h30M330 79h20M360 79h20M110 80h10M130 80h30M170 80h20M220 80h20M260 80h20M290 80h60M360 80h20M110 81h10M130 81h30M170 81h20M220 81h20M260 81h20M290 81h60M360 81h16M377 81h3M110 82h10M130 82h30M170 82h20M220 82h20M260 82h20M290 82h60M360 82h20M110 83h10M130 83h30M170 83h20M220 83h20M260 83h20M290 83h60M360 83h20M110 84h10M130 84h30M170 84h20M220 84h20M260 84h20M290 84h60M360 84h20M110 85h10M130 85h30M170 85h20M220 85h20M260 85h20M290 85h60M360 85h20M110 86h10M130 86h30M170 86h20M220 86h20M260 86h20M290 86h60M360 86h20M110 87h10M130 87h30M170 87h20M220 87h20M260 87h20M290 87h60M360 87h20M110 88h10M130 88h30M170 88h20M220 88h20M260 88h20M290 88h60M360 88h20M110 89h10M130 89h30M170 89h20M220 89h20M260 89h20M290 89h60M360 89h20M80 90h30M120 90h10M140 90h10M160 90h40M220 90h20M260 90h20M290 90h60M360 90h20M80 91h30M120 91h10M140 91h10M160 91h40M220 91h20M260 91h20M290 91h60M360 91h20M80 92h30M120 92h10M140 92h10M160 92h40M220 92h20M260 92h20M290 92h60M360 92h20M80 93h30M120 93h10M140 93h10M160 93h40M220 93h20M260 93h20M290 93h60M360 93h20M80 94h30M120 94h10M140 94h10M160 94h40M220 94h20M260 94h20M290 94h60M360 94h20M80 95h30M120 95h10M140 95h10M160 95h40M220 95h20M260 95h20M290 95h30M321 95h29M360 95h20M80 96h30M120 96h10M140 96h10M160 96h40M220 96h20M260 96h20M290 96h4M295 96h55M360 96h20M80 97h30M120 97h10M140 97h10M160 97h40M220 97h20M260 97h20M290 97h12M303 97h47M360 97h20M80 98h30M120 98h10M140 98h10M160 98h40M220 98h20M260 98h20M290 98h60M360 98h20M80 99h18M99 99h11M120 99h10M140 99h10M160 99h40M220 99h20M260 99h20M290 99h60M360 99h20M70 100h50M130 100h10M150 100h50M220 100h60M290 100h20M320 100h30M360 100h20M70 101h50M130 101h10M150 101h50M220 101h60M290 101h20M320 101h30M360 101h20M70 102h50M130 102h10M150 102h50M220 102h60M290 102h20M320 102h30M360 102h20M70 103h50M130 103h10M150 103h50M220 103h60M290 103h20M320 103h30M360 103h20M70 104h50M130 104h10M150 104h50M220 104h60M290 104h20M320 104h30M360 104h20M70 105h50M130 105h10M150 105h50M220 105h60M290 105h20M320 105h30M360 105h20M70 106h50M130 106h10M150 106h50M220 106h60M290 106h20M320 106h30M360 106h20M70 107h50M130 107h10M150 107h50M220 107h60M290 107h20M320 107h30M360 107h20M70 108h50M130 108h10M150 108h50M220 108h60M290 108h20M320 108h30M360 108h20M70 109h50M130 109h10M150 109h50M220 109h60M290 109h20M320 109h30M360 109h20M80 110h50M140 110h13M154 110h36M220 110h60M290 110h20M330 110h20M360 110h20M80 111h50M140 111h50M220 111h60M290 111h20M330 111h20M360 111h20M80 112h50M140 112h50M220 112h60M290 112h20M330 112h20M360 112h20M80 113h50M140 113h50M220 113h60M290 113h20M330 113h20M360 113h20M80 114h50M140 114h50M220 114h60M290 114h20M330 114h20M360 114h20M80 115h33M114 115h16M140 115h50M220 115h60M290 115h20M330 115h20M360 115h20M80 116h50M140 116h50M220 116h60M290 116h20M330 116h20M360 116h20M80 117h50M140 117h50M220 117h60M290 117h20M330 117h20M360 117h20M80 118h50M140 118h50M220 118h60M290 118h20M330 118h20M360 118h20M80 119h50M140 119h50M220 119h60M290 119h20M330 119h20M360 119h20M120 120h40M220 120h20M260 120h20M290 120h20M330 120h20M360 120h20M120 121h40M220 121h20M260 121h20M290 121h20M330 121h20M360 121h20M120 122h40M220 122h20M260 122h20M290 122h20M330 122h20M360 122h20M120 123h40M220 123h20M260 123h20M290 123h20M330 123h20M360 123h20M120 124h40M220 124h20M260 124h20M290 124h20M330 124h20M360 124h20M120 125h40M220 125h20M260 125h20M290 125h20M330 125h20M360 125h20M120 126h40M220 126h20M260 126h20M290 126h20M330 126h20M360 126h20M120 127h40M220 127h20M260 127h20M290 127h20M330 127h20M360 127h20M120 128h40M220 128h20M260 128h20M290 128h20M330 128h20M360 128h20M120 129h40M220 129h20M260 129h20M290 129h20M330 129h20M360 129h20M100 130h80M220 130h20M260 130h20M290 130h20M330 130h20M360 130h20M100 131h80M220 131h20M260 131h20M290 131h20M330 131h20M360 131h20M100 132h80M220 132h20M260 132h20M290 132h20M330 132h20M360 132h20M100 133h80M220 133h20M260 133h20M290 133h20M330 133h20M360 133h20M100 134h80M220 134h20M260 134h20M290 134h20M330 134h20M360 134h12M373 134h7M100 135h80M220 135h20M260 135h20M290 135h20M330 135h20M360 135h20M100 136h80M220 136h20M260 136h20M290 136h20M330 136h20M360 136h20M100 137h80M220 137h20M260 137h20M290 137h20M330 137h20M360 137h20M100 138h80M220 138h20M260 138h20M290 138h20M330 138h20M360 138h20M100 139h80M220 139h20M260 139h20M290 139h20M330 139h20M360 139h20M90 140h50M150 140h31M182 140h8M220 140h20M260 140h20M290 140h4M295 140h15M330 140h20M360 140h50M90 141h32M123 141h17M150 141h40M220 141h20M260 141h20M290 141h20M330 141h3M334 141h16M360 141h14M375 141h35M90 142h50M150 142h40M220 142h20M260 142h20M290 142h20M330 142h20M360 142h50M90 143h50M150 143h20M171 143h19M220 143h20M260 143h20M290 143h20M330 143h20M360 143h50M90 144h50M150 144h40M220 144h20M260 144h20M290 144h20M330 144h20M360 144h50M90 145h50M150 145h40M220 145h20M260 145h20M290 145h20M330 145h20M360 145h50M90 146h50M150 146h40M220 146h20M260 146h20M290 146h20M330 146h20M360 146h50M90 147h50M150 147h40M220 147h20M260 147h20M290 147h20M330 147h20M360 147h50M90 148h50M150 148h40M220 148h20M260 148h20M290 148h20M330 148h20M360 148h50M90 149h50M150 149h40M220 149h20M260 149h9M270 149h10M290 149h20M330 149h20M360 149h50M100 150h30M150 150h40M220 150h20M260 150h20M290 150h20M330 150h20M360 150h50M100 151h30M150 151h40M220 151h20M260 151h20M290 151h20M330 151h20M360 151h50M100 152h30M150 152h7M158 152h32M220 152h20M260 152h20M290 152h20M330 152h20M360 152h50M100 153h30M150 153h40M220 153h20M260 153h20M290 153h20M330 153h20M360 153h50M100 154h30M150 154h40M220 154h20M260 154h20M290 154h20M330 154h20M360 154h50M100 155h30M150 155h40M220 155h20M260 155h20M290 155h20M330 155h20M360 155h50M100 156h30M150 156h40M220 156h20M260 156h20M290 156h20M330 156h20M360 156h50M100 157h30M150 157h40M220 157h20M260 157h20M290 157h20M330 157h20M360 157h50M100 158h30M150 158h40M220 158h20M260 158h20M290 158h20M330 158h20M360 158h50M100 159h30M150 159h40M220 159h20M260 159h20M290 159h20M330 159h20M360 159h50M160 160h20M160 161h20M160 162h20M160 163h20M160 164h20M160 165h20M160 166h20M160 167h20M160 168h20M160 169h20" />
<path stroke="#fbf237" d="M374 70h1M320 95h1M302 97h1M98 99h1M113 115h1M122 141h1M374 141h1M170 143h1M269 149h1" />
<path stroke="#fbf336" d="M376 81h1M181 140h1M157 152h1" />
<path stroke="#faf236" d="M294 96h1M153 110h1M372 134h1M294 140h1M333 141h1" />
</svg>