<svg xmlns="http://www.w3.org/2000/svg" viewBox="0 -0.5 480 480" shape-rendering="crispEdges">
<metadata>Made with Pixels to Svg https://codepen.io/shshaw/pen/XbxvNj</metadata>
<path stroke="#fbf236" d="M120 50h50M220 50h20M260 50h40M320 50h60M120 51h50M220 51h20M260 51h40M320 51h60M120 52h50M220 52h20M260 52h40M320 52h60M120 53h50M220 53h20M260 53h40M320 53h60M120 54h50M220 54h20M260 54h40M320 54h60M120 55h3M124 55h46M220 55h20M260 55h40M320 55h60M120 56h50M220 56h20M260 56h40M320 56h60M120 57h50M220 57h20M260 57h40M320 57h60M120 58h50M220 58h20M260 58h40M320 58h60M120 59h50M220 59h20M260 59h40M320 59h60M110 60h70M220 60h20M250 60h60M320 60h60M110 61h70M220 61h20M250 61h60M320 61h51M372 61h8M110 62h70M220 62h20M250 62h60M320 62h60M110 63h70M220 63h20M250 63h60M320 63h60M110 64h70M220 64h20M250 64h60M320 64h60M110 65h70M220 65h20M250 65h60M320 65h60M110 66h70M220 66h20M250 66h60M320 66h60M110 67h70M220 67h20M250 67h60M320 67h36M357 67h23M110 68h70M220 68h20M250 68h60M320 68h60M110 69h70M220 69h20M250 69h60M320 69h60M100 70h30M160 70h30M220 70h20M250 70h20M290 70h20M340 70h20M100 71h30M160 71h30M220 71h20M250 71h20M290 71h20M340 71h20M100 72h30M160 72h30M220 72h20M250 72h20M290 72h20M340 72h20M100 73h30M160 73h30M220 73h20M250 73h20M290 73h20M340 73h20M100 74h30M160 74h30M220 74h20M250 74h20M290 74h20M340 74h20M100 75h30M160 75h30M220 75h20M250 75h20M290 75h20M340 75h20M100 76h30M160 76h30M220 76h20M250 76h20M290 76h20M340 76h20M100 77h30M160 77h30M220 77h20M250 77h20M290 77h20M340 77h20M100 78h30M160 78h30M220 78h20M250 78h20M290 78h20M340 78h20M100 79h30M160 79h30M220 79h20M250 79h20M290 79h20M340 79h20M90 80h30M130 80h30M170 80h30M220 80h20M250 80h20M340 80h20M90 81h30M130 81h30M170 81h30M220 81h20M250 81h20M340 81h20M90 82h30M130 82h30M170 82h30M220 82h20M250 82h20M340 82h20M90 83h30M130 83h30M170 83h30M220 83h20M250 83h20M340 83h20M90 84h30M130 84h30M170 84h30M220 84h20M250 84h20M340 84h20M90 85h30M130 85h30M170 85h30M220 85h20M250 85h20M340 85h20M90 86h30M130 86h30M170 86h30M220 86h20M250 86h20M340 86h20M90 87h30M130 87h27M158 87h2M170 87h30M220 87h20M250 87h20M340 87h20M90 88h30M130 88h30M170 88h30M220 88h20M250 88h20M340 88h20M90 89h30M130 89h30M170 89h30M220 89h20M250 89h20M340 89h20M90 90h20M120 90h10M160 90h10M180 90h20M220 90h20M250 90h50M340 90h20M90 91h20M120 91h10M160 91h10M180 91h20M220 91h20M250 91h50M340 91h20M90 92h20M120 92h10M160 92h10M180 92h20M220 92h20M250 92h50M340 92h20M90 93h20M120 93h10M160 93h10M180 93h20M220 93h20M250 93h50M340 93h20M90 94h20M120 94h10M160 94h10M180 94h20M220 94h20M250 94h50M340 94h20M90 95h20M120 95h10M160 95h10M180 95h20M220 95h20M250 95h50M340 95h20M90 96h20M120 96h10M160 96h10M180 96h20M220 96h20M250 96h50M340 96h20M90 97h20M120 97h10M160 97h10M180 97h20M220 97h20M250 97h50M340 97h20M90 98h20M120 98h10M160 98h10M180 98h20M220 98h20M250 98h50M340 98h20M90 99h20M120 99h10M160 99h10M180 99h20M220 99h20M250 99h50M340 99h20M90 100h20M120 100h10M160 100h10M180 100h20M220 100h20M260 100h37M298 100h12M340 100h20M90 101h20M120 101h10M160 101h10M180 101h20M220 101h20M260 101h50M340 101h20M90 102h20M120 102h10M160 102h10M180 102h20M220 102h20M260 102h50M340 102h20M90 103h20M120 103h10M160 103h10M180 103h20M220 103h20M260 103h50M340 103h20M90 104h20M120 104h10M160 104h10M180 104h20M220 104h20M260 104h50M340 104h20M90 105h20M120 105h10M160 105h10M180 105h20M220 105h20M260 105h50M340 105h20M90 106h20M120 106h10M160 106h10M180 106h20M220 106h20M260 106h50M340 106h20M90 107h20M120 107h10M160 107h10M180 107h20M220 107h20M260 107h50M340 107h20M90 108h20M120 108h10M160 108h10M180 108h20M220 108h20M260 108h50M340 108h20M90 109h20M120 109h10M160 109h10M180 109h20M220 109h20M260 109h50M340 109h20M90 110h30M130 110h30M170 110h30M220 110h11M232 110h8M290 110h20M340 110h20M90 111h30M130 111h30M170 111h30M220 111h20M290 111h20M340 111h10M351 111h5M357 111h3M90 112h30M130 112h30M170 112h30M220 112h20M290 112h20M340 112h20M90 113h30M130 113h30M170 113h30M220 113h20M290 113h20M340 113h20M90 114h20M111 114h9M130 114h30M170 114h30M220 114h20M290 114h20M340 114h20M90 115h30M130 115h30M170 115h30M220 115h20M290 115h20M340 115h20M90 116h30M130 116h30M170 116h30M220 116h20M290 116h20M340 116h14M355 116h5M90 117h11M102 117h18M130 117h30M170 117h30M220 117h20M290 117h20M341 117h19M90 118h30M130 118h30M170 118h30M220 118h20M290 118h20M340 118h20M90 119h30M130 119h30M170 119h30M220 119h20M290 119h20M340 119h20M100 120h30M160 120h30M220 120h20M250 120h20M290 120h20M340 120h20M100 121h30M160 121h30M220 121h20M250 121h20M290 121h20M340 121h20M100 122h30M160 122h30M220 122h20M250 122h20M290 122h20M340 122h20M100 123h30M160 123h30M220 123h20M250 123h20M290 123h20M340 123h20M100 124h30M160 124h30M220 124h20M250 124h20M290 124h20M340 124h9M350 124h10M100 125h30M160 125h30M220 125h20M250 125h20M290 125h20M340 125h20M100 126h30M160 126h30M220 126h20M250 126h20M290 126h20M340 126h20M100 127h30M160 127h30M220 127h20M250 127h20M290 127h20M340 127h20M100 128h10M111 128h19M160 128h30M220 128h20M250 128h20M290 128h20M340 128h20M100 129h30M160 129h2M163 129h27M220 129h20M250 129h20M290 129h20M340 129h20M110 130h70M220 130h20M250 130h60M340 130h20M110 131h70M220 131h20M250 131h60M340 131h20M110 132h70M220 132h20M250 132h60M340 132h20M110 133h70M220 133h20M250 133h60M340 133h20M110 134h70M220 134h20M250 134h60M340 134h20M110 135h70M220 135h13M234 135h6M250 135h60M340 135h20M110 136h3M114 136h66M220 136h20M250 136h60M340 136h20M110 137h70M220 137h20M250 137h60M340 137h20M110 138h70M220 138h20M250 138h60M340 138h20M110 139h70M220 139h20M250 139h60M340 139h20M120 140h50M220 140h20M260 140h40M340 140h20M120 141h50M220 141h20M260 141h40M340 141h20M120 142h50M220 142h20M260 142h40M340 142h20M120 143h50M220 143h20M260 143h40M340 143h20M120 144h50M220 144h20M260 144h40M340 144h20M120 145h50M220 145h20M260 145h40M340 145h20M120 146h50M220 146h20M260 146h40M340 146h20M120 147h50M220 147h20M260 147h40M340 147h20M120 148h50M220 148h20M260 148h40M340 148h20M120 149h50M220 149h20M260 149h40M340 149h20" />
<path stroke="#faf236" d="M123 55h1M297 100h1M231 110h1M354 116h1M162 129h1" />
<path stroke="#fbf237" d="M371 61h1M356 67h1M350 111h1M356 111h1M110 114h1M101 117h1M110 128h1M233 135h1M113 136h1" />
<path stroke="#fbf336" d="M157 87h1M340 117h1M349 124h1" />
</svg>