<svg xmlns="http://www.w3.org/2000/svg" viewBox="0 -0.5 480 480" shape-rendering="crispEdges">
<metadata>Made with Pixels to Svg https://codepen.io/shshaw/pen/XbxvNj</metadata>
<path stroke="#fbf236" d="M130 40h10M130 41h10M130 42h10M130 43h10M130 44h10M130 45h10M130 46h10M130 47h10M130 48h10M130 49h10M130 50h10M230 50h20M260 50h50M320 50h20M360 50h20M130 51h10M230 51h20M260 51h50M320 51h20M360 51h20M130 52h10M230 52h20M260 52h50M320 52h20M360 52h20M130 53h10M230 53h20M260 53h50M320 53h20M360 53h20M130 54h10M230 54h20M260 54h50M320 54h20M360 54h20M130 55h10M230 55h20M260 55h50M320 55h20M360 55h20M130 56h10M230 56h20M260 56h50M320 56h20M360 56h20M130 57h10M230 57h20M260 57h50M320 57h20M360 57h20M130 58h10M230 58h20M260 58h50M320 58h20M360 58h20M130 59h10M230 59h20M260 59h50M320 59h9M330 59h10M360 59h20M130 60h10M230 60h20M260 60h50M320 60h20M360 60h20M130 61h10M230 61h20M260 61h50M320 61h20M360 61h20M130 62h10M230 62h20M260 62h50M320 62h20M360 62h20M130 63h10M230 63h20M260 63h50M320 63h20M360 63h20M130 64h10M230 64h20M260 64h50M320 64h20M360 64h20M130 65h10M230 65h20M260 65h50M320 65h20M360 65h20M130 66h10M230 66h20M260 66h50M320 66h20M360 66h20M130 67h10M230 67h20M260 67h50M320 67h20M360 67h20M130 68h10M230 68h20M260 68h24M285 68h25M320 68h20M360 68h20M130 69h10M230 69h20M260 69h50M320 69h20M360 69h20M120 70h30M230 70h20M260 70h20M320 70h20M360 70h20M120 71h30M230 71h20M260 71h20M320 71h20M360 71h20M120 72h30M230 72h20M260 72h20M320 72h20M360 72h20M120 73h30M230 73h20M260 73h20M320 73h8M329 73h11M360 73h20M120 74h30M230 74h20M260 74h20M320 74h20M360 74h20M120 75h30M230 75h20M260 75h20M320 75h20M360 75h20M120 76h30M230 76h20M260 76h20M320 76h20M360 76h20M120 77h30M230 77h20M260 77h20M320 77h20M360 77h20M120 78h30M230 78h12M243 78h7M260 78h20M320 78h20M360 78h20M120 79h30M230 79h20M260 79h20M320 79h20M360 79h20M120 80h10M140 80h10M230 80h20M260 80h20M320 80h20M350 80h30M120 81h10M140 81h10M230 81h20M260 81h20M320 81h20M350 81h30M120 82h10M140 82h10M230 82h20M260 82h20M320 82h20M350 82h30M120 83h10M140 83h10M230 83h20M260 83h20M320 83h20M350 83h30M120 84h10M140 84h10M230 84h20M260 84h20M320 84h20M350 84h30M120 85h10M140 85h10M230 85h20M260 85h20M320 85h20M350 85h30M120 86h10M140 86h10M230 86h20M260 86h20M320 86h20M350 86h30M120 87h10M140 87h10M230 87h20M260 87h20M320 87h20M350 87h30M120 88h10M140 88h10M230 88h20M260 88h20M320 88h20M350 88h30M120 89h10M140 89h10M230 89h20M260 89h20M320 89h20M350 89h30M110 90h50M230 90h20M260 90h40M320 90h36M357 90h13M110 91h50M230 91h20M260 91h40M320 91h50M110 92h50M230 92h20M260 92h40M320 92h50M110 93h50M230 93h20M260 93h40M320 93h50M110 94h50M230 94h20M260 94h40M320 94h50M110 95h50M231 95h19M260 95h40M320 95h50M110 96h50M230 96h20M260 96h40M320 96h50M110 97h50M230 97h20M260 97h40M320 97h50M110 98h50M230 98h20M260 98h40M320 98h50M110 99h50M230 99h20M260 99h40M320 99h50M110 100h4M115 100h5M130 100h10M150 100h10M230 100h20M260 100h40M320 100h40M110 101h10M130 101h10M150 101h10M230 101h20M260 101h40M320 101h40M110 102h10M130 102h10M150 102h10M230 102h20M260 102h40M320 102h25M346 102h14M110 103h10M130 103h10M150 103h10M230 103h20M260 103h40M320 103h16M337 103h23M110 104h10M130 104h10M150 104h10M230 104h20M260 104h40M320 104h40M110 105h10M130 105h10M150 105h10M230 105h20M260 105h40M320 105h40M110 106h10M130 106h10M150 106h10M230 106h20M260 106h40M320 106h40M110 107h10M130 107h10M150 107h10M230 107h20M260 107h40M320 107h40M110 108h10M130 108h10M150 108h10M230 108h20M260 108h40M320 108h40M110 109h10M130 109h10M150 109h10M230 109h20M260 109h40M320 109h40M110 110h10M130 110h10M150 110h10M190 110h20M230 110h20M260 110h20M320 110h50M110 111h10M130 111h10M150 111h10M190 111h20M230 111h20M260 111h20M320 111h50M110 112h10M130 112h10M150 112h10M190 112h20M230 112h20M260 112h20M320 112h50M110 113h10M130 113h10M150 113h10M190 113h20M230 113h20M260 113h20M320 113h50M110 114h10M130 114h10M150 114h10M190 114h20M230 114h20M260 114h20M320 114h50M110 115h10M130 115h10M150 115h10M190 115h20M230 115h20M260 115h20M320 115h50M110 116h10M130 116h10M150 116h10M190 116h20M230 116h20M260 116h20M320 116h50M110 117h10M130 117h10M150 117h10M190 117h20M230 117h20M260 117h20M320 117h50M110 118h10M130 118h10M150 118h10M190 118h20M230 118h20M260 118h20M320 118h50M110 119h7M118 119h2M130 119h10M150 119h10M190 119h20M230 119h20M260 119h20M320 119h23M344 119h26M100 120h10M120 120h6M127 120h3M140 120h10M160 120h10M190 120h20M230 120h20M260 120h20M320 120h20M350 120h30M100 121h10M120 121h10M140 121h10M160 121h10M190 121h20M230 121h20M260 121h20M320 121h20M350 121h30M100 122h10M120 122h10M140 122h10M160 122h10M190 122h20M230 122h20M260 122h20M320 122h19M350 122h30M100 123h10M120 123h10M140 123h10M160 123h10M190 123h20M230 123h20M260 123h20M320 123h20M350 123h13M364 123h16M100 124h10M120 124h10M140 124h10M160 124h10M190 124h20M230 124h20M260 124h20M320 124h20M350 124h19M370 124h10M100 125h10M120 125h10M140 125h10M160 125h10M190 125h20M230 125h20M260 125h20M320 125h20M350 125h30M100 126h10M120 126h10M140 126h10M160 126h10M190 126h20M230 126h20M260 126h20M320 126h20M350 126h30M100 127h10M120 127h10M140 127h10M160 127h10M190 127h20M230 127h20M260 127h20M320 127h5M326 127h14M350 127h30M100 128h10M120 128h10M140 128h4M145 128h5M160 128h10M190 128h20M230 128h20M260 128h20M320 128h20M350 128h30M100 129h10M120 129h10M140 129h10M160 129h10M190 129h20M230 129h20M260 129h20M320 129h20M350 129h30M100 130h30M140 130h30M190 130h60M260 130h20M320 130h20M360 130h20M100 131h30M140 131h30M190 131h60M260 131h20M320 131h20M360 131h20M100 132h30M140 132h30M190 132h60M260 132h20M320 132h20M360 132h20M100 133h30M140 133h30M190 133h60M260 133h20M320 133h20M360 133h20M100 134h30M140 134h30M190 134h60M260 134h20M320 134h20M360 134h20M100 135h30M140 135h30M190 135h60M260 135h20M320 135h20M360 135h20M100 136h30M140 136h30M190 136h60M260 136h20M320 136h20M360 136h20M100 137h30M140 137h30M190 137h60M260 137h20M320 137h20M360 137h20M100 138h30M140 138h30M190 138h60M260 138h20M320 138h20M360 138h20M100 139h30M140 139h30M190 139h60M260 139h20M320 139h20M360 139h20M100 140h10M120 140h30M160 140h10M200 140h40M260 140h20M320 140h20M360 140h20M100 141h10M120 141h30M160 141h10M200 141h40M260 141h20M320 141h20M360 141h20M100 142h10M120 142h30M160 142h10M200 142h40M260 142h20M320 142h20M360 142h20M100 143h10M120 143h30M160 143h10M200 143h40M260 143h20M320 143h20M360 143h20M100 144h10M120 144h30M160 144h10M200 144h40M260 144h20M320 144h20M360 144h20M100 145h10M120 145h30M160 145h10M200 145h40M260 145h20M320 145h15M336 145h4M360 145h20M100 146h10M120 146h30M160 146h10M200 146h40M260 146h20M320 146h20M360 146h20M100 147h10M120 147h30M160 147h10M200 147h40M260 147h20M320 147h20M360 147h20M100 148h10M120 148h20M141 148h9M160 148h10M200 148h40M260 148h20M320 148h20M360 148h20M100 149h10M120 149h30M160 149h10M200 149h40M260 149h20M320 149h20M360 149h11M372 149h8M100 150h10M120 150h10M140 150h10M160 150h10M100 151h10M120 151h10M140 151h10M160 151h10M100 152h10M120 152h10M140 152h10M160 152h10M100 153h10M120 153h10M140 153h10M160 153h10M100 154h10M120 154h10M140 154h10M160 154h10M100 155h10M120 155h10M140 155h10M160 155h10M100 156h10M120 156h10M140 156h10M160 156h10M100 157h10M120 157h10M140 157h10M160 157h10M100 158h10M120 158h10M140 158h10M160 158h10M100 159h10M120 159h10M140 159h10M160 159h10" />
<path stroke="#fbf237" d="M329 59h1M284 68h1M242 78h1M356 90h1M230 95h1M335 145h1M140 148h1M371 149h1" />
<path stroke="#fbf336" d="M328 73h1M343 119h1M325 127h1" />
<path stroke="#faf236" d="M114 100h1M345 102h1M336 103h1M117 119h1M126 120h1M339 122h1M363 123h1M369 124h1M144 128h1" />
</svg>