<svg xmlns="http://www.w3.org/2000/svg" viewBox="0 -0.5 480 480" shape-rendering="crispEdges">
<metadata>Made with Pixels to Svg https://codepen.io/shshaw/pen/XbxvNj</metadata>
<path stroke="#fbf236" d="M80 50h40M130 50h40M80 51h40M130 51h40M80 52h40M130 52h40M80 53h40M130 53h40M80 54h40M130 54h40M80 55h40M130 55h40M80 56h40M130 56h40M80 57h40M130 57h40M80 58h40M130 58h40M80 59h40M130 59h40M70 60h10M120 60h10M170 60h10M230 60h20M300 60h40M360 60h20M410 60h20M70 61h10M120 61h10M170 61h10M230 61h20M300 61h40M360 61h20M410 61h20M70 62h10M120 62h10M170 62h10M230 62h20M300 62h40M360 62h20M410 62h20M70 63h10M120 63h10M170 63h10M230 63h20M300 63h40M360 63h20M410 63h20M70 64h10M120 64h10M170 64h10M230 64h20M300 64h40M360 64h20M410 64h20M70 65h10M120 65h10M170 65h10M230 65h20M300 65h40M360 65h20M410 65h20M70 66h10M120 66h10M170 66h10M230 66h20M300 66h40M360 66h20M410 66h20M70 67h10M120 67h10M170 67h10M230 67h20M300 67h40M360 67h16M377 67h3M410 67h20M70 68h10M120 68h10M170 68h10M230 68h20M300 68h40M360 68h20M410 68h20M70 69h10M120 69h10M170 69h10M230 69h20M300 69h8M309 69h31M360 69h20M410 69h20M60 70h5M66 70h4M90 70h20M140 70h20M180 70h10M230 70h20M290 70h60M360 70h20M410 70h20M60 71h10M90 71h20M140 71h20M180 71h10M230 71h20M290 71h60M360 71h20M410 71h20M60 72h10M90 72h20M140 72h20M180 72h10M230 72h20M290 72h49M340 72h10M360 72h20M410 72h20M60 73h10M90 73h20M140 73h20M180 73h10M230 73h20M290 73h60M360 73h20M410 73h19M60 74h10M90 74h20M140 74h20M180 74h10M230 74h20M290 74h60M360 74h20M410 74h20M60 75h10M90 75h20M140 75h20M180 75h10M230 75h20M290 75h60M360 75h20M410 75h20M60 76h10M90 76h20M140 76h20M180 76h10M230 76h20M290 76h60M360 76h20M410 76h20M60 77h10M90 77h20M140 77h20M180 77h10M230 77h20M290 77h60M360 77h20M410 77h20M60 78h10M90 78h20M140 78h20M180 78h10M230 78h20M290 78h60M360 78h20M410 78h20M60 79h10M90 79h20M140 79h20M180 79h10M230 79h20M290 79h60M360 79h20M410 79h20M60 80h10M90 80h20M140 80h20M180 80h10M230 80h20M290 80h20M330 80h20M370 80h20M400 80h20M60 81h10M90 81h20M140 81h20M180 81h10M230 81h20M290 81h20M330 81h20M370 81h20M400 81h20M60 82h10M90 82h20M140 82h20M180 82h10M230 82h20M290 82h20M330 82h20M370 82h20M400 82h20M60 83h10M90 83h20M140 83h20M180 83h10M230 83h20M290 83h20M330 83h20M370 83h20M400 83h20M60 84h10M90 84h20M140 84h20M180 84h10M230 84h20M290 84h20M330 84h20M370 84h20M400 84h20M60 85h10M90 85h20M140 85h20M180 85h10M230 85h20M290 85h20M330 85h20M370 85h20M400 85h20M60 86h10M90 86h20M140 86h20M180 86h10M230 86h20M290 86h20M330 86h20M370 86h20M400 86h20M60 87h10M90 87h20M140 87h20M180 87h10M230 87h20M290 87h20M330 87h20M370 87h20M400 87h20M60 88h10M90 88h20M140 88h20M180 88h10M230 88h20M290 88h20M330 88h20M370 88h20M400 88h20M60 89h8M69 89h1M90 89h20M140 89h20M180 89h10M230 89h20M290 89h20M330 89h20M370 89h20M400 89h20M70 90h10M170 90h10M200 90h10M230 90h20M290 90h20M330 90h20M370 90h20M400 90h20M70 91h10M170 91h10M200 91h10M230 91h20M290 91h20M330 91h20M370 91h20M400 91h20M70 92h10M170 92h10M200 92h10M230 92h20M290 92h20M330 92h20M370 92h20M400 92h20M70 93h10M170 93h10M200 93h10M230 93h20M290 93h20M330 93h20M370 93h17M388 93h2M400 93h20M70 94h10M170 94h10M200 94h10M230 94h20M290 94h20M330 94h20M370 94h20M400 94h20M70 95h10M170 95h10M200 95h10M230 95h20M290 95h20M330 95h20M370 95h20M400 95h20M70 96h10M170 96h10M200 96h10M230 96h20M290 96h20M330 96h20M370 96h20M400 96h20M70 97h10M170 97h10M200 97h10M230 97h20M290 97h20M330 97h20M370 97h20M400 97h20M70 98h10M170 98h10M200 98h10M230 98h20M290 98h20M330 98h20M370 98h20M400 98h20M70 99h10M170 99h10M200 99h10M230 99h20M290 99h20M330 99h20M370 99h20M400 99h20M80 100h10M100 100h50M160 100h10M190 100h20M230 100h20M290 100h60M380 100h30M80 101h10M100 101h50M160 101h10M190 101h20M230 101h20M290 101h29M320 101h30M380 101h30M80 102h10M100 102h50M160 102h10M190 102h20M230 102h20M290 102h60M380 102h30M80 103h10M100 103h34M135 103h15M160 103h10M190 103h20M230 103h20M290 103h60M380 103h30M80 104h10M100 104h50M160 104h10M190 104h20M230 104h20M290 104h60M380 104h30M80 105h10M100 105h50M160 105h10M190 105h20M230 105h20M290 105h60M380 105h30M80 106h10M100 106h50M160 106h10M190 106h20M230 106h20M290 106h60M380 106h30M80 107h10M100 107h50M160 107h5M166 107h4M190 107h20M230 107h20M290 107h45M336 107h14M380 107h30M80 108h10M100 108h50M160 108h10M190 108h20M230 108h20M290 108h60M380 108h30M80 109h10M100 109h50M160 109h10M190 109h20M230 109h20M290 109h60M380 109h30M40 110h80M140 110h10M170 110h20M200 110h10M230 110h20M290 110h60M380 110h30M40 111h80M140 111h10M170 111h20M200 111h10M230 111h20M290 111h60M380 111h30M40 112h80M140 112h10M170 112h20M200 112h10M230 112h20M290 112h60M380 112h30M40 113h80M140 113h10M170 113h20M200 113h10M230 113h20M290 113h60M380 113h30M40 114h80M140 114h10M170 114h20M200 114h10M230 114h20M290 114h60M380 114h30M40 115h80M140 115h10M170 115h20M200 115h10M230 115h20M290 115h60M380 115h30M40 116h80M140 116h10M170 116h20M200 116h10M230 116h20M290 116h60M380 116h30M40 117h80M140 117h10M170 117h20M200 117h10M230 117h20M290 117h60M380 117h30M40 118h80M140 118h10M170 118h20M200 118h10M230 118h20M290 118h60M380 118h30M40 119h27M68 119h52M140 119h10M170 119h20M200 119h10M230 119h20M290 119h60M380 119h30M40 120h10M60 120h10M120 120h10M140 120h10M160 120h10M180 120h10M200 120h10M230 120h20M290 120h20M330 120h20M370 120h20M400 120h20M40 121h10M60 121h10M120 121h10M140 121h10M160 121h10M180 121h10M200 121h10M230 121h20M290 121h20M330 121h20M370 121h20M400 121h20M40 122h10M60 122h10M120 122h10M140 122h10M160 122h10M180 122h2M183 122h7M200 122h10M230 122h20M290 122h20M330 122h20M370 122h20M400 122h20M40 123h10M60 123h10M120 123h10M140 123h10M160 123h10M180 123h10M200 123h10M230 123h20M290 123h20M330 123h20M370 123h20M400 123h20M40 124h10M60 124h10M120 124h10M140 124h10M160 124h10M180 124h10M200 124h10M230 124h20M290 124h20M330 124h20M370 124h20M400 124h20M40 125h10M60 125h10M120 125h10M140 125h10M160 125h10M180 125h10M200 125h10M230 125h20M290 125h20M330 125h20M370 125h20M400 125h20M40 126h10M60 126h10M120 126h10M140 126h10M160 126h10M180 126h10M200 126h10M230 126h20M290 126h1M292 126h18M330 126h20M370 126h20M400 126h20M40 127h10M60 127h10M120 127h10M140 127h10M160 127h10M180 127h10M200 127h10M230 127h20M290 127h20M330 127h20M370 127h20M400 127h20M40 128h10M60 128h10M120 128h10M140 128h8M149 128h1M160 128h10M180 128h10M200 128h10M230 128h20M290 128h20M330 128h20M370 128h20M400 128h20M40 129h10M60 129h10M120 129h10M140 129h10M160 129h10M180 129h10M200 129h10M230 129h9M240 129h10M290 129h20M330 129h20M370 129h20M400 129h20M40 130h80M140 130h10M170 130h20M200 130h10M230 130h20M290 130h20M330 130h20M370 130h20M400 130h20M40 131h80M140 131h10M170 131h20M200 131h10M230 131h20M290 131h20M330 131h20M370 131h20M400 131h9M410 131h10M40 132h64M105 132h15M140 132h10M170 132h20M200 132h10M230 132h20M290 132h20M330 132h20M370 132h20M400 132h20M40 133h80M140 133h10M170 133h20M200 133h10M230 133h20M290 133h20M330 133h20M370 133h20M400 133h20M40 134h80M140 134h10M170 134h20M200 134h10M230 134h20M290 134h20M330 134h20M370 134h20M400 134h20M40 135h80M140 135h10M170 135h20M200 135h6M207 135h3M230 135h20M290 135h20M330 135h20M370 135h20M400 135h20M40 136h80M140 136h10M170 136h20M200 136h7M208 136h2M230 136h20M290 136h20M330 136h20M370 136h20M400 136h20M40 137h80M140 137h10M170 137h20M200 137h10M230 137h20M290 137h20M330 137h20M370 137h20M400 137h20M40 138h80M140 138h7M148 138h2M170 138h20M200 138h10M230 138h20M290 138h20M330 138h20M370 138h20M400 138h20M40 139h42M83 139h37M140 139h10M170 139h20M200 139h10M230 139h20M290 139h20M330 139h20M370 139h20M400 139h20M80 140h10M100 140h48M149 140h1M160 140h10M190 140h20M230 140h50M290 140h20M330 140h20M360 140h20M410 140h20M80 141h10M100 141h50M160 141h10M190 141h20M230 141h50M290 141h20M330 141h20M360 141h20M410 141h20M80 142h10M100 142h50M160 142h10M190 142h20M230 142h50M290 142h20M330 142h3M334 142h16M360 142h20M410 142h20M80 143h10M100 143h50M160 143h10M190 143h20M230 143h50M290 143h20M330 143h20M360 143h20M410 143h20M80 144h10M100 144h50M160 144h10M190 144h20M230 144h50M290 144h20M330 144h20M360 144h20M410 144h20M80 145h10M100 145h50M160 145h10M190 145h9M200 145h10M230 145h50M290 145h20M330 145h20M360 145h20M410 145h20M80 146h10M100 146h50M160 146h10M190 146h20M230 146h50M290 146h20M330 146h20M360 146h20M410 146h20M80 147h10M100 147h50M160 147h10M190 147h20M230 147h50M290 147h20M330 147h20M360 147h20M410 147h20M80 148h10M100 148h50M160 148h10M190 148h20M230 148h50M290 148h20M330 148h20M360 148h20M410 148h20M80 149h10M100 149h50M160 149h10M190 149h20M230 149h50M290 149h20M330 149h20M360 149h20M410 149h20M80 150h10M160 150h10M200 150h10M230 150h50M290 150h20M330 150h20M360 150h20M410 150h15M426 150h4M80 151h10M160 151h10M200 151h10M230 151h50M290 151h20M330 151h20M360 151h20M410 151h20M80 152h10M160 152h10M200 152h10M230 152h50M290 152h20M330 152h20M360 152h20M410 152h20M80 153h10M160 153h10M200 153h10M230 153h50M290 153h20M330 153h20M360 153h20M410 153h20M80 154h10M160 154h10M200 154h10M230 154h29M260 154h20M290 154h20M330 154h20M360 154h20M410 154h20M80 155h10M160 155h10M200 155h10M230 155h50M290 155h20M330 155h20M360 155h20M410 155h20M80 156h10M160 156h10M200 156h10M230 156h50M290 156h20M330 156h20M360 156h20M410 156h20M80 157h10M160 157h10M200 157h10M230 157h50M290 157h20M330 157h20M360 157h20M410 157h20M80 158h10M160 158h10M200 158h10M230 158h50M290 158h20M330 158h20M360 158h20M410 158h20M80 159h10M160 159h10M200 159h10M230 159h50M290 159h20M330 159h20M360 159h20M410 159h20M90 160h55M146 160h14M90 161h64M155 161h5M90 162h70M90 163h70M90 164h70M90 165h70M90 166h60M151 166h9M90 167h70M90 168h28M119 168h41M90 169h70" />
<path stroke="#fbf336" d="M376 67h1M319 101h1M67 119h1M148 128h1M409 131h1M82 139h1M148 140h1M199 145h1M259 154h1M145 160h1M154 161h1M118 168h1" />
<path stroke="#fbf237" d="M308 69h1M65 70h1M68 89h1M134 103h1M335 107h1M182 122h1M239 129h1M104 132h1M206 135h1M425 150h1" />
<path stroke="#faf236" d="M339 72h1M429 73h1M387 93h1M165 107h1M291 126h1M207 136h1M147 138h1M333 142h1M150 166h1" />
</svg>