<svg xmlns="http://www.w3.org/2000/svg" viewBox="0 -0.5 480 480" shape-rendering="crispEdges">
<metadata>Made with Pixels to Svg https://codepen.io/shshaw/pen/XbxvNj</metadata>
<path stroke="#fbf236" d="M110 50h10M220 50h20M280 50h20M310 50h50M380 50h20M420 50h20M110 51h10M220 51h20M280 51h20M310 51h50M380 51h20M420 51h20M110 52h10M220 52h20M280 52h20M310 52h50M380 52h20M420 52h20M110 53h10M220 53h20M280 53h20M310 53h50M380 53h20M420 53h9M430 53h10M110 54h10M220 54h20M280 54h20M310 54h50M380 54h20M420 54h20M110 55h10M220 55h20M280 55h20M310 55h50M380 55h20M420 55h20M110 56h10M220 56h20M280 56h20M310 56h50M380 56h20M420 56h20M110 57h10M220 57h20M280 57h20M310 57h50M380 57h20M420 57h20M110 58h10M220 58h20M280 58h20M310 58h50M380 58h20M420 58h20M110 59h10M220 59h20M280 59h20M310 59h50M380 59h20M420 59h20M110 60h10M220 60h30M270 60h30M310 60h60M380 60h19M420 60h20M110 61h10M220 61h30M270 61h30M310 61h60M380 61h20M420 61h20M110 62h10M220 62h30M270 62h30M310 62h60M380 62h20M420 62h20M110 63h10M220 63h30M270 63h30M310 63h60M380 63h20M420 63h20M110 64h10M220 64h30M270 64h30M310 64h60M380 64h20M420 64h20M110 65h10M220 65h30M270 65h30M310 65h60M380 65h20M420 65h20M110 66h10M220 66h30M270 66h30M310 66h60M380 66h20M420 66h20M110 67h10M220 67h30M270 67h30M310 67h60M380 67h20M420 67h20M110 68h10M220 68h30M270 68h30M310 68h60M380 68h20M420 68h20M110 69h10M220 69h30M270 69h30M310 69h25M336 69h34M380 69h20M420 69h20M100 70h30M150 70h10M220 70h80M310 70h20M350 70h20M380 70h20M420 70h20M100 71h30M150 71h10M220 71h71M292 71h8M310 71h17M328 71h2M350 71h20M380 71h20M420 71h20M100 72h30M150 72h10M220 72h80M310 72h20M350 72h20M380 72h20M420 72h20M100 73h30M150 73h10M220 73h80M310 73h20M350 73h20M380 73h20M420 73h20M100 74h30M150 74h10M220 74h80M310 74h20M350 74h20M380 74h20M420 74h20M100 75h30M150 75h10M220 75h80M310 75h20M350 75h20M380 75h20M420 75h20M100 76h30M150 76h10M220 76h11M232 76h68M310 76h20M350 76h20M380 76h20M420 76h20M100 77h30M150 77h10M220 77h80M310 77h20M350 77h20M380 77h20M420 77h20M100 78h30M150 78h10M220 78h80M310 78h20M350 78h20M380 78h20M420 78h20M100 79h30M150 79h10M220 79h80M310 79h20M350 79h20M380 79h20M420 79h20M100 80h10M120 80h50M220 80h80M310 80h20M350 80h20M380 80h60M100 81h10M120 81h50M220 81h80M310 81h20M350 81h20M380 81h60M100 82h10M120 82h50M220 82h80M310 82h20M350 82h20M380 82h60M100 83h10M120 83h50M220 83h80M310 83h20M350 83h20M380 83h60M100 84h10M120 84h50M220 84h80M310 84h20M350 84h20M380 84h60M100 85h10M120 85h50M220 85h68M289 85h11M310 85h20M350 85h20M380 85h60M100 86h10M120 86h50M220 86h80M310 86h20M350 86h20M380 86h60M100 87h10M120 87h50M220 87h80M310 87h20M350 87h20M380 87h60M100 88h10M120 88h50M220 88h80M310 88h20M350 88h20M380 88h60M100 89h10M120 89h50M220 89h80M310 89h20M350 89h20M380 89h13M394 89h46M40 90h40M100 90h10M120 90h10M140 90h10M160 90h10M220 90h20M250 90h20M280 90h20M310 90h20M350 90h20M390 90h40M40 91h40M100 91h10M120 91h10M140 91h10M160 91h10M220 91h20M250 91h20M280 91h20M310 91h20M350 91h20M390 91h40M40 92h40M100 92h10M120 92h10M140 92h10M160 92h10M220 92h20M250 92h20M280 92h20M310 92h20M350 92h20M390 92h40M40 93h40M100 93h10M120 93h10M140 93h10M160 93h10M220 93h20M250 93h20M280 93h20M310 93h20M350 93h20M390 93h40M40 94h40M100 94h10M120 94h10M140 94h10M160 94h10M220 94h20M250 94h20M280 94h20M310 94h20M350 94h20M390 94h40M40 95h40M100 95h10M120 95h10M140 95h10M160 95h10M220 95h20M250 95h20M280 95h20M310 95h20M350 95h20M390 95h40M40 96h40M100 96h10M120 96h10M140 96h10M160 96h10M220 96h20M250 96h20M280 96h20M310 96h20M350 96h8M359 96h11M390 96h40M40 97h40M100 97h10M120 97h10M140 97h10M160 97h10M220 97h20M250 97h20M280 97h20M310 97h20M350 97h20M390 97h40M40 98h40M100 98h10M120 98h10M140 98h10M160 98h10M220 98h20M250 98h20M280 98h20M310 98h20M350 98h20M390 98h40M40 99h40M100 99h10M120 99h10M140 99h10M160 99h10M220 99h20M250 99h20M280 99h20M310 99h20M350 99h20M390 99h40M30 100h170M220 100h20M250 100h20M280 100h20M310 100h20M350 100h20M400 100h20M30 101h170M220 101h20M250 101h20M280 101h20M310 101h20M350 101h20M400 101h20M30 102h170M220 102h20M250 102h20M280 102h20M310 102h20M350 102h20M400 102h20M30 103h170M220 103h20M250 103h20M280 103h20M310 103h20M350 103h20M400 103h20M30 104h170M220 104h20M250 104h20M280 104h20M310 104h20M350 104h20M400 104h20M30 105h170M220 105h20M250 105h20M280 105h20M310 105h20M350 105h20M400 105h20M30 106h86M117 106h83M220 106h20M250 106h20M280 106h20M310 106h20M350 106h20M400 106h20M30 107h170M220 107h20M250 107h20M280 107h20M310 107h20M350 107h20M400 107h20M30 108h170M220 108h20M250 108h20M280 108h20M310 108h20M350 108h20M400 108h20M30 109h170M220 109h20M250 109h20M280 109h20M310 109h20M350 109h20M400 109h8M409 109h10M40 110h150M220 110h20M250 110h20M280 110h20M310 110h20M350 110h20M400 110h20M40 111h101M142 111h48M220 111h20M250 111h20M280 111h20M310 111h20M350 111h20M400 111h20M40 112h150M220 112h20M250 112h20M280 112h20M310 112h20M350 112h20M400 112h20M40 113h68M109 113h81M220 113h20M250 113h20M280 113h20M310 113h20M350 113h20M400 113h20M40 114h150M220 114h9M230 114h10M250 114h20M280 114h20M310 114h20M350 114h20M400 114h20M40 115h106M147 115h43M220 115h20M250 115h20M280 115h20M310 115h20M350 115h20M400 115h20M40 116h150M220 116h20M250 116h20M280 116h20M310 116h20M350 116h20M400 116h20M40 117h150M220 117h20M250 117h20M280 117h20M310 117h20M350 117h20M400 117h20M40 118h150M220 118h20M250 118h20M280 118h20M310 118h20M350 118h20M400 118h20M40 119h150M220 119h20M250 119h20M280 119h20M310 119h20M350 119h20M400 119h20M50 120h10M170 120h10M220 120h20M250 120h20M280 120h20M310 120h20M350 120h20M400 120h20M50 121h10M170 121h10M220 121h20M250 121h20M280 121h20M310 121h20M350 121h20M400 121h20M50 122h10M170 122h10M220 122h20M250 122h20M280 122h20M310 122h20M350 122h20M400 122h20M50 123h10M170 123h10M220 123h20M250 123h20M280 123h20M310 123h20M350 123h20M400 123h20M50 124h10M170 124h10M220 124h20M250 124h20M280 124h20M310 124h20M350 124h20M400 124h20M50 125h10M170 125h10M220 125h20M250 125h20M280 125h20M310 125h20M350 125h20M400 125h20M50 126h10M170 126h10M220 126h20M250 126h20M280 126h20M310 126h20M350 126h20M400 126h20M50 127h10M170 127h10M220 127h20M250 127h20M280 127h20M310 127h20M350 127h20M400 127h20M50 128h10M170 128h10M220 128h20M250 128h20M280 128h20M310 128h20M350 128h20M400 128h20M50 129h10M170 129h10M220 129h20M250 129h20M280 129h20M310 129h20M350 129h20M400 129h20M60 130h110M220 130h20M250 130h20M280 130h20M310 130h60M400 130h20M60 131h110M220 131h20M250 131h20M280 131h20M310 131h60M400 131h15M416 131h4M60 132h110M220 132h20M250 132h20M280 132h20M310 132h24M335 132h35M400 132h9M410 132h10M60 133h110M220 133h20M250 133h20M280 133h20M310 133h60M400 133h20M60 134h66M127 134h4M132 134h38M220 134h20M250 134h20M280 134h20M310 134h60M400 134h20M60 135h110M220 135h20M250 135h20M280 135h20M310 135h60M400 135h20M60 136h110M220 136h20M250 136h20M280 136h20M310 136h60M400 136h20M60 137h110M220 137h20M250 137h20M280 137h20M310 137h60M400 137h20M60 138h110M220 138h20M250 138h20M280 138h20M310 138h60M400 138h20M60 139h110M220 139h20M250 139h20M280 139h20M310 139h60M400 139h20M220 140h20M250 140h20M280 140h20M310 140h50M400 140h18M419 140h1M220 141h20M250 141h20M280 141h20M310 141h15M326 141h34M400 141h20M220 142h20M250 142h20M280 142h20M310 142h50M400 142h20M220 143h20M250 143h20M280 143h20M310 143h50M400 143h20M220 144h20M250 144h20M280 144h20M310 144h50M400 144h20M220 145h20M250 145h20M280 145h20M310 145h50M400 145h20M220 146h20M250 146h20M280 146h20M310 146h50M400 146h20M220 147h20M250 147h20M280 147h20M310 147h50M400 147h20M220 148h20M250 148h20M280 148h20M310 148h50M400 148h20M220 149h10M231 149h9M250 149h20M280 149h20M310 149h50M400 149h20" />
<path stroke="#faf236" d="M429 53h1M399 60h1M291 71h1M327 71h1M231 76h1M288 85h1M393 89h1M408 109h1M141 111h1M108 113h1M126 134h1" />
<path stroke="#fbf237" d="M335 69h1M116 106h1M419 109h1M146 115h1M131 134h1M230 149h1" />
<path stroke="#fbf336" d="M358 96h1M229 114h1M415 131h1M334 132h1M409 132h1M418 140h1M325 141h1" />
</svg>