<svg xmlns="http://www.w3.org/2000/svg" viewBox="0 -0.5 480 480" shape-rendering="crispEdges">
<metadata>Made with Pixels to Svg https://codepen.io/shshaw/pen/XbxvNj</metadata>
<path stroke="#fbf236" d="M90 50h10M140 50h10M190 50h30M250 50h20M280 50h50M340 50h20M390 50h20M90 51h10M140 51h10M190 51h30M250 51h20M280 51h44M325 51h5M340 51h20M390 51h20M90 52h10M140 52h10M190 52h30M250 52h20M280 52h50M340 52h20M390 52h20M90 53h10M140 53h10M190 53h30M250 53h20M280 53h50M340 53h20M390 53h20M90 54h10M140 54h10M190 54h30M250 54h20M280 54h50M340 54h20M390 54h20M90 55h10M140 55h10M190 55h30M250 55h20M280 55h50M340 55h20M390 55h20M90 56h10M140 56h10M190 56h30M250 56h20M280 56h50M340 56h20M390 56h20M90 57h10M140 57h10M190 57h30M250 57h20M280 57h50M340 57h20M390 57h20M90 58h10M140 58h10M190 58h30M250 58h20M280 58h50M340 58h20M390 58h20M90 59h10M140 59h10M190 59h30M250 59h20M280 59h50M340 59h20M390 59h20M90 60h10M130 60h20M190 60h40M240 60h30M280 60h50M340 60h20M390 60h20M90 61h10M130 61h20M190 61h40M240 61h30M280 61h50M340 61h7M348 61h12M390 61h20M90 62h10M130 62h20M190 62h40M240 62h30M280 62h50M340 62h20M390 62h20M90 63h10M130 63h20M190 63h40M240 63h30M280 63h50M340 63h20M390 63h20M90 64h10M130 64h20M190 64h5M196 64h34M240 64h30M280 64h50M340 64h20M390 64h20M90 65h10M130 65h20M190 65h40M240 65h30M280 65h50M340 65h20M390 65h20M90 66h10M130 66h20M190 66h40M240 66h30M280 66h50M340 66h20M390 66h20M90 67h10M130 67h20M190 67h40M240 67h30M280 67h50M340 67h20M390 67h20M90 68h10M130 68h20M190 68h40M240 68h30M280 68h50M340 68h20M390 68h20M90 69h10M130 69h20M190 69h40M240 69h30M280 69h50M340 69h20M390 69h8M399 69h11M90 70h20M130 70h20M190 70h80M280 70h17M298 70h2M350 70h20M380 70h6M387 70h13M90 71h20M130 71h20M190 71h80M280 71h20M350 71h20M380 71h20M90 72h20M130 72h20M190 72h80M280 72h20M350 72h20M380 72h20M90 73h20M130 73h20M190 73h80M280 73h20M350 73h20M380 73h20M90 74h20M130 74h20M190 74h80M280 74h20M350 74h20M380 74h20M90 75h20M130 75h20M190 75h80M280 75h20M350 75h20M380 75h20M90 76h20M130 76h20M190 76h80M280 76h20M350 76h20M380 76h20M90 77h20M130 77h20M190 77h80M280 77h20M350 77h20M380 77h20M90 78h20M130 78h20M190 78h80M280 78h3M284 78h16M350 78h20M380 78h20M90 79h20M130 79h20M190 79h80M280 79h20M350 79h12M363 79h7M380 79h20M60 80h10M90 80h20M120 80h20M160 80h10M190 80h80M280 80h20M350 80h20M380 80h20M60 81h10M90 81h20M120 81h20M160 81h10M190 81h80M280 81h20M350 81h20M380 81h20M60 82h10M90 82h20M120 82h20M160 82h10M190 82h80M280 82h20M350 82h20M380 82h20M60 83h10M90 83h20M120 83h20M160 83h10M190 83h80M280 83h20M350 83h20M380 83h20M60 84h10M90 84h20M120 84h20M160 84h10M190 84h80M280 84h20M350 84h20M380 84h20M60 85h10M90 85h20M120 85h20M160 85h10M190 85h80M280 85h20M350 85h20M380 85h20M60 86h10M90 86h20M120 86h20M160 86h10M190 86h80M280 86h20M350 86h20M380 86h20M60 87h10M90 87h20M120 87h20M160 87h10M190 87h80M280 87h20M350 87h20M380 87h20M60 88h10M90 88h20M120 88h20M160 88h10M190 88h80M280 88h20M350 88h20M380 88h20M60 89h10M90 89h20M120 89h20M160 89h10M190 89h80M280 89h20M350 89h20M380 89h20M60 90h20M90 90h30M130 90h10M150 90h20M190 90h20M220 90h20M250 90h20M280 90h40M360 90h30M60 91h20M90 91h30M130 91h10M150 91h12M163 91h7M190 91h20M220 91h20M250 91h20M280 91h40M360 91h30M60 92h20M90 92h30M130 92h10M150 92h20M190 92h20M220 92h20M250 92h20M280 92h40M360 92h30M60 93h20M90 93h30M130 93h10M150 93h20M190 93h20M220 93h20M250 93h20M280 93h36M317 93h3M360 93h30M60 94h20M90 94h30M130 94h10M150 94h20M190 94h20M220 94h20M250 94h20M280 94h40M360 94h30M60 95h20M90 95h30M130 95h10M150 95h20M190 95h20M220 95h20M250 95h20M280 95h40M360 95h30M60 96h20M90 96h30M130 96h10M150 96h20M190 96h20M220 96h2M223 96h17M250 96h20M280 96h40M360 96h30M60 97h20M90 97h30M130 97h10M150 97h20M190 97h20M220 97h20M250 97h20M280 97h40M360 97h30M60 98h20M90 98h30M130 98h10M150 98h20M190 98h20M220 98h20M250 98h20M280 98h40M360 98h30M60 99h20M90 99h30M130 99h10M150 99h20M190 99h20M220 99h20M250 99h20M280 99h40M360 99h30M70 100h20M100 100h30M140 100h20M190 100h20M220 100h20M250 100h20M280 100h40M360 100h30M70 101h20M100 101h30M140 101h20M190 101h20M220 101h20M250 101h20M280 101h40M360 101h30M70 102h20M100 102h30M140 102h20M190 102h20M220 102h20M250 102h20M280 102h15M296 102h24M360 102h30M70 103h20M100 103h30M140 103h20M190 103h20M220 103h20M250 103h20M280 103h40M360 103h30M70 104h20M100 104h30M140 104h20M190 104h20M220 104h20M250 104h20M280 104h40M360 104h30M70 105h20M100 105h30M140 105h20M190 105h20M220 105h20M250 105h20M280 105h40M360 105h30M70 106h20M100 106h30M140 106h20M190 106h20M220 106h20M250 106h20M280 106h40M360 106h30M70 107h20M100 107h30M140 107h20M190 107h20M220 107h20M250 107h20M280 107h40M360 107h30M70 108h20M100 108h30M140 108h20M190 108h20M220 108h20M250 108h20M280 108h40M360 108h30M70 109h20M100 109h30M140 109h20M190 109h20M220 109h20M250 109h12M263 109h7M280 109h40M360 109h13M374 109h16M80 110h20M110 110h10M130 110h20M190 110h20M220 110h20M250 110h20M280 110h20M350 110h20M380 110h20M80 111h20M110 111h10M130 111h20M190 111h20M220 111h20M250 111h20M280 111h20M350 111h20M380 111h20M80 112h20M110 112h10M130 112h20M190 112h20M220 112h20M250 112h20M280 112h20M350 112h20M380 112h20M80 113h20M110 113h10M130 113h20M190 113h20M220 113h20M250 113h20M280 113h20M350 113h20M380 113h20M80 114h20M110 114h10M130 114h20M190 114h20M220 114h20M250 114h20M280 114h20M350 114h20M380 114h20M80 115h20M110 115h10M130 115h20M190 115h20M220 115h20M250 115h20M280 115h20M350 115h20M380 115h20M80 116h1M82 116h18M110 116h10M130 116h15M146 116h4M190 116h20M220 116h20M250 116h20M280 116h20M350 116h20M380 116h20M80 117h20M110 117h10M130 117h20M190 117h20M220 117h20M250 117h20M280 117h20M350 117h20M380 117h20M80 118h20M110 118h10M130 118h20M190 118h20M220 118h20M250 118h20M280 118h20M350 118h20M380 118h20M80 119h20M110 119h10M130 119h20M190 119h20M220 119h20M250 119h20M280 119h20M350 119h20M380 119h20M60 120h20M90 120h20M120 120h20M150 120h20M190 120h20M220 120h20M250 120h20M280 120h20M350 120h20M380 120h20M60 121h20M90 121h20M120 121h20M150 121h20M190 121h20M220 121h20M250 121h20M280 121h20M350 121h20M380 121h20M60 122h20M90 122h20M120 122h20M150 122h20M190 122h20M220 122h20M250 122h20M280 122h20M350 122h20M380 122h20M60 123h20M90 123h20M120 123h20M150 123h5M156 123h14M190 123h20M220 123h20M250 123h20M280 123h20M350 123h20M380 123h20M60 124h20M90 124h20M120 124h20M150 124h20M190 124h20M220 124h20M250 124h20M280 124h20M350 124h20M380 124h20M60 125h20M90 125h20M120 125h20M150 125h2M153 125h17M190 125h20M220 125h20M250 125h20M280 125h20M350 125h20M380 125h20M60 126h20M90 126h20M120 126h20M150 126h20M190 126h20M220 126h20M250 126h20M280 126h20M350 126h20M380 126h20M60 127h20M90 127h20M120 127h20M150 127h20M190 127h20M220 127h20M250 127h20M280 127h20M350 127h20M380 127h20M60 128h20M90 128h20M120 128h20M150 128h20M190 128h20M220 128h20M250 128h20M280 128h20M350 128h20M380 128h20M60 129h20M90 129h20M120 129h20M150 129h20M190 129h20M220 129h20M250 129h20M280 129h20M350 129h20M380 129h20M70 130h20M100 130h10M120 130h10M140 130h20M190 130h20M220 130h20M250 130h20M280 130h50M340 130h20M390 130h20M70 131h20M100 131h10M120 131h10M140 131h20M190 131h20M220 131h20M250 131h20M280 131h50M340 131h20M390 131h20M70 132h20M100 132h10M120 132h10M140 132h20M190 132h20M220 132h20M250 132h20M280 132h50M340 132h20M390 132h20M70 133h20M100 133h10M120 133h10M140 133h20M190 133h20M220 133h20M250 133h20M280 133h50M340 133h20M390 133h20M70 134h20M100 134h10M120 134h10M140 134h20M190 134h20M220 134h20M250 134h20M280 134h50M340 134h20M390 134h20M70 135h20M100 135h10M120 135h10M140 135h20M190 135h20M220 135h4M225 135h15M250 135h20M280 135h50M340 135h20M390 135h20M70 136h20M100 136h10M120 136h10M140 136h20M190 136h20M220 136h20M250 136h20M280 136h50M340 136h20M390 136h20M70 137h20M100 137h10M120 137h10M140 137h20M190 137h20M220 137h20M250 137h20M280 137h50M340 137h20M390 137h20M70 138h20M100 138h10M120 138h10M140 138h20M190 138h20M220 138h20M250 138h20M280 138h50M340 138h20M390 138h20M70 139h20M100 139h10M120 139h10M140 139h20M190 139h20M220 139h20M250 139h13M264 139h6M280 139h50M340 139h20M390 139h20M190 140h20M220 140h20M250 140h20M280 140h50M340 140h20M390 140h20M190 141h20M220 141h20M250 141h20M280 141h50M340 141h20M390 141h20M190 142h20M220 142h20M250 142h20M280 142h50M340 142h12M353 142h7M390 142h20M190 143h20M220 143h20M250 143h20M280 143h50M340 143h20M390 143h20M190 144h20M220 144h20M250 144h20M280 144h50M340 144h20M390 144h20M190 145h20M220 145h20M250 145h20M280 145h50M340 145h20M390 145h20M190 146h20M220 146h20M250 146h20M280 146h50M340 146h20M390 146h20M190 147h20M220 147h20M250 147h20M280 147h50M340 147h20M390 147h20M190 148h20M220 148h20M250 148h20M280 148h50M340 148h20M390 148h20M190 149h20M220 149h20M250 149h20M280 149h50M340 149h20M390 149h20" />
<path stroke="#faf236" d="M324 51h1M195 64h1M297 70h1M162 91h1M222 96h1M81 116h1" />
<path stroke="#fbf237" d="M347 61h1M398 69h1M386 70h1M362 79h1M155 123h1M152 125h1M224 135h1M263 139h1" />
<path stroke="#fbf336" d="M283 78h1M316 93h1M295 102h1M262 109h1M373 109h1M145 116h1M352 142h1" />
</svg>