<svg xmlns="http://www.w3.org/2000/svg" viewBox="0 -0.5 480 480" shape-rendering="crispEdges">
<metadata>Made with Pixels to Svg https://codepen.io/shshaw/pen/XbxvNj</metadata>
<path stroke="#fbf236" d="M80 40h20M170 40h20M80 41h20M170 41h20M80 42h20M170 42h20M80 43h20M170 43h20M80 44h20M170 44h20M80 45h20M170 45h20M80 46h20M170 46h20M80 47h20M170 47h20M80 48h20M170 48h20M80 49h20M170 49h20M70 50h10M100 50h10M160 50h10M190 50h10M230 50h50M300 50h50M360 50h20M400 50h20M70 51h10M100 51h10M160 51h10M190 51h10M230 51h50M300 51h50M360 51h20M400 51h20M70 52h10M100 52h10M160 52h10M190 52h10M230 52h50M300 52h50M360 52h20M400 52h20M70 53h10M100 53h10M160 53h10M190 53h10M230 53h50M300 53h50M360 53h20M400 53h20M70 54h10M100 54h10M160 54h10M190 54h10M230 54h50M300 54h50M360 54h20M400 54h20M70 55h10M100 55h10M160 55h10M190 55h10M230 55h50M300 55h50M360 55h20M400 55h20M70 56h10M100 56h10M160 56h10M190 56h10M230 56h46M277 56h3M300 56h50M360 56h20M400 56h20M70 57h10M100 57h10M160 57h10M190 57h10M230 57h50M300 57h50M360 57h20M400 57h20M70 58h10M100 58h10M160 58h10M190 58h10M230 58h50M300 58h50M360 58h20M400 58h20M70 59h10M100 59h10M160 59h10M190 59h10M230 59h50M300 59h50M360 59h20M400 59h20M60 60h10M110 60h10M150 60h10M200 60h10M230 60h60M300 60h50M360 60h20M400 60h20M60 61h10M110 61h10M150 61h10M200 61h10M230 61h60M300 61h50M360 61h20M400 61h20M60 62h10M110 62h10M150 62h10M200 62h10M230 62h60M300 62h50M360 62h20M400 62h20M60 63h10M110 63h10M150 63h10M200 63h10M230 63h60M300 63h50M360 63h20M400 63h20M60 64h10M110 64h10M150 64h10M200 64h10M230 64h60M300 64h50M360 64h20M400 64h20M60 65h10M110 65h10M150 65h10M200 65h10M230 65h60M300 65h50M360 65h20M400 65h20M60 66h10M110 66h10M150 66h10M200 66h10M230 66h60M300 66h50M360 66h20M400 66h20M60 67h10M110 67h10M150 67h10M200 67h10M230 67h60M300 67h50M360 67h20M400 67h20M60 68h10M110 68h10M150 68h10M200 68h10M230 68h60M300 68h50M360 68h11M372 68h8M400 68h20M60 69h10M110 69h10M150 69h10M200 69h10M230 69h60M300 69h50M360 69h20M400 69h20M70 70h10M100 70h70M190 70h10M230 70h19M270 70h20M300 70h20M360 70h20M400 70h20M70 71h10M100 71h70M190 71h10M230 71h20M270 71h20M300 71h20M360 71h20M400 71h20M70 72h10M100 72h70M190 72h10M230 72h20M270 72h20M300 72h20M360 72h20M400 72h12M413 72h7M70 73h10M100 73h70M190 73h10M230 73h20M270 73h20M300 73h20M360 73h20M400 73h20M70 74h10M100 74h13M114 74h56M190 74h10M230 74h20M270 74h20M300 74h20M360 74h20M400 74h20M70 75h10M100 75h70M190 75h10M230 75h20M270 75h20M300 75h20M360 75h20M400 75h20M70 76h10M100 76h70M190 76h8M199 76h1M230 76h20M270 76h20M300 76h20M360 76h20M400 76h20M70 77h10M100 77h70M190 77h10M230 77h20M270 77h20M300 77h20M360 77h20M400 77h20M70 78h10M100 78h70M190 78h10M230 78h20M270 78h20M300 78h20M360 78h20M400 78h20M70 79h10M100 79h70M190 79h10M230 79h20M270 79h20M300 79h20M360 79h20M400 79h20M80 80h110M230 80h20M270 80h20M300 80h20M360 80h20M390 80h30M80 81h110M230 81h20M270 81h16M287 81h3M300 81h20M360 81h20M390 81h30M80 82h110M230 82h20M270 82h20M300 82h20M360 82h20M390 82h30M80 83h110M230 83h20M270 83h20M300 83h20M360 83h20M390 83h30M80 84h110M230 84h20M270 84h20M300 84h20M360 84h20M390 84h30M80 85h110M230 85h20M270 85h20M300 85h20M360 85h20M390 85h30M80 86h110M230 86h20M270 86h20M300 86h20M360 86h20M390 86h30M80 87h110M230 87h20M270 87h20M300 87h20M360 87h20M390 87h30M80 88h110M230 88h8M239 88h11M270 88h20M300 88h20M360 88h20M390 88h30M80 89h110M230 89h20M270 89h20M300 89h20M360 89h20M390 89h30M80 90h20M120 90h30M170 90h20M230 90h60M300 90h40M360 90h50M80 91h20M120 91h30M170 91h20M230 91h60M300 91h40M360 91h50M80 92h20M120 92h30M170 92h20M230 92h60M300 92h40M360 92h50M80 93h20M120 93h30M170 93h20M230 93h60M300 93h40M360 93h50M80 94h20M120 94h30M170 94h20M230 94h60M300 94h40M360 94h50M80 95h20M120 95h30M170 95h20M230 95h60M300 95h40M360 95h50M80 96h20M120 96h30M170 96h20M230 96h60M300 96h40M360 96h50M80 97h20M120 97h30M170 97h20M230 97h60M300 97h40M360 97h50M80 98h20M120 98h30M170 98h20M230 98h60M300 98h40M360 98h50M80 99h20M120 99h30M170 99h20M230 99h60M300 99h40M360 99h50M70 100h20M110 100h10M130 100h10M150 100h10M180 100h20M230 100h48M279 100h1M300 100h40M360 100h40M70 101h20M110 101h10M130 101h10M150 101h10M180 101h20M230 101h50M300 101h40M360 101h40M70 102h20M110 102h10M130 102h10M150 102h10M180 102h20M230 102h50M300 102h40M360 102h40M70 103h20M110 103h10M130 103h10M150 103h10M180 103h20M230 103h50M300 103h40M360 103h40M70 104h3M74 104h16M110 104h10M130 104h10M150 104h10M180 104h20M230 104h50M300 104h40M360 104h11M372 104h28M70 105h20M110 105h10M130 105h10M150 105h10M180 105h20M230 105h50M300 105h40M360 105h30M391 105h9M70 106h20M110 106h10M130 106h10M150 106h10M180 106h20M230 106h50M300 106h40M360 106h40M70 107h20M110 107h10M130 107h10M150 107h10M180 107h20M230 107h50M300 107h40M360 107h40M70 108h20M110 108h10M130 108h10M150 108h10M180 108h20M230 108h50M300 108h5M306 108h34M360 108h40M70 109h20M110 109h10M130 109h10M150 109h10M180 109h20M230 109h50M300 109h40M360 109h40M70 110h20M130 110h10M180 110h20M230 110h16M247 110h3M300 110h20M360 110h50M70 111h20M130 111h10M180 111h20M230 111h20M300 111h20M360 111h50M70 112h20M130 112h10M180 112h20M230 112h20M300 112h20M360 112h50M70 113h2M73 113h17M130 113h10M180 113h20M230 113h20M300 113h20M360 113h50M70 114h20M130 114h10M180 114h20M230 114h20M300 114h20M360 114h50M70 115h20M130 115h10M180 115h20M230 115h20M300 115h20M360 115h50M70 116h20M130 116h10M180 116h20M230 116h20M300 116h20M360 116h50M70 117h20M130 117h10M180 117h20M230 117h20M300 117h20M360 117h50M70 118h20M130 118h10M180 118h20M230 118h20M300 118h20M360 118h50M70 119h20M130 119h10M180 119h20M230 119h20M300 119h20M360 119h34M395 119h15M70 120h20M120 120h30M180 120h20M230 120h20M300 120h20M360 120h20M390 120h30M70 121h20M120 121h30M180 121h20M230 121h20M300 121h20M360 121h20M390 121h30M70 122h20M120 122h30M180 122h20M230 122h20M300 122h20M360 122h11M372 122h8M390 122h30M70 123h20M120 123h30M180 123h20M230 123h20M300 123h20M360 123h20M390 123h30M70 124h20M120 124h30M180 124h20M230 124h20M300 124h20M360 124h20M390 124h30M70 125h20M120 125h30M180 125h8M189 125h11M230 125h20M300 125h20M360 125h20M390 125h30M70 126h20M120 126h30M180 126h20M230 126h20M300 126h20M360 126h20M390 126h30M70 127h20M120 127h30M180 127h20M230 127h20M300 127h20M360 127h20M390 127h30M70 128h20M120 128h30M180 128h20M230 128h20M300 128h20M360 128h20M390 128h30M70 129h20M120 129h30M180 129h20M230 129h20M300 129h20M360 129h20M390 129h30M80 130h50M140 130h50M230 130h20M300 130h50M360 130h20M400 130h20M80 131h50M140 131h50M230 131h20M300 131h50M360 131h20M400 131h20M80 132h50M140 132h50M230 132h20M300 132h50M360 132h20M400 132h20M80 133h50M140 133h50M230 133h20M300 133h50M360 133h20M400 133h20M80 134h50M140 134h50M230 134h20M300 134h50M360 134h20M400 134h20M80 135h50M140 135h50M230 135h20M300 135h50M360 135h20M400 135h20M80 136h50M140 136h50M230 136h20M300 136h50M360 136h20M400 136h20M80 137h50M140 137h50M230 137h20M300 137h50M360 137h20M400 137h20M80 138h50M140 138h50M230 138h20M300 138h50M360 138h20M400 138h20M80 139h50M140 139h10M151 139h39M230 139h20M300 139h50M360 139h20M400 139h20M90 140h30M130 140h10M150 140h30M230 140h20M300 140h50M360 140h20M400 140h20M90 141h30M130 141h10M150 141h30M230 141h20M300 141h50M360 141h20M400 141h20M90 142h30M130 142h10M150 142h30M230 142h20M300 142h50M360 142h20M400 142h20M90 143h30M130 143h10M150 143h30M230 143h20M300 143h50M360 143h20M400 143h20M90 144h30M130 144h10M150 144h30M230 144h20M300 144h50M360 144h20M400 144h17M418 144h2M90 145h30M130 145h10M150 145h30M230 145h20M300 145h44M345 145h5M360 145h20M400 145h20M90 146h30M130 146h10M150 146h30M230 146h20M300 146h50M360 146h20M400 146h20M90 147h30M130 147h10M150 147h30M230 147h20M300 147h50M360 147h20M400 147h20M90 148h30M130 148h10M150 148h30M230 148h20M300 148h50M360 148h20M400 148h20M90 149h30M130 149h10M150 149h30M230 149h20M300 149h50M360 149h20M400 149h20M110 150h50M110 151h50M110 152h50M110 153h50M110 154h50M110 155h50M110 156h50M110 157h50M110 158h50M110 159h50" />
<path stroke="#faf236" d="M276 56h1M249 70h1M198 76h1M390 105h1M246 110h1M72 113h1M150 139h1M417 144h1" />
<path stroke="#fbf237" d="M371 68h1M113 74h1M278 100h1M371 104h1M305 108h1M371 122h1M188 125h1M344 145h1" />
<path stroke="#fbf336" d="M412 72h1M286 81h1M238 88h1M73 104h1M394 119h1" />
</svg>