<svg xmlns="http://www.w3.org/2000/svg" viewBox="0 -0.5 480 480" shape-rendering="crispEdges">
<metadata>Made with Pixels to Svg https://codepen.io/shshaw/pen/XbxvNj</metadata>
<path stroke="#fbf236" d="M110 40h20M110 41h20M110 42h20M110 43h20M110 44h20M110 45h20M110 46h20M110 47h20M110 48h20M110 49h20M110 50h20M170 50h50M240 50h20M280 50h20M310 50h15M326 50h4M360 50h20M110 51h20M170 51h50M240 51h20M280 51h20M310 51h20M360 51h20M110 52h20M170 52h50M240 52h20M280 52h20M310 52h20M360 52h20M110 53h20M170 53h50M240 53h20M280 53h20M310 53h20M360 53h20M110 54h20M170 54h50M240 54h20M280 54h15M296 54h4M310 54h20M360 54h20M110 55h20M170 55h50M240 55h20M280 55h20M310 55h20M360 55h20M110 56h20M170 56h50M240 56h20M280 56h20M310 56h20M360 56h20M110 57h20M170 57h50M240 57h20M280 57h20M310 57h20M360 57h20M110 58h20M170 58h50M240 58h20M280 58h20M310 58h20M360 58h20M110 59h20M170 59h50M240 59h20M280 59h20M310 59h20M360 59h20M90 60h10M110 60h20M170 60h60M240 60h20M280 60h20M310 60h20M360 60h20M90 61h10M110 61h20M170 61h60M240 61h20M280 61h20M310 61h20M360 61h20M90 62h10M110 62h20M170 62h60M240 62h20M280 62h20M310 62h20M360 62h20M90 63h10M110 63h20M170 63h60M240 63h20M280 63h20M310 63h20M360 63h20M90 64h10M110 64h20M170 64h56M227 64h3M240 64h20M280 64h20M310 64h20M360 64h20M90 65h10M110 65h7M118 65h12M170 65h60M240 65h20M280 65h20M310 65h20M360 65h20M90 66h10M110 66h20M170 66h60M240 66h20M280 66h20M310 66h20M360 66h20M90 67h10M110 67h20M170 67h60M240 67h20M280 67h20M310 67h20M360 67h20M90 68h10M110 68h20M170 68h60M240 68h20M280 68h20M310 68h20M360 68h20M90 69h10M110 69h20M170 69h60M240 69h20M280 69h20M310 69h20M360 69h20M90 70h10M110 70h20M140 70h10M170 70h20M210 70h20M240 70h20M280 70h20M320 70h20M350 70h20M90 71h10M110 71h20M140 71h4M145 71h5M170 71h20M210 71h20M240 71h20M280 71h20M320 71h20M350 71h20M90 72h10M110 72h20M140 72h10M170 72h20M210 72h20M240 72h20M280 72h20M320 72h20M350 72h20M90 73h10M110 73h20M140 73h10M170 73h20M210 73h20M240 73h20M280 73h20M320 73h20M350 73h20M90 74h10M110 74h20M140 74h10M170 74h9M180 74h10M210 74h20M240 74h20M280 74h20M320 74h20M350 74h20M90 75h10M110 75h20M140 75h10M170 75h20M210 75h20M240 75h20M280 75h20M320 75h20M350 75h20M90 76h10M110 76h20M140 76h10M170 76h20M210 76h20M240 76h20M280 76h20M320 76h20M350 76h20M90 77h10M110 77h20M140 77h10M170 77h20M210 77h20M240 77h20M280 77h20M320 77h20M350 77h20M90 78h10M110 78h20M140 78h10M170 78h20M210 78h20M240 78h20M280 78h20M320 78h20M350 78h20M90 79h10M110 79h20M140 79h10M170 79h20M210 79h20M240 79h20M280 79h20M320 79h20M350 79h20M90 80h10M110 80h20M140 80h10M170 80h20M210 80h20M240 80h20M280 80h20M320 80h20M350 80h20M90 81h10M110 81h20M140 81h10M170 81h20M210 81h20M240 81h20M280 81h20M320 81h20M350 81h20M90 82h10M110 82h20M140 82h10M170 82h20M210 82h20M240 82h20M280 82h20M320 82h20M350 82h20M90 83h10M110 83h20M140 83h10M170 83h20M210 83h20M240 83h20M280 83h20M320 83h20M350 83h20M90 84h10M110 84h20M140 84h10M170 84h20M210 84h20M240 84h20M280 84h20M320 84h20M350 84h20M90 85h10M110 85h20M140 85h10M170 85h20M210 85h10M221 85h9M240 85h20M280 85h20M320 85h20M350 85h20M90 86h10M110 86h20M140 86h10M170 86h20M210 86h20M240 86h20M280 86h20M320 86h20M350 86h11M362 86h8M90 87h10M110 87h20M140 87h10M170 87h20M210 87h20M240 87h20M280 87h20M320 87h20M350 87h20M90 88h10M110 88h20M140 88h10M170 88h20M210 88h20M240 88h20M280 88h20M320 88h20M350 88h20M90 89h10M110 89h20M140 89h10M170 89h16M187 89h3M210 89h20M240 89h20M280 89h20M320 89h20M350 89h20M90 90h33M124 90h6M140 90h10M170 90h60M240 90h60M330 90h30M90 91h40M140 91h10M170 91h60M240 91h60M330 91h30M90 92h40M140 92h10M170 92h60M240 92h60M330 92h30M90 93h40M140 93h10M170 93h60M240 93h60M330 93h30M90 94h40M140 94h10M170 94h60M240 94h60M330 94h30M90 95h40M140 95h10M170 95h60M240 95h60M330 95h30M90 96h40M140 96h10M170 96h60M240 96h60M330 96h30M90 97h40M140 97h10M170 97h60M240 97h60M330 97h30M90 98h40M140 98h10M170 98h60M240 98h27M268 98h32M330 98h30M90 99h40M140 99h10M170 99h60M240 99h60M330 99h30M110 100h20M140 100h10M170 100h50M240 100h60M330 100h30M110 101h20M140 101h10M170 101h27M198 101h22M240 101h60M330 101h30M110 102h20M140 102h10M170 102h50M240 102h57M298 102h2M330 102h30M110 103h20M140 103h10M170 103h50M240 103h60M330 103h30M110 104h20M140 104h10M170 104h15M186 104h34M240 104h60M330 104h30M110 105h12M123 105h7M140 105h10M170 105h50M240 105h60M330 105h30M110 106h20M140 106h10M170 106h50M240 106h34M275 106h25M330 106h30M110 107h20M140 107h10M170 107h50M240 107h60M330 107h30M110 108h20M140 108h10M170 108h50M240 108h60M330 108h30M111 109h19M140 109h10M170 109h50M240 109h60M330 109h30M110 110h40M170 110h20M240 110h20M280 110h20M320 110h20M350 110h20M110 111h40M170 111h20M240 111h20M280 111h6M287 111h13M320 111h20M350 111h20M110 112h40M170 112h20M240 112h20M280 112h20M320 112h20M350 112h20M110 113h40M170 113h20M240 113h20M280 113h20M320 113h20M350 113h8M359 113h11M110 114h31M142 114h8M170 114h20M240 114h20M280 114h20M320 114h20M350 114h20M110 115h40M170 115h20M240 115h20M280 115h20M320 115h20M350 115h20M110 116h40M170 116h20M240 116h20M280 116h20M320 116h20M350 116h20M110 117h40M170 117h20M240 117h20M280 117h20M320 117h20M350 117h20M110 118h40M170 118h20M240 118h20M280 118h20M320 118h20M350 118h20M110 119h40M170 119h20M240 119h20M280 119h20M320 119h20M350 119h20M110 120h20M170 120h20M240 120h20M280 120h20M320 120h20M350 120h20M110 121h20M170 121h20M240 121h20M280 121h20M320 121h20M350 121h20M110 122h20M170 122h20M240 122h20M280 122h20M320 122h20M350 122h20M110 123h20M170 123h20M240 123h20M280 123h20M320 123h20M350 123h20M110 124h20M170 124h20M240 124h20M280 124h20M320 124h20M350 124h20M110 125h20M170 125h20M240 125h20M280 125h20M320 125h20M350 125h20M110 126h20M170 126h20M240 126h20M280 126h20M320 126h20M350 126h20M110 127h20M170 127h20M240 127h20M280 127h20M320 127h20M350 127h20M110 128h20M170 128h20M240 128h20M280 128h20M320 128h20M350 128h20M110 129h20M170 129h20M240 129h20M280 129h20M320 129h20M350 129h20M110 130h14M125 130h5M170 130h20M240 130h20M280 130h20M310 130h20M360 130h20M110 131h20M170 131h20M240 131h20M280 131h20M310 131h20M360 131h20M110 132h20M170 132h20M240 132h20M280 132h20M310 132h20M360 132h20M110 133h20M170 133h20M240 133h20M280 133h20M310 133h20M360 133h20M110 134h20M170 134h20M240 134h20M280 134h20M310 134h20M360 134h20M110 135h20M170 135h20M240 135h20M280 135h20M310 135h20M360 135h20M110 136h20M170 136h20M240 136h20M280 136h20M310 136h20M360 136h20M110 137h20M170 137h20M240 137h20M280 137h20M310 137h20M360 137h20M110 138h20M170 138h20M240 138h20M280 138h20M310 138h20M360 138h20M110 139h20M170 139h20M240 139h20M280 139h20M310 139h20M360 139h20M110 140h20M170 140h20M240 140h20M280 140h20M310 140h20M360 140h20M110 141h20M170 141h20M240 141h20M280 141h20M310 141h20M360 141h20M110 142h20M170 142h20M240 142h20M280 142h9M290 142h10M310 142h20M360 142h20M110 143h20M170 143h20M240 143h20M280 143h20M310 143h20M360 143h20M110 144h20M170 144h20M240 144h20M280 144h20M311 144h19M360 144h20M110 145h20M170 145h20M240 145h20M280 145h20M310 145h20M360 145h20M110 146h20M170 146h20M240 146h20M280 146h20M310 146h20M360 146h20M110 147h20M170 147h20M240 147h20M280 147h20M310 147h9M320 147h10M360 147h20M110 148h20M170 148h20M240 148h20M280 148h20M310 148h20M360 148h20M110 149h20M170 149h20M240 149h20M280 149h20M310 149h20M360 149h20" />
<path stroke="#fbf336" d="M325 50h1M295 54h1M226 64h1M220 85h1M361 86h1M274 106h1M286 111h1M358 113h1M124 130h1M289 142h1M310 144h1M319 147h1" />
<path stroke="#faf236" d="M117 65h1M144 71h1M186 89h1M123 90h1M267 98h1M297 102h1M141 114h1" />
<path stroke="#fbf237" d="M179 74h1M197 101h1M185 104h1M122 105h1M110 109h1" />
</svg>