<svg xmlns="http://www.w3.org/2000/svg" viewBox="0 -0.5 480 480" shape-rendering="crispEdges">
<metadata>Made with Pixels to Svg https://codepen.io/shshaw/pen/XbxvNj</metadata>
<path stroke="#fbf236" d="M250 50h50M330 50h40M390 50h20M250 51h50M330 51h40M390 51h20M250 52h50M330 52h40M390 52h20M250 53h50M330 53h40M390 53h20M250 54h50M330 54h40M390 54h20M250 55h50M330 55h40M390 55h20M250 56h50M330 56h40M390 56h20M250 57h50M330 57h40M390 57h20M250 58h50M330 58h40M390 58h20M250 59h50M330 59h1M332 59h38M390 59h20M250 60h60M320 60h60M390 60h20M250 61h60M320 61h60M390 61h20M250 62h60M320 62h60M390 62h20M250 63h60M320 63h57M378 63h2M390 63h20M250 64h60M320 64h60M390 64h20M250 65h60M320 65h60M390 65h20M250 66h60M320 66h60M390 66h20M250 67h60M320 67h60M390 67h20M250 68h60M320 68h60M390 68h20M250 69h60M320 69h60M390 69h20M130 70h40M250 70h20M290 70h20M320 70h20M360 70h20M390 70h20M130 71h40M250 71h20M290 71h20M320 71h20M360 71h20M390 71h20M130 72h40M250 72h20M290 72h20M320 72h20M360 72h20M390 72h20M130 73h40M250 73h20M290 73h20M320 73h20M360 73h20M390 73h20M130 74h40M250 74h20M290 74h20M320 74h20M360 74h20M390 74h20M130 75h40M250 75h20M290 75h20M320 75h20M360 75h20M390 75h20M130 76h40M250 76h20M290 76h20M320 76h20M360 76h20M390 76h20M130 77h40M250 77h20M290 77h20M320 77h20M360 77h20M390 77h20M130 78h40M250 78h20M290 78h20M320 78h20M360 78h20M390 78h20M130 79h40M250 79h20M290 79h20M320 79h20M360 79h20M390 79h20M120 80h20M160 80h20M250 80h20M290 80h20M320 80h20M360 80h20M390 80h20M120 81h20M160 81h20M250 81h20M290 81h20M320 81h20M360 81h20M390 81h20M120 82h20M160 82h20M250 82h20M290 82h20M320 82h20M360 82h20M390 82h20M120 83h20M160 83h20M250 83h20M290 83h20M320 83h20M360 83h20M390 83h20M120 84h20M160 84h20M250 84h20M290 84h20M320 84h20M360 84h20M390 84h20M120 85h20M160 85h20M250 85h20M290 85h20M320 85h20M360 85h20M390 85h20M120 86h20M160 86h20M250 86h20M290 86h20M320 86h20M360 86h20M390 86h20M120 87h20M160 87h20M250 87h20M290 87h20M320 87h20M360 87h20M390 87h19M120 88h20M160 88h20M250 88h20M290 88h20M320 88h20M360 88h18M379 88h1M390 88h20M120 89h18M139 89h1M160 89h20M250 89h20M290 89h11M302 89h8M320 89h20M360 89h20M390 89h20M110 90h10M130 90h40M180 90h10M250 90h17M268 90h42M320 90h60M390 90h20M110 91h10M130 91h40M180 91h10M250 91h60M320 91h60M390 91h20M110 92h10M130 92h40M180 92h10M250 92h60M320 92h60M390 92h20M110 93h10M130 93h40M180 93h10M250 93h60M320 93h60M390 93h20M110 94h10M130 94h40M180 94h10M250 94h60M320 94h60M390 94h20M110 95h10M130 95h40M180 95h10M250 95h60M320 95h60M390 95h20M110 96h10M130 96h40M180 96h10M250 96h60M320 96h60M390 96h20M110 97h10M130 97h40M180 97h10M250 97h60M320 97h60M390 97h20M110 98h10M130 98h40M180 98h10M250 98h60M320 98h60M390 98h20M110 99h10M130 99h40M180 99h10M250 99h40M291 99h19M320 99h60M390 99h20M100 100h10M140 100h20M190 100h10M250 100h50M320 100h60M390 100h20M100 101h10M140 101h20M190 101h10M250 101h50M320 101h60M390 101h20M100 102h10M140 102h20M190 102h10M250 102h50M320 102h60M390 102h20M100 103h10M140 103h20M190 103h10M250 103h50M320 103h60M390 103h20M100 104h10M140 104h20M190 104h10M250 104h50M320 104h60M390 104h20M100 105h10M140 105h20M190 105h10M250 105h50M320 105h60M390 105h20M100 106h10M140 106h20M190 106h10M250 106h50M320 106h60M390 106h20M100 107h10M140 107h20M190 107h10M250 107h50M320 107h60M390 107h20M100 108h10M140 108h20M190 108h10M250 108h50M320 108h60M390 108h20M100 109h10M140 109h20M190 109h10M250 109h50M320 109h60M390 109h20M90 110h10M200 110h10M250 110h20M290 110h20M320 110h20M360 110h20M390 110h20M90 111h10M200 111h10M250 111h20M290 111h20M320 111h20M360 111h20M390 111h20M90 112h10M200 112h10M250 112h20M290 112h20M320 112h20M360 112h20M390 112h20M90 113h10M200 113h10M250 113h20M290 113h20M320 113h20M360 113h20M390 113h20M90 114h10M200 114h10M250 114h20M290 114h20M320 114h20M360 114h20M390 114h20M90 115h10M200 115h10M250 115h20M290 115h20M320 115h20M360 115h20M390 115h20M90 116h10M200 116h10M250 116h20M290 116h20M320 116h20M360 116h20M390 116h20M90 117h10M200 117h10M250 117h20M290 117h20M320 117h20M360 117h20M390 117h20M90 118h10M200 118h10M250 118h20M290 118h20M320 118h20M360 118h20M390 118h20M90 119h10M200 119h10M250 119h20M290 119h20M320 119h20M360 119h20M390 119h20M80 120h10M210 120h10M250 120h20M290 120h20M320 120h20M360 120h20M390 120h20M80 121h10M210 121h10M250 121h20M290 121h20M320 121h20M360 121h20M390 121h20M80 122h10M210 122h10M250 122h20M290 122h20M320 122h20M360 122h20M390 122h20M80 123h10M210 123h10M250 123h20M290 123h20M320 123h20M360 123h20M390 123h20M80 124h10M210 124h10M250 124h20M290 124h20M320 124h20M360 124h20M390 124h20M80 125h10M210 125h1M212 125h8M250 125h20M290 125h20M320 125h20M360 125h20M390 125h20M80 126h10M210 126h10M250 126h20M290 126h20M320 126h20M360 126h20M390 126h20M80 127h10M210 127h10M250 127h20M290 127h20M320 127h20M360 127h20M390 127h20M80 128h10M210 128h10M250 128h20M290 128h18M309 128h1M320 128h20M360 128h20M390 128h20M80 129h10M210 129h10M250 129h20M290 129h20M320 129h20M360 129h20M390 129h20M70 130h10M220 130h10M250 130h20M290 130h20M320 130h20M360 130h20M390 130h20M70 131h10M220 131h10M250 131h20M290 131h20M320 131h20M360 131h20M390 131h20M70 132h10M220 132h10M250 132h20M290 132h20M320 132h20M360 132h20M390 132h20M70 133h10M220 133h10M250 133h20M290 133h20M320 133h20M360 133h20M390 133h20M70 134h10M220 134h10M250 134h20M290 134h20M320 134h20M360 134h20M390 134h20M70 135h10M220 135h10M251 135h19M290 135h20M320 135h20M360 135h20M390 135h20M70 136h10M220 136h10M250 136h20M290 136h20M320 136h20M360 136h20M390 136h20M70 137h10M220 137h10M250 137h16M267 137h3M290 137h20M320 137h20M360 137h20M390 137h20M70 138h10M220 138h10M250 138h20M290 138h20M320 138h20M360 138h20M390 138h20M70 139h10M220 139h10M250 139h11M262 139h8M290 139h20M320 139h20M360 139h20M390 139h20M250 140h20M290 140h20M320 140h20M360 140h20M390 140h20M250 141h20M290 141h20M320 141h20M360 141h20M390 141h20M250 142h20M290 142h20M320 142h20M360 142h20M390 142h20M250 143h20M290 143h20M320 143h20M360 143h20M390 143h20M250 144h20M290 144h20M320 144h20M360 144h20M390 144h20M250 145h20M290 145h20M320 145h20M360 145h20M390 145h20M250 146h20M290 146h20M320 146h20M360 146h20M390 146h20M250 147h20M290 147h20M320 147h20M360 147h20M390 147h20M250 148h20M290 148h20M320 148h20M360 148h20M390 148h20M250 149h20M290 149h20M320 149h20M360 149h20M390 149h20" />
<path stroke="#fbf336" d="M331 59h1M409 87h1M301 89h1M211 125h1M250 135h1" />
<path stroke="#fbf237" d="M377 63h1M290 99h1M308 128h1M266 137h1" />
<path stroke="#faf236" d="M378 88h1M138 89h1M267 90h1M261 139h1" />
</svg>