<svg xmlns="http://www.w3.org/2000/svg" viewBox="0 -0.5 480 480" shape-rendering="crispEdges">
<metadata>Made with Pixels to Svg https://codepen.io/shshaw/pen/XbxvNj</metadata>
<path stroke="#fbf236" d="M120 40h30M120 41h30M120 42h30M120 43h30M120 44h30M120 45h30M120 46h30M120 47h30M120 48h30M120 49h30M100 50h20M130 50h10M150 50h20M200 50h50M280 50h40M340 50h20M380 50h20M100 51h20M130 51h10M150 51h20M200 51h50M280 51h40M340 51h20M380 51h20M100 52h20M130 52h10M150 52h20M200 52h50M280 52h40M340 52h20M380 52h20M100 53h20M130 53h10M150 53h20M200 53h50M280 53h40M340 53h20M380 53h20M100 54h20M130 54h10M150 54h20M200 54h50M280 54h4M285 54h35M340 54h20M380 54h20M100 55h20M130 55h10M150 55h20M200 55h50M280 55h40M340 55h20M380 55h20M100 56h20M130 56h10M150 56h20M200 56h50M280 56h40M340 56h20M380 56h20M100 57h20M130 57h10M150 57h20M200 57h50M280 57h40M340 57h20M380 57h20M100 58h20M130 58h10M150 58h20M200 58h34M235 58h15M280 58h37M318 58h2M340 58h20M380 58h20M100 59h20M130 59h10M150 59h20M200 59h50M280 59h40M340 59h20M380 59h20M90 60h10M120 60h30M170 60h10M200 60h60M270 60h60M340 60h20M380 60h20M90 61h10M120 61h30M170 61h10M200 61h60M270 61h60M340 61h20M380 61h20M90 62h10M120 62h30M170 62h10M200 62h60M270 62h60M340 62h20M380 62h20M90 63h10M120 63h30M170 63h10M200 63h60M270 63h12M283 63h47M340 63h20M380 63h20M90 64h10M120 64h30M170 64h10M200 64h60M270 64h19M290 64h40M340 64h20M380 64h20M90 65h10M120 65h30M170 65h10M200 65h60M270 65h60M341 65h19M380 65h20M90 66h10M120 66h30M170 66h10M200 66h60M270 66h60M340 66h20M380 66h20M90 67h10M120 67h30M170 67h10M200 67h60M270 67h60M340 67h20M380 67h20M90 68h10M120 68h30M170 68h10M200 68h60M270 68h60M340 68h20M380 68h20M90 69h10M120 69h30M170 69h10M200 69h60M270 69h60M340 69h20M380 69h20M90 70h10M170 70h10M200 70h20M240 70h20M270 70h20M310 70h20M340 70h20M380 70h20M90 71h10M170 71h10M200 71h20M240 71h20M270 71h20M310 71h20M340 71h20M380 71h20M90 72h10M170 72h10M200 72h20M240 72h20M270 72h20M310 72h20M340 72h20M380 72h3M384 72h16M90 73h10M170 73h10M200 73h20M240 73h20M270 73h5M276 73h14M310 73h20M340 73h20M380 73h20M90 74h10M170 74h10M200 74h20M240 74h20M270 74h20M310 74h20M340 74h20M380 74h20M90 75h10M170 75h10M200 75h20M240 75h20M270 75h20M310 75h20M340 75h20M380 75h20M90 76h10M170 76h10M200 76h20M240 76h20M270 76h20M310 76h20M340 76h20M380 76h20M90 77h10M170 77h10M200 77h20M240 77h13M254 77h6M270 77h20M310 77h20M340 77h20M380 77h20M90 78h10M170 78h10M200 78h20M240 78h20M270 78h20M310 78h20M340 78h20M380 78h20M90 79h10M170 79h10M200 79h20M240 79h20M270 79h20M310 79h20M340 79h20M380 79h20M100 80h10M160 80h10M200 80h20M240 80h20M270 80h20M310 80h20M340 80h20M370 80h30M100 81h10M160 81h10M200 81h20M240 81h20M270 81h20M310 81h20M340 81h20M370 81h30M100 82h10M160 82h10M200 82h7M208 82h12M240 82h20M270 82h20M310 82h20M340 82h20M370 82h30M100 83h10M160 83h10M200 83h20M240 83h20M270 83h20M310 83h20M340 83h20M370 83h30M100 84h10M160 84h10M200 84h20M240 84h20M270 84h20M310 84h20M340 84h20M370 84h30M100 85h10M160 85h10M200 85h20M240 85h20M270 85h20M310 85h20M340 85h20M370 85h30M100 86h10M160 86h10M200 86h20M240 86h20M270 86h20M310 86h20M340 86h20M370 86h30M100 87h10M160 87h10M200 87h20M240 87h3M244 87h16M270 87h20M310 87h20M340 87h20M370 87h30M100 88h10M160 88h10M200 88h20M240 88h20M270 88h20M310 88h20M340 88h20M370 88h30M100 89h10M160 89h10M200 89h20M240 89h20M270 89h20M310 89h6M317 89h13M340 89h20M370 89h30M110 90h10M150 90h10M200 90h60M270 90h60M340 90h50M110 91h10M150 91h10M200 91h60M270 91h60M340 91h50M110 92h10M150 92h10M200 92h60M270 92h60M340 92h50M110 93h10M150 93h10M200 93h60M270 93h60M340 93h50M110 94h10M150 94h10M200 94h60M270 94h60M340 94h50M110 95h10M150 95h10M200 95h60M270 95h60M340 95h50M110 96h10M150 96h10M200 96h60M270 96h60M340 96h50M110 97h10M150 97h10M200 97h60M270 97h60M340 97h50M110 98h10M150 98h10M200 98h60M270 98h60M340 98h50M110 99h10M150 99h10M200 99h60M270 99h60M340 99h50M120 100h10M140 100h10M200 100h50M270 100h60M340 100h40M120 101h10M140 101h10M200 101h50M270 101h60M340 101h40M120 102h10M140 102h10M200 102h50M270 102h60M340 102h40M120 103h10M140 103h10M200 103h50M270 103h60M340 103h40M120 104h10M140 104h10M200 104h50M270 104h60M340 104h40M120 105h10M140 105h10M200 105h50M270 105h60M340 105h40M120 106h10M140 106h10M200 106h50M270 106h60M340 106h40M120 107h10M140 107h10M200 107h50M270 107h60M340 107h40M120 108h10M140 108h10M200 108h50M270 108h60M340 108h40M120 109h10M140 109h10M200 109h50M270 109h60M340 109h40M90 110h10M110 110h20M140 110h20M200 110h20M240 110h20M270 110h20M310 110h20M340 110h50M90 111h10M110 111h20M140 111h20M200 111h20M240 111h20M270 111h20M310 111h20M340 111h50M90 112h10M110 112h20M140 112h20M200 112h20M240 112h20M270 112h19M310 112h20M340 112h50M90 113h10M110 113h20M140 113h20M200 113h20M240 113h20M270 113h20M310 113h20M340 113h50M90 114h10M110 114h20M140 114h20M200 114h20M240 114h20M270 114h20M310 114h20M340 114h50M90 115h10M110 115h20M140 115h20M200 115h20M240 115h20M270 115h20M310 115h20M340 115h50M90 116h10M110 116h20M140 116h20M200 116h20M240 116h20M270 116h20M310 116h20M340 116h50M90 117h10M110 117h20M140 117h10M151 117h9M200 117h20M240 117h20M270 117h20M310 117h20M340 117h50M90 118h10M110 118h20M140 118h20M200 118h20M240 118h20M270 118h20M310 118h20M340 118h50M90 119h10M110 119h20M140 119h20M200 119h20M240 119h20M270 119h20M310 119h20M340 119h50M80 120h10M100 120h10M120 120h10M160 120h10M200 120h20M240 120h20M270 120h20M310 120h20M340 120h20M370 120h30M80 121h10M100 121h10M120 121h10M160 121h10M200 121h20M240 121h20M270 121h20M310 121h20M340 121h20M370 121h30M80 122h10M100 122h7M108 122h2M120 122h10M160 122h10M200 122h20M240 122h20M270 122h20M310 122h20M340 122h20M370 122h30M80 123h10M100 123h10M120 123h10M160 123h10M200 123h20M240 123h9M250 123h10M270 123h20M310 123h20M340 123h20M370 123h30M80 124h10M100 124h10M120 124h10M160 124h10M200 124h20M240 124h20M270 124h20M310 124h20M340 124h20M370 124h30M80 125h10M100 125h10M120 125h10M160 125h10M200 125h20M240 125h20M270 125h20M310 125h20M340 125h20M370 125h30M80 126h10M100 126h10M120 126h10M160 126h10M200 126h20M240 126h20M270 126h20M310 126h20M340 126h20M370 126h30M80 127h10M100 127h10M120 127h10M160 127h10M200 127h20M240 127h20M270 127h20M310 127h20M340 127h20M370 127h30M80 128h10M100 128h10M120 128h10M160 128h10M200 128h20M240 128h20M270 128h20M310 128h20M340 128h20M370 128h30M80 129h10M100 129h10M120 129h10M160 129h10M200 129h20M240 129h20M270 129h20M310 129h20M340 129h20M370 129h30M70 130h10M90 130h10M130 130h30M170 130h10M200 130h20M240 130h20M270 130h20M310 130h20M340 130h20M380 130h20M70 131h10M90 131h10M130 131h30M170 131h10M200 131h20M240 131h20M270 131h20M310 131h20M340 131h20M380 131h20M70 132h10M90 132h10M130 132h30M170 132h10M200 132h20M240 132h20M270 132h20M310 132h20M340 132h20M380 132h20M70 133h10M90 133h10M130 133h30M170 133h10M200 133h20M240 133h20M270 133h20M310 133h20M340 133h20M380 133h20M70 134h10M90 134h10M130 134h30M170 134h10M200 134h20M240 134h20M270 134h20M310 134h20M340 134h20M380 134h20M70 135h10M90 135h10M130 135h30M170 135h10M200 135h20M240 135h20M270 135h1M272 135h18M310 135h20M340 135h20M380 135h20M70 136h10M90 136h10M130 136h30M170 136h10M200 136h20M240 136h20M270 136h20M310 136h20M340 136h20M380 136h20M70 137h10M90 137h10M130 137h30M170 137h10M200 137h20M240 137h20M270 137h20M310 137h20M340 137h20M380 137h20M70 138h10M90 138h10M130 138h30M170 138h10M200 138h20M240 138h20M270 138h20M310 138h20M340 138h20M380 138h20M70 139h10M90 139h10M130 139h30M170 139h10M200 139h20M240 139h20M270 139h20M310 139h20M340 139h20M380 139h20M80 140h10M100 140h10M170 140h10M200 140h20M240 140h20M270 140h20M310 140h20M340 140h20M380 140h20M80 141h10M100 141h10M170 141h10M200 141h20M240 141h20M270 141h20M310 141h20M340 141h20M380 141h20M80 142h10M100 142h10M170 142h10M200 142h20M240 142h20M270 142h20M310 142h20M340 142h20M380 142h20M80 143h10M100 143h10M170 143h10M200 143h20M240 143h20M271 143h19M310 143h20M340 143h20M380 143h20M80 144h10M100 144h10M170 144h10M200 144h20M240 144h20M270 144h20M310 144h20M340 144h20M380 144h20M80 145h10M100 145h10M170 145h10M200 145h20M240 145h20M270 145h20M310 145h20M340 145h20M380 145h20M80 146h10M100 146h10M170 146h10M200 146h20M240 146h20M270 146h20M310 146h20M340 146h20M380 146h20M80 147h10M100 147h10M170 147h10M200 147h20M240 147h20M270 147h20M310 147h20M340 147h20M380 147h20M80 148h10M100 148h10M170 148h10M200 148h20M240 148h20M270 148h20M310 148h20M340 148h20M380 148h20M80 149h10M100 149h10M170 149h10M200 149h20M240 149h20M270 149h20M310 149h20M340 149h20M380 149h20M90 150h10M110 150h60M90 151h10M110 151h60M90 152h10M110 152h60M90 153h10M110 153h60M90 154h10M110 154h60M90 155h10M110 155h60M90 156h10M110 156h60M90 157h10M110 157h60M90 158h10M110 158h60M90 159h10M110 159h60" />
<path stroke="#fbf237" d="M284 54h1M317 58h1M383 72h1M275 73h1M107 122h1" />
<path stroke="#faf236" d="M234 58h1M282 63h1M207 82h1M243 87h1M150 117h1M249 123h1M270 143h1" />
<path stroke="#fbf336" d="M289 64h1M340 65h1M253 77h1M316 89h1M289 112h1M271 135h1" />
</svg>