<svg xmlns="http://www.w3.org/2000/svg" viewBox="0 -0.5 480 480" shape-rendering="crispEdges">
<metadata>Made with Pixels to Svg https://codepen.io/shshaw/pen/XbxvNj</metadata>
<path stroke="#fbf236" d="M120 40h10M120 41h10M120 42h10M120 43h10M120 44h10M120 45h10M120 46h10M120 47h10M120 48h10M120 49h10M120 50h10M190 50h19M210 50h30M260 50h20M300 50h40M120 51h10M190 51h50M260 51h20M300 51h40M120 52h10M190 52h50M260 52h20M300 52h40M120 53h10M190 53h50M260 53h20M300 53h40M120 54h10M190 54h50M260 54h20M300 54h40M120 55h10M190 55h50M260 55h20M300 55h40M120 56h10M190 56h50M260 56h20M300 56h40M120 57h10M190 57h50M260 57h20M300 57h40M120 58h10M190 58h50M260 58h20M300 58h40M120 59h10M190 59h50M260 59h20M300 59h40M80 60h90M190 60h60M260 60h20M290 60h60M80 61h90M190 61h60M260 61h20M290 61h60M80 62h90M190 62h60M260 62h20M290 62h60M80 63h90M190 63h60M260 63h20M290 63h60M80 64h90M190 64h60M260 64h20M290 64h60M80 65h90M190 65h60M260 65h20M290 65h60M80 66h90M190 66h60M260 66h20M290 66h60M80 67h90M190 67h60M260 67h20M290 67h60M80 68h90M190 68h60M260 68h20M290 68h60M80 69h90M190 69h60M260 69h20M290 69h60M90 70h70M190 70h20M230 70h20M260 70h20M290 70h20M330 70h20M90 71h70M190 71h20M230 71h20M260 71h20M290 71h20M330 71h20M90 72h70M190 72h20M230 72h20M260 72h20M290 72h20M330 72h20M90 73h70M190 73h20M230 73h20M260 73h20M290 73h20M330 73h20M90 74h70M190 74h20M230 74h20M260 74h20M290 74h20M330 74h20M90 75h70M190 75h20M230 75h20M260 75h20M290 75h20M330 75h20M90 76h70M190 76h20M230 76h20M260 76h20M290 76h20M330 76h20M90 77h70M190 77h20M230 77h20M260 77h20M290 77h20M330 77h20M90 78h70M190 78h20M230 78h20M260 78h20M290 78h20M330 78h20M90 79h70M190 79h20M230 79h20M260 79h20M290 79h20M330 79h20M110 80h30M190 80h20M230 80h20M260 80h20M290 80h20M330 80h20M110 81h30M190 81h20M230 81h20M260 81h20M290 81h20M330 81h20M110 82h30M190 82h20M230 82h20M260 82h20M290 82h20M330 82h20M110 83h30M190 83h20M230 83h20M260 83h20M290 83h20M330 83h20M110 84h30M190 84h20M230 84h20M260 84h20M290 84h20M330 84h20M110 85h30M190 85h20M230 85h20M260 85h20M290 85h20M330 85h20M110 86h30M190 86h6M197 86h13M230 86h20M260 86h20M290 86h20M330 86h20M110 87h30M190 87h20M230 87h4M235 87h15M260 87h20M290 87h20M330 87h20M110 88h30M190 88h20M230 88h20M260 88h20M290 88h20M330 88h20M110 89h30M190 89h20M230 89h20M260 89h20M290 89h12M303 89h7M330 89h20M110 90h30M190 90h44M235 90h15M260 90h20M290 90h20M330 90h20M110 91h30M190 91h60M260 91h20M290 91h20M330 91h20M110 92h30M190 92h60M260 92h20M290 92h20M330 92h20M110 93h30M190 93h60M260 93h20M290 93h20M330 93h20M110 94h30M190 94h60M260 94h20M290 94h20M330 94h20M110 95h30M190 95h60M260 95h20M290 95h20M330 95h20M110 96h30M190 96h60M260 96h20M290 96h20M330 96h20M110 97h30M190 97h60M260 97h20M290 97h20M330 97h20M110 98h30M190 98h60M260 98h20M290 98h6M297 98h13M330 98h20M110 99h30M190 99h60M260 99h20M290 99h20M330 99h20M110 100h30M190 100h50M260 100h20M290 100h20M330 100h20M110 101h30M190 101h50M260 101h20M290 101h20M330 101h20M110 102h30M190 102h50M260 102h20M290 102h20M330 102h20M110 103h30M190 103h50M260 103h20M290 103h20M330 103h20M110 104h30M190 104h50M260 104h20M290 104h20M330 104h20M110 105h30M190 105h50M260 105h20M290 105h20M330 105h20M110 106h30M190 106h50M260 106h20M290 106h20M330 106h20M110 107h30M190 107h50M260 107h20M290 107h20M330 107h20M110 108h30M190 108h50M260 108h20M290 108h20M330 108h20M110 109h30M190 109h50M260 109h20M290 109h17M308 109h2M330 109h20M110 110h30M190 110h20M230 110h20M260 110h20M290 110h20M330 110h20M110 111h30M190 111h20M230 111h20M260 111h20M290 111h20M330 111h20M110 112h30M190 112h20M230 112h20M260 112h20M290 112h20M330 112h20M110 113h30M190 113h20M230 113h20M260 113h20M290 113h20M330 113h20M110 114h30M190 114h20M230 114h20M260 114h20M290 114h20M330 114h20M110 115h30M190 115h20M230 115h20M260 115h20M290 115h20M330 115h20M110 116h30M190 116h20M230 116h20M260 116h20M290 116h20M330 116h20M110 117h30M190 117h20M230 117h20M260 117h20M290 117h20M330 117h20M110 118h30M190 118h20M230 118h20M260 118h20M290 118h20M330 118h20M110 119h30M190 119h20M230 119h20M260 119h20M290 119h20M330 119h20M110 120h30M190 120h20M230 120h20M260 120h20M290 120h20M330 120h20M110 121h30M190 121h20M230 121h20M260 121h20M290 121h20M330 121h20M110 122h30M190 122h20M230 122h20M260 122h20M290 122h20M330 122h20M110 123h16M127 123h13M190 123h20M230 123h20M260 123h20M290 123h20M330 123h20M110 124h30M190 124h20M230 124h20M260 124h20M290 124h20M330 124h20M110 125h30M190 125h20M230 125h20M260 125h20M290 125h20M330 125h20M110 126h30M190 126h20M230 126h1M232 126h18M260 126h20M290 126h1M292 126h18M330 126h20M110 127h30M190 127h20M230 127h20M260 127h20M290 127h20M330 127h20M110 128h30M190 128h20M230 128h20M260 128h20M290 128h20M330 128h20M110 129h30M190 129h20M230 129h20M260 129h20M290 129h20M330 129h20M100 130h10M140 130h10M190 130h20M230 130h20M260 130h20M290 130h60M100 131h10M140 131h10M190 131h20M230 131h20M260 131h20M290 131h60M100 132h10M140 132h10M190 132h20M230 132h20M260 132h20M290 132h60M100 133h10M140 133h10M190 133h20M230 133h20M260 133h20M290 133h60M100 134h10M140 134h10M190 134h20M230 134h20M260 134h20M290 134h60M100 135h10M140 135h10M190 135h20M230 135h20M260 135h20M290 135h60M100 136h10M140 136h10M190 136h20M230 136h20M260 136h20M290 136h60M100 137h10M140 137h10M190 137h20M230 137h20M260 137h20M290 137h60M100 138h10M140 138h10M190 138h20M230 138h2M233 138h17M260 138h20M290 138h60M100 139h10M140 139h10M190 139h20M230 139h20M260 139h20M290 139h60M100 140h50M190 140h20M230 140h20M260 140h20M300 140h40M100 141h38M139 141h11M190 141h20M230 141h20M260 141h20M300 141h40M100 142h50M190 142h20M230 142h20M260 142h20M300 142h40M100 143h50M190 143h20M230 143h20M260 143h20M300 143h40M100 144h50M190 144h20M230 144h20M260 144h20M300 144h37M338 144h2M100 145h50M190 145h20M230 145h20M260 145h20M300 145h40M100 146h50M190 146h20M230 146h20M260 146h20M300 146h40M100 147h50M190 147h20M230 147h20M260 147h20M300 147h40M100 148h50M190 148h20M230 148h20M260 148h20M300 148h40M100 149h50M190 149h20M230 149h20M260 149h20M300 149h40M110 150h30M110 151h30M110 152h30M110 153h30M110 154h30M110 155h30M110 156h30M110 157h30M110 158h30M110 159h30" />
<path stroke="#fbf237" d="M209 50h1M302 89h1M296 98h1" />
<path stroke="#fbf336" d="M196 86h1M307 109h1M232 138h1M337 144h1" />
<path stroke="#faf236" d="M234 87h1M234 90h1M126 123h1M231 126h1M291 126h1M138 141h1" />
</svg>