<svg xmlns="http://www.w3.org/2000/svg" viewBox="0 -0.5 480 480" shape-rendering="crispEdges">
<metadata>Made with Pixels to Svg https://codepen.io/shshaw/pen/XbxvNj</metadata>
<path stroke="#fbf236" d="M90 50h20M140 50h20M90 51h7M98 51h12M140 51h20M90 52h20M140 52h20M90 53h20M140 53h20M90 54h20M140 54h20M90 55h20M140 55h20M90 56h20M140 56h20M90 57h20M140 57h20M90 58h20M140 58h20M90 59h20M140 59h20M90 60h10M110 60h10M130 60h10M150 60h10M220 60h50M290 60h20M330 60h20M360 60h20M410 60h20M90 61h10M110 61h10M130 61h10M150 61h10M220 61h50M290 61h20M330 61h20M360 61h20M410 61h20M90 62h10M110 62h10M130 62h10M150 62h10M220 62h50M290 62h20M330 62h20M360 62h20M410 62h20M90 63h10M110 63h10M130 63h10M150 63h10M220 63h50M290 63h20M330 63h20M360 63h20M410 63h20M90 64h10M110 64h10M130 64h10M150 64h10M220 64h50M290 64h20M330 64h20M360 64h20M410 64h20M90 65h10M110 65h10M130 65h10M150 65h10M220 65h50M290 65h20M330 65h20M360 65h20M410 65h20M90 66h10M110 66h10M130 66h10M150 66h10M220 66h50M290 66h20M330 66h20M360 66h20M410 66h20M90 67h10M110 67h10M130 67h10M150 67h10M220 67h50M290 67h20M330 67h20M360 67h20M410 67h20M90 68h10M110 68h10M130 68h10M150 68h10M220 68h50M290 68h20M330 68h20M360 68h20M410 68h20M90 69h10M110 69h10M130 69h10M150 69h10M220 69h50M290 69h20M330 69h20M360 69h20M410 69h20M100 70h10M120 70h10M140 70h10M220 70h60M290 70h20M330 70h20M360 70h20M410 70h20M100 71h10M120 71h10M140 71h10M220 71h60M290 71h20M330 71h20M360 71h20M410 71h20M100 72h10M120 72h10M140 72h10M220 72h60M290 72h20M330 72h3M334 72h16M360 72h20M410 72h20M100 73h10M120 73h10M140 73h10M220 73h60M290 73h20M330 73h20M360 73h20M410 73h14M425 73h5M100 74h10M120 74h10M140 74h10M220 74h60M290 74h20M330 74h20M360 74h20M410 74h20M100 75h10M120 75h10M140 75h10M221 75h59M290 75h20M330 75h20M360 75h20M410 75h20M100 76h10M120 76h10M140 76h10M220 76h60M290 76h20M330 76h20M360 76h20M410 76h20M100 77h10M120 77h10M140 77h10M220 77h60M290 77h20M330 77h20M360 77h20M410 77h20M100 78h10M120 78h10M140 78h10M220 78h60M290 78h20M330 78h20M360 78h20M410 78h20M100 79h10M120 79h10M140 79h10M220 79h56M277 79h3M290 79h20M330 79h20M360 79h20M410 79h20M110 80h10M130 80h10M220 80h20M260 80h20M290 80h20M330 80h20M360 80h20M410 80h20M110 81h10M130 81h10M220 81h20M260 81h20M290 81h20M330 81h20M360 81h20M410 81h20M110 82h10M130 82h10M220 82h20M260 82h20M290 82h20M330 82h20M360 82h20M410 82h20M110 83h10M130 83h10M220 83h20M260 83h20M290 83h20M330 83h20M360 83h20M410 83h20M110 84h10M130 84h10M220 84h20M260 84h20M290 84h20M330 84h20M360 84h20M410 84h20M110 85h10M130 85h10M220 85h20M260 85h20M290 85h20M330 85h20M360 85h20M410 85h20M110 86h10M130 86h10M220 86h20M260 86h20M290 86h20M330 86h20M360 86h20M410 86h20M110 87h10M130 87h10M220 87h20M260 87h20M290 87h20M330 87h20M360 87h20M410 87h20M110 88h10M130 88h10M220 88h20M260 88h20M290 88h20M330 88h20M360 88h20M410 88h20M110 89h10M130 89h10M220 89h20M260 89h20M290 89h20M331 89h19M360 89h20M410 89h20M100 90h10M120 90h10M140 90h10M220 90h20M260 90h20M290 90h20M320 90h30M360 90h20M410 90h20M100 91h10M120 91h10M140 91h10M220 91h20M260 91h20M290 91h20M320 91h30M360 91h20M410 91h20M100 92h10M120 92h10M140 92h10M220 92h20M260 92h20M290 92h20M320 92h30M360 92h20M410 92h20M100 93h10M120 93h10M140 93h10M220 93h20M260 93h20M290 93h20M320 93h30M360 93h20M410 93h20M100 94h10M120 94h10M140 94h10M220 94h20M260 94h20M290 94h20M320 94h30M360 94h20M410 94h20M100 95h10M120 95h10M140 95h10M220 95h20M260 95h20M290 95h3M294 95h16M320 95h30M360 95h20M410 95h20M100 96h10M120 96h10M140 96h10M220 96h20M260 96h20M290 96h20M320 96h30M360 96h20M410 96h20M100 97h10M120 97h10M140 97h10M220 97h20M260 97h20M290 97h20M320 97h30M360 97h20M410 97h20M100 98h10M120 98h10M140 98h10M220 98h20M260 98h20M290 98h20M320 98h30M360 98h20M410 98h20M100 99h10M120 99h10M140 99h10M220 99h20M260 99h20M290 99h20M320 99h30M360 99h20M410 99h20M70 100h10M90 100h10M110 100h10M130 100h10M150 100h10M170 100h10M220 100h60M290 100h50M360 100h20M410 100h20M70 101h10M90 101h10M110 101h10M130 101h10M150 101h10M170 101h10M220 101h60M290 101h50M360 101h20M410 101h20M70 102h10M90 102h10M110 102h10M130 102h10M150 102h10M170 102h10M220 102h60M290 102h50M360 102h20M410 102h20M70 103h10M90 103h10M110 103h10M130 103h10M150 103h10M170 103h10M220 103h60M290 103h50M360 103h20M410 103h20M70 104h10M90 104h10M110 104h10M130 104h10M150 104h10M170 104h10M220 104h60M290 104h50M360 104h20M410 104h20M70 105h10M90 105h10M110 105h10M130 105h10M150 105h2M153 105h7M170 105h10M220 105h60M290 105h50M360 105h20M410 105h20M70 106h10M90 106h10M110 106h10M130 106h10M150 106h10M170 106h10M220 106h60M290 106h50M360 106h20M410 106h20M70 107h10M90 107h10M110 107h10M130 107h10M150 107h10M170 107h10M220 107h60M290 107h50M360 107h20M410 107h20M70 108h10M90 108h10M110 108h10M130 108h10M150 108h10M170 108h10M220 108h60M290 108h50M360 108h20M410 108h20M70 109h10M90 109h10M110 109h10M130 109h10M150 109h10M170 109h10M220 109h60M290 109h50M360 109h20M410 109h20M80 110h10M100 110h10M140 110h10M160 110h10M220 110h50M290 110h40M360 110h20M410 110h20M80 111h10M100 111h10M140 111h10M160 111h10M220 111h4M225 111h45M290 111h40M360 111h20M410 111h20M80 112h10M100 112h10M140 112h10M160 112h10M220 112h50M290 112h40M360 112h20M410 112h20M80 113h10M100 113h10M140 113h10M160 113h10M220 113h50M290 113h40M360 113h20M410 113h20M80 114h10M100 114h10M140 114h10M160 114h10M220 114h50M290 114h40M360 114h20M410 114h20M80 115h10M100 115h10M140 115h10M160 115h10M220 115h50M290 115h40M360 115h20M410 115h20M80 116h10M100 116h10M140 116h10M160 116h10M220 116h50M290 116h40M360 116h20M410 116h20M80 117h10M100 117h10M140 117h10M160 117h10M220 117h50M290 117h40M360 117h20M410 117h20M80 118h10M100 118h10M140 118h10M160 118h10M220 118h50M290 118h40M360 118h20M410 118h20M80 119h10M100 119h10M140 119h10M160 119h10M220 119h3M224 119h46M290 119h40M360 119h20M410 119h20M70 120h30M150 120h30M220 120h20M260 120h20M290 120h50M360 120h30M400 120h30M70 121h30M150 121h30M220 121h20M260 121h20M290 121h50M360 121h30M400 121h30M70 122h30M150 122h30M220 122h20M260 122h20M290 122h50M360 122h30M400 122h30M70 123h30M150 123h30M220 123h20M260 123h20M290 123h50M360 123h30M400 123h30M70 124h30M150 124h30M220 124h20M260 124h20M290 124h50M360 124h30M400 124h30M70 125h30M150 125h30M220 125h20M260 125h20M290 125h50M360 125h30M400 125h30M70 126h30M150 126h30M220 126h20M260 126h20M290 126h50M360 126h30M400 126h30M70 127h30M150 127h30M220 127h20M260 127h20M290 127h50M360 127h30M400 127h30M70 128h30M150 128h30M220 128h20M260 128h20M290 128h50M360 128h30M400 128h30M70 129h30M150 129h30M220 129h20M260 129h20M290 129h50M360 129h14M375 129h15M400 129h30M60 130h30M100 130h10M140 130h10M160 130h30M220 130h20M260 130h20M290 130h20M320 130h30M370 130h50M60 131h30M100 131h10M140 131h10M160 131h30M220 131h20M260 131h20M290 131h20M320 131h30M370 131h50M60 132h30M100 132h10M140 132h10M160 132h30M220 132h8M229 132h11M260 132h20M290 132h20M320 132h30M370 132h50M60 133h30M100 133h10M140 133h10M160 133h30M220 133h20M260 133h20M290 133h20M320 133h5M326 133h24M370 133h50M60 134h30M100 134h10M140 134h10M160 134h30M220 134h20M260 134h20M290 134h20M320 134h30M370 134h34M405 134h15M60 135h30M100 135h10M140 135h10M160 135h30M220 135h20M260 135h20M290 135h20M320 135h30M370 135h50M60 136h30M100 136h10M140 136h10M160 136h30M220 136h20M260 136h20M290 136h20M320 136h30M370 136h50M60 137h30M100 137h10M140 137h10M160 137h30M220 137h20M260 137h20M290 137h20M320 137h30M370 137h50M60 138h30M100 138h10M140 138h10M160 138h30M220 138h20M260 138h20M290 138h20M320 138h30M370 138h50M60 139h30M100 139h10M140 139h10M160 139h15M176 139h14M220 139h20M260 139h20M290 139h20M320 139h30M370 139h50M50 140h30M170 140h30M220 140h20M260 140h20M290 140h20M330 140h20M380 140h30M50 141h30M170 141h30M220 141h20M260 141h20M290 141h20M330 141h20M380 141h30M50 142h30M170 142h30M220 142h20M260 142h20M290 142h20M330 142h20M380 142h30M50 143h30M170 143h30M220 143h20M260 143h20M290 143h20M330 143h20M380 143h30M50 144h30M170 144h30M220 144h20M260 144h20M290 144h20M330 144h20M380 144h30M50 145h30M170 145h30M220 145h20M260 145h20M290 145h20M330 145h20M380 145h30M50 146h30M170 146h30M220 146h20M260 146h20M290 146h20M330 146h20M380 146h30M50 147h30M170 147h30M220 147h20M260 147h20M290 147h20M330 147h20M380 147h30M50 148h30M170 148h30M220 148h20M260 148h20M290 148h20M330 148h20M380 148h30M50 149h30M170 149h30M220 149h20M260 149h20M290 149h20M330 149h20M380 149h30M50 150h20M180 150h20M220 150h20M260 150h20M290 150h20M330 150h20M390 150h10M50 151h20M180 151h20M220 151h20M260 151h20M290 151h20M330 151h20M390 151h10M50 152h20M180 152h20M220 152h20M260 152h20M290 152h20M330 152h20M390 152h10M50 153h20M180 153h20M220 153h20M260 153h20M290 153h20M330 153h20M390 153h10M50 154h20M180 154h20M220 154h20M260 154h20M290 154h20M330 154h20M390 154h10M50 155h20M180 155h20M220 155h20M260 155h20M290 155h20M330 155h20M390 155h10M50 156h20M180 156h20M220 156h20M260 156h20M290 156h20M330 156h20M390 156h10M50 157h20M180 157h20M220 157h20M260 157h20M290 157h20M330 157h20M390 157h10M50 158h20M180 158h20M220 158h20M260 158h20M290 158h20M330 158h20M390 158h10M50 159h20M180 159h20M220 159h20M260 159h20M290 159h20M330 159h20M390 159h10" />
<path stroke="#fbf336" d="M97 51h1M424 73h1M220 75h1M223 119h1M325 133h1M175 139h1" />
<path stroke="#faf236" d="M333 72h1M276 79h1M330 89h1M228 132h1" />
<path stroke="#fbf237" d="M293 95h1M152 105h1M224 111h1M374 129h1M404 134h1" />
</svg>