<svg xmlns="http://www.w3.org/2000/svg" viewBox="0 -0.5 480 480" shape-rendering="crispEdges">
<metadata>Made with Pixels to Svg https://codepen.io/shshaw/pen/XbxvNj</metadata>
<path stroke="#fbf236" d="M230 50h40M290 50h20M330 50h20M360 50h50M230 51h40M290 51h20M330 51h20M360 51h50M230 52h40M290 52h20M330 52h20M360 52h50M230 53h40M290 53h20M330 53h20M360 53h50M230 54h40M290 54h20M330 54h20M360 54h50M230 55h40M290 55h20M330 55h20M360 55h50M230 56h40M290 56h20M330 56h20M360 56h50M230 57h40M290 57h20M330 57h20M360 57h50M230 58h40M290 58h20M330 58h20M360 58h50M230 59h40M290 59h20M330 59h20M360 59h50M70 60h30M160 60h30M220 60h60M290 60h20M330 60h20M360 60h60M70 61h30M160 61h30M220 61h60M290 61h20M330 61h20M360 61h60M70 62h30M160 62h30M220 62h58M279 62h1M290 62h20M330 62h20M360 62h60M70 63h30M160 63h30M220 63h60M290 63h20M330 63h20M360 63h60M70 64h30M160 64h30M220 64h59M290 64h20M330 64h20M360 64h60M70 65h30M160 65h30M220 65h60M290 65h20M330 65h20M360 65h60M70 66h30M160 66h30M220 66h60M290 66h20M330 66h20M360 66h60M70 67h30M160 67h30M220 67h60M290 67h20M330 67h20M360 67h60M70 68h30M160 68h30M220 68h25M246 68h34M290 68h20M330 68h20M360 68h60M70 69h30M160 69h30M220 69h60M290 69h20M330 69h20M360 69h60M60 70h10M100 70h10M150 70h10M190 70h10M220 70h20M260 70h20M290 70h20M330 70h20M360 70h20M400 70h20M60 71h10M100 71h10M150 71h10M190 71h10M220 71h20M260 71h20M290 71h20M330 71h20M360 71h20M400 71h20M60 72h10M100 72h10M150 72h10M190 72h10M220 72h5M226 72h14M260 72h20M290 72h20M330 72h20M360 72h20M400 72h20M60 73h10M100 73h10M150 73h10M190 73h10M220 73h20M260 73h20M290 73h20M330 73h20M360 73h20M400 73h20M60 74h10M100 74h10M150 74h10M190 74h10M220 74h20M260 74h20M290 74h20M330 74h20M360 74h20M400 74h20M60 75h10M100 75h10M150 75h10M190 75h10M220 75h20M260 75h20M290 75h20M330 75h20M360 75h20M400 75h20M60 76h10M100 76h10M150 76h10M190 76h10M220 76h20M260 76h20M290 76h20M330 76h20M360 76h20M400 76h20M60 77h10M100 77h10M150 77h10M190 77h10M220 77h20M260 77h20M290 77h20M330 77h20M360 77h20M400 77h20M60 78h10M100 78h10M150 78h10M190 78h10M220 78h20M260 78h11M272 78h8M290 78h20M330 78h20M360 78h20M400 78h20M60 79h10M100 79h10M150 79h10M190 79h10M220 79h20M260 79h20M290 79h20M330 79h20M360 79h20M400 79h20M60 80h30M110 80h40M170 80h30M220 80h20M290 80h60M360 80h20M400 80h20M60 81h30M110 81h40M170 81h30M220 81h20M290 81h60M360 81h20M400 81h20M60 82h30M110 82h40M170 82h30M220 82h20M290 82h60M360 82h20M400 82h20M60 83h30M110 83h40M170 83h30M220 83h20M290 83h60M360 83h20M400 83h20M60 84h30M110 84h40M170 84h15M186 84h14M220 84h20M290 84h23M314 84h36M360 84h20M400 84h20M60 85h30M110 85h40M170 85h30M220 85h20M290 85h60M360 85h20M400 85h20M60 86h30M110 86h40M170 86h30M220 86h20M290 86h60M360 86h20M400 86h20M60 87h30M110 87h40M170 87h30M220 87h20M290 87h60M360 87h20M400 87h20M60 88h30M110 88h40M170 88h30M220 88h20M290 88h60M360 88h20M400 88h20M60 89h30M110 89h40M170 89h30M220 89h20M290 89h60M360 89h20M400 89h20M60 90h10M90 90h10M160 90h10M190 90h10M220 90h50M300 90h40M360 90h20M400 90h20M60 91h10M90 91h10M160 91h10M190 91h10M220 91h23M244 91h26M300 91h40M360 91h20M400 91h20M60 92h10M90 92h10M160 92h10M190 92h10M220 92h50M300 92h40M360 92h20M400 92h20M60 93h10M90 93h10M160 93h10M190 93h10M220 93h50M300 93h40M360 93h20M400 93h20M60 94h10M90 94h10M160 94h10M190 94h10M220 94h50M300 94h40M360 94h20M400 94h20M60 95h10M90 95h10M160 95h10M190 95h10M220 95h50M300 95h40M360 95h20M400 95h20M60 96h10M90 96h10M160 96h10M190 96h2M193 96h7M220 96h50M300 96h40M360 96h20M400 96h20M60 97h10M90 97h10M160 97h10M190 97h10M220 97h50M300 97h40M360 97h20M400 97h1M402 97h18M60 98h10M90 98h10M160 98h10M190 98h10M220 98h50M300 98h34M335 98h5M360 98h20M400 98h20M60 99h10M90 99h10M160 99h10M190 99h10M220 99h50M300 99h40M360 99h20M400 99h20M70 100h20M170 100h20M230 100h4M235 100h45M310 100h9M320 100h10M360 100h20M400 100h20M70 101h20M170 101h20M230 101h50M310 101h20M360 101h20M400 101h20M70 102h20M170 102h20M230 102h50M310 102h20M360 102h20M400 102h20M70 103h20M170 103h20M230 103h50M310 103h16M327 103h3M360 103h20M400 103h20M70 104h20M170 104h20M230 104h50M310 104h20M360 104h20M400 104h20M70 105h20M170 105h20M230 105h50M310 105h20M360 105h20M400 105h20M70 106h20M170 106h20M230 106h50M310 106h20M360 106h20M400 106h20M70 107h20M170 107h20M230 107h50M310 107h20M360 107h20M400 107h20M70 108h20M170 108h20M230 108h50M310 108h20M360 108h20M400 108h20M70 109h20M170 109h20M230 109h50M310 109h20M360 109h1M362 109h18M400 109h20M80 110h10M100 110h10M120 110h20M150 110h10M170 110h10M260 110h20M310 110h20M360 110h20M400 110h20M80 111h10M100 111h10M120 111h20M150 111h10M170 111h10M260 111h20M310 111h20M360 111h20M400 111h20M80 112h10M100 112h10M120 112h20M150 112h10M170 112h10M260 112h20M310 112h20M360 112h20M400 112h20M80 113h10M100 113h10M120 113h20M150 113h10M170 113h10M260 113h20M310 113h20M360 113h20M400 113h20M80 114h10M100 114h10M120 114h20M150 114h10M170 114h10M260 114h20M310 114h20M360 114h20M400 114h20M80 115h10M100 115h10M120 115h20M150 115h10M170 115h10M260 115h20M310 115h20M360 115h20M400 115h20M80 116h10M100 116h10M120 116h20M150 116h10M170 116h10M260 116h20M310 116h13M324 116h6M360 116h20M400 116h20M80 117h10M100 117h10M120 117h20M150 117h10M170 117h10M260 117h20M310 117h20M360 117h20M400 117h20M80 118h10M100 118h10M120 118h20M150 118h10M170 118h10M260 118h20M310 118h20M360 118h20M400 118h20M80 119h10M100 119h10M120 119h20M150 119h10M170 119h10M260 119h20M310 119h20M360 119h20M400 119h20M80 120h10M120 120h20M170 120h10M220 120h20M260 120h20M310 120h20M360 120h20M400 120h20M80 121h10M120 121h20M170 121h10M220 121h20M260 121h20M310 121h20M360 121h20M400 121h20M80 122h10M120 122h20M170 122h10M220 122h20M260 122h20M310 122h20M360 122h20M400 122h20M80 123h10M120 123h20M170 123h10M220 123h20M260 123h20M310 123h20M360 123h20M400 123h20M80 124h10M120 124h20M170 124h10M220 124h20M260 124h20M310 124h20M360 124h20M400 124h20M80 125h10M120 125h20M170 125h10M220 125h20M260 125h20M310 125h20M360 125h20M400 125h20M80 126h10M120 126h20M170 126h10M220 126h20M260 126h20M310 126h20M360 126h20M400 126h20M80 127h10M120 127h20M170 127h10M220 127h20M260 127h20M310 127h20M360 127h20M400 127h20M80 128h10M120 128h20M170 128h10M220 128h20M260 128h20M310 128h20M360 128h20M400 128h20M80 129h10M120 129h20M170 129h10M220 129h20M260 129h20M310 129h20M360 129h20M400 129h20M90 130h10M160 130h10M220 130h60M310 130h20M360 130h60M90 131h10M160 131h10M220 131h60M310 131h20M360 131h36M397 131h23M90 132h10M160 132h10M220 132h25M246 132h34M310 132h20M360 132h60M90 133h10M160 133h10M220 133h60M310 133h20M360 133h60M90 134h10M160 134h10M220 134h60M310 134h20M360 134h60M90 135h10M160 135h10M220 135h60M310 135h20M360 135h60M90 136h10M160 136h10M220 136h60M310 136h20M360 136h60M90 137h10M160 137h10M220 137h60M310 137h20M360 137h60M90 138h10M160 138h10M220 138h60M310 138h20M360 138h60M90 139h10M160 139h10M220 139h60M310 139h20M360 139h60M100 140h60M230 140h40M310 140h20M360 140h50M100 141h60M230 141h40M310 141h20M360 141h50M100 142h60M230 142h40M310 142h20M360 142h50M100 143h1M102 143h58M230 143h40M310 143h20M360 143h50M100 144h60M230 144h40M310 144h20M360 144h50M100 145h60M230 145h40M310 145h20M360 145h50M100 146h60M230 146h40M310 146h20M360 146h50M100 147h5M106 147h54M230 147h40M310 147h20M360 147h50M100 148h60M230 148h40M310 148h20M360 148h45M406 148h4M100 149h60M230 149h40M310 149h20M360 149h50" />
<path stroke="#fbf237" d="M278 62h1M245 68h1M185 84h1M401 97h1M326 103h1M323 116h1M245 132h1M101 143h1" />
<path stroke="#faf236" d="M279 64h1M225 72h1M243 91h1M192 96h1M234 100h1M396 131h1M105 147h1M405 148h1" />
<path stroke="#fbf336" d="M271 78h1M313 84h1M334 98h1M319 100h1M361 109h1" />
</svg>