<svg xmlns="http://www.w3.org/2000/svg" viewBox="0 -0.5 480 480" shape-rendering="crispEdges">
<metadata>Made with Pixels to Svg https://codepen.io/shshaw/pen/XbxvNj</metadata>
<path stroke="#fbf236" d="M190 50h60M260 50h20M300 50h20M340 50h40M190 51h60M260 51h20M300 51h20M340 51h10M351 51h29M190 52h60M260 52h20M300 52h20M340 52h40M190 53h60M260 53h20M300 53h20M340 53h40M190 54h60M260 54h20M300 54h20M340 54h40M190 55h60M260 55h20M300 55h20M340 55h40M190 56h60M260 56h20M300 56h20M340 56h6M347 56h33M190 57h50M241 57h9M260 57h17M278 57h2M300 57h20M340 57h40M190 58h8M199 58h31M231 58h19M260 58h20M300 58h20M340 58h40M190 59h60M260 59h20M300 59h20M340 59h40M60 60h110M190 60h20M211 60h39M260 60h20M300 60h20M330 60h60M60 61h110M190 61h60M260 61h20M300 61h20M330 61h60M60 62h110M190 62h60M260 62h20M300 62h20M330 62h60M60 63h110M190 63h60M260 63h20M300 63h20M330 63h60M60 64h110M190 64h60M260 64h20M300 64h20M330 64h60M60 65h110M190 65h60M260 65h20M300 65h20M330 65h60M60 66h110M190 66h60M260 66h20M300 66h20M330 66h22M353 66h37M60 67h110M190 67h60M260 67h20M300 67h20M330 67h60M60 68h110M190 68h60M260 68h20M300 68h20M330 68h60M60 69h110M190 69h60M260 69h20M300 69h20M330 69h60M70 70h90M210 70h20M260 70h20M300 70h20M330 70h20M370 70h20M70 71h90M210 71h20M260 71h20M300 71h20M330 71h20M370 71h20M70 72h90M210 72h20M260 72h20M300 72h20M330 72h20M370 72h20M70 73h90M210 73h20M260 73h20M300 73h20M330 73h20M370 73h20M70 74h90M210 74h20M260 74h6M267 74h13M300 74h20M330 74h20M370 74h20M70 75h90M210 75h20M260 75h20M300 75h20M330 75h20M370 75h20M70 76h90M210 76h20M260 76h20M300 76h20M330 76h20M370 76h20M70 77h90M210 77h20M260 77h20M300 77h20M330 77h20M370 77h20M70 78h90M210 78h20M260 78h20M300 78h20M330 78h20M370 78h20M70 79h90M210 79h12M223 79h7M260 79h20M300 79h20M330 79h20M370 79h20M90 80h10M110 80h10M130 80h10M210 80h20M260 80h26M287 80h11M299 80h21M330 80h20M370 80h20M90 81h10M110 81h10M130 81h10M210 81h20M260 81h60M330 81h20M370 81h20M90 82h10M110 82h10M130 82h10M210 82h20M260 82h54M315 82h5M330 82h20M370 82h20M90 83h10M110 83h10M130 83h10M210 83h20M260 83h57M318 83h2M330 83h20M370 83h20M90 84h10M110 84h10M130 84h10M210 84h20M260 84h60M330 84h20M370 84h20M90 85h10M110 85h10M130 85h10M210 85h20M260 85h60M330 85h20M370 85h20M90 86h10M110 86h10M130 86h10M210 86h20M260 86h60M330 86h20M370 86h20M90 87h10M110 87h10M130 87h10M210 87h20M260 87h60M330 87h20M370 87h20M90 88h10M110 88h10M130 88h10M210 88h20M260 88h60M330 88h20M370 88h20M90 89h10M110 89h10M130 89h10M210 89h20M260 89h60M330 89h20M370 89h20M70 90h90M210 90h20M270 90h40M330 90h20M370 90h20M70 91h90M210 91h20M270 91h40M330 91h20M370 91h20M70 92h90M210 92h20M270 92h40M330 92h20M370 92h20M70 93h90M210 93h20M270 93h40M330 93h20M370 93h20M70 94h70M141 94h19M210 94h20M270 94h40M330 94h20M370 94h20M70 95h90M210 95h20M270 95h40M330 95h16M347 95h3M370 95h20M70 96h79M150 96h10M210 96h20M270 96h40M330 96h20M370 96h20M70 97h90M210 97h20M270 97h40M330 97h20M370 97h20M70 98h90M210 98h20M270 98h40M330 98h20M370 98h20M70 99h60M131 99h29M210 99h20M270 99h40M330 99h20M370 99h20M90 100h10M130 100h10M210 100h20M280 100h20M330 100h20M370 100h20M90 101h10M130 101h10M210 101h20M280 101h20M330 101h20M370 101h20M90 102h10M130 102h10M210 102h20M280 102h20M330 102h20M370 102h20M90 103h10M130 103h10M210 103h20M280 103h20M330 103h20M370 103h20M90 104h10M130 104h10M210 104h20M280 104h20M330 104h20M371 104h19M90 105h10M130 105h10M210 105h20M280 105h20M330 105h20M370 105h20M90 106h10M130 106h10M210 106h20M280 106h20M330 106h20M370 106h20M90 107h10M130 107h10M210 107h20M280 107h20M330 107h20M370 107h20M90 108h10M130 108h10M210 108h20M280 108h20M330 108h20M370 108h20M90 109h10M130 109h10M210 109h20M280 109h20M330 109h20M370 109h20M90 110h10M130 110h10M210 110h20M280 110h20M330 110h20M370 110h20M90 111h10M130 111h10M210 111h20M280 111h20M330 111h20M370 111h20M90 112h10M130 112h10M210 112h20M280 112h20M330 112h20M370 112h20M90 113h10M130 113h10M210 113h20M280 113h20M330 113h20M370 113h20M90 114h10M130 114h10M210 114h20M280 114h10M291 114h9M330 114h20M370 114h20M90 115h10M130 115h10M210 115h20M280 115h20M330 115h20M370 115h20M90 116h10M130 116h10M210 116h20M280 116h20M330 116h20M370 116h20M90 117h10M130 117h10M210 117h20M280 117h20M330 117h20M370 117h20M90 118h10M130 118h10M210 118h20M280 118h20M330 118h1M332 118h18M370 118h20M90 119h10M130 119h10M210 119h20M280 119h20M330 119h20M370 119h20M90 120h10M130 120h10M210 120h20M280 120h20M330 120h20M370 120h20M90 121h10M130 121h10M210 121h20M280 121h20M330 121h20M370 121h20M90 122h10M130 122h10M210 122h20M280 122h20M330 122h20M370 122h20M90 123h10M130 123h10M210 123h20M280 123h20M330 123h20M370 123h20M90 124h10M130 124h10M210 124h20M280 124h20M330 124h20M370 124h20M90 125h10M130 125h10M210 125h20M280 125h20M330 125h20M370 125h20M90 126h10M130 126h10M210 126h20M280 126h20M330 126h20M370 126h20M90 127h10M130 127h10M210 127h20M280 127h20M330 127h20M370 127h20M90 128h10M130 128h10M210 128h20M280 128h20M330 128h20M370 128h20M90 129h10M130 129h10M210 129h20M280 129h20M330 129h20M370 129h20M90 130h10M130 130h10M210 130h20M280 130h20M330 130h15M346 130h44M90 131h10M130 131h10M210 131h9M220 131h10M280 131h20M330 131h60M90 132h10M130 132h10M210 132h20M280 132h20M330 132h60M90 133h10M130 133h10M210 133h20M280 133h20M330 133h60M90 134h10M130 134h10M210 134h20M280 134h20M330 134h60M90 135h10M130 135h10M210 135h20M280 135h20M330 135h60M90 136h10M130 136h10M210 136h20M280 136h20M330 136h60M90 137h10M130 137h10M210 137h20M280 137h20M330 137h60M90 138h10M130 138h10M210 138h20M280 138h20M330 138h60M90 139h10M130 139h10M210 139h20M280 139h20M330 139h60M90 140h9M130 140h10M210 140h20M280 140h20M340 140h40M90 141h10M130 141h10M210 141h20M280 141h20M340 141h40M90 142h10M130 142h10M210 142h20M280 142h20M340 142h40M90 143h10M130 143h10M210 143h20M280 143h20M340 143h40M90 144h10M130 144h10M210 144h20M280 144h20M340 144h40M90 145h10M130 145h10M210 145h20M280 145h20M340 145h40M90 146h10M130 146h10M210 146h20M280 146h20M340 146h40M90 147h10M130 147h10M210 147h20M280 147h20M340 147h40M90 148h10M130 148h10M210 148h20M280 148h20M340 148h40M90 149h10M130 149h10M210 149h20M280 149h20M340 149h40" />
<path stroke="#fbf237" d="M350 51h1M230 58h1M266 74h1M314 82h1M317 83h1M140 94h1M149 96h1M290 114h1" />
<path stroke="#fbf336" d="M346 56h1M277 57h1M352 66h1M286 80h1M298 80h1M346 95h1M130 99h1M370 104h1M331 118h1" />
<path stroke="#faf236" d="M240 57h1M198 58h1M210 60h1M222 79h1M345 130h1M219 131h1M99 140h1" />
</svg>