<svg xmlns="http://www.w3.org/2000/svg" viewBox="0 -0.5 480 480" shape-rendering="crispEdges">
<metadata>Made with Pixels to Svg https://codepen.io/shshaw/pen/XbxvNj</metadata>
<path stroke="#ffffff" d="M10 10h460M10 11h460M10 12h460M10 13h460M10 14h460M10 15h460M10 16h147M158 16h312M10 17h460M10 18h460M10 19h460M10 20h10M460 20h10M10 21h10M460 21h10M10 22h10M460 22h10M10 23h10M460 23h10M10 24h10M460 24h10M10 25h10M460 25h10M10 26h10M460 26h10M10 27h10M460 27h10M10 28h10M460 28h10M10 29h10M460 29h10M10 30h10M10 31h10M10 32h10M10 33h10M10 34h10M10 35h10M10 36h10M10 37h10M10 38h10M10 39h10M10 40h10M460 40h10M10 41h10M460 41h10M10 42h10M460 42h10M10 43h10M460 43h10M10 44h10M460 44h10M10 45h10M460 45h10M10 46h10M460 46h10M10 47h10M460 47h10M10 48h10M460 48h10M10 49h10M460 49h10M10 50h10M10 51h10M10 52h10M10 53h10M10 54h10M10 55h10M10 56h10M10 57h10M10 58h10M10 59h10M10 60h10M460 60h10M10 61h10M460 61h10M10 62h10M460 62h10M10 63h10M460 63h10M10 64h10M460 64h10M10 65h10M460 65h10M10 66h10M460 66h10M10 67h10M460 67h10M10 68h10M460 68h10M10 69h10M460 69h10M10 70h10M10 71h10M10 72h10M10 73h10M10 74h10M10 75h10M10 76h10M10 77h10M10 78h10M10 79h10M10 80h10M460 80h10M10 81h10M460 81h10M10 82h10M460 82h10M10 83h10M460 83h10M10 84h10M460 84h10M10 85h10M460 85h10M10 86h10M460 86h10M10 87h10M460 87h10M10 88h10M460 88h10M10 89h10M460 89h10M10 90h10M10 91h10M10 92h10M10 93h10M10 94h10M10 95h10M10 96h10M10 97h10M10 98h10M10 99h10M10 100h10M460 100h10M10 101h10M460 101h10M10 102h10M460 102h10M10 103h10M460 103h10M10 104h10M460 104h10M10 105h10M460 105h10M10 106h10M460 106h10M10 107h10M460 107h10M10 108h10M460 108h10M10 109h10M460 109h10M10 110h10M460 110h10M10 111h10M460 111h10M10 112h10M460 112h10M10 113h10M460 113h10M10 114h10M460 114h10M10 115h10M460 115h10M10 116h10M460 116h10M10 117h10M460 117h10M10 118h10M460 118h10M10 119h10M460 119h2M463 119h7M10 120h10M460 120h10M10 121h10M460 121h10M10 122h10M460 122h10M10 123h10M460 123h10M10 124h10M460 124h10M10 125h10M460 125h10M10 126h10M460 126h10M10 127h10M460 127h10M10 128h10M460 128h10M10 129h10M460 129h10M10 130h10M460 130h10M10 131h10M460 131h10M10 132h10M460 132h10M10 133h10M460 133h10M10 134h10M460 134h10M10 135h10M460 135h10M10 136h10M460 136h10M10 137h10M460 137h10M10 138h10M460 138h10M10 139h10M460 139h10M10 140h10M460 140h10M10 141h10M460 141h10M10 142h10M460 142h10M10 143h10M460 143h10M10 144h10M460 144h10M10 145h10M460 145h10M10 146h10M460 146h10M10 147h10M460 147h10M10 148h10M460 148h10M10 149h10M460 149h10M10 150h10M460 150h10M10 151h10M460 151h10M10 152h10M460 152h10M10 153h10M460 153h10M10 154h10M460 154h10M10 155h10M460 155h10M10 156h10M460 156h10M10 157h10M460 157h10M10 158h10M460 158h10M10 159h10M460 159h10M10 160h10M460 160h10M10 161h10M460 161h10M10 162h10M460 162h10M10 163h10M460 163h10M10 164h10M460 164h10M10 165h10M460 165h10M10 166h10M460 166h10M10 167h10M460 167h10M10 168h10M460 168h10M10 169h10M460 169h10M10 170h10M460 170h10M10 171h10M460 171h10M10 172h10M460 172h10M10 173h10M460 173h10M10 174h10M460 174h10M10 175h10M460 175h10M10 176h10M460 176h10M10 177h10M460 177h10M10 178h10M460 178h10M10 179h10M460 179h10M10 180h10M460 180h10M10 181h10M460 181h10M10 182h10M460 182h10M10 183h10M460 183h10M10 184h10M460 184h10M10 185h10M460 185h10M10 186h10M460 186h10M10 187h10M460 187h10M10 188h10M460 188h10M10 189h10M460 189h10M10 190h10M460 190h10M10 191h10M460 191h10M10 192h10M460 192h10M10 193h10M460 193h10M10 194h10M460 194h10M10 195h10M460 195h10M10 196h10M460 196h10M10 197h10M460 197h10M10 198h10M460 198h10M10 199h10M460 199h10M10 200h10M460 200h10M10 201h10M460 201h10M10 202h10M460 202h10M10 203h10M460 203h10M10 204h10M460 204h10M10 205h10M460 205h10M10 206h10M460 206h10M10 207h10M460 207h10M10 208h10M460 208h10M10 209h10M460 209h10M10 210h10M460 210h10M10 211h10M460 211h10M10 212h10M460 212h10M10 213h10M460 213h10M10 214h10M460 214h10M10 215h8M19 215h1M460 215h10M10 216h10M460 216h10M10 217h10M460 217h10M10 218h10M460 218h10M10 219h10M460 219h10M10 220h10M460 220h10M10 221h10M460 221h10M10 222h10M460 222h10M10 223h10M460 223h10M10 224h10M460 224h10M10 225h10M460 225h10M10 226h10M460 226h10M10 227h10M460 227h10M10 228h10M460 228h10M10 229h10M460 229h10M10 230h10M460 230h10M10 231h10M460 231h10M10 232h10M460 232h7M468 232h2M10 233h10M460 233h10M10 234h10M460 234h10M10 235h10M460 235h10M10 236h10M460 236h10M10 237h10M460 237h10M10 238h10M460 238h10M10 239h10M460 239h10M10 240h10M460 240h10M10 241h10M460 241h10M10 242h10M460 242h10M10 243h10M460 243h10M10 244h10M460 244h10M10 245h10M460 245h10M10 246h10M460 246h10M10 247h10M460 247h10M10 248h10M460 248h10M10 249h10M460 249h10M10 250h10M460 250h10M10 251h10M460 251h10M10 252h10M460 252h10M10 253h10M460 253h10M10 254h10M460 254h10M10 255h10M460 255h10M10 256h10M460 256h10M10 257h10M460 257h10M10 258h10M460 258h10M10 259h10M460 259h10M10 260h10M460 260h10M10 261h10M460 261h10M10 262h10M460 262h10M10 263h10M460 263h10M10 264h10M460 264h10M10 265h10M460 265h10M10 266h10M460 266h10M10 267h10M460 267h10M10 268h10M460 268h10M10 269h10M460 269h10M10 270h10M460 270h10M10 271h10M460 271h10M10 272h10M460 272h10M10 273h10M460 273h10M10 274h10M460 274h10M10 275h10M460 275h10M10 276h10M460 276h10M10 277h8M19 277h1M460 277h10M10 278h10M460 278h10M10 279h10M460 279h10M10 280h10M460 280h10M10 281h10M460 281h10M10 282h10M460 282h10M10 283h10M460 283h10M10 284h10M460 284h10M10 285h10M460 285h10M10 286h10M460 286h10M10 287h10M460 287h10M10 288h10M460 288h10M10 289h10M460 289h10M10 290h10M460 290h10M10 291h10M460 291h10M10 292h10M460 292h10M10 293h10M460 293h10M10 294h10M460 294h10M10 295h10M460 295h10M10 296h10M460 296h10M10 297h10M460 297h10M10 298h10M460 298h10M10 299h10M460 299h10M10 300h10M460 300h10M10 301h10M460 301h10M10 302h10M460 302h10M10 303h10M460 303h10M10 304h10M460 304h10M10 305h10M460 305h10M10 306h10M460 306h10M10 307h10M460 307h10M10 308h10M460 308h7M468 308h2M10 309h10M460 309h10M10 310h10M460 310h10M10 311h10M460 311h10M10 312h10M460 312h10M10 313h10M460 313h10M10 314h10M460 314h10M10 315h10M460 315h10M10 316h10M460 316h10M10 317h10M460 317h10M10 318h10M460 318h10M10 319h10M460 319h10M10 320h10M460 320h10M10 321h10M460 321h10M10 322h10M460 322h10M10 323h10M460 323h10M10 324h10M460 324h10M10 325h10M460 325h10M10 326h10M460 326h10M10 327h10M460 327h10M10 328h10M460 328h10M10 329h10M460 329h10M10 330h10M460 330h10M10 331h10M460 331h10M10 332h10M461 332h9M10 333h10M460 333h10M10 334h10M460 334h10M10 335h10M460 335h10M10 336h10M460 336h10M10 337h10M460 337h10M10 338h10M460 338h10M10 339h10M460 339h10M10 340h10M460 340h10M10 341h10M460 341h10M10 342h10M460 342h10M10 343h10M460 343h10M10 344h10M460 344h10M10 345h10M460 345h10M10 346h10M460 346h10M10 347h10M460 347h10M10 348h10M460 348h10M10 349h10M460 349h10M10 350h10M460 350h10M10 351h10M460 351h10M10 352h10M460 352h10M10 353h10M460 353h10M10 354h10M460 354h10M10 355h10M460 355h10M10 356h10M460 356h10M10 357h10M460 357h10M10 358h10M460 358h10M10 359h10M460 359h10M10 360h10M460 360h10M10 361h10M460 361h10M10 362h10M460 362h10M10 363h10M460 363h10M10 364h10M460 364h10M10 365h10M460 365h10M10 366h10M460 366h10M10 367h10M460 367h10M10 368h10M460 368h10M10 369h10M460 369h10M10 370h10M460 370h10M10 371h10M460 371h10M10 372h10M460 372h10M10 373h10M460 373h10M10 374h10M460 374h10M10 375h10M460 375h10M10 376h10M460 376h10M10 377h10M460 377h10M10 378h10M460 378h10M10 379h10M460 379h10M460 380h10M460 381h10M460 382h10M460 383h10M460 384h10M460 385h10M460 386h10M460 387h10M460 388h10M460 389h10M10 390h10M460 390h10M10 391h10M460 391h10M10 392h10M460 392h6M467 392h3M10 393h10M460 393h10M10 394h10M460 394h10M10 395h10M460 395h10M10 396h10M460 396h10M10 397h10M460 397h10M10 398h10M460 398h10M10 399h10M460 399h10M460 400h10M460 401h10M460 402h10M460 403h10M460 404h10M460 405h10M460 406h10M460 407h10M460 408h10M460 409h10M10 410h10M460 410h10M10 411h10M460 411h10M10 412h10M460 412h10M10 413h10M460 413h10M10 414h10M460 414h10M10 415h10M460 415h10M10 416h10M460 416h10M10 417h10M460 417h10M10 418h9M460 418h10M10 419h10M460 419h10M460 420h10M460 421h10M460 422h10M460 423h10M460 424h10M460 425h10M460 426h10M460 427h10M460 428h10M460 429h10M10 430h10M460 430h5M466 430h4M10 431h10M460 431h10M10 432h10M460 432h10M10 433h10M460 433h10M10 434h10M460 434h10M10 435h10M460 435h10M10 436h10M460 436h10M10 437h10M460 437h10M10 438h10M460 438h10M10 439h10M460 439h10M460 440h10M460 441h10M460 442h10M460 443h10M461 444h9M460 445h10M460 446h10M460 447h10M460 448h4M465 448h5M460 449h10M10 450h10M460 450h10M10 451h10M460 451h10M10 452h10M460 452h10M10 453h10M460 453h10M10 454h10M460 454h10M10 455h10M460 455h10M10 456h10M460 456h10M10 457h10M460 457h10M10 458h10M460 458h10M10 459h10M460 459h8M469 459h1M10 460h460M10 461h450M461 461h9M10 462h460M10 463h460M10 464h148M159 464h140M300 464h67M368 464h102M10 465h445M456 465h14M10 466h460M10 467h460M10 468h168M179 468h291M10 469h57M68 469h402" />
<path stroke="#fffeff" d="M157 16h1M460 332h1M466 392h1M19 418h1M460 444h1M460 461h1M367 464h1M178 468h1M67 469h1" />
<path stroke="#feffff" d="M462 119h1M18 215h1M18 277h1M465 430h1M468 459h1" />
<path stroke="#fffffe" d="M467 232h1M467 308h1M464 448h1M158 464h1M299 464h1M455 465h1" />
</svg>