<svg xmlns="http://www.w3.org/2000/svg" viewBox="0 -0.5 480 480" shape-rendering="crispEdges">
<metadata>Made with Pixels to Svg https://codepen.io/shshaw/pen/XbxvNj</metadata>
<path stroke="#ff0033" d="M0 0h228M229 0h120M350 0h130M0 1h161M162 1h271M434 1h46M0 2h81M82 2h398M0 3h480M0 4h480M0 5h480M0 6h286M287 6h193M0 7h480M0 8h256M257 8h223M0 9h480M0 10h10M470 10h10M0 11h10M470 11h10M0 12h10M470 12h10M0 13h10M470 13h10M0 14h10M470 14h10M0 15h10M470 15h10M0 16h10M470 16h10M0 17h10M470 17h10M0 18h10M470 18h10M0 19h10M470 19h10M0 20h10M20 20h440M470 20h10M0 21h10M20 21h440M470 21h10M0 22h10M20 22h440M470 22h10M0 23h10M20 23h440M470 23h10M0 24h10M20 24h440M470 24h10M0 25h10M20 25h216M237 25h19M257 25h203M470 25h10M0 26h10M20 26h440M470 26h10M0 27h10M20 27h440M470 27h10M0 28h10M20 28h440M470 28h10M0 29h10M20 29h134M155 29h305M470 29h10M0 30h10M20 30h460M0 31h10M20 31h460M0 32h10M20 32h287M308 32h172M0 33h10M20 33h460M0 34h10M20 34h45M66 34h414M0 35h10M20 35h460M0 36h10M20 36h26M47 36h433M0 37h10M20 37h460M0 38h10M20 38h293M314 38h70M385 38h95M0 39h10M20 39h395M416 39h64M0 40h10M20 40h30M70 40h20M110 40h30M160 40h20M220 40h20M290 40h20M330 40h40M420 40h40M470 40h10M0 41h10M20 41h30M70 41h20M110 41h30M160 41h20M220 41h20M290 41h20M330 41h40M420 41h40M470 41h10M0 42h10M20 42h30M70 42h20M110 42h17M128 42h12M160 42h20M220 42h20M290 42h9M300 42h10M330 42h40M420 42h40M470 42h10M0 43h10M20 43h30M70 43h20M110 43h30M160 43h20M220 43h20M290 43h20M330 43h40M420 43h40M470 43h10M0 44h10M20 44h30M70 44h20M110 44h30M160 44h20M220 44h20M290 44h20M330 44h40M420 44h40M470 44h10M0 45h10M21 45h29M70 45h20M110 45h4M115 45h25M160 45h20M220 45h20M290 45h20M330 45h40M420 45h40M470 45h10M0 46h10M20 46h30M70 46h20M110 46h30M160 46h20M220 46h20M290 46h20M330 46h40M420 46h40M470 46h10M0 47h10M20 47h30M70 47h20M110 47h30M160 47h20M220 47h20M290 47h20M330 47h40M420 47h40M470 47h10M0 48h10M20 48h30M70 48h20M110 48h30M160 48h20M220 48h20M290 48h20M330 48h40M420 48h40M470 48h10M0 49h10M20 49h30M70 49h20M110 49h30M160 49h20M220 49h20M290 49h20M330 49h40M420 49h40M470 49h10M0 50h10M20 50h30M70 50h20M110 50h30M160 50h10M230 50h10M300 50h10M330 50h40M430 50h43M474 50h6M0 51h10M20 51h30M70 51h20M110 51h30M160 51h10M230 51h10M300 51h10M330 51h40M430 51h50M0 52h10M20 52h30M70 52h20M110 52h30M160 52h10M230 52h10M300 52h10M330 52h40M430 52h50M0 53h10M20 53h30M70 53h20M110 53h30M160 53h10M230 53h10M300 53h10M330 53h40M430 53h50M0 54h10M20 54h30M70 54h20M110 54h30M160 54h10M230 54h10M300 54h10M330 54h40M430 54h50M0 55h10M20 55h30M70 55h7M78 55h12M110 55h30M160 55h10M230 55h3M234 55h6M300 55h10M330 55h40M430 55h50M0 56h10M20 56h30M70 56h20M110 56h17M128 56h12M160 56h10M230 56h10M300 56h10M330 56h40M430 56h50M0 57h10M20 57h30M70 57h20M110 57h30M160 57h10M230 57h10M300 57h10M330 57h40M430 57h50M0 58h10M20 58h30M70 58h20M110 58h30M160 58h10M230 58h10M300 58h10M330 58h40M430 58h50M0 59h10M20 59h30M70 59h20M110 59h30M160 59h10M230 59h10M300 59h10M330 59h40M430 59h50M0 60h9M20 60h30M70 60h20M110 60h30M160 60h10M190 60h20M230 60h10M260 60h20M300 60h10M330 60h40M390 60h20M430 60h20M451 60h9M470 60h10M0 61h10M20 61h30M70 61h20M110 61h30M160 61h10M190 61h20M230 61h10M260 61h20M300 61h10M330 61h20M351 61h19M390 61h20M430 61h30M470 61h10M0 62h10M20 62h30M70 62h20M110 62h30M160 62h10M190 62h20M230 62h10M260 62h20M300 62h10M330 62h40M390 62h20M430 62h30M470 62h10M0 63h10M20 63h30M70 63h20M110 63h30M160 63h10M190 63h20M230 63h10M260 63h20M300 63h10M330 63h40M390 63h20M430 63h30M470 63h10M0 64h10M20 64h30M70 64h20M110 64h30M160 64h10M190 64h20M230 64h10M260 64h20M300 64h10M330 64h40M390 64h20M430 64h30M470 64h10M0 65h10M20 65h30M70 65h20M110 65h25M136 65h4M160 65h10M190 65h20M230 65h10M260 65h20M300 65h10M330 65h40M390 65h20M430 65h30M470 65h10M0 66h10M20 66h30M70 66h20M110 66h30M160 66h10M190 66h20M230 66h10M260 66h20M300 66h10M330 66h40M390 66h20M430 66h30M470 66h10M0 67h10M20 67h30M70 67h20M110 67h30M160 67h10M190 67h20M230 67h10M260 67h20M300 67h10M330 67h40M390 67h20M430 67h30M470 67h10M0 68h10M20 68h30M70 68h20M110 68h30M160 68h10M190 68h20M230 68h10M260 68h20M300 68h10M330 68h40M390 68h20M430 68h19M450 68h10M470 68h10M0 69h10M20 69h30M70 69h20M110 69h30M160 69h10M190 69h20M230 69h10M260 69h20M300 69h10M330 69h40M390 69h20M430 69h30M470 69h10M0 70h10M20 70h30M70 70h20M110 70h30M160 70h10M190 70h20M230 70h10M260 70h20M300 70h10M330 70h40M390 70h20M430 70h50M0 71h10M20 71h30M70 71h20M110 71h30M160 71h10M190 71h20M230 71h10M260 71h20M300 71h10M330 71h40M390 71h20M430 71h50M0 72h10M20 72h30M70 72h20M110 72h30M160 72h10M190 72h20M230 72h10M260 72h20M300 72h10M330 72h40M390 72h20M430 72h45M476 72h4M0 73h10M20 73h30M70 73h20M110 73h30M160 73h10M190 73h12M203 73h7M230 73h10M260 73h20M300 73h10M330 73h40M390 73h20M430 73h50M0 74h10M20 74h30M70 74h20M110 74h30M160 74h10M190 74h20M230 74h10M260 74h20M300 74h10M330 74h40M390 74h20M430 74h50M0 75h10M20 75h30M70 75h20M110 75h30M160 75h10M190 75h20M230 75h10M260 75h20M300 75h10M330 75h40M390 75h20M430 75h50M0 76h10M20 76h30M70 76h20M110 76h30M160 76h10M190 76h20M230 76h10M260 76h20M300 76h10M330 76h40M390 76h13M404 76h6M430 76h50M0 77h10M20 77h30M70 77h20M110 77h30M160 77h10M190 77h20M230 77h10M260 77h20M300 77h10M330 77h40M390 77h20M430 77h50M0 78h10M20 78h30M70 78h20M110 78h30M160 78h10M190 78h20M230 78h10M260 78h20M300 78h10M330 78h40M390 78h20M430 78h50M0 79h10M20 79h30M70 79h20M110 79h30M160 79h10M190 79h20M230 79h10M260 79h20M300 79h10M330 79h25M356 79h14M390 79h20M430 79h15M446 79h34M0 80h10M20 80h40M80 80h10M120 80h10M150 80h20M190 80h20M230 80h10M300 80h10M330 80h40M390 80h20M430 80h30M470 80h10M0 81h10M20 81h40M80 81h10M120 81h10M150 81h20M190 81h20M230 81h10M300 81h10M330 81h40M390 81h20M430 81h30M470 81h10M0 82h10M20 82h40M80 82h10M120 82h10M150 82h20M190 82h20M230 82h10M300 82h4M305 82h5M330 82h40M390 82h20M430 82h30M470 82h10M0 83h10M20 83h40M80 83h10M120 83h10M150 83h20M190 83h20M230 83h10M300 83h10M330 83h40M390 83h20M430 83h30M470 83h10M0 84h10M20 84h40M80 84h10M120 84h10M150 84h20M190 84h20M230 84h10M300 84h10M330 84h40M390 84h20M430 84h30M470 84h10M0 85h10M20 85h40M80 85h10M120 85h10M150 85h20M190 85h20M230 85h10M300 85h10M330 85h40M390 85h20M430 85h22M453 85h7M470 85h10M0 86h10M20 86h40M80 86h10M120 86h10M150 86h2M153 86h17M190 86h14M205 86h5M230 86h10M300 86h10M330 86h40M390 86h20M430 86h30M470 86h10M0 87h10M20 87h40M80 87h10M120 87h10M150 87h20M190 87h20M230 87h10M300 87h10M330 87h40M390 87h20M430 87h30M470 87h10M0 88h10M20 88h40M80 88h10M120 88h10M150 88h20M190 88h20M230 88h10M300 88h10M330 88h40M390 88h20M430 88h30M470 88h10M0 89h10M20 89h26M47 89h13M80 89h10M120 89h10M150 89h20M190 89h20M230 89h10M300 89h10M330 89h40M390 89h20M430 89h30M470 89h10M0 90h10M20 90h20M41 90h19M80 90h10M120 90h10M150 90h20M190 90h20M230 90h10M290 90h20M330 90h40M390 90h20M430 90h50M0 91h10M20 91h40M80 91h10M120 91h10M150 91h20M190 91h20M230 91h10M290 91h20M330 91h40M390 91h20M430 91h50M0 92h10M20 92h40M80 92h10M120 92h10M150 92h20M190 92h20M230 92h10M290 92h20M330 92h40M390 92h20M430 92h50M0 93h10M20 93h40M80 93h10M120 93h10M150 93h20M190 93h20M230 93h10M290 93h20M330 93h40M390 93h20M430 93h50M0 94h10M20 94h40M80 94h10M120 94h10M150 94h20M190 94h20M230 94h10M290 94h20M330 94h40M390 94h20M430 94h50M0 95h10M20 95h40M80 95h10M120 95h10M150 95h20M190 95h20M230 95h2M233 95h7M290 95h20M330 95h40M390 95h20M430 95h50M0 96h10M20 96h40M80 96h10M120 96h10M150 96h20M190 96h20M230 96h10M290 96h20M330 96h40M390 96h20M430 96h50M0 97h10M20 97h40M80 97h10M120 97h10M150 97h20M190 97h20M230 97h10M290 97h20M330 97h40M390 97h20M430 97h50M0 98h10M20 98h40M80 98h10M120 98h10M150 98h20M190 98h20M230 98h10M290 98h20M330 98h40M390 98h20M430 98h50M0 99h10M20 99h40M80 99h10M120 99h10M150 99h20M190 99h20M230 99h10M290 99h20M330 99h40M390 99h20M430 99h50M0 100h10M20 100h40M80 100h10M120 100h10M150 100h20M190 100h20M230 100h10M260 100h20M300 100h10M330 100h40M390 100h20M430 100h30M470 100h10M0 101h10M20 101h40M80 101h10M120 101h10M150 101h20M190 101h20M230 101h10M260 101h20M300 101h10M330 101h40M390 101h20M430 101h30M470 101h10M0 102h10M20 102h33M54 102h6M80 102h10M120 102h10M150 102h20M190 102h20M230 102h10M260 102h20M300 102h10M330 102h40M390 102h20M430 102h30M470 102h10M0 103h10M20 103h40M80 103h10M120 103h10M150 103h20M190 103h20M230 103h10M260 103h20M300 103h10M330 103h40M390 103h20M430 103h17M448 103h12M470 103h10M0 104h10M20 104h40M80 104h10M120 104h10M150 104h20M190 104h15M206 104h4M230 104h10M260 104h20M300 104h10M330 104h40M390 104h20M430 104h30M470 104h10M0 105h10M20 105h40M80 105h10M120 105h10M150 105h20M190 105h20M230 105h10M260 105h20M300 105h10M330 105h40M390 105h20M430 105h30M470 105h10M0 106h10M20 106h40M80 106h10M120 106h10M150 106h20M190 106h20M230 106h10M260 106h20M300 106h10M330 106h22M353 106h17M390 106h20M430 106h30M470 106h10M0 107h10M20 107h40M80 107h10M120 107h10M150 107h20M190 107h20M230 107h10M260 107h20M300 107h10M330 107h40M390 107h20M430 107h30M470 107h10M0 108h10M20 108h40M80 108h10M120 108h10M150 108h20M190 108h20M230 108h10M260 108h20M300 108h10M330 108h40M390 108h20M430 108h30M470 108h10M0 109h10M20 109h40M80 109h10M120 109h10M150 109h20M190 109h20M230 109h10M260 109h20M300 109h10M330 109h40M390 109h20M430 109h30M470 109h10M0 110h10M20 110h40M100 110h10M150 110h20M190 110h20M230 110h10M260 110h20M300 110h10M330 110h27M358 110h12M390 110h20M430 110h30M470 110h10M0 111h10M20 111h40M100 111h10M150 111h20M190 111h20M230 111h10M260 111h20M300 111h10M330 111h40M390 111h20M430 111h30M470 111h10M0 112h10M20 112h40M100 112h10M150 112h20M190 112h20M230 112h10M260 112h20M300 112h10M330 112h40M390 112h20M430 112h30M470 112h10M0 113h10M20 113h40M100 113h10M150 113h20M190 113h20M230 113h10M260 113h20M300 113h10M330 113h40M390 113h20M430 113h30M470 113h10M0 114h10M20 114h40M100 114h10M150 114h20M190 114h20M230 114h10M260 114h20M300 114h10M330 114h40M390 114h20M430 114h30M470 114h10M0 115h10M20 115h40M100 115h10M150 115h20M190 115h20M230 115h10M260 115h20M300 115h10M330 115h40M390 115h20M430 115h30M470 115h10M0 116h10M20 116h40M100 116h10M150 116h20M190 116h20M230 116h10M260 116h20M300 116h10M330 116h40M390 116h20M430 116h30M470 116h10M0 117h10M20 117h40M100 117h10M150 117h20M190 117h20M230 117h10M260 117h20M300 117h10M330 117h40M390 117h20M430 117h30M470 117h10M0 118h10M20 118h40M100 118h10M150 118h20M190 118h20M230 118h10M260 118h20M300 118h10M330 118h40M390 118h20M430 118h30M470 118h10M0 119h10M20 119h40M100 119h10M150 119h20M190 119h20M230 119h10M260 119h20M300 119h10M330 119h40M390 119h20M430 119h30M470 119h10M0 120h10M20 120h50M100 120h10M140 120h30M230 120h10M261 120h19M300 120h10M360 120h10M430 120h30M470 120h10M0 121h10M20 121h50M100 121h10M140 121h30M230 121h10M260 121h20M300 121h10M360 121h10M430 121h30M470 121h10M0 122h10M20 122h50M100 122h10M140 122h30M230 122h10M260 122h20M300 122h10M360 122h10M430 122h30M470 122h10M0 123h10M20 123h50M100 123h10M140 123h30M230 123h10M260 123h20M300 123h10M360 123h10M430 123h30M470 123h10M0 124h10M20 124h50M100 124h10M140 124h30M230 124h10M260 124h20M300 124h10M360 124h10M430 124h30M470 124h10M0 125h10M20 125h50M100 125h10M140 125h30M230 125h10M260 125h20M300 125h10M360 125h10M430 125h16M447 125h13M470 125h10M0 126h10M20 126h50M100 126h10M140 126h30M230 126h10M260 126h20M300 126h10M360 126h10M430 126h30M470 126h10M0 127h10M20 127h50M100 127h10M140 127h30M230 127h10M260 127h20M300 127h10M360 127h10M430 127h30M470 127h10M0 128h10M20 128h50M100 128h10M140 128h30M230 128h10M260 128h20M300 128h10M360 128h10M430 128h30M470 128h10M0 129h10M20 129h50M100 129h10M140 129h30M230 129h10M260 129h20M300 129h10M360 129h10M430 129h30M470 129h10M0 130h10M20 130h50M90 130h30M140 130h40M220 130h20M260 130h11M272 130h8M300 130h10M360 130h10M420 130h40M470 130h10M0 131h10M20 131h50M90 131h30M140 131h40M220 131h20M260 131h20M300 131h10M360 131h10M420 131h40M470 131h10M0 132h10M20 132h50M90 132h30M140 132h40M220 132h20M260 132h20M300 132h10M360 132h10M420 132h40M470 132h10M0 133h10M20 133h50M90 133h30M140 133h40M220 133h20M260 133h20M300 133h10M360 133h10M420 133h40M470 133h10M0 134h10M20 134h50M90 134h30M140 134h40M220 134h20M260 134h20M300 134h10M360 134h10M420 134h40M470 134h10M0 135h10M20 135h4M25 135h45M90 135h30M140 135h40M220 135h20M260 135h20M300 135h10M360 135h10M420 135h40M470 135h10M0 136h10M20 136h50M90 136h30M140 136h40M220 136h20M260 136h20M300 136h10M360 136h3M364 136h6M420 136h40M470 136h10M0 137h10M20 137h50M90 137h30M140 137h40M220 137h20M260 137h17M278 137h2M300 137h10M360 137h10M420 137h40M470 137h10M0 138h10M20 138h50M90 138h30M140 138h40M220 138h20M260 138h20M300 138h10M360 138h10M420 138h40M470 138h10M0 139h10M20 139h50M90 139h30M140 139h40M220 139h20M260 139h20M300 139h10M360 139h10M420 139h40M470 139h10M0 140h10M20 140h368M389 140h71M470 140h10M0 141h10M21 141h439M470 141h10M0 142h10M20 142h440M470 142h10M0 143h10M20 143h440M470 143h10M0 144h10M20 144h440M470 144h10M0 145h10M20 145h440M470 145h10M0 146h10M20 146h172M193 146h267M470 146h10M0 147h10M20 147h440M470 147h10M0 148h10M20 148h440M470 148h10M0 149h10M20 149h55M76 149h258M335 149h125M470 149h10M0 150h10M20 150h170M220 150h80M330 150h130M470 150h10M0 151h10M20 151h170M220 151h11M232 151h68M330 151h130M470 151h10M0 152h10M20 152h170M220 152h80M330 152h130M470 152h10M0 153h10M20 153h170M220 153h80M330 153h130M470 153h10M0 154h10M20 154h170M220 154h80M330 154h130M470 154h10M0 155h10M20 155h170M220 155h80M330 155h130M470 155h10M0 156h10M20 156h90M111 156h79M220 156h80M330 156h130M470 156h10M0 157h10M20 157h170M220 157h80M330 157h130M470 157h10M0 158h10M20 158h165M186 158h4M220 158h80M330 158h130M470 158h10M0 159h10M20 159h94M115 159h75M220 159h10M231 159h69M330 159h130M470 159h10M0 160h10M20 160h160M190 160h30M230 160h60M300 160h30M340 160h80M430 160h30M470 160h10M0 161h10M20 161h160M190 161h30M230 161h60M300 161h30M340 161h80M430 161h30M470 161h10M0 162h10M20 162h160M190 162h30M230 162h60M300 162h30M340 162h80M430 162h30M470 162h10M0 163h10M20 163h160M190 163h30M230 163h60M300 163h30M340 163h80M430 163h30M470 163h10M0 164h10M20 164h160M190 164h30M230 164h60M300 164h30M340 164h80M430 164h30M470 164h10M0 165h10M20 165h108M129 165h51M190 165h30M230 165h60M300 165h30M340 165h80M430 165h30M470 165h10M0 166h10M20 166h113M134 166h46M190 166h30M230 166h60M300 166h30M340 166h80M430 166h30M470 166h10M0 167h10M20 167h160M190 167h30M230 167h60M300 167h30M340 167h80M430 167h30M470 167h10M0 168h10M20 168h160M190 168h30M231 168h59M300 168h30M340 168h80M430 168h30M470 168h10M0 169h10M20 169h160M190 169h30M230 169h33M264 169h26M300 169h30M340 169h80M430 169h25M456 169h4M470 169h10M0 170h10M20 170h120M150 170h20M180 170h20M210 170h20M240 170h50M300 170h30M340 170h80M430 170h30M470 170h10M0 171h10M20 171h120M150 171h20M180 171h20M210 171h20M240 171h50M300 171h6M307 171h23M340 171h80M430 171h30M470 171h10M0 172h10M20 172h120M150 172h20M180 172h20M210 172h20M240 172h50M300 172h5M306 172h24M340 172h36M377 172h31M409 172h11M430 172h30M470 172h10M0 173h10M20 173h120M150 173h20M180 173h20M210 173h20M240 173h50M300 173h30M340 173h80M430 173h30M470 173h10M0 174h10M20 174h120M150 174h20M180 174h20M210 174h20M240 174h50M300 174h30M340 174h80M430 174h30M470 174h10M0 175h10M20 175h36M57 175h83M150 175h20M180 175h20M210 175h20M240 175h50M300 175h30M340 175h80M430 175h30M470 175h10M0 176h3M4 176h6M20 176h120M150 176h20M180 176h20M210 176h20M240 176h18M259 176h31M300 176h30M340 176h80M430 176h30M470 176h10M0 177h10M20 177h120M150 177h20M180 177h20M210 177h20M240 177h50M300 177h30M340 177h80M430 177h30M470 177h10M0 178h10M20 178h120M150 178h20M180 178h20M210 178h20M240 178h50M300 178h30M340 178h39M380 178h40M430 178h30M470 178h10M0 179h10M20 179h120M150 179h20M180 179h20M210 179h20M240 179h50M300 179h30M340 179h80M430 179h30M470 179h10M0 180h10M20 180h50M90 180h10M120 180h10M140 180h40M190 180h30M230 180h60M300 180h30M340 180h60M430 180h30M470 180h10M0 181h10M20 181h50M90 181h10M120 181h10M140 181h40M190 181h30M230 181h60M300 181h30M340 181h60M430 181h30M470 181h10M0 182h10M20 182h50M90 182h10M120 182h10M140 182h40M190 182h30M230 182h60M300 182h14M315 182h15M340 182h60M430 182h30M470 182h10M0 183h10M20 183h50M90 183h2M93 183h7M120 183h10M140 183h40M190 183h30M230 183h60M300 183h30M340 183h60M430 183h30M470 183h10M0 184h10M20 184h50M90 184h10M120 184h10M140 184h40M190 184h30M230 184h60M300 184h30M340 184h60M430 184h30M470 184h10M0 185h10M20 185h50M90 185h10M120 185h10M140 185h40M190 185h30M230 185h60M300 185h30M340 185h60M430 185h30M470 185h10M0 186h10M20 186h50M90 186h10M120 186h10M140 186h40M190 186h30M230 186h60M300 186h30M340 186h60M430 186h30M470 186h10M0 187h10M20 187h50M90 187h10M120 187h10M140 187h40M190 187h30M230 187h60M300 187h30M340 187h60M430 187h30M470 187h7M478 187h2M0 188h10M20 188h50M90 188h10M120 188h10M140 188h40M190 188h30M230 188h37M268 188h22M300 188h30M340 188h60M430 188h30M470 188h10M0 189h10M20 189h50M90 189h10M120 189h10M140 189h40M190 189h22M213 189h7M230 189h60M300 189h30M340 189h15M356 189h44M430 189h30M470 189h10M0 190h10M20 190h40M70 190h20M100 190h20M130 190h1M132 190h58M220 190h60M350 190h50M410 190h50M470 190h10M0 191h10M20 191h40M70 191h20M100 191h20M130 191h60M220 191h60M350 191h50M410 191h50M470 191h10M0 192h10M20 192h40M70 192h20M100 192h20M130 192h60M220 192h60M350 192h50M410 192h50M470 192h10M0 193h10M20 193h40M70 193h20M100 193h20M130 193h60M220 193h60M350 193h50M410 193h50M470 193h10M0 194h10M20 194h40M70 194h20M100 194h20M130 194h60M220 194h60M350 194h50M410 194h50M470 194h10M0 195h10M20 195h40M70 195h20M100 195h20M130 195h60M220 195h60M350 195h50M410 195h50M470 195h10M0 196h10M20 196h40M70 196h20M100 196h20M130 196h60M220 196h60M350 196h50M410 196h50M470 196h10M0 197h10M20 197h40M70 197h20M100 197h20M130 197h34M165 197h25M220 197h60M350 197h50M410 197h50M470 197h10M0 198h10M20 198h40M70 198h20M100 198h20M130 198h60M220 198h60M350 198h50M410 198h50M470 198h10M0 199h10M20 199h40M70 199h20M100 199h20M130 199h60M220 199h60M350 199h50M410 199h50M470 199h10M0 200h10M20 200h40M70 200h50M130 200h150M350 200h30M410 200h50M470 200h10M0 201h10M20 201h40M70 201h50M130 201h150M350 201h30M410 201h50M470 201h10M0 202h10M20 202h40M70 202h50M130 202h150M350 202h30M410 202h50M470 202h10M0 203h10M20 203h40M70 203h50M130 203h150M350 203h30M410 203h50M470 203h10M0 204h10M20 204h40M70 204h50M130 204h150M350 204h30M410 204h50M470 204h10M0 205h10M20 205h40M70 205h50M130 205h150M350 205h30M410 205h50M470 205h10M0 206h10M20 206h40M70 206h50M130 206h150M350 206h30M410 206h50M470 206h10M0 207h10M20 207h40M70 207h50M130 207h150M350 207h22M373 207h7M410 207h4M415 207h45M470 207h10M0 208h10M20 208h40M70 208h50M130 208h150M350 208h30M410 208h50M470 208h10M0 209h10M20 209h40M70 209h50M130 209h150M350 209h30M410 209h50M470 209h10M0 210h10M20 210h50M80 210h30M120 210h100M230 210h10M250 210h15M266 210h114M390 210h70M470 210h4M475 210h5M0 211h10M20 211h50M80 211h30M120 211h73M194 211h26M230 211h10M250 211h130M390 211h70M470 211h10M0 212h10M20 212h50M80 212h30M120 212h100M230 212h10M250 212h130M390 212h70M470 212h10M0 213h10M20 213h50M80 213h30M120 213h100M230 213h10M250 213h130M390 213h70M470 213h10M0 214h10M20 214h50M80 214h30M120 214h100M230 214h10M250 214h130M390 214h70M470 214h10M0 215h10M20 215h50M80 215h30M120 215h90M211 215h9M230 215h10M250 215h130M390 215h70M470 215h10M0 216h10M20 216h50M80 216h30M120 216h100M230 216h10M250 216h130M390 216h70M470 216h10M0 217h10M20 217h50M80 217h30M120 217h100M230 217h10M250 217h130M390 217h70M470 217h10M0 218h10M20 218h50M80 218h30M120 218h100M230 218h10M250 218h130M390 218h70M470 218h10M0 219h10M20 219h50M80 219h30M120 219h100M230 219h10M250 219h130M390 219h70M470 219h10M0 220h10M20 220h40M70 220h4M75 220h5M90 220h10M110 220h80M200 220h10M260 220h10M280 220h180M470 220h10M0 221h10M20 221h40M70 221h10M90 221h10M110 221h80M200 221h10M260 221h10M280 221h85M366 221h94M470 221h10M0 222h10M20 222h40M70 222h10M90 222h10M110 222h80M200 222h10M260 222h10M280 222h180M470 222h10M0 223h10M20 223h40M70 223h10M90 223h10M110 223h80M200 223h10M260 223h10M280 223h180M470 223h10M0 224h10M20 224h40M70 224h10M90 224h10M110 224h80M200 224h10M260 224h10M280 224h180M470 224h10M0 225h10M20 225h40M70 225h10M90 225h10M110 225h71M182 225h8M200 225h10M260 225h10M280 225h180M470 225h10M0 226h10M20 226h40M70 226h10M90 226h10M110 226h80M200 226h10M260 226h10M280 226h108M389 226h71M470 226h10M0 227h4M5 227h5M20 227h40M70 227h10M90 227h10M110 227h80M200 227h10M260 227h10M280 227h180M470 227h10M0 228h10M20 228h40M70 228h10M90 228h10M110 228h80M200 228h10M260 228h10M280 228h180M470 228h10M0 229h10M20 229h40M70 229h10M90 229h10M110 229h80M200 229h10M260 229h10M280 229h180M470 229h10M0 230h10M20 230h30M60 230h30M100 230h80M290 230h42M333 230h17M360 230h70M440 230h20M470 230h10M0 231h10M20 231h30M60 231h30M100 231h80M290 231h60M360 231h70M440 231h20M470 231h10M0 232h10M20 232h30M60 232h30M100 232h80M290 232h60M360 232h70M440 232h20M470 232h10M0 233h10M20 233h30M60 233h30M100 233h40M141 233h39M290 233h60M360 233h70M440 233h20M470 233h10M0 234h10M20 234h30M60 234h30M100 234h80M290 234h60M360 234h70M440 234h20M470 234h10M0 235h10M20 235h30M60 235h19M80 235h10M100 235h80M290 235h60M360 235h27M388 235h42M440 235h20M470 235h10M0 236h10M20 236h30M60 236h30M100 236h80M290 236h60M360 236h70M440 236h20M470 236h10M0 237h10M20 237h30M60 237h30M100 237h80M290 237h60M360 237h70M440 237h20M470 237h10M0 238h10M20 238h30M60 238h30M100 238h80M290 238h60M360 238h70M440 238h20M470 238h10M0 239h10M20 239h30M60 239h30M100 239h80M290 239h60M360 239h70M440 239h20M470 239h10M0 240h10M20 240h150M300 240h60M370 240h10M410 240h10M430 240h30M470 240h10M0 241h10M20 241h20M41 241h129M300 241h60M370 241h10M410 241h10M430 241h30M470 241h10M0 242h10M20 242h150M300 242h60M370 242h10M410 242h10M430 242h30M470 242h10M0 243h10M20 243h123M144 243h26M300 243h60M370 243h10M410 243h10M430 243h30M470 243h10M0 244h10M20 244h108M129 244h41M300 244h60M370 244h10M410 244h10M430 244h30M470 244h10M0 245h10M20 245h150M300 245h60M370 245h10M410 245h10M430 245h30M470 245h10M0 246h10M20 246h150M300 246h60M370 246h10M410 246h10M430 246h30M470 246h10M0 247h10M20 247h150M300 247h60M370 247h10M410 247h10M430 247h30M470 247h10M0 248h10M20 248h150M300 248h60M370 248h10M410 248h10M430 248h30M470 248h10M0 249h10M20 249h150M300 249h60M370 249h10M410 249h10M430 249h30M470 249h10M0 250h10M20 250h140M310 250h60M420 250h40M470 250h10M0 251h10M20 251h140M310 251h60M420 251h40M470 251h10M0 252h10M20 252h140M310 252h60M420 252h40M470 252h10M0 253h10M20 253h140M310 253h60M420 253h40M470 253h10M0 254h10M20 254h140M310 254h60M420 254h40M470 254h10M0 255h10M20 255h37M58 255h102M310 255h60M420 255h40M470 255h10M0 256h10M20 256h140M310 256h60M420 256h40M470 256h10M0 257h10M20 257h140M310 257h60M420 257h40M470 257h10M0 258h10M20 258h3M24 258h136M310 258h60M420 258h40M470 258h10M0 259h10M20 259h140M310 259h60M420 259h40M470 259h10M0 260h10M20 260h80M110 260h50M310 260h6M317 260h43M380 260h10M400 260h10M430 260h30M470 260h10M0 261h10M20 261h43M64 261h36M110 261h50M310 261h50M380 261h10M400 261h10M430 261h30M470 261h10M0 262h10M20 262h80M110 262h50M310 262h50M380 262h10M400 262h10M430 262h30M470 262h10M0 263h10M20 263h80M110 263h50M310 263h50M380 263h10M400 263h10M430 263h30M470 263h10M0 264h10M20 264h80M110 264h50M310 264h12M323 264h37M380 264h10M400 264h10M430 264h30M470 264h10M0 265h10M20 265h80M110 265h50M310 265h50M380 265h10M400 265h10M430 265h30M470 265h10M0 266h10M20 266h80M110 266h50M310 266h4M315 266h13M329 266h31M380 266h10M400 266h10M430 266h30M470 266h10M0 267h10M20 267h80M110 267h50M310 267h50M380 267h10M400 267h10M430 267h30M470 267h10M0 268h10M20 268h80M110 268h50M310 268h50M380 268h10M400 268h10M430 268h30M470 268h10M0 269h10M20 269h80M110 269h50M310 269h50M380 269h10M400 269h10M430 269h30M470 269h10M0 270h4M5 270h5M20 270h60M120 270h30M320 270h40M390 270h10M430 270h30M470 270h10M0 271h10M20 271h60M120 271h30M320 271h40M390 271h10M430 271h30M470 271h10M0 272h10M20 272h60M120 272h30M320 272h40M390 272h10M430 272h30M470 272h10M0 273h10M20 273h60M120 273h30M320 273h40M390 273h10M430 273h30M470 273h10M0 274h10M20 274h60M120 274h30M320 274h40M390 274h10M430 274h30M470 274h10M0 275h10M20 275h60M120 275h30M320 275h40M390 275h10M430 275h30M470 275h10M0 276h10M20 276h60M120 276h30M320 276h40M390 276h10M430 276h30M470 276h10M0 277h10M20 277h60M120 277h30M320 277h40M390 277h10M430 277h30M470 277h10M0 278h10M20 278h60M120 278h30M320 278h40M390 278h10M430 278h30M470 278h10M0 279h10M20 279h60M120 279h30M320 279h40M390 279h10M430 279h30M470 279h10M0 280h10M20 280h40M70 280h10M90 280h30M130 280h20M320 280h50M390 280h10M420 280h40M470 280h10M0 281h10M20 281h26M47 281h13M70 281h10M90 281h30M130 281h20M320 281h50M390 281h10M420 281h40M470 281h10M0 282h10M20 282h40M70 282h10M90 282h30M130 282h20M320 282h50M390 282h10M420 282h40M470 282h10M0 283h10M20 283h40M70 283h6M77 283h3M90 283h30M130 283h20M320 283h50M390 283h10M420 283h40M470 283h10M0 284h10M20 284h40M70 284h10M90 284h30M130 284h20M320 284h50M390 284h10M420 284h40M470 284h10M0 285h10M20 285h40M70 285h10M90 285h30M130 285h20M320 285h50M390 285h10M420 285h40M470 285h10M0 286h10M20 286h40M70 286h10M90 286h30M130 286h20M320 286h50M390 286h10M420 286h40M470 286h10M0 287h10M20 287h40M70 287h10M90 287h30M130 287h20M320 287h50M390 287h10M420 287h40M470 287h2M473 287h7M0 288h10M20 288h40M70 288h10M90 288h30M130 288h20M320 288h50M390 288h10M420 288h40M470 288h10M0 289h10M20 289h40M70 289h10M90 289h30M130 289h20M320 289h50M390 289h10M420 289h40M470 289h10M0 290h10M20 290h30M70 290h20M100 290h20M130 290h20M320 290h40M370 290h10M410 290h10M430 290h30M470 290h10M0 291h10M20 291h30M70 291h20M100 291h20M130 291h20M320 291h40M370 291h10M410 291h10M430 291h30M470 291h10M0 292h10M20 292h30M70 292h20M100 292h20M130 292h20M320 292h40M370 292h10M410 292h10M430 292h30M470 292h10M0 293h10M20 293h30M70 293h20M100 293h20M130 293h20M320 293h40M370 293h10M410 293h10M430 293h30M470 293h10M0 294h10M20 294h30M70 294h20M100 294h20M130 294h20M320 294h40M370 294h10M410 294h10M430 294h30M470 294h10M0 295h10M20 295h30M70 295h20M100 295h20M130 295h20M320 295h40M370 295h10M410 295h10M430 295h30M470 295h10M0 296h10M20 296h30M70 296h20M100 296h20M130 296h20M320 296h40M370 296h10M410 296h10M430 296h30M470 296h10M0 297h10M20 297h30M70 297h20M100 297h20M130 297h20M320 297h40M370 297h10M410 297h10M430 297h30M470 297h10M0 298h10M20 298h30M70 298h20M100 298h20M130 298h20M320 298h40M370 298h10M410 298h10M430 298h30M470 298h10M0 299h10M20 299h30M70 299h20M100 299h20M130 299h20M320 299h40M370 299h3M374 299h6M410 299h10M430 299h30M470 299h10M0 300h10M20 300h2M23 300h17M50 300h10M70 300h10M90 300h30M130 300h20M320 300h30M360 300h20M390 300h10M410 300h20M440 300h20M470 300h10M0 301h10M20 301h20M50 301h10M70 301h10M90 301h30M130 301h20M320 301h30M360 301h20M390 301h10M410 301h20M440 301h20M470 301h10M0 302h10M20 302h13M34 302h6M50 302h10M70 302h10M90 302h30M130 302h20M320 302h30M360 302h20M390 302h10M410 302h20M440 302h20M470 302h10M0 303h10M20 303h20M50 303h10M70 303h10M90 303h30M130 303h20M320 303h30M360 303h20M390 303h10M410 303h20M440 303h20M470 303h10M0 304h10M20 304h20M50 304h10M70 304h10M90 304h30M130 304h20M320 304h30M360 304h20M390 304h10M410 304h20M440 304h20M470 304h10M0 305h10M20 305h20M50 305h10M70 305h10M90 305h30M130 305h20M320 305h30M360 305h20M390 305h10M410 305h20M440 305h20M470 305h10M0 306h10M20 306h20M50 306h2M53 306h7M70 306h10M90 306h30M130 306h20M320 306h30M360 306h20M390 306h10M410 306h20M440 306h20M470 306h10M0 307h10M20 307h20M50 307h10M70 307h10M90 307h30M130 307h20M320 307h30M360 307h20M390 307h10M410 307h20M440 307h20M470 307h10M0 308h10M20 308h15M36 308h4M50 308h10M70 308h10M90 308h30M130 308h20M320 308h30M360 308h20M390 308h10M410 308h20M440 308h20M470 308h10M0 309h10M20 309h20M50 309h10M70 309h10M90 309h30M130 309h20M320 309h30M360 309h20M390 309h10M410 309h20M440 309h20M470 309h10M0 310h10M20 310h10M70 310h10M120 310h30M320 310h140M470 310h10M0 311h10M20 311h10M70 311h10M120 311h13M134 311h16M320 311h140M470 311h10M0 312h10M20 312h10M70 312h10M120 312h30M320 312h42M363 312h97M470 312h10M0 313h10M20 313h10M70 313h10M120 313h30M320 313h140M470 313h10M0 314h10M20 314h10M70 314h10M120 314h30M320 314h140M470 314h10M0 315h10M20 315h10M70 315h10M120 315h30M320 315h35M356 315h104M470 315h10M0 316h10M20 316h10M70 316h10M120 316h30M320 316h140M470 316h10M0 317h10M20 317h10M70 317h10M120 317h30M320 317h140M470 317h10M0 318h10M20 318h10M70 318h10M120 318h30M320 318h140M470 318h10M0 319h10M20 319h10M70 319h10M120 319h30M320 319h140M470 319h10M0 320h10M20 320h40M70 320h30M110 320h40M320 320h140M470 320h10M0 321h10M20 321h40M70 321h30M110 321h40M320 321h140M470 321h10M0 322h10M20 322h40M70 322h30M110 322h40M320 322h140M470 322h10M0 323h10M20 323h40M70 323h30M110 323h40M320 323h140M470 323h10M0 324h10M20 324h40M70 324h30M110 324h40M320 324h140M470 324h10M0 325h10M20 325h40M70 325h30M110 325h40M320 325h140M470 325h10M0 326h10M20 326h40M70 326h30M110 326h40M320 326h140M470 326h10M0 327h10M20 327h40M70 327h30M110 327h40M320 327h140M470 327h10M0 328h10M20 328h40M70 328h30M110 328h40M320 328h140M470 328h10M0 329h10M20 329h40M70 329h30M110 329h40M320 329h140M470 329h10M0 330h10M20 330h20M130 330h20M320 330h140M470 330h10M0 331h10M20 331h20M130 331h20M320 331h140M470 331h10M0 332h10M20 332h20M130 332h20M320 332h140M470 332h10M0 333h10M20 333h20M130 333h20M320 333h140M470 333h10M0 334h10M20 334h20M130 334h20M320 334h140M470 334h10M0 335h10M20 335h20M130 335h20M320 335h140M470 335h10M0 336h10M20 336h20M130 336h20M320 336h140M470 336h10M0 337h10M20 337h20M130 337h20M320 337h44M365 337h87M453 337h7M470 337h10M0 338h10M20 338h20M130 338h20M320 338h140M470 338h10M0 339h10M20 339h20M130 339h20M320 339h140M470 339h10M0 340h10M20 340h30M60 340h50M120 340h30M320 340h30M380 340h40M440 340h20M470 340h10M0 341h10M20 341h30M60 341h50M120 341h30M320 341h30M380 341h40M440 341h20M470 341h10M0 342h10M20 342h30M60 342h50M120 342h30M320 342h30M380 342h40M440 342h20M470 342h10M0 343h10M20 343h30M60 343h50M120 343h30M320 343h30M380 343h40M440 343h20M470 343h10M0 344h10M20 344h30M60 344h50M120 344h30M320 344h30M380 344h40M440 344h20M470 344h10M0 345h10M20 345h30M60 345h3M64 345h46M120 345h30M320 345h30M380 345h40M440 345h20M470 345h10M0 346h10M20 346h30M60 346h50M120 346h30M320 346h30M380 346h40M440 346h20M470 346h10M0 347h10M20 347h30M60 347h50M120 347h30M320 347h30M380 347h40M440 347h20M470 347h10M0 348h10M20 348h30M60 348h50M120 348h30M320 348h30M380 348h40M440 348h20M470 348h10M0 349h10M20 349h30M60 349h50M120 349h30M320 349h30M380 349h40M440 349h20M470 349h10M0 350h10M20 350h40M110 350h3M114 350h36M320 350h30M380 350h30M450 350h10M470 350h10M0 351h10M20 351h29M50 351h10M110 351h40M320 351h30M380 351h30M450 351h10M470 351h10M0 352h10M20 352h40M110 352h16M127 352h23M320 352h30M380 352h30M450 352h10M470 352h10M0 353h10M20 353h5M26 353h34M110 353h40M320 353h30M380 353h30M450 353h10M470 353h10M0 354h10M20 354h40M110 354h40M320 354h30M380 354h30M450 354h10M470 354h10M0 355h10M20 355h40M110 355h40M320 355h30M380 355h30M450 355h10M470 355h10M0 356h10M20 356h40M110 356h40M320 356h30M380 356h30M450 356h10M470 356h10M0 357h10M20 357h40M110 357h40M320 357h30M380 357h30M450 357h10M470 357h10M0 358h10M20 358h40M110 358h40M320 358h30M380 358h30M450 358h10M470 358h10M0 359h10M20 359h40M110 359h40M320 359h30M380 359h30M450 359h10M470 359h10M0 360h10M20 360h130M320 360h30M380 360h30M450 360h10M470 360h10M0 361h10M20 361h130M320 361h30M380 361h30M450 361h10M470 361h10M0 362h10M20 362h44M65 362h85M320 362h30M380 362h30M450 362h10M470 362h10M0 363h10M20 363h130M320 363h30M380 363h30M450 363h10M470 363h10M0 364h10M20 364h130M320 364h30M380 364h30M450 364h10M470 364h10M0 365h10M20 365h130M320 365h30M380 365h30M450 365h10M470 365h10M0 366h10M20 366h130M320 366h30M380 366h30M450 366h10M470 366h10M0 367h10M20 367h130M320 367h30M380 367h30M450 367h10M470 367h10M0 368h10M20 368h130M320 368h30M380 368h30M450 368h10M470 368h10M0 369h6M7 369h3M20 369h130M320 369h30M380 369h30M450 369h10M470 369h10M0 370h10M20 370h140M310 370h30M350 370h30M390 370h30M440 370h5M446 370h14M470 370h10M0 371h10M20 371h140M310 371h30M350 371h30M390 371h30M440 371h20M470 371h10M0 372h10M20 372h140M310 372h30M350 372h30M390 372h30M440 372h20M470 372h10M0 373h10M20 373h140M310 373h30M350 373h30M390 373h30M440 373h20M470 373h10M0 374h10M20 374h140M310 374h30M350 374h30M390 374h30M440 374h20M470 374h10M0 375h10M20 375h52M73 375h87M310 375h30M350 375h30M390 375h30M440 375h20M470 375h10M0 376h10M20 376h13M34 376h126M310 376h30M350 376h30M390 376h30M440 376h20M470 376h10M0 377h10M20 377h50M71 377h89M310 377h30M350 377h30M390 377h30M440 377h20M470 377h10M0 378h10M20 378h140M310 378h30M350 378h26M377 378h3M390 378h30M440 378h20M470 378h10M0 379h10M20 379h140M310 379h30M350 379h30M390 379h30M440 379h20M470 379h10M0 380h170M300 380h30M340 380h50M400 380h20M440 380h20M470 380h10M0 381h91M92 381h78M300 381h30M340 381h50M400 381h20M440 381h20M470 381h10M0 382h170M300 382h30M340 382h50M400 382h20M440 382h20M470 382h10M0 383h170M300 383h30M340 383h50M400 383h20M440 383h20M470 383h10M0 384h170M300 384h30M340 384h50M400 384h20M440 384h20M470 384h10M0 385h162M163 385h7M300 385h30M340 385h50M400 385h20M440 385h20M470 385h10M0 386h170M300 386h30M340 386h50M400 386h20M440 386h20M470 386h10M0 387h170M300 387h30M340 387h50M400 387h20M440 387h20M470 387h10M0 388h170M300 388h30M340 388h50M400 388h20M440 388h20M470 388h10M0 389h170M300 389h30M340 389h50M400 389h20M440 389h20M470 389h10M0 390h10M20 390h40M90 390h10M110 390h10M140 390h60M210 390h50M270 390h60M400 390h20M440 390h20M470 390h10M0 391h10M20 391h40M90 391h10M110 391h10M140 391h60M210 391h50M270 391h60M400 391h20M440 391h20M470 391h10M0 392h10M20 392h40M90 392h10M110 392h10M140 392h60M210 392h50M270 392h60M400 392h20M440 392h20M470 392h10M0 393h10M20 393h40M90 393h10M110 393h10M140 393h60M210 393h50M270 393h60M400 393h20M440 393h20M470 393h10M0 394h10M20 394h40M90 394h10M110 394h10M140 394h8M149 394h51M210 394h50M270 394h59M400 394h20M440 394h20M470 394h10M0 395h10M20 395h40M90 395h10M110 395h10M140 395h60M210 395h50M270 395h60M400 395h20M440 395h20M470 395h10M0 396h10M20 396h40M90 396h10M110 396h10M140 396h60M210 396h50M270 396h58M329 396h1M400 396h20M440 396h20M470 396h10M0 397h10M20 397h40M90 397h10M110 397h10M140 397h60M210 397h50M270 397h60M400 397h20M440 397h20M470 397h10M0 398h10M20 398h40M90 398h10M110 398h10M140 398h1M142 398h58M210 398h50M270 398h60M400 398h20M440 398h20M470 398h10M0 399h10M20 399h7M28 399h32M90 399h10M110 399h10M140 399h60M210 399h50M270 399h60M400 399h20M440 399h20M470 399h10M0 400h60M70 400h10M90 400h10M110 400h10M130 400h10M150 400h180M340 400h50M400 400h60M470 400h10M0 401h60M70 401h10M90 401h10M110 401h10M130 401h10M150 401h180M340 401h50M400 401h60M470 401h10M0 402h60M70 402h10M90 402h10M110 402h10M130 402h10M150 402h180M340 402h50M400 402h60M470 402h10M0 403h60M70 403h10M90 403h10M110 403h10M130 403h10M150 403h180M340 403h50M400 403h60M470 403h10M0 404h60M70 404h10M90 404h10M110 404h10M130 404h10M150 404h180M340 404h50M400 404h60M470 404h10M0 405h60M70 405h10M90 405h10M110 405h10M130 405h10M150 405h107M258 405h72M340 405h50M400 405h60M470 405h10M0 406h60M70 406h10M90 406h10M110 406h10M130 406h10M150 406h180M340 406h50M400 406h60M470 406h10M0 407h60M70 407h10M90 407h10M110 407h10M130 407h10M150 407h180M340 407h50M400 407h60M470 407h10M0 408h60M70 408h10M90 408h10M110 408h10M130 408h10M150 408h180M340 408h50M400 408h34M435 408h25M470 408h10M0 409h60M70 409h10M90 409h10M110 409h10M130 409h10M150 409h180M340 409h50M400 409h60M470 409h10M0 410h10M20 410h40M80 410h20M110 410h10M140 410h80M230 410h100M400 410h60M470 410h10M0 411h10M20 411h40M80 411h20M110 411h10M140 411h80M230 411h100M400 411h60M470 411h10M0 412h10M20 412h40M80 412h20M110 412h10M140 412h80M230 412h94M325 412h5M400 412h60M470 412h10M0 413h10M20 413h40M80 413h20M110 413h10M140 413h80M230 413h100M400 413h60M470 413h10M0 414h10M20 414h40M80 414h20M110 414h10M140 414h80M230 414h100M400 414h60M470 414h10M0 415h10M20 415h40M80 415h20M110 415h10M140 415h80M230 415h100M400 415h60M470 415h10M0 416h10M20 416h40M80 416h20M110 416h10M140 416h80M230 416h22M253 416h77M400 416h60M470 416h10M0 417h10M20 417h40M80 417h20M110 417h10M140 417h80M230 417h100M400 417h60M470 417h10M0 418h10M20 418h40M80 418h20M110 418h10M140 418h80M230 418h100M400 418h60M470 418h10M0 419h10M20 419h40M80 419h20M110 419h10M140 419h80M230 419h100M400 419h60M470 419h10M0 420h60M70 420h10M90 420h10M110 420h10M130 420h50M300 420h30M340 420h50M400 420h60M470 420h10M0 421h60M70 421h10M90 421h10M110 421h10M130 421h50M300 421h30M340 421h50M400 421h60M470 421h10M0 422h60M70 422h10M90 422h10M110 422h10M130 422h50M300 422h30M340 422h50M400 422h60M470 422h10M0 423h60M70 423h10M90 423h10M110 423h10M130 423h50M300 423h30M340 423h50M400 423h60M470 423h10M0 424h60M70 424h10M90 424h10M110 424h10M130 424h50M300 424h30M340 424h50M400 424h8M409 424h51M470 424h10M0 425h60M70 425h10M90 425h10M110 425h10M130 425h50M300 425h30M340 425h50M400 425h60M470 425h10M0 426h60M70 426h10M90 426h10M110 426h10M130 426h31M162 426h18M300 426h30M340 426h38M379 426h11M400 426h60M470 426h10M0 427h60M70 427h10M90 427h10M110 427h10M130 427h50M300 427h30M340 427h50M400 427h60M470 427h10M0 428h60M70 428h10M90 428h10M110 428h10M130 428h50M300 428h30M340 428h50M400 428h60M470 428h10M0 429h60M70 429h10M90 429h10M110 429h10M130 429h50M300 429h30M340 429h50M400 429h60M470 429h10M0 430h10M20 430h40M70 430h10M90 430h10M110 430h10M130 430h50M290 430h50M390 430h70M470 430h10M0 431h10M20 431h40M70 431h10M90 431h10M110 431h10M130 431h50M290 431h50M390 431h70M470 431h10M0 432h10M20 432h40M70 432h10M90 432h10M110 432h10M130 432h50M290 432h20M311 432h29M390 432h70M470 432h10M0 433h10M20 433h40M70 433h10M90 433h3M94 433h6M110 433h10M130 433h50M290 433h50M390 433h70M470 433h10M0 434h10M20 434h40M70 434h10M90 434h10M110 434h10M130 434h50M290 434h50M390 434h70M470 434h10M0 435h10M20 435h40M70 435h10M90 435h10M110 435h10M130 435h50M290 435h50M390 435h70M470 435h10M0 436h10M20 436h40M70 436h10M90 436h10M110 436h10M130 436h50M290 436h50M390 436h70M470 436h10M0 437h10M20 437h40M70 437h10M90 437h10M110 437h10M130 437h50M290 437h50M390 437h70M470 437h10M0 438h10M20 438h40M70 438h10M90 438h10M110 438h10M130 438h50M290 438h50M390 438h70M470 438h10M0 439h10M20 439h40M70 439h10M90 439h10M110 439h10M130 439h50M290 439h50M390 439h70M470 439h10M0 440h220M230 440h230M470 440h10M0 441h220M230 441h230M470 441h10M0 442h220M230 442h138M369 442h91M470 442h10M0 443h220M230 443h134M365 443h95M470 443h10M0 444h220M230 444h230M470 444h10M0 445h220M230 445h87M318 445h142M470 445h10M0 446h220M230 446h230M470 446h10M0 447h124M125 447h95M230 447h230M470 447h10M0 448h220M230 448h230M470 448h10M0 449h220M230 449h230M470 449h10M0 450h10M20 450h43M64 450h197M262 450h198M470 450h10M0 451h10M20 451h310M331 451h129M470 451h10M0 452h10M20 452h440M470 452h10M0 453h10M20 453h440M470 453h10M0 454h10M20 454h440M470 454h10M0 455h10M20 455h440M470 455h10M0 456h10M20 456h135M156 456h304M470 456h10M0 457h10M20 457h440M470 457h10M0 458h10M20 458h302M323 458h137M470 458h10M0 459h10M20 459h440M470 459h10M0 460h10M470 460h10M0 461h10M470 461h10M0 462h10M470 462h10M0 463h10M470 463h3M474 463h6M0 464h10M470 464h10M0 465h10M470 465h10M0 466h10M470 466h10M0 467h10M470 467h10M0 468h10M470 468h10M0 469h10M470 469h10M0 470h159M160 470h320M0 471h480M0 472h480M0 473h275M276 473h204M0 474h480M0 475h480M0 476h219M220 476h260M0 477h40M41 477h439M0 478h74M75 478h185M261 478h219M0 479h131M132 479h348" />
<path stroke="#fe0033" d="M228 0h1M81 2h1M384 38h1M114 45h1M9 60h1M450 60h1M135 65h1M204 86h1M447 103h1M357 110h1M24 135h1M363 136h1M192 146h1M75 149h1M231 151h1M114 159h1M306 171h1M408 172h1M3 176h1M258 176h1M477 187h1M267 188h1M372 207h1M414 207h1M474 210h1M210 215h1M387 235h1M57 255h1M63 261h1M33 302h1M63 345h1M126 352h1M6 369h1M72 375h1M33 376h1M162 385h1M141 398h1M27 399h1M324 412h1M252 416h1M408 424h1M378 426h1M93 433h1M63 450h1M261 450h1M330 451h1M159 470h1M219 476h1" />
<path stroke="#ff0133" d="M349 0h1M433 1h1M286 6h1M256 8h1M256 25h1M154 29h1M307 32h1M46 36h1M313 38h1M415 39h1M127 42h1M127 56h1M475 72h1M202 73h1M403 76h1M355 79h1M445 79h1M304 82h1M46 89h1M40 90h1M232 95h1M205 104h1M352 106h1M271 130h1M277 137h1M388 140h1M334 149h1M133 166h1M376 172h1M379 178h1M355 189h1M265 210h1M193 211h1M181 225h1M388 226h1M4 227h1M79 235h1M40 241h1M316 260h1M322 264h1M328 266h1M4 270h1M46 281h1M76 283h1M472 287h1M373 299h1M22 300h1M52 306h1M133 311h1M355 315h1M364 337h1M49 351h1M25 353h1M64 362h1M445 370h1M70 377h1M376 378h1M91 381h1M148 394h1M328 396h1M310 432h1M364 443h1M124 447h1M322 458h1M40 477h1" />
<path stroke="#ff0032" d="M161 1h1M236 25h1M65 34h1M299 42h1M20 45h1M473 50h1M77 55h1M233 55h1M350 61h1M449 68h1M452 85h1M152 86h1M53 102h1M260 120h1M446 125h1M20 141h1M110 156h1M185 158h1M230 159h1M128 165h1M230 168h1M263 169h1M455 169h1M305 172h1M56 175h1M314 182h1M92 183h1M212 189h1M131 190h1M164 197h1M74 220h1M365 221h1M332 230h1M140 233h1M143 243h1M128 244h1M23 258h1M314 266h1M35 308h1M362 312h1M452 337h1M113 350h1M329 394h1M257 405h1M434 408h1M161 426h1M368 442h1M317 445h1M155 456h1M473 463h1M275 473h1M74 478h1M260 478h1M131 479h1" />
<path stroke="#ffffff" d="M10 10h352M363 10h107M10 11h460M10 12h460M10 13h460M10 14h459M10 15h460M10 16h460M10 17h22M33 17h373M407 17h63M10 18h460M10 19h146M157 19h290M448 19h22M10 20h10M460 20h10M10 21h10M460 21h10M10 22h10M460 22h10M10 23h10M460 23h10M10 24h10M460 24h10M10 25h10M460 25h10M10 26h10M460 26h10M10 27h10M460 27h10M10 28h10M460 28h10M10 29h10M460 29h10M10 30h4M15 30h5M10 31h10M10 32h10M10 33h10M10 34h10M10 35h10M10 36h10M10 37h10M10 38h10M10 39h10M10 40h10M460 40h10M10 41h10M460 41h10M10 42h10M460 42h10M10 43h10M460 43h10M10 44h10M460 44h10M10 45h10M460 45h10M10 46h10M460 46h10M10 47h10M460 47h10M10 48h10M460 48h10M10 49h10M460 49h10M10 50h10M10 51h10M10 52h10M10 53h10M10 54h10M10 55h10M10 56h10M10 57h10M10 58h10M10 59h10M10 60h10M460 60h10M10 61h10M460 61h10M10 62h10M460 62h10M10 63h10M460 63h10M10 64h10M460 64h10M10 65h10M460 65h10M10 66h10M460 66h10M10 67h10M460 67h10M10 68h10M460 68h10M10 69h10M460 69h10M10 70h10M10 71h10M10 72h10M10 73h10M10 74h10M10 75h10M10 76h10M10 77h10M10 78h10M10 79h10M10 80h10M460 80h10M10 81h10M460 81h10M10 82h10M460 82h10M10 83h10M460 83h10M10 84h10M460 84h7M468 84h2M10 85h10M460 85h10M10 86h10M460 86h10M10 87h10M460 87h10M10 88h10M460 88h10M10 89h10M460 89h10M10 90h10M10 91h10M10 92h10M10 93h10M10 94h10M10 95h10M10 96h10M10 97h10M10 98h10M10 99h10M10 100h10M460 100h10M10 101h10M460 101h10M10 102h10M460 102h10M10 103h10M460 103h10M10 104h10M460 104h10M10 105h10M460 105h10M10 106h10M460 106h10M10 107h10M460 107h10M10 108h10M460 108h10M10 109h10M460 109h10M10 110h10M460 110h10M10 111h10M460 111h10M10 112h10M460 112h10M10 113h10M460 113h10M10 114h10M460 114h10M10 115h10M460 115h10M10 116h10M460 116h10M10 117h10M460 117h10M10 118h10M460 118h10M10 119h10M460 119h10M10 120h10M460 120h10M10 121h10M460 121h10M10 122h10M460 122h10M10 123h10M460 123h10M10 124h10M460 124h10M10 125h10M460 125h10M10 126h10M460 126h10M10 127h10M460 127h10M10 128h10M460 128h10M10 129h10M460 129h10M10 130h10M460 130h10M10 131h10M460 131h10M10 132h10M460 132h10M10 133h10M460 133h10M10 134h10M460 134h10M10 135h10M460 135h10M10 136h10M460 136h10M10 137h10M460 137h10M10 138h10M460 138h10M10 139h10M460 139h10M10 140h10M460 140h10M10 141h10M460 141h10M10 142h10M460 142h10M10 143h10M460 143h10M10 144h10M460 144h10M10 145h10M460 145h10M10 146h10M460 146h10M10 147h10M460 147h10M10 148h10M460 148h10M10 149h10M460 149h10M10 150h10M460 150h10M10 151h10M460 151h10M10 152h10M460 152h10M10 153h10M460 153h10M10 154h10M460 154h10M10 155h10M460 155h10M10 156h10M460 156h10M10 157h10M460 157h10M10 158h10M460 158h10M10 159h6M17 159h3M460 159h10M10 160h10M460 160h10M10 161h10M460 161h10M10 162h10M460 162h10M10 163h10M460 163h10M10 164h10M460 164h10M10 165h10M460 165h10M10 166h10M460 166h10M10 167h10M460 167h10M10 168h10M460 168h10M10 169h10M460 169h10M10 170h10M460 170h10M10 171h10M460 171h10M10 172h10M460 172h10M10 173h10M460 173h10M10 174h10M460 174h10M10 175h10M460 175h10M10 176h10M460 176h10M10 177h10M460 177h10M10 178h10M460 178h10M10 179h10M460 179h10M10 180h10M460 180h10M10 181h10M460 181h10M10 182h10M460 182h10M10 183h10M460 183h10M10 184h10M460 184h10M10 185h10M460 185h10M10 186h10M460 186h10M10 187h10M460 187h10M10 188h10M460 188h10M10 189h10M460 189h10M10 190h10M460 190h10M10 191h10M460 191h10M10 192h10M460 192h10M10 193h10M460 193h10M10 194h10M460 194h10M10 195h10M460 195h10M10 196h10M460 196h10M10 197h10M460 197h10M10 198h10M460 198h10M10 199h10M460 199h10M10 200h10M460 200h10M10 201h10M460 201h10M10 202h10M460 202h10M10 203h10M460 203h10M10 204h10M460 204h10M10 205h10M460 205h10M10 206h10M460 206h10M10 207h10M460 207h10M10 208h10M460 208h10M10 209h10M460 209h10M10 210h10M460 210h10M10 211h10M460 211h10M10 212h10M460 212h10M10 213h10M460 213h10M10 214h10M460 214h10M10 215h10M460 215h10M10 216h10M460 216h10M10 217h10M460 217h10M10 218h10M460 218h10M10 219h10M460 219h10M10 220h10M460 220h10M10 221h10M460 221h10M10 222h10M460 222h10M10 223h10M460 223h10M10 224h5M16 224h4M460 224h10M10 225h10M460 225h10M10 226h10M460 226h10M10 227h10M460 227h10M10 228h10M460 228h10M10 229h10M460 229h10M10 230h10M460 230h10M10 231h10M460 231h10M10 232h10M460 232h10M10 233h10M460 233h10M10 234h10M460 234h10M10 235h10M460 235h10M10 236h10M460 236h10M10 237h10M460 237h10M10 238h10M460 238h10M10 239h10M460 239h10M10 240h10M460 240h10M10 241h10M460 241h10M10 242h10M460 242h10M10 243h10M460 243h10M10 244h10M460 244h10M10 245h10M460 245h10M10 246h10M460 246h10M10 247h10M460 247h10M10 248h10M460 248h10M10 249h10M460 249h10M10 250h10M460 250h10M10 251h10M460 251h10M10 252h10M460 252h10M10 253h10M460 253h10M10 254h10M460 254h10M10 255h10M460 255h10M10 256h10M460 256h10M10 257h10M460 257h10M10 258h10M460 258h10M10 259h10M460 259h10M10 260h10M460 260h10M10 261h10M460 261h10M10 262h10M460 262h10M10 263h10M460 263h10M10 264h10M460 264h10M10 265h10M460 265h10M10 266h10M460 266h10M10 267h10M460 267h10M10 268h10M460 268h10M10 269h10M460 269h10M10 270h10M460 270h10M10 271h10M460 271h10M10 272h10M460 272h10M10 273h10M460 273h10M10 274h10M460 274h10M10 275h10M460 275h10M10 276h10M460 276h10M10 277h10M460 277h10M10 278h10M460 278h10M10 279h10M460 279h10M10 280h10M460 280h10M10 281h10M460 281h10M10 282h10M460 282h4M465 282h5M10 283h10M460 283h10M10 284h10M460 284h10M10 285h10M460 285h10M10 286h10M460 286h10M10 287h10M460 287h10M10 288h10M460 288h10M10 289h10M460 289h10M10 290h10M460 290h10M10 291h10M460 291h3M464 291h6M10 292h10M460 292h10M10 293h10M460 293h10M10 294h7M18 294h2M460 294h10M10 295h10M460 295h10M10 296h10M460 296h10M10 297h10M460 297h10M10 298h10M460 298h10M10 299h10M460 299h10M10 300h10M460 300h10M10 301h10M460 301h10M10 302h10M460 302h3M464 302h6M10 303h10M460 303h10M10 304h10M460 304h10M10 305h10M460 305h10M10 306h10M460 306h10M10 307h10M460 307h10M10 308h10M460 308h10M10 309h10M460 309h10M10 310h10M460 310h10M10 311h10M460 311h10M10 312h10M460 312h10M10 313h10M460 313h10M10 314h10M460 314h10M10 315h10M460 315h10M10 316h10M460 316h10M10 317h10M460 317h10M10 318h10M460 318h10M10 319h10M460 319h10M10 320h10M460 320h10M10 321h10M460 321h10M10 322h10M460 322h10M10 323h10M460 323h10M10 324h10M460 324h10M10 325h10M460 325h10M10 326h10M460 326h10M10 327h10M460 327h10M10 328h10M460 328h10M10 329h10M460 329h10M10 330h10M460 330h10M10 331h10M460 331h10M10 332h10M460 332h10M10 333h10M460 333h10M10 334h10M460 334h10M10 335h10M460 335h10M10 336h10M460 336h10M10 337h10M460 337h10M10 338h10M460 338h10M10 339h10M460 339h10M10 340h10M220 340h10M240 340h10M460 340h10M10 341h10M220 341h10M240 341h10M460 341h10M10 342h10M220 342h10M240 342h10M460 342h10M10 343h10M220 343h10M240 343h10M460 343h10M10 344h10M220 344h10M240 344h10M460 344h10M10 345h10M220 345h10M240 345h10M460 345h10M10 346h10M220 346h10M240 346h10M460 346h10M10 347h10M220 347h10M240 347h10M460 347h10M10 348h10M220 348h10M240 348h10M460 348h10M10 349h10M220 349h10M240 349h10M460 349h10M10 350h10M460 350h10M10 351h10M460 351h10M10 352h10M460 352h10M10 353h10M460 353h10M10 354h10M460 354h10M10 355h10M460 355h10M10 356h10M460 356h10M10 357h10M460 357h10M10 358h10M460 358h10M10 359h10M460 359h10M10 360h10M460 360h10M10 361h10M460 361h10M10 362h10M460 362h10M10 363h10M460 363h10M10 364h10M460 364h10M10 365h10M460 365h10M10 366h10M460 366h10M10 367h10M460 367h10M10 368h10M460 368h10M10 369h1M12 369h8M460 369h10M10 370h10M460 370h10M10 371h10M460 371h10M10 372h10M460 372h10M10 373h10M460 373h10M10 374h10M460 374h10M10 375h10M460 375h10M10 376h10M460 376h10M10 377h10M460 377h10M10 378h10M460 378h10M10 379h10M460 379h10M460 380h10M460 381h10M460 382h10M460 383h10M460 384h10M460 385h10M460 386h10M460 387h10M460 388h10M460 389h10M10 390h10M460 390h10M10 391h10M460 391h10M10 392h10M460 392h9M10 393h10M460 393h10M10 394h10M460 394h10M10 395h10M460 395h10M10 396h10M460 396h10M10 397h10M460 397h10M10 398h10M460 398h10M10 399h10M460 399h10M460 400h10M460 401h10M460 402h10M460 403h10M460 404h10M460 405h10M460 406h10M460 407h10M460 408h10M460 409h10M10 410h5M16 410h4M460 410h10M10 411h10M460 411h10M10 412h10M460 412h10M10 413h10M460 413h10M10 414h10M460 414h10M10 415h10M460 415h10M10 416h10M460 416h10M10 417h10M460 417h10M10 418h10M460 418h10M10 419h10M460 419h10M460 420h10M460 421h10M460 422h10M460 423h10M460 424h10M460 425h10M460 426h10M460 427h10M460 428h10M460 429h10M10 430h10M460 430h10M10 431h10M460 431h10M10 432h10M460 432h10M10 433h10M460 433h10M10 434h10M460 434h10M10 435h10M460 435h10M10 436h10M460 436h10M10 437h10M460 437h10M10 438h10M460 438h10M10 439h10M460 439h10M460 440h10M460 441h10M460 442h10M460 443h10M460 444h10M460 445h10M460 446h10M460 447h10M460 448h10M460 449h10M10 450h10M460 450h10M10 451h10M460 451h10M10 452h10M460 452h10M10 453h10M460 453h10M10 454h10M460 454h10M10 455h10M460 455h10M10 456h10M460 456h10M10 457h10M460 457h10M10 458h10M460 458h10M10 459h10M460 459h10M10 460h460M10 461h460M10 462h460M10 463h460M10 464h460M10 465h460M10 466h460M10 467h60M71 467h380M452 467h18M10 468h180M191 468h267M459 468h11M10 469h312M323 469h47M371 469h99" />
<path stroke="#fffffe" d="M362 10h1M32 17h1M14 30h1M467 84h1M464 282h1M17 294h1M11 369h1M458 468h1" />
<path stroke="#fffeff" d="M469 14h1M406 17h1M16 159h1M463 291h1M463 302h1M469 392h1M70 467h1M451 467h1M190 468h1M322 469h1M370 469h1" />
<path stroke="#feffff" d="M156 19h1M447 19h1M15 224h1M15 410h1" />
<path stroke="#fbf236" d="M50 40h20M90 40h20M140 40h20M180 40h40M240 40h50M310 40h20M370 40h50M50 41h20M90 41h20M140 41h12M153 41h7M180 41h40M240 41h50M310 41h20M370 41h50M50 42h20M90 42h20M140 42h20M180 42h40M240 42h50M310 42h20M370 42h50M50 43h20M90 43h20M140 43h20M180 43h40M240 43h50M310 43h20M370 43h50M50 44h20M90 44h20M140 44h20M180 44h40M240 44h50M310 44h20M370 44h14M385 44h35M50 45h20M90 45h20M140 45h20M180 45h40M240 45h50M310 45h20M370 45h50M50 46h20M90 46h20M140 46h20M180 46h27M208 46h12M240 46h50M310 46h20M370 46h50M50 47h20M90 47h20M140 47h20M180 47h40M240 47h50M310 47h20M370 47h50M50 48h20M90 48h20M140 48h20M180 48h40M240 48h50M310 48h20M370 48h50M50 49h20M90 49h20M140 49h20M180 49h40M240 49h50M310 49h20M370 49h50M50 50h20M90 50h20M140 50h20M170 50h60M240 50h60M310 50h20M370 50h60M50 51h20M90 51h20M140 51h20M170 51h60M240 51h60M310 51h20M370 51h60M50 52h20M90 52h20M140 52h20M170 52h60M240 52h60M310 52h20M370 52h60M50 53h20M90 53h20M140 53h20M170 53h6M177 53h53M240 53h60M310 53h20M370 53h60M50 54h20M90 54h20M140 54h20M170 54h60M240 54h60M310 54h20M370 54h60M50 55h20M90 55h20M140 55h20M170 55h60M240 55h60M310 55h20M370 55h60M50 56h20M90 56h20M140 56h20M170 56h60M240 56h60M310 56h20M370 56h60M50 57h20M90 57h20M140 57h20M170 57h60M240 57h60M310 57h20M370 57h60M50 58h19M90 58h20M140 58h20M170 58h60M240 58h60M310 58h20M370 58h60M50 59h20M90 59h20M140 59h20M170 59h60M240 59h60M310 59h20M370 59h60M50 60h20M90 60h6M97 60h13M140 60h20M170 60h20M210 60h20M240 60h20M280 60h20M310 60h20M370 60h20M410 60h20M50 61h20M90 61h20M140 61h20M170 61h20M210 61h20M240 61h20M280 61h20M310 61h20M370 61h20M410 61h20M50 62h20M90 62h20M140 62h20M170 62h20M210 62h20M240 62h20M280 62h20M310 62h20M370 62h20M410 62h20M50 63h20M90 63h20M140 63h20M170 63h20M210 63h20M240 63h20M280 63h20M310 63h20M370 63h20M410 63h20M50 64h20M90 64h20M140 64h20M170 64h20M210 64h20M240 64h20M280 64h20M310 64h20M370 64h20M410 64h20M50 65h20M90 65h20M140 65h20M170 65h20M210 65h20M240 65h20M280 65h20M310 65h20M370 65h20M410 65h20M50 66h20M90 66h20M141 66h19M170 66h20M210 66h20M240 66h20M280 66h20M310 66h20M370 66h20M410 66h3M414 66h16M50 67h20M90 67h20M140 67h20M170 67h20M210 67h20M240 67h20M280 67h20M310 67h20M370 67h20M410 67h20M50 68h20M90 68h20M140 68h20M170 68h20M210 68h20M240 68h20M280 68h20M310 68h20M370 68h20M410 68h20M50 69h20M90 69h20M140 69h20M170 69h20M210 69h20M240 69h20M280 69h20M310 69h20M370 69h20M410 69h20M50 70h20M90 70h20M140 70h20M170 70h20M210 70h20M240 70h20M280 70h20M310 70h20M370 70h20M410 70h20M50 71h20M90 71h20M140 71h20M170 71h20M210 71h20M240 71h20M280 71h20M310 71h20M370 71h20M410 71h20M50 72h20M90 72h20M140 72h20M170 72h20M210 72h20M240 72h20M280 72h20M310 72h20M370 72h20M410 72h20M50 73h20M90 73h6M97 73h13M140 73h20M170 73h20M210 73h20M240 73h20M280 73h20M310 73h20M370 73h20M410 73h20M50 74h20M90 74h20M140 74h20M170 74h20M210 74h20M240 74h20M280 74h20M310 74h20M370 74h20M410 74h20M50 75h20M90 75h20M140 75h20M170 75h20M210 75h20M240 75h20M280 75h20M310 75h20M370 75h20M410 75h20M50 76h20M90 76h20M140 76h20M170 76h20M210 76h20M240 76h20M280 76h20M310 76h20M370 76h20M410 76h20M50 77h20M90 77h20M140 77h20M170 77h20M210 77h20M240 77h20M280 77h8M289 77h11M310 77h20M370 77h20M410 77h20M50 78h20M90 78h20M140 78h20M170 78h20M210 78h20M240 78h20M280 78h20M310 78h20M370 78h20M410 78h20M50 79h20M90 79h2M93 79h17M140 79h20M170 79h20M210 79h20M240 79h20M280 79h20M310 79h20M370 79h20M410 79h20M60 80h20M90 80h30M130 80h20M170 80h20M210 80h20M240 80h60M310 80h20M370 80h20M410 80h20M60 81h20M90 81h30M130 81h20M170 81h20M210 81h20M240 81h60M310 81h20M370 81h20M410 81h20M60 82h20M90 82h30M130 82h20M170 82h20M210 82h20M240 82h60M310 82h20M370 82h20M410 82h20M60 83h20M90 83h23M114 83h6M130 83h20M170 83h20M210 83h20M240 83h60M310 83h20M370 83h20M410 83h20M60 84h20M90 84h25M116 84h4M130 84h20M170 84h20M210 84h20M240 84h14M255 84h45M310 84h20M370 84h20M410 84h20M60 85h20M90 85h28M119 85h1M130 85h20M170 85h20M210 85h20M240 85h60M310 85h20M370 85h20M410 85h20M60 86h20M90 86h30M130 86h20M170 86h20M210 86h20M240 86h60M310 86h20M370 86h20M410 86h20M60 87h20M90 87h30M130 87h20M170 87h20M210 87h20M240 87h28M269 87h31M310 87h20M370 87h20M410 87h20M60 88h20M90 88h30M130 88h20M170 88h20M210 88h20M240 88h60M310 88h20M370 88h20M410 88h20M60 89h20M90 89h30M130 89h20M170 89h20M210 89h20M240 89h60M310 89h20M370 89h20M410 89h20M60 90h20M90 90h30M130 90h20M170 90h20M210 90h20M240 90h50M310 90h20M370 90h20M410 90h20M60 91h20M90 91h30M130 91h20M170 91h20M210 91h20M240 91h50M310 91h20M370 91h20M410 91h20M60 92h20M90 92h30M130 92h20M170 92h20M210 92h20M240 92h50M310 92h20M370 92h20M410 92h4M415 92h15M60 93h20M90 93h30M130 93h20M170 93h20M210 93h20M240 93h50M310 93h20M370 93h20M410 93h20M60 94h20M90 94h30M130 94h20M170 94h20M210 94h20M240 94h50M310 94h20M370 94h20M410 94h20M60 95h20M90 95h30M130 95h20M170 95h20M210 95h20M240 95h50M310 95h20M370 95h20M410 95h20M60 96h20M90 96h30M130 96h20M170 96h20M210 96h20M240 96h50M310 96h20M370 96h20M410 96h20M60 97h20M90 97h30M130 97h20M170 97h20M210 97h20M240 97h50M310 97h20M370 97h20M410 97h20M60 98h10M71 98h9M90 98h30M130 98h20M170 98h20M210 98h20M240 98h19M260 98h30M310 98h20M370 98h20M410 98h20M60 99h20M90 99h30M130 99h20M170 99h20M210 99h20M240 99h50M310 99h20M370 99h20M410 99h20M60 100h20M90 100h30M130 100h20M170 100h20M210 100h20M240 100h20M280 100h20M310 100h20M370 100h20M410 100h20M60 101h20M90 101h30M130 101h20M170 101h20M210 101h20M240 101h20M280 101h20M310 101h20M370 101h20M410 101h20M60 102h20M90 102h30M130 102h20M170 102h20M210 102h20M240 102h3M244 102h16M280 102h20M310 102h20M370 102h20M410 102h20M60 103h20M90 103h30M130 103h20M170 103h20M210 103h20M240 103h20M280 103h20M310 103h20M370 103h20M410 103h20M60 104h20M90 104h30M130 104h20M170 104h20M210 104h20M240 104h20M280 104h20M310 104h20M370 104h20M410 104h20M60 105h20M90 105h30M130 105h2M133 105h17M170 105h20M210 105h20M240 105h20M280 105h20M310 105h20M370 105h20M410 105h20M60 106h20M90 106h30M130 106h20M170 106h20M210 106h20M240 106h20M280 106h20M310 106h20M370 106h20M410 106h20M60 107h20M90 107h30M130 107h20M170 107h20M210 107h20M240 107h20M280 107h20M310 107h20M370 107h20M410 107h20M60 108h20M90 108h30M130 108h20M170 108h20M210 108h20M240 108h20M280 108h20M310 108h20M370 108h20M410 108h20M60 109h20M90 109h30M130 109h20M170 109h20M210 109h20M240 109h20M280 109h20M310 109h20M370 109h20M410 109h20M60 110h40M110 110h40M170 110h20M210 110h20M240 110h20M280 110h20M310 110h20M370 110h20M410 110h20M60 111h40M110 111h40M170 111h20M210 111h20M240 111h20M280 111h20M310 111h20M370 111h20M410 111h20M60 112h40M110 112h40M170 112h20M210 112h20M240 112h20M280 112h20M310 112h20M370 112h20M410 112h20M60 113h40M110 113h40M170 113h20M210 113h20M240 113h20M280 113h20M310 113h20M370 113h20M410 113h20M60 114h40M110 114h40M170 114h20M210 114h20M240 114h20M280 114h20M310 114h20M370 114h20M410 114h20M60 115h40M110 115h40M170 115h20M210 115h20M240 115h20M280 115h20M310 115h20M370 115h20M410 115h20M60 116h40M110 116h40M170 116h20M210 116h20M240 116h20M280 116h20M310 116h20M370 116h20M410 116h20M60 117h40M110 117h40M170 117h20M210 117h20M240 117h20M280 117h20M310 117h20M370 117h20M410 117h20M60 118h40M110 118h40M170 118h20M210 118h20M240 118h20M280 118h20M310 118h20M370 118h20M410 118h20M60 119h40M110 119h40M170 119h20M210 119h20M240 119h20M280 119h20M310 119h20M370 119h20M410 119h20M70 120h30M110 120h30M170 120h23M194 120h36M240 120h20M280 120h20M310 120h50M370 120h60M70 121h30M110 121h30M170 121h60M240 121h20M280 121h20M310 121h50M370 121h60M70 122h30M110 122h30M170 122h60M240 122h20M280 122h20M310 122h50M370 122h60M70 123h30M110 123h30M170 123h16M187 123h43M240 123h20M280 123h20M310 123h50M370 123h60M70 124h30M110 124h30M170 124h60M240 124h20M280 124h20M310 124h50M370 124h60M70 125h30M110 125h30M170 125h60M240 125h20M280 125h20M310 125h50M370 125h60M70 126h30M110 126h30M170 126h60M240 126h20M280 126h20M310 126h50M370 126h60M70 127h30M110 127h30M170 127h60M240 127h20M280 127h20M310 127h50M370 127h60M70 128h30M110 128h30M170 128h60M240 128h20M280 128h20M310 128h50M370 128h60M70 129h30M110 129h30M170 129h60M240 129h20M280 129h20M310 129h50M370 129h60M70 130h20M120 130h20M180 130h40M240 130h20M280 130h20M310 130h50M370 130h50M70 131h20M120 131h20M180 131h40M240 131h20M280 131h20M310 131h50M370 131h50M70 132h20M120 132h20M180 132h40M240 132h20M280 132h1M282 132h18M310 132h50M370 132h3M374 132h2M377 132h43M70 133h20M120 133h20M180 133h40M240 133h20M280 133h20M310 133h50M370 133h50M70 134h20M120 134h20M180 134h40M240 134h20M280 134h20M310 134h50M370 134h50M70 135h20M120 135h20M180 135h27M208 135h12M240 135h20M280 135h20M310 135h50M370 135h50M70 136h20M120 136h20M180 136h40M240 136h20M280 136h20M310 136h50M370 136h50M70 137h20M120 137h20M180 137h40M240 137h20M280 137h20M310 137h50M370 137h50M70 138h20M120 138h20M180 138h40M240 138h20M280 138h20M310 138h50M370 138h50M70 139h20M120 139h20M180 139h40M240 139h20M280 139h20M310 139h50M370 139h50" />
<path stroke="#fbf237" d="M152 41h1M176 53h1M140 66h1M413 66h1M92 79h1M113 83h1M254 84h1M281 132h1" />
<path stroke="#faf236" d="M384 44h1M207 46h1M69 58h1M96 60h1M96 73h1M288 77h1M414 92h1M243 102h1M132 105h1M186 123h1M207 135h1" />
<path stroke="#fbf336" d="M115 84h1M118 85h1M268 87h1M70 98h1M259 98h1M193 120h1M373 132h1M376 132h1" />
<path stroke="#000000" d="M190 150h30M300 150h30M190 151h30M300 151h30M190 152h30M300 152h30M190 153h30M300 153h27M328 153h2M190 154h30M300 154h30M190 155h30M300 155h30M190 156h30M300 156h30M190 157h30M300 157h30M190 158h30M300 158h30M190 159h30M300 159h30M180 160h10M220 160h10M290 160h10M330 160h10M420 160h10M180 161h10M220 161h10M290 161h10M330 161h10M420 161h10M180 162h10M220 162h10M290 162h10M330 162h10M420 162h10M180 163h10M220 163h10M290 163h10M330 163h10M420 163h10M180 164h10M220 164h10M290 164h10M330 164h10M420 164h10M180 165h10M220 165h10M290 165h10M330 165h10M420 165h10M180 166h10M220 166h10M290 166h10M330 166h10M420 166h10M180 167h10M220 167h10M290 167h10M330 167h10M420 167h10M180 168h10M220 168h10M290 168h10M330 168h10M420 168h10M180 169h10M220 169h10M290 169h10M330 169h10M420 169h10M140 170h10M170 170h10M200 170h10M230 170h10M290 170h10M330 170h10M420 170h10M140 171h10M170 171h10M200 171h10M230 171h10M290 171h10M330 171h10M420 171h5M426 171h4M140 172h10M170 172h10M200 172h10M230 172h10M290 172h10M330 172h10M420 172h10M140 173h10M170 173h10M200 173h10M230 173h10M290 173h10M330 173h10M420 173h10M140 174h10M170 174h10M200 174h10M230 174h10M290 174h10M330 174h10M420 174h10M140 175h10M170 175h10M200 175h10M230 175h10M290 175h10M330 175h10M420 175h10M140 176h10M170 176h10M200 176h10M230 176h10M290 176h10M330 176h10M420 176h10M140 177h10M170 177h10M200 177h10M230 177h10M290 177h10M330 177h10M420 177h10M140 178h10M170 178h10M200 178h10M230 178h10M290 178h10M330 178h10M420 178h10M140 179h10M170 179h10M200 179h10M230 179h10M290 179h10M330 179h10M420 179h10M70 180h20M100 180h20M130 180h10M180 180h10M220 180h10M290 180h10M330 180h10M400 180h30M70 181h20M100 181h20M130 181h10M180 181h10M220 181h10M290 181h10M330 181h10M400 181h30M70 182h20M100 182h20M130 182h10M180 182h10M220 182h10M290 182h10M330 182h10M400 182h30M70 183h20M100 183h20M130 183h10M180 183h10M220 183h10M290 183h10M330 183h10M400 183h30M70 184h20M100 184h20M130 184h10M180 184h10M220 184h10M290 184h10M330 184h10M400 184h30M70 185h20M100 185h20M130 185h10M180 185h10M220 185h10M290 185h10M330 185h10M400 185h30M70 186h20M100 186h20M130 186h10M180 186h10M220 186h10M290 186h10M330 186h10M400 186h30M70 187h20M100 187h20M130 187h10M180 187h10M220 187h10M290 187h10M330 187h10M400 187h30M70 188h20M100 188h20M130 188h10M180 188h10M220 188h10M290 188h10M330 188h10M400 188h30M70 189h20M100 189h20M130 189h10M180 189h10M220 189h10M290 189h10M330 189h10M400 189h30M60 190h10M90 190h10M120 190h10M190 190h30M280 190h33M314 190h36M400 190h5M406 190h4M60 191h10M90 191h10M120 191h10M190 191h30M280 191h70M400 191h10M60 192h10M90 192h10M120 192h10M190 192h30M280 192h70M400 192h10M60 193h10M90 193h10M120 193h10M190 193h30M280 193h70M400 193h10M60 194h10M90 194h10M120 194h10M190 194h30M280 194h70M400 194h10M60 195h10M90 195h10M120 195h10M190 195h30M280 195h70M400 195h10M60 196h10M90 196h10M120 196h10M190 196h30M280 196h70M400 196h10M60 197h10M90 197h10M120 197h10M190 197h30M280 197h70M400 197h10M60 198h10M90 198h10M120 198h10M190 198h30M280 198h70M400 198h10M60 199h10M90 199h10M120 199h10M190 199h30M280 199h70M400 199h10M60 200h10M120 200h10M280 200h70M380 200h30M60 201h10M120 201h10M280 201h70M380 201h30M60 202h10M120 202h10M280 202h70M380 202h30M60 203h10M120 203h10M280 203h70M380 203h30M60 204h10M120 204h9M280 204h70M380 204h30M60 205h10M120 205h10M280 205h70M380 205h30M60 206h10M120 206h10M280 206h70M380 206h30M60 207h10M120 207h10M280 207h70M380 207h30M60 208h10M120 208h10M280 208h70M380 208h1M382 208h28M60 209h10M120 209h10M280 209h70M380 209h30M70 210h10M110 210h10M380 210h10M70 211h10M110 211h10M380 211h10M70 212h10M110 212h10M380 212h10M70 213h10M110 213h10M380 213h10M70 214h10M110 214h10M380 214h10M70 215h10M110 215h10M380 215h10M70 216h10M110 216h10M380 216h10M70 217h10M110 217h10M380 217h10M70 218h10M110 218h10M380 218h10M70 219h10M110 219h10M380 219h10M60 220h10M80 220h10M100 220h10M60 221h10M80 221h10M100 221h10M60 222h10M80 222h10M100 222h10M60 223h10M80 223h10M100 223h10M60 224h10M80 224h10M100 224h10M60 225h10M80 225h10M100 225h10M60 226h10M80 226h10M100 226h10M60 227h10M80 227h10M100 227h10M60 228h10M80 228h10M100 228h10M60 229h10M80 229h10M100 229h10M50 230h10M90 230h10M350 230h10M430 230h10M50 231h10M90 231h10M350 231h10M430 231h10M50 232h10M90 232h10M350 232h10M430 232h10M50 233h10M90 233h10M350 233h10M430 233h10M50 234h10M90 234h10M350 234h10M430 234h10M50 235h10M90 235h10M350 235h10M430 235h10M50 236h10M90 236h10M350 236h10M430 236h10M50 237h10M90 237h10M350 237h10M430 237h10M50 238h10M90 238h10M350 238h10M430 238h10M50 239h10M90 239h10M350 239h10M430 239h10M360 240h10M380 240h30M420 240h10M360 241h10M380 241h30M420 241h10M360 242h10M380 242h30M420 242h10M360 243h10M380 243h30M420 243h10M360 244h10M380 244h30M420 244h10M360 245h10M380 245h30M420 245h10M360 246h10M380 246h30M420 246h10M360 247h10M380 247h30M420 247h10M360 248h10M380 248h30M420 248h10M360 249h10M380 249h30M420 249h10M370 250h50M370 251h50M370 252h50M370 253h50M370 254h50M370 255h50M370 256h50M370 257h50M370 258h50M370 259h50M100 260h10M360 260h20M390 260h10M410 260h20M100 261h10M360 261h20M390 261h10M410 261h20M100 262h10M360 262h20M390 262h10M410 262h20M100 263h10M360 263h20M390 263h10M410 263h20M100 264h10M360 264h20M390 264h10M410 264h20M100 265h10M360 265h20M390 265h10M410 265h20M100 266h10M360 266h3M364 266h16M390 266h10M410 266h20M100 267h10M360 267h20M390 267h10M410 267h20M100 268h10M360 268h20M390 268h10M410 268h20M100 269h10M360 269h20M390 269h10M410 269h20M80 270h40M360 270h30M400 270h30M80 271h40M360 271h30M400 271h30M80 272h40M360 272h30M400 272h30M80 273h40M360 273h30M400 273h30M80 274h30M111 274h9M360 274h30M400 274h30M80 275h40M360 275h30M400 275h30M80 276h40M360 276h30M400 276h30M80 277h40M360 277h30M400 277h30M80 278h40M360 278h30M400 278h30M80 279h40M360 279h30M400 279h30M60 280h10M80 280h10M120 280h10M370 280h20M400 280h20M60 281h10M80 281h10M120 281h10M370 281h20M400 281h20M60 282h10M80 282h10M120 282h10M370 282h20M400 282h20M60 283h10M80 283h10M120 283h10M370 283h20M400 283h20M60 284h10M80 284h10M120 284h10M370 284h20M400 284h20M60 285h10M80 285h10M120 285h10M370 285h20M400 285h20M60 286h10M80 286h10M120 286h10M370 286h20M400 286h20M60 287h10M80 287h10M120 287h10M370 287h20M400 287h20M60 288h10M80 288h10M120 288h10M370 288h20M400 288h20M60 289h10M80 289h10M120 289h10M370 289h20M400 289h20M50 290h20M90 290h10M120 290h10M360 290h10M380 290h30M420 290h10M50 291h20M90 291h10M120 291h10M360 291h10M380 291h30M420 291h10M50 292h20M90 292h10M120 292h10M360 292h10M380 292h30M420 292h10M50 293h20M90 293h10M120 293h10M360 293h10M380 293h30M420 293h10M50 294h20M90 294h10M120 294h10M360 294h10M380 294h30M420 294h10M50 295h20M90 295h10M120 295h10M360 295h10M380 295h30M420 295h10M50 296h20M90 296h10M120 296h10M360 296h10M380 296h9M390 296h20M420 296h10M50 297h20M90 297h10M120 297h10M360 297h10M380 297h30M420 297h10M50 298h20M90 298h10M120 298h10M360 298h10M380 298h30M420 298h10M50 299h20M90 299h10M120 299h10M360 299h10M380 299h30M420 299h10M40 300h10M60 300h10M80 300h10M120 300h10M350 300h10M380 300h10M400 300h10M430 300h10M40 301h10M60 301h10M80 301h10M120 301h10M350 301h10M380 301h10M400 301h10M430 301h10M40 302h10M60 302h10M80 302h10M120 302h10M350 302h10M380 302h10M400 302h10M430 302h10M40 303h10M60 303h10M80 303h10M120 303h10M350 303h10M380 303h10M400 303h10M430 303h10M40 304h10M60 304h10M80 304h10M120 304h10M350 304h10M380 304h10M400 304h10M430 304h10M40 305h10M60 305h10M80 305h10M120 305h10M350 305h10M380 305h10M400 305h10M430 305h10M40 306h10M60 306h10M80 306h10M120 306h10M350 306h10M380 306h10M400 306h10M430 306h10M40 307h10M60 307h10M80 307h10M120 307h10M350 307h10M380 307h10M400 307h10M430 307h10M40 308h10M60 308h10M80 308h10M120 308h10M350 308h10M380 308h10M400 308h10M430 308h10M40 309h10M60 309h10M80 309h10M120 309h10M350 309h10M380 309h10M400 309h10M430 309h10M30 310h40M80 310h40M30 311h40M80 311h40M30 312h40M80 312h40M30 313h40M80 313h40M30 314h40M80 314h40M30 315h40M80 315h40M30 316h40M80 316h40M30 317h40M80 317h40M30 318h2M33 318h37M80 318h40M30 319h40M80 319h40M60 320h10M100 320h10M60 321h10M100 321h10M60 322h10M100 322h10M60 323h10M100 323h10M60 324h10M100 324h10M60 325h10M100 325h10M60 326h10M100 326h10M60 327h10M100 327h10M60 328h10M100 328h10M60 329h10M100 329h10M40 330h90M40 331h90M40 332h90M40 333h90M40 334h90M40 335h90M40 336h90M40 337h90M40 338h90M40 339h90M50 340h10M110 340h10M350 340h30M420 340h20M50 341h10M110 341h10M350 341h30M420 341h20M50 342h10M110 342h10M350 342h30M420 342h20M50 343h10M110 343h10M350 343h30M420 343h20M50 344h10M110 344h10M350 344h30M420 344h20M50 345h10M110 345h10M350 345h30M420 345h20M50 346h10M110 346h10M350 346h30M420 346h20M50 347h10M110 347h10M350 347h30M420 347h20M50 348h10M110 348h10M350 348h30M420 348h20M50 349h10M110 349h10M350 349h30M420 349h20M60 350h50M350 350h30M410 350h40M60 351h50M350 351h30M410 351h40M60 352h50M350 352h30M410 352h40M60 353h50M350 353h30M410 353h40M60 354h50M350 354h30M410 354h40M60 355h50M350 355h30M410 355h40M60 356h50M350 356h30M410 356h40M60 357h50M350 357h28M379 357h1M410 357h40M60 358h50M350 358h30M410 358h40M60 359h50M350 359h30M410 359h40M350 360h30M410 360h40M350 361h30M410 361h40M350 362h30M410 362h40M350 363h12M363 363h17M410 363h40M350 364h30M410 364h40M350 365h30M410 365h40M350 366h30M410 366h40M350 367h30M410 367h40M350 368h30M410 368h40M350 369h30M410 369h40M340 370h10M380 370h10M420 370h20M340 371h10M380 371h10M420 371h20M340 372h10M380 372h10M420 372h20M340 373h10M380 373h10M420 373h20M340 374h10M380 374h10M420 374h20M340 375h10M380 375h10M420 375h20M340 376h10M380 376h10M420 376h20M340 377h10M380 377h10M420 377h20M340 378h10M380 378h10M420 378h5M426 378h14M340 379h10M380 379h10M420 379h20M330 380h10M390 380h10M420 380h20M330 381h10M390 381h10M420 381h20M330 382h10M390 382h10M420 382h20M330 383h10M390 383h10M420 383h20M330 384h10M390 384h10M420 384h20M330 385h10M390 385h10M420 385h20M330 386h10M390 386h10M420 386h20M330 387h10M390 387h10M420 387h20M330 388h10M390 388h10M420 388h20M330 389h10M390 389h10M420 389h20M60 390h30M100 390h10M120 390h20M330 390h70M420 390h20M60 391h30M100 391h10M120 391h20M330 391h70M420 391h20M60 392h30M100 392h10M120 392h20M330 392h70M420 392h20M60 393h30M100 393h10M120 393h20M330 393h70M420 393h20M60 394h18M79 394h11M100 394h10M120 394h20M330 394h70M420 394h20M60 395h30M100 395h10M120 395h20M330 395h70M420 395h20M60 396h30M100 396h10M120 396h20M330 396h70M420 396h20M60 397h30M100 397h10M120 397h20M330 397h70M420 397h20M60 398h30M100 398h10M120 398h20M330 398h70M420 398h20M60 399h30M100 399h10M120 399h20M330 399h70M420 399h20M60 400h10M80 400h10M100 400h10M120 400h10M140 400h10M330 400h10M390 400h10M60 401h10M80 401h10M100 401h10M120 401h10M140 401h10M330 401h10M390 401h10M60 402h10M80 402h10M100 402h10M120 402h10M140 402h10M330 402h10M390 402h10M60 403h10M80 403h10M100 403h10M120 403h10M140 403h10M330 403h10M390 403h10M60 404h10M80 404h10M100 404h10M120 404h10M140 404h10M330 404h10M390 404h10M60 405h10M80 405h10M100 405h10M120 405h10M140 405h10M330 405h10M390 405h10M60 406h10M80 406h10M100 406h10M120 406h10M140 406h10M330 406h10M390 406h10M60 407h10M80 407h10M100 407h10M120 407h10M140 407h10M330 407h10M390 407h10M60 408h10M80 408h10M100 408h10M120 408h10M140 408h10M330 408h10M390 408h10M60 409h10M80 409h10M100 409h10M120 409h10M140 409h10M330 409h10M390 409h10M60 410h20M100 410h10M120 410h20M220 410h10M330 410h70M60 411h20M100 411h10M120 411h20M220 411h10M330 411h70M60 412h20M100 412h10M120 412h20M220 412h10M330 412h70M60 413h20M100 413h10M120 413h20M220 413h10M330 413h70M60 414h20M100 414h10M120 414h20M220 414h10M330 414h70M60 415h20M100 415h10M120 415h20M220 415h10M330 415h70M60 416h20M100 416h10M120 416h20M220 416h10M330 416h70M60 417h20M100 417h10M120 417h20M220 417h10M330 417h70M60 418h20M100 418h10M120 418h20M220 418h10M330 418h70M60 419h20M100 419h10M120 419h20M220 419h10M330 419h70M60 420h10M80 420h10M100 420h10M120 420h7M128 420h2M180 420h120M330 420h10M390 420h10M60 421h10M80 421h10M100 421h10M120 421h10M180 421h120M330 421h10M390 421h10M60 422h10M80 422h10M100 422h10M120 422h10M180 422h120M330 422h10M390 422h10M60 423h10M80 423h10M100 423h10M120 423h10M180 423h120M330 423h10M390 423h10M60 424h10M80 424h10M100 424h10M120 424h10M180 424h120M330 424h10M390 424h10M60 425h10M80 425h10M100 425h10M120 425h10M180 425h120M330 425h10M390 425h10M60 426h10M80 426h10M100 426h10M120 426h10M180 426h120M330 426h10M390 426h10M60 427h10M80 427h10M100 427h10M120 427h10M180 427h120M330 427h10M390 427h10M60 428h10M80 428h10M100 428h10M120 428h10M180 428h120M330 428h10M390 428h10M60 429h10M80 429h10M100 429h10M120 429h10M180 429h120M330 429h10M390 429h10M60 430h10M80 430h10M100 430h10M120 430h10M180 430h110M340 430h16M357 430h33M60 431h10M80 431h10M100 431h10M120 431h10M180 431h110M340 431h27M368 431h22M60 432h10M80 432h10M100 432h10M120 432h10M180 432h110M340 432h50M60 433h10M80 433h10M100 433h10M120 433h10M180 433h110M340 433h50M60 434h10M80 434h10M100 434h10M120 434h10M180 434h110M340 434h50M60 435h10M80 435h10M100 435h10M120 435h10M180 435h110M340 435h50M60 436h10M80 436h10M100 436h10M120 436h10M180 436h110M340 436h50M60 437h10M80 437h10M100 437h10M120 437h10M180 437h110M340 437h50M60 438h10M80 438h10M100 438h10M120 438h10M180 438h110M340 438h50M60 439h10M80 439h10M100 439h10M120 439h10M180 439h14M195 439h95M340 439h50M220 440h10M220 441h10M220 442h10M220 443h10M220 444h10M220 445h10M220 446h10M220 447h10M220 448h10M220 449h10" />
<path stroke="#010000" d="M327 153h1M405 190h1M129 204h1M381 208h1M363 266h1M378 357h1M78 394h1" />
<path stroke="#000001" d="M425 171h1M110 274h1M389 296h1M32 318h1M362 363h1M425 378h1M356 430h1M194 439h1" />
<path stroke="#000100" d="M313 190h1M127 420h1M367 431h1" />
<path stroke="#272727" d="M220 210h10M240 210h10M220 211h10M240 211h10M220 212h10M240 212h10M220 213h10M240 213h10M220 214h10M240 214h10M220 215h10M240 215h10M220 216h10M240 216h10M220 217h10M240 217h10M220 218h10M240 218h10M220 219h10M240 219h10M190 220h10M210 220h10M230 220h10M250 220h10M270 220h10M190 221h10M210 221h10M230 221h10M250 221h10M270 221h10M190 222h10M210 222h10M231 222h9M250 222h10M270 222h10M190 223h10M210 223h10M230 223h10M250 223h10M270 223h10M190 224h10M210 224h10M230 224h10M250 224h10M270 224h10M190 225h10M210 225h10M230 225h10M250 225h10M270 225h10M190 226h10M210 226h10M230 226h10M250 226h10M270 226h10M190 227h10M210 227h10M230 227h10M250 227h10M270 227h10M190 228h10M210 228h10M230 228h10M250 228h10M270 228h10M190 229h10M210 229h10M230 229h10M250 229h10M270 229h10M180 230h10M200 230h10M260 230h10M280 230h10M180 231h10M200 231h10M260 231h10M280 231h10M180 232h10M200 232h10M260 232h10M280 232h10M180 233h10M200 233h10M260 233h10M280 233h10M180 234h10M200 234h10M260 234h10M280 234h10M180 235h10M200 235h10M260 235h10M280 235h10M180 236h10M200 236h10M260 236h10M280 236h10M180 237h10M200 237h10M260 237h10M280 237h10M180 238h10M200 238h10M260 238h10M280 238h10M180 239h10M200 239h10M260 239h10M280 239h10M170 240h10M290 240h10M170 241h10M290 241h10M170 242h10M290 242h10M170 243h10M290 243h10M170 244h10M290 244h10M170 245h10M290 245h10M170 246h10M290 246h10M170 247h10M290 247h10M170 248h10M290 248h10M170 249h10M290 249h10M160 250h10M300 250h10M160 251h10M300 251h10M160 252h10M300 252h10M160 253h10M300 253h10M160 254h10M300 254h10M160 255h10M300 255h10M160 256h10M300 256h10M160 257h10M300 257h10M160 258h10M300 258h10M160 259h10M300 259h10M160 260h10M300 260h10M160 261h10M300 261h10M160 262h10M300 262h10M160 263h10M300 263h10M160 264h10M300 264h10M160 265h10M300 265h10M160 266h10M300 266h10M160 267h10M300 267h10M160 268h10M300 268h10M160 269h10M300 269h10M150 270h10M310 270h10M150 271h10M310 271h10M150 272h10M310 272h10M150 273h10M310 273h10M150 274h10M310 274h10M150 275h10M310 275h10M150 276h10M310 276h10M150 277h10M310 277h10M150 278h10M310 278h10M150 279h10M310 279h10M150 280h10M310 280h10M150 281h10M310 281h10M150 282h10M310 282h10M150 283h10M310 283h10M150 284h10M310 284h10M150 285h10M310 285h10M150 286h10M310 286h10M150 287h10M310 287h10M150 288h10M310 288h10M150 289h10M310 289h10M150 290h10M210 290h10M250 290h10M310 290h10M150 291h10M210 291h10M250 291h10M310 291h10M150 292h10M210 292h10M250 292h10M310 292h10M150 293h10M210 293h10M250 293h10M310 293h10M150 294h10M210 294h10M250 294h10M310 294h10M150 295h10M210 295h10M250 295h10M310 295h10M150 296h10M210 296h10M250 296h10M310 296h10M150 297h10M210 297h10M250 297h10M310 297h10M150 298h10M210 298h10M250 298h10M310 298h10M150 299h10M210 299h10M250 299h10M310 299h10M150 300h10M230 300h10M310 300h10M150 301h10M230 301h10M310 301h10M150 302h10M230 302h10M310 302h10M150 303h10M230 303h10M310 303h10M150 304h10M230 304h10M310 304h10M150 305h10M230 305h10M310 305h10M150 306h10M230 306h10M310 306h10M150 307h10M230 307h10M310 307h10M150 308h10M230 308h10M310 308h10M150 309h10M230 309h10M310 309h10M150 310h10M190 310h2M193 310h17M220 310h10M310 310h10M150 311h10M190 311h20M220 311h10M310 311h10M150 312h10M190 312h20M220 312h10M310 312h10M150 313h10M190 313h20M220 313h10M310 313h10M150 314h10M190 314h20M220 314h10M310 314h10M150 315h10M190 315h20M220 315h10M310 315h10M150 316h10M190 316h20M220 316h10M310 316h10M150 317h10M190 317h20M220 317h10M310 317h10M150 318h10M190 318h20M220 318h10M310 318h10M150 319h10M190 319h20M220 319h10M310 319h10M150 320h10M190 320h30M310 320h10M150 321h10M190 321h30M310 321h10M150 322h10M190 322h30M310 322h10M150 323h10M190 323h30M310 323h10M150 324h10M190 324h30M310 324h10M150 325h10M190 325h30M310 325h10M150 326h10M190 326h30M310 326h10M150 327h10M190 327h30M310 327h10M150 328h10M190 328h30M310 328h10M150 329h10M190 329h30M310 329h7M318 329h2M150 330h10M220 330h30M310 330h10M150 331h10M220 331h30M310 331h10M150 332h10M220 332h30M310 332h10M150 333h10M220 333h30M310 333h10M150 334h10M220 334h30M310 334h10M150 335h10M220 335h30M310 335h10M150 336h10M220 336h30M310 336h10M150 337h10M220 337h30M310 337h10M150 338h10M220 338h30M310 338h10M150 339h10M220 339h30M310 339h10M150 340h10M230 340h10M310 340h10M150 341h10M230 341h10M310 341h10M150 342h10M230 342h10M310 342h10M150 343h10M230 343h10M310 343h10M150 344h10M230 344h10M310 344h10M150 345h10M230 345h10M310 345h10M150 346h10M230 346h10M310 346h10M150 347h10M230 347h10M310 347h10M150 348h10M230 348h10M310 348h10M150 349h10M230 349h10M310 349h10M150 350h10M310 350h10M150 351h10M310 351h10M150 352h10M310 352h10M150 353h10M310 353h10M150 354h10M310 354h10M150 355h10M310 355h10M150 356h10M310 356h10M150 357h10M310 357h10M150 358h10M310 358h10M150 359h10M310 359h10M150 360h10M190 360h10M270 360h10M310 360h10M150 361h10M190 361h10M270 361h10M310 361h10M150 362h10M190 362h10M270 362h10M310 362h10M150 363h10M190 363h10M270 363h10M310 363h10M150 364h10M190 364h10M270 364h10M310 364h10M150 365h10M190 365h10M270 365h10M310 365h10M150 366h10M190 366h10M270 366h10M310 366h10M150 367h10M190 367h10M270 367h10M310 367h10M150 368h10M190 368h10M270 368h10M310 368h10M150 369h10M190 369h10M270 369h10M310 369h10M160 370h10M190 370h10M210 370h10M250 370h10M270 370h10M300 370h10M160 371h10M190 371h10M210 371h10M250 371h10M270 371h10M300 371h10M160 372h10M190 372h10M210 372h10M250 372h10M270 372h10M300 372h10M160 373h10M190 373h10M210 373h10M250 373h10M270 373h10M300 373h10M160 374h10M190 374h10M210 374h10M250 374h10M270 374h10M300 374h10M160 375h10M190 375h10M210 375h10M250 375h10M270 375h10M300 375h10M160 376h10M190 376h10M210 376h10M250 376h10M270 376h10M300 376h10M160 377h10M190 377h10M210 377h10M250 377h10M270 377h10M300 377h10M160 378h10M190 378h10M210 378h10M250 378h10M270 378h10M300 378h10M160 379h10M190 379h10M210 379h10M250 379h10M270 379h10M300 379h10M170 380h30M210 380h50M270 380h30M170 381h30M210 381h22M233 381h27M270 381h30M170 382h30M210 382h50M270 382h30M170 383h30M210 383h45M256 383h4M270 383h30M170 384h30M210 384h50M270 384h30M170 385h30M210 385h50M270 385h30M170 386h30M210 386h50M270 386h30M170 387h30M210 387h50M270 387h30M170 388h30M210 388h50M270 388h30M170 389h28M199 389h1M210 389h50M270 389h30M200 390h10M260 390h10M200 391h10M260 391h10M200 392h10M260 392h10M200 393h10M260 393h10M200 394h10M260 394h10M200 395h10M260 395h10M200 396h10M260 396h10M200 397h10M260 397h10M200 398h10M260 398h10M200 399h10M260 399h10" />
<path stroke="#0033ff" d="M220 220h10M240 220h10M220 221h10M240 221h10M220 222h10M240 222h10M220 223h10M240 223h10M220 224h10M240 224h10M220 225h10M240 225h10M220 226h10M240 226h10M220 227h10M240 227h10M220 228h10M240 228h10M220 229h10M240 229h10M190 230h10M210 230h50M270 230h10M190 231h10M210 231h50M270 231h10M190 232h10M210 232h50M270 232h10M190 233h10M210 233h50M270 233h10M190 234h10M210 234h50M270 234h10M190 235h10M210 235h50M270 235h10M190 236h10M210 236h50M270 236h10M190 237h10M210 237h50M270 237h10M190 238h10M210 238h50M270 238h10M190 239h10M210 239h50M270 239h10M180 240h110M180 241h110M180 242h110M180 243h110M180 244h110M180 245h108M289 245h1M180 246h110M180 247h110M180 248h109M180 249h110M170 250h130M170 251h130M170 252h130M170 253h96M267 253h33M170 254h130M170 255h130M170 256h130M170 257h130M170 258h130M170 259h22M193 259h107M170 260h130M170 261h130M170 262h105M276 262h24M170 263h130M170 264h130M170 265h130M170 266h130M170 267h130M170 268h130M170 269h130M160 270h20M210 270h50M290 270h20M160 271h20M210 271h50M290 271h20M160 272h20M210 272h50M290 272h20M160 273h20M210 273h37M248 273h12M290 273h20M160 274h20M210 274h14M225 274h35M290 274h20M160 275h20M210 275h50M290 275h20M160 276h20M210 276h50M290 276h20M160 277h20M210 277h50M290 277h20M160 278h20M210 278h50M290 278h20M160 279h20M210 279h50M290 279h20M160 280h20M290 280h20M160 281h20M290 281h20M160 282h20M290 282h20M160 283h20M290 283h20M160 284h20M290 284h20M160 285h20M290 285h20M160 286h20M290 286h20M160 287h20M290 287h20M160 288h20M290 288h20M160 289h20M290 289h20M160 290h30M280 290h30M160 291h30M280 291h30M160 292h30M280 292h30M160 293h30M280 293h30M160 294h30M280 294h30M160 295h30M280 295h30M160 296h30M280 296h30M160 297h30M280 297h30M160 298h30M280 298h30M160 299h30M280 299h30M160 300h20M290 300h20M160 301h20M290 301h20M160 302h20M290 302h20M160 303h20M290 303h20M160 304h20M290 304h20M160 305h20M290 305h20M160 306h20M290 306h20M160 307h20M290 307h20M160 308h20M290 308h20M160 309h20M290 309h20M160 310h10M300 310h10M160 311h10M300 311h10M160 312h10M300 312h10M160 313h10M300 313h10M160 314h10M300 314h10M160 315h10M300 315h10M160 316h10M300 316h10M160 317h10M300 317h10M160 318h10M300 318h10M160 319h10M300 319h10M160 320h10M300 320h10M160 321h10M300 321h10M160 322h10M300 322h10M160 323h10M300 323h10M160 324h10M300 324h10M160 325h10M300 325h10M160 326h10M300 326h10M160 327h10M300 327h10M160 328h10M300 328h10M160 329h10M300 329h10M160 330h10M300 330h10M160 331h10M300 331h6M307 331h3M160 332h10M300 332h10M160 333h10M300 333h10M160 334h10M300 334h10M160 335h10M300 335h10M160 336h10M300 336h10M160 337h10M300 337h10M160 338h10M300 338h10M160 339h10M300 339h10M160 340h10M300 340h10M160 341h10M300 341h10M160 342h10M300 342h10M160 343h10M300 343h10M160 344h10M300 344h10M160 345h10M300 345h10M160 346h10M300 346h10M160 347h10M300 347h10M160 348h10M300 348h10M160 349h10M300 349h10M160 350h10M300 350h10M160 351h10M300 351h10M160 352h10M300 352h10M160 353h10M300 353h10M160 354h10M300 354h10M160 355h10M300 355h10M160 356h10M300 356h10M160 357h10M300 357h10M160 358h10M300 358h10M160 359h10M300 359h10M160 360h10M300 360h10M160 361h10M300 361h10M160 362h10M300 362h10M160 363h10M300 363h10M160 364h10M300 364h10M160 365h10M300 365h10M160 366h10M300 366h10M160 367h10M300 367h10M160 368h10M300 368h10M160 369h10M300 369h10M170 370h10M290 370h10M170 371h10M290 371h10M170 372h10M290 372h10M170 373h10M290 373h10M170 374h10M290 374h10M170 375h10M290 375h10M170 376h10M290 376h10M170 377h10M290 377h10M170 378h10M290 378h10M170 379h10M290 379h10" />
<path stroke="#272726" d="M230 222h1M317 329h1" />
<path stroke="#0133ff" d="M288 245h1M192 259h1M306 331h1" />
<path stroke="#0032ff" d="M289 248h1M247 273h1" />
<path stroke="#0033fe" d="M266 253h1M275 262h1M224 274h1" />
<path stroke="#7a6d53" d="M180 270h30M260 270h30M180 271h30M260 271h30M180 272h30M260 272h30M180 273h30M260 273h30M180 274h30M260 274h16M277 274h13M180 275h30M260 275h30M180 276h30M260 276h30M180 277h30M260 277h30M180 278h30M260 278h30M180 279h30M260 279h30M180 280h20M270 280h20M180 281h20M270 281h20M180 282h2M183 282h17M270 282h20M180 283h20M270 283h20M180 284h20M270 284h20M180 285h20M270 285h20M180 286h20M270 286h20M180 287h20M270 287h20M180 288h20M270 288h20M180 289h20M270 289h20M220 290h10M240 290h10M220 291h10M240 291h10M220 292h10M240 292h10M220 293h10M240 293h10M220 294h10M240 294h10M220 295h10M240 295h10M220 296h10M240 296h10M220 297h10M240 297h10M220 298h10M240 298h10M220 299h10M240 299h10M250 320h10M250 321h10M250 322h10M250 323h10M250 324h10M250 325h10M250 326h10M250 327h10M250 328h10M250 329h10M210 330h10M250 330h6M257 330h3M210 331h10M250 331h10M210 332h10M250 332h10M210 333h10M250 333h10M210 334h10M250 334h10M210 335h10M250 335h10M210 336h10M250 336h10M210 337h10M250 337h10M210 338h10M250 338h10M210 339h10M250 339h10M210 340h10M250 340h10M210 341h10M250 341h10M210 342h10M250 342h10M210 343h10M250 343h10M210 344h10M250 344h10M210 345h10M250 345h10M210 346h10M250 346h10M210 347h10M250 347h10M210 348h10M250 348h10M210 349h10M250 349h10" />
<path stroke="#7b6d53" d="M276 274h1" />
<path stroke="#fae7d9" d="M200 280h69M200 281h70M200 282h70M200 283h70M200 284h70M200 285h70M200 286h70M200 287h70M200 288h70M200 289h70M190 290h20M230 290h5M236 290h4M260 290h20M190 291h20M230 291h10M260 291h20M190 292h20M230 292h10M260 292h20M190 293h20M230 293h10M260 293h20M190 294h20M230 294h10M260 294h20M190 295h20M230 295h10M260 295h20M190 296h20M230 296h10M260 296h20M190 297h20M230 297h10M260 297h20M190 298h20M230 298h10M260 298h20M190 299h20M230 299h10M260 299h20M180 300h50M240 300h50M180 301h50M240 301h50M180 302h50M240 302h50M180 303h50M240 303h50M180 304h50M240 304h50M180 305h50M240 305h50M180 306h8M189 306h41M240 306h50M180 307h50M240 307h50M180 308h50M240 308h50M180 309h50M240 309h50M170 310h20M210 310h10M230 310h70M170 311h20M210 311h10M230 311h70M170 312h20M210 312h10M230 312h70M170 313h20M210 313h10M230 313h14M245 313h55M170 314h20M210 314h10M230 314h70M170 315h20M210 315h10M230 315h70M170 316h20M210 316h10M230 316h70M170 317h20M210 317h10M230 317h70M170 318h20M210 318h10M230 318h70M170 319h10M181 319h9M210 319h10M230 319h70M170 320h20M220 320h30M260 320h40M170 321h20M220 321h30M260 321h40M170 322h20M220 322h30M260 322h40M170 323h20M220 323h30M260 323h40M170 324h20M220 324h30M260 324h40M170 325h20M220 325h30M260 325h40M170 326h20M220 326h30M260 326h40M170 327h20M220 327h30M260 327h40M170 328h20M220 328h30M260 328h40M170 329h20M220 329h30M260 329h40M170 330h40M260 330h40M170 331h40M260 331h40M170 332h40M260 332h40M170 333h40M260 333h40M170 334h40M260 334h40M170 335h40M260 335h40M170 336h40M260 336h40M170 337h40M260 337h40M170 338h40M260 338h40M170 339h40M260 339h40M170 340h40M260 340h40M170 341h40M260 341h40M170 342h40M260 342h40M170 343h40M260 343h40M170 344h40M260 344h40M170 345h40M260 345h12M273 345h27M170 346h40M260 346h40M170 347h40M260 347h40M170 348h40M260 348h40M170 349h40M260 349h40M170 350h130M170 351h130M170 352h130M170 353h130M170 354h130M170 355h130M170 356h130M170 357h109M280 357h20M170 358h41M212 358h88M170 359h130M170 360h20M200 360h70M280 360h20M170 361h20M200 361h70M280 361h20M170 362h20M200 362h69M280 362h20M170 363h20M200 363h70M280 363h20M170 364h20M200 364h70M280 364h20M170 365h20M200 365h70M280 365h20M170 366h14M185 366h5M200 366h70M280 366h20M170 367h20M200 367h68M269 367h1M280 367h20M170 368h20M200 368h70M280 368h20M170 369h20M200 369h70M280 369h20M180 370h10M200 370h10M220 370h30M260 370h10M280 370h10M180 371h10M200 371h10M220 371h30M260 371h10M280 371h10M180 372h10M200 372h10M220 372h30M260 372h10M280 372h10M180 373h10M200 373h10M220 373h30M260 373h10M280 373h10M180 374h10M200 374h10M220 374h30M260 374h10M280 374h10M180 375h10M200 375h10M220 375h30M260 375h10M280 375h10M180 376h10M200 376h10M220 376h30M260 376h10M280 376h10M180 377h10M200 377h10M220 377h30M260 377h10M280 377h10M180 378h10M200 378h10M220 378h30M260 378h10M280 378h10M180 379h10M200 379h10M220 379h11M232 379h18M260 379h10M280 379h10M200 380h10M260 380h10M200 381h10M260 381h10M200 382h10M260 382h10M200 383h10M260 383h10M200 384h10M260 384h10M200 385h10M260 385h10M200 386h10M260 386h10M200 387h10M260 387h10M200 388h10M260 388h10M200 389h10M260 389h10" />
<path stroke="#fae7d8" d="M269 280h1M188 306h1M272 345h1M269 362h1" />
<path stroke="#7a6d52" d="M182 282h1" />
<path stroke="#fae6d9" d="M235 290h1M244 313h1M211 358h1M184 366h1M268 367h1" />
<path stroke="#262727" d="M192 310h1M255 383h1M198 389h1" />
<path stroke="#fbe7d9" d="M180 319h1M279 357h1M231 379h1" />
<path stroke="#7a6c53" d="M256 330h1" />
<path stroke="#272627" d="M232 381h1" />
</svg>