<svg xmlns="http://www.w3.org/2000/svg" viewBox="0 -0.5 480 480" shape-rendering="crispEdges">
<metadata>Made with Pixels to Svg https://codepen.io/shshaw/pen/XbxvNj</metadata>
<path stroke="#339966" d="M0 0h480M0 1h50M51 1h429M0 2h143M144 2h336M0 3h480M0 4h150M151 4h135M287 4h25M313 4h167M0 5h145M146 5h334M0 6h480M0 7h480M0 8h480M0 9h107M108 9h372M0 10h10M470 10h10M0 11h10M470 11h10M0 12h10M470 12h10M0 13h10M470 13h10M0 14h10M470 14h10M0 15h10M470 15h10M0 16h10M470 16h10M0 17h10M470 17h10M0 18h10M470 18h10M0 19h10M470 19h10M0 20h10M20 20h440M470 20h10M0 21h10M20 21h323M344 21h116M470 21h10M0 22h10M20 22h440M470 22h10M0 23h10M20 23h333M354 23h106M470 23h10M0 24h10M20 24h221M242 24h218M470 24h10M0 25h10M20 25h270M291 25h169M470 25h10M0 26h10M20 26h124M145 26h315M470 26h10M0 27h10M20 27h440M470 27h10M0 28h10M20 28h440M470 28h10M1 29h9M20 29h440M470 29h10M0 30h10M20 30h460M0 31h10M20 31h460M0 32h10M20 32h69M90 32h390M0 33h10M20 33h132M153 33h327M0 34h10M20 34h460M0 35h10M20 35h460M0 36h10M20 36h312M333 36h136M470 36h10M0 37h10M20 37h460M0 38h10M20 38h460M0 39h10M20 39h460M0 40h10M20 40h30M70 40h20M110 40h30M160 40h20M220 40h20M290 40h20M330 40h40M420 40h40M470 40h10M0 41h10M20 41h30M70 41h20M110 41h30M160 41h20M220 41h20M290 41h20M330 41h40M420 41h40M470 41h10M0 42h10M20 42h30M70 42h20M110 42h30M160 42h20M220 42h20M290 42h20M330 42h40M420 42h40M470 42h10M0 43h10M20 43h30M70 43h20M110 43h30M160 43h20M220 43h20M290 43h20M330 43h40M420 43h40M470 43h10M0 44h10M20 44h30M70 44h20M110 44h30M160 44h20M220 44h20M290 44h20M330 44h40M420 44h40M470 44h10M0 45h10M20 45h30M70 45h20M110 45h30M160 45h20M220 45h20M290 45h20M330 45h40M420 45h40M470 45h10M0 46h10M20 46h30M70 46h20M110 46h30M160 46h20M220 46h20M290 46h20M330 46h40M420 46h40M470 46h10M0 47h10M20 47h30M70 47h20M110 47h30M160 47h20M220 47h20M290 47h20M330 47h40M420 47h40M470 47h10M0 48h10M20 48h30M70 48h20M110 48h30M160 48h20M220 48h20M290 48h20M330 48h40M420 48h40M470 48h10M0 49h10M20 49h30M70 49h20M110 49h30M160 49h20M220 49h20M290 49h20M330 49h40M420 49h40M470 49h10M0 50h10M20 50h30M70 50h20M110 50h30M160 50h10M230 50h10M300 50h10M330 50h40M430 50h50M0 51h10M20 51h30M70 51h20M110 51h30M160 51h10M230 51h10M300 51h10M330 51h40M430 51h50M0 52h10M20 52h30M70 52h20M110 52h30M160 52h10M230 52h10M300 52h10M330 52h40M430 52h50M0 53h10M20 53h12M33 53h17M70 53h20M110 53h30M160 53h10M230 53h10M300 53h10M330 53h40M430 53h50M0 54h10M20 54h30M70 54h20M110 54h30M160 54h10M230 54h10M300 54h10M330 54h40M430 54h50M0 55h10M20 55h30M70 55h20M110 55h30M160 55h10M230 55h10M300 55h10M330 55h40M430 55h50M0 56h10M20 56h30M70 56h20M110 56h30M160 56h10M230 56h10M300 56h10M330 56h40M430 56h50M0 57h10M20 57h30M70 57h20M110 57h30M160 57h10M230 57h10M300 57h10M330 57h40M430 57h50M0 58h1M2 58h8M20 58h30M70 58h20M110 58h30M160 58h10M230 58h10M300 58h10M330 58h32M363 58h7M430 58h50M0 59h10M20 59h30M70 59h20M110 59h30M160 59h10M230 59h10M300 59h10M330 59h40M430 59h50M0 60h10M20 60h30M70 60h20M110 60h30M160 60h10M190 60h20M230 60h10M260 60h20M300 60h10M330 60h40M390 60h20M430 60h30M470 60h10M0 61h10M20 61h30M70 61h20M110 61h30M160 61h10M190 61h20M230 61h10M260 61h20M300 61h10M330 61h40M390 61h20M430 61h30M470 61h10M0 62h10M20 62h30M70 62h20M110 62h30M160 62h10M190 62h20M230 62h10M260 62h20M300 62h10M330 62h40M390 62h20M430 62h30M470 62h10M0 63h10M20 63h30M70 63h20M110 63h30M160 63h10M190 63h20M230 63h10M260 63h20M300 63h10M330 63h40M390 63h20M430 63h30M470 63h10M0 64h10M20 64h30M70 64h20M110 64h30M160 64h10M190 64h20M230 64h10M260 64h20M300 64h10M330 64h40M390 64h20M430 64h30M470 64h10M0 65h10M20 65h30M70 65h20M110 65h30M160 65h10M190 65h20M230 65h10M260 65h20M300 65h10M330 65h40M390 65h20M430 65h30M470 65h10M0 66h10M20 66h30M70 66h20M110 66h30M160 66h10M190 66h20M230 66h10M260 66h20M300 66h4M305 66h5M330 66h40M390 66h20M430 66h30M470 66h10M0 67h10M20 67h30M70 67h20M110 67h30M160 67h10M190 67h20M230 67h10M260 67h20M300 67h10M330 67h40M390 67h20M430 67h30M470 67h10M0 68h10M20 68h30M70 68h20M110 68h28M139 68h1M160 68h10M190 68h20M230 68h10M260 68h20M300 68h10M330 68h40M390 68h20M430 68h30M470 68h10M0 69h10M20 69h30M70 69h20M110 69h30M160 69h10M190 69h20M230 69h10M260 69h20M300 69h10M330 69h32M363 69h7M390 69h20M430 69h30M470 69h10M0 70h10M20 70h30M70 70h20M110 70h30M160 70h10M190 70h20M230 70h10M260 70h20M300 70h10M330 70h40M390 70h20M430 70h8M439 70h41M0 71h10M20 71h30M70 71h20M110 71h30M160 71h10M190 71h20M230 71h10M260 71h20M300 71h10M330 71h40M390 71h20M430 71h50M0 72h10M20 72h30M70 72h20M110 72h30M160 72h10M190 72h20M230 72h10M260 72h20M300 72h10M330 72h40M390 72h20M430 72h50M0 73h10M20 73h30M70 73h20M110 73h30M160 73h10M190 73h20M230 73h10M260 73h20M300 73h10M330 73h40M390 73h20M430 73h50M0 74h10M20 74h30M70 74h20M110 74h30M160 74h10M190 74h20M230 74h10M260 74h20M300 74h10M330 74h40M390 74h8M399 74h11M430 74h50M0 75h10M20 75h30M70 75h20M110 75h30M160 75h10M190 75h20M230 75h10M260 75h20M300 75h10M330 75h40M390 75h20M430 75h50M0 76h10M20 76h30M70 76h20M110 76h30M160 76h10M190 76h20M230 76h10M260 76h20M300 76h10M330 76h40M390 76h20M430 76h9M440 76h40M0 77h10M20 77h30M70 77h20M110 77h30M160 77h10M190 77h3M194 77h16M230 77h10M260 77h20M300 77h10M330 77h40M390 77h20M430 77h50M0 78h10M20 78h12M33 78h17M70 78h20M110 78h30M160 78h10M190 78h20M230 78h10M260 78h20M300 78h10M330 78h40M390 78h20M430 78h50M0 79h10M20 79h30M70 79h20M110 79h30M160 79h10M190 79h20M230 79h10M260 79h20M300 79h10M330 79h40M390 79h20M430 79h50M0 80h10M20 80h40M80 80h10M120 80h10M150 80h20M190 80h20M230 80h10M300 80h10M330 80h40M390 80h20M430 80h30M470 80h10M0 81h10M20 81h40M80 81h10M120 81h10M150 81h20M190 81h20M230 81h10M300 81h10M330 81h40M390 81h20M430 81h30M470 81h10M0 82h10M20 82h40M80 82h10M120 82h10M150 82h20M190 82h20M230 82h10M300 82h10M330 82h40M390 82h20M430 82h30M470 82h10M0 83h10M20 83h40M80 83h10M120 83h10M150 83h20M190 83h20M230 83h10M300 83h10M330 83h40M390 83h20M430 83h30M470 83h10M0 84h10M20 84h40M80 84h10M120 84h10M150 84h20M190 84h20M230 84h1M232 84h8M300 84h10M330 84h40M390 84h20M430 84h30M470 84h10M0 85h10M20 85h40M80 85h10M120 85h10M150 85h20M190 85h20M230 85h10M300 85h10M330 85h40M390 85h20M430 85h30M470 85h10M0 86h10M20 86h40M80 86h10M120 86h10M150 86h20M190 86h20M230 86h10M300 86h10M330 86h40M390 86h20M430 86h30M470 86h10M0 87h10M20 87h40M80 87h10M120 87h10M150 87h20M190 87h20M230 87h10M300 87h10M330 87h40M390 87h20M430 87h30M470 87h10M0 88h10M20 88h40M80 88h10M120 88h10M150 88h20M190 88h20M230 88h10M300 88h10M330 88h40M390 88h20M430 88h30M470 88h10M0 89h10M20 89h40M80 89h10M120 89h10M150 89h20M190 89h20M230 89h10M300 89h10M330 89h40M390 89h20M430 89h30M470 89h10M0 90h10M20 90h40M80 90h10M120 90h10M150 90h20M190 90h20M230 90h10M290 90h20M330 90h40M390 90h20M430 90h50M0 91h10M20 91h40M80 91h10M120 91h10M150 91h20M190 91h20M230 91h10M290 91h13M304 91h6M330 91h40M390 91h20M430 91h50M0 92h10M20 92h40M80 92h10M120 92h10M150 92h4M155 92h15M190 92h20M230 92h10M290 92h20M330 92h40M390 92h20M430 92h50M0 93h10M20 93h40M80 93h10M120 93h10M150 93h20M190 93h20M230 93h10M290 93h20M330 93h40M390 93h20M430 93h50M0 94h10M20 94h40M80 94h10M120 94h10M150 94h20M190 94h20M230 94h10M290 94h20M330 94h40M390 94h20M430 94h50M0 95h10M20 95h40M80 95h10M120 95h10M150 95h20M190 95h20M230 95h10M290 95h20M330 95h40M390 95h20M430 95h50M0 96h10M20 96h40M80 96h10M120 96h10M150 96h20M190 96h20M230 96h10M290 96h20M330 96h40M390 96h20M430 96h50M0 97h10M20 97h40M80 97h10M120 97h10M150 97h20M190 97h20M230 97h10M290 97h20M330 97h40M390 97h20M430 97h50M0 98h10M20 98h40M80 98h10M120 98h2M123 98h7M150 98h20M190 98h20M230 98h10M290 98h20M330 98h40M390 98h20M430 98h50M0 99h10M20 99h40M80 99h10M120 99h10M150 99h20M190 99h20M230 99h10M290 99h20M330 99h40M390 99h20M430 99h50M0 100h10M20 100h40M80 100h10M120 100h10M150 100h20M190 100h20M230 100h10M260 100h20M300 100h10M330 100h40M390 100h20M430 100h30M470 100h10M0 101h10M20 101h40M80 101h10M120 101h10M150 101h20M190 101h20M230 101h10M260 101h20M300 101h10M330 101h40M390 101h20M430 101h30M470 101h10M0 102h10M20 102h40M80 102h10M120 102h10M150 102h20M190 102h20M230 102h10M260 102h20M300 102h10M330 102h40M390 102h20M430 102h30M470 102h10M0 103h10M20 103h40M80 103h10M120 103h10M150 103h20M190 103h20M230 103h10M260 103h20M300 103h10M330 103h40M390 103h20M430 103h30M470 103h10M0 104h10M20 104h40M80 104h10M120 104h10M150 104h20M190 104h20M230 104h10M260 104h20M300 104h10M330 104h40M390 104h20M430 104h30M470 104h10M0 105h10M20 105h40M80 105h10M120 105h10M150 105h20M190 105h19M230 105h10M260 105h20M300 105h10M330 105h40M390 105h20M430 105h30M470 105h10M0 106h10M20 106h40M80 106h10M120 106h10M150 106h20M190 106h20M230 106h10M260 106h20M300 106h10M330 106h40M390 106h20M430 106h30M470 106h10M0 107h10M20 107h40M80 107h10M120 107h10M150 107h20M190 107h20M230 107h10M260 107h20M300 107h10M330 107h40M390 107h20M430 107h30M470 107h10M0 108h10M20 108h40M80 108h10M120 108h10M150 108h20M190 108h20M230 108h10M260 108h20M300 108h10M330 108h40M390 108h20M430 108h30M470 108h10M0 109h10M20 109h40M80 109h10M120 109h10M150 109h20M190 109h20M230 109h10M260 109h20M300 109h10M330 109h40M390 109h20M430 109h30M470 109h10M0 110h10M20 110h8M29 110h31M100 110h10M150 110h20M190 110h20M230 110h10M260 110h20M300 110h10M330 110h40M390 110h12M403 110h7M430 110h30M470 110h10M0 111h10M20 111h40M100 111h10M150 111h20M190 111h20M230 111h10M260 111h20M300 111h10M330 111h40M390 111h2M393 111h17M430 111h30M470 111h10M0 112h10M20 112h40M100 112h10M150 112h20M190 112h20M230 112h10M260 112h20M300 112h10M330 112h40M390 112h20M430 112h30M470 112h10M0 113h10M20 113h40M100 113h10M150 113h20M190 113h20M230 113h10M260 113h20M300 113h10M330 113h40M390 113h20M430 113h30M470 113h10M0 114h10M20 114h40M100 114h10M150 114h20M190 114h20M230 114h10M260 114h20M300 114h10M330 114h40M390 114h20M430 114h30M470 114h10M0 115h10M20 115h40M100 115h10M150 115h20M190 115h20M230 115h10M260 115h20M300 115h10M330 115h40M390 115h20M430 115h30M470 115h10M0 116h10M20 116h40M100 116h10M150 116h20M190 116h20M230 116h10M260 116h20M300 116h10M330 116h40M390 116h20M430 116h30M470 116h10M0 117h10M20 117h34M55 117h5M100 117h10M150 117h20M190 117h20M230 117h10M260 117h20M300 117h10M330 117h40M390 117h20M430 117h30M470 117h10M0 118h10M20 118h40M100 118h10M150 118h20M190 118h20M230 118h10M260 118h20M300 118h10M330 118h40M390 118h20M430 118h30M470 118h10M0 119h10M20 119h40M100 119h10M150 119h20M190 119h20M230 119h10M260 119h20M300 119h10M330 119h40M390 119h20M430 119h30M470 119h10M0 120h10M20 120h50M100 120h10M140 120h30M230 120h10M260 120h15M276 120h4M300 120h10M360 120h10M430 120h30M470 120h10M0 121h10M20 121h50M100 121h10M140 121h30M230 121h10M260 121h20M300 121h10M360 121h10M430 121h30M470 121h10M0 122h10M20 122h50M100 122h10M140 122h30M230 122h10M260 122h20M300 122h10M360 122h10M430 122h30M470 122h10M0 123h10M20 123h50M100 123h10M140 123h30M230 123h10M260 123h20M300 123h10M360 123h10M430 123h30M470 123h10M0 124h10M20 124h50M100 124h10M140 124h30M230 124h10M260 124h20M300 124h10M360 124h10M430 124h30M470 124h10M0 125h10M20 125h50M100 125h10M140 125h30M230 125h10M260 125h20M300 125h10M360 125h10M430 125h30M470 125h10M0 126h10M20 126h50M100 126h10M140 126h30M230 126h10M260 126h20M300 126h10M360 126h10M430 126h30M470 126h10M0 127h10M20 127h50M100 127h10M140 127h30M230 127h10M260 127h20M300 127h10M360 127h10M430 127h30M470 127h10M0 128h10M20 128h50M100 128h10M140 128h30M230 128h10M260 128h20M300 128h10M360 128h10M430 128h30M470 128h10M0 129h10M20 129h15M36 129h34M100 129h10M140 129h30M230 129h10M260 129h20M300 129h10M360 129h10M430 129h30M470 129h10M0 130h10M20 130h50M90 130h30M140 130h40M220 130h20M260 130h20M300 130h10M360 130h10M420 130h40M470 130h10M0 131h10M20 131h50M90 131h30M140 131h40M220 131h20M260 131h20M300 131h10M360 131h10M420 131h40M470 131h10M0 132h10M20 132h50M90 132h30M140 132h40M220 132h20M260 132h20M300 132h10M360 132h10M420 132h40M470 132h10M0 133h10M20 133h50M90 133h30M140 133h40M220 133h20M260 133h20M300 133h10M360 133h10M420 133h40M470 133h10M0 134h10M20 134h50M90 134h30M140 134h40M220 134h20M260 134h20M300 134h10M360 134h10M420 134h40M470 134h10M0 135h10M20 135h50M90 135h30M140 135h40M220 135h20M260 135h20M300 135h10M360 135h10M420 135h40M470 135h10M0 136h10M20 136h50M90 136h30M140 136h40M220 136h20M260 136h20M300 136h10M360 136h10M420 136h40M470 136h10M0 137h10M20 137h50M90 137h30M140 137h40M220 137h20M260 137h20M300 137h10M360 137h10M420 137h40M470 137h10M0 138h10M20 138h50M90 138h30M140 138h40M220 138h20M260 138h20M300 138h10M360 138h3M364 138h6M420 138h21M442 138h18M470 138h10M0 139h10M20 139h50M90 139h30M140 139h40M220 139h20M260 139h20M300 139h10M360 139h10M420 139h40M470 139h10M0 140h10M20 140h440M470 140h10M0 141h10M20 141h440M470 141h10M0 142h10M20 142h440M470 142h10M0 143h10M20 143h440M470 143h10M0 144h10M20 144h14M35 144h252M288 144h98M387 144h73M470 144h10M0 145h10M20 145h440M470 145h10M0 146h10M20 146h440M470 146h10M0 147h10M20 147h440M470 147h10M0 148h10M20 148h440M470 148h10M0 149h10M20 149h304M325 149h135M470 149h10M0 150h10M20 150h10M31 150h90M122 150h75M198 150h114M313 150h147M470 150h10M0 151h10M20 151h440M470 151h10M0 152h10M20 152h83M104 152h356M470 152h10M0 153h10M20 153h399M420 153h40M470 153h10M0 154h10M20 154h440M470 154h10M0 155h10M20 155h440M470 155h10M0 156h10M20 156h45M66 156h394M470 156h10M0 157h10M20 157h440M470 157h10M0 158h10M20 158h440M470 158h10M0 159h10M20 159h211M232 159h228M470 159h10M0 160h10M20 160h80M130 160h210M370 160h90M470 160h10M0 161h10M20 161h80M130 161h210M370 161h90M470 161h10M0 162h10M20 162h80M130 162h210M370 162h37M408 162h52M470 162h10M0 163h10M20 163h80M130 163h210M370 163h90M470 163h10M0 164h10M20 164h80M130 164h210M370 164h90M470 164h10M0 165h10M20 165h80M130 165h145M276 165h64M370 165h90M470 165h10M0 166h10M20 166h80M130 166h210M370 166h90M470 166h10M0 167h10M20 167h16M37 167h63M130 167h210M370 167h90M470 167h10M0 168h10M20 168h80M130 168h210M370 168h90M470 168h10M0 169h10M20 169h80M130 169h210M370 169h90M470 169h10M0 170h10M20 170h70M140 170h190M380 170h80M470 170h10M0 171h10M20 171h70M140 171h2M143 171h187M380 171h80M470 171h10M0 172h10M20 172h70M140 172h190M380 172h80M470 172h10M0 173h10M20 173h70M140 173h190M380 173h80M470 173h10M0 174h10M20 174h70M140 174h190M380 174h80M470 174h10M0 175h10M20 175h70M140 175h60M201 175h129M380 175h80M470 175h10M0 176h10M20 176h70M140 176h190M380 176h80M470 176h10M0 177h10M20 177h70M140 177h190M380 177h80M470 177h10M0 178h10M20 178h70M140 178h8M149 178h181M380 178h80M470 178h10M0 179h10M20 179h70M140 179h190M380 179h80M470 179h10M0 180h10M20 180h70M100 180h10M121 180h9M140 180h80M230 180h100M340 180h10M360 180h10M380 180h80M470 180h10M0 181h10M20 181h70M100 181h10M120 181h10M140 181h80M230 181h29M260 181h68M329 181h1M340 181h10M360 181h10M380 181h80M470 181h10M0 182h3M4 182h6M20 182h70M100 182h10M120 182h10M140 182h80M230 182h100M340 182h10M360 182h10M380 182h80M470 182h10M0 183h10M20 183h70M100 183h10M120 183h6M127 183h3M140 183h80M230 183h100M340 183h10M360 183h10M380 183h80M470 183h10M0 184h10M20 184h70M100 184h10M120 184h10M140 184h80M230 184h100M340 184h10M360 184h10M380 184h80M470 184h10M0 185h10M20 185h70M100 185h10M120 185h10M140 185h80M230 185h79M310 185h20M340 185h10M360 185h10M380 185h80M470 185h10M0 186h10M20 186h70M100 186h10M120 186h10M140 186h80M230 186h100M340 186h10M360 186h10M380 186h80M470 186h10M0 187h10M20 187h70M100 187h10M120 187h10M140 187h80M230 187h100M340 187h10M360 187h10M380 187h80M470 187h10M0 188h10M20 188h70M100 188h10M120 188h10M140 188h5M146 188h35M182 188h38M230 188h100M340 188h10M360 188h10M380 188h80M470 188h10M0 189h10M20 189h70M100 189h10M120 189h10M140 189h80M230 189h100M340 189h10M360 189h10M380 189h80M470 189h10M0 190h10M20 190h70M140 190h70M240 190h90M380 190h80M470 190h10M0 191h10M20 191h70M140 191h70M240 191h90M380 191h80M470 191h10M0 192h10M20 192h70M140 192h70M240 192h90M380 192h80M470 192h10M0 193h10M20 193h70M140 193h70M240 193h90M380 193h80M470 193h10M0 194h10M20 194h70M140 194h70M240 194h90M380 194h80M470 194h10M0 195h10M20 195h70M140 195h70M240 195h90M380 195h80M470 195h10M0 196h10M20 196h70M140 196h70M240 196h90M380 196h80M470 196h10M0 197h10M20 197h56M77 197h13M140 197h70M240 197h90M380 197h80M470 197h10M0 198h10M20 198h70M140 198h70M240 198h90M380 198h80M470 198h10M0 199h10M20 199h70M140 199h70M241 199h89M380 199h80M470 199h10M0 200h10M20 200h50M80 200h10M110 200h10M140 200h80M250 200h80M350 200h10M380 200h10M400 200h60M470 200h10M0 201h10M20 201h50M80 201h10M110 201h10M140 201h80M250 201h80M350 201h10M380 201h10M400 201h60M470 201h10M0 202h10M20 202h50M80 202h10M110 202h10M140 202h80M250 202h80M350 202h10M380 202h10M400 202h60M470 202h10M0 203h10M20 203h50M80 203h10M110 203h10M140 203h80M250 203h80M350 203h10M380 203h10M400 203h60M470 203h10M0 204h10M20 204h48M69 204h1M80 204h10M110 204h10M140 204h80M250 204h80M350 204h10M380 204h10M400 204h60M470 204h10M0 205h10M20 205h50M80 205h10M110 205h10M140 205h80M250 205h80M350 205h10M380 205h10M400 205h4M405 205h55M470 205h10M0 206h10M20 206h50M80 206h10M110 206h10M140 206h80M250 206h80M350 206h10M380 206h10M400 206h60M470 206h10M0 207h10M20 207h50M80 207h10M110 207h10M140 207h80M250 207h80M350 207h10M380 207h10M400 207h60M470 207h10M1 208h9M20 208h50M80 208h10M110 208h10M140 208h80M250 208h80M350 208h10M380 208h10M400 208h60M470 208h10M0 209h10M20 209h22M43 209h27M80 209h10M110 209h10M140 209h80M250 209h80M350 209h10M380 209h10M400 209h60M470 209h10M0 210h10M20 210h50M140 210h40M290 210h40M400 210h60M470 210h10M0 211h10M20 211h50M140 211h40M290 211h40M400 211h60M470 211h10M0 212h10M20 212h50M140 212h40M290 212h40M400 212h60M470 212h10M0 213h10M20 213h50M140 213h40M290 213h40M400 213h12M413 213h47M470 213h10M0 214h10M20 214h50M140 214h40M290 214h40M400 214h60M470 214h10M0 215h10M20 215h50M140 215h40M290 215h40M400 215h60M470 215h10M0 216h10M20 216h50M140 216h40M290 216h40M400 216h60M470 216h10M0 217h10M20 217h50M140 217h40M290 217h40M400 217h60M470 217h10M0 218h10M20 218h50M140 218h40M290 218h40M400 218h60M470 218h10M0 219h10M20 219h50M140 219h40M290 219h40M400 219h60M470 219h10M0 220h10M20 220h60M130 220h40M300 220h40M390 220h70M470 220h10M0 221h10M20 221h60M130 221h40M300 221h35M336 221h4M390 221h70M470 221h10M0 222h10M20 222h60M130 222h40M300 222h40M390 222h70M470 222h10M1 223h9M20 223h60M130 223h40M300 223h40M390 223h70M470 223h10M0 224h10M20 224h60M130 224h40M300 224h40M390 224h70M470 224h10M0 225h10M20 225h60M130 225h40M300 225h40M390 225h70M470 225h10M1 226h9M20 226h60M130 226h40M300 226h22M323 226h17M390 226h70M470 226h10M0 227h6M7 227h3M20 227h60M130 227h40M300 227h40M390 227h70M470 227h10M0 228h10M20 228h60M130 228h14M145 228h25M300 228h40M390 228h70M470 228h10M0 229h10M20 229h60M130 229h40M300 229h40M390 229h70M470 229h10M0 230h10M20 230h140M310 230h150M470 230h10M0 231h10M20 231h140M310 231h150M470 231h10M0 232h10M20 232h140M310 232h150M470 232h10M0 233h10M20 233h140M310 233h150M470 233h10M0 234h10M20 234h140M310 234h150M470 234h10M0 235h10M20 235h140M310 235h150M470 235h10M0 236h10M20 236h140M310 236h136M447 236h13M470 236h6M477 236h3M0 237h10M20 237h140M310 237h150M470 237h10M0 238h10M20 238h140M310 238h33M344 238h91M436 238h19M456 238h4M470 238h10M0 239h10M20 239h140M310 239h150M470 239h10M0 240h10M20 240h130M320 240h140M470 240h10M0 241h10M20 241h51M72 241h78M320 241h140M470 241h10M0 242h10M20 242h130M320 242h140M470 242h10M0 243h10M20 243h130M320 243h140M470 243h10M0 244h10M20 244h130M320 244h140M470 244h10M0 245h10M20 245h130M320 245h140M470 245h10M0 246h10M20 246h40M61 246h89M320 246h140M470 246h10M0 247h10M20 247h130M320 247h140M470 247h10M0 248h10M20 248h130M320 248h140M470 248h10M0 249h10M20 249h49M70 249h80M320 249h140M470 249h10M0 250h10M20 250h130M320 250h140M470 250h10M0 251h10M20 251h130M320 251h140M470 251h10M0 252h10M20 252h130M320 252h140M470 252h10M0 253h10M20 253h130M320 253h140M470 253h10M0 254h10M20 254h81M102 254h48M320 254h140M470 254h10M0 255h10M20 255h130M320 255h140M470 255h10M0 256h10M20 256h130M320 256h140M470 256h10M0 257h10M20 257h29M50 257h100M320 257h140M470 257h10M0 258h10M20 258h130M320 258h140M470 258h10M0 259h10M20 259h130M320 259h23M344 259h116M470 259h10M0 260h10M20 260h50M100 260h50M320 260h50M400 260h60M470 260h10M0 261h10M20 261h50M100 261h50M320 261h50M400 261h60M470 261h10M0 262h10M20 262h50M100 262h50M320 262h50M400 262h60M470 262h10M0 263h10M20 263h50M100 263h50M320 263h50M400 263h60M470 263h10M0 264h10M20 264h50M100 264h50M320 264h50M400 264h60M470 264h10M0 265h10M20 265h50M100 265h50M320 265h42M363 265h7M400 265h60M470 265h10M0 266h10M20 266h50M100 266h50M320 266h50M400 266h60M470 266h10M0 267h10M20 267h50M100 267h50M320 267h50M400 267h60M470 267h10M0 268h10M20 268h50M100 268h50M320 268h50M400 268h60M470 268h10M0 269h10M20 269h50M100 269h50M320 269h50M400 269h60M470 269h10M0 270h10M20 270h40M110 270h40M320 270h40M410 270h50M470 270h8M479 270h1M0 271h10M20 271h40M110 271h40M320 271h40M410 271h50M470 271h10M0 272h10M20 272h40M110 272h40M320 272h40M410 272h50M470 272h10M0 273h10M20 273h40M110 273h40M320 273h40M410 273h50M470 273h10M0 274h10M20 274h40M110 274h40M320 274h40M410 274h50M470 274h10M0 275h10M20 275h40M110 275h40M320 275h40M410 275h17M428 275h32M470 275h10M0 276h10M20 276h40M110 276h40M320 276h40M410 276h50M470 276h10M0 277h10M20 277h40M110 277h40M320 277h40M410 277h50M470 277h10M0 278h10M20 278h40M110 278h40M320 278h40M410 278h50M470 278h10M0 279h10M20 279h40M110 279h40M320 279h40M410 279h50M470 279h10M0 280h10M20 280h40M70 280h10M90 280h10M110 280h40M320 280h40M370 280h10M390 280h10M410 280h50M470 280h10M0 281h10M20 281h40M70 281h10M90 281h10M110 281h40M320 281h40M370 281h10M390 281h10M410 281h50M470 281h10M0 282h10M20 282h40M70 282h10M90 282h10M110 282h40M320 282h40M370 282h10M390 282h10M410 282h50M470 282h10M0 283h10M20 283h40M70 283h10M90 283h10M110 283h40M320 283h40M370 283h10M390 283h10M410 283h50M470 283h10M0 284h10M20 284h40M70 284h10M90 284h10M110 284h40M320 284h40M370 284h10M390 284h10M410 284h50M470 284h10M0 285h10M20 285h40M70 285h10M90 285h10M110 285h40M320 285h40M370 285h10M390 285h1M392 285h8M410 285h50M470 285h10M0 286h10M20 286h40M70 286h10M90 286h10M110 286h40M320 286h40M370 286h10M390 286h10M410 286h50M470 286h10M0 287h10M20 287h40M70 287h10M90 287h10M110 287h40M320 287h40M370 287h10M390 287h10M410 287h50M470 287h10M0 288h10M20 288h40M70 288h10M90 288h10M110 288h40M320 288h40M370 288h10M390 288h10M410 288h50M470 288h10M0 289h10M20 289h40M70 289h10M90 289h10M110 289h40M320 289h40M370 289h10M390 289h10M410 289h50M470 289h10M0 290h10M20 290h40M110 290h2M113 290h37M320 290h40M410 290h50M470 290h10M0 291h10M20 291h40M110 291h40M320 291h40M410 291h50M470 291h10M0 292h10M20 292h40M110 292h40M320 292h40M410 292h50M470 292h10M0 293h9M20 293h40M110 293h40M320 293h40M410 293h50M470 293h10M0 294h10M20 294h40M110 294h40M320 294h40M410 294h50M470 294h10M0 295h10M20 295h40M110 295h40M320 295h40M410 295h50M470 295h10M0 296h10M20 296h40M110 296h7M118 296h32M320 296h40M410 296h50M470 296h10M0 297h10M20 297h40M110 297h40M320 297h40M410 297h50M470 297h10M0 298h10M20 298h40M110 298h40M320 298h40M410 298h50M470 298h10M0 299h10M20 299h40M110 299h40M320 299h40M410 299h50M470 299h10M0 300h10M20 300h20M50 300h10M80 300h10M110 300h40M320 300h40M380 300h10M410 300h10M430 300h30M470 300h10M0 301h10M20 301h20M50 301h10M80 301h10M110 301h34M145 301h5M320 301h40M380 301h10M410 301h10M430 301h30M470 301h10M0 302h10M20 302h20M50 302h10M80 302h10M110 302h40M320 302h40M380 302h10M410 302h10M430 302h30M470 302h10M0 303h10M20 303h20M50 303h10M80 303h10M110 303h40M320 303h40M380 303h10M410 303h10M430 303h30M470 303h10M0 304h10M20 304h20M50 304h10M80 304h10M110 304h40M320 304h40M380 304h10M410 304h10M430 304h30M470 304h10M0 305h10M20 305h20M50 305h10M80 305h10M110 305h40M320 305h40M380 305h10M410 305h10M430 305h30M470 305h10M0 306h10M20 306h20M50 306h10M80 306h10M110 306h40M320 306h40M380 306h10M410 306h10M430 306h30M470 306h10M0 307h10M20 307h20M50 307h10M80 307h10M110 307h40M320 307h39M380 307h10M410 307h10M430 307h30M470 307h10M0 308h10M20 308h20M50 308h10M80 308h10M110 308h40M320 308h40M380 308h10M410 308h10M430 308h30M470 308h10M0 309h10M20 309h20M50 309h10M80 309h10M110 309h40M320 309h40M380 309h10M410 309h10M430 309h30M470 309h10M0 310h10M20 310h20M110 310h40M320 310h40M430 310h30M470 310h10M0 311h10M20 311h20M110 311h40M320 311h40M430 311h30M470 311h10M0 312h10M20 312h20M110 312h40M320 312h40M430 312h30M470 312h10M0 313h10M20 313h20M110 313h40M320 313h40M430 313h30M470 313h10M0 314h10M20 314h20M110 314h40M320 314h40M430 314h30M470 314h10M0 315h10M20 315h20M110 315h40M320 315h40M430 315h30M470 315h10M0 316h10M20 316h20M110 316h40M320 316h40M430 316h30M470 316h10M0 317h10M20 317h20M110 317h40M320 317h40M430 317h30M470 317h10M0 318h10M20 318h20M110 318h40M320 318h40M430 318h30M470 318h10M0 319h10M20 319h20M110 319h40M320 319h40M430 319h30M470 319h10M0 320h10M20 320h30M100 320h50M320 320h50M420 320h40M470 320h10M0 321h10M20 321h30M100 321h25M126 321h24M320 321h50M420 321h40M470 321h10M0 322h10M20 322h30M100 322h50M320 322h50M420 322h40M470 322h10M0 323h10M20 323h30M100 323h50M320 323h50M420 323h40M470 323h10M0 324h10M20 324h30M100 324h50M320 324h50M420 324h40M470 324h10M0 325h10M20 325h30M100 325h50M320 325h50M420 325h40M470 325h10M0 326h10M20 326h30M100 326h50M320 326h50M420 326h40M470 326h10M0 327h10M20 327h30M100 327h50M320 327h50M420 327h40M470 327h10M0 328h10M20 328h30M100 328h50M320 328h50M420 328h40M470 328h10M0 329h10M20 329h30M100 329h50M320 329h50M420 329h40M470 329h10M0 330h10M20 330h70M91 330h59M320 330h140M470 330h10M0 331h10M20 331h130M320 331h140M470 331h10M0 332h10M20 332h130M320 332h140M470 332h10M0 333h10M20 333h130M320 333h140M470 333h10M0 334h10M20 334h130M320 334h140M470 334h10M0 335h10M20 335h78M99 335h51M320 335h140M470 335h10M0 336h10M20 336h130M320 336h140M470 336h10M0 337h10M20 337h130M320 337h140M470 337h10M0 338h10M20 338h130M320 338h140M470 338h10M0 339h10M20 339h130M320 339h40M361 339h99M471 339h9M0 340h10M20 340h130M320 340h140M470 340h10M0 341h10M20 341h130M320 341h140M470 341h10M0 342h10M20 342h130M320 342h140M470 342h10M0 343h10M20 343h130M320 343h140M470 343h10M1 344h9M20 344h130M320 344h140M470 344h10M0 345h10M20 345h130M320 345h140M470 345h10M0 346h10M20 346h130M320 346h140M470 346h10M0 347h10M20 347h130M320 347h140M470 347h10M0 348h10M20 348h130M320 348h140M470 348h10M0 349h10M20 349h130M320 349h17M338 349h122M470 349h10M0 350h10M20 350h140M310 350h97M408 350h52M470 350h10M0 351h10M20 351h140M310 351h119M430 351h30M470 351h10M0 352h10M20 352h140M310 352h150M470 352h10M0 353h10M20 353h140M310 353h150M470 353h10M0 354h10M20 354h140M310 354h150M470 354h10M0 355h10M20 355h140M310 355h150M470 355h10M0 356h10M20 356h1M22 356h138M310 356h83M394 356h66M470 356h10M0 357h10M20 357h140M310 357h150M470 357h10M0 358h10M20 358h140M310 358h150M470 358h10M0 359h10M20 359h140M310 359h149M470 359h10M0 360h10M20 360h80M130 360h40M300 360h40M370 360h90M470 360h10M0 361h10M20 361h80M130 361h40M300 361h40M370 361h90M470 361h10M0 362h10M20 362h80M130 362h40M300 362h40M370 362h90M470 362h10M0 363h10M20 363h18M39 363h61M130 363h40M300 363h40M370 363h90M470 363h10M0 364h10M20 364h80M130 364h40M300 364h40M370 364h90M470 364h10M0 365h10M20 365h80M130 365h40M300 365h40M370 365h78M449 365h11M470 365h10M0 366h10M20 366h80M130 366h40M300 366h40M370 366h90M470 366h10M0 367h10M20 367h80M130 367h40M300 367h40M370 367h90M470 367h10M0 368h10M20 368h80M130 368h40M300 368h40M370 368h90M470 368h10M0 369h10M20 369h13M34 369h66M130 369h40M300 369h40M370 369h90M470 369h10M0 370h10M20 370h70M140 370h9M150 370h30M290 370h40M380 370h80M470 370h10M0 371h10M20 371h70M140 371h40M290 371h40M380 371h80M470 371h10M0 372h10M20 372h70M140 372h40M290 372h40M380 372h80M470 372h10M0 373h10M20 373h70M140 373h40M290 373h40M380 373h80M470 373h10M0 374h10M20 374h70M140 374h40M290 374h40M380 374h80M470 374h10M0 375h10M20 375h70M140 375h40M290 375h15M306 375h24M380 375h80M470 375h10M0 376h10M20 376h70M140 376h40M290 376h40M380 376h80M470 376h10M0 377h10M20 377h70M140 377h40M290 377h35M326 377h4M380 377h80M470 377h10M0 378h10M20 378h70M140 378h40M290 378h40M380 378h80M470 378h10M0 379h10M20 379h70M140 379h40M290 379h40M380 379h80M470 379h10M0 380h90M100 380h10M120 380h10M140 380h80M260 380h70M340 380h10M360 380h10M380 380h80M470 380h10M0 381h90M100 381h10M120 381h10M140 381h80M260 381h70M340 381h10M360 381h10M380 381h80M470 381h10M0 382h90M100 382h10M120 382h10M140 382h80M260 382h54M315 382h15M340 382h10M360 382h10M380 382h80M470 382h10M0 383h90M100 383h10M120 383h10M140 383h80M260 383h70M340 383h10M360 383h10M380 383h80M470 383h10M0 384h20M21 384h69M100 384h4M105 384h5M120 384h10M140 384h80M260 384h70M340 384h10M360 384h10M380 384h80M470 384h10M0 385h90M100 385h10M120 385h10M140 385h80M260 385h70M340 385h10M360 385h10M380 385h80M470 385h10M0 386h90M100 386h10M120 386h10M140 386h80M260 386h70M340 386h10M360 386h10M380 386h80M470 386h10M0 387h90M100 387h10M120 387h10M140 387h80M260 387h70M340 387h10M360 387h10M380 387h80M470 387h10M0 388h90M100 388h10M120 388h10M140 388h80M260 388h70M340 388h10M360 388h10M380 388h80M470 388h10M0 389h90M100 389h10M120 389h10M140 389h80M260 389h70M340 389h10M360 389h10M380 389h80M470 389h10M0 390h10M20 390h70M140 390h60M280 390h50M380 390h80M470 390h10M0 391h10M20 391h49M70 391h20M140 391h60M280 391h50M380 391h80M470 391h10M0 392h10M20 392h70M140 392h60M280 392h50M380 392h80M470 392h10M0 393h10M20 393h70M140 393h60M280 393h50M380 393h80M470 393h10M0 394h10M20 394h70M140 394h60M280 394h50M380 394h80M470 394h10M0 395h10M20 395h70M140 395h60M280 395h50M380 395h80M470 395h10M0 396h10M20 396h70M140 396h60M280 396h50M380 396h80M470 396h10M0 397h10M20 397h70M140 397h60M280 397h50M380 397h80M470 397h10M0 398h10M20 398h70M140 398h60M280 398h50M380 398h80M470 398h10M0 399h1M2 399h8M20 399h70M140 399h60M280 399h50M380 399h80M470 399h10M0 400h70M80 400h10M110 400h10M140 400h50M290 400h40M350 400h10M380 400h10M400 400h60M470 400h10M0 401h70M80 401h10M110 401h10M140 401h50M290 401h40M350 401h10M380 401h10M400 401h60M470 401h10M0 402h70M80 402h10M110 402h10M140 402h50M290 402h40M350 402h10M380 402h10M400 402h60M470 402h10M0 403h70M80 403h10M110 403h10M140 403h50M290 403h40M350 403h10M380 403h10M400 403h60M470 403h10M0 404h70M80 404h10M110 404h10M140 404h50M290 404h40M350 404h10M380 404h10M400 404h60M470 404h10M0 405h70M80 405h10M110 405h10M140 405h49M290 405h40M350 405h10M380 405h10M400 405h60M470 405h10M0 406h14M15 406h55M80 406h10M110 406h10M140 406h50M290 406h40M350 406h10M380 406h10M400 406h60M470 406h10M0 407h70M80 407h10M110 407h10M140 407h50M290 407h40M350 407h10M380 407h10M400 407h60M470 407h10M0 408h70M80 408h10M110 408h10M140 408h50M290 408h40M350 408h10M380 408h10M400 408h60M470 408h10M0 409h70M80 409h10M110 409h10M140 409h50M290 409h40M350 409h10M380 409h10M400 409h60M470 409h10M0 410h10M20 410h50M140 410h40M300 410h30M400 410h60M470 410h10M0 411h10M20 411h50M140 411h40M300 411h30M400 411h60M470 411h10M0 412h10M20 412h50M140 412h40M300 412h30M400 412h60M470 412h10M0 413h10M20 413h50M140 413h40M300 413h30M400 413h60M470 413h10M0 414h10M20 414h50M140 414h40M300 414h30M400 414h8M409 414h51M470 414h10M0 415h10M20 415h50M140 415h40M300 415h30M400 415h60M470 415h10M0 416h10M20 416h50M140 416h40M300 416h30M400 416h60M470 416h10M0 417h10M20 417h50M140 417h40M300 417h30M400 417h60M470 417h10M0 418h10M20 418h50M140 418h40M300 418h30M400 418h60M470 418h10M0 419h10M20 419h50M140 419h40M300 419h30M400 419h60M470 419h10M0 420h80M130 420h210M390 420h70M470 420h10M0 421h80M130 421h210M390 421h70M470 421h10M0 422h80M130 422h210M390 422h70M470 422h10M0 423h80M130 423h210M390 423h70M470 423h10M0 424h80M130 424h210M390 424h70M470 424h10M0 425h80M130 425h210M390 425h70M470 425h10M0 426h80M130 426h210M390 426h70M470 426h10M0 427h80M130 427h210M390 427h14M405 427h55M470 427h10M0 428h80M130 428h202M333 428h7M390 428h70M470 428h10M0 429h42M43 429h37M130 429h210M390 429h70M470 429h10M0 430h10M20 430h187M208 430h252M470 430h10M0 431h10M20 431h440M470 431h10M0 432h10M20 432h32M53 432h407M470 432h10M0 433h10M20 433h440M470 433h10M0 434h10M20 434h440M470 434h10M0 435h10M20 435h440M470 435h10M0 436h10M20 436h440M470 436h10M0 437h10M20 437h401M422 437h38M470 437h10M0 438h10M20 438h440M470 438h10M0 439h10M20 439h366M387 439h73M470 439h10M0 440h460M470 440h10M0 441h98M99 441h361M470 441h10M0 442h460M470 442h10M0 443h191M192 443h268M470 443h10M0 444h114M115 444h345M470 444h10M0 445h460M470 445h10M1 446h459M470 446h10M0 447h129M130 447h330M470 447h10M0 448h194M195 448h265M470 448h10M0 449h460M470 449h10M0 450h10M20 450h440M470 450h10M0 451h10M20 451h212M233 451h227M470 451h10M0 452h1M2 452h8M20 452h242M263 452h57M321 452h139M470 452h10M0 453h10M20 453h440M470 453h10M0 454h10M20 454h440M470 454h10M0 455h10M20 455h83M104 455h356M470 455h10M0 456h10M20 456h440M470 456h10M0 457h10M20 457h440M470 457h10M0 458h10M20 458h142M163 458h216M380 458h80M470 458h10M0 459h10M20 459h70M91 459h369M470 459h10M0 460h10M470 460h10M0 461h10M470 461h10M0 462h10M470 462h10M0 463h10M470 463h10M0 464h10M470 464h10M0 465h10M470 465h10M0 466h10M470 466h10M0 467h9M470 467h10M0 468h10M470 468h10M0 469h10M470 469h10M0 470h480M0 471h480M0 472h480M0 473h80M81 473h163M245 473h235M0 474h366M367 474h113M0 475h108M109 475h274M384 475h96M0 476h329M330 476h150M0 477h412M413 477h18M432 477h48M0 478h480M0 479h158M159 479h107M267 479h213" />
<path stroke="#339967" d="M50 1h1M143 2h1M107 9h1M353 23h1M290 25h1M89 32h1M152 33h1M332 36h1M32 53h1M362 58h1M362 69h1M398 74h1M32 78h1M122 98h1M209 105h1M392 111h1M275 120h1M35 129h1M287 144h1M386 144h1M197 150h1M419 153h1M65 156h1M407 162h1M275 165h1M200 175h1M68 204h1M404 205h1M335 221h1M446 236h1M476 236h1M455 238h1M71 241h1M101 254h1M362 265h1M359 307h1M125 321h1M98 335h1M470 339h1M407 350h1M38 363h1M149 370h1M305 375h1M314 382h1M20 384h1M104 384h1M14 406h1M404 427h1M332 428h1M386 439h1M98 441h1M191 443h1M194 448h1M320 452h1M80 473h1M383 475h1M329 476h1M431 477h1M158 479h1M266 479h1" />
<path stroke="#329966" d="M150 4h1M312 4h1M144 26h1M0 29h1M138 68h1M438 70h1M231 84h1M303 91h1M402 110h1M54 117h1M363 138h1M441 138h1M324 149h1M30 150h1M312 150h1M231 159h1M36 167h1M120 180h1M3 182h1M126 183h1M309 185h1M240 199h1M0 208h1M42 209h1M0 223h1M0 226h1M6 227h1M144 228h1M435 238h1M60 246h1M69 249h1M9 293h1M117 296h1M144 301h1M90 330h1M360 339h1M0 344h1M429 351h1M21 356h1M393 356h1M459 359h1M33 369h1M69 391h1M189 405h1M408 414h1M42 429h1M207 430h1M114 444h1M0 446h1M129 447h1M162 458h1M90 459h1M9 467h1M366 474h1M108 475h1" />
<path stroke="#339866" d="M286 4h1M145 5h1M343 21h1M241 24h1M469 36h1M1 58h1M304 66h1M439 76h1M193 77h1M154 92h1M28 110h1M34 144h1M121 150h1M103 152h1M142 171h1M148 178h1M259 181h1M328 181h1M145 188h1M181 188h1M76 197h1M412 213h1M322 226h1M343 238h1M49 257h1M343 259h1M478 270h1M427 275h1M391 285h1M112 290h1M337 349h1M448 365h1M325 377h1M1 399h1M52 432h1M421 437h1M232 451h1M1 452h1M262 452h1M103 455h1M379 458h1M244 473h1M412 477h1" />
<path stroke="#ffffff" d="M10 10h460M10 11h460M10 12h110M121 12h55M177 12h293M10 13h460M10 14h186M197 14h273M10 15h460M10 16h268M279 16h191M10 17h460M10 18h460M10 19h158M169 19h301M10 20h10M460 20h10M10 21h10M460 21h10M10 22h10M460 22h10M10 23h10M460 23h10M10 24h10M460 24h10M10 25h10M460 25h10M10 26h10M460 26h10M10 27h10M460 27h10M10 28h10M460 28h10M10 29h10M460 29h10M10 30h10M10 31h10M10 32h10M10 33h10M10 34h10M10 35h10M10 36h10M10 37h10M10 38h10M10 39h10M10 40h10M460 40h10M10 41h10M460 41h10M10 42h10M460 42h10M10 43h10M460 43h10M10 44h10M460 44h10M10 45h10M460 45h10M10 46h10M460 46h10M10 47h10M460 47h10M10 48h10M460 48h10M10 49h10M460 49h10M10 50h10M10 51h10M10 52h10M10 53h10M10 54h10M10 55h10M10 56h10M10 57h10M10 58h10M10 59h10M10 60h10M460 60h10M10 61h10M460 61h10M10 62h10M460 62h10M10 63h10M460 63h10M10 64h10M460 64h10M10 65h10M460 65h10M10 66h10M460 66h10M10 67h10M460 67h10M10 68h10M460 68h10M10 69h10M460 69h10M10 70h10M10 71h10M10 72h10M10 73h10M10 74h10M10 75h10M10 76h10M10 77h10M10 78h10M10 79h10M10 80h10M460 80h10M10 81h10M460 81h10M10 82h10M460 82h10M10 83h10M460 83h10M10 84h10M460 84h10M10 85h10M460 85h10M10 86h10M460 86h10M10 87h10M460 87h10M10 88h10M460 88h10M10 89h10M460 89h10M10 90h10M10 91h10M10 92h10M10 93h10M10 94h10M10 95h10M10 96h10M10 97h10M10 98h10M10 99h10M10 100h10M460 100h10M10 101h10M460 101h10M10 102h10M460 102h10M10 103h10M460 103h10M10 104h9M460 104h10M10 105h10M460 105h10M10 106h10M460 106h10M10 107h10M460 107h10M10 108h10M460 108h10M10 109h10M460 109h10M10 110h10M460 110h10M10 111h10M460 111h10M10 112h10M460 112h10M10 113h10M460 113h10M10 114h10M460 114h10M10 115h10M460 115h10M10 116h10M460 116h10M10 117h10M460 117h10M10 118h10M460 118h10M10 119h10M460 119h10M10 120h10M460 120h10M10 121h10M460 121h10M10 122h10M460 122h10M10 123h10M460 123h10M10 124h10M460 124h10M10 125h10M460 125h10M10 126h10M460 126h10M10 127h10M460 127h10M10 128h10M460 128h10M10 129h10M460 129h10M10 130h10M460 130h10M10 131h10M460 131h10M10 132h10M460 132h10M10 133h10M460 133h10M10 134h10M460 134h10M10 135h10M460 135h10M10 136h10M460 136h10M10 137h10M460 137h10M10 138h10M460 138h10M10 139h10M460 139h10M10 140h10M460 140h10M10 141h10M460 141h10M10 142h10M460 142h10M10 143h10M460 143h10M10 144h10M460 144h10M10 145h10M460 145h10M10 146h10M460 146h10M10 147h10M460 147h10M10 148h10M460 148h10M10 149h10M460 149h10M10 150h10M460 150h10M10 151h10M460 151h10M10 152h10M460 152h10M10 153h10M460 153h10M10 154h10M460 154h10M10 155h10M460 155h10M10 156h10M460 156h10M10 157h10M460 157h10M10 158h10M460 158h10M10 159h10M460 159h10M10 160h10M460 160h10M10 161h10M460 161h10M10 162h10M460 162h10M10 163h10M460 163h10M10 164h10M460 164h10M10 165h10M460 165h10M10 166h10M460 166h10M10 167h10M460 167h10M10 168h10M460 168h10M10 169h10M460 169h10M10 170h10M460 170h10M10 171h10M460 171h10M10 172h10M460 172h10M10 173h10M460 173h10M10 174h10M460 174h10M10 175h6M17 175h3M460 175h10M10 176h10M460 176h10M10 177h10M460 177h10M10 178h10M460 178h10M10 179h10M460 179h10M10 180h10M460 180h10M10 181h10M460 181h10M10 182h10M460 182h10M10 183h10M460 183h10M10 184h10M460 184h10M10 185h10M460 185h10M10 186h10M460 186h10M10 187h10M460 187h10M10 188h10M460 188h10M10 189h10M460 189h10M10 190h10M460 190h10M10 191h10M460 191h10M10 192h10M460 192h10M10 193h10M460 193h10M10 194h10M461 194h9M10 195h10M460 195h10M10 196h10M460 196h10M10 197h10M460 197h10M10 198h10M460 198h10M10 199h10M460 199h10M10 200h10M460 200h10M10 201h10M460 201h10M10 202h10M460 202h10M10 203h10M460 203h10M10 204h10M460 204h10M10 205h10M460 205h10M10 206h10M460 206h10M10 207h10M460 207h10M10 208h10M460 208h10M10 209h10M460 209h10M10 210h10M460 210h10M10 211h10M460 211h10M10 212h10M460 212h10M10 213h10M460 213h10M10 214h10M460 214h10M10 215h10M460 215h10M10 216h10M460 216h10M10 217h10M460 217h10M10 218h10M460 218h10M10 219h10M460 219h10M10 220h10M460 220h10M10 221h10M460 221h10M10 222h10M460 222h10M10 223h10M460 223h10M10 224h10M460 224h10M10 225h10M460 225h10M10 226h10M460 226h10M10 227h10M460 227h10M10 228h10M460 228h10M10 229h10M460 229h10M10 230h10M460 230h10M10 231h10M460 231h10M10 232h10M460 232h10M10 233h10M460 233h10M10 234h10M460 234h10M10 235h10M460 235h10M10 236h10M460 236h10M10 237h10M460 237h10M10 238h10M460 238h10M10 239h10M460 239h10M10 240h10M460 240h10M10 241h10M460 241h10M10 242h10M460 242h10M10 243h10M460 243h10M10 244h10M460 244h10M10 245h10M460 245h10M10 246h10M460 246h10M10 247h10M460 247h10M10 248h10M460 248h10M10 249h10M460 249h10M10 250h10M460 250h10M10 251h10M460 251h10M10 252h10M460 252h10M10 253h10M460 253h10M10 254h10M460 254h10M10 255h10M460 255h10M10 256h10M460 256h10M10 257h10M460 257h10M10 258h10M460 258h10M10 259h10M460 259h10M10 260h10M190 260h10M270 260h10M460 260h10M10 261h10M190 261h10M270 261h10M460 261h10M10 262h10M190 262h10M270 262h10M460 262h10M10 263h10M190 263h10M270 263h10M460 263h10M10 264h10M190 264h10M270 264h10M460 264h10M10 265h10M190 265h10M270 265h10M460 265h10M10 266h10M190 266h10M270 266h10M460 266h10M10 267h10M190 267h10M270 267h10M460 267h10M10 268h10M190 268h10M270 268h10M460 268h10M10 269h10M190 269h10M270 269h10M460 269h10M10 270h10M460 270h10M10 271h10M460 271h10M10 272h10M460 272h10M10 273h10M460 273h10M10 274h10M460 274h10M10 275h10M460 275h10M10 276h10M460 276h10M10 277h10M460 277h10M10 278h10M460 278h10M10 279h10M460 279h10M10 280h10M460 280h10M10 281h10M460 281h10M10 282h10M460 282h10M10 283h10M460 283h10M10 284h10M460 284h10M10 285h10M460 285h10M10 286h10M460 286h10M10 287h10M460 287h10M10 288h10M460 288h10M10 289h10M460 289h10M10 290h10M460 290h10M10 291h10M460 291h10M10 292h10M460 292h10M10 293h10M460 293h10M10 294h10M460 294h10M10 295h10M460 295h10M10 296h10M460 296h10M10 297h10M460 297h10M10 298h10M460 298h8M469 298h1M10 299h10M460 299h10M10 300h10M460 300h10M10 301h10M460 301h10M10 302h10M460 302h10M10 303h10M460 303h10M10 304h10M460 304h10M10 305h10M460 305h10M10 306h10M460 306h10M10 307h10M460 307h10M10 308h10M460 308h10M10 309h10M460 309h10M10 310h10M460 310h10M10 311h10M460 311h10M10 312h10M460 312h10M10 313h10M460 313h10M10 314h10M460 314h10M10 315h10M460 315h10M10 316h10M460 316h10M10 317h10M460 317h10M10 318h10M460 318h10M10 319h10M460 319h10M10 320h10M460 320h10M10 321h10M460 321h10M10 322h10M460 322h10M10 323h10M460 323h10M10 324h10M460 324h10M10 325h10M460 325h10M10 326h10M460 326h10M10 327h10M460 327h10M10 328h10M460 328h10M10 329h10M460 329h10M10 330h10M460 330h10M10 331h10M460 331h10M10 332h10M460 332h10M10 333h10M460 333h10M10 334h10M460 334h10M10 335h10M460 335h10M10 336h10M460 336h10M10 337h10M460 337h10M10 338h10M460 338h10M10 339h10M460 339h10M10 340h10M460 340h10M10 341h10M460 341h10M10 342h10M460 342h10M10 343h10M460 343h10M10 344h10M460 344h10M10 345h10M460 345h10M10 346h10M460 346h10M10 347h10M460 347h10M10 348h10M460 348h10M10 349h10M460 349h10M10 350h10M460 350h10M10 351h10M460 351h10M10 352h10M460 352h10M11 353h9M460 353h10M10 354h10M460 354h10M10 355h10M460 355h10M10 356h10M460 356h10M10 357h10M460 357h10M10 358h10M460 358h10M10 359h10M460 359h10M10 360h10M460 360h10M10 361h10M460 361h10M10 362h10M460 362h10M10 363h10M460 363h10M10 364h10M460 364h10M10 365h10M460 365h10M10 366h10M460 366h10M10 367h10M460 367h10M10 368h10M460 368h10M10 369h10M460 369h10M10 370h10M460 370h10M10 371h10M460 371h10M10 372h10M460 372h10M10 373h10M460 373h10M10 374h10M460 374h10M10 375h10M460 375h10M10 376h10M460 376h10M10 377h10M460 377h10M10 378h10M460 378h10M10 379h10M460 379h10M460 380h10M460 381h10M460 382h10M460 383h10M460 384h10M460 385h10M460 386h9M460 387h10M460 388h10M460 389h10M10 390h10M460 390h10M10 391h3M14 391h6M460 391h10M10 392h10M460 392h10M10 393h10M460 393h10M10 394h10M460 394h10M10 395h10M460 395h10M10 396h10M460 396h10M10 397h10M460 397h10M10 398h10M460 398h10M10 399h10M460 399h10M460 400h10M460 401h10M460 402h10M460 403h10M460 404h10M460 405h10M460 406h10M460 407h10M460 408h10M460 409h6M467 409h3M10 410h10M460 410h10M10 411h10M460 411h10M10 412h10M460 412h10M10 413h10M460 413h10M10 414h10M460 414h10M10 415h10M460 415h10M10 416h10M460 416h10M10 417h10M460 417h10M10 418h10M460 418h10M10 419h10M460 419h10M460 420h10M460 421h10M460 422h10M460 423h10M460 424h10M460 425h10M460 426h10M460 427h10M460 428h10M460 429h10M10 430h10M460 430h4M465 430h5M10 431h10M460 431h10M10 432h10M460 432h10M10 433h10M460 433h10M10 434h10M460 434h10M10 435h10M460 435h10M10 436h10M460 436h10M10 437h10M460 437h10M10 438h10M460 438h10M10 439h10M460 439h10M460 440h10M460 441h10M460 442h10M460 443h10M460 444h10M460 445h10M460 446h10M460 447h10M460 448h10M460 449h10M10 450h10M460 450h10M10 451h10M460 451h10M10 452h10M460 452h10M10 453h10M460 453h10M10 454h10M460 454h10M10 455h10M460 455h10M10 456h10M460 456h10M10 457h10M460 457h10M10 458h10M460 458h10M10 459h10M460 459h10M10 460h460M10 461h460M10 462h460M10 463h460M10 464h460M10 465h460M10 466h150M161 466h64M226 466h244M10 467h460M10 468h311M322 468h148M10 469h56M67 469h2M70 469h219M290 469h180" />
<path stroke="#feffff" d="M120 12h1M168 19h1M468 298h1M225 466h1M321 468h1M66 469h1M69 469h1" />
<path stroke="#fffffe" d="M176 12h1M278 16h1M464 430h1" />
<path stroke="#fffeff" d="M196 14h1M19 104h1M16 175h1M460 194h1M10 353h1M469 386h1M13 391h1M466 409h1M160 466h1M289 469h1" />
<path stroke="#fbf236" d="M50 40h8M59 40h11M90 40h20M140 40h20M180 40h40M240 40h50M310 40h20M370 40h50M50 41h20M90 41h20M140 41h20M180 41h40M240 41h50M310 41h20M370 41h50M50 42h20M90 42h20M140 42h20M180 42h40M240 42h50M310 42h20M370 42h25M396 42h24M50 43h20M90 43h20M140 43h20M180 43h27M208 43h12M240 43h50M310 43h20M370 43h50M50 44h20M90 44h20M140 44h20M180 44h40M240 44h50M310 44h20M370 44h50M50 45h20M90 45h20M140 45h20M180 45h40M240 45h50M310 45h20M370 45h50M50 46h20M90 46h20M140 46h20M180 46h40M240 46h50M310 46h20M370 46h50M50 47h20M90 47h20M140 47h20M180 47h40M240 47h50M310 47h20M370 47h50M50 48h20M90 48h20M140 48h20M180 48h40M240 48h50M310 48h20M370 48h50M50 49h20M90 49h2M93 49h17M140 49h20M180 49h40M240 49h50M310 49h20M370 49h50M50 50h20M90 50h20M140 50h20M170 50h60M240 50h60M310 50h20M370 50h60M50 51h20M90 51h20M140 51h20M170 51h60M240 51h60M310 51h20M370 51h60M50 52h20M90 52h20M140 52h20M170 52h60M240 52h60M310 52h20M370 52h3M374 52h56M50 53h20M90 53h20M140 53h20M170 53h60M240 53h60M310 53h20M370 53h60M50 54h20M90 54h20M140 54h20M170 54h60M240 54h60M310 54h20M370 54h60M50 55h20M90 55h20M140 55h20M170 55h60M240 55h53M294 55h6M310 55h20M370 55h60M50 56h20M90 56h20M140 56h20M170 56h60M240 56h60M310 56h20M370 56h60M50 57h20M90 57h20M140 57h20M170 57h60M240 57h47M288 57h12M310 57h20M370 57h60M50 58h20M90 58h20M140 58h20M170 58h60M240 58h27M268 58h32M310 58h20M370 58h60M50 59h20M90 59h20M140 59h20M170 59h60M240 59h60M310 59h20M370 59h60M50 60h20M90 60h20M140 60h20M170 60h20M210 60h20M240 60h20M280 60h20M310 60h20M370 60h20M410 60h20M50 61h20M90 61h20M140 61h20M170 61h20M210 61h20M240 61h20M280 61h20M310 61h20M370 61h20M410 61h20M50 62h20M90 62h20M140 62h20M170 62h20M210 62h20M240 62h20M280 62h5M286 62h14M310 62h20M370 62h20M410 62h20M50 63h20M90 63h20M140 63h20M170 63h20M210 63h20M240 63h20M280 63h20M310 63h20M370 63h20M410 63h20M50 64h20M90 64h20M140 64h20M170 64h20M210 64h20M240 64h20M280 64h20M310 64h20M370 64h20M410 64h20M50 65h20M90 65h20M140 65h20M170 65h20M210 65h20M240 65h20M280 65h20M310 65h20M370 65h20M410 65h20M50 66h20M90 66h20M140 66h20M170 66h20M210 66h20M240 66h20M280 66h20M310 66h20M370 66h20M410 66h20M50 67h20M90 67h20M140 67h7M148 67h12M170 67h20M210 67h20M240 67h20M280 67h5M286 67h14M310 67h20M370 67h20M410 67h20M50 68h20M90 68h20M140 68h20M170 68h20M210 68h20M240 68h20M280 68h20M310 68h20M370 68h20M410 68h20M50 69h20M90 69h20M140 69h20M170 69h20M210 69h20M240 69h20M280 69h20M310 69h20M370 69h20M410 69h20M50 70h20M90 70h20M140 70h20M170 70h20M210 70h20M240 70h20M280 70h20M310 70h20M370 70h20M410 70h20M50 71h20M90 71h20M140 71h20M170 71h20M210 71h20M240 71h20M280 71h20M310 71h20M370 71h20M410 71h20M50 72h20M90 72h20M140 72h20M170 72h20M210 72h20M240 72h20M280 72h20M310 72h20M370 72h20M410 72h20M50 73h20M90 73h20M140 73h20M170 73h15M186 73h4M210 73h20M240 73h20M280 73h20M310 73h20M370 73h20M410 73h20M50 74h10M61 74h9M90 74h20M140 74h20M170 74h20M210 74h20M240 74h20M280 74h20M310 74h20M370 74h20M410 74h20M50 75h20M90 75h20M140 75h20M170 75h20M210 75h20M240 75h20M280 75h20M310 75h20M370 75h20M410 75h20M50 76h1M52 76h18M90 76h20M140 76h20M170 76h20M210 76h20M240 76h20M280 76h20M310 76h20M370 76h20M410 76h20M50 77h20M90 77h20M140 77h20M170 77h20M210 77h20M240 77h20M280 77h20M310 77h20M370 77h20M410 77h20M50 78h20M90 78h20M140 78h20M170 78h20M210 78h20M240 78h20M280 78h20M310 78h20M370 78h20M410 78h20M50 79h20M90 79h20M140 79h20M170 79h20M210 79h20M240 79h20M280 79h20M310 79h20M370 79h20M410 79h20M60 80h20M90 80h30M130 80h20M170 80h20M210 80h20M240 80h60M310 80h20M370 80h20M410 80h20M60 81h20M90 81h30M130 81h20M170 81h20M210 81h20M240 81h60M310 81h20M370 81h20M410 81h20M60 82h20M90 82h30M130 82h20M170 82h20M210 82h20M240 82h60M310 82h20M370 82h20M410 82h20M60 83h20M90 83h30M130 83h20M170 83h20M210 83h20M240 83h60M310 83h20M370 83h20M410 83h20M60 84h20M90 84h30M130 84h20M170 84h20M210 84h20M240 84h57M298 84h2M310 84h20M370 84h20M410 84h20M60 85h20M90 85h30M130 85h20M170 85h20M210 85h16M227 85h3M240 85h60M310 85h1M312 85h18M370 85h20M410 85h20M60 86h20M90 86h30M130 86h20M170 86h20M210 86h20M240 86h60M310 86h20M370 86h20M410 86h20M60 87h20M90 87h30M130 87h20M170 87h20M210 87h20M240 87h8M249 87h51M310 87h20M370 87h20M410 87h20M60 88h20M90 88h30M130 88h20M170 88h20M210 88h20M240 88h60M310 88h20M370 88h20M410 88h20M60 89h20M90 89h30M130 89h20M170 89h20M210 89h20M240 89h60M310 89h20M370 89h20M410 89h20M60 90h20M90 90h30M130 90h20M170 90h20M210 90h20M240 90h50M310 90h20M370 90h20M410 90h20M60 91h20M90 91h30M130 91h20M170 91h20M210 91h20M240 91h50M310 91h20M370 91h20M410 91h20M60 92h20M90 92h30M130 92h20M170 92h20M210 92h20M240 92h50M310 92h20M370 92h20M410 92h20M60 93h20M90 93h30M130 93h20M170 93h20M210 93h20M240 93h50M310 93h20M370 93h20M410 93h20M60 94h20M90 94h30M130 94h20M170 94h20M210 94h20M240 94h50M310 94h20M370 94h20M410 94h20M60 95h20M90 95h30M130 95h20M170 95h20M210 95h20M240 95h50M310 95h20M370 95h20M410 95h20M60 96h20M90 96h30M130 96h20M170 96h20M210 96h20M240 96h50M310 96h20M370 96h20M410 96h7M418 96h12M60 97h20M90 97h30M130 97h20M170 97h20M210 97h20M240 97h50M310 97h20M370 97h20M410 97h20M60 98h20M90 98h30M130 98h20M170 98h15M186 98h4M210 98h20M240 98h50M310 98h20M370 98h20M410 98h20M60 99h20M90 99h30M130 99h20M170 99h20M210 99h20M240 99h12M253 99h37M310 99h20M370 99h20M410 99h20M60 100h20M90 100h30M130 100h20M170 100h20M210 100h20M240 100h20M280 100h20M310 100h20M370 100h20M410 100h20M60 101h20M90 101h30M130 101h20M170 101h20M210 101h20M240 101h20M280 101h20M310 101h20M370 101h20M410 101h20M60 102h20M90 102h30M130 102h20M170 102h20M210 102h20M240 102h20M280 102h20M310 102h20M370 102h20M410 102h20M60 103h20M90 103h30M130 103h20M170 103h20M210 103h20M240 103h20M280 103h20M310 103h20M370 103h20M410 103h20M60 104h20M90 104h30M130 104h20M170 104h20M210 104h20M240 104h20M280 104h20M310 104h20M370 104h20M410 104h20M60 105h20M90 105h30M130 105h20M170 105h18M189 105h1M210 105h20M240 105h20M280 105h20M310 105h7M318 105h12M370 105h20M410 105h20M60 106h4M65 106h15M90 106h30M130 106h20M170 106h20M210 106h20M240 106h20M280 106h20M310 106h20M370 106h20M410 106h20M60 107h20M90 107h30M130 107h20M170 107h20M210 107h20M240 107h20M280 107h20M310 107h20M370 107h20M410 107h20M60 108h20M90 108h30M130 108h20M170 108h20M210 108h20M240 108h20M280 108h20M310 108h20M370 108h20M410 108h20M60 109h20M90 109h30M130 109h9M140 109h10M170 109h20M210 109h20M240 109h20M280 109h20M310 109h20M370 109h20M410 109h20M60 110h40M110 110h40M170 110h20M210 110h20M240 110h20M280 110h20M310 110h20M370 110h20M410 110h20M60 111h40M110 111h40M170 111h20M210 111h20M240 111h20M280 111h20M310 111h20M370 111h20M410 111h20M60 112h40M110 112h40M170 112h20M210 112h20M240 112h20M280 112h20M310 112h20M370 112h20M410 112h20M60 113h40M110 113h40M170 113h20M210 113h20M240 113h20M280 113h20M310 113h20M370 113h20M410 113h20M60 114h12M73 114h27M110 114h40M170 114h20M210 114h20M240 114h20M280 114h20M310 114h20M370 114h20M410 114h20M60 115h34M95 115h5M110 115h40M170 115h20M210 115h20M240 115h20M280 115h20M310 115h20M370 115h20M410 115h20M60 116h40M110 116h40M170 116h20M210 116h20M240 116h20M280 116h20M310 116h20M370 116h20M410 116h20M60 117h20M81 117h19M110 117h40M170 117h20M210 117h20M240 117h20M280 117h20M310 117h20M370 117h20M410 117h20M60 118h40M110 118h30M141 118h9M170 118h20M210 118h20M240 118h20M280 118h20M310 118h20M370 118h20M410 118h20M60 119h40M110 119h40M170 119h20M210 119h20M240 119h20M280 119h20M310 119h20M370 119h20M410 119h20M70 120h30M110 120h30M170 120h60M240 120h20M280 120h20M310 120h50M370 120h51M422 120h8M70 121h30M110 121h30M170 121h60M240 121h20M280 121h20M310 121h50M370 121h60M70 122h30M110 122h30M170 122h60M240 122h20M280 122h9M290 122h10M310 122h50M370 122h60M70 123h30M110 123h30M170 123h60M240 123h20M280 123h20M310 123h50M370 123h60M70 124h30M110 124h30M170 124h60M240 124h20M280 124h20M310 124h50M370 124h60M70 125h30M110 125h30M170 125h60M240 125h20M280 125h20M310 125h50M370 125h60M70 126h30M110 126h30M170 126h60M240 126h20M280 126h20M310 126h50M370 126h60M70 127h30M110 127h30M170 127h60M240 127h20M280 127h20M310 127h50M370 127h60M70 128h30M110 128h30M170 128h60M240 128h20M280 128h20M310 128h50M370 128h60M70 129h30M110 129h30M170 129h60M240 129h20M280 129h20M310 129h50M370 129h41M412 129h18M70 130h20M120 130h20M180 130h40M240 130h20M280 130h20M310 130h50M370 130h50M70 131h20M120 131h20M180 131h40M240 131h20M280 131h20M310 131h50M370 131h50M70 132h20M120 132h20M180 132h40M240 132h20M280 132h20M310 132h50M370 132h50M70 133h20M120 133h20M180 133h40M240 133h20M280 133h20M310 133h50M370 133h50M70 134h20M120 134h20M180 134h40M240 134h20M280 134h14M295 134h5M310 134h50M370 134h50M70 135h20M120 135h20M180 135h40M240 135h20M280 135h20M310 135h50M370 135h50M70 136h20M120 136h20M180 136h40M240 136h20M280 136h20M310 136h50M370 136h50M70 137h20M120 137h20M180 137h40M240 137h20M280 137h20M310 137h50M370 137h50M70 138h20M120 138h20M180 138h40M240 138h20M280 138h20M310 138h50M370 138h50M70 139h20M120 139h20M180 139h40M240 139h20M280 139h20M310 139h50M370 139h50M190 250h10M270 250h10M190 251h10M270 251h10M190 252h10M270 252h10M190 253h10M270 253h10M190 254h10M270 254h10M190 255h10M270 255h10M190 256h10M270 256h10M190 257h10M270 257h10M190 258h10M270 258h10M190 259h10M270 259h10M180 260h10M200 260h10M260 260h10M280 260h10M180 261h10M200 261h10M260 261h10M280 261h10M180 262h10M200 262h10M260 262h10M280 262h10M180 263h10M200 263h10M260 263h10M280 263h10M180 264h6M187 264h3M200 264h10M260 264h10M280 264h10M180 265h10M200 265h10M260 265h10M280 265h10M180 266h10M200 266h10M260 266h10M280 266h10M180 267h10M200 267h10M260 267h10M280 267h10M180 268h10M200 268h10M260 268h10M280 268h10M180 269h10M200 269h10M260 269h10M280 269h10M190 270h10M270 270h10M190 271h10M270 271h10M190 272h10M270 272h10M190 273h10M270 273h10M190 274h10M270 274h10M190 275h10M270 275h10M190 276h10M270 276h10M190 277h10M270 277h10M190 278h10M270 278h10M190 279h10M270 279h10" />
<path stroke="#fbf336" d="M58 40h1M373 52h1M226 85h1M64 106h1M139 109h1M94 115h1M421 120h1M289 122h1" />
<path stroke="#fbf237" d="M395 42h1M92 49h1M293 55h1M287 57h1M185 73h1M311 85h1M248 87h1M185 98h1M188 105h1M317 105h1M80 117h1M140 118h1" />
<path stroke="#faf236" d="M207 43h1M267 58h1M285 62h1M147 67h1M285 67h1M60 74h1M51 76h1M297 84h1M417 96h1M252 99h1M72 114h1M411 129h1M294 134h1M186 264h1" />
<path stroke="#00ffff" d="M100 160h30M340 160h30M100 161h30M340 161h30M100 162h30M340 162h30M100 163h30M340 163h30M100 164h30M340 164h30M100 165h30M340 165h30M100 166h30M340 166h30M100 167h30M340 167h30M100 168h30M340 168h30M100 169h30M340 169h30M90 170h50M330 170h50M90 171h50M330 171h50M90 172h50M330 172h50M90 173h50M330 173h50M90 174h50M330 174h50M90 175h50M330 175h50M90 176h50M330 176h50M90 177h50M330 177h50M90 178h50M330 178h50M90 179h50M330 179h50M90 180h10M110 180h10M130 180h10M330 180h10M350 180h10M370 180h10M90 181h10M110 181h10M130 181h10M330 181h10M350 181h10M370 181h10M90 182h10M110 182h10M130 182h10M330 182h10M350 182h10M370 182h10M90 183h10M110 183h10M130 183h10M330 183h10M350 183h10M370 183h10M90 184h10M110 184h10M130 184h10M330 184h10M350 184h10M370 184h10M90 185h10M110 185h10M130 185h10M330 185h10M350 185h10M370 185h10M90 186h10M110 186h10M130 186h10M330 186h10M350 186h10M370 186h10M90 187h5M96 187h4M110 187h10M130 187h10M330 187h10M350 187h10M370 187h10M90 188h10M110 188h10M130 188h10M330 188h10M350 188h10M370 188h10M90 189h10M110 189h10M130 189h10M330 189h10M350 189h10M370 189h10M90 190h50M330 190h50M90 191h50M330 191h50M90 192h50M330 192h50M90 193h50M330 193h50M90 194h50M330 194h50M90 195h50M330 195h50M90 196h50M330 196h50M90 197h50M330 197h50M90 198h50M330 198h50M90 199h50M330 199h50M70 200h10M90 200h20M120 200h20M330 200h20M360 200h20M390 200h10M70 201h10M90 201h20M120 201h20M330 201h20M360 201h20M390 201h10M70 202h10M90 202h20M120 202h20M330 202h20M360 202h20M390 202h10M70 203h10M90 203h20M120 203h20M330 203h20M360 203h20M390 203h10M70 204h10M90 204h20M120 204h20M330 204h20M360 204h20M390 204h10M70 205h10M90 205h20M120 205h20M330 205h20M360 205h20M390 205h10M70 206h10M90 206h20M120 206h20M330 206h20M360 206h20M390 206h10M70 207h10M90 207h20M120 207h20M330 207h20M360 207h20M390 207h10M70 208h10M90 208h20M120 208h20M330 208h20M360 208h20M390 208h10M70 209h10M90 209h20M120 209h20M330 209h20M360 209h20M390 209h10M70 210h70M330 210h47M378 210h22M70 211h70M330 211h70M70 212h58M129 212h11M330 212h70M70 213h70M330 213h70M70 214h70M330 214h70M70 215h70M330 215h70M70 216h70M330 216h70M70 217h70M330 217h70M70 218h70M330 218h70M70 219h70M330 219h70M80 220h50M340 220h49M80 221h50M340 221h50M80 222h50M340 222h50M80 223h50M340 223h50M80 224h50M340 224h50M80 225h50M340 225h50M80 226h50M340 226h50M80 227h50M340 227h50M80 228h50M340 228h50M80 229h50M340 229h50M70 260h30M370 260h30M70 261h30M370 261h30M70 262h30M370 262h30M70 263h30M370 263h30M70 264h30M370 264h30M70 265h30M370 265h30M70 266h30M370 266h30M70 267h30M370 267h30M70 268h30M370 268h30M70 269h30M370 269h30M60 270h50M360 270h50M60 271h50M360 271h50M60 272h50M360 272h50M60 273h50M360 273h50M60 274h50M360 274h50M60 275h50M360 275h50M60 276h50M360 276h50M60 277h50M360 277h50M60 278h50M360 278h50M60 279h50M360 279h50M60 280h10M80 280h10M100 280h10M360 280h10M380 280h10M400 280h10M60 281h10M80 281h10M100 281h10M360 281h10M380 281h10M400 281h10M60 282h10M80 282h10M100 282h10M360 282h10M380 282h10M400 282h10M60 283h10M80 283h10M100 283h10M360 283h4M365 283h5M380 283h10M400 283h10M60 284h10M80 284h10M100 284h10M360 284h10M380 284h10M400 284h10M60 285h10M80 285h10M100 285h10M360 285h10M380 285h10M400 285h10M60 286h10M80 286h10M100 286h10M360 286h10M380 286h10M400 286h10M60 287h10M80 287h10M100 287h10M360 287h10M380 287h10M400 287h10M60 288h10M80 288h10M100 288h10M360 288h10M380 288h10M400 288h10M60 289h10M80 289h10M100 289h10M360 289h10M380 289h10M400 289h10M60 290h50M360 290h50M60 291h50M360 291h50M60 292h42M103 292h7M360 292h50M60 293h50M360 293h50M60 294h50M360 294h50M60 295h50M360 295h50M60 296h50M360 296h50M60 297h50M360 297h50M60 298h50M360 298h50M60 299h50M360 299h50M40 300h10M60 300h20M90 300h20M360 300h20M390 300h20M420 300h10M40 301h10M60 301h20M90 301h20M360 301h20M390 301h20M420 301h10M40 302h10M60 302h20M90 302h20M360 302h20M390 302h20M420 302h10M40 303h10M60 303h20M90 303h20M360 303h20M390 303h20M420 303h10M40 304h10M60 304h20M90 304h20M360 304h20M390 304h20M420 304h10M40 305h10M60 305h20M90 305h20M360 305h20M390 305h20M420 305h10M40 306h10M60 306h20M90 306h20M360 306h20M390 306h20M420 306h10M40 307h10M60 307h20M90 307h20M360 307h20M390 307h20M420 307h10M40 308h10M60 308h20M90 308h20M360 308h20M390 308h20M420 308h10M40 309h10M60 309h20M90 309h20M360 309h20M390 309h20M420 309h10M40 310h58M99 310h11M360 310h70M40 311h70M360 311h70M40 312h70M360 312h70M40 313h70M360 313h70M40 314h70M360 314h70M40 315h70M360 315h70M40 316h70M360 316h70M40 317h70M360 317h70M40 318h70M360 318h70M40 319h70M360 319h70M50 320h50M370 320h50M50 321h50M370 321h50M50 322h50M370 322h50M50 323h50M370 323h50M50 324h50M370 324h50M50 325h50M370 325h50M50 326h50M370 326h50M50 327h50M370 327h50M50 328h50M370 328h50M50 329h50M370 329h50M100 360h30M340 360h30M100 361h30M340 361h30M100 362h30M340 362h30M100 363h30M340 363h30M100 364h30M340 364h30M100 365h30M340 365h30M100 366h30M340 366h30M100 367h30M340 367h30M100 368h30M340 368h30M100 369h30M340 369h30M90 370h50M330 370h50M90 371h50M330 371h50M90 372h50M330 372h50M90 373h50M330 373h50M90 374h50M330 374h50M90 375h50M330 375h50M90 376h50M330 376h50M90 377h50M330 377h50M90 378h50M330 378h50M90 379h50M330 379h50M90 380h10M110 380h10M130 380h10M330 380h10M350 380h10M370 380h10M90 381h10M110 381h10M130 381h10M330 381h10M350 381h10M370 381h10M90 382h10M110 382h10M130 382h10M330 382h10M350 382h10M370 382h10M90 383h10M110 383h10M130 383h10M330 383h10M350 383h10M370 383h10M90 384h10M110 384h10M130 384h10M330 384h10M350 384h10M370 384h10M90 385h10M110 385h10M130 385h10M330 385h10M350 385h10M370 385h10M90 386h10M110 386h10M130 386h10M330 386h10M350 386h10M370 386h10M90 387h10M110 387h10M130 387h10M330 387h10M350 387h10M370 387h10M90 388h10M110 388h10M130 388h10M330 388h10M350 388h10M370 388h10M90 389h10M110 389h10M130 389h10M330 389h10M350 389h10M370 389h10M90 390h50M330 390h50M90 391h50M330 391h50M90 392h50M330 392h50M90 393h50M330 393h50M90 394h50M330 394h50M90 395h50M330 395h50M90 396h50M330 396h50M90 397h50M330 397h50M90 398h50M330 398h50M90 399h50M330 399h50M70 400h10M90 400h20M120 400h20M330 400h20M360 400h20M390 400h10M70 401h10M90 401h20M120 401h20M330 401h20M360 401h20M390 401h10M70 402h10M90 402h20M120 402h20M330 402h20M360 402h20M390 402h10M70 403h10M90 403h20M120 403h20M330 403h20M360 403h20M390 403h10M70 404h10M90 404h20M120 404h20M330 404h20M360 404h20M390 404h10M70 405h10M90 405h20M120 405h20M330 405h20M360 405h20M390 405h10M70 406h10M90 406h20M120 406h20M330 406h20M360 406h20M390 406h10M70 407h10M90 407h20M120 407h20M330 407h20M360 407h20M390 407h10M70 408h10M90 408h20M120 408h17M138 408h2M330 408h20M360 408h20M390 408h10M70 409h10M90 409h20M120 409h20M330 409h20M360 409h20M390 409h10M70 410h70M330 410h70M70 411h70M330 411h70M70 412h70M330 412h70M70 413h70M330 413h70M70 414h70M330 414h70M70 415h70M330 415h70M70 416h70M330 416h70M70 417h70M330 417h70M70 418h70M330 418h70M70 419h70M330 419h70M80 420h50M340 420h45M386 420h4M80 421h50M340 421h50M80 422h50M340 422h50M80 423h50M340 423h50M80 424h50M340 424h50M80 425h50M340 425h50M80 426h50M340 426h50M80 427h50M340 427h50M80 428h50M340 428h50M80 429h50M340 429h24M365 429h25" />
<path stroke="#000000" d="M220 180h10M220 181h10M220 182h10M220 183h10M220 184h10M220 185h10M220 186h10M220 187h10M220 188h10M220 189h10M210 190h10M230 190h10M210 191h10M230 191h10M210 192h10M230 192h10M210 193h10M230 193h10M210 194h10M230 194h10M210 195h10M230 195h10M210 196h10M230 196h10M210 197h10M230 197h10M210 198h10M230 198h10M210 199h10M230 199h10M220 200h10M240 200h10M220 201h10M240 201h10M220 202h10M240 202h10M220 203h10M240 203h10M220 204h10M240 204h10M220 205h10M240 205h10M220 206h10M240 206h10M220 207h10M240 207h10M220 208h10M240 208h10M220 209h10M240 209h10M180 210h40M250 210h40M180 211h40M250 211h40M180 212h40M250 212h40M180 213h40M250 213h40M180 214h40M250 214h40M180 215h40M250 215h40M180 216h40M250 216h40M180 217h40M250 217h40M180 218h40M250 218h40M180 219h40M250 219h40M170 220h10M290 220h10M170 221h10M290 221h10M170 222h10M290 222h10M170 223h10M290 223h10M170 224h10M290 224h10M170 225h10M290 225h10M170 226h10M290 226h10M170 227h10M290 227h10M170 228h10M290 228h10M170 229h10M290 229h10M160 230h10M300 230h10M160 231h10M300 231h10M160 232h10M300 232h10M160 233h10M300 233h10M160 234h10M300 234h10M160 235h10M300 235h10M160 236h10M300 236h10M160 237h10M300 237h10M160 238h4M165 238h5M300 238h10M160 239h10M300 239h10M150 240h10M180 240h20M270 240h20M310 240h10M150 241h6M157 241h3M180 241h20M270 241h20M310 241h10M150 242h6M157 242h3M180 242h20M270 242h20M310 242h10M150 243h10M180 243h20M270 243h20M310 243h10M150 244h10M180 244h20M270 244h20M310 244h10M150 245h10M180 245h20M270 245h20M310 245h10M150 246h10M180 246h20M270 246h20M310 246h10M150 247h10M180 247h20M270 247h20M310 247h10M150 248h10M180 248h20M270 248h20M310 248h10M150 249h10M180 249h20M270 249h20M310 249h10M150 250h10M170 250h20M200 250h10M260 250h10M280 250h20M310 250h10M150 251h10M170 251h20M200 251h10M260 251h10M280 251h20M310 251h10M150 252h10M170 252h20M200 252h10M260 252h10M280 252h20M310 252h10M150 253h10M170 253h20M200 253h10M260 253h10M280 253h20M310 253h10M150 254h10M170 254h20M200 254h10M260 254h10M280 254h20M310 254h10M150 255h10M170 255h20M200 255h10M260 255h10M280 255h20M310 255h10M150 256h10M170 256h20M200 256h10M260 256h10M280 256h20M310 256h10M150 257h10M170 257h20M200 257h10M260 257h10M280 257h20M310 257h10M150 258h10M170 258h20M200 258h10M260 258h10M280 258h20M310 258h10M150 259h10M170 259h20M200 259h10M260 259h10M280 259h20M310 259h10M150 260h10M170 260h10M210 260h10M250 260h10M290 260h10M310 260h10M150 261h10M170 261h10M210 261h10M250 261h10M290 261h10M310 261h10M150 262h10M170 262h10M210 262h10M250 262h10M290 262h10M310 262h10M150 263h10M170 263h10M210 263h10M250 263h10M290 263h10M310 263h10M150 264h10M170 264h10M210 264h10M250 264h10M290 264h10M310 264h10M150 265h10M170 265h10M210 265h10M250 265h10M290 265h10M310 265h10M150 266h10M170 266h10M210 266h10M250 266h6M257 266h3M290 266h10M310 266h10M150 267h10M170 267h10M210 267h10M250 267h10M290 267h10M310 267h10M150 268h10M170 268h10M210 268h10M250 268h10M290 268h10M310 268h10M150 269h10M170 269h10M210 269h10M250 269h10M290 269h10M310 269h10M150 270h10M180 270h10M200 270h20M230 270h10M250 270h20M280 270h10M310 270h10M150 271h10M180 271h10M200 271h20M230 271h10M250 271h20M280 271h10M310 271h10M150 272h10M180 272h10M200 272h20M230 272h10M250 272h20M280 272h10M310 272h10M150 273h10M180 273h10M200 273h20M230 273h10M250 273h20M280 273h10M310 273h10M150 274h10M180 274h10M200 274h20M230 274h10M250 274h20M280 274h10M310 274h10M150 275h10M180 275h10M200 275h20M230 275h10M250 275h20M280 275h10M310 275h10M150 276h10M180 276h10M200 276h20M230 276h10M250 276h20M280 276h10M310 276h10M150 277h10M180 277h10M200 277h20M230 277h10M250 277h20M280 277h10M310 277h10M150 278h10M180 278h10M200 278h19M230 278h10M250 278h20M280 278h10M310 278h10M150 279h10M180 279h10M200 279h20M230 279h10M250 279h20M280 279h10M310 279h10M150 280h10M200 280h10M230 280h10M260 280h10M310 280h10M150 281h8M159 281h1M200 281h10M230 281h10M260 281h10M310 281h10M150 282h10M200 282h10M230 282h10M260 282h10M310 282h10M150 283h10M200 283h10M230 283h10M260 283h10M310 283h10M150 284h10M200 284h10M230 284h10M260 284h10M310 284h10M150 285h10M200 285h10M230 285h10M260 285h10M310 285h10M150 286h10M200 286h10M230 286h10M260 286h10M310 286h10M150 287h10M200 287h10M230 287h10M260 287h10M310 287h10M150 288h10M200 288h10M230 288h10M260 288h10M310 288h10M150 289h10M200 289h10M230 289h10M260 289h10M310 289h10M150 290h10M230 290h10M310 290h10M150 291h10M230 291h10M310 291h10M150 292h10M230 292h10M310 292h10M150 293h10M230 293h10M310 293h10M150 294h10M230 294h10M310 294h10M150 295h10M230 295h10M310 295h10M150 296h10M230 296h10M310 296h10M150 297h10M230 297h10M310 297h10M150 298h10M230 298h10M310 298h10M150 299h10M230 299h10M310 299h10M150 300h10M170 300h10M210 300h10M250 300h10M290 300h10M310 300h10M150 301h10M170 301h10M210 301h10M250 301h10M290 301h10M310 301h10M150 302h10M170 302h10M210 302h10M250 302h10M290 302h10M310 302h10M150 303h10M170 303h10M210 303h10M250 303h10M290 303h10M310 303h10M150 304h10M170 304h10M210 304h10M250 304h10M290 304h10M310 304h10M150 305h10M170 305h10M210 305h10M250 305h10M290 305h10M310 305h10M150 306h10M170 306h10M210 306h10M250 306h10M290 306h10M310 306h10M150 307h10M170 307h10M210 307h10M250 307h10M290 307h10M310 307h10M150 308h10M170 308h10M210 308h10M250 308h10M290 308h10M310 308h10M150 309h3M154 309h6M170 309h10M210 309h10M250 309h10M290 309h10M310 309h10M150 310h9M170 310h20M200 310h30M240 310h30M280 310h20M310 310h10M150 311h10M170 311h20M200 311h30M240 311h30M280 311h20M310 311h10M150 312h10M170 312h20M200 312h30M240 312h30M280 312h20M310 312h10M150 313h10M170 313h20M200 313h30M240 313h30M280 313h20M310 313h10M150 314h10M170 314h20M200 314h30M240 314h30M280 314h20M310 314h10M150 315h6M157 315h3M170 315h20M200 315h30M240 315h30M280 315h20M310 315h10M150 316h10M170 316h20M200 316h30M240 316h30M280 316h20M310 316h10M150 317h10M170 317h20M200 317h30M240 317h30M280 317h20M310 317h10M150 318h10M170 318h20M200 318h30M240 318h30M280 318h20M310 318h10M150 319h10M170 319h20M200 319h30M240 319h30M280 319h20M310 319h10M150 320h10M170 320h130M310 320h10M150 321h10M170 321h33M204 321h96M310 321h10M150 322h10M170 322h130M310 322h10M150 323h10M170 323h110M281 323h19M310 323h10M150 324h10M170 324h93M264 324h36M310 324h10M150 325h10M170 325h130M310 325h10M150 326h10M170 326h130M310 326h10M150 327h10M170 327h130M310 327h10M150 328h10M170 328h130M310 328h10M150 329h10M170 329h130M310 329h10M150 330h10M170 330h130M310 330h10M150 331h10M170 331h130M310 331h10M150 332h10M170 332h130M310 332h10M150 333h10M170 333h117M288 333h12M310 333h10M150 334h10M170 334h130M310 334h10M150 335h10M170 335h130M310 335h10M150 336h10M170 336h130M310 336h10M150 337h10M170 337h130M310 337h10M150 338h9M170 338h130M310 338h10M150 339h10M170 339h130M310 339h10M150 340h10M180 340h30M220 340h30M260 340h30M310 340h10M150 341h10M180 341h30M220 341h30M260 341h30M310 341h10M150 342h10M180 342h30M220 342h30M260 342h30M310 342h10M150 343h10M180 343h30M220 343h30M260 343h30M310 343h10M150 344h10M180 344h30M220 344h30M260 344h30M310 344h10M150 345h10M180 345h30M220 345h30M260 345h30M310 345h10M150 346h10M180 346h30M220 346h30M260 346h30M310 346h10M150 347h10M180 347h30M220 347h30M260 347h30M310 347h10M150 348h10M180 348h30M220 348h30M260 348h30M310 348h10M150 349h10M180 349h30M220 349h30M260 349h30M310 349h10M160 350h10M190 350h10M230 350h10M270 350h10M300 350h10M160 351h10M190 351h10M230 351h10M270 351h10M300 351h10M160 352h10M190 352h10M230 352h10M270 352h10M300 352h10M160 353h10M190 353h10M230 353h10M270 353h10M300 353h10M160 354h10M190 354h10M230 354h10M270 354h10M300 354h10M160 355h10M190 355h10M230 355h10M270 355h10M300 355h10M160 356h10M190 356h10M230 356h10M270 356h10M300 356h10M160 357h5M166 357h4M190 357h10M230 357h10M270 357h10M300 357h10M160 358h10M190 358h10M230 358h10M270 358h10M300 358h10M160 359h10M190 359h10M230 359h10M270 359h10M300 359h10M170 360h10M290 360h10M170 361h10M290 361h10M170 362h10M290 362h10M170 363h7M178 363h2M290 363h10M170 364h10M290 364h10M170 365h10M290 365h10M170 366h10M290 366h10M170 367h10M290 367h10M170 368h10M290 368h10M170 369h10M290 369h10M180 370h110M180 371h110M180 372h110M180 373h110M180 374h110M180 375h110M180 376h110M180 377h5M186 377h104M180 378h110M180 379h110M220 380h40M220 381h40M220 382h40M220 383h40M220 384h40M220 385h40M220 386h40M220 387h40M220 388h40M220 389h40M200 390h80M200 391h80M200 392h80M200 393h80M200 394h80M200 395h80M200 396h80M200 397h80M200 398h80M200 399h80M190 400h100M190 401h100M190 402h15M206 402h84M190 403h100M190 404h100M190 405h100M190 406h100M190 407h100M190 408h100M190 409h100M180 410h120M180 411h120M180 412h120M180 413h120M180 414h120M180 415h120M180 416h120M180 417h120M180 418h83M264 418h36M180 419h120" />
<path stroke="#00fffe" d="M95 187h1M377 210h1M128 212h1M389 220h1M98 310h1M137 408h1" />
<path stroke="#048d43" d="M220 190h10M220 191h10M220 192h10M220 193h10M220 194h10M220 195h10M220 196h10M220 197h10M220 198h10M220 199h10M230 200h10M230 201h10M230 202h10M230 203h10M230 204h10M230 205h10M230 206h10M230 207h10M230 208h10M230 209h10M220 210h30M220 211h30M220 212h30M220 213h30M220 214h30M220 215h30M220 216h30M220 217h30M220 218h30M220 219h30M230 220h10M230 221h7M238 221h2M230 222h10M230 223h10M230 224h10M230 225h10M230 226h10M230 227h10M230 228h10M230 229h10" />
<path stroke="#ec6b04" d="M180 220h14M195 220h5M210 220h20M240 220h20M270 220h20M180 221h20M210 221h20M240 221h20M270 221h20M180 222h20M210 222h20M240 222h20M270 222h20M180 223h20M210 223h20M240 223h8M249 223h11M270 223h20M180 224h20M210 224h20M240 224h20M270 224h20M180 225h20M210 225h20M240 225h20M270 225h20M180 226h20M210 226h20M240 226h20M270 226h20M180 227h20M210 227h20M240 227h20M270 227h20M180 228h20M210 228h20M240 228h20M270 228h20M180 229h20M210 229h20M240 229h20M270 229h20M170 230h20M200 230h70M280 230h20M170 231h20M200 231h70M280 231h20M170 232h20M200 232h70M280 232h20M170 233h20M200 233h70M280 233h20M170 234h20M200 234h70M280 234h20M170 235h20M200 235h70M280 235h20M170 236h20M200 236h70M281 236h19M170 237h13M184 237h6M200 237h70M280 237h20M170 238h20M200 238h70M280 238h20M170 239h20M200 239h70M280 239h20M160 240h20M200 240h38M239 240h31M290 240h20M160 241h20M200 241h70M290 241h20M160 242h20M200 242h70M290 242h20M160 243h20M200 243h70M290 243h20M160 244h20M200 244h70M290 244h20M160 245h20M200 245h70M290 245h20M160 246h20M200 246h70M290 246h20M160 247h20M200 247h70M290 247h20M160 248h20M200 248h21M222 248h48M290 248h20M160 249h20M200 249h70M290 249h20M160 250h10M210 250h50M300 250h10M160 251h10M210 251h50M300 251h10M160 252h10M210 252h50M300 252h10M160 253h10M210 253h50M300 253h10M160 254h10M210 254h30M241 254h19M300 254h10M160 255h10M210 255h50M300 255h10M160 256h10M210 256h50M300 256h10M160 257h10M210 257h50M300 257h10M160 258h10M210 258h50M300 258h10M160 259h10M210 259h50M300 259h10M160 260h10M220 260h30M300 260h10M160 261h1M162 261h8M220 261h30M300 261h10M160 262h10M220 262h30M300 262h10M160 263h10M220 263h30M300 263h10M160 264h10M220 264h30M300 264h10M160 265h10M220 265h30M300 265h10M160 266h10M220 266h30M300 266h10M160 267h10M220 267h30M300 267h10M160 268h10M220 268h30M300 268h10M160 269h10M220 269h30M300 269h10M160 270h20M220 270h10M240 270h10M290 270h20M160 271h17M178 271h2M220 271h10M240 271h10M290 271h20M160 272h20M220 272h10M240 272h10M290 272h20M160 273h20M220 273h10M240 273h10M290 273h20M160 274h20M220 274h10M240 274h10M290 274h20M160 275h20M220 275h10M240 275h10M290 275h20M160 276h20M220 276h10M240 276h10M290 276h20M160 277h20M220 277h10M240 277h10M290 277h20M160 278h20M220 278h10M240 278h10M290 278h20M160 279h20M220 279h10M240 279h10M290 279h20M160 280h20M190 280h10M210 280h20M240 280h20M270 280h10M290 280h20M160 281h20M190 281h10M210 281h20M240 281h20M270 281h10M290 281h20M160 282h20M190 282h10M210 282h20M240 282h20M270 282h10M290 282h20M160 283h20M190 283h10M210 283h20M240 283h20M270 283h10M290 283h20M160 284h20M190 284h10M210 284h20M240 284h20M270 284h10M290 284h20M160 285h20M190 285h10M210 285h20M240 285h20M270 285h10M290 285h20M160 286h20M190 286h10M210 286h20M240 286h20M270 286h10M290 286h20M160 287h20M190 287h10M210 287h20M240 287h20M270 287h10M290 287h20M160 288h20M190 288h10M210 288h20M240 288h20M270 288h10M290 288h20M160 289h20M190 289h10M210 289h20M240 289h20M270 289h10M290 289h20M160 290h20M190 290h40M240 290h40M290 290h20M160 291h20M190 291h40M240 291h40M290 291h20M160 292h20M190 292h40M240 292h40M290 292h20M160 293h20M190 293h40M240 293h40M290 293h20M160 294h20M190 294h40M240 294h40M290 294h20M160 295h20M190 295h40M240 295h40M290 295h20M160 296h20M190 296h36M227 296h3M240 296h40M290 296h20M160 297h20M190 297h40M240 297h40M290 297h20M160 298h20M190 298h40M240 298h40M290 298h20M160 299h8M169 299h11M190 299h40M240 299h40M290 299h20M160 300h10M190 300h20M220 300h30M260 300h20M300 300h10M160 301h10M190 301h20M220 301h30M260 301h20M300 301h10M160 302h10M190 302h20M220 302h30M260 302h20M300 302h10M160 303h10M190 303h20M220 303h30M260 303h20M300 303h9M160 304h10M190 304h20M220 304h30M260 304h20M300 304h10M160 305h10M190 305h20M220 305h30M260 305h20M300 305h10M160 306h10M190 306h20M220 306h30M260 306h20M300 306h10M160 307h10M190 307h20M220 307h30M260 307h20M300 307h10M160 308h10M190 308h20M220 308h30M260 308h20M300 308h10M160 309h10M190 309h20M221 309h29M260 309h20M300 309h10M160 310h10M190 310h10M230 310h10M270 310h10M300 310h10M160 311h10M190 311h10M230 311h10M270 311h10M300 311h10M160 312h10M190 312h10M230 312h10M270 312h10M300 312h10M160 313h10M190 313h10M230 313h10M270 313h10M300 313h10M160 314h10M190 314h10M230 314h10M270 314h10M300 314h10M160 315h10M190 315h10M230 315h10M270 315h10M300 315h10M160 316h10M190 316h10M230 316h10M270 316h10M300 316h10M160 317h10M190 317h10M230 317h10M270 317h10M300 317h10M160 318h10M190 318h10M230 318h10M270 318h10M300 318h10M160 319h10M190 319h10M230 319h10M270 319h10M300 319h10M160 320h10M300 320h10M160 321h10M300 321h10M160 322h10M300 322h10M160 323h10M300 323h10M160 324h10M300 324h10M160 325h10M300 325h10M160 326h10M300 326h10M160 327h10M300 327h10M160 328h10M300 328h10M160 329h10M300 329h10M160 330h10M300 330h10M160 331h10M300 331h10M160 332h10M300 332h10M160 333h10M300 333h10M160 334h10M300 334h10M160 335h10M300 335h10M160 336h10M300 336h10M160 337h10M300 337h10M160 338h10M300 338h10M160 339h10M300 339h10M160 340h20M210 340h10M250 340h10M290 340h20M160 341h20M210 341h10M250 341h10M290 341h20M160 342h20M210 342h10M250 342h10M290 342h20M160 343h20M210 343h10M250 343h10M290 343h20M160 344h20M210 344h10M250 344h10M290 344h20M160 345h20M210 345h10M250 345h10M290 345h20M160 346h20M210 346h10M250 346h10M290 346h20M160 347h20M210 347h10M250 347h10M290 347h20M160 348h20M210 348h10M250 348h10M290 348h20M160 349h20M210 349h10M250 349h10M290 349h20M170 350h20M210 350h20M240 350h20M280 350h20M170 351h20M210 351h20M240 351h20M280 351h20M170 352h20M210 352h20M240 352h20M280 352h20M170 353h20M210 353h20M240 353h20M280 353h20M170 354h20M210 354h20M240 354h20M280 354h20M170 355h20M210 355h20M240 355h20M280 355h20M170 356h20M210 356h20M240 356h20M280 356h16M297 356h3M170 357h20M210 357h20M240 357h20M280 357h20M170 358h20M210 358h13M224 358h6M240 358h20M280 358h20M170 359h20M210 359h20M240 359h20M280 359h20M180 360h30M220 360h21M242 360h8M260 360h30M180 361h30M220 361h30M260 361h30M180 362h30M220 362h30M260 362h30M180 363h30M220 363h6M227 363h23M260 363h30M180 364h30M220 364h30M260 364h30M180 365h30M220 365h30M260 365h30M180 366h30M220 366h30M260 366h30M180 367h30M220 367h30M260 367h30M180 368h30M220 368h30M260 368h30M180 369h30M220 369h30M260 369h30" />
<path stroke="#ec6b05" d="M194 220h1M248 223h1M221 248h1M161 261h1M296 356h1" />
<path stroke="#f7a661" d="M200 220h10M260 220h10M200 221h10M260 221h10M200 222h10M260 222h10M200 223h10M260 223h10M200 224h10M260 224h10M200 225h10M260 225h10M200 226h10M260 226h10M200 227h10M260 227h10M200 228h10M260 228h10M200 229h10M260 229h10M190 230h10M270 230h10M190 231h10M270 231h10M190 232h10M270 232h10M190 233h10M270 233h10M190 234h10M270 234h10M190 235h10M270 235h10M190 236h10M270 236h10M190 237h10M270 237h10M190 238h10M270 238h10M190 239h10M270 239h10M180 280h10M280 280h10M180 281h10M280 281h10M180 282h10M280 282h10M180 283h10M280 283h10M180 284h10M280 284h10M180 285h10M280 285h10M180 286h10M280 286h10M180 287h10M280 287h10M180 288h10M280 288h10M180 289h10M280 289h10M180 290h10M280 290h10M180 291h10M280 291h10M180 292h10M280 292h10M180 293h10M280 293h10M180 294h10M280 294h10M180 295h10M280 295h10M180 296h10M280 296h10M180 297h10M280 297h10M180 298h10M281 298h9M180 299h10M280 299h10M180 300h10M280 300h10M180 301h10M280 301h10M180 302h10M280 302h10M180 303h10M280 303h10M180 304h10M280 304h10M180 305h10M280 305h10M180 306h10M280 306h10M180 307h10M280 307h10M180 308h10M280 308h10M180 309h10M280 309h10M200 350h10M260 350h10M200 351h10M260 351h10M200 352h10M260 352h10M200 353h10M260 353h10M200 354h10M260 354h10M200 355h10M260 355h10M200 356h10M260 356h10M200 357h10M260 357h10M200 358h10M260 358h10M200 359h10M260 359h10M210 360h10M250 360h10M210 361h10M250 361h10M210 362h10M250 362h10M210 363h10M250 363h10M210 364h10M250 364h10M210 365h10M250 365h10M210 366h10M250 366h10M210 367h10M250 367h10M210 368h10M250 368h10M210 369h10M250 369h10" />
<path stroke="#058d43" d="M237 221h1" />
<path stroke="#ec6a04" d="M280 236h1M238 240h1M226 296h1M220 309h1M223 358h1M241 360h1M226 363h1" />
<path stroke="#ed6b04" d="M183 237h1M240 254h1M177 271h1M168 299h1M309 303h1" />
<path stroke="#000001" d="M164 238h1M158 281h1M203 321h1M263 324h1M287 333h1M185 377h1M263 418h1" />
<path stroke="#010000" d="M156 241h1M156 242h1M219 278h1M153 309h1M159 310h1M156 315h1M159 338h1M165 357h1M177 363h1" />
<path stroke="#000100" d="M256 266h1M280 323h1M205 402h1" />
<path stroke="#00feff" d="M364 283h1M385 420h1M364 429h1" />
<path stroke="#01ffff" d="M102 292h1" />
<path stroke="#f7a761" d="M280 298h1" />
</svg>