<svg xmlns="http://www.w3.org/2000/svg" viewBox="0 -0.5 480 480" shape-rendering="crispEdges">
<metadata>Made with Pixels to Svg https://codepen.io/shshaw/pen/XbxvNj</metadata>
<path stroke="#01013a" d="M0 0h57M58 0h41M100 0h98M199 0h281M0 1h480M0 2h296M297 2h183M0 3h68M69 3h76M146 3h334M0 4h30M31 4h449M0 5h113M114 5h366M0 6h480M0 7h480M0 8h480M0 9h219M220 9h260M0 10h10M470 10h10M0 11h10M470 11h10M0 12h10M470 12h10M0 13h10M470 13h10M0 14h10M470 14h10M0 15h10M470 15h10M0 16h10M470 16h10M0 17h10M470 17h10M0 18h10M470 18h10M0 19h10M470 19h10M0 20h10M20 20h177M198 20h172M371 20h89M470 20h10M0 21h10M20 21h440M470 21h10M0 22h10M20 22h440M470 22h10M0 23h10M20 23h440M470 23h10M0 24h10M20 24h440M470 24h10M0 25h10M20 25h440M470 25h10M0 26h10M20 26h146M167 26h293M470 26h10M0 27h10M20 27h440M470 27h10M0 28h10M20 28h440M470 28h10M0 29h10M20 29h440M470 29h10M0 30h10M20 30h460M0 31h10M20 31h58M79 31h401M0 32h10M20 32h335M356 32h124M0 33h10M20 33h460M0 34h10M20 34h460M0 35h10M20 35h75M96 35h327M424 35h56M0 36h10M20 36h460M0 37h10M20 37h460M0 38h10M20 38h409M430 38h50M0 39h10M20 39h460M0 40h10M20 40h18M39 40h11M70 40h20M110 40h30M160 40h20M220 40h20M290 40h20M330 40h40M420 40h40M470 40h10M0 41h10M20 41h30M70 41h20M110 41h30M160 41h20M220 41h20M290 41h20M330 41h40M420 41h40M470 41h10M0 42h10M20 42h30M70 42h20M110 42h30M160 42h20M220 42h20M290 42h20M330 42h40M420 42h40M470 42h10M0 43h10M20 43h30M70 43h20M110 43h30M160 43h20M220 43h20M290 43h20M330 43h40M420 43h40M470 43h10M0 44h10M20 44h30M70 44h20M110 44h30M160 44h20M220 44h20M290 44h20M330 44h40M420 44h40M470 44h10M0 45h10M20 45h30M70 45h20M110 45h30M160 45h20M220 45h20M290 45h20M330 45h40M420 45h40M470 45h10M0 46h10M20 46h30M70 46h20M110 46h30M160 46h20M220 46h20M290 46h20M330 46h40M420 46h40M470 46h10M0 47h10M20 47h30M70 47h20M110 47h30M160 47h20M220 47h20M290 47h20M330 47h40M420 47h40M470 47h10M0 48h10M20 48h30M70 48h20M110 48h30M160 48h20M220 48h20M290 48h20M330 48h40M420 48h40M470 48h10M0 49h10M20 49h30M70 49h20M110 49h30M160 49h20M220 49h20M290 49h20M330 49h40M420 49h21M442 49h18M470 49h10M0 50h10M20 50h30M70 50h20M110 50h30M160 50h10M230 50h10M300 50h10M330 50h40M430 50h50M0 51h10M20 51h30M70 51h20M110 51h30M160 51h10M230 51h10M300 51h10M330 51h40M430 51h50M0 52h10M20 52h30M70 52h20M110 52h30M160 52h10M230 52h10M300 52h10M330 52h40M430 52h50M0 53h10M20 53h30M70 53h20M110 53h30M160 53h10M230 53h10M300 53h10M330 53h40M430 53h50M0 54h10M20 54h30M70 54h20M110 54h30M160 54h10M230 54h10M300 54h10M330 54h40M430 54h50M0 55h10M20 55h30M70 55h20M110 55h30M160 55h10M230 55h10M300 55h10M330 55h40M430 55h50M0 56h10M20 56h30M70 56h20M110 56h30M160 56h10M230 56h10M300 56h10M330 56h16M347 56h23M430 56h50M0 57h10M20 57h30M70 57h20M110 57h30M160 57h10M230 57h10M300 57h10M330 57h40M430 57h50M0 58h10M20 58h30M70 58h20M110 58h30M160 58h10M230 58h10M300 58h10M330 58h40M430 58h50M0 59h10M20 59h30M70 59h20M110 59h30M160 59h10M230 59h10M300 59h10M330 59h40M430 59h50M0 60h10M20 60h30M70 60h20M110 60h30M160 60h10M190 60h20M230 60h10M260 60h20M300 60h10M330 60h40M390 60h20M430 60h30M470 60h10M0 61h10M20 61h30M70 61h20M110 61h30M160 61h10M190 61h20M230 61h10M260 61h20M300 61h10M330 61h40M390 61h20M430 61h30M470 61h10M0 62h10M20 62h30M70 62h20M110 62h30M160 62h10M190 62h20M230 62h10M260 62h20M300 62h10M330 62h40M390 62h20M430 62h30M470 62h10M0 63h10M20 63h30M70 63h20M110 63h30M160 63h10M190 63h20M230 63h10M260 63h20M300 63h10M330 63h40M390 63h20M430 63h30M470 63h4M475 63h5M0 64h10M20 64h30M70 64h20M110 64h30M160 64h10M190 64h20M230 64h10M260 64h20M300 64h10M330 64h40M390 64h20M430 64h30M470 64h10M0 65h10M20 65h30M70 65h20M110 65h30M160 65h10M190 65h20M230 65h10M260 65h20M300 65h10M330 65h40M390 65h20M430 65h30M470 65h10M0 66h10M20 66h30M70 66h20M110 66h30M160 66h10M190 66h20M230 66h10M260 66h20M300 66h10M330 66h40M390 66h20M430 66h30M470 66h10M0 67h10M20 67h30M70 67h20M110 67h23M134 67h6M160 67h10M190 67h20M230 67h10M260 67h20M300 67h10M330 67h40M390 67h20M430 67h30M470 67h10M0 68h10M20 68h15M36 68h14M70 68h20M110 68h30M160 68h10M190 68h20M230 68h10M260 68h20M300 68h10M330 68h40M390 68h20M430 68h30M470 68h10M0 69h10M20 69h30M70 69h20M110 69h30M160 69h10M190 69h20M230 69h10M260 69h20M300 69h10M330 69h40M390 69h20M430 69h30M470 69h10M0 70h10M20 70h30M70 70h20M110 70h30M160 70h10M190 70h20M230 70h10M260 70h20M300 70h10M330 70h40M390 70h20M430 70h50M0 71h10M20 71h30M70 71h20M110 71h30M160 71h10M190 71h20M230 71h10M260 71h20M300 71h10M330 71h36M367 71h3M390 71h20M430 71h50M0 72h10M20 72h30M70 72h20M110 72h30M160 72h10M190 72h20M230 72h10M260 72h20M300 72h10M330 72h40M390 72h20M430 72h50M0 73h10M20 73h30M70 73h20M110 73h30M160 73h10M190 73h20M230 73h10M260 73h20M300 73h10M330 73h40M390 73h13M404 73h6M430 73h50M0 74h10M20 74h30M70 74h20M110 74h30M160 74h10M190 74h20M230 74h10M260 74h20M300 74h10M330 74h40M390 74h20M430 74h50M0 75h10M20 75h6M27 75h23M70 75h20M110 75h30M160 75h10M190 75h20M230 75h10M260 75h20M300 75h10M330 75h40M390 75h20M430 75h50M0 76h10M20 76h30M70 76h20M110 76h30M160 76h10M190 76h20M230 76h10M260 76h20M300 76h10M330 76h13M344 76h26M390 76h20M430 76h50M0 77h10M20 77h30M70 77h20M110 77h30M160 77h10M190 77h20M230 77h10M260 77h20M300 77h10M330 77h40M390 77h20M430 77h50M0 78h10M20 78h30M70 78h20M110 78h30M160 78h10M190 78h20M230 78h1M232 78h8M260 78h20M300 78h10M330 78h40M390 78h20M430 78h50M0 79h10M20 79h30M70 79h20M110 79h30M160 79h10M190 79h20M230 79h10M260 79h20M300 79h10M330 79h40M390 79h20M430 79h50M0 80h10M20 80h40M80 80h10M120 80h10M150 80h20M190 80h20M230 80h10M300 80h10M330 80h40M390 80h20M430 80h30M470 80h10M0 81h10M20 81h40M80 81h10M120 81h10M150 81h20M190 81h20M230 81h10M300 81h10M330 81h40M390 81h20M430 81h30M470 81h10M0 82h10M20 82h40M80 82h10M120 82h10M150 82h20M190 82h20M230 82h10M300 82h10M330 82h40M390 82h20M430 82h30M470 82h10M0 83h10M20 83h40M80 83h10M120 83h10M150 83h20M190 83h20M230 83h10M300 83h10M330 83h40M390 83h20M430 83h30M470 83h10M0 84h10M20 84h40M80 84h10M120 84h10M150 84h20M190 84h20M230 84h10M300 84h10M330 84h40M390 84h20M430 84h30M470 84h10M0 85h10M20 85h40M80 85h10M120 85h10M150 85h20M190 85h20M230 85h10M300 85h10M330 85h40M390 85h20M430 85h30M470 85h10M0 86h10M20 86h40M80 86h10M120 86h10M150 86h20M190 86h20M230 86h10M300 86h10M330 86h40M390 86h20M430 86h30M470 86h10M0 87h10M20 87h40M80 87h10M120 87h10M150 87h20M190 87h20M230 87h10M300 87h10M330 87h40M390 87h20M430 87h30M470 87h10M0 88h10M20 88h26M47 88h13M80 88h10M120 88h10M150 88h20M190 88h20M230 88h10M300 88h10M330 88h40M390 88h20M430 88h30M470 88h10M0 89h10M20 89h24M45 89h15M80 89h10M120 89h10M150 89h20M190 89h20M230 89h10M300 89h10M330 89h40M390 89h20M430 89h30M470 89h10M0 90h10M20 90h40M80 90h10M120 90h10M150 90h20M190 90h20M230 90h10M290 90h20M330 90h40M390 90h20M430 90h50M0 91h10M20 91h3M24 91h36M80 91h10M120 91h10M150 91h20M190 91h20M230 91h10M290 91h20M330 91h40M390 91h20M430 91h50M0 92h10M20 92h40M80 92h10M120 92h10M150 92h20M190 92h20M230 92h10M290 92h20M330 92h40M390 92h20M430 92h50M0 93h10M20 93h40M80 93h10M120 93h10M150 93h20M190 93h20M230 93h10M290 93h20M330 93h40M390 93h20M430 93h50M0 94h10M20 94h40M80 94h10M120 94h10M150 94h20M190 94h20M230 94h10M290 94h20M330 94h40M390 94h20M430 94h50M0 95h10M20 95h40M80 95h10M120 95h10M150 95h20M190 95h20M230 95h10M290 95h20M330 95h40M390 95h20M430 95h50M0 96h10M20 96h40M80 96h10M120 96h10M150 96h20M190 96h20M230 96h10M290 96h20M330 96h40M390 96h20M430 96h50M0 97h10M20 97h40M80 97h10M120 97h10M150 97h20M190 97h20M230 97h10M290 97h20M330 97h40M390 97h12M403 97h7M430 97h50M0 98h10M20 98h40M80 98h10M120 98h10M150 98h20M190 98h20M230 98h10M290 98h20M330 98h40M390 98h20M430 98h50M0 99h10M20 99h40M80 99h10M120 99h10M150 99h20M190 99h20M230 99h10M290 99h20M330 99h40M390 99h20M430 99h50M0 100h10M20 100h40M80 100h10M120 100h10M150 100h20M190 100h20M230 100h10M260 100h20M300 100h10M330 100h40M390 100h20M430 100h30M470 100h10M0 101h10M20 101h40M80 101h10M120 101h10M150 101h20M190 101h20M230 101h10M260 101h20M300 101h10M330 101h40M390 101h20M430 101h30M470 101h10M0 102h10M20 102h40M80 102h10M120 102h10M150 102h20M190 102h20M230 102h10M260 102h20M300 102h10M330 102h40M390 102h20M430 102h30M470 102h10M0 103h10M20 103h40M80 103h10M120 103h10M150 103h20M190 103h20M230 103h10M260 103h20M300 103h10M330 103h40M390 103h20M430 103h30M470 103h10M0 104h10M20 104h40M80 104h10M120 104h10M150 104h20M190 104h20M230 104h10M260 104h20M300 104h10M330 104h40M390 104h20M430 104h30M470 104h10M0 105h10M20 105h40M80 105h10M120 105h10M150 105h20M190 105h20M230 105h10M260 105h20M300 105h10M330 105h40M390 105h20M430 105h30M470 105h10M0 106h10M20 106h40M80 106h10M120 106h10M150 106h20M190 106h20M230 106h10M260 106h14M275 106h5M300 106h10M330 106h40M390 106h20M430 106h30M470 106h10M0 107h10M20 107h40M80 107h10M120 107h10M150 107h20M190 107h20M230 107h10M260 107h20M300 107h10M330 107h40M390 107h20M430 107h30M470 107h10M0 108h10M20 108h40M80 108h10M120 108h10M150 108h20M190 108h20M230 108h10M260 108h20M300 108h10M330 108h8M339 108h31M390 108h20M430 108h30M470 108h10M0 109h10M20 109h40M80 109h10M120 109h10M150 109h20M190 109h20M230 109h6M237 109h3M260 109h20M300 109h10M330 109h40M390 109h20M430 109h30M470 109h10M0 110h10M20 110h40M100 110h10M150 110h20M190 110h20M230 110h10M260 110h20M300 110h10M330 110h40M390 110h20M430 110h30M470 110h10M0 111h10M20 111h40M100 111h10M150 111h20M190 111h13M204 111h6M230 111h10M260 111h20M300 111h10M330 111h40M390 111h20M430 111h30M470 111h10M0 112h10M20 112h40M100 112h10M150 112h20M190 112h20M230 112h10M260 112h20M300 112h10M330 112h40M390 112h20M430 112h30M470 112h10M0 113h10M20 113h40M100 113h10M150 113h20M190 113h20M230 113h10M260 113h20M300 113h10M330 113h40M390 113h20M430 113h30M470 113h10M0 114h10M20 114h40M100 114h10M150 114h20M190 114h20M230 114h10M260 114h20M300 114h10M330 114h40M390 114h20M430 114h30M470 114h10M0 115h10M20 115h40M100 115h10M150 115h20M190 115h20M230 115h10M260 115h20M300 115h10M330 115h40M390 115h20M430 115h30M470 115h10M0 116h10M20 116h40M100 116h10M150 116h20M190 116h20M230 116h10M260 116h20M300 116h10M330 116h40M390 116h20M430 116h30M470 116h10M0 117h10M20 117h7M28 117h32M100 117h10M150 117h20M190 117h20M230 117h10M260 117h20M300 117h10M330 117h40M390 117h20M430 117h30M470 117h10M0 118h10M20 118h40M100 118h10M150 118h20M190 118h20M230 118h10M260 118h20M300 118h10M330 118h40M390 118h20M430 118h30M470 118h10M0 119h10M20 119h40M100 119h10M150 119h20M190 119h20M230 119h10M260 119h20M300 119h10M330 119h40M390 119h20M430 119h30M470 119h10M0 120h10M20 120h50M100 120h10M140 120h30M230 120h10M260 120h20M300 120h10M360 120h10M430 120h30M470 120h7M478 120h2M0 121h10M20 121h50M100 121h10M140 121h30M230 121h10M260 121h20M300 121h10M360 121h10M430 121h30M470 121h10M0 122h10M20 122h50M100 122h10M140 122h30M230 122h10M260 122h20M300 122h10M360 122h10M430 122h30M470 122h10M0 123h10M20 123h50M100 123h10M140 123h30M230 123h10M260 123h20M300 123h10M360 123h10M430 123h30M470 123h10M0 124h10M20 124h50M100 124h10M140 124h30M230 124h10M260 124h20M300 124h10M360 124h10M430 124h30M470 124h10M0 125h10M20 125h50M100 125h10M140 125h30M230 125h10M260 125h20M300 125h10M360 125h10M430 125h30M470 125h10M0 126h10M20 126h50M100 126h10M140 126h30M230 126h10M260 126h20M300 126h10M360 126h10M430 126h30M470 126h10M0 127h10M20 127h50M100 127h10M140 127h30M230 127h10M260 127h20M300 127h10M360 127h3M364 127h6M430 127h30M470 127h10M0 128h10M20 128h50M100 128h10M140 128h30M230 128h10M260 128h20M300 128h10M360 128h10M430 128h30M470 128h10M0 129h10M20 129h50M100 129h10M140 129h30M230 129h10M260 129h20M300 129h10M360 129h10M430 129h30M470 129h10M0 130h10M20 130h50M90 130h30M140 130h40M220 130h20M260 130h20M300 130h10M360 130h10M420 130h40M470 130h10M0 131h10M20 131h50M90 131h30M140 131h40M220 131h20M260 131h20M300 131h10M360 131h10M420 131h40M470 131h10M0 132h10M20 132h50M90 132h30M140 132h40M220 132h20M260 132h20M300 132h10M360 132h10M420 132h40M470 132h10M0 133h10M20 133h50M90 133h30M140 133h40M220 133h20M260 133h20M300 133h10M360 133h10M420 133h40M470 133h10M0 134h10M20 134h50M90 134h30M140 134h40M220 134h20M260 134h20M300 134h10M360 134h10M420 134h40M470 134h10M0 135h10M20 135h50M90 135h30M140 135h40M220 135h20M260 135h20M300 135h10M360 135h10M420 135h40M470 135h10M0 136h10M20 136h50M90 136h30M140 136h40M220 136h20M260 136h20M300 136h10M360 136h10M420 136h40M470 136h10M0 137h10M20 137h50M90 137h30M140 137h40M220 137h20M260 137h20M300 137h10M360 137h10M420 137h40M470 137h10M0 138h10M20 138h50M90 138h30M140 138h40M220 138h20M260 138h20M300 138h10M360 138h10M420 138h18M439 138h21M470 138h10M0 139h10M20 139h50M90 139h30M140 139h40M220 139h20M260 139h20M300 139h10M360 139h10M420 139h40M470 139h10M0 140h10M20 140h440M470 140h10M0 141h10M20 141h440M470 141h10M0 142h10M20 142h65M86 142h374M470 142h10M0 143h10M20 143h440M470 143h10M0 144h10M20 144h440M470 144h10M0 145h10M20 145h440M470 145h10M0 146h2M3 146h7M20 146h440M470 146h10M0 147h10M20 147h8M29 147h298M328 147h87M416 147h44M470 147h10M0 148h10M20 148h298M319 148h141M470 148h10M0 149h10M20 149h440M470 149h10M0 150h10M20 150h440M470 150h10M0 151h10M20 151h440M470 151h10M0 152h10M20 152h440M470 152h10M0 153h10M20 153h69M90 153h117M208 153h27M236 153h145M382 153h78M470 153h10M0 154h10M20 154h133M154 154h306M470 154h10M0 155h10M20 155h440M470 155h10M0 156h10M20 156h440M470 156h10M0 157h10M20 157h440M470 157h10M0 158h10M20 158h440M470 158h10M0 159h10M20 159h440M470 159h10M0 160h10M20 160h70M100 160h100M290 160h70M361 160h49M420 160h10M440 160h20M470 160h10M0 161h10M20 161h70M100 161h15M116 161h39M156 161h44M290 161h120M420 161h10M440 161h20M470 161h10M0 162h10M20 162h70M100 162h100M290 162h120M420 162h10M440 162h20M470 162h10M1 163h9M20 163h70M100 163h30M131 163h69M290 163h120M420 163h10M440 163h20M470 163h10M0 164h10M20 164h70M100 164h100M290 164h120M420 164h10M440 164h20M470 164h10M0 165h10M20 165h70M100 165h100M290 165h120M420 165h10M440 165h20M470 165h10M0 166h10M20 166h70M100 166h100M290 166h120M420 166h10M440 166h20M470 166h10M0 167h10M20 167h70M100 167h100M290 167h120M420 167h10M440 167h20M470 167h10M0 168h10M20 168h70M100 168h100M290 168h120M420 168h10M440 168h20M470 168h10M0 169h10M20 169h70M100 169h100M290 169h120M420 169h10M440 169h20M470 169h10M0 170h10M20 170h40M70 170h50M130 170h60M300 170h100M410 170h10M430 170h10M450 170h10M470 170h10M0 171h10M20 171h40M70 171h50M130 171h60M300 171h100M410 171h10M430 171h10M450 171h10M470 171h10M0 172h10M20 172h24M45 172h15M70 172h50M130 172h60M300 172h100M410 172h10M430 172h10M450 172h10M470 172h10M0 173h10M20 173h40M70 173h50M130 173h60M300 173h100M410 173h10M430 173h10M450 173h10M470 173h10M0 174h10M20 174h40M70 174h50M130 174h60M300 174h64M365 174h16M382 174h18M410 174h10M430 174h10M450 174h10M470 174h10M0 175h10M20 175h40M70 175h50M130 175h60M300 175h100M410 175h10M430 175h10M450 175h10M470 175h10M0 176h10M20 176h40M70 176h50M130 176h60M300 176h66M367 176h33M410 176h10M430 176h10M450 176h10M470 176h10M0 177h10M20 177h40M70 177h50M130 177h60M300 177h100M410 177h10M430 177h10M450 177h10M470 177h10M0 178h10M20 178h40M70 178h50M130 178h60M300 178h100M410 178h10M430 178h10M450 178h10M470 178h10M0 179h10M20 179h40M70 179h50M130 179h60M300 179h100M410 179h10M430 179h10M450 179h10M470 179h10M0 180h10M20 180h50M80 180h10M100 180h10M120 180h70M300 180h100M410 180h10M430 180h10M450 180h10M470 180h10M0 181h10M20 181h50M80 181h10M100 181h10M120 181h70M300 181h100M410 181h10M430 181h10M450 181h10M470 181h10M0 182h10M20 182h50M80 182h10M100 182h10M120 182h70M300 182h100M410 182h10M430 182h10M450 182h10M470 182h10M0 183h10M20 183h50M80 183h10M100 183h10M120 183h70M300 183h100M410 183h10M430 183h10M450 183h10M470 183h10M0 184h10M20 184h50M80 184h10M100 184h10M120 184h70M300 184h100M410 184h10M430 184h10M450 184h10M470 184h10M0 185h10M20 185h50M80 185h10M100 185h10M120 185h70M300 185h100M410 185h10M430 185h10M450 185h10M470 185h10M0 186h10M20 186h50M80 186h10M100 186h10M120 186h70M300 186h100M410 186h10M430 186h10M450 186h10M470 186h10M0 187h10M20 187h50M80 187h10M100 187h10M120 187h70M300 187h100M410 187h10M430 187h10M450 187h10M470 187h10M0 188h10M20 188h50M80 188h10M100 188h10M120 188h70M300 188h100M410 188h10M430 188h10M450 188h10M470 188h10M0 189h10M20 189h50M80 189h10M100 189h10M120 189h70M300 189h29M330 189h70M410 189h10M430 189h10M450 189h10M470 189h10M0 190h10M20 190h60M90 190h10M110 190h80M300 190h100M410 190h30M450 190h10M470 190h10M0 191h10M20 191h60M90 191h10M110 191h80M300 191h100M410 191h30M450 191h10M470 191h10M0 192h10M20 192h60M90 192h10M110 192h80M300 192h100M410 192h30M450 192h10M470 192h10M0 193h5M6 193h4M20 193h60M90 193h10M110 193h80M300 193h11M312 193h88M410 193h30M450 193h10M470 193h10M0 194h10M20 194h60M90 194h10M110 194h80M300 194h100M410 194h30M450 194h10M470 194h10M0 195h10M20 195h60M90 195h10M110 195h80M300 195h100M410 195h30M450 195h10M470 195h10M0 196h10M20 196h60M90 196h10M110 196h80M300 196h100M410 196h30M450 196h10M470 196h10M0 197h10M20 197h60M90 197h10M110 197h80M300 197h100M410 197h30M450 197h10M470 197h10M0 198h10M20 198h60M90 198h10M110 198h80M300 198h100M410 198h30M450 198h10M470 198h10M0 199h10M20 199h60M90 199h10M110 199h80M300 199h100M410 199h30M450 199h10M470 199h10M0 200h10M20 200h30M60 200h10M80 200h10M100 200h10M120 200h10M140 200h50M300 200h160M470 200h10M0 201h10M20 201h30M60 201h10M80 201h10M100 201h10M120 201h10M140 201h50M300 201h126M427 201h33M470 201h10M0 202h10M20 202h30M60 202h10M80 202h10M100 202h10M120 202h10M140 202h50M300 202h160M470 202h10M0 203h10M20 203h30M60 203h10M80 203h10M100 203h10M120 203h10M140 203h50M300 203h16M317 203h143M470 203h10M0 204h10M20 204h30M60 204h10M80 204h10M100 204h10M120 204h10M140 204h50M300 204h160M470 204h10M0 205h10M20 205h30M60 205h10M80 205h10M100 205h10M120 205h10M140 205h50M300 205h160M470 205h10M0 206h10M20 206h30M60 206h10M80 206h10M100 206h10M120 206h10M140 206h50M300 206h160M470 206h10M0 207h10M20 207h30M60 207h10M80 207h10M100 207h10M120 207h10M140 207h50M300 207h160M470 207h10M0 208h10M20 208h30M60 208h10M80 208h10M100 208h10M120 208h10M140 208h50M300 208h160M470 208h10M0 209h10M20 209h30M60 209h10M80 209h10M100 209h10M120 209h10M140 209h50M300 209h160M470 209h10M0 210h10M20 210h60M90 210h10M110 210h80M300 210h110M420 210h10M440 210h20M470 210h10M0 211h10M20 211h60M90 211h10M110 211h80M300 211h110M420 211h10M440 211h20M470 211h10M0 212h10M20 212h60M90 212h10M110 212h80M300 212h110M420 212h10M440 212h20M470 212h10M0 213h10M20 213h60M90 213h10M110 213h80M300 213h110M420 213h10M440 213h20M470 213h10M0 214h10M20 214h60M90 214h10M110 214h80M300 214h110M420 214h10M440 214h20M470 214h10M0 215h10M20 215h60M90 215h10M110 215h80M300 215h110M420 215h10M440 215h20M470 215h10M0 216h10M20 216h60M90 216h10M110 216h80M300 216h110M420 216h10M440 216h20M470 216h10M0 217h10M20 217h60M90 217h10M110 217h80M300 217h110M420 217h10M440 217h20M470 217h10M0 218h10M20 218h60M90 218h10M110 218h80M300 218h110M420 218h10M440 218h2M443 218h17M470 218h10M0 219h10M20 219h60M90 219h10M110 219h80M300 219h110M420 219h10M440 219h20M470 219h10M0 220h10M20 220h50M80 220h10M100 220h10M120 220h70M300 220h60M390 220h20M420 220h10M440 220h20M470 220h10M0 221h10M20 221h50M80 221h10M100 221h10M120 221h70M300 221h60M390 221h20M420 221h10M440 221h20M470 221h10M0 222h10M20 222h50M80 222h10M100 222h10M120 222h70M300 222h60M390 222h16M407 222h3M420 222h10M440 222h20M470 222h10M0 223h10M20 223h50M80 223h10M100 223h10M120 223h70M300 223h60M390 223h20M420 223h10M440 223h20M470 223h10M0 224h10M20 224h50M80 224h10M100 224h10M120 224h70M300 224h60M390 224h20M420 224h10M440 224h20M470 224h10M0 225h10M21 225h49M80 225h10M100 225h10M120 225h70M300 225h60M390 225h20M420 225h10M440 225h20M470 225h10M0 226h10M20 226h50M80 226h10M100 226h10M120 226h70M300 226h60M390 226h20M420 226h10M440 226h20M470 226h10M0 227h10M20 227h50M80 227h10M100 227h10M120 227h70M300 227h60M390 227h20M420 227h10M440 227h20M470 227h10M0 228h10M20 228h50M80 228h10M100 228h10M120 228h70M300 228h37M338 228h22M390 228h20M420 228h10M440 228h20M470 228h10M0 229h10M20 229h50M80 229h10M100 229h10M120 229h70M300 229h60M390 229h20M420 229h10M440 229h20M470 229h10M0 230h10M20 230h40M70 230h50M130 230h60M300 230h60M370 230h10M390 230h20M420 230h10M440 230h20M470 230h10M0 231h10M20 231h40M70 231h50M130 231h60M300 231h60M370 231h10M390 231h20M420 231h10M440 231h20M470 231h10M0 232h10M20 232h40M70 232h50M130 232h60M300 232h60M370 232h10M390 232h20M420 232h10M440 232h20M470 232h10M0 233h10M20 233h3M24 233h36M70 233h50M130 233h60M300 233h60M370 233h10M390 233h20M420 233h10M440 233h20M470 233h10M0 234h10M20 234h40M70 234h50M130 234h60M300 234h60M370 234h10M390 234h20M420 234h10M440 234h20M470 234h10M0 235h10M20 235h40M70 235h50M130 235h60M300 235h60M370 235h10M390 235h20M420 235h10M440 235h20M470 235h10M0 236h10M20 236h40M70 236h50M130 236h55M186 236h4M300 236h60M370 236h10M390 236h20M420 236h10M440 236h20M470 236h10M0 237h10M20 237h40M70 237h50M130 237h60M300 237h60M370 237h10M390 237h20M420 237h10M440 237h20M470 237h10M0 238h10M20 238h40M70 238h50M130 238h60M300 238h60M370 238h10M390 238h20M420 238h10M440 238h20M470 238h10M0 239h10M20 239h15M36 239h24M70 239h50M130 239h60M300 239h60M370 239h10M390 239h20M420 239h10M440 239h20M470 239h10M0 240h10M20 240h8M29 240h61M100 240h14M115 240h45M330 240h30M380 240h30M440 240h20M470 240h10M0 241h10M20 241h70M100 241h48M149 241h11M330 241h30M380 241h30M440 241h20M470 241h10M0 242h10M20 242h70M100 242h60M330 242h30M380 242h30M440 242h20M470 242h10M0 243h10M20 243h70M100 243h60M330 243h30M380 243h30M440 243h20M470 243h10M0 244h10M20 244h70M100 244h60M330 244h26M357 244h3M380 244h30M440 244h20M470 244h10M0 245h10M20 245h65M86 245h4M100 245h60M330 245h30M380 245h30M440 245h20M470 245h10M0 246h10M20 246h70M100 246h60M330 246h30M380 246h30M440 246h20M470 246h10M0 247h10M20 247h70M100 247h60M330 247h30M380 247h30M440 247h20M470 247h10M0 248h10M20 248h70M100 248h40M141 248h19M330 248h30M380 248h30M440 248h20M470 248h10M0 249h10M21 249h69M100 249h60M330 249h30M380 249h30M440 249h20M470 249h10M0 250h10M20 250h130M340 250h20M370 250h10M390 250h70M470 250h10M0 251h10M20 251h130M340 251h20M370 251h10M390 251h70M470 251h10M0 252h10M20 252h130M340 252h20M370 252h10M390 252h70M470 252h10M0 253h10M20 253h130M340 253h20M370 253h10M390 253h70M470 253h10M0 254h10M20 254h14M35 254h115M340 254h20M370 254h10M390 254h70M470 254h10M0 255h10M20 255h130M340 255h20M370 255h10M390 255h70M470 255h10M0 256h10M20 256h130M340 256h20M370 256h10M390 256h70M470 256h10M0 257h10M20 257h130M340 257h20M370 257h10M390 257h70M470 257h10M0 258h10M20 258h130M340 258h20M370 258h10M390 258h70M470 258h10M0 259h10M20 259h130M340 259h20M370 259h10M390 259h70M470 259h10M0 260h10M20 260h120M350 260h10M380 260h30M440 260h20M470 260h10M0 261h10M20 261h119M350 261h10M380 261h30M440 261h6M447 261h13M470 261h10M0 262h10M20 262h120M350 262h10M380 262h30M440 262h20M470 262h10M0 263h10M20 263h82M103 263h37M350 263h10M380 263h30M440 263h20M470 263h10M0 264h10M20 264h71M92 264h48M350 264h10M380 264h30M440 264h20M470 264h10M0 265h10M20 265h120M350 265h10M380 265h30M440 265h20M470 265h10M0 266h10M20 266h120M350 266h10M380 266h30M440 266h20M470 266h10M0 267h10M20 267h120M350 267h10M380 267h30M440 267h20M470 267h10M0 268h10M20 268h120M350 268h10M380 268h30M440 268h20M470 268h10M0 269h10M20 269h120M350 269h10M380 269h30M440 269h20M470 269h10M0 270h10M20 270h60M90 270h50M350 270h60M420 270h10M440 270h20M470 270h10M0 271h10M20 271h60M90 271h50M350 271h60M420 271h10M440 271h20M470 271h10M0 272h10M20 272h60M90 272h50M350 272h60M420 272h10M440 272h20M470 272h10M0 273h10M20 273h60M90 273h50M350 273h60M420 273h10M440 273h20M470 273h10M0 274h10M20 274h35M56 274h24M90 274h50M350 274h56M407 274h3M420 274h10M440 274h20M470 274h10M0 275h10M20 275h60M90 275h50M350 275h60M420 275h10M440 275h20M470 275h10M0 276h10M20 276h60M90 276h50M350 276h60M420 276h10M440 276h20M470 276h10M0 277h10M20 277h60M90 277h50M350 277h60M420 277h10M440 277h20M470 277h10M0 278h10M20 278h60M90 278h15M106 278h34M350 278h60M420 278h10M440 278h20M470 278h10M0 279h10M20 279h60M90 279h25M116 279h24M350 279h60M420 279h10M440 279h20M470 279h10M0 280h10M20 280h60M90 280h60M340 280h20M390 280h20M430 280h30M470 280h10M0 281h10M20 281h60M90 281h60M340 281h20M390 281h20M430 281h30M470 281h10M0 282h10M20 282h60M90 282h60M340 282h20M390 282h20M430 282h30M470 282h10M0 283h10M20 283h60M90 283h60M340 283h20M390 283h20M430 283h30M470 283h10M0 284h10M20 284h3M24 284h56M90 284h60M340 284h20M390 284h20M430 284h30M470 284h10M0 285h10M20 285h60M90 285h60M340 285h20M390 285h20M430 285h30M470 285h10M0 286h10M20 286h60M90 286h60M340 286h20M390 286h20M430 286h30M470 286h10M0 287h10M20 287h60M90 287h60M340 287h20M390 287h20M430 287h30M470 287h10M0 288h10M20 288h60M90 288h60M340 288h20M390 288h20M430 288h30M470 288h10M0 289h10M20 289h60M90 289h60M340 289h20M390 289h20M430 289h30M470 289h10M0 290h10M20 290h50M100 290h60M330 290h30M370 290h10M390 290h20M420 290h10M440 290h20M470 290h10M0 291h10M20 291h50M100 291h56M157 291h3M330 291h30M370 291h10M390 291h20M420 291h10M440 291h20M470 291h10M0 292h10M20 292h50M100 292h60M330 292h30M370 292h10M390 292h20M420 292h10M440 292h20M470 292h10M0 293h10M20 293h50M100 293h60M330 293h30M370 293h10M390 293h20M420 293h8M429 293h1M440 293h20M470 293h10M0 294h10M20 294h50M100 294h60M330 294h30M370 294h10M390 294h20M420 294h10M440 294h20M470 294h10M0 295h10M20 295h50M100 295h60M330 295h20M351 295h9M370 295h10M390 295h20M420 295h10M440 295h20M470 295h10M0 296h10M20 296h50M100 296h60M330 296h30M370 296h10M390 296h20M420 296h10M440 296h20M470 296h10M0 297h10M20 297h50M100 297h60M330 297h30M370 297h10M390 297h7M398 297h12M420 297h10M440 297h20M470 297h10M0 298h10M20 298h50M100 298h60M330 298h30M370 298h10M390 298h20M420 298h10M440 298h20M470 298h10M0 299h10M20 299h50M100 299h60M330 299h30M370 299h10M390 299h20M420 299h10M440 299h20M470 299h10M0 300h10M20 300h50M100 300h60M330 300h30M380 300h80M470 300h10M0 301h10M20 301h50M100 301h60M330 301h30M380 301h80M470 301h10M0 302h10M20 302h50M100 302h60M330 302h30M380 302h80M470 302h10M0 303h10M20 303h50M100 303h60M330 303h30M380 303h80M470 303h10M0 304h10M20 304h50M100 304h60M330 304h30M380 304h80M470 304h10M0 305h10M20 305h50M100 305h60M330 305h30M380 305h80M470 305h10M0 306h10M20 306h50M100 306h42M143 306h17M330 306h30M380 306h34M415 306h45M470 306h10M0 307h10M20 307h50M100 307h60M330 307h30M380 307h80M470 307h10M0 308h10M20 308h50M100 308h60M330 308h30M380 308h80M470 308h10M0 309h10M20 309h50M100 309h60M330 309h30M380 309h80M470 309h10M0 310h10M20 310h20M130 310h20M340 310h20M370 310h10M390 310h30M430 310h30M470 310h10M0 311h10M20 311h20M130 311h20M340 311h20M370 311h10M390 311h30M430 311h30M470 311h10M0 312h10M20 312h9M30 312h10M130 312h20M340 312h20M370 312h10M390 312h30M430 312h30M470 312h10M0 313h10M20 313h20M130 313h20M340 313h20M370 313h10M390 313h30M430 313h30M470 313h10M0 314h10M20 314h20M130 314h20M340 314h20M370 314h10M390 314h30M430 314h30M470 314h10M0 315h10M20 315h20M130 315h20M340 315h20M370 315h10M390 315h30M430 315h30M470 315h10M0 316h10M20 316h20M130 316h20M340 316h20M370 316h10M390 316h30M430 316h30M470 316h10M0 317h10M20 317h20M130 317h20M340 317h20M370 317h10M390 317h30M430 317h30M470 317h10M0 318h10M20 318h20M130 318h20M340 318h20M370 318h10M390 318h30M430 318h30M470 318h10M0 319h10M20 319h20M130 319h20M340 319h20M370 319h10M390 319h30M430 319h30M470 319h10M0 320h10M20 320h30M120 320h30M340 320h80M430 320h30M470 320h10M0 321h10M20 321h30M120 321h30M340 321h80M430 321h30M470 321h10M0 322h10M20 322h30M120 322h30M340 322h80M430 322h30M470 322h10M0 323h10M20 323h30M120 323h30M340 323h80M430 323h30M470 323h10M0 324h10M20 324h30M120 324h30M340 324h80M430 324h30M470 324h10M0 325h10M20 325h30M120 325h3M124 325h26M340 325h80M430 325h30M470 325h10M0 326h1M2 326h8M20 326h30M120 326h30M340 326h18M359 326h61M430 326h30M470 326h10M0 327h10M20 327h30M120 327h30M340 327h1M342 327h78M430 327h30M470 327h10M0 328h10M20 328h30M120 328h30M340 328h80M430 328h30M470 328h10M0 329h10M20 329h30M120 329h30M340 329h80M430 329h30M470 329h10M0 330h10M20 330h50M100 330h50M340 330h20M390 330h30M430 330h30M470 330h10M0 331h10M20 331h50M100 331h50M340 331h20M390 331h30M430 331h30M470 331h10M0 332h10M20 332h50M100 332h50M340 332h20M390 332h30M430 332h30M470 332h10M0 333h10M20 333h50M100 333h50M340 333h20M390 333h30M430 333h30M470 333h10M0 334h10M20 334h50M100 334h50M340 334h20M390 334h14M405 334h15M430 334h30M470 334h10M0 335h10M20 335h50M100 335h50M340 335h20M390 335h30M430 335h30M470 335h10M0 336h10M20 336h50M100 336h50M340 336h20M390 336h30M430 336h30M470 336h10M0 337h10M20 337h50M100 337h50M340 337h20M390 337h30M430 337h30M470 337h10M0 338h10M20 338h50M100 338h50M340 338h20M390 338h30M430 338h30M470 338h10M0 339h10M20 339h50M100 339h50M340 339h20M390 339h30M430 339h30M470 339h10M0 340h10M20 340h40M110 340h40M340 340h20M370 340h10M390 340h70M470 340h10M0 341h10M20 341h40M110 341h40M340 341h20M370 341h10M390 341h9M400 341h60M470 341h10M0 342h10M20 342h40M110 342h40M340 342h20M370 342h10M390 342h70M470 342h10M0 343h10M20 343h40M110 343h40M340 343h20M370 343h10M390 343h70M470 343h10M0 344h10M20 344h40M110 344h40M340 344h20M370 344h10M390 344h70M470 344h10M0 345h10M20 345h40M110 345h40M340 345h20M370 345h10M390 345h70M470 345h10M0 346h10M20 346h40M110 346h40M340 346h20M370 346h10M390 346h70M470 346h10M0 347h10M20 347h40M110 347h37M148 347h2M340 347h20M370 347h10M390 347h70M470 347h10M0 348h10M20 348h40M110 348h40M340 348h20M370 348h10M390 348h70M470 348h10M0 349h10M20 349h40M110 349h40M340 349h20M370 349h10M390 349h70M470 349h10M0 350h10M20 350h40M80 350h10M110 350h40M340 350h20M370 350h10M390 350h20M440 350h20M470 350h10M0 351h10M20 351h40M80 351h10M110 351h40M340 351h20M370 351h10M390 351h20M440 351h20M470 351h10M0 352h10M20 352h40M80 352h10M110 352h40M340 352h20M370 352h10M390 352h20M440 352h20M470 352h10M0 353h10M20 353h40M80 353h10M110 353h40M340 353h20M370 353h10M390 353h20M440 353h20M470 353h10M0 354h10M20 354h40M80 354h10M110 354h40M340 354h20M370 354h10M390 354h20M440 354h20M470 354h10M0 355h10M20 355h40M80 355h10M110 355h40M340 355h20M370 355h10M390 355h20M440 355h20M470 355h10M0 356h10M20 356h40M80 356h10M110 356h40M340 356h20M370 356h10M390 356h20M440 356h20M470 356h10M0 357h10M20 357h40M80 357h10M110 357h40M340 357h20M370 357h10M390 357h12M403 357h7M440 357h20M470 357h10M0 358h10M20 358h40M80 358h10M110 358h40M340 358h20M370 358h10M390 358h20M440 358h15M456 358h4M470 358h10M0 359h10M20 359h40M80 359h10M110 359h40M340 359h20M370 359h10M390 359h20M440 359h20M470 359h10M0 360h10M20 360h30M70 360h30M120 360h30M340 360h20M390 360h6M397 360h13M420 360h40M470 360h10M0 361h10M20 361h30M70 361h30M120 361h30M340 361h20M390 361h20M420 361h40M470 361h10M0 362h10M20 362h30M70 362h30M120 362h30M340 362h20M390 362h20M420 362h40M470 362h10M0 363h10M20 363h30M70 363h30M120 363h30M340 363h20M390 363h20M420 363h40M470 363h10M0 364h10M20 364h30M70 364h25M96 364h4M120 364h30M340 364h20M390 364h20M420 364h40M470 364h10M0 365h10M20 365h30M70 365h30M120 365h30M340 365h20M390 365h20M420 365h40M470 365h10M0 366h10M20 366h30M70 366h30M120 366h30M340 366h20M390 366h20M420 366h40M470 366h10M0 367h10M20 367h30M70 367h30M120 367h30M340 367h20M390 367h20M420 367h40M470 367h10M0 368h10M20 368h30M70 368h30M120 368h30M340 368h18M359 368h1M390 368h20M420 368h40M470 368h10M0 369h10M20 369h30M70 369h30M120 369h30M340 369h20M390 369h20M420 369h40M470 369h10M0 370h10M20 370h30M60 370h50M120 370h30M340 370h70M420 370h40M470 370h10M0 371h10M20 371h30M60 371h50M120 371h30M340 371h70M420 371h40M470 371h10M0 372h10M20 372h30M60 372h50M120 372h30M340 372h70M420 372h40M470 372h10M0 373h10M20 373h30M60 373h50M120 373h30M340 373h70M420 373h40M470 373h10M0 374h10M20 374h30M60 374h50M120 374h30M340 374h70M420 374h40M470 374h10M0 375h10M20 375h30M60 375h50M120 375h30M340 375h2M343 375h67M420 375h40M470 375h10M0 376h10M20 376h30M60 376h50M120 376h30M340 376h70M420 376h40M470 376h10M0 377h10M20 377h30M60 377h50M120 377h15M136 377h14M340 377h70M420 377h40M470 377h10M0 378h10M20 378h30M60 378h50M120 378h30M340 378h70M420 378h40M470 378h10M0 379h10M20 379h30M60 379h50M120 379h30M340 379h70M420 379h40M470 379h10M0 380h150M340 380h70M440 380h20M470 380h10M0 381h2M3 381h147M340 381h70M440 381h20M470 381h10M0 382h11M12 382h138M340 382h70M440 382h20M470 382h10M0 383h150M340 383h70M440 383h20M470 383h10M0 384h150M340 384h70M440 384h20M470 384h10M0 385h150M340 385h70M440 385h20M470 385h10M0 386h150M340 386h70M440 386h20M470 386h10M0 387h26M27 387h116M144 387h6M340 387h70M440 387h20M470 387h10M0 388h125M126 388h24M340 388h70M440 388h20M470 388h10M0 389h150M340 389h70M440 389h20M470 389h10M0 390h10M20 390h120M350 390h110M470 390h10M0 391h10M20 391h120M350 391h110M470 391h10M0 392h10M20 392h120M350 392h110M470 392h10M0 393h10M20 393h120M350 393h110M470 393h10M0 394h10M20 394h119M350 394h110M470 394h10M0 395h10M20 395h120M350 395h110M470 395h10M0 396h10M20 396h120M350 396h110M470 396h10M0 397h10M20 397h120M350 397h110M470 397h10M0 398h10M20 398h120M350 398h110M470 398h10M0 399h10M20 399h120M350 399h110M470 399h10M0 400h120M370 400h20M391 400h19M440 400h20M470 400h10M0 401h120M370 401h40M440 401h20M470 401h10M0 402h120M370 402h40M440 402h20M470 402h10M0 403h120M370 403h40M440 403h20M470 403h10M0 404h120M370 404h40M440 404h20M470 404h10M0 405h120M370 405h40M440 405h20M470 405h10M0 406h120M370 406h40M440 406h20M470 406h10M0 407h120M370 407h40M440 407h20M470 407h10M0 408h120M370 408h40M440 408h20M470 408h10M0 409h120M370 409h40M440 409h20M470 409h10M0 410h10M20 410h90M380 410h30M420 410h3M424 410h6M440 410h20M470 410h10M0 411h10M20 411h90M380 411h30M420 411h10M440 411h20M470 411h10M0 412h10M20 412h90M380 412h30M420 412h10M440 412h20M470 412h10M0 413h10M20 413h90M380 413h30M420 413h10M440 413h20M470 413h10M0 414h10M20 414h90M380 414h30M420 414h10M440 414h20M470 414h10M0 415h10M20 415h90M380 415h30M420 415h10M440 415h20M470 415h10M0 416h10M20 416h90M380 416h27M408 416h2M420 416h10M440 416h20M470 416h10M0 417h10M20 417h64M85 417h25M380 417h30M420 417h10M440 417h20M470 417h10M0 418h10M20 418h90M380 418h30M420 418h10M440 418h20M470 418h10M0 419h10M20 419h90M380 419h30M420 419h10M440 419h20M470 419h10M0 420h81M82 420h18M390 420h20M440 420h20M470 420h10M0 421h100M390 421h20M440 421h20M470 421h10M0 422h100M390 422h20M440 422h20M470 422h10M0 423h100M390 423h20M440 423h20M470 423h10M0 424h100M390 424h20M440 424h20M470 424h10M0 425h100M390 425h20M440 425h20M470 425h10M0 426h100M390 426h20M440 426h20M470 426h10M0 427h100M390 427h20M440 427h20M470 427h10M0 428h100M390 428h20M440 428h20M470 428h10M0 429h100M390 429h20M440 429h20M470 429h10M0 430h10M20 430h10M31 430h69M390 430h20M420 430h10M440 430h20M470 430h10M0 431h10M20 431h80M390 431h20M420 431h10M440 431h20M470 431h10M0 432h10M20 432h80M390 432h20M420 432h10M440 432h20M470 432h10M0 433h10M20 433h80M390 433h20M420 433h10M440 433h20M470 433h10M0 434h10M20 434h80M390 434h15M406 434h4M420 434h10M440 434h20M470 434h10M0 435h10M20 435h80M390 435h20M420 435h10M440 435h20M470 435h10M0 436h10M20 436h80M390 436h20M420 436h10M440 436h20M470 436h10M0 437h10M20 437h80M390 437h20M420 437h10M440 437h20M470 437h10M0 438h10M20 438h80M390 438h20M420 438h10M440 438h20M470 438h10M0 439h10M20 439h80M390 439h20M420 439h10M440 439h20M470 439h10M0 440h100M390 440h70M470 440h10M0 441h100M390 441h70M470 441h10M0 442h100M390 442h70M470 442h10M0 443h69M70 443h30M390 443h70M470 443h10M0 444h100M390 444h70M470 444h10M0 445h100M390 445h70M470 445h10M0 446h100M390 446h70M470 446h10M0 447h100M390 447h56M447 447h13M470 447h10M0 448h100M390 448h70M470 448h10M0 449h100M390 449h70M470 449h10M0 450h10M20 450h20M41 450h419M470 450h10M0 451h10M20 451h440M470 451h10M0 452h10M20 452h75M96 452h115M212 452h158M371 452h89M470 452h10M0 453h10M20 453h440M470 453h10M0 454h10M20 454h440M470 454h10M0 455h10M20 455h382M403 455h57M470 455h10M0 456h10M20 456h440M470 456h10M0 457h10M20 457h440M470 457h10M0 458h10M20 458h84M105 458h355M470 458h10M0 459h10M20 459h440M470 459h10M0 460h10M470 460h10M0 461h10M470 461h10M0 462h10M470 462h10M0 463h10M470 463h10M0 464h10M470 464h10M0 465h10M470 465h10M0 466h10M470 466h10M0 467h10M470 467h10M0 468h10M470 468h10M0 469h10M470 469h10M0 470h480M0 471h480M0 472h480M0 473h480M0 474h402M403 474h9M413 474h67M0 475h383M384 475h96M0 476h442M443 476h37M0 477h480M0 478h71M72 478h234M307 478h173M0 479h74M75 479h405" />
<path stroke="#00013a" d="M57 0h1M99 0h1M198 0h1M30 4h1M219 9h1M78 31h1M423 35h1M429 38h1M441 49h1M474 63h1M366 71h1M231 78h1M402 97h1M27 117h1M477 120h1M363 127h1M438 138h1M327 147h1M318 148h1M207 153h1M381 153h1M153 154h1M360 160h1M0 163h1M381 174h1M366 176h1M426 201h1M114 240h1M102 263h1M105 278h1M156 291h1M414 306h1M123 325h1M399 341h1M147 347h1M402 357h1M396 360h1M342 375h1M135 377h1M390 400h1M423 410h1M84 417h1M81 420h1M30 430h1M405 434h1M69 443h1M402 455h1M402 474h1M306 478h1" />
<path stroke="#01013b" d="M296 2h1M68 3h1M113 5h1M197 20h1M95 35h1M38 40h1M35 68h1M26 75h1M44 89h1M23 91h1M338 108h1M236 109h1M203 111h1M2 146h1M89 153h1M155 161h1M44 172h1M329 189h1M5 193h1M311 193h1M20 225h1M23 233h1M185 236h1M35 239h1M356 244h1M140 248h1M20 249h1M446 261h1M23 284h1M428 293h1M350 295h1M29 312h1M341 327h1M404 334h1M455 358h1M95 364h1M2 381h1M11 382h1M26 387h1M143 387h1M125 388h1M407 416h1M446 447h1M95 452h1M104 458h1M383 475h1M71 478h1M74 479h1" />
<path stroke="#01003a" d="M145 3h1M370 20h1M166 26h1M355 32h1M346 56h1M133 67h1M403 73h1M343 76h1M46 88h1M274 106h1M85 142h1M28 147h1M415 147h1M235 153h1M115 161h1M130 163h1M364 174h1M316 203h1M442 218h1M406 222h1M337 228h1M28 240h1M148 241h1M85 245h1M34 254h1M139 261h1M91 264h1M55 274h1M406 274h1M115 279h1M397 297h1M142 306h1M1 326h1M358 326h1M358 368h1M139 394h1M40 450h1M211 452h1M370 452h1M412 474h1M442 476h1" />
<path stroke="#ffffff" d="M10 10h460M10 11h460M10 12h460M10 13h331M342 13h128M10 14h460M10 15h415M426 15h44M10 16h460M10 17h460M10 18h163M174 18h105M280 18h190M10 19h460M10 20h10M460 20h10M10 21h10M460 21h10M10 22h10M460 22h10M10 23h10M460 23h10M10 24h10M460 24h10M10 25h10M460 25h10M10 26h10M460 26h10M10 27h10M460 27h10M10 28h10M460 28h10M10 29h10M460 29h10M10 30h10M10 31h10M10 32h10M10 33h10M10 34h10M10 35h10M10 36h10M10 37h10M10 38h10M10 39h10M10 40h10M460 40h10M10 41h10M460 41h10M10 42h10M460 42h10M10 43h10M460 43h10M10 44h10M460 44h10M10 45h10M460 45h10M10 46h10M460 46h10M10 47h10M460 47h10M10 48h10M460 48h10M10 49h10M460 49h10M10 50h10M10 51h10M10 52h10M10 53h10M10 54h10M10 55h10M10 56h10M10 57h10M10 58h10M10 59h10M10 60h10M460 60h10M10 61h10M460 61h10M10 62h10M460 62h10M10 63h10M460 63h10M10 64h10M460 64h10M10 65h10M460 65h10M10 66h10M460 66h10M10 67h10M460 67h10M10 68h10M460 68h10M10 69h10M460 69h10M10 70h10M10 71h10M10 72h10M10 73h10M10 74h10M10 75h10M10 76h10M10 77h10M10 78h10M10 79h10M10 80h10M460 80h10M10 81h10M460 81h10M10 82h10M460 82h10M10 83h10M460 83h10M10 84h10M460 84h10M10 85h10M460 85h10M10 86h10M460 86h10M10 87h10M460 87h10M10 88h10M460 88h10M10 89h10M460 89h10M10 90h10M10 91h10M10 92h10M10 93h10M10 94h10M10 95h10M10 96h10M10 97h10M10 98h10M10 99h10M10 100h10M460 100h10M10 101h10M460 101h10M10 102h10M460 102h10M10 103h10M460 103h10M10 104h10M460 104h10M10 105h10M460 105h10M10 106h10M460 106h10M10 107h10M460 107h5M466 107h4M10 108h10M460 108h10M10 109h10M460 109h10M10 110h10M460 110h10M10 111h10M460 111h10M10 112h10M460 112h10M10 113h10M460 113h10M10 114h10M460 114h10M10 115h10M460 115h10M10 116h10M460 116h10M10 117h10M460 117h10M10 118h10M460 118h10M10 119h10M460 119h10M10 120h10M460 120h10M10 121h10M460 121h10M10 122h10M460 122h10M10 123h10M460 123h10M10 124h10M460 124h10M10 125h10M460 125h10M10 126h10M460 126h10M10 127h10M460 127h10M10 128h10M460 128h10M10 129h10M460 129h10M10 130h10M460 130h10M10 131h10M460 131h10M10 132h10M460 132h10M10 133h10M460 133h10M10 134h10M460 134h10M10 135h10M460 135h10M10 136h10M460 136h10M10 137h10M460 137h10M10 138h10M460 138h10M10 139h10M460 139h10M10 140h10M460 140h10M10 141h10M460 141h10M10 142h10M460 142h10M10 143h10M460 143h10M10 144h10M460 144h10M10 145h10M460 145h10M10 146h10M460 146h10M10 147h10M460 147h10M10 148h10M460 148h10M10 149h10M460 149h10M10 150h10M460 150h10M10 151h10M460 151h10M10 152h10M460 152h6M467 152h3M10 153h10M460 153h10M10 154h10M460 154h10M10 155h10M460 155h10M10 156h10M460 156h3M464 156h6M10 157h10M460 157h10M10 158h10M460 158h10M10 159h10M460 159h10M10 160h10M460 160h10M10 161h10M460 161h10M10 162h10M460 162h10M10 163h10M460 163h10M10 164h10M460 164h2M463 164h7M10 165h10M460 165h10M10 166h10M460 166h10M10 167h10M460 167h10M10 168h10M460 168h10M10 169h10M460 169h10M10 170h10M460 170h10M10 171h10M460 171h10M10 172h10M460 172h10M10 173h10M460 173h10M10 174h10M460 174h10M10 175h10M460 175h10M10 176h10M460 176h10M10 177h10M460 177h10M10 178h10M460 178h10M10 179h10M460 179h10M10 180h10M210 180h10M230 180h10M250 180h10M270 180h10M460 180h10M10 181h10M210 181h10M230 181h10M250 181h10M270 181h10M460 181h10M10 182h10M210 182h10M230 182h10M250 182h10M270 182h10M460 182h10M10 183h10M210 183h10M230 183h10M250 183h10M270 183h10M460 183h10M10 184h10M210 184h10M230 184h10M250 184h10M270 184h10M460 184h10M10 185h10M210 185h10M230 185h10M250 185h10M270 185h10M460 185h10M10 186h10M210 186h10M230 186h10M250 186h10M270 186h10M460 186h10M10 187h10M210 187h10M230 187h10M250 187h10M270 187h10M460 187h10M10 188h10M210 188h10M230 188h10M250 188h10M270 188h10M460 188h10M10 189h10M210 189h10M230 189h10M250 189h10M270 189h10M460 189h10M10 190h10M210 190h10M230 190h10M250 190h10M270 190h10M460 190h10M10 191h10M210 191h10M230 191h10M250 191h10M270 191h10M460 191h10M10 192h10M210 192h10M230 192h10M250 192h10M270 192h10M460 192h10M10 193h10M210 193h10M230 193h10M250 193h10M270 193h10M460 193h10M10 194h10M210 194h10M230 194h10M250 194h10M270 194h10M460 194h10M10 195h10M210 195h10M230 195h10M250 195h10M270 195h10M460 195h10M10 196h10M210 196h10M230 196h10M250 196h10M270 196h10M460 196h10M10 197h10M210 197h10M230 197h10M250 197h10M270 197h10M460 197h10M10 198h10M210 198h10M230 198h10M250 198h10M270 198h10M460 198h10M10 199h10M210 199h10M230 199h10M250 199h10M270 199h10M460 199h10M10 200h10M210 200h10M230 200h10M250 200h10M270 200h10M460 200h10M10 201h10M210 201h10M230 201h10M250 201h10M270 201h10M460 201h10M10 202h10M210 202h10M230 202h10M250 202h10M270 202h10M460 202h10M10 203h10M210 203h10M230 203h10M250 203h4M255 203h5M270 203h10M460 203h10M10 204h10M210 204h10M230 204h10M250 204h10M270 204h10M460 204h10M10 205h10M210 205h1M212 205h7M230 205h10M250 205h10M270 205h10M460 205h10M10 206h10M210 206h10M230 206h10M250 206h10M270 206h10M460 206h10M10 207h10M210 207h10M230 207h10M250 207h10M270 207h10M460 207h10M10 208h10M210 208h10M230 208h10M250 208h10M270 208h10M460 208h10M10 209h10M210 209h10M230 209h10M250 209h10M270 209h10M460 209h10M10 210h10M210 210h10M230 210h10M250 210h10M270 210h10M460 210h10M10 211h6M17 211h3M210 211h10M230 211h10M250 211h10M270 211h10M460 211h10M10 212h10M210 212h10M230 212h10M250 212h10M270 212h10M460 212h10M10 213h10M210 213h10M230 213h10M250 213h10M270 213h10M460 213h10M10 214h10M210 214h10M230 214h10M250 214h10M270 214h10M460 214h10M10 215h5M16 215h4M210 215h10M230 215h10M250 215h10M270 215h10M460 215h10M10 216h10M210 216h10M230 216h10M250 216h10M270 216h10M460 216h10M10 217h10M210 217h10M230 217h10M250 217h10M270 217h10M460 217h10M10 218h10M210 218h10M230 218h10M250 218h10M270 218h10M460 218h10M10 219h10M210 219h10M230 219h10M250 219h10M270 219h10M460 219h10M10 220h10M210 220h10M230 220h10M250 220h10M270 220h10M460 220h10M10 221h10M210 221h10M230 221h10M250 221h10M270 221h10M460 221h10M10 222h10M210 222h10M230 222h10M250 222h10M270 222h10M460 222h10M10 223h10M210 223h10M230 223h5M236 223h4M250 223h10M270 223h10M460 223h10M10 224h10M210 224h10M230 224h10M250 224h10M270 224h10M460 224h10M10 225h10M210 225h10M230 225h10M250 225h10M270 225h10M460 225h10M10 226h10M210 226h10M230 226h10M250 226h10M270 226h10M460 226h10M10 227h10M210 227h10M230 227h10M250 227h10M270 227h10M460 227h10M10 228h10M210 228h10M230 228h10M250 228h10M270 228h10M460 228h10M10 229h10M210 229h10M230 229h10M250 229h10M270 229h10M460 229h10M10 230h10M240 230h10M460 230h10M10 231h10M240 231h10M460 231h10M10 232h10M240 232h10M460 232h10M10 233h10M240 233h10M460 233h10M10 234h10M240 234h10M460 234h10M10 235h10M240 235h10M460 235h10M10 236h10M240 236h10M460 236h10M10 237h10M240 237h10M460 237h10M10 238h10M240 238h10M460 238h10M10 239h10M240 239h10M460 239h10M10 240h10M230 240h30M460 240h10M10 241h10M230 241h30M460 241h10M10 242h10M230 242h30M460 242h10M10 243h10M230 243h30M460 243h10M10 244h10M230 244h30M460 244h10M10 245h10M230 245h30M460 245h10M10 246h10M230 246h30M460 246h10M10 247h10M230 247h30M460 247h10M10 248h10M230 248h30M460 248h10M10 249h10M230 249h30M460 249h10M10 250h10M460 250h10M10 251h10M460 251h10M10 252h10M460 252h10M10 253h10M460 253h10M10 254h10M460 254h10M10 255h10M460 255h10M10 256h10M460 256h10M10 257h10M460 257h10M10 258h10M460 258h10M10 259h10M460 259h10M10 260h10M160 260h170M460 260h10M10 261h10M160 261h170M460 261h10M10 262h10M160 262h170M460 262h10M10 263h10M160 263h170M460 263h10M10 264h10M160 264h170M460 264h10M10 265h10M160 265h170M460 265h10M10 266h10M160 266h51M212 266h118M460 266h10M10 267h10M160 267h170M460 267h10M10 268h10M160 268h170M460 268h10M10 269h10M160 269h170M460 269h10M10 270h10M160 270h40M290 270h40M460 270h10M10 271h10M160 271h40M290 271h40M460 271h10M10 272h10M160 272h40M290 272h40M460 272h10M10 273h10M160 273h40M290 273h40M460 273h10M10 274h10M160 274h40M290 274h40M460 274h10M10 275h10M160 275h40M290 275h2M293 275h37M460 275h10M10 276h10M160 276h40M290 276h40M460 276h10M10 277h10M160 277h40M290 277h40M460 277h10M10 278h10M160 278h40M290 278h40M460 278h10M10 279h10M160 279h40M290 279h40M460 279h10M10 280h10M460 280h10M10 281h10M460 281h10M10 282h10M460 282h10M10 283h10M460 283h10M10 284h10M460 284h10M10 285h10M460 285h10M10 286h10M460 286h10M10 287h10M460 287h10M10 288h10M460 288h10M10 289h10M460 289h10M10 290h10M460 290h10M10 291h10M460 291h10M10 292h10M460 292h10M10 293h10M460 293h10M10 294h10M460 294h10M10 295h10M460 295h10M10 296h10M460 296h10M10 297h10M460 297h10M10 298h10M460 298h10M10 299h10M460 299h10M10 300h10M460 300h10M10 301h10M460 301h10M10 302h10M460 302h10M10 303h10M460 303h10M10 304h10M460 304h10M10 305h10M460 305h10M10 306h10M460 306h10M10 307h10M460 307h10M10 308h10M460 308h10M10 309h10M460 309h10M10 310h10M460 310h10M10 311h10M460 311h10M10 312h10M460 312h10M10 313h10M460 313h10M10 314h10M460 314h10M10 315h10M460 315h10M10 316h10M460 316h10M10 317h10M460 317h10M10 318h10M460 318h10M10 319h10M460 319h10M10 320h10M460 320h10M10 321h10M460 321h10M10 322h10M460 322h10M10 323h10M460 323h10M10 324h10M460 324h10M10 325h10M460 325h10M10 326h10M460 326h10M10 327h10M460 327h10M10 328h10M460 328h10M10 329h10M460 329h10M10 330h10M460 330h10M10 331h10M460 331h10M10 332h10M460 332h10M10 333h10M460 333h10M10 334h10M460 334h10M10 335h10M460 335h10M10 336h10M460 336h10M10 337h10M460 337h10M10 338h10M460 338h10M10 339h10M460 339h10M10 340h10M460 340h10M10 341h10M460 341h10M10 342h10M460 342h10M10 343h10M460 343h10M10 344h10M460 344h10M10 345h10M460 345h10M10 346h10M460 346h10M10 347h10M460 347h10M10 348h10M460 348h10M10 349h10M460 349h10M10 350h10M460 350h10M10 351h10M460 351h10M10 352h10M460 352h10M10 353h4M15 353h5M460 353h10M10 354h10M460 354h10M10 355h10M460 355h10M10 356h10M460 356h10M10 357h10M460 357h10M10 358h10M460 358h10M10 359h10M460 359h10M10 360h10M460 360h10M10 361h10M460 361h10M10 362h10M460 362h10M10 363h10M460 363h10M10 364h10M460 364h10M10 365h10M460 365h10M10 366h10M460 366h10M10 367h10M460 367h10M10 368h10M460 368h10M10 369h10M460 369h10M10 370h10M460 370h10M10 371h10M460 371h10M10 372h10M460 372h10M10 373h10M460 373h10M10 374h10M460 374h10M10 375h10M460 375h10M10 376h10M460 376h10M10 377h10M460 377h10M10 378h10M460 378h10M10 379h10M460 379h10M220 380h50M460 380h10M220 381h50M460 381h10M220 382h50M460 382h10M220 383h50M460 383h10M220 384h50M460 384h10M220 385h50M460 385h10M220 386h50M460 386h10M220 387h50M460 387h10M220 388h50M460 388h10M220 389h50M460 389h10M10 390h10M460 390h10M10 391h10M460 391h10M10 392h10M460 392h10M10 393h10M460 393h10M10 394h10M460 394h10M10 395h10M460 395h10M10 396h10M460 396h10M10 397h10M460 397h10M10 398h10M460 398h10M10 399h10M460 399h10M460 400h10M460 401h10M460 402h10M460 403h10M460 404h10M460 405h10M460 406h10M460 407h10M460 408h10M460 409h10M10 410h10M200 410h10M280 410h10M460 410h10M10 411h10M200 411h10M280 411h10M460 411h10M10 412h10M200 412h10M280 412h10M460 412h10M10 413h10M200 413h10M280 413h10M460 413h10M10 414h10M200 414h10M280 414h10M460 414h10M10 415h10M200 415h10M280 415h10M460 415h10M10 416h10M200 416h10M280 416h10M460 416h10M10 417h10M200 417h10M280 417h10M460 417h10M10 418h10M200 418h10M280 418h10M460 418h10M10 419h10M200 419h10M280 419h10M460 419h10M200 420h20M270 420h20M460 420h10M200 421h20M270 421h20M460 421h10M200 422h20M270 422h20M460 422h10M200 423h20M270 423h20M460 423h10M200 424h20M270 424h20M460 424h10M200 425h20M270 425h20M460 425h10M200 426h20M270 426h20M460 426h10M200 427h20M270 427h20M460 427h10M200 428h20M270 428h20M460 428h10M200 429h20M270 429h20M460 429h10M10 430h10M200 430h10M280 430h10M460 430h10M10 431h10M200 431h10M280 431h10M460 431h10M10 432h10M200 432h10M280 432h10M460 432h10M10 433h10M200 433h10M280 433h10M460 433h10M10 434h10M200 434h10M280 434h10M460 434h10M10 435h10M200 435h10M280 435h10M460 435h10M10 436h10M200 436h9M280 436h10M460 436h10M10 437h10M200 437h10M280 437h10M460 437h10M10 438h10M200 438h10M280 438h10M460 438h10M10 439h10M200 439h10M280 439h10M460 439h10M230 440h10M250 440h10M460 440h10M230 441h10M250 441h10M460 441h10M230 442h10M250 442h10M460 442h10M230 443h10M250 443h10M460 443h10M230 444h10M250 444h10M460 444h10M230 445h10M250 445h10M460 445h10M230 446h10M250 446h10M460 446h10M230 447h10M250 447h10M460 447h10M230 448h10M250 448h10M460 448h10M230 449h10M250 449h10M460 449h10M10 450h10M460 450h10M10 451h10M460 451h10M10 452h10M460 452h10M10 453h10M460 453h10M10 454h10M460 454h10M10 455h10M460 455h10M10 456h10M460 456h10M10 457h10M460 457h10M10 458h10M460 458h10M10 459h10M460 459h10M10 460h460M10 461h385M396 461h74M10 462h460M10 463h460M10 464h208M219 464h251M10 465h339M350 465h120M10 466h460M10 467h460M10 468h460M10 469h42M53 469h291M345 469h125" />
<path stroke="#fffffe" d="M341 13h1M425 15h1M173 18h1M254 203h1M14 353h1M209 436h1M395 461h1M218 464h1M344 469h1" />
<path stroke="#feffff" d="M279 18h1M465 107h1M462 164h1M219 205h1M15 215h1" />
<path stroke="#fbf236" d="M50 40h8M59 40h11M90 40h20M140 40h20M180 40h9M190 40h30M240 40h50M310 40h20M370 40h50M50 41h20M90 41h20M140 41h20M180 41h40M240 41h50M310 41h20M370 41h50M50 42h20M90 42h20M140 42h20M180 42h40M240 42h39M280 42h10M310 42h20M370 42h50M50 43h20M90 43h20M140 43h20M180 43h40M240 43h50M310 43h20M370 43h50M50 44h20M90 44h20M140 44h20M180 44h40M240 44h50M310 44h20M370 44h50M50 45h20M90 45h20M141 45h19M180 45h40M240 45h50M310 45h20M370 45h50M50 46h20M90 46h20M140 46h20M180 46h40M240 46h50M310 46h20M370 46h50M50 47h20M90 47h20M140 47h20M180 47h40M240 47h50M310 47h20M370 47h50M50 48h20M90 48h20M140 48h20M180 48h40M240 48h50M310 48h20M370 48h50M50 49h20M90 49h20M140 49h20M180 49h40M240 49h50M310 49h20M370 49h40M411 49h9M50 50h20M90 50h20M140 50h20M170 50h60M240 50h60M310 50h20M370 50h60M50 51h20M90 51h20M140 51h20M170 51h60M240 51h60M310 51h20M370 51h60M50 52h20M90 52h20M140 52h20M170 52h60M240 52h60M310 52h20M370 52h53M424 52h6M50 53h20M90 53h20M140 53h20M170 53h60M240 53h60M310 53h20M370 53h60M50 54h20M90 54h20M140 54h20M170 54h60M240 54h60M310 54h20M370 54h60M50 55h20M90 55h20M140 55h20M170 55h60M240 55h60M310 55h20M370 55h60M50 56h20M90 56h20M140 56h20M170 56h60M240 56h60M310 56h16M327 56h3M370 56h60M50 57h20M90 57h20M140 57h20M170 57h60M240 57h60M310 57h20M370 57h60M50 58h20M90 58h20M140 58h20M170 58h60M240 58h60M310 58h20M370 58h60M50 59h20M90 59h20M140 59h20M170 59h58M229 59h1M240 59h60M310 59h20M370 59h60M50 60h20M90 60h20M140 60h20M170 60h20M210 60h20M240 60h3M244 60h16M280 60h20M310 60h20M370 60h20M410 60h20M50 61h20M90 61h20M140 61h20M170 61h20M210 61h20M240 61h20M280 61h20M310 61h20M370 61h20M410 61h20M50 62h20M90 62h20M140 62h20M170 62h20M210 62h20M240 62h20M280 62h20M310 62h20M370 62h20M410 62h20M50 63h20M90 63h20M140 63h20M170 63h20M210 63h20M240 63h20M280 63h20M310 63h20M370 63h20M410 63h20M50 64h20M90 64h20M140 64h20M170 64h20M210 64h20M240 64h20M280 64h20M310 64h20M370 64h11M382 64h8M410 64h20M50 65h20M90 65h20M140 65h20M170 65h20M210 65h20M240 65h20M280 65h20M310 65h20M370 65h20M410 65h20M50 66h20M90 66h20M140 66h20M170 66h20M210 66h20M240 66h20M280 66h20M310 66h20M370 66h20M410 66h20M50 67h20M90 67h20M140 67h20M170 67h20M210 67h20M240 67h20M280 67h20M310 67h20M370 67h20M410 67h20M50 68h20M90 68h20M140 68h20M170 68h20M210 68h20M240 68h20M280 68h20M310 68h20M370 68h20M410 68h20M50 69h20M90 69h20M140 69h20M170 69h20M210 69h9M220 69h10M240 69h20M280 69h20M310 69h20M370 69h20M410 69h20M50 70h20M90 70h20M140 70h20M170 70h20M210 70h20M240 70h20M280 70h20M310 70h20M370 70h20M410 70h20M50 71h20M90 71h20M140 71h20M170 71h20M210 71h20M240 71h20M280 71h20M310 71h20M370 71h20M410 71h20M50 72h20M90 72h20M140 72h20M170 72h20M210 72h20M240 72h20M280 72h20M310 72h20M370 72h20M410 72h20M50 73h20M90 73h20M140 73h20M170 73h20M210 73h20M240 73h20M280 73h20M310 73h20M370 73h20M410 73h20M50 74h20M90 74h20M140 74h19M170 74h20M210 74h20M240 74h20M280 74h20M310 74h20M370 74h20M410 74h20M50 75h20M90 75h20M140 75h20M170 75h20M210 75h20M240 75h20M280 75h20M310 75h20M370 75h20M410 75h20M50 76h20M90 76h20M140 76h20M170 76h20M210 76h20M240 76h20M280 76h20M310 76h20M370 76h20M410 76h20M50 77h20M90 77h20M140 77h20M170 77h20M210 77h20M240 77h20M280 77h20M310 77h20M370 77h20M410 77h20M50 78h20M90 78h20M140 78h20M170 78h20M210 78h20M240 78h20M280 78h20M310 78h20M370 78h20M410 78h20M50 79h20M90 79h20M140 79h20M170 79h20M210 79h20M240 79h20M280 79h20M310 79h20M370 79h20M410 79h20M60 80h20M90 80h30M130 80h20M170 80h20M210 80h20M240 80h60M310 80h20M370 80h20M410 80h20M60 81h20M90 81h30M130 81h4M135 81h15M170 81h20M210 81h20M240 81h60M310 81h20M370 81h20M410 81h20M60 82h20M90 82h30M130 82h20M170 82h20M210 82h20M240 82h60M310 82h20M370 82h20M410 82h20M60 83h20M90 83h30M130 83h20M170 83h20M210 83h20M240 83h60M310 83h20M370 83h20M410 83h20M60 84h20M90 84h30M130 84h20M170 84h20M210 84h20M240 84h60M310 84h20M370 84h20M410 84h20M60 85h20M90 85h30M130 85h20M170 85h20M210 85h20M240 85h60M310 85h20M370 85h20M410 85h20M60 86h20M90 86h30M130 86h20M170 86h20M210 86h20M240 86h60M310 86h20M370 86h20M410 86h20M60 87h20M90 87h30M130 87h20M170 87h20M210 87h20M240 87h60M310 87h20M370 87h20M410 87h20M60 88h20M90 88h30M130 88h20M170 88h20M210 88h20M240 88h60M310 88h20M370 88h20M410 88h20M60 89h20M90 89h30M130 89h20M170 89h20M210 89h20M240 89h60M310 89h20M370 89h20M410 89h20M60 90h20M90 90h30M130 90h20M170 90h20M210 90h20M240 90h41M282 90h8M310 90h20M370 90h20M410 90h20M60 91h20M90 91h30M130 91h20M170 91h20M210 91h20M240 91h50M310 91h20M370 91h20M410 91h20M60 92h20M90 92h30M130 92h20M170 92h20M210 92h20M240 92h50M310 92h20M370 92h20M410 92h20M60 93h20M90 93h30M130 93h20M170 93h20M210 93h20M240 93h50M310 93h20M370 93h20M410 93h20M60 94h20M90 94h30M130 94h20M170 94h20M210 94h20M240 94h50M310 94h20M370 94h20M410 94h20M60 95h20M90 95h30M130 95h20M170 95h20M210 95h20M240 95h50M310 95h20M370 95h20M410 95h20M60 96h20M90 96h30M130 96h20M170 96h20M210 96h20M240 96h39M280 96h10M310 96h20M370 96h20M410 96h20M60 97h20M90 97h30M130 97h20M170 97h19M210 97h20M240 97h50M310 97h20M370 97h20M410 97h20M60 98h20M90 98h30M130 98h20M170 98h20M210 98h20M240 98h50M310 98h20M370 98h20M410 98h20M60 99h20M90 99h30M130 99h20M170 99h20M210 99h20M240 99h50M310 99h20M370 99h20M410 99h20M60 100h20M90 100h30M130 100h20M170 100h20M210 100h20M240 100h20M280 100h20M310 100h20M370 100h20M410 100h20M60 101h20M90 101h30M130 101h20M170 101h20M210 101h20M240 101h20M280 101h20M310 101h20M370 101h20M410 101h20M60 102h20M90 102h30M130 102h20M170 102h20M210 102h20M240 102h20M280 102h20M310 102h20M370 102h20M410 102h20M60 103h20M90 103h30M130 103h20M170 103h20M210 103h20M240 103h20M280 103h20M310 103h20M370 103h20M410 103h20M60 104h20M90 104h30M130 104h20M170 104h20M210 104h20M240 104h20M280 104h20M310 104h20M370 104h20M410 104h20M60 105h20M90 105h30M130 105h20M170 105h20M210 105h20M240 105h20M280 105h20M310 105h20M370 105h20M410 105h20M60 106h20M90 106h30M130 106h20M170 106h20M210 106h5M216 106h14M240 106h20M280 106h20M310 106h20M370 106h20M410 106h20M60 107h20M90 107h30M130 107h2M133 107h17M170 107h20M210 107h20M240 107h20M280 107h20M310 107h20M370 107h20M410 107h20M60 108h20M90 108h22M113 108h7M130 108h20M170 108h20M210 108h20M240 108h20M280 108h20M310 108h20M370 108h20M410 108h20M60 109h20M90 109h30M130 109h20M170 109h20M210 109h20M240 109h4M245 109h15M280 109h20M310 109h20M370 109h20M410 109h20M60 110h40M110 110h20M131 110h19M170 110h20M210 110h20M240 110h20M280 110h20M310 110h20M370 110h20M410 110h20M60 111h40M110 111h40M170 111h20M210 111h20M240 111h20M280 111h20M310 111h20M370 111h20M410 111h20M60 112h40M110 112h40M170 112h20M210 112h20M240 112h20M280 112h20M310 112h20M370 112h20M410 112h20M60 113h40M110 113h40M170 113h20M210 113h20M240 113h20M280 113h20M310 113h19M370 113h20M410 113h20M60 114h40M110 114h40M170 114h20M210 114h20M240 114h20M280 114h20M310 114h20M370 114h20M410 114h20M60 115h40M110 115h40M170 115h20M210 115h20M240 115h20M280 115h20M310 115h20M370 115h20M410 115h20M60 116h40M110 116h40M170 116h20M210 116h20M240 116h20M280 116h20M310 116h20M370 116h20M410 116h20M60 117h40M110 117h40M170 117h20M210 117h20M240 117h20M280 117h20M310 117h20M370 117h20M410 117h20M60 118h40M110 118h40M170 118h20M210 118h20M240 118h20M280 118h20M310 118h20M370 118h20M410 118h20M60 119h40M110 119h40M170 119h20M210 119h20M240 119h20M280 119h20M310 119h20M370 119h20M410 119h20M70 120h30M110 120h30M170 120h60M240 120h20M280 120h20M310 120h50M370 120h60M70 121h30M110 121h30M170 121h60M240 121h20M280 121h20M310 121h50M370 121h60M70 122h30M110 122h30M170 122h60M240 122h20M280 122h20M310 122h50M370 122h60M70 123h3M74 123h26M110 123h30M170 123h60M240 123h20M280 123h20M310 123h50M370 123h60M70 124h30M110 124h30M170 124h60M240 124h20M280 124h20M310 124h50M370 124h60M70 125h30M110 125h30M170 125h60M240 125h20M280 125h20M310 125h50M370 125h60M70 126h30M110 126h30M170 126h56M227 126h3M240 126h20M280 126h20M310 126h50M370 126h60M70 127h30M110 127h30M170 127h60M240 127h20M280 127h20M310 127h50M370 127h60M70 128h30M110 128h30M170 128h60M240 128h20M280 128h20M310 128h50M370 128h60M70 129h30M110 129h30M170 129h17M188 129h42M240 129h20M280 129h20M310 129h50M370 129h60M70 130h20M120 130h20M180 130h40M240 130h20M280 130h20M310 130h50M370 130h50M70 131h20M120 131h20M180 131h40M240 131h20M280 131h11M292 131h8M310 131h50M370 131h50M70 132h20M120 132h20M180 132h40M240 132h20M280 132h20M310 132h50M370 132h50M70 133h20M120 133h20M180 133h40M240 133h20M280 133h20M310 133h50M370 133h50M70 134h20M120 134h20M180 134h40M240 134h20M280 134h20M310 134h50M370 134h50M70 135h20M120 135h20M180 135h40M240 135h20M280 135h20M310 135h50M370 135h50M70 136h1M72 136h18M120 136h20M180 136h40M240 136h20M280 136h20M310 136h50M370 136h50M70 137h20M120 137h20M180 137h40M240 137h20M280 137h20M310 137h50M370 137h50M70 138h20M120 138h20M180 138h40M240 138h20M280 138h20M310 138h50M370 138h50M70 139h20M120 139h20M180 139h40M240 139h20M280 139h20M310 139h50M370 139h50M90 160h10M90 161h10M90 162h10M90 163h10M90 164h10M90 165h10M90 166h10M90 167h10M90 168h10M90 169h10M60 170h10M120 170h10M60 171h10M120 171h10M60 172h10M120 172h10M60 173h10M120 173h10M60 174h10M120 174h10M60 175h10M120 175h10M60 176h10M120 176h10M60 177h10M120 177h10M60 178h10M120 178h10M60 179h10M120 179h10M70 180h10M90 180h10M110 180h10M70 181h10M90 181h10M110 181h10M70 182h10M90 182h10M110 182h10M70 183h10M90 183h10M110 183h10M70 184h10M90 184h10M110 184h10M70 185h10M90 185h10M110 185h10M70 186h10M90 186h10M110 186h10M70 187h10M90 187h10M110 187h10M70 188h10M90 188h10M110 188h10M70 189h10M90 189h10M110 189h10M80 190h10M100 190h10M80 191h10M100 191h10M80 192h10M100 192h10M80 193h10M100 193h10M80 194h10M100 194h10M80 195h10M100 195h10M80 196h10M100 196h10M80 197h10M100 197h10M80 198h10M100 198h10M80 199h10M100 199h10M50 200h10M70 200h10M90 200h10M110 200h10M130 200h10M50 201h10M70 201h10M90 201h10M110 201h10M130 201h10M50 202h10M70 202h10M90 202h10M110 202h10M130 202h10M50 203h10M70 203h10M90 203h10M110 203h10M130 203h10M50 204h10M70 204h10M90 204h10M110 204h10M130 204h10M50 205h10M70 205h10M90 205h10M110 205h10M130 205h10M50 206h10M70 206h10M90 206h10M110 206h10M130 206h10M50 207h10M70 207h10M90 207h10M110 207h10M130 207h10M50 208h10M70 208h10M90 208h10M110 208h10M130 208h10M50 209h10M70 209h10M90 209h10M110 209h10M130 209h10M80 210h10M100 210h10M80 211h10M100 211h10M80 212h10M100 212h10M80 213h10M100 213h10M80 214h10M100 214h10M80 215h10M100 215h10M80 216h10M100 216h10M80 217h10M100 217h10M80 218h10M100 218h10M80 219h10M100 219h10M70 220h10M90 220h10M110 220h10M70 221h10M90 221h10M110 221h10M70 222h10M90 222h10M110 222h10M70 223h10M90 223h10M110 223h10M70 224h10M90 224h10M110 224h10M70 225h10M90 225h10M110 225h10M70 226h10M90 226h10M110 226h10M70 227h10M90 227h10M110 227h10M70 228h10M90 228h10M110 228h10M70 229h10M90 229h10M110 229h10M60 230h10M120 230h10M60 231h10M120 231h10M60 232h10M120 232h10M60 233h10M120 233h10M60 234h10M120 234h10M60 235h10M120 235h10M60 236h10M120 236h10M60 237h9M120 237h10M60 238h10M120 238h10M60 239h10M120 239h10M90 240h10M90 241h10M90 242h10M90 243h10M90 244h10M90 245h10M90 246h10M90 247h10M90 248h10M90 249h10" />
<path stroke="#fbf336" d="M58 40h1M112 108h1M244 109h1M130 110h1M73 123h1M226 126h1M187 129h1" />
<path stroke="#faf236" d="M189 40h1M279 42h1M423 52h1M228 59h1M243 60h1M381 64h1M219 69h1M159 74h1M279 96h1M189 97h1M132 107h1M291 131h1M69 237h1" />
<path stroke="#fbf237" d="M140 45h1M410 49h1M326 56h1M134 81h1M281 90h1M215 106h1M329 113h1M71 136h1" />
<path stroke="#fffeff" d="M466 152h1M463 156h1M211 205h1M16 211h1M235 223h1M211 266h1M292 275h1M349 465h1M52 469h1" />
<path stroke="#33ff66" d="M200 160h90M200 161h90M200 162h90M200 163h90M200 164h90M200 165h90M200 166h90M200 167h90M200 168h90M200 169h90M190 170h10M290 170h10M190 171h3M194 171h6M290 171h10M190 172h10M290 172h10M190 173h10M290 173h10M190 174h10M290 174h10M190 175h10M290 175h10M190 176h10M290 176h10M190 177h10M290 177h10M190 178h10M290 178h10M190 179h10M290 179h10M190 180h10M290 180h10M190 181h10M290 181h10M190 182h10M290 182h2M293 182h7M190 183h10M290 183h10M190 184h10M290 184h10M190 185h10M290 185h10M190 186h10M290 186h10M190 187h10M290 187h10M190 188h10M290 188h10M190 189h10M290 189h10M190 190h10M290 190h10M190 191h10M290 191h10M190 192h10M290 192h10M190 193h10M290 193h10M190 194h10M290 194h10M190 195h10M290 195h10M190 196h10M290 196h10M190 197h10M290 197h10M190 198h10M291 198h9M190 199h10M290 199h10M190 200h10M290 200h10M190 201h10M290 201h10M190 202h10M290 202h10M190 203h10M290 203h10M190 204h10M290 204h10M190 205h10M290 205h10M190 206h10M290 206h10M190 207h10M290 207h10M190 208h10M290 208h10M190 209h10M290 209h10M190 210h10M290 210h10M190 211h10M290 211h10M190 212h10M290 212h10M190 213h10M290 213h10M190 214h10M290 214h10M190 215h10M290 215h10M190 216h10M290 216h10M190 217h10M290 217h10M190 218h10M290 218h10M190 219h10M290 219h10M190 220h10M290 220h10M190 221h10M290 221h10M190 222h10M290 222h10M190 223h10M290 223h10M190 224h10M290 224h10M190 225h10M290 225h10M190 226h10M290 226h10M190 227h10M290 227h10M190 228h10M290 228h10M190 229h10M290 229h10M190 230h10M290 230h10M190 231h10M290 231h10M190 232h10M290 232h10M190 233h10M290 233h10M190 234h10M290 234h10M190 235h10M290 235h10M190 236h10M290 236h10M190 237h10M290 237h10M190 238h10M290 238h10M190 239h10M290 239h10M160 240h40M290 240h40M160 241h40M290 241h22M313 241h17M160 242h40M290 242h40M160 243h40M290 243h40M160 244h40M290 244h40M160 245h40M290 245h40M160 246h40M290 246h40M160 247h40M290 247h40M160 248h13M174 248h16M191 248h9M290 248h40M160 249h40M290 249h40M150 250h10M330 250h10M150 251h10M330 251h10M150 252h10M330 252h10M150 253h10M330 253h10M150 254h10M330 254h10M150 255h10M330 255h10M150 256h10M330 256h10M150 257h10M330 257h10M150 258h10M330 258h10M150 259h10M330 259h10M140 260h10M340 260h10M140 261h10M340 261h10M140 262h10M340 262h10M140 263h10M340 263h10M140 264h10M340 264h10M140 265h10M340 265h10M140 266h10M340 266h10M140 267h10M340 267h10M140 268h10M340 268h10M140 269h10M340 269h10M140 270h10M340 270h10M140 271h10M340 271h10M140 272h10M340 272h10M140 273h10M340 273h10M140 274h10M340 274h10M140 275h10M340 275h10M140 276h10M340 276h10M140 277h10M340 277h10M140 278h10M340 278h10M140 279h10M340 279h10M150 280h10M330 280h10M150 281h10M330 281h10M150 282h10M330 282h10M150 283h10M331 283h9M150 284h10M330 284h10M150 285h10M330 285h10M150 286h10M330 286h10M150 287h10M330 287h10M150 288h10M330 288h10M150 289h10M330 289h10M160 290h10M320 290h10M160 291h10M320 291h10M160 292h10M320 292h10M160 293h10M320 293h7M328 293h2M160 294h10M320 294h10M160 295h10M320 295h10M160 296h10M320 296h10M160 297h10M320 297h10M160 298h10M320 298h10M160 299h10M320 299h10M160 300h10M320 300h10M160 301h10M320 301h10M160 302h10M320 302h10M160 303h10M320 303h10M160 304h10M320 304h10M160 305h10M320 305h10M160 306h10M320 306h10M160 307h10M320 307h10M160 308h10M320 308h10M160 309h10M320 309h10M150 310h10M330 310h10M150 311h10M330 311h10M150 312h10M330 312h10M150 313h10M330 313h10M150 314h10M330 314h10M150 315h10M330 315h10M150 316h10M330 316h10M150 317h10M330 317h10M150 318h10M330 318h10M150 319h10M330 319h10M150 320h10M330 320h10M150 321h10M330 321h10M150 322h10M330 322h10M150 323h10M330 323h10M150 324h10M330 324h10M150 325h10M330 325h10M150 326h10M330 326h10M150 327h10M330 327h8M339 327h1M150 328h10M330 328h10M150 329h10M330 329h10M150 330h10M330 330h10M150 331h10M330 331h10M150 332h10M330 332h10M150 333h10M331 333h9M150 334h10M330 334h10M150 335h10M330 335h10M150 336h10M330 336h10M150 337h10M330 337h10M150 338h10M330 338h10M150 339h10M330 339h10M150 340h10M330 340h10M150 341h10M330 341h10M150 342h10M330 342h10M150 343h10M330 343h10M150 344h10M330 344h10M150 345h10M330 345h10M150 346h10M330 346h10M150 347h10M330 347h10M150 348h10M330 348h10M150 349h10M330 349h10M150 350h10M330 350h10M150 351h10M330 351h10M150 352h10M330 352h10M150 353h10M330 353h4M335 353h5M150 354h10M330 354h10M150 355h10M330 355h10M150 356h10M330 356h10M150 357h10M330 357h10M150 358h10M330 358h10M150 359h10M330 359h10M150 360h10M330 360h10M150 361h10M330 361h10M150 362h10M330 362h10M150 363h10M330 363h10M150 364h10M330 364h10M150 365h10M330 365h10M150 366h10M330 366h10M150 367h3M154 367h6M330 367h10M150 368h10M330 368h10M150 369h10M330 369h10M150 370h10M330 370h10M150 371h10M330 371h10M150 372h10M330 372h10M150 373h10M330 373h10M150 374h10M330 374h10M150 375h10M330 375h10M150 376h10M330 376h10M150 377h10M330 377h10M150 378h10M330 378h10M150 379h10M330 379h10M150 380h10M330 380h10M150 381h10M330 381h10M150 382h10M330 382h10M150 383h10M330 383h10M150 384h10M331 384h9M150 385h10M330 385h10M150 386h10M330 386h10M150 387h10M330 387h10M150 388h10M330 388h10M150 389h10M330 389h10M140 390h20M330 390h20M140 391h20M330 391h20M140 392h20M330 392h20M140 393h20M330 393h20M140 394h20M330 394h20M140 395h20M330 395h20M140 396h20M330 396h20M140 397h20M330 397h20M140 398h20M330 398h20M140 399h20M330 399h20M120 400h20M350 400h20M120 401h20M350 401h20M120 402h20M350 402h20M120 403h20M350 403h20M120 404h20M350 404h20M120 405h20M350 405h20M120 406h20M350 406h20M120 407h20M350 407h20M120 408h20M350 408h20M120 409h20M350 409h20M110 410h10M370 410h10M110 411h10M370 411h10M110 412h10M370 412h10M110 413h10M370 413h10M110 414h10M370 414h10M110 415h10M370 415h10M110 416h10M370 416h10M110 417h10M370 417h10M110 418h10M370 418h10M110 419h10M370 419h10M100 420h10M380 420h10M100 421h10M380 421h10M100 422h10M380 422h10M100 423h10M380 423h10M100 424h10M380 424h10M100 425h10M380 425h10M100 426h10M380 426h10M100 427h10M380 427h10M100 428h10M380 428h10M100 429h10M380 429h2M383 429h7M100 430h10M380 430h10M100 431h10M380 431h10M100 432h10M380 432h10M100 433h10M380 433h10M100 434h10M380 434h10M100 435h10M380 435h10M100 436h10M380 436h10M100 437h10M380 437h10M100 438h10M380 438h10M100 439h10M380 439h10M100 440h10M380 440h10M100 441h10M380 441h10M100 442h10M380 442h10M100 443h10M380 443h10M100 444h10M380 444h10M100 445h10M380 445h10M100 446h10M380 446h10M100 447h10M380 447h10M100 448h10M380 448h10M100 449h10M380 449h10" />
<path stroke="#ff5733" d="M410 160h10M430 160h10M410 161h10M430 161h10M410 162h10M430 162h10M410 163h10M430 163h10M410 164h10M430 164h10M410 165h10M430 165h10M410 166h10M430 166h10M410 167h10M430 167h10M410 168h10M430 168h10M410 169h10M430 169h4M435 169h5M400 170h10M420 170h10M440 170h10M400 171h10M420 171h10M440 171h10M400 172h10M420 172h10M440 172h10M400 173h10M420 173h10M440 173h10M400 174h10M420 174h10M440 174h10M400 175h10M420 175h10M440 175h10M400 176h10M420 176h10M440 176h10M400 177h10M420 177h10M440 177h10M400 178h10M420 178h10M440 178h10M400 179h10M420 179h10M440 179h10M400 180h10M420 180h10M440 180h10M400 181h10M420 181h10M440 181h10M400 182h10M420 182h10M440 182h10M400 183h10M420 183h10M440 183h10M400 184h10M420 184h10M440 184h10M400 185h10M420 185h10M440 185h10M400 186h10M420 186h10M440 186h10M400 187h10M420 187h10M440 187h10M400 188h10M420 188h10M440 188h10M400 189h10M420 189h10M440 189h10M400 190h10M440 190h10M400 191h10M440 191h10M400 192h10M440 192h10M400 193h10M440 193h10M400 194h10M440 194h10M400 195h10M440 195h10M400 196h10M440 196h10M400 197h10M440 197h10M400 198h10M440 198h10M400 199h10M440 199h10M410 210h10M430 210h10M410 211h10M430 211h10M410 212h10M430 212h10M410 213h10M430 213h10M410 214h10M430 214h1M432 214h8M410 215h10M430 215h10M410 216h10M430 216h10M410 217h10M430 217h10M410 218h10M430 218h10M410 219h10M430 219h10M360 220h30M410 220h10M430 220h10M360 221h30M410 221h10M430 221h10M360 222h30M410 222h10M430 222h10M360 223h30M410 223h10M430 223h10M360 224h30M410 224h10M430 224h10M360 225h30M410 225h10M430 225h10M360 226h30M410 226h10M430 226h10M360 227h30M410 227h10M430 227h10M360 228h18M379 228h11M410 228h10M430 228h10M360 229h30M410 229h10M430 229h10M360 230h10M380 230h10M410 230h10M430 230h10M360 231h10M380 231h10M410 231h10M430 231h10M360 232h10M380 232h10M410 232h10M430 232h10M360 233h10M380 233h10M410 233h10M430 233h10M360 234h10M380 234h10M410 234h10M430 234h10M360 235h10M380 235h10M410 235h10M430 235h10M360 236h10M380 236h10M410 236h10M430 236h10M360 237h10M380 237h10M410 237h10M430 237h10M360 238h10M380 238h10M410 238h10M430 238h10M360 239h10M380 239h10M410 239h10M430 239h10M360 240h20M410 240h30M360 241h20M410 241h30M360 242h20M410 242h30M360 243h20M410 243h30M360 244h20M410 244h30M360 245h12M373 245h7M410 245h30M360 246h20M410 246h30M360 247h20M410 247h30M360 248h20M410 248h30M360 249h20M410 249h30M360 250h10M380 250h10M360 251h10M380 251h10M360 252h10M380 252h10M360 253h10M380 253h10M360 254h10M380 254h10M360 255h10M380 255h10M360 256h10M380 256h10M360 257h10M380 257h10M360 258h10M380 258h10M360 259h10M380 259h10M360 260h20M410 260h30M360 261h20M410 261h30M360 262h20M410 262h30M360 263h20M410 263h30M360 264h20M410 264h30M360 265h20M410 265h30M360 266h20M410 266h30M360 267h20M410 267h30M360 268h20M410 268h30M360 269h20M410 269h30M410 270h10M430 270h10M410 271h10M430 271h10M410 272h10M430 272h10M410 273h10M430 273h10M410 274h10M430 274h10M410 275h10M430 275h10M410 276h10M430 276h10M410 277h10M430 277h10M410 278h10M430 278h10M410 279h10M430 279h10M360 280h30M410 280h20M360 281h30M410 281h20M360 282h30M410 282h20M360 283h30M410 283h20M360 284h30M410 284h20M360 285h30M410 285h20M360 286h30M410 286h20M360 287h30M410 287h20M360 288h30M410 288h20M360 289h30M410 289h20M360 290h10M380 290h10M410 290h10M430 290h10M360 291h10M380 291h10M410 291h10M430 291h10M360 292h10M380 292h10M410 292h10M430 292h10M360 293h10M380 293h10M410 293h10M430 293h10M360 294h10M380 294h10M410 294h10M430 294h10M360 295h10M380 295h10M410 295h10M430 295h10M360 296h10M380 296h10M410 296h10M430 296h10M360 297h10M380 297h10M410 297h10M430 297h10M360 298h10M380 298h10M410 298h10M430 298h10M360 299h10M380 299h10M410 299h10M430 299h10M360 300h20M360 301h20M360 302h20M360 303h20M360 304h20M360 305h20M360 306h20M360 307h20M360 308h20M360 309h20M360 310h10M380 310h10M420 310h10M360 311h10M380 311h10M420 311h10M360 312h10M380 312h10M420 312h10M360 313h10M380 313h10M420 313h10M360 314h10M380 314h10M420 314h10M360 315h10M380 315h10M420 315h10M360 316h10M380 316h10M420 316h10M360 317h10M380 317h10M420 317h10M360 318h10M380 318h10M420 318h10M360 319h10M380 319h10M420 319h10M420 320h10M420 321h10M420 322h10M420 323h10M420 324h10M420 325h10M420 326h10M420 327h10M420 328h10M420 329h10M360 330h30M420 330h10M360 331h30M420 331h10M360 332h30M420 332h10M360 333h30M420 333h10M360 334h30M420 334h10M360 335h30M420 335h10M360 336h30M420 336h10M360 337h30M420 337h10M360 338h30M420 338h10M360 339h30M420 339h10M360 340h10M380 340h10M360 341h7M368 341h2M380 341h10M360 342h10M380 342h10M360 343h10M380 343h10M360 344h10M380 344h10M360 345h10M380 345h10M360 346h10M380 346h10M360 347h10M380 347h10M360 348h10M380 348h10M360 349h10M380 349h10M360 350h10M380 350h10M410 350h30M360 351h10M380 351h10M410 351h30M360 352h10M380 352h10M410 352h30M360 353h10M380 353h10M410 353h30M360 354h10M380 354h10M410 354h30M360 355h10M380 355h10M410 355h30M360 356h10M380 356h10M410 356h30M360 357h10M380 357h10M410 357h30M360 358h10M380 358h10M410 358h30M360 359h10M380 359h10M410 359h30M360 360h30M410 360h10M360 361h30M410 361h10M360 362h30M410 362h10M360 363h30M410 363h10M360 364h30M410 364h10M360 365h1M362 365h12M375 365h15M410 365h10M360 366h30M410 366h10M360 367h30M410 367h10M360 368h23M384 368h6M410 368h10M360 369h6M367 369h23M410 369h10M410 370h10M410 371h10M410 372h10M410 373h10M410 374h10M410 375h10M410 376h10M410 377h10M410 378h10M410 379h10M410 380h30M410 381h30M410 382h30M410 383h30M410 384h30M410 385h30M410 386h30M410 387h30M410 388h30M410 389h30M410 400h30M410 401h30M410 402h30M410 403h30M410 404h30M410 405h30M410 406h30M410 407h30M410 408h30M410 409h30M410 410h10M430 410h9M410 411h10M430 411h10M410 412h10M430 412h10M410 413h10M430 413h10M410 414h10M430 414h10M410 415h10M430 415h10M410 416h10M430 416h10M410 417h10M430 417h10M410 418h10M430 418h10M410 419h10M430 419h10M410 420h30M410 421h30M410 422h10M421 422h6M428 422h12M410 423h30M410 424h13M424 424h16M410 425h30M410 426h30M410 427h30M410 428h30M410 429h30M410 430h10M430 430h10M410 431h10M430 431h10M410 432h10M430 432h10M410 433h10M430 433h10M410 434h10M430 434h10M410 435h10M430 435h10M410 436h10M430 436h10M410 437h10M430 437h10M410 438h10M430 438h10M410 439h10M430 439h10" />
<path stroke="#ff5732" d="M434 169h1M431 214h1M374 365h1M383 368h1" />
<path stroke="#000000" d="M200 170h46M247 170h43M200 171h90M200 172h90M200 173h90M200 174h53M254 174h36M200 175h90M200 176h47M248 176h42M200 177h90M200 178h90M200 179h90M200 180h10M280 180h10M200 181h4M205 181h5M280 181h10M200 182h10M280 182h10M200 183h10M280 183h10M200 184h10M280 184h10M200 185h10M280 185h10M200 186h10M280 186h10M200 187h10M280 187h10M200 188h10M280 188h10M200 189h10M280 189h10M200 190h10M280 190h10M200 191h10M280 191h10M200 192h10M280 192h10M200 193h10M280 193h10M200 194h10M280 194h10M200 195h10M280 195h10M200 196h10M280 196h10M200 197h10M280 197h10M200 198h10M280 198h10M200 199h10M280 199h10M200 200h10M280 200h10M200 201h10M280 201h10M200 202h10M280 202h10M200 203h10M280 203h10M200 204h10M280 204h10M200 205h10M280 205h10M200 206h10M280 206h10M200 207h10M280 207h10M200 208h3M204 208h6M280 208h10M200 209h10M280 209h10M200 210h10M280 210h10M200 211h10M280 211h10M200 212h10M280 212h10M200 213h10M280 213h10M200 214h10M280 214h10M200 215h10M280 215h10M200 216h10M280 216h10M200 217h10M280 217h10M200 218h10M280 218h10M200 219h10M280 219h10M200 220h10M280 220h10M200 221h10M280 221h10M200 222h10M280 222h10M200 223h10M280 223h10M200 224h10M280 224h10M200 225h10M280 225h10M200 226h10M280 226h10M200 227h10M280 227h10M200 228h10M280 228h10M200 229h10M280 229h10M200 230h10M280 230h10M200 231h10M280 231h10M200 232h10M280 232h10M200 233h10M280 233h10M200 234h10M280 234h10M200 235h10M280 235h10M200 236h10M280 236h10M200 237h10M280 237h10M200 238h10M280 238h10M200 239h10M280 239h10M200 240h10M280 240h10M200 241h10M280 241h10M200 242h10M280 242h10M200 243h10M280 243h10M200 244h10M280 244h10M200 245h10M280 245h10M200 246h10M280 246h10M200 247h10M280 247h10M200 248h10M280 248h10M200 249h10M280 249h10M160 250h170M160 251h170M160 252h170M160 253h170M160 254h170M160 255h86M247 255h32M280 255h5M286 255h8M295 255h35M160 256h170M160 257h127M288 257h42M160 258h170M160 259h170M150 260h10M330 260h10M150 261h10M330 261h10M150 262h10M330 262h10M150 263h10M330 263h10M150 264h10M330 264h10M150 265h10M330 265h10M150 266h10M330 266h10M150 267h10M330 267h10M150 268h10M330 268h10M150 269h10M330 269h10M150 270h10M200 270h90M330 270h10M150 271h10M200 271h90M330 271h10M150 272h10M200 272h90M330 272h10M150 273h10M200 273h90M330 273h10M150 274h10M200 274h70M271 274h19M330 274h10M150 275h10M200 275h90M330 275h10M150 276h10M200 276h18M219 276h71M330 276h10M150 277h10M200 277h90M330 277h10M150 278h10M200 278h37M238 278h52M330 278h10M150 279h10M200 279h90M330 279h10M160 280h40M290 280h17M308 280h22M160 281h40M290 281h40M160 282h40M290 282h40M160 283h40M290 283h17M308 283h22M160 284h40M290 284h40M160 285h40M290 285h40M160 286h40M290 286h40M160 287h40M290 287h40M160 288h40M290 288h40M160 289h40M290 289h40M170 290h10M310 290h10M170 291h10M310 291h10M170 292h10M310 292h10M170 293h10M310 293h10M170 294h10M310 294h10M170 295h4M175 295h5M310 295h10M170 296h10M310 296h10M170 297h10M310 297h10M170 298h10M310 298h10M170 299h10M310 299h10M170 300h10M190 300h10M210 300h50M270 300h30M310 300h10M170 301h10M190 301h10M210 301h50M270 301h30M310 301h10M170 302h10M190 302h10M210 302h50M270 302h30M310 302h10M170 303h10M190 303h10M210 303h50M270 303h30M310 303h10M170 304h10M190 304h10M210 304h50M270 304h30M310 304h10M170 305h10M190 305h10M210 305h50M270 305h30M310 305h10M170 306h10M190 306h10M210 306h50M270 306h30M310 306h10M170 307h10M190 307h10M210 307h50M270 307h30M310 307h10M170 308h10M190 308h10M210 308h50M270 308h8M279 308h21M310 308h10M170 309h10M190 309h10M210 309h50M270 309h30M310 309h10M160 310h10M190 310h20M220 310h20M250 310h20M280 310h20M320 310h10M160 311h10M190 311h20M220 311h20M250 311h20M280 311h20M320 311h10M160 312h10M190 312h20M220 312h20M250 312h20M280 312h20M320 312h10M160 313h10M190 313h20M220 313h20M250 313h20M280 313h20M320 313h10M160 314h10M190 314h20M220 314h20M250 314h20M280 314h20M320 314h10M160 315h10M190 315h20M220 315h20M250 315h20M280 315h20M320 315h10M160 316h10M190 316h20M220 316h20M250 316h20M280 316h20M320 316h10M160 317h10M190 317h20M220 317h20M250 317h20M280 317h20M320 317h10M160 318h10M190 318h20M220 318h20M250 318h20M280 318h20M320 318h10M160 319h10M190 319h20M220 319h20M250 319h20M280 319h20M320 319h10M160 320h10M200 320h20M240 320h10M260 320h20M320 320h7M328 320h2M160 321h10M200 321h20M241 321h9M260 321h20M320 321h10M160 322h10M200 322h20M240 322h10M260 322h20M320 322h10M160 323h10M200 323h20M240 323h10M260 323h20M320 323h10M160 324h10M200 324h18M219 324h1M240 324h10M260 324h20M320 324h10M160 325h10M200 325h20M240 325h10M260 325h20M320 325h10M160 326h10M200 326h20M240 326h10M260 326h20M320 326h10M160 327h10M200 327h20M240 327h10M260 327h20M320 327h10M160 328h10M200 328h20M240 328h10M260 328h20M320 328h10M160 329h10M200 329h20M240 329h10M260 329h20M320 329h10M160 330h10M240 330h10M320 330h10M160 331h10M240 331h10M320 331h10M160 332h10M240 332h10M320 332h10M160 333h10M240 333h10M320 333h10M160 334h10M240 334h10M320 334h10M160 335h10M240 335h10M320 335h10M160 336h10M240 336h10M320 336h10M160 337h10M240 337h10M320 337h10M160 338h10M240 338h10M320 338h10M160 339h10M240 339h10M320 339h10M160 340h10M250 340h10M320 340h10M160 341h10M250 341h10M320 341h10M160 342h10M250 342h10M320 342h10M160 343h10M250 343h10M320 343h10M160 344h10M250 344h10M320 344h10M160 345h10M250 345h10M320 345h10M160 346h10M250 346h10M320 346h10M160 347h10M250 347h10M320 347h10M160 348h10M250 348h10M320 348h10M160 349h10M250 349h10M320 349h10M160 350h10M190 350h10M230 350h10M260 350h10M290 350h10M320 350h10M160 351h10M190 351h10M230 351h10M260 351h10M290 351h10M320 351h10M160 352h10M190 352h10M230 352h10M260 352h10M290 352h10M320 352h10M160 353h10M190 353h10M230 353h10M260 353h10M290 353h10M320 353h10M160 354h8M169 354h1M190 354h10M230 354h10M260 354h10M290 354h10M320 354h10M160 355h10M190 355h10M230 355h10M260 355h10M290 355h10M320 355h10M160 356h10M190 356h10M230 356h10M260 356h10M290 356h10M320 356h10M160 357h10M190 357h10M230 357h10M260 357h10M290 357h10M320 357h10M160 358h10M190 358h10M230 358h10M260 358h10M290 358h10M320 358h10M160 359h10M190 359h10M230 359h10M260 359h10M290 359h10M320 359h10M160 360h10M190 360h10M240 360h20M290 360h10M320 360h10M160 361h10M190 361h10M240 361h20M290 361h10M320 361h10M160 362h10M190 362h10M240 362h20M290 362h10M320 362h10M160 363h10M190 363h10M240 363h20M290 363h10M320 363h10M160 364h10M190 364h10M240 364h20M290 364h10M320 364h10M160 365h10M190 365h10M240 365h20M290 365h10M320 365h10M160 366h10M190 366h10M240 366h20M290 366h10M320 366h10M160 367h10M190 367h10M240 367h20M290 367h10M320 367h10M160 368h10M190 368h10M240 368h20M290 368h10M320 368h10M160 369h10M190 369h10M240 369h20M290 369h10M320 369h10M160 370h10M190 370h10M290 370h10M320 370h10M160 371h10M190 371h10M290 371h10M320 371h10M160 372h10M190 372h10M290 372h10M320 372h10M160 373h10M190 373h10M290 373h10M320 373h10M160 374h10M190 374h10M290 374h10M320 374h10M160 375h10M190 375h10M290 375h10M320 375h10M160 376h10M190 376h10M290 376h10M320 376h10M160 377h10M190 377h10M290 377h10M320 377h10M160 378h10M190 378h10M290 378h10M320 378h10M160 379h10M190 379h10M290 379h10M320 379h10M160 380h10M190 380h10M290 380h10M320 380h10M160 381h10M190 381h10M290 381h10M320 381h10M160 382h10M190 382h10M290 382h10M320 382h10M160 383h10M190 383h10M290 383h10M320 383h10M160 384h10M190 384h10M290 384h10M320 384h10M160 385h10M190 385h10M290 385h10M320 385h10M160 386h10M190 386h10M290 386h10M320 386h10M160 387h10M190 387h10M290 387h10M320 387h10M160 388h10M190 388h10M290 388h10M320 388h10M160 389h10M190 389h10M290 389h10M320 389h10M160 390h10M200 390h10M280 390h10M320 390h10M160 391h10M200 391h10M280 391h2M283 391h7M320 391h10M160 392h10M200 392h10M280 392h10M320 392h10M160 393h10M200 393h10M280 393h10M320 393h10M160 394h10M200 394h10M280 394h10M320 394h10M160 395h10M200 395h10M280 395h10M320 395h10M160 396h10M200 396h10M280 396h10M320 396h10M160 397h10M200 397h10M280 397h10M320 397h10M160 398h10M200 398h10M280 398h10M320 398h10M160 399h10M200 399h10M280 399h10M320 399h10M140 400h70M280 400h70M140 401h70M280 401h70M140 402h70M280 402h70M140 403h70M280 403h70M140 404h70M280 404h70M140 405h70M280 405h70M140 406h70M280 406h70M140 407h70M280 407h70M140 408h70M280 408h70M140 409h70M280 409h70M120 410h20M170 410h10M190 410h10M210 410h10M270 410h10M290 410h7M298 410h2M310 410h10M350 410h20M120 411h20M170 411h10M190 411h10M210 411h10M270 411h10M290 411h10M310 411h10M350 411h20M120 412h20M170 412h10M190 412h10M210 412h10M270 412h10M290 412h10M310 412h10M350 412h14M365 412h5M120 413h20M170 413h10M190 413h10M210 413h10M270 413h10M290 413h10M310 413h10M350 413h20M120 414h20M170 414h10M190 414h10M210 414h10M270 414h10M290 414h10M310 414h10M350 414h20M120 415h20M170 415h10M190 415h10M210 415h10M270 415h10M290 415h10M310 415h10M350 415h20M120 416h20M170 416h10M190 416h10M210 416h10M270 416h10M290 416h10M310 416h10M350 416h20M120 417h20M170 417h10M190 417h10M210 417h10M270 417h10M290 417h10M310 417h10M350 417h20M120 418h20M170 418h10M190 418h10M210 418h10M270 418h10M290 418h10M310 418h10M350 418h20M120 419h20M170 419h10M190 419h10M210 419h10M270 419h10M290 419h10M310 419h10M350 419h20M110 420h10M160 420h10M190 420h10M220 420h10M260 420h10M290 420h10M320 420h10M370 420h10M110 421h10M160 421h10M190 421h10M220 421h10M260 421h10M290 421h10M320 421h10M370 421h10M110 422h10M160 422h10M190 422h10M220 422h10M260 422h10M290 422h10M320 422h10M370 422h10M110 423h10M160 423h10M190 423h10M220 423h10M260 423h10M290 423h10M320 423h10M370 423h10M110 424h10M160 424h10M190 424h1M192 424h8M220 424h10M260 424h10M290 424h10M320 424h10M370 424h10M110 425h10M160 425h10M190 425h10M220 425h10M260 425h10M290 425h10M320 425h10M370 425h10M110 426h10M160 426h10M190 426h10M220 426h10M260 426h10M290 426h10M320 426h10M370 426h10M110 427h10M160 427h10M190 427h10M220 427h10M260 427h10M290 427h10M320 427h10M370 427h10M110 428h10M160 428h10M190 428h10M220 428h10M260 428h10M290 428h10M320 428h10M370 428h10M110 429h10M160 429h10M190 429h10M220 429h10M260 429h10M290 429h10M320 429h10M370 429h10M110 430h10M150 430h10M190 430h10M210 430h30M250 430h30M290 430h10M330 430h10M370 430h10M110 431h10M150 431h10M190 431h10M210 431h30M250 431h30M290 431h10M330 431h10M370 431h10M110 432h10M150 432h10M190 432h10M210 432h30M250 432h30M290 432h10M330 432h10M370 432h10M110 433h10M150 433h10M190 433h10M210 433h30M250 433h30M290 433h10M330 433h10M370 433h10M110 434h10M150 434h10M190 434h10M210 434h30M250 434h30M290 434h10M330 434h10M370 434h10M110 435h10M150 435h10M190 435h10M210 435h30M250 435h30M290 435h10M330 435h10M370 435h10M110 436h10M150 436h10M190 436h10M210 436h30M250 436h30M290 436h10M330 436h10M370 436h10M110 437h10M150 437h10M190 437h10M210 437h30M250 437h30M290 437h10M330 437h10M370 437h10M110 438h10M150 438h10M190 438h10M210 438h30M250 438h30M290 438h10M330 438h10M370 438h10M110 439h10M150 439h10M190 439h10M210 439h30M250 439h30M290 439h10M330 439h10M370 439h10M110 440h10M160 440h10M190 440h40M240 440h10M260 440h40M320 440h10M370 440h10M110 441h10M160 441h10M190 441h40M240 441h10M260 441h40M320 441h10M370 441h10M110 442h10M160 442h10M190 442h40M240 442h10M260 442h40M320 442h10M370 442h10M110 443h10M160 443h10M190 443h40M240 443h10M260 443h40M320 443h10M370 443h10M110 444h10M160 444h10M190 444h40M240 444h10M260 444h40M320 444h10M370 444h10M110 445h10M160 445h10M190 445h40M240 445h10M260 445h40M320 445h10M370 445h10M110 446h10M160 446h10M190 446h40M240 446h10M260 446h40M320 446h10M370 446h10M110 447h10M160 447h10M190 447h40M240 447h10M260 447h14M275 447h25M320 447h10M370 447h10M110 448h10M160 448h10M190 448h40M240 448h10M260 448h40M320 448h10M370 448h10M110 449h10M160 449h10M190 449h40M240 449h10M260 449h40M320 449h10M370 449h10" />
<path stroke="#010000" d="M246 170h1M204 181h1M246 255h1M279 255h1M285 255h1M294 255h1M270 274h1M237 278h1M174 295h1M327 320h1M240 321h1M168 354h1M282 391h1M297 410h1" />
<path stroke="#33fe66" d="M193 171h1M292 182h1M190 248h1M334 353h1M382 429h1" />
<path stroke="#000100" d="M253 174h1M247 176h1M307 280h1M307 283h1M364 412h1M274 447h1" />
<path stroke="#b41c30" d="M220 180h10M240 180h10M260 180h10M220 181h10M240 181h10M260 181h10M220 182h10M240 182h10M260 182h10M220 183h10M240 183h10M260 183h10M220 184h10M240 184h10M260 184h10M220 185h10M240 185h10M260 185h10M220 186h10M240 186h10M260 186h10M220 187h10M240 187h10M260 187h10M220 188h10M240 188h10M260 188h10M220 189h10M240 189h10M260 189h10M220 190h10M240 190h10M260 190h10M220 191h10M240 191h10M260 191h10M220 192h10M240 192h10M260 192h10M220 193h10M240 193h10M260 193h10M220 194h10M240 194h10M260 194h10M220 195h10M240 195h10M260 195h10M220 196h10M240 196h10M260 196h10M220 197h10M240 197h10M260 197h10M220 198h10M240 198h10M260 198h10M220 199h10M240 199h10M260 199h10M220 200h10M240 200h10M260 200h10M220 201h10M240 201h10M260 201h10M220 202h10M240 202h10M260 202h10M220 203h10M240 203h10M260 203h10M220 204h10M240 204h10M260 204h10M220 205h10M240 205h3M244 205h6M260 205h10M220 206h10M240 206h10M260 206h10M220 207h10M240 207h10M260 207h10M220 208h10M240 208h10M260 208h10M220 209h10M240 209h10M260 209h10M220 210h10M240 210h10M260 210h10M220 211h10M240 211h10M260 211h10M220 212h10M240 212h10M260 212h10M220 213h10M240 213h10M260 213h10M220 214h10M240 214h10M260 214h5M266 214h4M220 215h10M240 215h10M260 215h10M220 216h5M226 216h4M240 216h10M260 216h10M220 217h10M240 217h10M260 217h10M220 218h10M240 218h10M260 218h10M220 219h10M240 219h10M260 219h10M220 220h10M240 220h10M260 220h10M220 221h10M240 221h10M260 221h10M220 222h10M240 222h10M260 222h10M220 223h10M240 223h10M260 223h10M220 224h10M240 224h10M260 224h10M220 225h10M240 225h10M260 225h10M220 226h10M240 226h10M260 226h10M220 227h10M240 227h10M260 227h10M220 228h10M240 228h10M260 228h10M220 229h10M240 229h10M260 229h10M200 280h10M230 280h30M280 280h10M200 281h10M230 281h30M280 281h10M200 282h10M230 282h30M280 282h10M200 283h10M230 283h30M280 283h10M200 284h10M230 284h30M280 284h10M200 285h10M230 285h30M280 285h10M200 286h10M230 286h30M280 286h10M200 287h10M230 287h30M280 287h10M200 288h10M230 288h30M280 288h10M200 289h10M230 289h30M280 289h10M200 290h20M240 290h10M270 290h20M200 291h20M240 291h10M270 291h20M200 292h20M240 292h10M270 292h20M200 293h20M240 293h10M270 293h20M200 294h20M240 294h10M270 294h16M287 294h3M200 295h20M240 295h10M270 295h20M200 296h20M240 296h10M270 296h20M200 297h20M240 297h10M270 297h20M200 298h20M240 298h10M270 298h20M200 299h20M240 299h10M270 299h20M240 310h10M240 311h10M240 312h10M240 313h10M240 314h10M240 315h10M240 316h10M240 317h10M240 318h10M240 319h10M180 320h20M230 320h10M250 320h10M290 320h20M180 321h20M230 321h10M250 321h10M290 321h20M180 322h20M230 322h10M250 322h10M290 322h20M180 323h20M230 323h10M250 323h10M290 323h20M180 324h20M230 324h10M250 324h10M290 324h20M180 325h20M230 325h10M250 325h10M290 325h20M180 326h20M230 326h10M250 326h10M290 326h20M180 327h20M230 327h10M250 327h10M290 327h11M302 327h8M180 328h20M230 328h10M250 328h10M290 328h20M180 329h20M230 329h10M250 329h10M290 329h20M180 330h60M250 330h60M180 331h60M250 331h60M180 332h60M250 332h60M180 333h60M250 333h60M180 334h60M250 334h54M305 334h5M180 335h60M250 335h60M180 336h60M250 336h60M180 337h60M250 337h60M180 338h60M250 338h60M180 339h60M250 339h60M180 340h70M260 340h50M180 341h70M260 341h50M180 342h70M260 342h50M180 343h70M260 343h50M180 344h70M260 344h50M180 345h70M260 345h50M180 346h70M260 346h50M180 347h70M260 347h50M180 348h70M260 348h50M180 349h69M260 349h50M200 350h30M240 350h20M270 350h20M200 351h30M240 351h20M270 351h20M200 352h30M240 352h20M270 352h20M200 353h30M240 353h20M270 353h20M200 354h30M240 354h20M270 354h20M200 355h30M240 355h20M270 355h11M282 355h8M200 356h30M240 356h20M270 356h20M200 357h30M240 357h20M270 357h20M200 358h30M240 358h20M270 358h20M200 359h30M240 359h20M270 359h20M200 360h40M260 360h30M200 361h40M260 361h30M200 362h40M260 362h30M200 363h40M260 363h30M200 364h40M260 364h30M200 365h40M260 365h30M200 366h40M260 366h30M200 367h40M260 367h30M200 368h40M260 368h30M200 369h40M260 369h30M200 370h90M200 371h90M200 372h83M284 372h6M200 373h90M200 374h90M200 375h13M214 375h76M200 376h90M200 377h3M204 377h86M200 378h90M200 379h90M200 380h20M270 380h20M200 381h4M205 381h15M270 381h20M200 382h20M270 382h20M200 383h20M270 383h20M200 384h20M270 384h20M200 385h20M270 385h20M200 386h20M270 386h20M200 387h20M270 387h20M200 388h20M270 388h20M200 389h20M270 389h20M210 390h70M210 391h70M210 392h70M210 393h70M210 394h70M210 395h70M210 396h70M210 397h70M210 398h70M210 399h70M210 400h20M260 400h20M210 401h20M260 401h20M210 402h20M260 402h20M210 403h20M260 403h20M210 404h20M260 404h20M210 405h20M260 405h20M210 406h20M260 406h20M210 407h20M260 407h20M210 408h20M260 408h20M210 409h20M260 409h20" />
<path stroke="#33ff67" d="M290 198h1M173 248h1M338 327h1" />
<path stroke="#b51c30" d="M243 205h1M225 216h1M249 349h1M213 375h1M204 381h1" />
<path stroke="#000001" d="M203 208h1M287 257h1M218 276h1M278 308h1M218 324h1M191 424h1" />
<path stroke="#b41d30" d="M265 214h1M286 294h1M301 327h1M304 334h1M283 372h1" />
<path stroke="#fe5733" d="M378 228h1M372 245h1M366 369h1M420 422h1M423 424h1" />
<path stroke="#38396e" d="M210 230h30M250 230h30M210 231h30M250 231h30M210 232h30M250 232h30M210 233h30M250 233h30M210 234h30M250 234h1M252 234h28M210 235h30M250 235h30M210 236h30M250 236h30M210 237h30M250 237h30M210 238h30M250 238h30M210 239h30M250 239h30M210 240h20M260 240h20M210 241h20M260 241h20M210 242h20M260 242h20M210 243h20M260 243h20M210 244h20M260 244h20M210 245h20M260 245h20M210 246h20M260 246h20M210 247h20M260 247h20M210 248h20M260 248h20M210 249h20M260 249h20M140 410h30M180 410h10M300 410h10M320 410h30M140 411h30M180 411h10M300 411h10M320 411h30M140 412h30M180 412h10M300 412h10M320 412h30M140 413h30M180 413h10M300 413h2M303 413h7M320 413h30M140 414h30M180 414h10M300 414h10M320 414h30M140 415h30M180 415h10M300 415h10M320 415h30M140 416h30M180 416h1M182 416h8M300 416h10M320 416h30M140 417h30M180 417h10M300 417h10M320 417h30M140 418h30M180 418h10M300 418h10M320 418h30M140 419h30M180 419h10M300 419h10M320 419h30M120 420h40M170 420h20M300 420h20M330 420h40M120 421h40M170 421h20M300 421h20M330 421h40M120 422h40M170 422h20M300 422h20M330 422h40M120 423h40M170 423h20M300 423h20M330 423h40M120 424h40M170 424h20M300 424h20M330 424h40M120 425h40M170 425h20M300 425h20M330 425h40M120 426h32M153 426h7M170 426h20M300 426h20M330 426h40M120 427h40M170 427h20M300 427h20M330 427h40M120 428h40M170 428h20M300 428h20M330 428h40M120 429h40M170 429h20M300 429h20M330 429h40M120 430h30M160 430h30M300 430h30M340 430h30M120 431h30M160 431h30M300 431h30M340 431h30M120 432h30M160 432h30M300 432h30M340 432h30M120 433h30M160 433h30M300 433h30M340 433h30M120 434h30M160 434h30M300 434h30M340 434h30M120 435h30M160 435h30M300 435h30M340 435h30M120 436h30M160 436h30M300 436h30M340 436h30M120 437h30M160 437h30M300 437h30M340 437h30M120 438h30M160 438h30M300 438h30M340 438h30M120 439h30M160 439h30M300 439h30M340 439h30M120 440h40M170 440h20M300 440h20M330 440h40M120 441h40M170 441h20M300 441h20M330 441h40M120 442h40M170 442h20M300 442h20M330 442h40M120 443h40M170 443h20M300 443h20M330 443h40M120 444h40M170 444h20M300 444h20M330 444h40M120 445h40M170 445h20M300 445h20M330 445h40M120 446h40M170 446h20M300 446h20M330 446h40M120 447h40M170 447h20M300 447h20M330 447h40M120 448h40M170 448h20M300 448h20M330 448h40M120 449h40M170 449h20M300 449h20M330 449h40" />
<path stroke="#38396f" d="M251 234h1M302 413h1M152 426h1" />
<path stroke="#32ff66" d="M312 241h1M330 283h1M327 293h1M330 333h1M153 367h1M330 384h1" />
<path stroke="#c724b1" d="M80 270h10M80 271h10M80 272h10M80 273h10M80 274h10M80 275h10M80 276h10M80 277h10M80 278h10M80 279h10M80 280h10M80 281h10M80 282h10M80 283h10M80 284h10M80 285h10M80 286h10M80 287h10M80 288h10M80 289h10M70 290h30M70 291h30M70 292h30M70 293h30M70 294h30M70 295h30M70 296h30M70 297h30M70 298h30M70 299h30M70 300h7M78 300h22M70 301h30M70 302h30M70 303h30M70 304h30M70 305h30M70 306h30M70 307h30M70 308h30M70 309h30M40 310h90M40 311h90M40 312h90M40 313h90M40 314h90M40 315h90M40 316h90M40 317h36M77 317h53M40 318h90M40 319h90M50 320h70M50 321h70M50 322h70M50 323h11M62 323h58M50 324h70M50 325h70M50 326h70M50 327h70M50 328h70M50 329h70M70 330h30M70 331h30M70 332h30M70 333h30M70 334h30M70 335h30M70 336h30M70 337h30M70 338h30M70 339h30M60 340h50M60 341h50M60 342h50M60 343h50M60 344h50M60 345h50M60 346h50M60 347h25M86 347h24M60 348h50M60 349h2M63 349h47M60 350h20M90 350h20M60 351h20M90 351h20M60 352h20M90 352h20M60 353h20M90 353h20M60 354h20M90 354h20M60 355h20M90 355h20M60 356h20M90 356h20M60 357h20M90 357h20M60 358h20M90 358h20M60 359h20M90 359h20M50 360h20M100 360h20M50 361h20M100 361h20M50 362h20M100 362h20M50 363h20M100 363h20M50 364h20M100 364h20M50 365h20M100 365h4M105 365h15M50 366h20M100 366h20M50 367h20M100 367h20M50 368h20M100 368h20M50 369h20M100 369h20M50 370h10M110 370h10M50 371h10M110 371h10M50 372h10M110 372h10M50 373h10M110 373h10M50 374h10M110 374h10M50 375h10M110 375h10M50 376h10M110 376h10M50 377h10M110 377h10M50 378h10M110 378h10M50 379h10M110 379h10" />
<path stroke="#c2c5c6" d="M210 280h20M260 280h20M210 281h20M260 281h20M210 282h20M260 282h20M210 283h20M260 283h20M210 284h20M260 284h20M210 285h20M260 285h20M210 286h20M260 286h20M210 287h20M260 287h20M210 288h20M260 288h20M210 289h20M260 289h20M180 290h20M220 290h20M250 290h20M290 290h20M180 291h20M220 291h20M250 291h20M290 291h20M180 292h20M220 292h20M250 292h20M290 292h20M180 293h20M220 293h20M250 293h20M290 293h20M180 294h20M220 294h20M250 294h20M290 294h20M180 295h20M220 295h20M250 295h20M290 295h20M180 296h20M220 296h20M250 296h20M290 296h20M180 297h20M220 297h20M250 297h20M290 297h20M180 298h20M220 298h20M250 298h20M290 298h20M180 299h20M220 299h20M250 299h20M290 299h20M180 300h10M300 300h10M180 301h10M300 301h10M180 302h10M300 302h10M180 303h10M300 303h10M180 304h10M300 304h10M180 305h10M300 305h10M180 306h10M300 306h10M180 307h10M300 307h10M180 308h10M300 308h10M180 309h10M300 309h10M170 310h20M300 310h20M170 311h20M300 311h20M170 312h20M300 312h20M170 313h20M300 313h20M170 314h20M300 314h20M170 315h20M300 315h20M170 316h20M300 316h20M170 317h20M300 317h20M170 318h20M300 318h20M170 319h20M300 319h20M170 320h10M310 320h10M170 321h10M310 321h10M170 322h10M311 322h9M170 323h3M174 323h6M310 323h10M170 324h10M310 324h10M170 325h10M310 325h10M170 326h10M310 326h10M170 327h10M310 327h10M170 328h10M310 328h10M170 329h10M310 329h10M170 330h10M310 330h10M170 331h10M310 331h10M170 332h10M310 332h10M170 333h10M310 333h10M170 334h10M310 334h10M170 335h10M310 335h10M170 336h10M310 336h10M170 337h10M310 337h10M170 338h10M310 338h10M170 339h10M310 339h10M170 340h10M310 340h10M170 341h10M310 341h10M170 342h10M310 342h10M170 343h10M310 343h10M170 344h10M310 344h10M170 345h10M310 345h10M170 346h10M310 346h10M170 347h10M310 347h10M170 348h10M310 348h10M170 349h10M310 349h10M170 350h20M300 350h20M170 351h20M300 351h20M170 352h20M300 352h20M170 353h20M300 353h20M170 354h20M300 354h20M170 355h20M300 355h20M170 356h20M300 356h20M170 357h20M300 357h20M170 358h20M300 358h20M170 359h20M300 359h20M170 360h20M300 360h20M170 361h20M300 361h20M170 362h20M300 362h20M170 363h20M300 363h20M170 364h20M300 364h20M170 365h20M300 365h20M170 366h20M300 366h13M314 366h6M170 367h20M300 367h20M170 368h20M300 368h20M170 369h20M300 369h20M170 370h20M300 370h20M170 371h20M300 371h20M170 372h20M300 372h5M306 372h14M170 373h20M300 373h20M170 374h20M300 374h20M170 375h20M300 375h20M170 376h20M300 376h20M170 377h20M300 377h20M170 378h20M300 378h20M170 379h20M300 379h20M170 380h20M300 380h20M170 381h20M300 381h20M170 382h20M300 382h20M170 383h20M300 383h20M170 384h20M300 384h20M170 385h20M300 385h20M170 386h20M300 386h20M170 387h20M300 387h20M170 388h20M300 388h20M170 389h20M300 389h20M170 390h30M290 390h30M170 391h30M290 391h30M170 392h30M290 392h30M170 393h30M290 393h30M170 394h30M290 394h30M170 395h30M290 395h30M170 396h30M290 396h30M170 397h30M290 397h30M170 398h30M290 398h30M170 399h30M290 399h30M230 400h30M230 401h30M230 402h30M230 403h30M230 404h30M230 405h30M230 406h30M230 407h30M230 408h30M230 409h30M220 410h50M220 411h50M220 412h50M220 413h50M220 414h50M220 415h50M220 416h50M220 417h50M220 418h50M220 419h7M228 419h13M242 419h28M230 420h30M230 421h30M230 422h30M230 423h30M230 424h30M230 425h30M230 426h30M230 427h30M230 428h30M230 429h30M240 430h10M240 431h10M240 432h10M240 433h10M240 434h10M240 435h10M240 436h10M240 437h10M240 438h10M240 439h10" />
<path stroke="#c724b0" d="M77 300h1M62 349h1M104 365h1" />
<path stroke="#00ffff" d="M200 300h10M260 300h10M200 301h10M260 301h10M200 302h10M260 302h9M200 303h10M260 303h10M200 304h6M207 304h3M260 304h10M200 305h10M260 305h10M200 306h10M260 306h10M200 307h10M260 307h10M200 308h10M260 308h10M200 309h10M260 309h10M210 310h10M270 310h10M210 311h10M270 311h10M210 312h10M270 312h10M210 313h10M270 313h10M210 314h10M270 314h10M210 315h10M270 315h10M210 316h10M270 316h10M210 317h10M270 317h10M210 318h10M270 318h10M210 319h10M270 319h10M220 320h10M280 320h10M220 321h10M280 321h10M220 322h10M280 322h10M220 323h10M280 323h10M220 324h10M280 324h10M220 325h10M280 325h10M220 326h10M280 326h10M220 327h10M280 327h10M220 328h10M280 328h10M220 329h10M280 329h10" />
<path stroke="#00fffe" d="M269 302h1M206 304h1" />
<path stroke="#c725b1" d="M76 317h1M61 323h1M85 347h1" />
<path stroke="#c2c4c6" d="M310 322h1M313 366h1M241 419h1" />
<path stroke="#c2c5c7" d="M173 323h1M305 372h1M227 419h1" />
<path stroke="#ff5633" d="M367 341h1M361 365h1M439 410h1M427 422h1" />
<path stroke="#b41c31" d="M281 355h1M203 377h1" />
<path stroke="#38386e" d="M181 416h1" />
</svg>