<svg xmlns="http://www.w3.org/2000/svg" viewBox="0 -0.5 480 480" shape-rendering="crispEdges">
<metadata>Made with Pixels to Svg https://codepen.io/shshaw/pen/XbxvNj</metadata>
<path stroke="#5b6ee1" d="M0 0h6M7 0h473M0 1h147M148 1h332M0 2h57M58 2h422M0 3h480M0 4h480M0 5h480M0 6h203M204 6h44M249 6h231M0 7h480M0 8h29M30 8h215M246 8h67M314 8h166M0 9h480M0 10h282M283 10h197M0 11h480M0 12h480M0 13h20M21 13h459M0 14h480M0 15h480M0 16h480M0 17h480M0 18h202M203 18h277M0 19h480M0 20h255M256 20h190M447 20h33M0 21h474M475 21h5M0 22h295M296 22h184M0 23h480M0 24h167M168 24h62M231 24h249M0 25h335M336 25h144M0 26h33M34 26h7M42 26h438M0 27h480M0 28h480M0 29h452M453 29h27M0 30h480M0 31h480M0 32h480M0 33h480M0 34h480M0 35h480M0 36h259M260 36h220M0 37h480M0 38h386M387 38h61M449 38h31M0 39h480M0 40h374M375 40h105M0 41h31M32 41h448M0 42h457M458 42h22M0 43h324M325 43h155M0 44h480M0 45h480M0 46h120M121 46h315M437 46h43M0 47h480M0 48h335M336 48h144M0 49h480M0 50h480M0 51h191M192 51h288M0 52h480M0 53h480M0 54h480M0 55h194M195 55h285M0 56h480M0 57h22M23 57h114M138 57h342M0 58h480M0 59h424M425 59h55M0 60h480M0 61h54M55 61h425M0 62h480M0 63h480M0 64h480M0 65h480M0 66h480M0 67h51M52 67h428M0 68h480M0 69h480M0 70h480M0 71h480M0 72h480M0 73h480M0 74h480M0 75h480M0 76h480M0 77h226M227 77h190M418 77h62M0 78h480M0 79h116M117 79h363M0 80h480M0 81h480M0 82h480M0 83h258M259 83h221M0 84h480M0 85h480M0 86h480M0 87h480M0 88h480M0 89h480M0 90h222M223 90h229M453 90h27M0 91h459M460 91h20M0 92h240M241 92h153M395 92h85M0 93h480M0 94h57M58 94h422M0 95h480M0 96h480M0 97h191M192 97h288M0 98h360M361 98h119M0 99h480M0 100h217M218 100h262M0 101h52M53 101h427M0 102h382M383 102h97M0 103h480M0 104h480M0 105h480M0 106h480M0 107h256M257 107h223M0 108h480M0 109h136M137 109h343M0 110h312M313 110h167M0 111h362M363 111h117M0 112h184M185 112h295M0 113h480M0 114h480M0 115h161M162 115h318M0 116h480M0 117h480M0 118h480M0 119h480M0 120h367M368 120h112M0 121h480M0 122h384M385 122h95M0 123h480M0 124h480M0 125h480M0 126h480M0 127h125M126 127h354M0 128h480M0 129h480M0 130h480M0 131h114M115 131h365M0 132h480M1 133h479M0 134h103M104 134h96M201 134h279M0 135h480M0 136h300M301 136h179M0 137h145M146 137h334M0 138h50M51 138h429M0 139h346M347 139h133M0 140h480M0 141h480M0 142h467M468 142h12M0 143h480M0 144h122M123 144h357M0 145h285M286 145h194M0 146h79M80 146h400M0 147h480M0 148h480M0 149h480M0 150h91M92 150h388M0 151h480M0 152h480M0 153h480M0 154h480M0 155h480M0 156h480M0 157h480M0 158h17M18 158h462M0 159h244M245 159h235M0 160h480M0 161h480M0 162h480M0 163h480M0 164h480M0 165h480M0 166h286M287 166h107M395 166h65M461 166h19M0 167h480M0 168h480M0 169h480M0 170h72M73 170h407M0 171h480M0 172h480M0 173h480M0 174h337M338 174h142M0 175h480M0 176h480M0 177h4M5 177h312M318 177h34M353 177h127M0 178h24M25 178h160M186 178h294M0 179h2M3 179h477M0 180h480M0 181h322M323 181h102M426 181h54M0 182h480M0 183h89M90 183h390M0 184h480M0 185h1M2 185h478M0 186h480M0 187h361M362 187h118M0 188h480M0 189h480M0 190h92M93 190h186M280 190h200M0 191h480M0 192h453M454 192h26M0 193h480M0 194h480M0 195h230M231 195h249M0 196h480M0 197h480M0 198h344M345 198h135M0 199h325M326 199h154M0 200h480M0 201h153M154 201h326M0 202h104M105 202h375M0 203h480M0 204h480M0 205h480M0 206h480M0 207h480M0 208h480M0 209h480M0 210h35M36 210h444M0 211h291M292 211h188M0 212h480M0 213h480M0 214h236M237 214h243M0 215h51M52 215h428M0 216h480M0 217h480M0 218h480M0 219h480M0 220h480M0 221h480M0 222h480M0 223h480M0 224h480M0 225h480M0 226h480M0 227h480M0 228h16M17 228h463M0 229h480M0 230h480M0 231h480M0 232h480M0 233h480M0 234h480M0 235h480M0 236h480M0 237h430M431 237h49M0 238h480M0 239h480M0 240h3M4 240h476M0 241h28M29 241h451M0 242h480M0 243h124M125 243h231M357 243h123M0 244h156M157 244h323M0 245h288M289 245h191M0 246h480M0 247h480M0 248h480M0 249h480M0 250h127M128 250h352M0 251h147M148 251h190M339 251h141M0 252h480M0 253h480M0 254h480M0 255h480M0 256h480M1 257h65M67 257h413M0 258h480M0 259h224M225 259h255M0 260h187M188 260h292M0 261h455M456 261h24M0 262h210M211 262h7M219 262h261M0 263h282M283 263h197M0 264h480M0 265h480M0 266h1M2 266h478M0 267h480M0 268h480M0 269h480M0 270h480M0 271h480M0 272h480M0 273h120M121 273h359M0 274h455M456 274h24M0 275h480M0 276h480M0 277h480M0 278h480M0 279h170M171 279h309M0 280h414M415 280h65M0 281h357M358 281h122M0 282h158M159 282h321M0 283h480M0 284h149M150 284h330M0 285h454M455 285h25M0 286h480M0 287h480M0 288h480M0 289h180M181 289h299M0 290h480M0 291h480M0 292h165M166 292h314M0 293h480M0 294h308M309 294h171M0 295h480M0 296h205M206 296h274M0 297h480M0 298h480M0 299h95M96 299h195M292 299h14M307 299h173M0 300h480M0 301h84M85 301h395M0 302h480M0 303h480M0 304h480M0 305h480M0 306h480M0 307h100M101 307h379M0 308h480M0 309h136M137 309h343M0 310h480M0 311h480M0 312h480M0 313h480M0 314h480M0 315h226M227 315h253M0 316h392M393 316h87M0 317h480M0 318h106M107 318h373M0 319h480M0 320h480M0 321h480M0 322h480M0 323h480M0 324h480M0 325h480M0 326h84M85 326h395M0 327h480M0 328h480M0 329h480M0 330h480M0 331h480M0 332h480M0 333h178M179 333h261M441 333h39M0 334h480M0 335h125M126 335h354M0 336h43M44 336h436M0 337h355M356 337h124M0 338h480M0 339h480M0 340h144M145 340h335M0 341h480M0 342h286M287 342h18M306 342h174M0 343h452M453 343h27M0 344h337M338 344h142M0 345h480M0 346h480M0 347h480M0 348h480M0 349h480M0 350h480M0 351h480M0 352h162M163 352h317M0 353h480M0 354h480M0 355h480M0 356h441M442 356h38M0 357h480M0 358h480M0 359h238M239 359h241M0 360h142M143 360h11M155 360h325M0 361h480M0 362h474M475 362h5M0 363h480M0 364h480M0 365h480M0 366h231M232 366h248M0 367h398M399 367h81M0 368h480M0 369h480M0 370h480M0 371h480M0 372h480M0 373h61M62 373h418M0 374h480M0 375h480M0 376h480M0 377h480M0 378h480M0 379h480M0 380h480M0 381h182M183 381h297M0 382h480M0 383h465M466 383h14M0 384h480M0 385h480M0 386h480M0 387h480M0 388h480M0 389h480M0 390h480M0 391h199M200 391h280M0 392h480M0 393h480M0 394h480M0 395h1M2 395h469M472 395h8M0 396h480M0 397h209M210 397h270M0 398h480M0 399h480M0 400h480M0 401h97M98 401h382M0 402h117M118 402h79M198 402h282M0 403h480M0 404h208M209 404h271M0 405h480M0 406h480M0 407h480M0 408h480M0 409h480M0 410h480M0 411h480M0 412h480M0 413h480M0 414h260M261 414h219M0 415h480M0 416h164M165 416h193M359 416h121M0 417h480M0 418h480M0 419h480M0 420h71M72 420h408M0 421h480M0 422h271M272 422h208M0 423h480M0 424h480M0 425h153M154 425h326M0 426h480M0 427h480M0 428h480M0 429h180M181 429h299M0 430h103M104 430h227M332 430h148M0 431h480M0 432h64M65 432h415M0 433h358M359 433h121M0 434h112M113 434h367M0 435h50M51 435h288M340 435h140M0 436h480M0 437h475M476 437h4M0 438h480M0 439h480M0 440h480M0 441h480M0 442h480M0 443h480M0 444h370M371 444h109M0 445h46M47 445h433M0 446h480M0 447h309M310 447h170M0 448h480M0 449h256M257 449h223M0 450h480M0 451h480M0 452h480M0 453h480M0 454h255M256 454h224M0 455h480M0 456h32M33 456h17M51 456h429M0 457h408M409 457h71M0 458h480M0 459h480M0 460h480M0 461h456M457 461h23M0 462h359M360 462h120M0 463h264M265 463h215M0 464h192M193 464h287M0 465h480M0 466h480M0 467h127M128 467h352M0 468h480M0 469h480M0 470h468M469 470h11M0 471h480M0 472h403M404 472h76M0 473h48M49 473h254M304 473h176M0 474h480M0 475h480M0 476h391M392 476h88M0 477h480M0 478h195M196 478h284M0 479h480" />
<path stroke="#5a6ee1" d="M6 0h1M147 1h1M57 2h1M282 10h1M255 20h1M474 21h1M33 26h1M324 43h1M120 46h1M54 61h1M51 67h1M417 77h1M258 83h1M222 90h1M459 91h1M240 92h1M57 94h1M360 98h1M312 110h1M384 122h1M114 131h1M0 133h1M300 136h1M285 145h1M72 170h1M24 178h1M279 190h1M453 192h1M153 201h1M291 211h1M51 215h1M3 240h1M156 244h1M288 245h1M147 251h1M0 257h1M66 257h1M210 262h1M282 263h1M120 273h1M414 280h1M357 281h1M180 289h1M165 292h1M291 299h1M306 299h1M84 301h1M84 326h1M144 340h1M162 352h1M441 356h1M474 362h1M231 366h1M465 383h1M471 395h1M117 402h1M153 425h1M180 429h1M339 435h1M309 447h1M255 454h1M408 457h1M456 461h1M264 463h1M192 464h1M468 470h1M48 473h1M303 473h1M195 478h1" />
<path stroke="#5b6ee0" d="M203 6h1M248 6h1M29 8h1M245 8h1M20 13h1M446 20h1M167 24h1M230 24h1M335 25h1M41 26h1M452 29h1M386 38h1M374 40h1M335 48h1M191 51h1M194 55h1M137 57h1M116 79h1M452 90h1M191 97h1M362 111h1M161 115h1M125 127h1M200 134h1M50 138h1M467 142h1M122 144h1M17 158h1M317 177h1M185 178h1M2 179h1M425 181h1M89 183h1M92 190h1M230 195h1M344 198h1M104 202h1M35 210h1M236 214h1M356 243h1M338 251h1M224 259h1M455 261h1M218 262h1M455 274h1M170 279h1M158 282h1M149 284h1M308 294h1M95 299h1M392 316h1M440 333h1M125 335h1M305 342h1M452 343h1M398 367h1M182 381h1M209 397h1M197 402h1M260 414h1M164 416h1M71 420h1M50 435h1M32 456h1M50 456h1M359 462h1" />
<path stroke="#5b6fe1" d="M313 8h1M202 18h1M295 22h1M259 36h1M448 38h1M31 41h1M457 42h1M436 46h1M22 57h1M424 59h1M226 77h1M394 92h1M217 100h1M52 101h1M382 102h1M256 107h1M136 109h1M184 112h1M367 120h1M103 134h1M145 137h1M346 139h1M79 146h1M91 150h1M244 159h1M286 166h1M394 166h1M460 166h1M337 174h1M4 177h1M352 177h1M322 181h1M1 185h1M361 187h1M325 199h1M16 228h1M430 237h1M28 241h1M124 243h1M127 250h1M187 260h1M1 266h1M454 285h1M205 296h1M100 307h1M136 309h1M226 315h1M106 318h1M178 333h1M43 336h1M355 337h1M286 342h1M337 344h1M238 359h1M142 360h1M154 360h1M61 373h1M199 391h1M1 395h1M97 401h1M208 404h1M358 416h1M271 422h1M103 430h1M331 430h1M64 432h1M358 433h1M112 434h1M475 437h1M370 444h1M46 445h1M256 449h1M127 467h1M403 472h1M391 476h1" />
</svg>