<svg xmlns="http://www.w3.org/2000/svg" viewBox="0 -0.5 480 480" shape-rendering="crispEdges">
<metadata>Made with Pixels to Svg https://codepen.io/shshaw/pen/XbxvNj</metadata>
<path stroke="#ff7f50" d="M0 0h231M232 0h230M463 0h17M0 1h480M0 2h395M396 2h84M0 3h480M0 4h480M0 5h480M0 6h443M444 6h36M0 7h480M0 8h445M446 8h34M0 9h480M0 10h480M0 11h480M0 12h480M0 13h272M273 13h134M408 13h72M0 14h480M0 15h480M0 16h315M316 16h164M0 17h480M0 18h79M80 18h148M229 18h251M0 19h323M324 19h156M0 20h480M0 21h272M273 21h207M0 22h480M0 23h169M170 23h186M357 23h123M0 24h480M0 25h480M0 26h58M59 26h41M101 26h202M304 26h176M0 27h64M65 27h205M271 27h209M0 28h480M0 29h480M0 30h480M0 31h480M0 32h373M374 32h106M0 33h151M152 33h325M478 33h2M0 34h480M0 35h480M0 36h457M458 36h22M0 37h480M0 38h480M0 39h166M167 39h105M273 39h73M347 39h133M0 40h480M0 41h480M0 42h480M0 43h64M65 43h415M0 44h480M0 45h65M66 45h414M0 46h480M0 47h480M0 48h281M282 48h198M0 49h480M0 50h480M0 51h455M456 51h24M0 52h480M0 53h480M0 54h129M130 54h92M223 54h257M0 55h480M0 56h138M139 56h341M0 57h480M0 58h77M78 58h402M0 59h268M269 59h211M0 60h273M274 60h206M0 61h480M0 62h480M0 63h402M403 63h77M0 64h99M100 64h380M0 65h277M278 65h202M0 66h377M378 66h102M0 67h480M0 68h480M0 69h376M377 69h103M0 70h480M0 71h480M0 72h318M319 72h4M324 72h156M0 73h480M0 74h480M0 75h480M0 76h373M374 76h106M0 77h480M0 78h480M0 79h64M65 79h139M205 79h161M367 79h113M0 80h480M0 81h480M0 82h480M0 83h480M0 84h480M0 85h480M0 86h128M129 86h351M0 87h480M0 88h235M236 88h80M317 88h163M0 89h244M245 89h235M0 90h63M64 90h416M0 91h480M0 92h480M0 93h346M347 93h133M0 94h464M465 94h15M0 95h480M0 96h480M0 97h480M0 98h480M0 99h480M0 100h480M0 101h219M220 101h22M243 101h237M0 102h480M0 103h480M0 104h372M373 104h107M0 105h201M202 105h278M0 106h255M256 106h224M0 107h480M0 108h480M0 109h351M352 109h128M0 110h480M0 111h367M368 111h112M0 112h258M259 112h221M0 113h480M0 114h480M0 115h480M0 116h480M0 117h480M0 118h480M0 119h349M350 119h130M0 120h480M0 121h480M0 122h480M0 123h480M0 124h480M0 125h188M189 125h53M243 125h79M323 125h157M0 126h315M316 126h164M0 127h477M478 127h2M0 128h198M199 128h281M0 129h428M429 129h51M0 130h480M0 131h480M0 132h480M0 133h126M127 133h353M0 134h127M128 134h352M0 135h133M134 135h346M0 136h61M62 136h418M0 137h106M107 137h373M0 138h480M0 139h272M273 139h178M452 139h28M0 140h480M0 141h480M0 142h298M299 142h181M0 143h480M0 144h152M153 144h327M0 145h255M256 145h224M0 146h22M23 146h457M0 147h163M164 147h316M0 148h480M0 149h480M0 150h480M0 151h284M285 151h195M0 152h480M0 153h480M0 154h480M0 155h480M0 156h480M0 157h44M45 157h435M0 158h480M0 159h480M0 160h480M0 161h480M0 162h480M0 163h299M300 163h141M442 163h38M0 164h465M466 164h14M0 165h480M0 166h480M0 167h9M10 167h470M0 168h7M8 168h306M315 168h165M0 169h480M0 170h480M0 171h480M0 172h480M0 173h392M393 173h87M0 174h480M0 175h480M0 176h471M472 176h8M0 177h153M154 177h326M0 178h480M0 179h9M10 179h470M0 180h480M0 181h480M0 182h480M0 183h480M0 184h480M0 185h480M0 186h201M202 186h185M388 186h92M0 187h277M278 187h202M0 188h480M0 189h449M450 189h30M0 190h355M356 190h124M0 191h480M0 192h30M31 192h449M0 193h285M286 193h194M0 194h480M0 195h40M41 195h439M0 196h250M251 196h229M0 197h480M0 198h3M4 198h476M0 199h156M157 199h323M0 200h400M401 200h79M0 201h480M0 202h480M0 203h435M436 203h44M0 204h480M0 205h480M0 206h188M189 206h291M0 207h480M0 208h480M0 209h128M129 209h6M136 209h95M232 209h32M265 209h56M322 209h158M0 210h291M292 210h188M0 211h480M0 212h480M0 213h30M31 213h449M0 214h253M254 214h226M0 215h480M0 216h270M271 216h209M0 217h332M333 217h147M0 218h146M147 218h40M188 218h292M0 219h480M0 220h480M0 221h480M0 222h480M0 223h254M255 223h225M0 224h480M0 225h201M202 225h190M393 225h87M0 226h480M0 227h480M0 228h480M0 229h480M0 230h480M0 231h480M0 232h7M8 232h259M268 232h109M378 232h102M0 233h162M163 233h150M314 233h166M0 234h266M267 234h213M0 235h5M6 235h474M0 236h480M0 237h234M235 237h227M463 237h17M0 238h112M113 238h367M0 239h480M0 240h115M116 240h364M0 241h480M0 242h213M214 242h266M0 243h188M189 243h291M0 244h480M0 245h308M309 245h171M0 246h480M0 247h480M0 248h480M0 249h39M40 249h148M189 249h291M0 250h113M114 250h262M377 250h103M0 251h480M0 252h170M171 252h309M0 253h480M0 254h480M0 255h480M0 256h480M0 257h480M0 258h480M0 259h480M0 260h480M0 261h480M0 262h301M302 262h178M0 263h480M0 264h480M0 265h154M155 265h325M0 266h480M0 267h111M112 267h339M452 267h28M1 268h479M0 269h480M0 270h136M137 270h86M224 270h256M0 271h480M0 272h84M85 272h395M0 273h480M0 274h480M0 275h480M0 276h480M0 277h480M0 278h480M0 279h480M0 280h480M0 281h480M0 282h39M40 282h440M0 283h480M0 284h480M0 285h18M19 285h12M32 285h448M0 286h480M0 287h480M0 288h305M306 288h174M0 289h301M302 289h178M0 290h480M0 291h480M0 292h346M347 292h133M0 293h480M0 294h326M327 294h88M416 294h64M0 295h480M0 296h480M0 297h480M0 298h53M54 298h426M0 299h341M342 299h138M0 300h161M162 300h318M0 301h480M0 302h480M0 303h24M25 303h64M90 303h390M0 304h480M0 305h480M0 306h480M0 307h63M64 307h416M0 308h480M0 309h480M0 310h480M0 311h480M0 312h76M77 312h403M0 313h480M0 314h88M89 314h214M304 314h176M0 315h120M121 315h359M0 316h480M0 317h145M146 317h334M0 318h480M0 319h480M0 320h143M144 320h336M0 321h178M179 321h301M0 322h480M0 323h161M162 323h39M202 323h278M0 324h480M0 325h480M0 326h5M6 326h474M0 327h119M120 327h360M0 328h480M0 329h480M0 330h480M0 331h318M319 331h50M370 331h110M0 332h480M0 333h480M0 334h480M0 335h480M0 336h480M0 337h260M261 337h219M0 338h480M0 339h480M0 340h200M201 340h279M0 341h480M0 342h480M0 343h298M299 343h181M0 344h307M308 344h172M0 345h480M0 346h480M0 347h480M0 348h135M136 348h18M155 348h139M295 348h185M0 349h285M286 349h194M0 350h480M0 351h280M281 351h199M0 352h340M341 352h95M437 352h43M0 353h462M463 353h17M0 354h480M0 355h389M390 355h90M0 356h396M397 356h83M0 357h480M0 358h92M93 358h378M472 358h8M0 359h480M0 360h21M22 360h458M0 361h480M0 362h480M0 363h379M380 363h100M0 364h480M0 365h56M57 365h423M0 366h427M428 366h52M0 367h480M0 368h66M67 368h223M291 368h189M0 369h480M0 370h480M0 371h480M0 372h480M0 373h403M404 373h76M0 374h480M0 375h480M0 376h83M84 376h396M0 377h480M0 378h480M0 379h480M0 380h148M149 380h331M0 381h230M231 381h249M0 382h255M256 382h224M0 383h480M0 384h480M0 385h480M0 386h480M0 387h480M0 388h480M0 389h480M0 390h80M81 390h287M369 390h111M0 391h252M253 391h227M0 392h289M290 392h91M382 392h98M0 393h271M272 393h208M0 394h480M0 395h480M0 396h480M0 397h480M0 398h312M313 398h167M0 399h480M0 400h480M0 401h320M321 401h19M341 401h139M0 402h480M0 403h480M0 404h30M31 404h449M0 405h399M400 405h24M425 405h55M0 406h480M0 407h480M0 408h73M74 408h406M0 409h480M0 410h480M0 411h480M0 412h480M0 413h480M0 414h67M68 414h412M0 415h480M0 416h480M0 417h480M0 418h257M258 418h12M271 418h209M0 419h49M50 419h185M236 419h244M0 420h480M0 421h480M0 422h480M0 423h480M0 424h421M422 424h58M0 425h480M0 426h113M114 426h366M0 427h295M296 427h184M0 428h480M0 429h480M0 430h381M382 430h98M0 431h2M3 431h477M0 432h480M0 433h480M0 434h436M437 434h43M0 435h184M185 435h295M0 436h144M145 436h335M0 437h480M0 438h37M38 438h442M0 439h480M0 440h35M36 440h444M0 441h480M0 442h15M16 442h464M0 443h480M0 444h480M0 445h480M0 446h30M31 446h449M0 447h480M0 448h31M32 448h448M0 449h480M0 450h26M27 450h453M0 451h480M0 452h79M80 452h400M0 453h56M57 453h423M0 454h480M0 455h480M0 456h480M0 457h480M0 458h146M147 458h333M0 459h480M0 460h480M0 461h7M8 461h265M274 461h206M0 462h480M0 463h15M16 463h464M0 464h15M16 464h464M0 465h54M55 465h425M0 466h315M316 466h164M0 467h480M0 468h480M0 469h262M263 469h217M0 470h376M377 470h103M0 471h247M248 471h232M0 472h480M0 473h73M74 473h187M262 473h209M472 473h8M0 474h365M366 474h114M0 475h188M190 475h290M0 476h480M0 477h480M0 478h480M0 479h480" />
<path stroke="#fe7f50" d="M231 0h1M462 0h1M315 16h1M228 18h1M303 26h1M270 27h1M477 33h1M129 54h1M222 54h1M138 56h1M273 60h1M402 63h1M99 64h1M318 72h1M204 79h1M366 79h1M63 90h1M219 101h1M372 104h1M201 105h1M255 106h1M351 109h1M258 112h1M315 126h1M477 127h1M198 128h1M126 133h1M255 145h1M441 163h1M465 164h1M9 167h1M471 176h1M153 177h1M9 179h1M201 186h1M387 186h1M30 192h1M285 193h1M3 198h1M156 199h1M435 203h1M135 209h1M231 209h1M264 209h1M321 209h1M291 210h1M30 213h1M270 216h1M201 225h1M267 232h1M162 233h1M234 237h1M462 237h1M213 242h1M39 249h1M111 267h1M0 268h1M84 272h1M39 282h1M18 285h1M24 303h1M63 307h1M303 314h1M120 315h1M201 323h1M318 331h1M369 331h1M135 348h1M294 348h1M285 349h1M462 353h1M396 356h1M471 358h1M21 360h1M66 368h1M255 382h1M252 391h1M381 392h1M312 398h1M30 404h1M399 405h1M270 418h1M381 430h1M144 436h1M15 442h1M30 446h1M273 461h1M15 463h1M15 464h1M54 465h1M315 466h1M261 473h1M471 473h1M189 475h1" />
<path stroke="#ff7f51" d="M395 2h1M443 6h1M272 13h1M407 13h1M323 19h1M272 21h1M356 23h1M272 39h1M65 45h1M281 48h1M455 51h1M77 58h1M377 66h1M323 72h1M128 86h1M464 94h1M242 101h1M188 125h1M242 125h1M428 129h1M272 139h1M152 144h1M284 151h1M44 157h1M299 163h1M314 168h1M392 173h1M449 189h1M188 206h1M128 209h1M332 217h1M146 218h1M254 223h1M392 225h1M377 232h1M266 234h1M5 235h1M188 243h1M308 245h1M188 249h1M113 250h1M170 252h1M305 288h1M326 294h1M53 298h1M341 299h1M161 300h1M89 303h1M143 320h1M161 323h1M5 326h1M119 327h1M260 337h1M200 340h1M389 355h1M92 358h1M56 365h1M290 368h1M83 376h1M230 381h1M80 390h1M368 390h1M320 401h1M257 418h1M113 426h1M2 431h1M35 440h1M26 450h1M56 453h1M146 458h1M365 474h1M188 475h1" />
<path stroke="#ff7e50" d="M445 8h1M79 18h1M169 23h1M58 26h1M100 26h1M64 27h1M373 32h1M151 33h1M457 36h1M166 39h1M346 39h1M64 43h1M268 59h1M277 65h1M376 69h1M373 76h1M64 79h1M235 88h1M316 88h1M244 89h1M346 93h1M367 111h1M349 119h1M322 125h1M127 134h1M133 135h1M61 136h1M106 137h1M451 139h1M298 142h1M22 146h1M163 147h1M7 168h1M277 187h1M355 190h1M40 195h1M250 196h1M400 200h1M253 214h1M187 218h1M7 232h1M313 233h1M112 238h1M115 240h1M376 250h1M301 262h1M154 265h1M451 267h1M136 270h1M223 270h1M31 285h1M301 289h1M346 292h1M415 294h1M76 312h1M88 314h1M145 317h1M178 321h1M298 343h1M307 344h1M154 348h1M280 351h1M340 352h1M436 352h1M379 363h1M427 366h1M403 373h1M148 380h1M289 392h1M271 393h1M340 401h1M424 405h1M73 408h1M67 414h1M49 419h1M235 419h1M421 424h1M295 427h1M436 434h1M184 435h1M37 438h1M31 448h1M79 452h1M7 461h1M262 469h1M376 470h1M247 471h1M73 473h1" />
</svg>