<svg xmlns="http://www.w3.org/2000/svg" viewBox="0 -0.5 480 480" shape-rendering="crispEdges">
<metadata>Made with Pixels to Svg https://codepen.io/shshaw/pen/XbxvNj</metadata>
<path stroke="#483d8b" d="M0 0h279M280 0h200M0 1h480M0 2h480M0 3h480M0 4h480M0 5h480M0 6h296M297 6h38M336 6h144M0 7h293M294 7h186M0 8h439M440 8h40M0 9h480M0 10h79M80 10h400M0 11h480M0 12h480M0 13h112M113 13h342M456 13h24M0 14h480M0 15h480M0 16h174M175 16h147M323 16h157M0 17h480M0 18h480M0 19h280M281 19h199M0 20h159M160 20h320M0 21h480M0 22h480M0 23h480M0 24h480M0 25h281M282 25h198M0 26h480M0 27h480M0 28h480M0 29h480M0 30h480M0 31h72M73 31h407M0 32h480M0 33h49M50 33h46M97 33h50M148 33h188M337 33h107M445 33h35M0 34h480M0 35h319M320 35h160M0 36h480M0 37h480M0 38h480M0 39h417M418 39h62M0 40h319M320 40h160M0 41h480M0 42h480M0 43h122M123 43h357M0 44h165M166 44h314M0 45h480M0 46h285M286 46h194M0 47h480M0 48h5M6 48h474M0 49h480M0 50h480M0 51h480M0 52h480M0 53h480M0 54h480M0 55h480M0 56h451M452 56h28M0 57h480M0 58h480M0 59h480M0 60h480M0 61h115M116 61h364M0 62h144M145 62h335M0 63h58M59 63h229M289 63h191M0 64h480M0 65h480M0 66h193M194 66h101M296 66h184M0 67h409M410 67h70M0 68h480M0 69h116M117 69h363M0 70h469M470 70h10M0 71h204M205 71h275M0 72h290M291 72h189M0 73h480M0 74h204M205 74h275M0 75h480M0 76h449M450 76h30M0 77h83M84 77h226M311 77h165M477 77h3M0 78h480M0 79h210M211 79h269M0 80h480M0 81h158M159 81h321M0 82h179M180 82h300M0 83h418M419 83h61M0 84h480M0 85h480M0 86h480M0 87h339M340 87h54M395 87h85M0 88h480M0 89h447M448 89h32M0 90h366M367 90h113M0 91h192M193 91h287M0 92h474M475 92h5M0 93h480M0 94h20M21 94h48M70 94h235M306 94h174M0 95h480M0 96h480M0 97h480M0 98h480M0 99h83M84 99h396M0 100h477M478 100h2M0 101h480M0 102h480M0 103h480M0 104h262M263 104h217M0 105h480M0 106h480M0 107h297M298 107h49M348 107h132M0 108h480M0 109h480M0 110h332M333 110h147M0 111h480M0 112h480M0 113h422M423 113h57M0 114h480M0 115h192M193 115h287M0 116h360M361 116h119M0 117h480M0 118h291M292 118h188M0 119h480M0 120h34M35 120h445M0 121h480M0 122h230M231 122h87M319 122h161M0 123h480M0 124h289M290 124h190M0 125h480M0 126h123M124 126h356M0 127h480M0 128h204M205 128h275M0 129h464M465 129h15M0 130h480M0 131h480M0 132h480M0 133h480M0 134h480M0 135h325M326 135h154M0 136h32M33 136h447M0 137h480M0 138h210M211 138h236M448 138h32M0 139h112M113 139h367M0 140h480M0 141h480M0 142h319M320 142h88M409 142h71M0 143h316M317 143h163M0 144h105M106 144h374M0 145h480M0 146h480M0 147h480M0 148h313M314 148h94M409 148h71M0 149h165M166 149h219M386 149h94M0 150h480M0 151h480M0 152h480M0 153h437M438 153h42M0 154h480M0 155h473M474 155h6M0 156h480M0 157h480M0 158h97M98 158h382M0 159h480M0 160h480M0 161h480M0 162h480M0 163h162M163 163h317M0 164h359M360 164h120M0 165h480M0 166h480M0 167h11M12 167h468M0 168h204M205 168h275M0 169h480M0 170h480M0 171h480M0 172h448M449 172h31M0 173h480M0 174h199M200 174h280M0 175h343M344 175h136M0 176h480M0 177h480M0 178h480M0 179h480M0 180h480M0 181h480M0 182h480M0 183h68M69 183h411M0 184h480M0 185h200M201 185h279M0 186h480M0 187h456M457 187h23M0 188h46M47 188h433M0 189h480M0 190h86M87 190h363M451 190h29M0 191h480M0 192h176M177 192h66M244 192h236M0 193h480M0 194h480M0 195h480M0 196h170M171 196h309M0 197h480M0 198h166M167 198h5M173 198h307M0 199h480M0 200h230M231 200h249M0 201h480M0 202h480M0 203h476M477 203h3M0 204h480M0 205h480M0 206h480M0 207h480M0 208h480M0 209h315M316 209h164M0 210h115M116 210h364M0 211h353M354 211h126M0 212h36M37 212h212M250 212h171M422 212h58M0 213h480M0 214h427M428 214h52M0 215h480M0 216h480M0 217h480M0 218h480M0 219h480M0 220h480M0 221h480M0 222h480M0 223h341M342 223h138M0 224h480M0 225h480M0 226h480M0 227h480M0 228h102M103 228h377M0 229h394M395 229h85M0 230h384M385 230h95M0 231h480M0 232h480M0 233h480M0 234h226M227 234h44M272 234h208M0 235h190M191 235h289M0 236h480M0 237h442M443 237h37M0 238h264M265 238h215M0 239h152M153 239h208M362 239h118M0 240h139M140 240h340M0 241h323M324 241h156M0 242h480M0 243h474M475 243h5M0 244h480M0 245h39M40 245h440M0 246h467M468 246h12M0 247h480M0 248h87M88 248h392M0 249h480M0 250h480M0 251h480M0 252h209M210 252h63M274 252h206M0 253h480M0 254h184M185 254h295M0 255h213M214 255h266M0 256h264M265 256h215M0 257h277M278 257h202M0 258h124M125 258h355M0 259h480M0 260h480M0 261h480M0 262h465M466 262h14M0 263h480M0 264h480M0 265h480M0 266h480M0 267h480M0 268h480M0 269h480M0 270h480M0 271h384M385 271h95M0 272h154M155 272h81M237 272h54M292 272h188M0 273h480M0 274h8M9 274h116M126 274h225M352 274h128M0 275h480M0 276h480M0 277h480M0 278h171M172 278h308M0 279h264M265 279h215M0 280h388M389 280h91M0 281h480M0 282h480M0 283h480M0 284h480M0 285h159M160 285h320M0 286h480M0 287h152M153 287h327M0 288h480M0 289h480M0 290h480M0 291h480M0 292h480M0 293h480M0 294h480M0 295h480M0 296h480M0 297h336M337 297h143M0 298h307M308 298h172M0 299h480M0 300h194M195 300h285M0 301h480M0 302h480M0 303h480M0 304h480M0 305h480M0 306h480M0 307h480M0 308h327M328 308h152M0 309h296M297 309h183M0 310h480M0 311h341M342 311h138M0 312h52M53 312h381M435 312h45M0 313h209M210 313h270M0 314h480M0 315h480M0 316h480M0 317h116M117 317h186M304 317h133M438 317h42M0 318h348M349 318h131M0 319h480M0 320h480M0 321h480M0 322h174M175 322h305M0 323h92M93 323h387M0 324h335M336 324h144M0 325h387M388 325h92M0 326h480M0 327h411M412 327h68M0 328h153M154 328h326M0 329h480M0 330h480M0 331h480M0 332h356M357 332h123M0 333h468M469 333h11M0 334h23M24 334h456M0 335h465M466 335h14M0 336h88M89 336h391M0 337h480M0 338h480M0 339h480M0 340h89M90 340h225M316 340h164M0 341h480M0 342h480M0 343h480M0 344h480M0 345h416M417 345h63M0 346h480M0 347h480M0 348h399M400 348h80M0 349h480M0 350h480M0 351h206M207 351h28M236 351h244M0 352h480M0 353h480M0 354h51M52 354h428M0 355h480M0 356h480M0 357h399M400 357h80M0 358h480M0 359h132M133 359h287M421 359h59M0 360h480M0 361h480M0 362h480M0 363h480M0 364h480M0 365h288M289 365h191M0 366h104M105 366h375M0 367h480M0 368h132M133 368h347M0 369h480M0 370h401M402 370h78M0 371h480M0 372h441M442 372h38M0 373h421M422 373h58M0 374h480M0 375h480M0 376h172M173 376h307M0 377h4M5 377h276M282 377h198M0 378h82M83 378h397M0 379h270M271 379h209M0 380h130M131 380h349M0 381h301M302 381h178M0 382h130M131 382h349M0 383h480M0 384h480M0 385h480M0 386h425M426 386h54M0 387h480M0 388h480M0 389h480M0 390h319M320 390h132M453 390h27M0 391h362M363 391h117M0 392h480M0 393h230M231 393h249M0 394h163M164 394h316M0 395h480M0 396h344M345 396h135M0 397h480M0 398h480M0 399h480M0 400h165M166 400h314M0 401h163M164 401h316M0 402h365M366 402h114M0 403h138M139 403h341M0 404h480M0 405h409M410 405h70M0 406h165M166 406h200M367 406h113M0 407h472M473 407h7M0 408h71M72 408h408M0 409h480M0 410h480M0 411h480M0 412h93M94 412h386M0 413h480M0 414h276M277 414h203M0 415h273M274 415h206M0 416h480M0 417h480M0 418h439M440 418h40M0 419h150M151 419h329M0 420h480M0 421h167M168 421h312M0 422h480M0 423h52M53 423h427M0 424h72M73 424h407M0 425h480M0 426h480M0 427h480M0 428h380M381 428h96M478 428h2M0 429h480M0 430h480M0 431h480M0 432h480M0 433h480M0 434h480M0 435h480M0 436h136M137 436h343M0 437h449M450 437h30M0 438h480M0 439h373M374 439h106M0 440h480M0 441h83M84 441h396M0 442h480M0 443h480M0 444h480M0 445h462M463 445h17M0 446h480M0 447h376M377 447h25M403 447h77M0 448h72M73 448h407M0 449h480M0 450h172M173 450h307M0 451h480M0 452h480M0 453h480M0 454h480M0 455h480M0 456h480M0 457h350M351 457h129M0 458h126M127 458h353M0 459h480M0 460h480M0 461h45M46 461h243M290 461h190M0 462h338M339 462h141M0 463h480M0 464h480M0 465h329M330 465h150M0 466h480M0 467h201M202 467h278M0 468h146M147 468h333M0 469h33M34 469h446M0 470h480M0 471h480M0 472h480M0 473h340M341 473h139M0 474h207M208 474h272M0 475h109M110 475h370M0 476h480M0 477h49M50 477h78M129 477h351M0 478h480M0 479h480" />
<path stroke="#493d8b" d="M279 0h1M174 16h1M159 20h1M72 31h1M96 33h1M147 33h1M336 33h1M444 33h1M417 39h1M165 44h1M285 46h1M144 62h1M288 63h1M204 71h1M204 74h1M210 79h1M339 87h1M447 89h1M366 90h1M192 91h1M474 92h1M69 94h1M477 100h1M297 107h1M192 115h1M360 116h1M291 118h1M318 122h1M123 126h1M204 128h1M210 138h1M447 138h1M408 142h1M105 144h1M408 148h1M165 149h1M162 163h1M204 168h1M456 187h1M450 190h1M243 192h1M315 209h1M36 212h1M249 212h1M102 228h1M384 230h1M264 238h1M474 243h1M39 245h1M87 248h1M273 252h1M213 255h1M264 256h1M465 262h1M384 271h1M291 272h1M351 274h1M171 278h1M264 279h1M159 285h1M336 297h1M327 308h1M303 317h1M348 318h1M174 322h1M387 325h1M411 327h1M153 328h1M468 333h1M465 335h1M315 340h1M399 348h1M51 354h1M399 357h1M132 359h1M420 359h1M288 365h1M132 368h1M441 372h1M270 379h1M165 400h1M138 403h1M165 406h1M366 406h1M93 412h1M276 414h1M273 415h1M150 419h1M72 424h1M477 428h1M462 445h1M402 447h1M72 448h1M126 458h1M45 461h1M201 467h1M33 469h1M207 474h1" />
<path stroke="#483d8a" d="M296 6h1M335 6h1M293 7h1M455 13h1M281 25h1M122 43h1M5 48h1M116 69h1M290 72h1M449 76h1M83 77h1M476 77h1M158 81h1M179 82h1M20 94h1M305 94h1M83 99h1M347 107h1M332 110h1M422 113h1M230 122h1M464 129h1M32 136h1M437 153h1M473 155h1M359 164h1M11 167h1M68 183h1M200 185h1M86 190h1M176 192h1M170 196h1M230 200h1M476 203h1M353 211h1M341 223h1M152 239h1M323 241h1M467 246h1M209 252h1M236 272h1M8 274h1M125 274h1M152 287h1M194 300h1M296 309h1M341 311h1M434 312h1M209 313h1M116 317h1M437 317h1M92 323h1M335 324h1M356 332h1M23 334h1M89 340h1M416 345h1M206 351h1M104 366h1M401 370h1M281 377h1M425 386h1M452 390h1M362 391h1M230 393h1M344 396h1M365 402h1M71 408h1M167 421h1M380 428h1M449 437h1M83 441h1M350 457h1M338 462h1M329 465h1M146 468h1M128 477h1" />
<path stroke="#483c8b" d="M439 8h1M79 10h1M112 13h1M322 16h1M280 19h1M49 33h1M319 35h1M319 40h1M451 56h1M115 61h1M58 63h1M193 66h1M295 66h1M409 67h1M469 70h1M310 77h1M418 83h1M394 87h1M262 104h1M34 120h1M289 124h1M325 135h1M112 139h1M319 142h1M316 143h1M313 148h1M385 149h1M97 158h1M448 172h1M199 174h1M343 175h1M46 188h1M166 198h1M172 198h1M115 210h1M421 212h1M427 214h1M394 229h1M226 234h1M271 234h1M190 235h1M442 237h1M361 239h1M139 240h1M184 254h1M277 257h1M124 258h1M154 272h1M388 280h1M307 298h1M52 312h1M88 336h1M235 351h1M421 373h1M172 376h1M4 377h1M82 378h1M130 380h1M301 381h1M130 382h1M319 390h1M163 394h1M163 401h1M409 405h1M472 407h1M439 418h1M52 423h1M136 436h1M373 439h1M376 447h1M172 450h1M289 461h1M340 473h1M109 475h1M49 477h1" />
</svg>