<svg xmlns="http://www.w3.org/2000/svg" viewBox="0 -0.5 480 480" shape-rendering="crispEdges">
<metadata>Made with Pixels to Svg https://codepen.io/shshaw/pen/XbxvNj</metadata>
<path stroke="#00bfff" d="M0 0h480M0 1h480M0 2h286M287 2h193M0 3h241M242 3h238M0 4h480M0 5h480M0 6h318M319 6h161M0 7h452M453 7h27M0 8h480M0 9h480M0 10h239M240 10h240M0 11h386M387 11h93M0 12h480M0 13h480M0 14h480M0 15h480M0 16h480M0 17h480M0 18h480M0 19h480M0 20h480M0 21h480M0 22h85M86 22h394M0 23h480M0 24h480M0 25h480M0 26h114M115 26h365M0 27h480M0 28h172M173 28h282M456 28h24M0 29h480M0 30h56M57 30h187M245 30h57M303 30h58M362 30h118M0 31h366M367 31h113M0 32h480M0 33h480M0 34h480M0 35h359M360 35h120M0 36h398M399 36h81M0 37h480M0 38h480M0 39h480M0 40h480M0 41h480M0 42h352M353 42h127M0 43h429M430 43h50M0 44h15M16 44h464M0 45h212M213 45h267M0 46h480M0 47h480M0 48h58M59 48h300M360 48h120M0 49h428M429 49h51M0 50h47M48 50h432M0 51h236M237 51h243M0 52h480M0 53h480M0 54h480M0 55h480M0 56h480M0 57h148M149 57h331M0 58h117M118 58h362M0 59h480M0 60h113M114 60h366M0 61h8M9 61h31M41 61h439M0 62h72M73 62h407M0 63h457M458 63h22M0 64h480M0 65h409M410 65h70M0 66h480M0 67h480M0 68h480M0 69h51M52 69h128M181 69h299M0 70h373M374 70h106M0 71h239M240 71h100M341 71h139M0 72h189M190 72h290M0 73h480M0 74h480M0 75h196M197 75h283M0 76h480M0 77h480M0 78h292M293 78h187M0 79h105M106 79h374M0 80h480M0 81h154M155 81h325M0 82h480M0 83h26M27 83h453M0 84h480M0 85h224M225 85h255M0 86h480M0 87h480M0 88h30M31 88h449M0 89h480M0 90h480M0 91h480M0 92h480M0 93h480M0 94h480M0 95h480M0 96h300M301 96h179M0 97h480M0 98h55M56 98h424M0 99h376M377 99h103M0 100h480M0 101h480M0 102h473M474 102h6M0 103h480M0 104h480M0 105h480M0 106h437M438 106h42M0 107h330M331 107h149M0 108h480M0 109h162M163 109h317M0 110h98M99 110h381M0 111h480M0 112h480M0 113h480M0 114h480M0 115h480M0 116h75M76 116h404M0 117h480M0 118h75M76 118h275M352 118h128M0 119h480M0 120h99M100 120h380M0 121h480M0 122h17M18 122h63M82 122h206M289 122h191M0 123h480M0 124h145M146 124h334M0 125h480M0 126h175M176 126h304M0 127h397M398 127h30M429 127h51M0 128h480M0 129h480M0 130h214M215 130h265M0 131h3M4 131h476M0 132h480M0 133h480M0 134h315M316 134h164M0 135h480M0 136h480M0 137h480M0 138h102M103 138h231M335 138h26M362 138h118M0 139h480M0 140h480M0 141h480M0 142h479M0 143h480M0 144h480M0 145h480M0 146h480M0 147h480M0 148h417M418 148h3M422 148h58M0 149h480M0 150h458M459 150h21M0 151h260M261 151h219M0 152h480M0 153h466M467 153h13M0 154h323M324 154h156M0 155h274M275 155h205M0 156h445M446 156h34M0 157h104M105 157h375M0 158h20M21 158h459M0 159h480M0 160h480M0 161h480M0 162h480M0 163h480M0 164h480M0 165h480M0 166h291M292 166h188M0 167h480M0 168h210M211 168h269M0 169h480M0 170h449M450 170h30M0 171h480M0 172h13M14 172h173M188 172h292M0 173h480M0 174h268M269 174h211M0 175h165M166 175h314M0 176h39M40 176h137M178 176h182M361 176h119M0 177h480M0 178h480M0 179h209M210 179h270M0 180h86M87 180h231M319 180h161M0 181h480M0 182h480M0 183h480M0 184h480M0 185h480M0 186h480M0 187h480M0 188h51M52 188h179M232 188h248M0 189h480M0 190h480M0 191h337M338 191h142M0 192h18M19 192h461M0 193h44M45 193h244M290 193h190M0 194h393M394 194h86M0 195h480M0 196h111M112 196h368M0 197h480M0 198h265M266 198h113M380 198h61M442 198h38M0 199h273M274 199h206M0 200h480M0 201h480M0 202h134M135 202h345M0 203h450M451 203h29M0 204h480M0 205h480M0 206h480M0 207h480M0 208h328M329 208h151M0 209h480M0 210h51M52 210h403M456 210h24M0 211h480M0 212h480M0 213h480M0 214h480M0 215h480M0 216h60M61 216h419M0 217h480M0 218h480M0 219h480M0 220h480M0 221h480M0 222h416M417 222h63M0 223h22M23 223h457M0 224h480M0 225h480M0 226h480M0 227h1M2 227h478M0 228h392M393 228h87M0 229h225M226 229h254M0 230h372M373 230h107M0 231h286M287 231h193M0 232h480M0 233h480M0 234h480M0 235h480M0 236h480M0 237h154M155 237h325M0 238h480M0 239h480M0 240h199M200 240h280M0 241h480M0 242h52M53 242h136M190 242h290M0 243h480M0 244h355M356 244h124M0 245h119M120 245h360M0 246h480M0 247h480M0 248h217M218 248h262M0 249h480M0 250h280M281 250h47M329 250h151M0 251h480M0 252h122M123 252h194M318 252h32M351 252h129M0 253h480M0 254h480M0 255h434M435 255h45M0 256h480M0 257h223M224 257h195M420 257h60M0 258h480M0 259h480M0 260h480M0 261h480M0 262h480M0 263h480M0 264h179M180 264h300M0 265h23M24 265h456M0 266h480M0 267h134M135 267h345M0 268h480M0 269h480M0 270h260M261 270h219M0 271h36M37 271h443M0 272h206M207 272h171M379 272h101M0 273h446M447 273h33M0 274h480M0 275h480M0 276h480M0 277h473M474 277h6M0 278h480M0 279h480M0 280h413M414 280h66M0 281h149M150 281h330M0 282h480M0 283h480M0 284h466M467 284h13M0 285h480M0 286h401M402 286h78M0 287h480M0 288h480M0 289h27M28 289h193M222 289h258M0 290h480M0 291h394M395 291h85M0 292h177M178 292h302M0 293h480M0 294h480M0 295h480M0 296h415M416 296h64M0 297h277M278 297h202M0 298h480M0 299h175M176 299h304M0 300h480M0 301h480M0 302h13M14 302h466M0 303h480M0 304h175M176 304h304M0 305h480M0 306h480M0 307h480M0 308h480M0 309h167M168 309h312M0 310h291M292 310h185M478 310h2M0 311h480M0 312h480M0 313h480M0 314h103M104 314h104M209 314h271M0 315h156M157 315h323M0 316h41M42 316h212M255 316h225M0 317h480M0 318h480M0 319h480M0 320h480M0 321h24M25 321h455M0 322h480M0 323h210M211 323h269M0 324h480M0 325h480M0 326h11M12 326h468M0 327h480M0 328h480M0 329h70M71 329h20M92 329h388M0 330h43M44 330h436M0 331h480M0 332h66M67 332h83M151 332h329M0 333h480M0 334h90M91 334h24M116 334h364M0 335h122M123 335h285M409 335h71M0 336h384M385 336h95M0 337h196M198 337h282M0 338h480M0 339h480M0 340h480M0 341h67M68 341h412M0 342h480M0 343h341M342 343h120M463 343h17M0 344h480M0 345h480M0 346h186M187 346h293M0 347h480M0 348h406M407 348h73M0 349h480M0 350h480M0 351h208M209 351h271M0 352h99M100 352h380M0 353h240M241 353h239M0 354h196M197 354h155M353 354h74M428 354h52M0 355h480M0 356h480M0 357h480M0 358h480M0 359h480M0 360h208M209 360h271M0 361h480M0 362h142M143 362h337M0 363h458M459 363h21M0 364h349M350 364h130M0 365h140M141 365h339M0 366h480M0 367h480M0 368h167M168 368h312M0 369h480M0 370h480M0 371h250M251 371h229M0 372h480M0 373h307M308 373h172M0 374h113M114 374h366M0 375h480M0 376h103M104 376h133M238 376h225M464 376h16M0 377h480M0 378h476M477 378h3M0 379h82M83 379h397M0 380h480M0 381h480M0 382h480M0 383h1M2 383h478M0 384h442M443 384h37M0 385h186M187 385h293M0 386h480M0 387h480M0 388h480M0 389h11M12 389h207M220 389h260M0 390h480M0 391h480M0 392h58M59 392h421M0 393h480M0 394h233M234 394h246M0 395h480M0 396h480M0 397h279M280 397h200M0 398h127M128 398h352M0 399h306M307 399h173M0 400h252M253 400h227M0 401h480M0 402h480M0 403h480M0 404h44M45 404h233M279 404h201M0 405h430M431 405h49M0 406h75M76 406h404M0 407h444M445 407h35M0 408h480M0 409h480M0 410h480M0 411h177M178 411h293M472 411h8M0 412h480M0 413h276M277 413h203M0 414h203M204 414h276M0 415h344M345 415h135M0 416h480M0 417h480M0 418h480M0 419h480M0 420h102M103 420h377M0 421h71M72 421h408M0 422h480M0 423h125M126 423h159M286 423h194M0 424h332M333 424h147M0 425h480M0 426h423M424 426h56M0 427h56M57 427h423M0 428h480M0 429h480M0 430h377M378 430h102M0 431h357M358 431h122M0 432h45M46 432h434M0 433h480M0 434h25M26 434h454M0 435h138M139 435h266M406 435h74M0 436h480M0 437h480M0 438h480M0 439h63M64 439h416M0 440h480M0 441h480M0 442h139M140 442h81M222 442h57M280 442h200M0 443h262M263 443h217M0 444h480M0 445h328M329 445h24M354 445h126M0 446h480M0 447h480M0 448h480M0 449h480M0 450h52M53 450h100M154 450h326M0 451h480M0 452h480M0 453h329M330 453h150M0 454h426M427 454h53M0 455h480M0 456h480M0 457h175M176 457h128M305 457h175M0 458h480M0 459h480M0 460h480M0 461h153M154 461h111M266 461h214M0 462h480M0 463h480M0 464h480M0 465h480M0 466h480M0 467h480M0 468h480M0 469h330M331 469h149M0 470h480M0 471h480M0 472h480M0 473h480M0 474h445M446 474h34M0 475h480M0 476h480M0 477h480M0 478h305M306 478h174M0 479h152M153 479h163M317 479h163" />
<path stroke="#00beff" d="M286 2h1M241 3h1M85 22h1M172 28h1M244 30h1M361 30h1M352 42h1M58 48h1M148 57h1M40 61h1M457 63h1M409 65h1M373 70h1M340 71h1M196 75h1M292 78h1M154 81h1M55 98h1M376 99h1M145 124h1M175 126h1M397 127h1M214 130h1M334 138h1M361 138h1M421 148h1M466 153h1M274 155h1M445 156h1M13 172h1M187 172h1M268 174h1M337 191h1M289 193h1M265 198h1M379 198h1M328 208h1M22 223h1M1 227h1M286 231h1M154 237h1M199 240h1M52 242h1M355 244h1M217 248h1M280 250h1M328 250h1M223 257h1M466 284h1M394 291h1M415 296h1M277 297h1M175 299h1M13 302h1M175 304h1M103 314h1M208 314h1M70 329h1M91 329h1M43 330h1M115 334h1M196 337h1M67 341h1M406 348h1M208 351h1M196 354h1M352 354h1M427 354h1M208 360h1M142 362h1M349 364h1M250 371h1M307 373h1M103 376h1M463 376h1M82 379h1M1 383h1M442 384h1M58 392h1M127 398h1M430 405h1M25 434h1M139 442h1M262 443h1M328 445h1M52 450h1M175 457h1M304 457h1M265 461h1M445 474h1M316 479h1" />
<path stroke="#01bfff" d="M318 6h1M114 26h1M366 31h1M429 43h1M15 44h1M117 58h1M72 62h1M51 69h1M180 69h1M189 72h1M105 79h1M30 88h1M300 96h1M330 107h1M162 109h1M75 116h1M75 118h1M351 118h1M99 120h1M81 122h1M288 122h1M3 131h1M315 134h1M102 138h1M417 148h1M291 166h1M210 168h1M165 175h1M39 176h1M177 176h1M360 176h1M318 180h1M51 188h1M231 188h1M18 192h1M393 194h1M111 196h1M441 198h1M273 199h1M450 203h1M51 210h1M60 216h1M225 229h1M372 230h1M189 242h1M36 271h1M378 272h1M27 289h1M177 292h1M291 310h1M477 310h1M156 315h1M24 321h1M210 323h1M66 332h1M150 332h1M90 334h1M408 335h1M384 336h1M462 343h1M186 346h1M99 352h1M240 353h1M237 376h1M186 385h1M219 389h1M279 397h1M306 399h1M252 400h1M75 406h1M444 407h1M177 411h1M471 411h1M276 413h1M102 420h1M285 423h1M423 426h1M357 431h1M45 432h1M138 435h1M405 435h1M63 439h1M279 442h1M153 450h1M426 454h1M153 461h1M330 469h1" />
<path stroke="#00bffe" d="M452 7h1M239 10h1M386 11h1M455 28h1M56 30h1M302 30h1M359 35h1M398 36h1M212 45h1M359 48h1M428 49h1M47 50h1M236 51h1M113 60h1M8 61h1M239 71h1M26 83h1M224 85h1M473 102h1M437 106h1M98 110h1M17 122h1M428 127h1M479 142h1M458 150h1M260 151h1M323 154h1M104 157h1M20 158h1M449 170h1M209 179h1M86 180h1M44 193h1M134 202h1M455 210h1M416 222h1M392 228h1M119 245h1M122 252h1M317 252h1M350 252h1M434 255h1M419 257h1M179 264h1M23 265h1M134 267h1M260 270h1M206 272h1M446 273h1M473 277h1M413 280h1M149 281h1M401 286h1M221 289h1M167 309h1M41 316h1M254 316h1M11 326h1M122 335h1M197 337h1M341 343h1M458 363h1M140 365h1M167 368h1M113 374h1M476 378h1M11 389h1M233 394h1M44 404h1M278 404h1M203 414h1M344 415h1M71 421h1M125 423h1M332 424h1M56 427h1M377 430h1M221 442h1M353 445h1M329 453h1M305 478h1M152 479h1" />
</svg>