<svg xmlns="http://www.w3.org/2000/svg" viewBox="0 -0.5 480 480" shape-rendering="crispEdges">
<metadata>Made with Pixels to Svg https://codepen.io/shshaw/pen/XbxvNj</metadata>
<path stroke="#ff69b4" d="M0 0h480M0 1h56M57 1h141M199 1h281M0 2h113M114 2h366M0 3h148M149 3h60M210 3h270M0 4h480M0 5h480M0 6h480M0 7h453M454 7h26M0 8h480M0 9h480M0 10h480M0 11h480M0 12h480M0 13h113M114 13h153M268 13h212M0 14h480M0 15h480M0 16h480M0 17h480M0 18h480M0 19h157M158 19h191M350 19h130M0 20h281M282 20h167M450 20h30M0 21h480M0 22h480M0 23h480M0 24h480M0 25h480M0 26h480M0 27h54M55 27h339M395 27h85M0 28h27M28 28h47M76 28h404M0 29h480M0 30h339M340 30h140M0 31h22M23 31h125M149 31h331M0 32h480M0 33h108M109 33h371M0 34h480M0 35h155M157 35h133M291 35h91M383 35h97M0 36h480M0 37h480M0 38h480M0 39h168M169 39h311M0 40h32M33 40h447M0 41h480M0 42h480M0 43h207M208 43h272M0 44h480M0 45h338M339 45h141M0 46h153M154 46h111M266 46h214M0 47h480M0 48h176M177 48h268M446 48h34M0 49h480M0 50h29M30 50h450M0 51h480M0 52h69M70 52h410M0 53h480M0 54h32M33 54h447M0 55h480M0 56h46M47 56h104M152 56h328M0 57h480M0 58h480M0 59h480M0 60h480M0 61h170M171 61h309M0 62h296M297 62h183M0 63h31M32 63h448M0 64h480M0 65h324M325 65h155M0 66h217M218 66h245M464 66h16M0 67h480M0 68h480M0 69h480M0 70h27M28 70h283M312 70h1M314 70h20M335 70h145M0 71h438M439 71h41M0 72h136M137 72h282M420 72h60M0 73h177M178 73h302M0 74h480M0 75h480M0 76h132M133 76h347M0 77h434M435 77h45M0 78h474M475 78h5M0 79h480M0 80h480M0 81h395M396 81h84M0 82h480M0 83h480M0 84h480M0 85h480M0 86h415M416 86h64M0 87h480M0 88h480M0 89h480M0 90h480M0 91h395M396 91h84M0 92h480M0 93h321M322 93h84M407 93h73M0 94h365M366 94h114M0 95h34M35 95h445M0 96h311M312 96h168M0 97h53M54 97h426M0 98h326M327 98h153M0 99h379M380 99h82M463 99h17M0 100h480M0 101h480M0 102h480M0 103h480M0 104h83M84 104h396M0 105h480M0 106h74M75 106h295M371 106h109M0 107h480M0 108h480M0 109h480M0 110h480M0 111h480M0 112h136M137 112h165M303 112h177M0 113h323M324 113h156M0 114h444M445 114h35M0 115h480M0 116h262M263 116h217M0 117h480M0 118h480M0 119h236M237 119h243M0 120h335M336 120h76M413 120h67M0 121h480M0 122h480M0 123h480M0 124h480M0 125h112M113 125h367M0 126h62M63 126h417M0 127h406M407 127h27M435 127h45M0 128h480M0 129h480M0 130h8M9 130h156M166 130h287M454 130h26M0 131h169M170 131h310M0 132h44M45 132h435M0 133h480M0 134h364M365 134h115M0 135h480M0 136h103M104 136h295M400 136h80M0 137h480M0 138h480M0 139h480M0 140h54M55 140h425M0 141h480M0 142h480M0 143h480M0 144h272M273 144h202M476 144h4M0 145h359M360 145h120M0 146h480M0 147h480M0 148h480M0 149h480M0 150h480M0 151h295M296 151h184M0 152h480M0 153h480M0 154h480M0 155h480M0 156h480M0 157h192M193 157h287M0 158h480M0 159h480M0 160h129M130 160h350M0 161h212M213 161h267M0 162h467M468 162h12M0 163h385M386 163h94M0 164h480M0 165h258M259 165h110M370 165h110M0 166h146M147 166h333M0 167h90M91 167h389M0 168h480M0 169h364M365 169h115M0 170h480M0 171h431M432 171h48M0 172h480M0 173h49M50 173h430M0 174h480M0 175h480M0 176h6M7 176h473M0 177h378M379 177h61M441 177h39M0 178h93M94 178h386M0 179h480M0 180h480M0 181h480M0 182h480M0 183h310M311 183h169M0 184h480M0 185h354M355 185h125M0 186h212M213 186h151M365 186h115M0 187h480M0 188h365M366 188h114M0 189h68M69 189h411M0 190h480M0 191h480M0 192h480M0 193h225M226 193h225M452 193h28M0 194h480M0 195h480M0 196h76M77 196h291M369 196h111M0 197h40M41 197h242M284 197h196M0 198h6M7 198h180M188 198h292M0 199h201M202 199h76M279 199h201M0 200h480M0 201h376M377 201h103M0 202h480M0 203h480M0 204h480M0 205h77M78 205h402M0 206h480M0 207h480M0 208h167M168 208h226M395 208h85M0 209h82M83 209h150M235 209h75M311 209h169M0 210h52M53 210h427M0 211h231M232 211h248M0 212h480M0 213h480M0 214h104M105 214h375M0 215h87M88 215h392M0 216h94M95 216h385M0 217h480M0 218h480M0 219h480M0 220h325M326 220h83M410 220h70M0 221h154M155 221h325M0 222h480M0 223h480M0 224h272M273 224h207M0 225h480M0 226h445M446 226h34M0 227h167M168 227h312M0 228h480M0 229h203M204 229h205M410 229h70M0 230h480M0 231h480M0 232h480M0 233h480M0 234h415M416 234h64M0 235h480M0 236h480M0 237h480M0 238h148M149 238h331M0 239h153M154 239h326M0 240h480M0 241h344M345 241h135M0 242h480M0 243h480M0 244h13M14 244h466M0 245h480M0 246h480M0 247h342M343 247h137M0 248h480M0 249h480M0 250h58M59 250h81M141 250h83M225 250h255M0 251h480M0 252h480M0 253h29M30 253h24M55 253h425M0 254h117M118 254h362M0 255h251M252 255h228M0 256h480M0 257h480M0 258h164M165 258h315M0 259h324M325 259h155M0 260h16M17 260h463M0 261h85M86 261h257M344 261h136M0 262h429M430 262h50M0 263h480M0 264h88M89 264h391M0 265h480M0 266h480M0 267h16M17 267h165M183 267h158M342 267h138M0 268h350M351 268h129M0 269h480M0 270h480M0 271h65M66 271h414M0 272h206M207 272h273M0 273h231M232 273h101M334 273h117M452 273h28M0 274h480M0 275h459M460 275h20M0 276h68M69 276h411M0 277h480M0 278h480M0 279h480M0 280h358M359 280h121M0 281h480M0 282h480M0 283h480M0 284h480M0 285h480M0 286h58M59 286h341M401 286h79M0 287h480M0 288h306M307 288h173M0 289h163M164 289h230M395 289h85M0 290h480M0 291h230M231 291h8M240 291h240M0 292h480M0 293h95M96 293h26M123 293h357M0 294h480M0 295h366M367 295h113M0 296h480M0 297h480M0 298h131M132 298h348M0 299h480M0 300h480M0 301h480M0 302h109M110 302h317M428 302h52M0 303h480M0 304h445M446 304h34M0 305h49M50 305h430M0 306h242M243 306h237M0 307h480M0 308h199M200 308h280M0 309h65M66 309h202M269 309h211M0 310h480M0 311h480M0 312h157M158 312h322M0 313h480M0 314h70M71 314h314M386 314h24M411 314h69M0 315h480M0 316h364M365 316h115M0 317h480M0 318h480M0 319h480M0 320h290M291 320h189M0 321h480M0 322h33M34 322h390M425 322h55M0 323h480M0 324h480M0 325h480M0 326h473M474 326h6M0 327h65M66 327h414M0 328h480M0 329h480M0 330h480M0 331h480M0 332h480M0 333h428M429 333h51M0 334h480M0 335h480M0 336h480M0 337h480M0 338h184M185 338h295M0 339h248M249 339h91M341 339h139M0 340h275M276 340h204M0 341h329M330 341h150M0 342h480M0 343h382M383 343h97M0 344h480M0 345h155M156 345h199M356 345h124M0 346h480M0 347h283M284 347h196M0 348h480M0 349h273M274 349h206M0 350h480M0 351h362M363 351h117M0 352h480M0 353h480M0 354h480M0 355h480M0 356h480M0 357h442M443 357h37M0 358h476M477 358h3M0 359h316M317 359h16M334 359h146M0 360h480M0 361h480M0 362h480M0 363h480M0 364h480M0 365h480M0 366h480M0 367h480M0 368h455M456 368h24M0 369h480M0 370h105M106 370h35M142 370h269M412 370h68M0 371h297M298 371h182M0 372h425M426 372h54M0 373h248M249 373h196M446 373h34M0 374h11M12 374h468M0 375h480M0 376h355M356 376h124M0 377h323M324 377h156M0 378h480M0 379h480M0 380h179M180 380h170M351 380h129M0 381h291M292 381h188M0 382h60M61 382h419M0 383h480M0 384h480M0 385h480M0 386h480M0 387h423M424 387h56M0 388h92M93 388h387M0 389h480M0 390h480M0 391h480M0 392h337M338 392h142M0 393h344M345 393h135M0 394h81M82 394h398M0 395h480M0 396h375M376 396h104M0 397h35M36 397h444M0 398h480M0 399h480M0 400h480M0 401h480M0 402h480M0 403h272M273 403h207M0 404h480M0 405h213M214 405h68M283 405h197M0 406h480M0 407h480M0 408h169M170 408h310M0 409h165M166 409h147M314 409h166M0 410h480M0 411h480M0 412h480M0 413h480M0 414h480M0 415h118M119 415h361M0 416h480M0 417h480M0 418h480M0 419h480M0 420h480M0 421h480M0 422h463M464 422h16M0 423h480M0 424h480M0 425h480M0 426h480M0 427h480M0 428h209M210 428h270M0 429h480M0 430h480M0 431h480M0 432h480M0 433h480M0 434h387M388 434h92M0 435h480M0 436h480M0 437h480M0 438h480M0 439h480M0 440h480M0 441h480M0 442h480M0 443h480M0 444h84M85 444h395M0 445h174M175 445h305M0 446h480M0 447h299M300 447h180M0 448h480M0 449h65M66 449h414M0 450h402M403 450h77M0 451h75M76 451h404M0 452h480M0 453h84M85 453h28M114 453h366M0 454h166M167 454h313M0 455h480M0 456h480M0 457h480M0 458h406M407 458h73M0 459h480M0 460h480M0 461h5M6 461h474M0 462h480M0 463h354M355 463h125M0 464h480M0 465h480M0 466h480M0 467h480M0 468h480M0 469h350M351 469h129M0 470h480M0 471h480M0 472h349M350 472h130M0 473h480M0 474h480M0 475h480M0 476h297M298 476h182M0 477h480M0 478h134M135 478h345M0 479h480" />
<path stroke="#ff69b5" d="M56 1h1M113 2h1M209 3h1M113 13h1M281 20h1M449 20h1M155 35h1M290 35h1M32 40h1M338 45h1M176 48h1M29 50h1M32 54h1M170 61h1M296 62h1M311 70h1M419 72h1M434 77h1M395 81h1M395 91h1M365 94h1M311 96h1M53 97h1M326 98h1M83 104h1M74 106h1M302 112h1M323 113h1M236 119h1M335 120h1M62 126h1M434 127h1M8 130h1M44 132h1M272 144h1M359 145h1M212 161h1M467 162h1M146 166h1M431 171h1M440 177h1M212 186h1M365 188h1M68 189h1M368 196h1M278 199h1M77 205h1M167 208h1M233 209h1M104 214h1M272 224h1M167 227h1M203 229h1M344 241h1M140 250h1M224 250h1M29 253h1M251 255h1M164 258h1M182 267h1M341 267h1M350 268h1M65 271h1M206 272h1M68 276h1M230 291h1M239 291h1M95 293h1M122 293h1M131 298h1M242 306h1M65 309h1M410 314h1M290 320h1M473 326h1M65 327h1M428 333h1M248 339h1M275 340h1M329 341h1M155 345h1M362 351h1M476 358h1M455 368h1M425 372h1M248 373h1M11 374h1M323 377h1M179 380h1M350 380h1M92 388h1M344 393h1M35 397h1M272 403h1M209 428h1M299 447h1M65 449h1M113 453h1M5 461h1M350 469h1M134 478h1" />
<path stroke="#fe69b4" d="M198 1h1M453 7h1M267 13h1M54 27h1M27 28h1M75 28h1M339 30h1M108 33h1M156 35h1M168 39h1M207 43h1M153 46h1M69 52h1M324 65h1M27 70h1M438 71h1M177 73h1M132 76h1M474 78h1M321 93h1M462 99h1M444 114h1M165 130h1M453 130h1M399 136h1M54 140h1M192 157h1M129 160h1M258 165h1M369 165h1M90 167h1M6 176h1M378 177h1M93 178h1M354 185h1M225 193h1M6 198h1M201 199h1M234 209h1M231 211h1M87 215h1M153 239h1M342 247h1M54 253h1M117 254h1M324 259h1M429 262h1M231 273h1M333 273h1M459 275h1M306 288h1M366 295h1M33 322h1M273 349h1M333 359h1M105 370h1M141 370h1M411 370h1M297 371h1M291 381h1M60 382h1M423 387h1M81 394h1M375 396h1M213 405h1M282 405h1M165 409h1M387 434h1M84 444h1M174 445h1M402 450h1M75 451h1M84 453h1M354 463h1M297 476h1" />
<path stroke="#ff68b4" d="M148 3h1M157 19h1M349 19h1M394 27h1M22 31h1M148 31h1M382 35h1M265 46h1M445 48h1M46 56h1M151 56h1M31 63h1M217 66h1M463 66h1M313 70h1M334 70h1M136 72h1M415 86h1M406 93h1M34 95h1M379 99h1M370 106h1M136 112h1M262 116h1M412 120h1M112 125h1M406 127h1M169 131h1M364 134h1M103 136h1M475 144h1M295 151h1M385 163h1M364 169h1M49 173h1M310 183h1M364 186h1M451 193h1M76 196h1M40 197h1M283 197h1M187 198h1M376 201h1M394 208h1M82 209h1M310 209h1M52 210h1M94 216h1M325 220h1M409 220h1M154 221h1M445 226h1M409 229h1M415 234h1M148 238h1M13 244h1M58 250h1M16 260h1M85 261h1M343 261h1M88 264h1M16 267h1M451 273h1M358 280h1M58 286h1M400 286h1M163 289h1M394 289h1M109 302h1M427 302h1M445 304h1M49 305h1M199 308h1M268 309h1M157 312h1M70 314h1M385 314h1M364 316h1M424 322h1M184 338h1M340 339h1M382 343h1M355 345h1M283 347h1M442 357h1M316 359h1M445 373h1M355 376h1M337 392h1M169 408h1M313 409h1M118 415h1M463 422h1M166 454h1M406 458h1M349 472h1" />
</svg>