<svg xmlns="http://www.w3.org/2000/svg" viewBox="0 -0.5 480 480" shape-rendering="crispEdges">
<metadata>Made with Pixels to Svg https://codepen.io/shshaw/pen/XbxvNj</metadata>
<path stroke="#f08080" d="M0 0h62M63 0h87M151 0h329M0 1h480M0 2h480M0 3h8M9 3h471M0 4h480M0 5h140M141 5h339M0 6h480M0 7h349M350 7h130M0 8h480M0 9h74M75 9h405M0 10h18M19 10h228M248 10h32M281 10h68M350 10h130M0 11h480M0 12h480M0 13h271M272 13h208M0 14h480M0 15h480M0 16h480M0 17h480M0 18h480M0 19h282M283 19h197M0 20h480M0 21h480M0 22h480M0 23h480M0 24h480M0 25h176M177 25h284M462 25h18M0 26h480M0 27h480M0 28h480M0 29h480M0 30h480M0 31h480M0 32h480M0 33h480M0 34h480M0 35h480M0 36h480M0 37h480M0 38h20M21 38h272M294 38h186M0 39h480M0 40h172M173 40h307M0 41h480M0 42h160M161 42h319M0 43h384M385 43h95M0 44h480M0 45h480M0 46h480M0 47h480M0 48h480M0 49h82M83 49h397M0 50h352M353 50h127M0 51h113M114 51h366M0 52h480M0 53h480M0 54h127M128 54h352M0 55h97M98 55h382M0 56h480M0 57h145M146 57h334M0 58h480M0 59h105M106 59h374M0 60h480M0 61h351M352 61h128M0 62h480M0 63h157M158 63h318M477 63h3M0 64h480M0 65h480M0 66h480M0 67h480M0 68h480M0 69h480M0 70h480M0 71h480M0 72h480M0 73h480M0 74h480M0 75h480M0 76h480M0 77h480M0 78h440M441 78h39M0 79h480M0 80h345M346 80h134M0 81h480M0 82h480M0 83h407M408 83h72M0 84h480M0 85h480M0 86h356M357 86h123M0 87h480M0 88h480M0 89h477M478 89h2M0 90h480M0 91h334M335 91h21M357 91h123M0 92h480M0 93h480M0 94h480M0 95h480M0 96h398M399 96h81M0 97h314M315 97h165M0 98h480M0 99h259M260 99h220M0 100h480M0 101h480M0 102h480M0 103h480M0 104h480M0 105h132M133 105h347M0 106h102M103 106h377M0 107h480M0 108h480M0 109h480M0 110h163M164 110h316M0 111h163M164 111h316M0 112h480M0 113h480M0 114h391M392 114h88M0 115h378M379 115h101M0 116h480M0 117h316M317 117h163M0 118h480M0 119h480M0 120h480M0 121h480M0 122h480M0 123h223M224 123h256M0 124h387M388 124h92M0 125h26M27 125h453M0 126h480M0 127h472M473 127h7M0 128h480M0 129h480M0 130h480M0 131h480M0 132h480M0 133h480M0 134h210M211 134h269M0 135h478M479 135h1M0 136h480M0 137h480M0 138h480M0 139h480M0 140h331M332 140h148M0 141h468M469 141h11M0 142h480M0 143h480M0 144h99M100 144h193M294 144h186M0 145h480M0 146h480M0 147h446M447 147h33M0 148h480M0 149h480M0 150h480M0 151h160M161 151h319M0 152h12M13 152h88M102 152h378M0 153h480M0 154h480M0 155h480M0 156h480M0 157h480M0 158h480M0 159h480M0 160h241M242 160h238M0 161h126M127 161h353M0 162h66M67 162h413M0 163h480M0 164h480M0 165h480M0 166h477M478 166h2M0 167h480M0 168h480M0 169h43M44 169h138M183 169h297M0 170h480M0 171h480M0 172h480M0 173h11M12 173h221M234 173h246M0 174h480M0 175h480M0 176h480M0 177h480M0 178h480M0 179h219M220 179h260M0 180h216M217 180h263M0 181h348M349 181h131M0 182h480M0 183h480M0 184h299M300 184h180M0 185h480M0 186h273M274 186h206M0 187h480M0 188h107M108 188h131M240 188h105M346 188h134M0 189h480M0 190h480M0 191h480M0 192h178M179 192h301M0 193h223M224 193h256M0 194h480M0 195h331M332 195h148M0 196h174M175 196h305M0 197h480M0 198h480M0 199h480M0 200h480M0 201h224M225 201h255M0 202h480M0 203h480M0 204h480M0 205h480M0 206h282M283 206h197M0 207h98M99 207h381M0 208h480M0 209h136M137 209h137M275 209h205M0 210h480M0 211h297M298 211h182M0 212h217M218 212h262M0 213h23M24 213h197M222 213h258M0 214h53M54 214h34M89 214h391M0 215h480M0 216h480M0 217h31M32 217h448M0 218h264M265 218h215M0 219h417M418 219h5M424 219h56M0 220h480M0 221h480M0 222h327M328 222h152M0 223h36M37 223h234M272 223h208M0 224h161M162 224h318M0 225h480M0 226h480M0 227h480M0 228h480M0 229h303M304 229h69M374 229h106M0 230h480M0 231h74M75 231h136M212 231h24M237 231h243M0 232h480M0 233h362M363 233h117M0 234h129M130 234h339M470 234h10M0 235h152M153 235h323M477 235h3M0 236h3M4 236h476M0 237h63M64 237h416M0 238h480M0 239h480M0 240h31M32 240h448M0 241h480M0 242h149M150 242h330M0 243h136M137 243h69M207 243h273M0 244h480M0 245h480M0 246h432M433 246h47M0 247h343M344 247h4M349 247h131M0 248h480M0 249h342M343 249h137M0 250h480M0 251h34M35 251h445M0 252h232M233 252h95M329 252h151M0 253h480M0 254h156M157 254h323M0 255h480M0 256h480M0 257h480M0 258h480M0 259h258M259 259h221M0 260h480M0 261h432M433 261h47M0 262h480M0 263h480M0 264h480M0 265h373M374 265h99M474 265h6M0 266h333M334 266h146M0 267h480M0 268h118M119 268h323M443 268h37M0 269h480M0 270h480M0 271h480M0 272h480M0 273h480M0 274h480M0 275h480M0 276h86M87 276h393M0 277h480M0 278h178M179 278h301M0 279h195M196 279h284M0 280h480M0 281h480M0 282h299M300 282h180M0 283h214M215 283h265M0 284h480M0 285h480M0 286h480M0 287h270M271 287h209M0 288h199M200 288h82M283 288h42M326 288h154M0 289h390M391 289h89M0 290h480M0 291h480M0 292h173M174 292h306M0 293h480M0 294h373M374 294h106M0 295h480M0 296h124M125 296h355M0 297h195M196 297h284M0 298h333M334 298h146M0 299h10M11 299h199M211 299h269M0 300h411M412 300h61M474 300h6M0 301h480M0 302h480M0 303h480M0 304h25M26 304h396M423 304h57M0 305h480M0 306h480M0 307h61M62 307h418M0 308h480M0 309h480M0 310h243M244 310h236M0 311h480M0 312h480M0 313h480M0 314h480M0 315h320M321 315h159M0 316h158M159 316h321M0 317h480M0 318h480M0 319h480M0 320h480M0 321h480M0 322h480M0 323h166M167 323h313M0 324h331M332 324h148M0 325h480M0 326h480M0 327h267M268 327h212M0 328h480M0 329h480M0 330h108M109 330h371M0 331h480M0 332h370M371 332h109M0 333h480M0 334h172M173 334h307M0 335h480M0 336h480M0 337h480M0 338h87M88 338h392M0 339h480M0 340h352M353 340h127M0 341h477M478 341h2M0 342h480M0 343h480M0 344h289M290 344h190M0 345h480M0 346h218M219 346h32M252 346h228M0 347h480M0 348h480M0 349h448M449 349h2M452 349h28M0 350h480M0 351h258M259 351h116M376 351h104M0 352h80M81 352h9M91 352h389M0 353h480M0 354h480M0 355h93M94 355h386M0 356h480M0 357h10M11 357h408M420 357h60M0 358h438M439 358h41M0 359h480M0 360h15M16 360h389M406 360h74M0 361h302M303 361h177M0 362h35M36 362h444M0 363h216M217 363h263M0 364h480M0 365h480M0 366h116M117 366h47M165 366h97M263 366h217M0 367h480M0 368h480M0 369h118M119 369h91M211 369h269M0 370h456M457 370h23M0 371h480M0 372h476M477 372h3M0 373h480M0 374h59M60 374h379M440 374h40M0 375h480M0 376h479M0 377h480M0 378h480M0 379h480M0 380h409M410 380h70M0 381h1M2 381h343M346 381h1M348 381h132M0 382h480M0 383h480M0 384h480M0 385h480M0 386h8M9 386h438M448 386h32M0 387h480M0 388h126M127 388h353M0 389h480M0 390h480M0 391h183M184 391h296M0 392h211M212 392h268M0 393h480M0 394h480M0 395h480M0 396h480M0 397h480M0 398h480M0 399h480M0 400h480M0 401h480M0 402h480M0 403h480M0 404h480M0 405h45M46 405h309M356 405h124M0 406h17M18 406h462M0 407h59M60 407h420M0 408h434M435 408h45M0 409h480M0 410h480M0 411h209M210 411h44M255 411h225M0 412h480M0 413h480M0 414h480M0 415h46M47 415h433M0 416h40M41 416h439M0 417h313M314 417h166M0 418h381M382 418h98M0 419h135M136 419h344M0 420h391M392 420h88M0 421h480M0 422h480M0 423h131M132 423h348M0 424h197M198 424h282M0 425h161M162 425h66M229 425h251M0 426h480M0 427h480M0 428h177M178 428h302M0 429h480M0 430h480M0 431h196M197 431h283M0 432h134M135 432h345M0 433h480M0 434h63M64 434h5M70 434h410M0 435h480M0 436h480M0 437h480M0 438h480M0 439h366M367 439h113M0 440h480M0 441h480M0 442h373M374 442h106M0 443h480M0 444h480M0 445h367M368 445h112M0 446h480M0 447h263M264 447h216M0 448h277M278 448h202M0 449h160M161 449h319M0 450h15M16 450h179M196 450h284M0 451h480M0 452h480M0 453h480M0 454h480M0 455h120M121 455h359M0 456h480M0 457h480M0 458h480M0 459h126M127 459h142M270 459h158M429 459h51M0 460h138M139 460h42M182 460h298M0 461h41M42 461h87M130 461h350M0 462h472M473 462h5M479 462h1M0 463h480M0 464h320M321 464h159M0 465h480M0 466h480M0 467h386M387 467h58M446 467h34M0 468h480M0 469h480M0 470h480M0 471h239M240 471h165M406 471h74M0 472h480M0 473h480M0 474h480M0 475h480M0 476h80M81 476h84M166 476h314M0 477h411M412 477h68M0 478h40M41 478h439M0 479h480" />
<path stroke="#f08081" d="M62 0h1M8 3h1M140 5h1M74 9h1M176 25h1M461 25h1M20 38h1M293 38h1M113 51h1M476 63h1M440 78h1M407 83h1M356 86h1M356 91h1M398 96h1M314 97h1M26 125h1M293 144h1M446 147h1M101 152h1M182 169h1M11 173h1M233 173h1M299 184h1M107 188h1M239 188h1M224 201h1M98 207h1M23 213h1M221 213h1M53 214h1M161 224h1M74 231h1M236 231h1M362 233h1M152 235h1M476 235h1M149 242h1M206 243h1M473 265h1M86 276h1M299 282h1M173 292h1M473 300h1M422 304h1M320 315h1M158 316h1M218 346h1M251 346h1M80 352h1M419 357h1M302 361h1M35 362h1M116 366h1M164 366h1M476 372h1M59 374h1M479 376h1M347 381h1M8 386h1M17 406h1M59 407h1M434 408h1M209 411h1M254 411h1M131 423h1M197 424h1M161 425h1M134 432h1M263 447h1M269 459h1M428 459h1M41 461h1M320 464h1M386 467h1M239 471h1M80 476h1" />
<path stroke="#f18080" d="M150 0h1M18 10h1M282 19h1M384 43h1M105 59h1M351 61h1M345 80h1M477 89h1M132 105h1M102 106h1M378 115h1M387 124h1M210 134h1M468 141h1M99 144h1M12 152h1M126 161h1M66 162h1M477 166h1M219 179h1M216 180h1M348 181h1M273 186h1M345 188h1M174 196h1M282 206h1M297 211h1M264 218h1M417 219h1M423 219h1M327 222h1M36 223h1M303 229h1M129 234h1M3 236h1M63 237h1M432 246h1M348 247h1M342 249h1M156 254h1M258 259h1M432 261h1M333 266h1M195 279h1M270 287h1M282 288h1M390 289h1M195 297h1M333 298h1M210 299h1M411 300h1M243 310h1M267 327h1M108 330h1M87 338h1M477 341h1M258 351h1M375 351h1M90 352h1M93 355h1M438 358h1M15 360h1M405 360h1M216 363h1M210 369h1M456 370h1M345 381h1M447 386h1M126 388h1M183 391h1M45 405h1M381 418h1M135 419h1M228 425h1M177 428h1M63 434h1M69 434h1M366 439h1M15 450h1M195 450h1M120 455h1M126 459h1M138 460h1M129 461h1M405 471h1M165 476h1M411 477h1" />
<path stroke="#f08180" d="M349 7h1M247 10h1M280 10h1M349 10h1M271 13h1M172 40h1M160 42h1M82 49h1M352 50h1M127 54h1M97 55h1M145 57h1M157 63h1M334 91h1M259 99h1M163 110h1M163 111h1M391 114h1M316 117h1M223 123h1M472 127h1M478 135h1M331 140h1M160 151h1M241 160h1M43 169h1M178 192h1M223 193h1M331 195h1M136 209h1M274 209h1M217 212h1M88 214h1M31 217h1M271 223h1M373 229h1M211 231h1M469 234h1M31 240h1M136 243h1M343 247h1M34 251h1M232 252h1M328 252h1M373 265h1M118 268h1M442 268h1M178 278h1M214 283h1M199 288h1M325 288h1M373 294h1M124 296h1M10 299h1M25 304h1M61 307h1M166 323h1M331 324h1M370 332h1M172 334h1M352 340h1M289 344h1M448 349h1M451 349h1M10 357h1M262 366h1M118 369h1M439 374h1M409 380h1M1 381h1M211 392h1M355 405h1M46 415h1M40 416h1M313 417h1M391 420h1M196 431h1M373 442h1M367 445h1M277 448h1M160 449h1M181 460h1M472 462h1M478 462h1M445 467h1M40 478h1" />
</svg>