<svg xmlns="http://www.w3.org/2000/svg" viewBox="0 -0.5 480 480" shape-rendering="crispEdges">
<metadata>Made with Pixels to Svg https://codepen.io/shshaw/pen/XbxvNj</metadata>
<path stroke="#9370db" d="M0 0h420M421 0h59M0 1h285M286 1h75M362 1h118M0 2h480M0 3h57M58 3h422M0 4h394M395 4h85M0 5h274M275 5h205M0 6h480M0 7h462M463 7h17M0 8h480M0 9h480M0 10h480M0 11h66M67 11h413M0 12h480M0 13h480M0 14h250M251 14h229M0 15h39M40 15h440M0 16h331M332 16h148M0 17h464M465 17h15M0 18h480M0 19h480M0 20h52M53 20h398M452 20h28M0 21h480M0 22h480M0 23h480M0 24h480M0 25h480M0 26h283M284 26h196M0 27h480M0 28h480M0 29h480M0 30h220M221 30h259M0 31h480M0 32h480M0 33h26M27 33h155M183 33h297M0 34h104M105 34h375M0 35h117M118 35h280M399 35h81M0 36h402M403 36h77M0 37h480M0 38h480M0 39h480M0 40h480M0 41h98M99 41h271M371 41h51M423 41h57M0 42h7M8 42h62M71 42h152M224 42h256M0 43h480M0 44h480M0 45h167M168 45h312M0 46h480M0 47h365M366 47h114M0 48h480M0 49h480M0 50h393M394 50h86M0 51h480M0 52h125M126 52h354M0 53h480M0 54h412M413 54h67M0 55h480M0 56h199M200 56h280M0 57h219M220 57h260M0 58h480M0 59h480M0 60h440M441 60h39M0 61h139M140 61h340M0 62h480M0 63h480M0 64h421M422 64h58M0 65h480M0 66h480M0 67h480M0 68h470M471 68h9M0 69h480M0 70h480M0 71h480M0 72h480M0 73h8M9 73h471M0 74h480M0 75h243M244 75h236M0 76h290M291 76h189M0 77h480M0 78h480M0 79h480M0 80h480M0 81h480M0 82h451M452 82h28M0 83h480M0 84h309M310 84h170M0 85h3M4 85h476M0 86h424M425 86h55M0 87h480M0 88h480M0 89h127M128 89h352M0 90h480M0 91h332M333 91h147M0 92h419M420 92h60M0 93h480M0 94h480M0 95h480M0 96h480M0 97h480M0 98h480M0 99h109M110 99h370M0 100h480M0 101h336M337 101h143M0 102h479M0 103h480M0 104h480M0 105h341M342 105h138M0 106h480M0 107h11M12 107h468M0 108h480M0 109h480M0 110h480M0 111h480M0 112h480M0 113h480M0 114h480M0 115h480M0 116h480M0 117h480M0 118h251M252 118h228M0 119h156M157 119h323M0 120h17M18 120h462M0 121h308M309 121h123M433 121h47M0 122h480M0 123h480M0 124h480M0 125h480M0 126h154M155 126h241M397 126h83M0 127h480M0 128h480M0 129h38M39 129h230M270 129h210M0 130h480M0 131h480M0 132h480M0 133h426M427 133h53M0 134h243M244 134h85M330 134h150M0 135h289M290 135h190M0 136h480M0 137h73M74 137h309M384 137h96M0 138h480M0 139h207M208 139h272M0 140h480M0 141h135M136 141h344M0 142h190M191 142h289M0 143h480M0 144h480M0 145h480M0 146h16M17 146h463M0 147h73M74 147h406M0 148h338M339 148h141M0 149h123M124 149h326M451 149h29M0 150h266M267 150h213M0 151h6M7 151h473M0 152h480M0 153h480M0 154h9M10 154h470M0 155h439M440 155h40M0 156h480M0 157h468M469 157h11M0 158h480M0 159h480M0 160h480M0 161h480M0 162h137M138 162h342M0 163h480M0 164h480M0 165h422M423 165h57M0 166h480M0 167h480M0 168h480M0 169h58M59 169h421M0 170h480M0 171h480M0 172h480M0 173h480M0 174h131M132 174h348M0 175h480M0 176h480M0 177h480M0 178h480M0 179h205M206 179h46M253 179h227M0 180h480M0 181h480M0 182h9M10 182h470M0 183h101M102 183h147M250 183h230M0 184h480M0 185h88M89 185h391M0 186h480M0 187h64M65 187h415M0 188h480M0 189h480M0 190h429M430 190h50M0 191h113M114 191h366M0 192h197M198 192h282M0 193h480M0 194h480M0 195h122M123 195h146M270 195h42M313 195h167M0 196h480M0 197h480M0 198h480M0 199h184M185 199h295M0 200h480M0 201h27M28 201h452M0 202h480M0 203h193M194 203h286M0 204h480M0 205h470M471 205h7M479 205h1M0 206h14M15 206h465M0 207h480M0 208h480M0 209h403M404 209h76M0 210h11M12 210h239M252 210h228M0 211h480M0 212h480M0 213h4M5 213h368M374 213h106M0 214h480M0 215h148M149 215h331M0 216h480M0 217h480M0 218h480M0 219h480M0 220h97M98 220h382M0 221h133M134 221h119M254 221h226M0 222h335M336 222h144M0 223h74M75 223h396M472 223h8M0 224h318M319 224h161M0 225h319M320 225h160M0 226h480M0 227h313M314 227h166M0 228h480M0 229h480M0 230h284M285 230h195M0 231h480M0 232h480M0 233h259M260 233h220M0 234h480M0 235h480M0 236h480M0 237h343M344 237h136M0 238h480M0 239h480M0 240h357M358 240h122M0 241h5M6 241h474M0 242h480M0 243h10M11 243h373M385 243h95M0 244h480M0 245h480M0 246h169M170 246h215M386 246h94M0 247h413M414 247h66M0 248h459M460 248h20M0 249h235M236 249h244M0 250h467M468 250h12M0 251h480M0 252h480M0 253h480M0 254h19M20 254h460M0 255h480M0 256h480M0 257h480M0 258h480M0 259h480M0 260h480M0 261h35M36 261h444M0 262h323M324 262h156M0 263h480M0 264h33M34 264h446M0 265h480M0 266h269M270 266h210M0 267h58M59 267h339M399 267h81M0 268h480M0 269h480M0 270h480M0 271h480M0 272h480M0 273h480M0 274h215M216 274h264M0 275h287M288 275h192M0 276h244M245 276h235M0 277h480M0 278h480M0 279h480M0 280h480M0 281h480M0 282h480M0 283h480M0 284h303M304 284h26M331 284h149M0 285h204M205 285h275M0 286h480M0 287h480M0 288h480M0 289h480M0 290h182M183 290h225M409 290h71M0 291h12M13 291h160M174 291h69M244 291h236M0 292h33M34 292h446M0 293h405M406 293h74M0 294h297M298 294h182M0 295h480M0 296h480M0 297h480M0 298h480M0 299h480M0 300h480M0 301h341M342 301h138M0 302h173M174 302h306M0 303h61M62 303h418M0 304h480M0 305h125M126 305h75M202 305h278M0 306h459M460 306h20M0 307h480M0 308h228M229 308h137M367 308h113M0 309h480M0 310h480M0 311h407M408 311h72M0 312h480M0 313h276M277 313h203M0 314h109M110 314h370M0 315h456M457 315h23M0 316h94M95 316h146M242 316h238M0 317h459M460 317h20M0 318h416M417 318h63M0 319h344M345 319h135M0 320h480M0 321h68M69 321h411M0 322h480M0 323h480M0 324h480M0 325h101M102 325h378M0 326h480M0 327h480M0 328h480M0 329h480M0 330h480M0 331h4M5 331h323M329 331h151M0 332h137M138 332h146M285 332h195M0 333h480M0 334h480M0 335h95M96 335h384M0 336h326M327 336h78M406 336h74M0 337h480M0 338h480M0 339h480M0 340h14M15 340h465M0 341h480M0 342h475M476 342h4M0 343h480M0 344h480M0 345h480M0 346h480M0 347h257M258 347h56M315 347h165M0 348h109M110 348h370M0 349h50M51 349h429M0 350h480M0 351h167M168 351h307M476 351h4M0 352h480M0 353h247M248 353h232M0 354h480M0 355h74M75 355h405M0 356h248M249 356h231M0 357h480M0 358h347M348 358h93M442 358h38M0 359h70M71 359h409M0 360h47M48 360h432M0 361h480M0 362h480M0 363h480M0 364h236M237 364h243M0 365h480M0 366h353M354 366h126M0 367h480M0 368h480M0 369h480M0 370h480M0 371h4M5 371h233M239 371h241M0 372h16M17 372h73M91 372h389M0 373h333M334 373h13M348 373h132M0 374h215M216 374h264M0 375h480M0 376h480M0 377h107M108 377h372M0 378h147M148 378h332M0 379h480M0 380h480M0 381h480M0 382h283M284 382h196M0 383h480M0 384h38M39 384h441M0 385h480M0 386h218M219 386h218M438 386h42M0 387h480M0 388h480M0 389h480M0 390h480M0 391h61M62 391h83M146 391h121M268 391h13M282 391h198M0 392h480M0 393h480M0 394h183M184 394h296M0 395h443M444 395h36M0 396h480M0 397h480M0 398h47M48 398h432M0 399h480M0 400h480M0 401h480M0 402h54M55 402h425M0 403h480M0 404h480M0 405h480M0 406h68M69 406h411M0 407h480M0 408h163M164 408h316M0 409h480M0 410h480M0 411h407M408 411h72M0 412h480M0 413h480M0 414h480M0 415h24M25 415h228M254 415h192M447 415h33M0 416h363M364 416h116M0 417h410M411 417h16M428 417h52M0 418h480M0 419h480M0 420h23M24 420h456M0 421h22M23 421h457M0 422h318M319 422h161M0 423h480M0 424h480M0 425h480M0 426h8M9 426h471M0 427h107M108 427h372M0 428h480M0 429h480M0 430h297M298 430h182M0 431h261M262 431h218M0 432h480M0 433h480M0 434h94M95 434h385M0 435h480M0 436h480M0 437h480M0 438h480M0 439h23M24 439h456M0 440h397M398 440h82M0 441h74M75 441h405M0 442h480M0 443h480M0 444h480M0 445h190M191 445h289M0 446h480M0 447h252M253 447h227M0 448h480M0 449h480M0 450h480M0 451h168M169 451h311M0 452h226M227 452h253M0 453h480M0 454h413M414 454h66M0 455h480M0 456h480M0 457h480M0 458h427M428 458h52M0 459h480M0 460h480M0 461h89M90 461h390M0 462h258M259 462h113M373 462h107M0 463h480M0 464h480M0 465h480M0 466h434M435 466h45M0 467h39M40 467h440M0 468h480M0 469h480M0 470h480M0 471h480M0 472h480M0 473h480M0 474h281M282 474h198M0 475h480M0 476h370M371 476h109M0 477h373M374 477h106M0 478h480M0 479h480" />
<path stroke="#9270db" d="M420 0h1M285 1h1M57 3h1M462 7h1M66 11h1M39 15h1M117 35h1M402 36h1M393 50h1M219 57h1M243 75h1M309 84h1M3 85h1M336 101h1M156 119h1M432 121h1M396 126h1M426 133h1M243 134h1M207 139h1M135 141h1M123 149h1M450 149h1M6 151h1M9 154h1M468 157h1M252 179h1M9 182h1M249 183h1M429 190h1M312 195h1M27 201h1M471 223h1M318 224h1M357 240h1M384 243h1M459 248h1M33 264h1M303 284h1M330 284h1M204 285h1M408 290h1M12 291h1M243 291h1M33 292h1M405 293h1M297 294h1M201 305h1M459 306h1M228 308h1M366 308h1M276 313h1M456 315h1M459 317h1M405 336h1M441 358h1M90 372h1M333 373h1M147 378h1M267 391h1M183 394h1M54 402h1M24 415h1M363 416h1M318 422h1M297 430h1M261 431h1M252 447h1M168 451h1M258 462h1M372 462h1M39 467h1" />
<path stroke="#9371db" d="M361 1h1M394 4h1M274 5h1M250 14h1M331 16h1M52 20h1M451 20h1M283 26h1M220 30h1M370 41h1M7 42h1M70 42h1M223 42h1M412 54h1M199 56h1M139 61h1M421 64h1M451 82h1M424 86h1M127 89h1M109 99h1M154 126h1M289 135h1M73 137h1M190 142h1M16 146h1M73 147h1M439 155h1M58 169h1M205 179h1M88 185h1M64 187h1M184 199h1M193 203h1M478 205h1M403 209h1M4 213h1M373 213h1M148 215h1M97 220h1M133 221h1M253 221h1M319 225h1M313 227h1M259 233h1M343 237h1M10 243h1M169 246h1M385 246h1M235 249h1M19 254h1M58 267h1M244 276h1M61 303h1M109 314h1M94 316h1M241 316h1M4 331h1M328 331h1M475 342h1M109 348h1M475 351h1M247 353h1M70 359h1M4 371h1M238 371h1M16 372h1M283 382h1M61 391h1M145 391h1M163 408h1M253 415h1M427 417h1M22 421h1M94 434h1M397 440h1M190 445h1M226 452h1M427 458h1M370 476h1M373 477h1" />
<path stroke="#9370da" d="M464 17h1M26 33h1M182 33h1M104 34h1M398 35h1M98 41h1M422 41h1M167 45h1M365 47h1M125 52h1M440 60h1M470 68h1M8 73h1M290 76h1M332 91h1M419 92h1M479 102h1M341 105h1M11 107h1M251 118h1M17 120h1M308 121h1M38 129h1M269 129h1M329 134h1M383 137h1M338 148h1M266 150h1M137 162h1M422 165h1M131 174h1M101 183h1M113 191h1M197 192h1M122 195h1M269 195h1M470 205h1M14 206h1M11 210h1M251 210h1M335 222h1M74 223h1M284 230h1M5 241h1M413 247h1M467 250h1M35 261h1M323 262h1M269 266h1M398 267h1M215 274h1M287 275h1M182 290h1M173 291h1M341 301h1M173 302h1M125 305h1M407 311h1M416 318h1M344 319h1M68 321h1M101 325h1M137 332h1M284 332h1M95 335h1M326 336h1M14 340h1M257 347h1M314 347h1M50 349h1M167 351h1M74 355h1M248 356h1M347 358h1M47 360h1M236 364h1M353 366h1M347 373h1M215 374h1M107 377h1M38 384h1M218 386h1M437 386h1M281 391h1M443 395h1M47 398h1M68 406h1M407 411h1M446 415h1M410 417h1M23 420h1M8 426h1M107 427h1M23 439h1M74 441h1M413 454h1M89 461h1M434 466h1M281 474h1" />
</svg>