<svg xmlns="http://www.w3.org/2000/svg" viewBox="0 -0.5 480 480" shape-rendering="crispEdges">
<metadata>Made with Pixels to Svg https://codepen.io/shshaw/pen/XbxvNj</metadata>
<path stroke="#e9967a" d="M0 0h160M161 0h28M190 0h290M0 1h452M453 1h27M0 2h480M0 3h480M0 4h480M0 5h480M0 6h44M45 6h435M0 7h426M427 7h53M0 8h480M0 9h480M0 10h480M0 11h480M0 12h480M0 13h480M0 14h332M333 14h147M0 15h480M0 16h246M247 16h233M0 17h480M0 18h480M0 19h480M0 20h74M75 20h60M136 20h344M0 21h480M0 22h480M0 23h183M184 23h296M0 24h176M177 24h41M219 24h256M476 24h4M0 25h397M398 25h82M0 26h480M0 27h480M0 28h480M0 29h364M365 29h115M0 30h21M22 30h458M0 31h275M276 31h204M0 32h308M309 32h171M0 33h480M0 34h75M76 34h404M0 35h259M260 35h220M0 36h10M11 36h469M0 37h480M0 38h480M0 39h480M0 40h270M271 40h209M0 41h347M348 41h132M0 42h480M0 43h10M11 43h254M266 43h214M0 44h480M0 45h59M60 45h209M270 45h210M0 46h462M463 46h17M0 47h480M0 48h480M0 49h471M472 49h8M0 50h480M0 51h288M289 51h91M381 51h99M0 52h299M300 52h121M422 52h58M0 53h91M92 53h388M0 54h480M0 55h480M0 56h480M0 57h480M0 58h480M0 59h248M249 59h231M0 60h480M0 61h480M0 62h65M66 62h384M451 62h29M0 63h480M0 64h177M178 64h229M408 64h72M0 65h275M276 65h204M0 66h293M294 66h156M451 66h29M0 67h334M335 67h145M0 68h480M0 69h480M0 70h480M0 71h25M26 71h454M0 72h480M0 73h480M0 74h480M0 75h480M0 76h99M100 76h380M0 77h480M0 78h480M0 79h480M0 80h473M474 80h6M0 81h480M0 82h480M0 83h214M215 83h265M0 84h480M0 85h179M180 85h300M0 86h480M0 87h92M93 87h387M0 88h405M406 88h74M0 89h4M5 89h50M56 89h424M0 90h119M120 90h360M0 91h480M0 92h480M0 93h480M0 94h480M0 95h480M0 96h480M0 97h480M0 98h291M292 98h188M0 99h230M231 99h91M323 99h157M0 100h212M213 100h267M0 101h480M0 102h480M0 103h96M97 103h183M281 103h34M316 103h164M0 104h480M0 105h145M146 105h334M0 106h165M166 106h310M477 106h3M0 107h210M211 107h269M0 108h461M462 108h18M0 109h334M335 109h145M0 110h480M0 111h150M151 111h329M0 112h480M0 113h218M219 113h261M0 114h480M0 115h480M0 116h114M115 116h365M0 117h480M0 118h119M120 118h360M0 119h150M151 119h329M0 120h20M21 120h80M102 120h378M0 121h480M0 122h480M0 123h243M244 123h236M0 124h480M0 125h427M428 125h52M0 126h480M0 127h480M0 128h5M6 128h47M54 128h426M0 129h480M0 130h480M0 131h427M428 131h52M0 132h480M0 133h480M0 134h480M0 135h480M0 136h44M45 136h398M444 136h36M0 137h373M374 137h106M0 138h480M0 139h22M23 139h457M0 140h480M0 141h476M477 141h3M0 142h78M79 142h401M0 143h195M196 143h284M0 144h112M113 144h367M0 145h480M0 146h156M157 146h323M0 147h480M0 148h480M0 149h480M0 150h480M0 151h480M0 152h480M0 153h480M0 154h177M178 154h302M0 155h480M0 156h480M0 157h480M0 158h284M285 158h172M458 158h22M0 159h480M0 160h370M371 160h109M0 161h188M189 161h240M430 161h50M0 162h480M0 163h480M0 164h480M0 165h273M274 165h206M0 166h480M0 167h480M0 168h480M0 169h366M367 169h113M0 170h480M0 171h480M0 172h480M0 173h480M0 174h480M0 175h480M0 176h178M179 176h184M364 176h116M0 177h422M423 177h57M0 178h480M0 179h480M0 180h130M131 180h23M155 180h83M239 180h241M0 181h43M44 181h436M0 182h101M102 182h378M0 183h480M0 184h480M0 185h480M0 186h480M0 187h480M0 188h356M357 188h123M0 189h480M0 190h480M0 191h480M0 192h476M477 192h3M0 193h416M417 193h63M0 194h480M0 195h270M271 195h209M0 196h480M0 197h480M0 198h480M0 199h480M0 200h425M426 200h54M0 201h480M0 202h75M76 202h404M0 203h293M294 203h186M0 204h217M218 204h258M477 204h3M0 205h89M90 205h390M0 206h480M0 207h81M82 207h398M0 208h480M0 209h480M0 210h306M307 210h77M385 210h95M0 211h63M64 211h316M381 211h99M0 212h75M76 212h404M0 213h472M473 213h7M0 214h480M0 215h480M0 216h480M0 217h480M0 218h255M256 218h224M0 219h221M222 219h258M0 220h480M0 221h281M282 221h198M0 222h480M0 223h480M0 224h467M468 224h12M0 225h241M242 225h238M0 226h480M0 227h410M411 227h69M0 228h480M0 229h480M0 230h480M0 231h96M97 231h77M175 231h305M0 232h480M0 233h480M0 234h17M18 234h283M302 234h178M0 235h480M0 236h90M91 236h148M240 236h139M380 236h100M0 237h480M0 238h480M0 239h287M288 239h192M0 240h480M0 241h480M0 242h480M0 243h480M0 244h480M0 245h480M0 246h193M194 246h22M217 246h263M0 247h74M75 247h96M172 247h198M371 247h109M0 248h480M0 249h31M32 249h448M0 250h67M68 250h412M0 251h374M375 251h105M0 252h480M0 253h480M0 254h277M278 254h202M0 255h480M0 256h441M442 256h38M0 257h480M0 258h480M0 259h480M0 260h131M132 260h348M0 261h372M373 261h107M0 262h480M0 263h116M117 263h363M0 264h36M37 264h408M446 264h34M0 265h480M0 266h480M0 267h249M250 267h230M0 268h480M0 269h480M0 270h480M0 271h13M14 271h466M0 272h480M0 273h31M32 273h240M273 273h207M0 274h97M98 274h382M0 275h480M0 276h298M299 276h181M0 277h480M0 278h480M0 279h480M0 280h480M0 281h147M148 281h332M0 282h329M330 282h150M0 283h348M349 283h123M473 283h7M0 284h267M268 284h212M0 285h480M0 286h480M0 287h480M0 288h480M0 289h355M356 289h124M0 290h480M0 291h318M319 291h161M0 292h480M0 293h234M235 293h245M0 294h480M0 295h480M0 296h180M181 296h299M0 297h480M0 298h480M0 299h480M0 300h480M0 301h480M0 302h242M243 302h237M0 303h480M0 304h480M0 305h480M0 306h12M13 306h101M115 306h365M0 307h480M0 308h480M0 309h480M0 310h480M0 311h480M0 312h480M0 313h480M0 314h480M0 315h419M420 315h60M0 316h480M0 317h480M0 318h480M0 319h245M246 319h234M0 320h480M0 321h480M0 322h376M377 322h103M0 323h480M0 324h480M0 325h480M0 326h480M0 327h141M142 327h338M0 328h269M270 328h210M0 329h480M0 330h222M223 330h257M0 331h480M0 332h403M404 332h76M0 333h244M245 333h235M0 334h480M0 335h480M0 336h480M0 337h480M0 338h480M0 339h97M98 339h376M475 339h5M0 340h480M0 341h480M0 342h480M0 343h371M372 343h108M0 344h450M451 344h29M0 345h480M0 346h480M0 347h480M0 348h344M345 348h135M0 349h480M0 350h380M381 350h99M0 351h480M0 352h480M0 353h247M248 353h232M0 354h480M0 355h288M289 355h38M328 355h152M0 356h222M223 356h257M0 357h480M0 358h480M0 359h480M0 360h36M37 360h443M0 361h480M0 362h53M54 362h33M88 362h392M0 363h480M0 364h55M56 364h424M0 365h480M0 366h480M0 367h480M0 368h480M0 369h150M151 369h329M0 370h480M0 371h355M356 371h124M0 372h229M230 372h250M0 373h165M166 373h198M365 373h115M0 374h480M0 375h480M0 376h98M99 376h381M0 377h480M0 378h480M0 379h348M349 379h104M454 379h26M0 380h480M0 381h480M0 382h277M278 382h202M0 383h480M0 384h45M46 384h434M0 385h480M0 386h480M0 387h480M0 388h480M0 389h25M26 389h248M275 389h78M354 389h126M0 390h480M0 391h480M0 392h480M0 393h480M0 394h63M64 394h416M0 395h480M0 396h480M0 397h71M72 397h408M0 398h480M0 399h480M0 400h353M354 400h126M0 401h480M0 402h480M0 403h480M0 404h480M0 405h480M0 406h234M235 406h245M0 407h480M0 408h480M0 409h288M289 409h179M469 409h11M0 410h480M0 411h480M0 412h336M337 412h38M376 412h101M478 412h2M0 413h480M0 414h303M304 414h121M426 414h54M0 415h480M0 416h480M0 417h480M0 418h480M0 419h480M0 420h310M311 420h169M0 421h288M289 421h148M438 421h42M0 422h178M179 422h301M0 423h480M0 424h283M284 424h196M0 425h480M0 426h480M0 427h297M298 427h167M466 427h14M0 428h188M189 428h291M0 429h480M0 430h480M0 431h480M0 432h480M0 433h480M0 434h416M417 434h63M0 435h480M0 436h313M314 436h166M0 437h31M32 437h448M0 438h275M276 438h204M0 439h480M0 440h150M151 440h25M177 440h303M0 441h480M0 442h182M183 442h297M0 443h24M25 443h455M0 444h480M0 445h480M0 446h205M206 446h274M0 447h178M179 447h33M213 447h267M0 448h480M0 449h480M0 450h155M156 450h324M0 451h480M0 452h480M0 453h480M0 454h480M0 455h480M0 456h480M0 457h480M0 458h480M0 459h480M0 460h75M76 460h12M89 460h391M0 461h480M0 462h192M193 462h287M0 463h480M0 464h480M0 465h478M479 465h1M0 466h413M414 466h66M0 467h480M0 468h480M0 469h480M0 470h480M0 471h39M40 471h440M0 472h480M0 473h278M279 473h7M287 473h193M0 474h480M0 475h480M0 476h171M172 476h308M0 477h480M0 478h480M0 479h95M96 479h357M454 479h26" />
<path stroke="#e9977a" d="M160 0h1M475 24h1M397 25h1M364 29h1M259 35h1M10 36h1M10 43h1M265 43h1M421 52h1M91 53h1M334 67h1M25 71h1M214 83h1M4 89h1M55 89h1M322 99h1M280 103h1M145 105h1M334 109h1M427 125h1M427 131h1M373 137h1M22 139h1M112 144h1M457 158h1M370 160h1M178 176h1M130 180h1M154 180h1M238 180h1M43 181h1M217 204h1M472 213h1M241 225h1M301 234h1M379 236h1M193 246h1M370 247h1M31 249h1M67 250h1M277 254h1M445 264h1M13 271h1M31 273h1M97 274h1M298 276h1M472 283h1M355 289h1M376 322h1M403 332h1M244 333h1M97 339h1M247 353h1M55 364h1M355 371h1M229 372h1M364 373h1M277 382h1M25 389h1M274 389h1M310 420h1M178 422h1M283 424h1M313 436h1M31 437h1M205 446h1M178 447h1M88 460h1M478 465h1M286 473h1" />
<path stroke="#e8967a" d="M189 0h1M426 7h1M246 16h1M135 20h1M183 23h1M21 30h1M75 34h1M270 40h1M462 46h1M471 49h1M288 51h1M450 62h1M177 64h1M450 66h1M99 76h1M405 88h1M291 98h1M96 103h1M315 103h1M165 106h1M210 107h1M150 111h1M114 116h1M150 119h1M243 123h1M78 142h1M195 143h1M156 146h1M177 154h1M429 161h1M273 165h1M366 169h1M363 176h1M270 195h1M75 202h1M81 207h1M306 210h1M384 210h1M63 211h1M75 212h1M255 218h1M96 231h1M174 231h1M90 236h1M216 246h1M171 247h1M441 256h1M372 261h1M36 264h1M249 267h1M147 281h1M348 283h1M267 284h1M318 291h1M234 293h1M180 296h1M12 306h1M114 306h1M141 327h1M222 330h1M474 339h1M450 344h1M288 355h1M327 355h1M222 356h1M36 360h1M87 362h1M150 369h1M165 373h1M348 379h1M453 379h1M45 384h1M63 394h1M234 406h1M288 409h1M468 409h1M336 412h1M375 412h1M477 412h1M303 414h1M288 421h1M297 427h1M465 427h1M150 440h1M24 443h1M75 460h1M192 462h1M39 471h1M171 476h1M453 479h1" />
<path stroke="#e9967b" d="M452 1h1M44 6h1M332 14h1M74 20h1M176 24h1M218 24h1M275 31h1M308 32h1M347 41h1M59 45h1M269 45h1M380 51h1M299 52h1M248 59h1M65 62h1M407 64h1M275 65h1M293 66h1M473 80h1M179 85h1M92 87h1M119 90h1M230 99h1M212 100h1M476 106h1M461 108h1M218 113h1M119 118h1M20 120h1M101 120h1M5 128h1M53 128h1M44 136h1M443 136h1M476 141h1M284 158h1M188 161h1M422 177h1M101 182h1M356 188h1M476 192h1M416 193h1M425 200h1M293 203h1M476 204h1M89 205h1M380 211h1M221 219h1M281 221h1M467 224h1M410 227h1M17 234h1M239 236h1M287 239h1M74 247h1M374 251h1M131 260h1M116 263h1M272 273h1M329 282h1M242 302h1M419 315h1M245 319h1M269 328h1M371 343h1M344 348h1M380 350h1M53 362h1M98 376h1M353 389h1M71 397h1M353 400h1M425 414h1M437 421h1M188 428h1M416 434h1M275 438h1M176 440h1M182 442h1M212 447h1M155 450h1M413 466h1M278 473h1M95 479h1" />
</svg>