<svg xmlns="http://www.w3.org/2000/svg" viewBox="0 -0.5 480 480" shape-rendering="crispEdges">
<metadata>Made with Pixels to Svg https://codepen.io/shshaw/pen/XbxvNj</metadata>
<path stroke="#87ceeb" d="M0 0h480M0 1h40M41 1h439M0 2h80M81 2h399M0 3h480M0 4h161M162 4h318M0 5h480M0 6h480M0 7h480M0 8h480M0 9h54M55 9h425M0 10h480M0 11h292M293 11h187M0 12h480M0 13h298M299 13h181M0 14h480M0 15h480M0 16h480M0 17h480M0 18h413M414 18h66M0 19h480M0 20h198M199 20h281M0 21h480M0 22h303M304 22h176M0 23h105M106 23h374M0 24h480M0 25h480M0 26h480M0 27h480M0 28h374M375 28h105M0 29h480M0 30h480M0 31h214M215 31h265M0 32h480M0 33h480M0 34h250M251 34h229M0 35h197M198 35h282M0 36h480M0 37h480M0 38h480M0 39h480M0 40h480M0 41h480M0 42h434M435 42h45M0 43h480M0 44h480M0 45h480M0 46h260M261 46h219M0 47h480M0 48h480M0 49h480M0 50h288M289 50h191M0 51h19M20 51h460M0 52h480M0 53h480M0 54h242M243 54h237M0 55h149M150 55h330M0 56h77M78 56h402M0 57h215M216 57h262M479 57h1M0 58h21M22 58h458M0 59h129M130 59h76M207 59h273M0 60h266M267 60h213M0 61h480M0 62h480M0 63h299M300 63h126M427 63h53M0 64h270M271 64h209M0 65h480M0 66h411M412 66h68M0 67h18M19 67h461M0 68h480M0 69h258M259 69h118M378 69h102M0 70h480M0 71h364M365 71h115M0 72h330M331 72h149M0 73h480M0 74h480M0 75h12M13 75h467M0 76h480M0 77h480M0 78h480M0 79h480M0 80h480M0 81h480M0 82h480M0 83h480M0 84h480M0 85h480M0 86h27M28 86h452M0 87h480M0 88h480M0 89h480M0 90h136M137 90h343M0 91h203M204 91h276M0 92h265M266 92h214M0 93h480M0 94h58M59 94h421M0 95h237M238 95h29M268 95h212M0 96h4M5 96h475M0 97h480M0 98h480M0 99h480M0 100h480M0 101h54M55 101h41M97 101h383M0 102h38M39 102h441M0 103h480M0 104h5M6 104h474M0 105h478M479 105h1M0 106h480M0 107h480M0 108h30M31 108h449M0 109h480M0 110h480M0 111h480M0 112h480M0 113h311M312 113h168M0 114h480M0 115h480M0 116h29M30 116h450M0 117h137M138 117h181M320 117h160M0 118h480M0 119h480M0 120h328M329 120h151M0 121h480M0 122h34M35 122h445M0 123h480M0 124h480M0 125h315M316 125h149M466 125h14M0 126h480M0 127h199M200 127h280M0 128h290M291 128h189M0 129h480M0 130h480M0 131h480M0 132h480M0 133h253M254 133h88M343 133h123M467 133h13M0 134h411M412 134h68M0 135h480M0 136h480M0 137h46M47 137h298M346 137h134M0 138h304M305 138h175M0 139h258M259 139h29M289 139h191M0 140h345M346 140h134M0 141h83M84 141h396M0 142h44M45 142h435M0 143h412M413 143h67M0 144h480M0 145h282M283 145h197M0 146h480M0 147h327M328 147h152M0 148h480M0 149h199M200 149h280M0 150h480M0 151h480M0 152h70M71 152h409M0 153h480M0 154h67M68 154h364M433 154h47M0 155h480M0 156h336M337 156h143M0 157h480M0 158h348M349 158h131M0 159h480M0 160h480M0 161h480M0 162h280M281 162h199M0 163h157M158 163h77M236 163h24M261 163h219M0 164h305M306 164h174M0 165h411M412 165h68M0 166h480M0 167h480M0 168h480M0 169h170M171 169h309M0 170h480M0 171h480M0 172h480M0 173h480M0 174h180M181 174h299M0 175h480M0 176h480M0 177h480M0 178h480M0 179h45M46 179h405M452 179h28M0 180h273M274 180h206M0 181h480M0 182h480M0 183h14M15 183h465M0 184h480M0 185h480M0 186h411M412 186h68M0 187h480M0 188h480M0 189h480M0 190h53M54 190h124M179 190h301M0 191h480M0 192h83M84 192h85M170 192h310M0 193h480M0 194h480M0 195h302M303 195h177M0 196h480M0 197h480M0 198h18M19 198h461M0 199h93M94 199h239M334 199h146M0 200h480M0 201h480M0 202h227M228 202h252M0 203h480M0 204h480M0 205h163M164 205h316M0 206h187M188 206h292M0 207h71M72 207h104M177 207h303M0 208h480M0 209h480M0 210h61M62 210h418M0 211h480M0 212h480M0 213h480M0 214h314M315 214h165M0 215h414M415 215h65M0 216h480M0 217h241M242 217h238M0 218h463M464 218h16M0 219h480M0 220h480M0 221h480M0 222h480M0 223h307M308 223h125M434 223h46M0 224h480M0 225h191M192 225h288M0 226h244M245 226h235M0 227h480M0 228h480M0 229h480M0 230h480M0 231h480M0 232h480M0 233h178M179 233h301M0 234h101M102 234h378M0 235h427M428 235h52M0 236h480M0 237h480M0 238h480M0 239h152M153 239h243M397 239h83M0 240h480M0 241h480M0 242h480M0 243h480M0 244h61M62 244h31M94 244h228M323 244h157M0 245h480M0 246h80M81 246h399M0 247h480M0 248h480M0 249h480M0 250h99M100 250h69M170 250h310M0 251h260M261 251h219M0 252h480M0 253h480M0 254h398M399 254h81M0 255h167M168 255h179M348 255h62M411 255h69M0 256h67M68 256h412M0 257h480M0 258h480M0 259h480M0 260h480M0 261h480M0 262h480M0 263h480M0 264h480M0 265h333M334 265h146M0 266h480M0 267h480M0 268h480M0 269h480M0 270h480M0 271h236M237 271h243M0 272h153M154 272h326M0 273h480M0 274h341M342 274h138M0 275h480M0 276h299M300 276h83M384 276h96M0 277h480M0 278h480M0 279h84M85 279h395M0 280h480M0 281h76M77 281h403M0 282h480M0 283h480M0 284h89M90 284h390M0 285h91M92 285h388M0 286h480M0 287h345M346 287h134M0 288h25M26 288h454M0 289h480M0 290h480M0 291h480M0 292h480M0 293h435M436 293h44M0 294h15M16 294h464M0 295h174M175 295h305M0 296h46M47 296h340M388 296h92M0 297h480M0 298h399M400 298h10M411 298h69M0 299h480M0 300h49M50 300h430M0 301h480M0 302h480M0 303h480M0 304h480M0 305h12M13 305h316M330 305h150M0 306h480M0 307h480M0 308h134M135 308h277M413 308h67M0 309h152M153 309h231M385 309h95M0 310h172M173 310h307M0 311h480M0 312h480M0 313h403M404 313h76M0 314h480M0 315h480M0 316h480M0 317h122M123 317h93M217 317h263M0 318h138M139 318h341M0 319h480M0 320h480M0 321h346M347 321h133M0 322h3M4 322h476M0 323h480M0 324h57M58 324h422M0 325h480M0 326h480M0 327h480M0 328h480M0 329h480M0 330h480M0 331h342M343 331h137M0 332h480M0 333h342M343 333h137M0 334h480M0 335h402M403 335h77M0 336h480M0 337h480M0 338h480M0 339h480M0 340h480M0 341h480M0 342h435M436 342h44M0 343h56M57 343h218M276 343h52M329 343h151M0 344h156M157 344h323M0 345h480M0 346h480M0 347h447M448 347h32M0 348h360M361 348h119M0 349h224M225 349h6M232 349h248M0 350h480M0 351h456M457 351h23M0 352h480M0 353h480M0 354h20M21 354h459M0 355h480M0 356h228M229 356h251M0 357h480M0 358h92M93 358h387M0 359h422M423 359h57M0 360h480M0 361h480M0 362h480M0 363h480M0 364h480M0 365h480M0 366h156M157 366h323M0 367h480M0 368h276M277 368h28M306 368h174M0 369h480M0 370h480M0 371h480M0 372h480M0 373h74M75 373h267M343 373h137M0 374h480M0 375h480M0 376h76M77 376h403M0 377h480M0 378h191M192 378h288M0 379h480M0 380h480M0 381h480M0 382h275M276 382h204M0 383h480M0 384h17M18 384h462M0 385h480M0 386h480M0 387h480M0 388h37M38 388h442M0 389h480M0 390h480M0 391h17M18 391h462M0 392h480M0 393h480M0 394h131M132 394h348M0 395h480M0 396h480M0 397h480M0 398h480M0 399h141M142 399h338M0 400h480M0 401h480M0 402h28M29 402h451M0 403h480M0 404h130M131 404h323M455 404h25M0 405h222M223 405h257M0 406h480M0 407h480M0 408h480M0 409h480M0 410h327M328 410h108M437 410h43M0 411h480M0 412h374M375 412h105M0 413h480M0 414h271M272 414h80M353 414h127M0 415h480M0 416h480M0 417h386M387 417h93M0 418h480M0 419h480M0 420h480M0 421h480M0 422h480M0 423h121M122 423h358M0 424h480M0 425h480M0 426h17M18 426h391M410 426h70M0 427h480M0 428h94M95 428h14M110 428h370M0 429h95M96 429h384M0 430h428M429 430h51M0 431h480M0 432h480M0 433h480M0 434h11M12 434h416M429 434h51M0 435h340M341 435h139M0 436h480M0 437h38M39 437h441M0 438h219M220 438h260M0 439h69M70 439h410M0 440h480M0 441h480M0 442h480M0 443h480M0 444h480M0 445h480M0 446h121M122 446h358M0 447h480M0 448h480M0 449h480M0 450h382M383 450h97M0 451h300M301 451h179M0 452h480M0 453h480M0 454h480M0 455h234M235 455h210M446 455h34M0 456h480M0 457h480M0 458h480M0 459h221M222 459h258M0 460h480M0 461h480M0 462h480M0 463h285M286 463h194M0 464h480M0 465h480M0 466h480M0 467h23M24 467h374M399 467h81M0 468h480M0 469h480M0 470h141M142 470h177M320 470h160M0 471h235M236 471h244M0 472h368M369 472h111M0 473h251M252 473h228M0 474h257M258 474h222M0 475h480M0 476h459M460 476h20M0 477h124M125 477h355M0 478h304M305 478h175M0 479h79M80 479h7M88 479h56M145 479h138M284 479h28M313 479h167" />
<path stroke="#87cfeb" d="M40 1h1M292 11h1M298 13h1M214 31h1M250 34h1M19 51h1M478 57h1M364 71h1M136 90h1M265 92h1M58 94h1M4 96h1M478 105h1M319 117h1M328 120h1M34 122h1M199 127h1M253 133h1M466 133h1M46 137h1M304 138h1M412 143h1M199 149h1M70 152h1M67 154h1M280 162h1M157 163h1M235 163h1M451 179h1M178 190h1M169 192h1M163 205h1M187 206h1M61 210h1M241 217h1M463 218h1M307 223h1M433 223h1M244 226h1M178 233h1M427 235h1M61 244h1M322 244h1M169 250h1M67 256h1M76 281h1M91 285h1M25 288h1M46 296h1M49 300h1M412 308h1M172 310h1M403 313h1M346 321h1M328 343h1M76 376h1M37 388h1M28 402h1M130 404h1M454 404h1M436 410h1M271 414h1M352 414h1M121 423h1M409 426h1M94 428h1M109 428h1M340 435h1M121 446h1M382 450h1M445 455h1M319 470h1M235 471h1M124 477h1M304 478h1M79 479h1M283 479h1" />
<path stroke="#87ceea" d="M80 2h1M161 4h1M413 18h1M374 28h1M197 35h1M434 42h1M260 46h1M242 54h1M149 55h1M77 56h1M215 57h1M206 59h1M266 60h1M299 63h1M377 69h1M203 91h1M38 102h1M5 104h1M311 113h1M29 116h1M137 117h1M290 128h1M83 141h1M44 142h1M260 163h1M305 164h1M170 169h1M14 183h1M53 190h1M83 192h1M302 195h1M227 202h1M71 207h1M176 207h1M314 214h1M191 225h1M101 234h1M152 239h1M80 246h1M260 251h1M398 254h1M167 255h1M347 255h1M410 255h1M236 271h1M341 274h1M299 276h1M383 276h1M89 284h1M410 298h1M329 305h1M134 308h1M152 309h1M122 317h1M56 343h1M275 343h1M224 349h1M20 354h1M92 358h1M422 359h1M305 368h1M74 373h1M191 378h1M275 382h1M17 384h1M17 391h1M131 394h1M374 412h1M386 417h1M17 426h1M95 429h1M428 430h1M11 434h1M428 434h1M38 437h1M221 459h1M23 467h1M398 467h1M368 472h1M251 473h1M257 474h1" />
<path stroke="#86ceeb" d="M54 9h1M198 20h1M303 22h1M105 23h1M288 50h1M21 58h1M129 59h1M426 63h1M270 64h1M411 66h1M18 67h1M258 69h1M330 72h1M12 75h1M27 86h1M237 95h1M267 95h1M54 101h1M96 101h1M30 108h1M315 125h1M465 125h1M342 133h1M411 134h1M345 137h1M258 139h1M288 139h1M345 140h1M282 145h1M327 147h1M432 154h1M336 156h1M348 158h1M411 165h1M180 174h1M45 179h1M273 180h1M411 186h1M18 198h1M93 199h1M333 199h1M414 215h1M396 239h1M93 244h1M99 250h1M333 265h1M153 272h1M84 279h1M345 287h1M435 293h1M15 294h1M174 295h1M387 296h1M399 298h1M12 305h1M384 309h1M216 317h1M138 318h1M3 322h1M57 324h1M342 331h1M342 333h1M402 335h1M435 342h1M156 344h1M447 347h1M360 348h1M231 349h1M456 351h1M228 356h1M156 366h1M276 368h1M342 373h1M141 399h1M222 405h1M327 410h1M219 438h1M69 439h1M300 451h1M234 455h1M285 463h1M141 470h1M459 476h1M87 479h1M144 479h1M312 479h1" />
</svg>