<svg xmlns="http://www.w3.org/2000/svg" viewBox="0 -0.5 480 480" shape-rendering="crispEdges">
<metadata>Made with Pixels to Svg https://codepen.io/shshaw/pen/XbxvNj</metadata>
<path stroke="#857e89" d="M0 0h174M175 0h305M0 1h480M0 2h135M136 2h344M0 3h219M220 3h260M0 4h480M0 5h38M39 5h441M0 6h439M440 6h40M0 7h480M0 8h36M37 8h443M0 9h480M0 10h395M396 10h84M0 11h480M0 12h299M300 12h180M0 13h480M0 14h480M0 15h480M0 16h215M216 16h63M280 16h95M376 16h104M0 17h216M217 17h263M0 18h480M0 19h480M0 20h480M0 21h311M312 21h168M0 22h161M162 22h318M0 23h229M230 23h250M0 24h480M0 25h119M120 25h360M0 26h475M476 26h4M0 27h305M306 27h174M0 28h480M0 29h480M0 30h77M78 30h158M237 30h79M317 30h163M0 31h480M0 32h144M145 32h286M432 32h48M0 33h270M271 33h209M0 34h480M0 35h76M77 35h403M0 36h408M409 36h31M441 36h39M0 37h480M0 38h337M338 38h142M0 39h480M0 40h480M0 41h480M0 42h480M0 43h143M144 43h336M0 44h480M0 45h480M0 46h480M0 47h9M10 47h333M344 47h136M0 48h480M0 49h480M0 50h480M0 51h435M436 51h44M0 52h480M0 53h470M471 53h9M0 54h309M310 54h170M0 55h208M209 55h246M456 55h24M0 56h480M0 57h480M0 58h480M0 59h346M347 59h133M0 60h384M385 60h88M474 60h6M0 61h141M142 61h10M153 61h327M0 62h317M318 62h162M0 63h480M0 64h288M289 64h191M0 65h480M0 66h480M0 67h480M0 68h480M0 69h480M0 70h152M153 70h327M0 71h52M53 71h427M0 72h480M0 73h401M402 73h78M0 74h480M0 75h480M0 76h480M0 77h276M277 77h203M0 78h480M0 79h480M1 80h371M373 80h107M0 81h480M0 82h480M0 83h480M0 84h480M0 85h480M0 86h480M0 87h480M0 88h480M0 89h480M0 90h275M276 90h131M408 90h72M0 91h480M0 92h477M478 92h2M0 93h480M0 94h480M0 95h185M186 95h20M207 95h273M0 96h480M0 97h480M0 98h108M109 98h371M0 99h480M0 100h312M313 100h166M0 101h480M0 102h196M197 102h283M0 103h480M0 104h480M0 105h480M0 106h480M0 107h60M61 107h419M0 108h480M0 109h480M0 110h417M418 110h62M0 111h430M431 111h49M0 112h480M0 113h373M374 113h106M0 114h480M0 115h480M0 116h480M0 117h159M160 117h320M0 118h200M201 118h279M0 119h480M0 120h133M134 120h87M222 120h258M0 121h480M0 122h480M0 123h480M0 124h480M0 125h230M231 125h49M281 125h199M0 126h480M0 127h275M276 127h204M0 128h480M0 129h365M366 129h114M0 130h480M0 131h286M287 131h193M0 132h353M354 132h126M0 133h480M0 134h480M0 135h480M0 136h480M0 137h480M0 138h480M0 139h480M0 140h271M272 140h208M0 141h251M252 141h228M0 142h105M106 142h374M0 143h480M0 144h227M228 144h252M0 145h480M0 146h480M0 147h96M97 147h189M287 147h193M0 148h480M0 149h480M0 150h480M0 151h480M0 152h480M0 153h480M0 154h480M0 155h72M73 155h225M299 155h181M0 156h281M282 156h102M385 156h95M0 157h480M0 158h480M0 159h480M1 160h281M283 160h197M0 161h134M135 161h345M0 162h480M0 163h480M0 164h480M0 165h480M0 166h480M0 167h480M0 168h480M0 169h480M0 170h193M194 170h286M0 171h480M0 172h94M95 172h385M0 173h35M36 173h38M75 173h405M0 174h89M90 174h390M0 175h480M0 176h201M202 176h128M331 176h149M0 177h480M0 178h398M399 178h81M0 179h480M0 180h25M26 180h103M130 180h350M0 181h11M12 181h108M121 181h74M196 181h284M0 182h480M0 183h480M0 184h160M161 184h319M0 185h480M0 186h480M0 187h480M0 188h480M0 189h315M316 189h164M0 190h343M344 190h136M0 191h480M0 192h480M0 193h480M0 194h319M320 194h160M0 195h383M384 195h96M0 196h217M218 196h51M270 196h210M0 197h133M134 197h346M0 198h480M0 199h274M275 199h205M0 200h379M380 200h100M0 201h144M145 201h335M0 202h331M332 202h148M0 203h480M0 204h159M160 204h133M294 204h99M394 204h45M440 204h40M0 205h309M310 205h170M0 206h480M0 207h303M304 207h176M0 208h480M0 209h480M0 210h480M0 211h480M0 212h242M243 212h237M0 213h52M53 213h427M0 214h120M121 214h141M263 214h171M435 214h45M0 215h480M0 216h480M0 217h330M331 217h149M0 218h480M0 219h107M108 219h127M236 219h244M0 220h480M0 221h480M0 222h480M0 223h345M346 223h134M0 224h480M0 225h265M266 225h214M0 226h5M6 226h474M0 227h480M0 228h394M395 228h85M0 229h480M0 230h409M410 230h70M0 231h480M0 232h480M0 233h246M247 233h233M0 234h237M238 234h3M242 234h238M0 235h15M16 235h464M0 236h218M219 236h7M227 236h253M0 237h245M246 237h234M0 238h480M0 239h480M0 240h197M198 240h104M303 240h177M0 241h480M0 242h480M0 243h96M97 243h278M376 243h104M0 244h480M0 245h129M130 245h108M239 245h123M363 245h117M0 246h480M0 247h480M0 248h93M94 248h13M108 248h31M140 248h340M0 249h480M0 250h121M122 250h358M0 251h480M0 252h213M214 252h266M0 253h392M393 253h87M0 254h480M0 255h316M317 255h163M0 256h480M0 257h300M301 257h179M0 258h2M3 258h466M470 258h10M0 259h168M169 259h311M0 260h480M0 261h345M346 261h134M0 262h480M0 263h480M0 264h480M0 265h480M0 266h480M0 267h344M345 267h135M0 268h446M447 268h33M0 269h480M0 270h480M0 271h480M0 272h480M0 273h314M315 273h165M0 274h480M0 275h480M0 276h480M0 277h480M0 278h480M0 279h96M97 279h293M391 279h89M0 280h480M0 281h105M106 281h22M129 281h351M0 282h480M0 283h23M24 283h204M229 283h251M0 284h480M0 285h480M0 286h40M41 286h439M0 287h480M0 288h455M456 288h24M0 289h480M0 290h435M436 290h44M0 291h480M0 292h66M67 292h413M0 293h480M0 294h202M203 294h277M0 295h480M0 296h71M72 296h408M0 297h480M0 298h300M301 298h179M0 299h100M101 299h379M0 300h75M76 300h404M0 301h480M0 302h380M381 302h99M0 303h94M95 303h385M0 304h480M0 305h156M157 305h206M364 305h116M0 306h64M65 306h415M0 307h378M379 307h101M0 308h29M30 308h450M0 309h480M0 310h480M0 311h480M0 312h480M0 313h383M384 313h96M0 314h285M286 314h194M0 315h480M0 316h480M0 317h466M467 317h13M0 318h480M0 319h480M1 320h5M7 320h473M0 321h480M0 322h480M0 323h480M0 324h480M0 325h480M0 326h393M394 326h86M0 327h480M0 328h119M120 328h360M0 329h199M200 329h149M350 329h24M375 329h59M435 329h45M0 330h64M65 330h415M0 331h480M0 332h480M0 333h480M0 334h480M0 335h480M0 336h480M0 337h159M160 337h320M0 338h480M0 339h480M0 340h480M0 341h480M0 342h79M80 342h361M442 342h38M0 343h480M0 344h480M0 345h480M0 346h480M0 347h131M132 347h348M0 348h12M13 348h467M0 349h480M0 350h50M51 350h382M434 350h46M0 351h356M357 351h123M0 352h33M34 352h446M0 353h480M0 354h480M0 355h204M205 355h275M0 356h480M0 357h247M248 357h232M0 358h480M0 359h480M0 360h480M0 361h480M0 362h277M278 362h81M360 362h30M391 362h89M0 363h480M0 364h480M0 365h480M0 366h480M0 367h480M0 368h320M321 368h159M0 369h46M47 369h433M0 370h480M0 371h480M0 372h379M380 372h100M0 373h406M407 373h5M413 373h67M0 374h480M0 375h480M0 376h480M0 377h480M0 378h480M0 379h109M110 379h370M0 380h292M293 380h187M0 381h480M0 382h480M0 383h20M21 383h459M0 384h456M457 384h23M0 385h67M68 385h412M0 386h480M0 387h480M0 388h35M36 388h444M0 389h480M0 390h480M0 391h287M288 391h106M395 391h85M0 392h480M0 393h32M33 393h447M0 394h319M320 394h98M419 394h61M0 395h67M68 395h412M0 396h314M315 396h116M432 396h48M0 397h480M0 398h480M0 399h480M0 400h480M0 401h278M279 401h201M0 402h366M367 402h113M0 403h480M0 404h427M428 404h52M0 405h480M0 406h480M0 407h237M238 407h242M0 408h480M0 409h398M399 409h81M0 410h480M0 411h480M0 412h480M0 413h480M0 414h480M0 415h268M269 415h211M0 416h16M17 416h463M0 417h101M102 417h378M0 418h480M0 419h480M0 420h317M318 420h162M0 421h179M180 421h300M0 422h480M0 423h480M0 424h480M0 425h480M0 426h105M106 426h374M0 427h132M133 427h347M0 428h241M242 428h238M0 429h480M0 430h480M0 431h480M0 432h480M0 433h480M0 434h480M0 435h480M0 436h480M0 437h159M160 437h320M0 438h114M115 438h365M0 439h480M0 440h480M0 441h480M0 442h385M386 442h94M0 443h480M0 444h480M0 445h480M0 446h373M374 446h106M0 447h480M0 448h480M0 449h480M0 450h480M0 451h480M0 452h131M132 452h348M0 453h146M147 453h333M0 454h480M0 455h480M0 456h480M0 457h480M0 458h319M320 458h160M0 459h480M0 460h480M0 461h480M0 462h249M250 462h230M0 463h480M0 464h4M5 464h475M0 465h480M0 466h480M0 467h480M0 468h480M0 469h98M99 469h60M160 469h320M0 470h31M32 470h448M0 471h124M125 471h355M0 472h480M0 473h480M0 474h480M0 475h10M11 475h469M0 476h480M0 477h480M0 478h480M0 479h480" />
<path stroke="#847e89" d="M174 0h1M135 2h1M219 3h1M36 8h1M279 16h1M375 16h1M216 17h1M144 32h1M270 33h1M408 36h1M9 47h1M435 51h1M309 54h1M384 60h1M141 61h1M288 64h1M276 77h1M0 80h1M372 80h1M477 92h1M108 98h1M312 100h1M60 107h1M417 110h1M159 117h1M105 142h1M96 147h1M72 155h1M384 156h1M0 160h1M282 160h1M201 176h1M330 176h1M129 180h1M120 181h1M195 181h1M315 189h1M144 201h1M159 204h1M393 204h1M309 205h1M303 207h1M120 214h1M330 217h1M345 223h1M246 233h1M237 234h1M15 235h1M96 243h1M375 243h1M129 245h1M93 248h1M213 252h1M300 257h1M168 259h1M345 261h1M96 279h1M390 279h1M105 281h1M228 283h1M435 290h1M66 292h1M300 298h1M75 300h1M156 305h1M363 305h1M378 307h1M285 314h1M0 320h1M6 320h1M393 326h1M159 337h1M441 342h1M12 348h1M33 352h1M204 355h1M390 362h1M456 384h1M366 402h1M237 407h1M105 426h1M132 427h1M159 437h1M114 438h1M249 462h1M159 469h1" />
<path stroke="#857e88" d="M38 5h1M395 10h1M299 12h1M215 16h1M311 21h1M161 22h1M119 25h1M305 27h1M77 30h1M236 30h1M431 32h1M440 36h1M143 43h1M470 53h1M455 55h1M473 60h1M152 61h1M317 62h1M152 70h1M401 73h1M275 90h1M407 90h1M185 95h1M206 95h1M479 100h1M200 118h1M221 120h1M230 125h1M275 127h1M365 129h1M353 132h1M251 141h1M227 144h1M281 156h1M134 161h1M35 173h1M74 173h1M89 174h1M398 178h1M11 181h1M383 195h1M269 196h1M293 204h1M242 212h1M434 214h1M107 219h1M5 226h1M218 236h1M245 237h1M197 240h1M302 240h1M362 245h1M107 248h1M392 253h1M2 258h1M344 267h1M446 268h1M314 273h1M128 281h1M23 283h1M455 288h1M71 296h1M380 302h1M29 308h1M383 313h1M119 328h1M374 329h1M434 329h1M131 347h1M50 350h1M356 351h1M359 362h1M320 368h1M20 383h1M35 388h1M287 391h1M32 393h1M314 396h1M431 396h1M278 401h1M398 409h1M101 417h1M317 420h1M179 421h1M131 452h1M146 453h1M98 469h1" />
<path stroke="#857f89" d="M439 6h1M229 23h1M475 26h1M316 30h1M76 35h1M337 38h1M343 47h1M208 55h1M346 59h1M52 71h1M196 102h1M430 111h1M373 113h1M133 120h1M280 125h1M286 131h1M271 140h1M286 147h1M298 155h1M193 170h1M94 172h1M25 180h1M160 184h1M343 190h1M319 194h1M217 196h1M133 197h1M274 199h1M379 200h1M331 202h1M439 204h1M52 213h1M262 214h1M235 219h1M265 225h1M394 228h1M409 230h1M241 234h1M226 236h1M238 245h1M139 248h1M121 250h1M316 255h1M469 258h1M40 286h1M202 294h1M100 299h1M94 303h1M64 306h1M466 317h1M199 329h1M349 329h1M64 330h1M79 342h1M433 350h1M247 357h1M277 362h1M46 369h1M379 372h1M406 373h1M412 373h1M109 379h1M292 380h1M67 385h1M394 391h1M319 394h1M418 394h1M67 395h1M427 404h1M268 415h1M16 416h1M241 428h1M385 442h1M373 446h1M319 458h1M4 464h1M31 470h1M124 471h1M10 475h1" />
</svg>