<svg xmlns="http://www.w3.org/2000/svg" viewBox="0 -0.5 480 480" shape-rendering="crispEdges">
<metadata>Made with Pixels to Svg https://codepen.io/shshaw/pen/XbxvNj</metadata>
<path stroke="#40e0d0" d="M0 0h480M0 1h96M97 1h383M0 2h480M0 3h480M0 4h480M0 5h267M268 5h192M461 5h19M0 6h480M0 7h480M0 8h425M426 8h54M0 9h480M0 10h114M115 10h89M205 10h275M0 11h55M56 11h385M442 11h38M0 12h480M0 13h44M45 13h307M353 13h127M0 14h244M245 14h235M0 15h44M45 15h435M0 16h480M0 17h480M0 18h480M0 19h243M244 19h236M0 20h409M410 20h18M429 20h51M0 21h480M0 22h111M112 22h368M0 23h480M0 24h480M0 25h480M0 26h37M38 26h51M90 26h390M0 27h343M344 27h136M0 28h477M478 28h2M0 29h480M0 30h480M0 31h480M0 32h410M411 32h69M0 33h351M352 33h128M0 34h480M0 35h480M0 36h101M102 36h378M0 37h480M0 38h397M398 38h82M0 39h7M8 39h107M116 39h20M137 39h343M0 40h316M317 40h163M0 41h480M0 42h480M0 43h480M0 44h223M224 44h256M0 45h480M0 46h480M0 47h480M0 48h395M396 48h84M0 49h480M0 50h480M0 51h61M62 51h14M77 51h403M0 52h480M0 53h361M362 53h118M0 54h480M0 55h480M0 56h480M0 57h480M0 58h13M14 58h466M0 59h73M74 59h406M0 60h480M0 61h435M436 61h44M0 62h480M0 63h81M82 63h398M0 64h464M465 64h15M0 65h480M0 66h480M0 67h222M223 67h257M0 68h207M208 68h272M0 69h480M0 70h480M0 71h480M0 72h480M0 73h480M0 74h480M0 75h42M43 75h437M0 76h480M0 77h179M180 77h300M0 78h231M232 78h40M273 78h207M0 79h228M229 79h251M0 80h238M239 80h130M370 80h110M0 81h152M153 81h327M0 82h480M0 83h480M0 84h480M0 85h480M0 86h41M42 86h378M421 86h59M0 87h480M0 88h38M39 88h408M448 88h32M0 89h273M274 89h206M0 90h480M0 91h480M0 92h480M0 93h87M88 93h392M0 94h480M0 95h480M0 96h480M0 97h311M312 97h168M0 98h166M167 98h313M0 99h480M0 100h480M0 101h480M0 102h153M154 102h326M0 103h55M56 103h205M262 103h31M294 103h186M0 104h480M0 105h422M423 105h57M0 106h480M0 107h480M0 108h480M0 109h417M418 109h62M0 110h480M0 111h480M0 112h480M0 113h480M0 114h239M240 114h240M0 115h480M0 116h480M0 117h480M0 118h423M424 118h56M0 119h118M119 119h208M328 119h152M0 120h480M0 121h480M0 122h390M391 122h89M0 123h93M94 123h296M391 123h89M0 124h480M0 125h480M0 126h42M43 126h313M357 126h123M0 127h359M360 127h120M0 128h480M0 129h146M147 129h333M0 130h480M0 131h7M8 131h472M0 132h480M0 133h480M0 134h382M383 134h97M0 135h425M426 135h54M0 136h116M117 136h169M287 136h193M0 137h51M52 137h428M0 138h480M0 139h480M0 140h92M93 140h387M0 141h480M0 142h480M0 143h480M0 144h480M0 145h480M0 146h168M169 146h311M0 147h480M0 148h97M98 148h382M0 149h480M0 150h219M220 150h260M0 151h480M0 152h480M0 153h171M172 153h308M0 154h480M0 155h480M0 156h255M256 156h224M0 157h480M0 158h457M458 158h22M0 159h375M376 159h104M0 160h480M0 161h480M0 162h480M0 163h147M148 163h332M0 164h480M0 165h480M0 166h480M0 167h480M0 168h480M0 169h480M0 170h359M360 170h120M0 171h480M0 172h480M0 173h480M0 174h480M0 175h378M379 175h101M0 176h480M0 177h480M0 178h480M0 179h149M150 179h53M204 179h276M0 180h480M0 181h344M345 181h135M0 182h39M40 182h440M0 183h480M0 184h186M187 184h293M0 185h480M0 186h174M175 186h305M0 187h480M0 188h480M0 189h68M69 189h367M437 189h43M0 190h452M453 190h27M0 191h176M177 191h303M0 192h24M25 192h451M477 192h3M0 193h480M0 194h480M0 195h142M143 195h337M0 196h480M0 197h480M0 198h480M0 199h480M0 200h145M146 200h334M0 201h480M0 202h480M0 203h480M0 204h480M0 205h256M257 205h185M443 205h37M0 206h172M173 206h132M306 206h174M0 207h480M0 208h480M0 209h480M0 210h402M403 210h77M0 211h106M107 211h241M349 211h131M0 212h480M0 213h11M12 213h468M0 214h480M0 215h480M0 216h480M0 217h480M0 218h480M0 219h122M123 219h357M0 220h480M0 221h421M422 221h58M0 222h480M0 223h480M0 224h480M0 225h480M0 226h480M0 227h480M0 228h480M0 229h480M0 230h480M0 231h480M0 232h480M0 233h480M0 234h480M0 235h245M246 235h234M0 236h480M0 237h367M368 237h112M0 238h480M0 239h174M175 239h305M0 240h288M289 240h191M0 241h480M0 242h480M0 243h318M319 243h161M0 244h480M0 245h480M0 246h416M417 246h63M0 247h161M162 247h318M0 248h480M0 249h45M46 249h434M0 250h480M0 251h480M0 252h480M0 253h232M233 253h247M0 254h381M382 254h98M0 255h480M0 256h233M234 256h69M304 256h111M416 256h64M0 257h378M379 257h101M0 258h480M0 259h480M0 260h59M60 260h420M0 261h150M151 261h329M0 262h480M0 263h480M0 264h480M0 265h114M115 265h199M315 265h165M0 266h480M0 267h480M0 268h480M0 269h214M215 269h61M277 269h203M0 270h480M0 271h229M230 271h250M0 272h115M116 272h364M0 273h480M0 274h103M104 274h376M0 275h480M0 276h480M0 277h480M0 278h480M0 279h480M0 280h210M211 280h269M0 281h334M335 281h145M0 282h480M0 283h20M21 283h459M0 284h376M377 284h103M0 285h480M0 286h480M0 287h480M0 288h96M97 288h383M0 289h83M84 289h396M0 290h45M46 290h434M0 291h480M0 292h126M127 292h210M338 292h142M0 293h181M182 293h298M0 294h480M0 295h480M0 296h480M0 297h119M120 297h333M454 297h26M0 298h480M0 299h299M300 299h180M0 300h480M0 301h64M65 301h415M0 302h480M0 303h480M0 304h480M0 305h218M219 305h261M0 306h173M174 306h306M0 307h191M192 307h288M0 308h480M0 309h238M239 309h241M0 310h203M204 310h73M278 310h202M0 311h185M186 311h294M0 312h480M0 313h84M85 313h395M0 314h480M0 315h136M137 315h343M0 316h57M58 316h422M0 317h480M0 318h127M128 318h352M0 319h53M54 319h373M428 319h52M0 320h137M138 320h342M0 321h480M0 322h480M0 323h281M282 323h198M0 324h480M0 325h272M273 325h207M0 326h480M0 327h480M0 328h165M166 328h314M0 329h411M412 329h68M0 330h480M0 331h19M20 331h163M184 331h296M0 332h480M0 333h480M0 334h480M0 335h480M0 336h441M442 336h38M0 337h480M0 338h480M0 339h480M0 340h480M0 341h238M239 341h241M0 342h65M66 342h414M0 343h480M0 344h480M0 345h480M0 346h183M184 346h296M0 347h314M315 347h165M0 348h480M0 349h480M0 350h251M252 350h228M0 351h476M477 351h3M0 352h419M420 352h60M0 353h480M0 354h106M107 354h96M204 354h262M467 354h13M0 355h480M0 356h480M0 357h480M0 358h480M0 359h480M0 360h144M145 360h335M0 361h185M186 361h44M231 361h249M0 362h480M0 363h208M209 363h111M321 363h159M0 364h78M79 364h401M0 365h254M255 365h225M0 366h480M0 367h480M0 368h151M152 368h328M0 369h480M0 370h480M0 371h480M0 372h333M334 372h146M0 373h480M0 374h480M0 375h480M0 376h204M205 376h275M0 377h480M0 378h181M182 378h185M368 378h112M0 379h392M393 379h87M0 380h90M91 380h337M429 380h51M0 381h367M368 381h112M0 382h480M0 383h480M0 384h48M49 384h431M0 385h480M0 386h221M222 386h258M0 387h370M371 387h109M0 388h299M300 388h180M0 389h480M0 390h480M0 391h349M350 391h130M0 392h281M282 392h198M0 393h389M390 393h90M0 394h457M458 394h22M0 395h480M0 396h2M3 396h477M0 397h480M0 398h480M0 399h338M339 399h141M0 400h480M0 401h380M381 401h99M0 402h480M0 403h480M0 404h480M0 405h145M146 405h334M0 406h480M0 407h480M0 408h18M19 408h201M221 408h259M0 409h480M0 410h480M0 411h32M33 411h447M0 412h345M346 412h134M0 413h480M0 414h306M307 414h173M0 415h480M0 416h480M0 417h480M0 418h480M0 419h480M0 420h332M333 420h147M0 421h285M286 421h194M0 422h480M0 423h480M0 424h103M104 424h376M0 425h480M0 426h290M291 426h189M0 427h480M0 428h480M0 429h54M55 429h128M184 429h296M0 430h423M424 430h56M0 431h480M0 432h480M0 433h480M0 434h480M0 435h480M0 436h140M141 436h339M0 437h228M229 437h251M0 438h480M0 439h480M0 440h480M0 441h146M147 441h333M0 442h46M47 442h433M0 443h480M0 444h480M0 445h480M0 446h480M0 447h480M0 448h480M0 449h480M0 450h480M0 451h354M355 451h125M0 452h51M52 452h428M0 453h424M425 453h55M0 454h267M268 454h63M332 454h148M0 455h480M0 456h480M0 457h480M0 458h480M0 459h109M110 459h370M0 460h480M0 461h480M0 462h226M227 462h253M0 463h480M0 464h480M0 465h480M0 466h480M0 467h480M0 468h480M0 469h480M0 470h480M0 471h31M32 471h448M0 472h480M0 473h480M0 474h480M0 475h480M0 476h480M0 477h480M0 478h480M0 479h480" />
<path stroke="#41e0d0" d="M96 1h1M267 5h1M114 10h1M204 10h1M441 11h1M243 19h1M111 22h1M477 28h1M351 33h1M435 61h1M81 63h1M222 67h1M207 68h1M42 75h1M231 78h1M228 79h1M369 80h1M420 86h1M447 88h1M273 89h1M87 93h1M153 102h1M261 103h1M417 109h1M423 118h1M327 119h1M390 122h1M93 123h1M390 123h1M42 126h1M51 137h1M168 146h1M219 150h1M171 153h1M255 156h1M375 159h1M147 163h1M378 175h1M39 182h1M186 184h1M174 186h1M24 192h1M402 210h1M348 211h1M174 239h1M288 240h1M318 243h1M45 249h1M381 254h1M303 256h1M378 257h1M150 261h1M114 265h1M276 269h1M210 280h1M96 288h1M45 290h1M126 292h1M453 297h1M84 313h1M57 316h1M165 328h1M411 329h1M183 331h1M441 336h1M183 346h1M144 360h1M78 364h1M333 372h1M204 376h1M90 380h1M48 384h1M18 408h1M345 412h1M306 414h1M285 421h1M54 429h1M183 429h1M423 430h1M228 437h1M354 451h1M51 452h1M267 454h1" />
<path stroke="#40e1d0" d="M460 5h1M55 11h1M352 13h1M244 14h1M409 20h1M37 26h1M343 27h1M397 38h1M7 39h1M115 39h1M136 39h1M316 40h1M223 44h1M61 51h1M76 51h1M361 53h1M13 58h1M73 59h1M238 80h1M166 98h1M55 103h1M118 119h1M7 131h1M382 134h1M286 136h1M97 148h1M457 158h1M436 189h1M142 195h1M145 200h1M256 205h1M442 205h1M172 206h1M106 211h1M421 221h1M367 237h1M232 253h1M415 256h1M214 269h1M229 271h1M115 272h1M103 274h1M334 281h1M376 284h1M337 292h1M181 293h1M64 301h1M238 309h1M277 310h1M136 315h1M127 318h1M427 319h1M19 331h1M238 341h1M106 354h1M466 354h1M208 363h1M151 368h1M181 378h1M367 378h1M367 381h1M370 387h1M349 391h1M457 394h1M145 405h1M220 408h1M103 424h1M46 442h1M424 453h1M331 454h1M109 459h1M226 462h1M31 471h1" />
<path stroke="#40e0d1" d="M425 8h1M44 13h1M44 15h1M428 20h1M89 26h1M410 32h1M101 36h1M395 48h1M464 64h1M179 77h1M272 78h1M152 81h1M41 86h1M38 88h1M311 97h1M293 103h1M422 105h1M239 114h1M356 126h1M359 127h1M146 129h1M425 135h1M116 136h1M92 140h1M359 170h1M149 179h1M203 179h1M344 181h1M68 189h1M452 190h1M176 191h1M476 192h1M305 206h1M11 213h1M122 219h1M245 235h1M416 246h1M161 247h1M233 256h1M59 260h1M314 265h1M20 283h1M83 289h1M119 297h1M299 299h1M218 305h1M173 306h1M191 307h1M203 310h1M185 311h1M53 319h1M137 320h1M281 323h1M272 325h1M65 342h1M314 347h1M251 350h1M476 351h1M419 352h1M203 354h1M185 361h1M230 361h1M320 363h1M254 365h1M392 379h1M428 380h1M221 386h1M299 388h1M281 392h1M389 393h1M2 396h1M338 399h1M380 401h1M32 411h1M332 420h1M290 426h1M140 436h1M146 441h1" />
</svg>