<svg xmlns="http://www.w3.org/2000/svg" viewBox="0 -0.5 480 480" shape-rendering="crispEdges">
<metadata>Made with Pixels to Svg https://codepen.io/shshaw/pen/XbxvNj</metadata>
<path stroke="#000000" d="M200 210h60M200 211h60M200 212h60M200 213h53M254 213h6M200 214h60M200 215h60M200 216h60M200 217h60M200 218h60M200 219h60M190 220h10M260 220h30M190 221h10M260 221h30M190 222h10M260 222h30M190 223h10M260 223h30M190 224h10M260 224h30M190 225h10M260 225h30M190 226h10M260 226h30M190 227h10M260 227h30M190 228h10M260 228h30M190 229h10M260 229h30M180 230h10M290 230h10M180 231h10M290 231h10M180 232h10M290 232h10M180 233h10M290 233h10M180 234h10M290 234h10M180 235h10M290 235h10M180 236h10M290 236h10M180 237h10M290 237h10M180 238h10M290 238h10M180 239h10M290 239h10M170 240h10M300 240h10M170 241h10M300 241h10M170 242h10M300 242h10M170 243h10M300 243h10M170 244h10M300 244h10M170 245h10M300 245h10M170 246h10M300 246h10M170 247h10M300 247h10M170 248h10M300 248h10M170 249h10M300 249h10M160 250h10M310 250h10M160 251h10M310 251h10M160 252h10M310 252h10M160 253h10M310 253h10M160 254h10M310 254h10M160 255h10M310 255h10M160 256h10M310 256h10M160 257h10M310 257h10M160 258h10M310 258h10M160 259h10M310 259h10M160 260h10M310 260h10M160 261h10M310 261h10M160 262h10M310 262h10M160 263h10M310 263h10M160 264h10M310 264h10M160 265h10M310 265h10M160 266h10M310 266h10M160 267h10M310 267h10M160 268h10M310 268h10M160 269h10M310 269h10M160 270h10M210 270h20M250 270h20M310 270h10M160 271h10M210 271h20M250 271h6M257 271h13M310 271h10M160 272h10M210 272h20M250 272h20M310 272h10M160 273h10M210 273h20M250 273h20M310 273h10M160 274h10M210 274h20M250 274h20M310 274h10M160 275h10M210 275h20M250 275h20M310 275h10M160 276h10M210 276h20M250 276h20M310 276h10M160 277h10M210 277h20M250 277h20M310 277h10M160 278h10M210 278h20M250 278h20M310 278h10M160 279h9M210 279h20M250 279h20M310 279h10M160 280h10M310 280h10M160 281h10M310 281h10M160 282h10M310 282h10M160 283h10M310 283h10M160 284h10M310 284h10M160 285h10M310 285h10M160 286h10M310 286h10M160 287h10M310 287h10M160 288h10M310 288h10M160 289h10M310 289h10M160 290h10M310 290h10M160 291h10M310 291h10M160 292h10M310 292h10M160 293h10M310 293h10M160 294h10M310 294h10M160 295h10M310 295h10M160 296h10M310 296h10M160 297h10M310 297h10M160 298h10M310 298h10M160 299h10M310 299h10M160 300h10M180 300h10M240 300h10M290 300h10M310 300h10M160 301h10M180 301h10M240 301h10M290 301h10M310 301h4M315 301h5M160 302h10M180 302h10M240 302h10M290 302h10M310 302h10M160 303h10M180 303h10M240 303h10M290 303h10M310 303h10M160 304h10M180 304h10M240 304h10M290 304h10M310 304h10M160 305h10M180 305h10M240 305h10M290 305h10M310 305h10M160 306h10M180 306h10M240 306h10M290 306h10M310 306h10M160 307h10M180 307h10M240 307h10M290 307h10M310 307h10M160 308h10M180 308h10M240 308h10M290 308h10M310 308h10M160 309h10M180 309h10M240 309h10M290 309h10M310 309h10M160 310h10M180 310h10M240 310h10M290 310h10M310 310h10M160 311h10M180 311h10M240 311h10M290 311h10M310 311h10M160 312h10M180 312h10M240 312h10M290 312h10M310 312h10M160 313h10M180 313h10M240 313h10M290 313h10M310 313h10M160 314h10M180 314h10M240 314h10M290 314h10M310 314h10M160 315h10M180 315h10M240 315h10M290 315h10M310 315h10M160 316h10M180 316h10M240 316h10M290 316h10M310 316h10M160 317h10M180 317h10M240 317h10M290 317h10M310 317h10M160 318h10M180 318h10M240 318h10M290 318h10M310 318h10M160 319h10M180 319h10M240 319h10M290 319h10M310 319h10M150 320h10M250 320h10M320 320h10M150 321h10M250 321h10M320 321h10M150 322h10M250 322h10M320 322h10M150 323h10M250 323h10M320 323h10M150 324h10M250 324h10M320 324h10M150 325h10M250 325h10M320 325h10M150 326h10M250 326h10M320 326h10M150 327h10M250 327h10M320 327h10M150 328h10M250 328h10M320 328h10M150 329h10M250 329h10M320 329h10M150 330h10M180 330h10M240 330h10M290 330h10M320 330h10M150 331h10M180 331h10M240 331h10M290 331h10M320 331h10M150 332h10M180 332h10M240 332h10M290 332h10M320 332h10M150 333h10M180 333h10M240 333h10M290 333h10M320 333h10M150 334h10M180 334h10M240 334h10M290 334h10M320 334h10M150 335h10M180 335h10M240 335h10M290 335h10M320 335h10M150 336h10M180 336h10M240 336h10M290 336h10M320 336h10M150 337h10M180 337h10M240 337h10M290 337h10M320 337h10M150 338h10M180 338h10M240 338h10M290 338h10M320 338h8M329 338h1M150 339h10M180 339h10M240 339h10M290 339h10M320 339h10M150 340h10M190 340h10M280 340h10M320 340h10M150 341h10M190 341h10M280 341h10M320 341h10M150 342h10M190 342h10M280 342h10M320 342h10M150 343h10M190 343h10M280 343h10M320 343h10M150 344h10M190 344h10M280 344h10M320 344h10M150 345h10M190 345h10M280 345h10M320 345h10M150 346h10M190 346h10M280 346h10M320 346h10M150 347h10M190 347h10M280 347h10M320 347h10M150 348h10M190 348h10M280 348h10M320 348h10M150 349h10M190 349h10M280 349h10M320 349h10M150 350h10M200 350h10M270 350h10M320 350h10M150 351h10M200 351h10M270 351h10M320 351h10M150 352h10M200 352h10M270 352h10M320 352h10M150 353h10M200 353h10M270 353h10M320 353h10M150 354h10M200 354h10M270 354h10M320 354h10M150 355h10M200 355h10M270 355h10M320 355h10M150 356h10M200 356h10M270 356h10M320 356h10M150 357h10M200 357h10M270 357h10M320 357h10M150 358h10M200 358h10M270 358h10M320 358h10M150 359h10M200 359h10M270 359h10M320 359h10M150 360h10M210 360h10M260 360h10M320 360h10M150 361h10M210 361h10M260 361h10M320 361h10M150 362h10M210 362h10M260 362h10M320 362h10M150 363h10M210 363h10M260 363h9M320 363h10M150 364h10M210 364h10M260 364h10M320 364h10M150 365h10M210 365h10M260 365h10M320 365h10M150 366h10M210 366h10M260 366h10M320 366h10M150 367h10M210 367h10M260 367h10M320 367h10M150 368h10M210 368h10M260 368h10M320 368h10M150 369h10M210 369h10M260 369h10M320 369h10M160 370h10M200 370h10M270 370h10M310 370h10M160 371h10M200 371h10M270 371h10M310 371h10M160 372h10M200 372h10M270 372h10M310 372h10M160 373h10M200 373h10M270 373h10M310 373h10M160 374h10M200 374h10M270 374h10M310 374h10M160 375h10M200 375h10M270 375h10M310 375h10M160 376h10M200 376h10M270 376h10M310 376h10M160 377h10M200 377h10M270 377h10M310 377h10M160 378h10M200 378h10M270 378h10M310 378h10M160 379h10M200 379h10M270 379h10M310 379h10M170 380h30M280 380h30M170 381h30M280 381h30M170 382h30M280 382h30M170 383h30M280 383h30M170 384h30M280 384h30M170 385h30M280 385h30M170 386h25M196 386h4M280 386h30M170 387h30M280 387h30M170 388h30M280 388h30M170 389h18M189 389h11M280 389h30M180 390h10M290 390h10M180 391h10M290 391h10M180 392h10M290 392h10M180 393h10M290 393h10M180 394h10M290 394h10M180 395h10M290 395h10M180 396h10M290 396h10M180 397h10M290 397h10M180 398h10M290 398h10M180 399h10M290 399h10M180 400h10M290 400h10M180 401h10M290 401h10M180 402h10M290 402h10M180 403h10M290 403h10M180 404h10M290 404h10M180 405h10M290 405h10M180 406h10M290 406h10M180 407h10M290 407h10M180 408h10M290 408h10M180 409h10M290 409h10M180 410h10M290 410h10M180 411h10M290 411h10M180 412h10M290 412h10M180 413h10M290 413h10M180 414h10M290 414h10M180 415h10M290 415h10M180 416h10M290 416h10M180 417h10M290 417h10M180 418h10M290 418h10M180 419h10M290 419h10" />
<path stroke="#000100" d="M253 213h1M256 271h1M169 279h1M328 338h1" />
<path stroke="#6e4734" d="M200 220h60M200 221h60M200 222h60M200 223h60M200 224h43M244 224h16M200 225h60M200 226h60M200 227h60M200 228h60M200 229h60M190 230h70M270 230h20M190 231h70M270 231h20M190 232h70M270 232h20M190 233h70M270 233h20M190 234h64M255 234h5M270 234h20M190 235h48M239 235h21M270 235h20M190 236h10M201 236h52M254 236h6M270 236h20M190 237h70M270 237h20M190 238h15M206 238h54M270 238h20M190 239h70M270 239h20M180 240h71M252 240h8M270 240h30M180 241h80M270 241h30M180 242h80M270 242h30M180 243h80M270 243h30M180 244h80M270 244h30M180 245h80M270 245h30M180 246h80M270 246h30M180 247h80M270 247h30M180 248h80M270 248h30M180 249h80M270 249h30M170 250h90M270 250h40M170 251h90M270 251h40M170 252h90M270 252h40M170 253h90M270 253h40M170 254h90M270 254h40M170 255h90M270 255h40M170 256h90M270 256h40M170 257h90M270 257h40M170 258h90M270 258h40M170 259h90M270 259h40M170 260h40M270 260h40M170 261h40M270 261h40M170 262h40M270 262h40M170 263h40M270 263h40M170 264h40M270 264h40M170 265h40M270 265h40M170 266h40M270 266h40M170 267h40M270 267h40M170 268h40M270 268h40M170 269h40M270 269h40M170 270h30M280 270h30M170 271h30M280 271h30M170 272h30M280 272h30M170 273h30M280 273h30M170 274h30M280 274h30M170 275h30M280 275h30M170 276h30M280 276h29M170 277h30M280 277h30M170 278h30M280 278h30M170 279h30M280 279h30M170 280h20M290 280h20M170 281h20M290 281h20M170 282h20M290 282h20M170 283h20M290 283h20M170 284h20M290 284h20M170 285h20M290 285h20M170 286h20M290 286h20M170 287h20M290 287h20M170 288h20M290 288h20M170 289h20M290 289h20M170 290h30M280 290h30M170 291h30M280 291h30M170 292h30M280 292h30M170 293h15M186 293h14M280 293h30M170 294h30M280 294h30M170 295h30M280 295h30M170 296h30M280 296h30M170 297h30M280 297h30M170 298h30M280 298h23M304 298h6M170 299h30M280 299h30M170 300h10M300 300h10M170 301h10M300 301h10M170 302h10M300 302h10M170 303h10M300 303h10M170 304h10M300 304h10M170 305h10M300 305h10M170 306h10M300 306h10M170 307h10M300 307h10M170 308h10M300 308h10M170 309h10M300 309h10M170 310h10M300 310h10M170 311h10M300 311h10M170 312h10M300 312h10M170 313h10M300 313h10M170 314h10M300 314h10M170 315h10M300 315h10M170 316h10M300 316h10M170 317h10M300 317h10M170 318h10M300 318h10M170 319h10M300 319h10M160 320h20M300 320h20M160 321h20M300 321h20M160 322h20M300 322h20M160 323h20M300 323h20M160 324h20M300 324h20M160 325h20M300 325h20M160 326h20M300 326h20M160 327h20M300 327h20M160 328h20M300 328h20M160 329h20M300 329h20M160 330h20M300 330h20M160 331h20M300 331h20M160 332h20M300 332h20M160 333h20M300 333h20M160 334h20M300 334h20M160 335h20M300 335h20M160 336h20M300 336h20M160 337h20M300 337h20M160 338h20M300 338h20M160 339h20M300 339h20M160 340h30M230 340h30M290 340h30M160 341h30M230 341h30M290 341h30M160 342h30M230 342h30M290 342h30M160 343h30M230 343h30M290 343h30M160 344h30M230 344h30M290 344h30M160 345h30M230 345h30M290 345h30M160 346h25M186 346h4M230 346h30M290 346h30M160 347h30M230 347h30M290 347h30M160 348h9M170 348h20M230 348h30M290 348h30M160 349h30M230 349h30M290 349h30M160 350h40M280 350h40M160 351h40M280 351h40M160 352h40M280 352h40M160 353h30M191 353h9M280 353h40M160 354h40M280 354h40M160 355h40M280 355h40M160 356h40M280 356h40M160 357h40M280 357h40M160 358h40M280 358h40M160 359h40M280 359h40M160 360h50M270 360h50M160 361h50M270 361h50M160 362h50M270 362h50M160 363h50M270 363h50M160 364h50M270 364h28M299 364h21M160 365h50M270 365h50M160 366h50M270 366h50M160 367h50M270 367h50M160 368h50M270 368h50M160 369h50M270 369h50M170 370h30M280 370h30M170 371h30M280 371h30M170 372h30M280 372h30M170 373h30M280 373h11M292 373h18M170 374h30M280 374h30M170 375h30M280 375h30M170 376h30M280 376h30M170 377h30M280 377h30M170 378h30M280 378h30M170 379h30M280 379h30" />
<path stroke="#6f4734" d="M243 224h1M309 276h1M303 298h1M291 373h1" />
<path stroke="#394734" d="M260 230h10M260 231h10M260 232h10M260 233h10M260 234h10M260 235h10M260 236h10M260 237h10M260 238h8M269 238h1M260 239h10M260 240h10M260 241h10M260 242h10M260 243h10M260 244h10M260 245h10M260 246h10M260 247h10M260 248h10M260 249h10M260 250h10M260 251h10M260 252h10M260 253h10M260 254h10M260 255h10M260 256h10M260 257h10M260 258h10M260 259h10" />
<path stroke="#6e4735" d="M254 234h1M200 236h1M251 240h1M185 293h1M185 346h1" />
<path stroke="#6e4634" d="M238 235h1M253 236h1M205 238h1M169 348h1M190 353h1M298 364h1" />
<path stroke="#394634" d="M268 238h1" />
<path stroke="#eec39a" d="M210 260h60M210 261h60M210 262h60M210 263h60M210 264h60M210 265h60M210 266h60M210 267h60M210 268h60M210 269h60M200 270h10M230 270h20M270 270h10M200 271h10M230 271h20M270 271h10M200 272h10M230 272h20M270 272h10M200 273h10M230 273h20M270 273h10M200 274h10M230 274h20M270 274h10M200 275h10M230 275h20M270 275h10M200 276h10M230 276h20M270 276h10M200 277h10M230 277h20M270 277h10M200 278h10M230 278h20M270 278h10M200 279h10M230 279h20M270 279h10M230 280h20M230 281h20M230 282h20M230 283h20M230 284h20M230 285h20M230 286h20M230 287h20M230 288h20M230 289h20M190 300h20M230 300h10M270 300h20M190 301h20M230 301h10M270 301h20M190 302h20M230 302h10M270 302h20M190 303h20M230 303h10M270 303h20M190 304h20M230 304h10M270 304h20M190 305h5M196 305h14M230 305h10M270 305h20M190 306h20M230 306h10M270 306h20M190 307h20M230 307h10M270 307h20M190 308h20M230 308h10M270 308h20M190 309h20M230 309h10M270 309h20M190 310h10M210 310h30M250 310h20M280 310h10M190 311h10M210 311h30M250 311h20M280 311h10M190 312h10M210 312h30M250 312h20M280 312h10M190 313h10M210 313h30M250 313h20M280 313h10M190 314h10M210 314h30M250 314h20M280 314h10M190 315h10M210 315h30M250 315h20M280 315h10M190 316h10M210 316h30M250 316h20M280 316h10M190 317h10M210 317h30M250 317h20M280 317h10M190 318h10M210 318h30M250 318h20M280 318h10M190 319h10M210 319h30M250 319h20M280 319h10M190 320h60M260 320h30M190 321h60M260 321h30M190 322h60M260 322h30M190 323h60M260 323h30M190 324h60M260 324h30M190 325h60M260 325h30M190 326h60M260 326h30M190 327h60M260 327h30M190 328h18M209 328h41M260 328h30M190 329h60M260 329h30M190 330h50M250 330h40M190 331h50M250 331h40M190 332h50M250 332h40M190 333h50M250 333h40M190 334h50M250 334h40M190 335h50M250 335h40M190 336h50M250 336h40M190 337h50M250 337h40M190 338h50M250 338h40M190 339h50M250 339h40M200 340h30M260 340h20M200 341h30M260 341h20M200 342h30M260 342h20M200 343h30M260 343h20M200 344h30M260 344h20M200 345h30M260 345h20M200 346h30M260 346h20M200 347h30M260 347h20M200 348h30M260 348h20M200 349h30M260 349h20M210 350h60M210 351h60M210 352h60M210 353h60M210 354h60M210 355h60M210 356h60M210 357h60M210 358h60M210 359h60M220 360h40M220 361h40M220 362h40M220 363h40M220 364h40M220 365h40M220 366h40M220 367h40M220 368h40M220 369h5M226 369h34M230 370h20M230 371h20M230 372h20M230 373h20M230 374h20M230 375h20M230 376h20M230 377h20M230 378h20M230 379h20" />
<path stroke="#33cccc" d="M190 280h40M250 280h40M190 281h40M250 281h40M190 282h40M250 282h40M190 283h40M250 283h40M190 284h40M250 284h40M190 285h40M250 285h40M190 286h40M250 286h40M190 287h40M250 287h40M190 288h40M250 288h40M190 289h40M250 289h40M200 290h10M230 290h20M270 290h10M200 291h10M230 291h20M270 291h10M200 292h10M230 292h20M270 292h10M200 293h10M230 293h20M270 293h10M200 294h10M230 294h20M270 294h10M200 295h10M230 295h20M270 295h10M200 296h10M230 296h20M270 296h10M200 297h10M230 297h20M270 297h10M200 298h10M230 298h20M270 298h10M200 299h10M230 299h20M270 299h10M210 300h20M250 300h11M262 300h8M210 301h20M250 301h20M210 302h20M250 302h15M266 302h4M210 303h20M250 303h20M210 304h20M250 304h20M210 305h20M250 305h20M210 306h20M250 306h20M210 307h20M250 307h20M210 308h20M250 308h20M210 309h15M226 309h4M250 309h20" />
<path stroke="#ffffff" d="M210 290h20M250 290h20M210 291h20M250 291h20M210 292h20M250 292h20M210 293h20M250 293h20M210 294h20M250 294h20M210 295h20M250 295h20M210 296h20M250 296h20M210 297h20M250 297h20M210 298h20M250 298h20M210 299h20M250 299h20M180 320h10M290 320h10M180 321h10M290 321h10M180 322h10M290 322h10M180 323h10M290 323h10M180 324h10M290 324h10M180 325h10M290 325h10M180 326h10M290 326h10M180 327h10M290 327h10M180 328h10M290 328h10M180 329h10M290 329h10M210 370h10M260 370h10M210 371h10M260 371h10M210 372h10M260 372h10M210 373h10M260 373h10M210 374h10M260 374h10M210 375h10M260 375h10M210 376h10M260 376h10M210 377h10M260 377h10M210 378h10M260 378h10M210 379h10M260 379h10M220 380h10M250 380h10M220 381h10M250 381h10M220 382h10M250 382h10M220 383h10M250 383h10M220 384h10M250 384h10M220 385h10M250 385h10M220 386h10M250 386h10M220 387h10M250 387h10M220 388h10M250 388h10M220 389h10M250 389h10M230 390h20M230 391h20M230 392h20M230 393h20M230 394h20M230 395h20M230 396h20M230 397h20M230 398h20M230 399h20" />
<path stroke="#32cccc" d="M261 300h1M225 309h1" />
<path stroke="#000001" d="M314 301h1M269 363h1M188 389h1" />
<path stroke="#33cdcc" d="M265 302h1" />
<path stroke="#efc39a" d="M195 305h1M225 369h1" />
<path stroke="#ff6666" d="M200 310h10M270 310h10M200 311h10M270 311h10M200 312h10M270 312h10M200 313h10M270 313h10M200 314h10M270 314h10M200 315h10M270 315h10M200 316h10M270 316h10M200 317h10M270 317h10M200 318h10M270 318h10M200 319h10M270 319h10" />
<path stroke="#eec29a" d="M208 328h1" />
<path stroke="#990066" d="M220 370h10M250 370h10M220 371h10M250 371h10M220 372h10M250 372h10M220 373h10M250 373h10M220 374h10M250 374h10M220 375h10M250 375h10M220 376h10M250 376h10M220 377h10M250 377h10M220 378h10M250 378h10M220 379h10M250 379h10M210 380h10M230 380h20M260 380h10M210 381h10M230 381h20M260 381h10M210 382h10M230 382h20M260 382h10M210 383h10M230 383h20M260 383h10M210 384h10M230 384h20M260 384h10M210 385h10M230 385h20M260 385h6M267 385h3M210 386h10M230 386h20M260 386h10M210 387h10M230 387h20M260 387h10M210 388h10M230 388h20M260 388h10M210 389h10M230 389h20M260 389h10M210 390h20M250 390h20M210 391h20M250 391h20M210 392h20M250 392h20M210 393h20M250 393h20M210 394h20M250 394h20M210 395h20M250 395h20M210 396h20M250 396h20M210 397h20M250 397h20M210 398h20M250 398h20M210 399h20M250 399h20M210 400h60M210 401h60M210 402h60M210 403h60M210 404h60M210 405h60M210 406h60M210 407h60M210 408h54M265 408h5M210 409h60M210 410h60M210 411h60M210 412h60M210 413h60M210 414h60M210 415h60M210 416h60M210 417h60M210 418h60M210 419h60" />
<path stroke="#993399" d="M200 380h10M270 380h10M200 381h10M270 381h10M200 382h10M270 382h10M200 383h10M270 383h10M200 384h10M270 384h10M200 385h10M270 385h10M200 386h10M270 386h10M200 387h10M270 387h10M200 388h10M270 388h10M200 389h10M270 389h10M190 390h20M270 390h20M190 391h20M270 391h20M190 392h20M270 392h20M190 393h20M270 393h20M190 394h20M270 394h20M190 395h20M270 395h20M190 396h20M270 396h20M190 397h20M270 397h20M190 398h20M270 398h20M190 399h20M270 399h20M190 400h20M270 400h20M190 401h20M270 401h20M190 402h20M270 402h20M190 403h20M270 403h20M190 404h20M270 404h20M190 405h20M270 405h20M190 406h20M270 406h20M190 407h20M270 407h20M190 408h20M270 408h20M190 409h20M270 409h20M190 410h20M270 410h20M190 411h20M270 411h20M190 412h20M270 412h20M190 413h20M270 413h20M190 414h20M270 414h20M190 415h20M270 415h20M190 416h20M270 416h20M190 417h20M270 417h20M190 418h20M270 418h20M190 419h20M270 419h20" />
<path stroke="#990067" d="M266 385h1" />
<path stroke="#010000" d="M195 386h1" />
<path stroke="#980066" d="M264 408h1" />
</svg>