<svg xmlns="http://www.w3.org/2000/svg" viewBox="0 -0.5 480 480" shape-rendering="crispEdges">
<metadata>Made with Pixels to Svg https://codepen.io/shshaw/pen/XbxvNj</metadata>
<path stroke="#000000" d="M190 190h60M190 191h60M190 192h60M190 193h60M190 194h6M197 194h30M228 194h22M190 195h60M190 196h60M190 197h60M190 198h60M190 199h60M180 200h10M250 200h20M180 201h10M250 201h20M180 202h10M250 202h20M180 203h10M250 203h20M180 204h10M250 204h20M180 205h10M250 205h20M180 206h10M250 206h20M180 207h10M250 207h20M180 208h10M250 208h20M180 209h10M250 209h20M160 210h20M270 210h30M160 211h20M270 211h30M160 212h20M270 212h30M160 213h20M270 213h30M160 214h20M270 214h30M160 215h20M270 215h30M160 216h20M270 216h30M160 217h20M270 217h30M160 218h20M270 218h30M160 219h20M270 219h30M150 220h10M210 220h10M300 220h10M150 221h10M210 221h10M300 221h10M150 222h10M210 222h10M300 222h10M150 223h10M210 223h10M300 223h10M150 224h10M210 224h10M300 224h10M150 225h10M210 225h10M300 225h10M150 226h10M210 226h10M300 226h10M150 227h10M210 227h10M300 227h10M150 228h10M210 228h10M300 228h10M150 229h10M210 229h10M300 229h10M140 230h10M180 230h20M220 230h10M280 230h10M310 230h10M140 231h10M180 231h20M220 231h10M280 231h10M310 231h10M140 232h10M180 232h20M220 232h10M280 232h10M310 232h10M140 233h10M181 233h19M220 233h10M280 233h10M310 233h10M140 234h10M180 234h20M220 234h10M280 234h10M310 234h10M140 235h10M180 235h20M220 235h10M280 235h10M310 235h10M140 236h10M180 236h20M220 236h10M280 236h10M310 236h10M140 237h10M180 237h4M185 237h15M220 237h10M280 237h10M310 237h10M140 238h10M180 238h20M220 238h10M280 238h10M310 238h10M140 239h10M180 239h20M220 239h10M280 239h10M310 239h10M140 240h10M200 240h10M220 240h10M270 240h10M310 240h10M140 241h10M200 241h10M220 241h10M270 241h10M310 241h10M140 242h10M200 242h10M220 242h10M270 242h10M310 242h10M140 243h10M200 243h10M220 243h10M270 243h10M310 243h10M140 244h10M200 244h10M220 244h10M270 244h10M310 244h10M140 245h10M200 245h10M220 245h10M270 245h10M310 245h10M140 246h10M200 246h10M220 246h10M270 246h10M310 246h10M140 247h10M200 247h10M220 247h10M270 247h10M310 247h10M140 248h10M200 248h10M220 248h10M270 248h10M310 248h10M140 249h10M200 249h10M220 249h10M270 249h10M310 249h10M140 250h10M310 250h10M140 251h10M310 251h10M140 252h10M310 252h10M140 253h10M310 253h10M140 254h10M310 254h10M140 255h10M310 255h10M140 256h10M310 256h10M140 257h10M310 257h10M140 258h10M310 258h10M140 259h10M310 259h10M150 260h10M280 260h20M320 260h10M150 261h10M280 261h20M320 261h10M150 262h10M280 262h20M320 262h10M150 263h10M280 263h20M320 263h10M150 264h10M280 264h20M320 264h10M150 265h10M280 265h20M320 265h10M150 266h10M280 266h20M320 266h10M150 267h10M280 267h20M320 267h10M150 268h10M280 268h20M320 268h10M150 269h10M280 269h20M320 269h10M140 270h10M190 270h10M210 270h10M240 270h10M260 270h10M320 270h10M140 271h10M190 271h10M210 271h10M240 271h10M260 271h10M320 271h10M140 272h10M190 272h10M210 272h10M240 272h10M260 272h10M320 272h10M140 273h10M190 273h10M210 273h10M240 273h10M260 273h10M320 273h10M140 274h10M190 274h10M210 274h10M240 274h10M260 274h10M320 274h10M140 275h10M190 275h10M210 275h10M240 275h10M260 275h10M320 275h10M140 276h10M190 276h10M210 276h10M240 276h10M260 276h10M320 276h10M140 277h10M190 277h10M210 277h10M240 277h10M260 277h10M320 277h10M140 278h10M190 278h10M210 278h10M240 278h10M260 278h10M320 278h10M140 279h10M190 279h10M210 279h10M240 279h10M260 279h10M320 279h10M140 280h10M190 280h40M240 280h40M320 280h10M140 281h10M190 281h40M240 281h40M320 281h10M140 282h10M190 282h21M212 282h18M240 282h40M320 282h10M140 283h10M190 283h40M240 283h40M320 283h10M140 284h10M190 284h40M240 284h40M320 284h10M140 285h10M190 285h40M240 285h40M320 285h10M140 286h10M190 286h40M240 286h28M269 286h11M320 286h10M140 287h10M190 287h40M240 287h40M320 287h10M140 288h10M190 288h39M240 288h40M320 288h10M140 289h10M190 289h40M240 289h40M320 289h10M140 290h10M180 290h10M230 290h10M280 290h10M320 290h10M140 291h10M180 291h10M230 291h10M280 291h10M320 291h10M140 292h10M180 292h10M230 292h10M280 292h10M320 292h10M140 293h10M180 293h10M230 293h10M280 293h10M320 293h10M140 294h10M181 294h9M230 294h10M280 294h10M320 294h10M140 295h10M180 295h10M230 295h10M280 295h10M320 295h10M140 296h10M180 296h10M230 296h10M280 296h10M320 296h10M140 297h10M180 297h10M230 297h10M280 297h10M320 297h10M140 298h10M180 298h10M230 298h10M280 298h10M320 298h10M140 299h10M180 299h10M230 299h10M280 299h10M320 299h10M140 300h10M180 300h10M230 300h10M280 300h10M320 300h10M140 301h10M180 301h10M230 301h10M280 301h10M320 301h10M140 302h10M180 302h10M230 302h10M280 302h10M320 302h10M140 303h10M180 303h10M230 303h10M280 303h10M320 303h10M140 304h10M180 304h10M230 304h10M280 304h1M282 304h8M320 304h10M140 305h10M180 305h10M230 305h10M280 305h10M320 305h10M140 306h10M180 306h10M230 306h10M280 306h10M320 306h10M140 307h10M180 307h10M230 307h10M280 307h10M320 307h10M140 308h10M180 308h10M230 308h10M280 308h10M320 308h10M140 309h10M180 309h10M230 309h10M280 309h10M320 309h10M150 310h10M180 310h10M220 310h10M280 310h10M320 310h10M150 311h10M180 311h10M220 311h10M280 311h10M320 311h10M150 312h10M180 312h10M220 312h10M280 312h10M320 312h10M150 313h10M180 313h10M220 313h10M280 313h10M320 313h10M150 314h10M180 314h10M220 314h10M280 314h10M320 314h10M150 315h10M180 315h10M220 315h10M280 315h10M320 315h10M150 316h10M180 316h10M220 316h10M280 316h10M320 316h10M150 317h10M180 317h10M220 317h10M280 317h10M320 317h10M150 318h10M180 318h10M220 318h10M280 318h10M320 318h10M150 319h10M180 319h10M220 319h10M280 319h10M320 319h10M150 320h10M180 320h10M230 320h10M280 320h10M320 320h10M150 321h10M180 321h10M230 321h10M280 321h10M320 321h10M150 322h10M180 322h10M230 322h10M280 322h10M320 322h10M150 323h10M180 323h10M230 323h10M280 323h10M320 323h10M150 324h10M180 324h10M230 324h10M280 324h10M320 324h10M150 325h10M180 325h10M230 325h10M280 325h10M320 325h10M150 326h10M180 326h10M230 326h10M280 326h10M320 326h10M150 327h10M180 327h10M230 327h10M280 327h10M320 327h10M150 328h10M180 328h10M230 328h10M280 328h10M320 328h10M150 329h10M180 329h10M230 329h10M280 329h10M320 329h10M150 330h10M190 330h10M270 330h10M310 330h10M150 331h10M190 331h10M270 331h10M310 331h10M150 332h10M190 332h10M270 332h10M310 332h10M150 333h10M190 333h10M270 333h10M310 333h10M150 334h10M190 334h10M270 334h10M310 334h10M150 335h10M190 335h10M270 335h10M310 335h10M150 336h10M190 336h10M270 336h10M310 336h10M150 337h10M190 337h10M270 337h10M310 337h10M150 338h10M190 338h10M270 338h10M310 338h10M150 339h10M190 339h10M270 339h10M310 339h10M150 340h10M190 340h10M270 340h10M310 340h10M150 341h10M190 341h10M270 341h10M310 341h10M150 342h10M190 342h10M270 342h10M310 342h10M150 343h10M190 343h10M270 343h10M310 343h10M150 344h10M190 344h10M270 344h10M310 344h10M150 345h10M190 345h10M270 345h10M310 345h10M150 346h10M190 346h10M270 346h10M310 346h10M150 347h10M190 347h10M270 347h10M310 347h10M150 348h10M190 348h10M270 348h10M310 348h10M150 349h10M190 349h10M270 349h10M310 349h10M160 350h10M200 350h10M260 350h10M310 350h10M160 351h10M200 351h10M260 351h10M310 351h10M160 352h10M200 352h10M260 352h10M310 352h10M160 353h10M200 353h10M260 353h10M310 353h10M160 354h10M200 354h10M260 354h10M310 354h10M160 355h10M200 355h10M260 355h3M264 355h6M310 355h10M160 356h10M200 356h10M260 356h10M310 356h10M160 357h10M200 357h10M260 357h10M310 357h10M160 358h10M200 358h10M260 358h10M310 358h10M160 359h10M200 359h10M260 359h10M310 359h10M160 360h10M210 360h10M250 360h10M300 360h10M160 361h10M210 361h10M250 361h10M300 361h10M160 362h10M210 362h10M250 362h10M300 362h10M160 363h10M210 363h10M250 363h10M300 363h10M160 364h10M210 364h10M250 364h10M300 364h10M160 365h10M210 365h10M250 365h10M300 365h10M160 366h10M210 366h10M250 366h10M300 366h10M160 367h10M210 367h10M250 367h10M300 367h10M160 368h10M210 368h10M250 368h10M300 368h10M160 369h10M210 369h10M250 369h10M300 369h10M160 370h10M200 370h10M220 370h10M240 370h10M260 370h10M300 370h10M160 371h10M200 371h10M220 371h10M240 371h10M260 371h10M300 371h10M160 372h10M200 372h10M220 372h10M240 372h10M260 372h10M300 372h10M160 373h10M200 373h10M220 373h10M240 373h10M260 373h10M300 373h10M160 374h10M200 374h10M220 374h10M240 374h10M260 374h10M300 374h10M160 375h10M200 375h10M220 375h10M240 375h10M260 375h10M300 375h10M160 376h10M200 376h10M220 376h10M240 376h10M260 376h10M300 376h6M307 376h3M160 377h10M200 377h10M220 377h10M240 377h10M260 377h10M300 377h7M308 377h2M160 378h10M200 378h10M220 378h10M240 378h10M260 378h10M300 378h10M160 379h10M200 379h10M220 379h10M240 379h10M260 379h10M300 379h10M160 380h10M190 380h10M270 380h10M300 380h10M160 381h10M190 381h10M270 381h10M300 381h10M160 382h10M190 382h10M270 382h10M300 382h10M160 383h10M190 383h10M270 383h10M300 383h10M160 384h10M190 384h10M270 384h10M300 384h10M160 385h10M190 385h10M270 385h10M300 385h10M160 386h10M190 386h10M270 386h10M300 386h10M160 387h10M190 387h10M270 387h10M300 387h10M160 388h10M190 388h10M270 388h10M300 388h10M160 389h10M190 389h10M270 389h10M300 389h10M160 390h10M190 390h10M210 390h10M250 390h10M270 390h10M300 390h10M160 391h10M190 391h10M210 391h10M250 391h10M270 391h10M300 391h10M160 392h10M190 392h10M210 392h10M250 392h10M270 392h10M300 392h10M160 393h10M190 393h10M210 393h10M250 393h10M270 393h10M300 393h10M160 394h10M190 394h10M210 394h10M250 394h10M270 394h10M300 394h10M160 395h10M190 395h10M210 395h10M250 395h10M270 395h10M300 395h10M160 396h10M190 396h10M210 396h10M250 396h10M270 396h10M300 396h10M160 397h10M190 397h10M210 397h10M250 397h10M270 397h10M300 397h10M160 398h10M190 398h10M210 398h10M250 398h10M270 398h10M300 398h10M160 399h10M190 399h10M210 399h10M250 399h10M270 399h10M300 399h10M170 400h10M190 400h40M240 400h40M290 400h10M170 401h10M190 401h40M240 401h40M290 401h10M170 402h10M190 402h40M240 402h40M290 402h10M170 403h10M190 403h40M240 403h11M252 403h28M290 403h10M170 404h10M190 404h40M240 404h40M290 404h10M170 405h10M190 405h40M240 405h40M290 405h10M170 406h10M190 406h40M240 406h40M290 406h10M170 407h10M190 407h40M240 407h40M290 407h10M170 408h10M190 408h40M240 408h40M290 408h10M170 409h10M190 409h40M240 409h40M290 409h10M170 410h10M190 410h90M290 410h10M170 411h10M190 411h90M290 411h10M170 412h10M190 412h57M248 412h32M290 412h10M170 413h10M190 413h90M290 413h10M170 414h10M190 414h90M290 414h10M170 415h10M190 415h90M290 415h10M170 416h10M190 416h90M290 416h10M170 417h10M190 417h90M290 417h10M170 418h10M190 418h56M247 418h33M290 418h10M170 419h10M190 419h90M290 419h10M180 420h110M180 421h110M180 422h110M180 423h110M180 424h110M180 425h1M182 425h108M180 426h110M180 427h110M180 428h110M180 429h110M190 430h50M241 430h20M262 430h18M190 431h90M190 432h90M190 433h90M190 434h90M190 435h90M190 436h90M190 437h90M190 438h90M190 439h90" />
<path stroke="#000100" d="M196 194h1M184 237h1M211 282h1M268 286h1M229 288h1M307 377h1M247 412h1M181 425h1" />
<path stroke="#000001" d="M227 194h1M281 304h1M263 355h1M251 403h1" />
<path stroke="#f00060" d="M190 200h60M190 201h60M190 202h60M190 203h60M190 204h60M190 205h60M190 206h60M190 207h60M190 208h60M190 209h60M180 210h90M180 211h75M256 211h14M180 212h90M180 213h90M180 214h90M180 215h90M180 216h90M180 217h90M180 218h90M180 219h90M160 220h50M220 220h80M160 221h50M220 221h80M160 222h50M220 222h80M160 223h50M220 223h80M160 224h50M220 224h7M228 224h72M160 225h50M220 225h80M160 226h36M197 226h13M220 226h80M160 227h50M220 227h80M160 228h50M220 228h3M224 228h76M160 229h50M220 229h6M227 229h73M150 230h30M200 230h20M230 230h50M290 230h20M150 231h30M200 231h20M230 231h50M290 231h20M150 232h30M200 232h20M230 232h50M290 232h20M150 233h30M200 233h20M230 233h50M290 233h20M150 234h30M200 234h20M230 234h50M290 234h20M150 235h30M200 235h20M230 235h50M290 235h20M150 236h30M200 236h20M230 236h50M290 236h20M150 237h30M200 237h20M230 237h50M290 237h20M150 238h30M200 238h20M230 238h50M290 238h20M150 239h30M200 239h20M230 239h50M290 239h20M150 240h50M210 240h10M230 240h40M280 240h30M150 241h50M210 241h10M230 241h40M280 241h30M150 242h50M210 242h10M230 242h40M280 242h30M150 243h50M210 243h10M230 243h40M280 243h30M150 244h50M210 244h10M230 244h40M280 244h30M150 245h50M210 245h10M230 245h40M280 245h30M150 246h50M210 246h10M230 246h19M250 246h20M280 246h30M150 247h50M210 247h4M215 247h5M230 247h40M280 247h30M150 248h50M210 248h10M230 248h40M280 248h30M150 249h50M210 249h10M230 249h40M280 249h30M150 250h50M230 250h10M270 250h31M302 250h8M150 251h50M230 251h7M238 251h2M270 251h40M150 252h50M230 252h10M270 252h40M150 253h50M230 253h10M270 253h40M151 254h49M230 254h10M270 254h40M150 255h50M230 255h10M270 255h40M150 256h50M230 256h10M270 256h40M150 257h50M230 257h10M270 257h40M150 258h50M230 258h10M270 258h40M150 259h50M230 259h10M270 259h40M160 260h30M300 260h20M160 261h30M300 261h20M160 262h30M300 262h20M160 263h30M300 263h20M160 264h30M300 264h20M160 265h30M300 265h19M160 266h30M300 266h20M160 267h30M300 267h20M160 268h30M300 268h20M160 269h30M300 269h20M150 270h40M280 270h40M150 271h40M280 271h40M150 272h40M280 272h40M150 273h40M280 273h40M150 274h40M280 274h40M150 275h40M280 275h40M150 276h40M280 276h40M150 277h40M280 277h40M150 278h40M280 278h40M150 279h40M280 279h40M150 280h40M280 280h40M150 281h40M280 281h40M150 282h40M280 282h40M150 283h40M280 283h40M150 284h40M280 284h40M150 285h40M280 285h40M150 286h40M280 286h40M150 287h40M280 287h40M150 288h40M280 288h40M150 289h40M280 289h40M150 290h30M290 290h30M150 291h30M290 291h30M150 292h30M290 292h30M150 293h30M290 293h30M150 294h30M290 294h30M150 295h30M290 295h30M150 296h30M290 296h30M150 297h30M290 297h30M150 298h30M290 298h30M150 299h30M290 299h30M150 300h30M290 300h30M150 301h30M290 301h30M150 302h30M290 302h30M150 303h30M290 303h30M150 304h30M290 304h30M150 305h30M290 305h30M150 306h12M163 306h17M290 306h30M150 307h30M290 307h30M150 308h30M290 308h30M150 309h30M290 309h30M160 310h10M300 310h20M160 311h10M300 311h20M160 312h10M300 312h20M160 313h10M300 313h17M318 313h2M160 314h10M300 314h20M160 315h10M300 315h20M160 316h10M300 316h20M160 317h10M300 317h20M160 318h10M300 318h20M160 319h10M300 319h20M160 320h20M290 320h30M160 321h20M290 321h30M160 322h20M290 322h30M160 323h20M290 323h30M160 324h20M290 324h30M160 325h20M290 325h30M160 326h20M290 326h30M160 327h20M290 327h30M160 328h20M290 328h30M160 329h20M290 329h30M160 330h30M280 330h30M160 331h30M280 331h30M160 332h30M280 332h30M160 333h30M280 333h30M160 334h30M280 334h30M160 335h30M280 335h30M160 336h30M280 336h30M160 337h30M280 337h30M160 338h30M280 338h30M160 339h30M280 339h30M160 340h30M280 340h30M160 341h30M280 341h30M160 342h30M280 342h30M160 343h30M280 343h30M160 344h17M178 344h12M280 344h30M160 345h30M280 345h30M160 346h30M280 346h30M160 347h30M280 347h30M160 348h30M280 348h30M160 349h30M280 349h30M170 350h30M270 350h40M170 351h30M270 351h40M170 352h30M270 352h40M170 353h30M270 353h40M170 354h30M270 354h40M170 355h30M270 355h40M170 356h30M270 356h40M170 357h30M270 357h40M170 358h30M270 358h40M170 359h30M270 359h40M170 360h40M260 360h40M170 361h40M260 361h40M170 362h40M260 362h40M170 363h40M260 363h40M170 364h40M260 364h40M170 365h40M260 365h40M170 366h40M260 366h40M170 367h40M260 367h40M170 368h40M260 368h40M170 369h40M260 369h40M170 370h30M270 370h30M170 371h30M270 371h30M170 372h30M270 372h30M170 373h30M270 373h30M170 374h30M270 374h30M170 375h24M195 375h5M270 375h30M170 376h30M270 376h30M170 377h30M270 377h30M170 378h30M270 378h30M170 379h30M270 379h30M170 380h20M280 380h20M170 381h20M280 381h20M170 382h20M280 382h20M170 383h20M280 383h20M170 384h20M280 384h20M170 385h20M280 385h20M170 386h20M280 386h20M170 387h1M172 387h18M280 387h20M170 388h20M280 388h20M170 389h20M280 389h20M170 390h20M280 390h20M170 391h20M280 391h20M170 392h20M280 392h20M170 393h2M173 393h17M280 393h20M170 394h20M280 394h20M170 395h20M280 395h20M170 396h20M280 396h20M170 397h20M280 397h20M170 398h20M280 398h20M170 399h20M280 399h20M180 400h10M280 400h10M180 401h10M280 401h10M180 402h10M280 402h10M180 403h10M280 403h10M180 404h10M280 404h10M180 405h10M280 405h10M180 406h10M280 406h10M180 407h10M280 407h10M180 408h10M280 408h10M180 409h10M280 409h10M180 410h10M280 410h10M180 411h10M280 411h10M180 412h10M280 412h10M180 413h10M280 413h10M180 414h10M280 414h10M180 415h10M280 415h10M180 416h10M280 416h10M180 417h10M280 417h10M180 418h10M280 418h10M180 419h10M280 419h10" />
<path stroke="#f10060" d="M255 211h1M249 246h1M237 251h1M150 254h1M162 306h1M177 344h1M171 387h1" />
<path stroke="#f00061" d="M227 224h1M317 313h1M194 375h1" />
<path stroke="#f00160" d="M196 226h1M223 228h1M226 229h1M214 247h1M301 250h1M319 265h1M172 393h1" />
<path stroke="#010000" d="M180 233h1M180 294h1M306 376h1M246 418h1M240 430h1M261 430h1" />
<path stroke="#f0b090" d="M200 250h30M240 250h30M200 251h30M240 251h30M200 252h30M240 252h30M200 253h30M240 253h30M200 254h30M240 254h30M200 255h30M240 255h30M200 256h30M240 256h30M200 257h30M240 257h30M200 258h30M240 258h30M200 259h30M240 259h30M190 260h52M243 260h37M190 261h90M190 262h67M258 262h22M190 263h28M219 263h61M190 264h90M190 265h90M190 266h90M190 267h90M190 268h90M190 269h90M200 270h10M220 270h20M250 270h10M270 270h10M200 271h10M220 271h20M250 271h10M270 271h10M200 272h10M220 272h20M250 272h10M270 272h10M200 273h10M220 273h20M250 273h10M270 273h10M200 274h10M220 274h20M250 274h10M270 274h10M200 275h10M220 275h20M250 275h10M270 275h10M200 276h10M220 276h20M250 276h10M270 276h10M200 277h10M220 277h20M250 277h10M270 277h10M200 278h10M220 278h20M250 278h10M270 278h10M200 279h10M220 279h20M250 279h10M270 279h10M230 280h10M230 281h10M230 282h10M230 283h10M230 284h10M230 285h10M230 286h10M230 287h10M230 288h10M230 289h10M190 290h40M240 290h40M190 291h40M240 291h40M190 292h40M240 292h40M190 293h40M240 293h40M190 294h40M240 294h40M190 295h40M240 295h40M190 296h40M240 296h40M190 297h40M240 297h40M190 298h40M240 298h40M190 299h40M240 299h40M190 300h40M240 300h40M190 301h40M240 301h40M190 302h40M240 302h40M190 303h40M240 303h40M190 304h40M240 304h40M190 305h40M240 305h40M190 306h9M200 306h30M240 306h40M190 307h40M240 307h40M190 308h40M240 308h40M190 309h40M240 309h40M190 310h30M230 310h50M190 311h30M230 311h50M190 312h30M230 312h10M241 312h39M190 313h30M230 313h50M190 314h30M230 314h50M190 315h30M230 315h50M190 316h30M230 316h50M190 317h30M230 317h50M190 318h30M230 318h50M190 319h30M230 319h50M190 320h40M240 320h40M190 321h40M240 321h40M190 322h40M240 322h40M190 323h40M240 323h40M190 324h40M240 324h40M190 325h40M240 325h40M190 326h40M240 326h40M190 327h40M240 327h40M190 328h40M240 328h40M190 329h40M240 329h40M200 330h5M206 330h14M250 330h20M200 331h20M250 331h20M200 332h20M250 332h20M200 333h20M250 333h20M200 334h20M250 334h20M200 335h20M250 335h20M200 336h20M250 336h20M200 337h20M250 337h20M200 338h20M250 338h20M200 339h20M250 339h20M200 340h20M250 340h20M200 341h20M250 341h20M200 342h20M250 342h20M200 343h20M250 343h20M200 344h20M250 344h20M200 345h20M250 345h20M200 346h20M250 346h20M200 347h20M250 347h20M200 348h20M250 348h20M200 349h20M250 349h20M210 350h50M210 351h50M210 352h50M210 353h50M210 354h50M210 355h50M210 356h50M210 357h50M210 358h50M210 359h50M220 360h30M220 361h30M220 362h30M220 363h30M220 364h30M220 365h30M220 366h30M220 367h30M220 368h30M220 369h30M230 370h10M230 371h10M230 372h10M230 373h10M230 374h10M230 375h10M230 376h10M230 377h10M230 378h10M230 379h10M200 380h20M230 380h10M250 380h20M200 381h20M230 381h10M250 381h20M200 382h20M230 382h10M250 382h20M200 383h20M230 383h10M250 383h20M200 384h20M230 384h10M250 384h20M200 385h20M230 385h10M250 385h20M200 386h20M230 386h10M250 386h20M200 387h20M230 387h10M250 387h20M200 388h20M230 388h10M250 388h20M200 389h20M230 389h10M250 389h20M200 390h10M220 390h10M240 390h10M260 390h10M200 391h10M220 391h10M240 391h10M260 391h10M200 392h10M220 392h10M240 392h10M260 392h10M200 393h10M220 393h10M240 393h10M260 393h10M200 394h10M220 394h10M240 394h10M260 394h10M200 395h10M220 395h10M240 395h10M260 395h10M200 396h10M220 396h7M228 396h2M240 396h10M260 396h10M200 397h10M220 397h10M240 397h10M260 397h10M200 398h10M220 398h10M240 398h10M260 398h10M200 399h10M220 399h10M240 399h10M260 399h10" />
<path stroke="#f0b091" d="M242 260h1M257 262h1M218 263h1M227 396h1" />
<path stroke="#f0b190" d="M199 306h1M205 330h1" />
<path stroke="#a2fff3" d="M170 310h10M290 310h10M170 311h10M290 311h10M170 312h10M290 312h10M170 313h10M290 313h10M170 314h10M290 314h10M170 315h10M290 315h10M170 316h10M290 316h10M170 317h10M290 317h10M170 318h10M290 318h10M170 319h10M290 319h10M210 370h10M250 370h10M210 371h10M250 371h10M210 372h10M250 372h10M210 373h10M250 373h10M210 374h10M250 374h10M210 375h10M250 375h10M210 376h10M250 376h10M210 377h10M250 377h10M210 378h10M250 378h10M210 379h10M250 379h10M220 380h10M240 380h10M220 381h10M240 381h10M220 382h10M240 382h10M220 383h10M240 383h10M220 384h10M240 384h10M220 385h10M240 385h10M220 386h10M240 386h10M220 387h10M240 387h10M220 388h10M240 388h10M220 389h10M240 389h10M230 390h10M230 391h10M230 392h10M230 393h10M230 394h10M230 395h10M230 396h10M230 397h10M230 398h10M230 399h10" />
<path stroke="#f1b090" d="M240 312h1" />
<path stroke="#e35100" d="M220 330h30M220 331h30M220 332h30M220 333h30M220 334h30M220 335h30M220 336h30M220 337h30M220 338h30M220 339h30M220 340h30M220 341h30M220 342h30M220 343h30M220 344h30M220 345h30M220 346h30M220 347h30M220 348h30M220 349h30" />
<path stroke="#e0b090" d="M230 400h10M230 401h10M230 402h10M230 403h10M230 404h10M230 405h10M230 406h10M230 407h10M230 408h10M230 409h10" />
</svg>