<svg xmlns="http://www.w3.org/2000/svg" viewBox="0 -0.5 480 480" shape-rendering="crispEdges">
<metadata>Made with Pixels to Svg https://codepen.io/shshaw/pen/XbxvNj</metadata>
<path stroke="#000000" d="M210 170h70M210 171h70M210 172h70M210 173h70M210 174h70M210 175h70M210 176h70M210 177h70M210 178h1M212 178h68M210 179h70M200 180h90M200 181h90M200 182h90M200 183h90M200 184h90M200 185h90M200 186h90M200 187h90M200 188h90M200 189h90M190 190h110M190 191h110M190 192h110M190 193h78M269 193h31M190 194h110M190 195h75M266 195h34M190 196h110M190 197h110M190 198h110M190 199h110M180 220h20M290 220h20M180 221h20M290 221h20M180 222h20M290 222h20M180 223h20M290 223h20M180 224h20M290 224h20M180 225h20M290 225h20M180 226h20M290 226h20M180 227h20M290 227h20M180 228h20M290 228h20M180 229h20M290 229h20M180 230h20M210 230h30M250 230h30M290 230h20M180 231h20M210 231h30M250 231h30M290 231h20M180 232h20M210 232h30M250 232h13M264 232h16M290 232h20M180 233h20M210 233h30M250 233h30M290 233h20M180 234h20M210 234h30M250 234h30M290 234h20M180 235h20M210 235h30M250 235h30M290 235h20M180 236h20M210 236h30M250 236h30M290 236h20M180 237h20M210 237h8M219 237h21M250 237h30M290 237h20M180 238h20M210 238h30M250 238h30M290 238h20M180 239h20M210 239h30M250 239h30M290 239h20M170 240h30M210 240h30M250 240h30M290 240h30M170 241h30M210 241h30M250 241h30M290 241h30M170 242h10M181 242h19M210 242h22M233 242h7M250 242h30M290 242h30M170 243h30M210 243h30M250 243h30M290 243h30M170 244h30M210 244h30M250 244h30M290 244h30M170 245h30M210 245h30M250 245h30M290 245h30M170 246h30M210 246h30M250 246h30M290 246h30M170 247h30M210 247h30M250 247h30M290 247h30M170 248h30M210 248h30M250 248h30M290 248h30M170 249h30M210 249h30M250 249h30M290 249h23M314 249h6M160 250h10M190 250h10M290 250h10M320 250h10M160 251h10M190 251h10M290 251h10M320 251h10M160 252h10M190 252h10M290 252h10M320 252h10M160 253h10M190 253h10M290 253h10M320 253h10M160 254h10M190 254h10M290 254h10M320 254h10M160 255h10M190 255h10M290 255h10M320 255h10M160 256h10M190 256h10M290 256h10M320 256h10M160 257h10M190 257h10M290 257h10M320 257h10M160 258h10M190 258h10M290 258h10M320 258h10M160 259h10M190 259h10M290 259h10M320 259h10M160 260h10M190 260h10M220 260h20M250 260h20M290 260h10M320 260h10M160 261h10M190 261h10M220 261h20M250 261h20M290 261h10M320 261h10M160 262h10M190 262h10M220 262h20M250 262h20M290 262h10M320 262h10M160 263h10M190 263h10M220 263h20M250 263h20M290 263h10M320 263h10M160 264h10M190 264h10M220 264h20M250 264h20M290 264h10M320 264h10M160 265h10M190 265h10M220 265h20M250 265h20M290 265h10M320 265h10M160 266h10M190 266h10M220 266h7M228 266h12M250 266h20M290 266h10M320 266h10M160 267h10M190 267h10M220 267h20M250 267h20M290 267h10M320 267h10M160 268h10M190 268h10M220 268h20M250 268h20M290 268h10M320 268h10M160 269h10M190 269h10M220 269h20M250 269h20M290 269h10M320 269h10M160 270h10M320 270h10M160 271h10M320 271h10M160 272h10M320 272h10M160 273h10M320 273h10M160 274h10M320 274h10M160 275h10M320 275h10M160 276h10M320 276h10M160 277h10M320 277h10M160 278h10M320 278h10M160 279h10M320 279h10M160 280h10M250 280h10M320 280h10M160 281h10M250 281h10M320 281h10M160 282h10M250 282h10M320 282h10M160 283h10M250 283h10M320 283h10M160 284h10M250 284h10M320 284h10M160 285h10M250 285h10M320 285h10M160 286h10M250 286h10M320 286h10M160 287h10M250 287h10M320 287h10M160 288h10M250 288h10M320 288h10M160 289h10M250 289h10M320 289h10M170 290h20M250 290h10M300 290h20M170 291h20M250 291h10M300 291h20M170 292h20M250 292h10M300 292h20M170 293h20M250 293h4M255 293h5M300 293h20M170 294h20M250 294h10M300 294h20M170 295h20M250 295h10M300 295h20M170 296h20M250 296h10M300 296h20M170 297h20M250 297h10M300 297h20M170 298h20M250 298h10M300 298h20M170 299h20M250 299h10M300 299h20M180 300h10M220 300h10M260 300h10M300 300h10M180 301h10M220 301h10M260 301h10M300 301h10M180 302h10M220 302h10M260 302h10M300 302h10M180 303h10M220 303h10M260 303h10M300 303h10M180 304h10M220 304h10M260 304h10M300 304h10M180 305h10M220 305h10M260 305h10M300 305h10M180 306h10M220 306h10M260 306h10M300 306h10M180 307h10M220 307h10M260 307h10M300 307h10M180 308h10M220 308h10M260 308h10M300 308h10M180 309h10M220 309h10M260 309h10M300 309h10M180 310h10M230 310h10M250 310h10M300 310h10M180 311h10M230 311h10M250 311h10M300 311h10M180 312h10M230 312h10M250 312h10M300 312h10M180 313h10M230 313h10M250 313h10M300 313h10M180 314h10M230 314h10M250 314h10M300 314h10M180 315h10M230 315h10M250 315h10M300 315h10M180 316h10M230 316h10M250 316h10M300 316h10M180 317h10M230 317h10M250 317h10M300 317h10M180 318h10M230 318h10M250 318h10M300 318h10M180 319h10M230 319h10M250 319h10M300 319h10M180 320h10M240 320h10M300 320h10M180 321h10M240 321h10M300 321h10M180 322h10M240 322h10M300 322h10M180 323h10M240 323h10M300 323h10M180 324h10M240 324h10M300 324h10M180 325h10M240 325h10M300 325h10M180 326h10M240 326h10M300 326h10M180 327h10M240 327h10M300 327h10M180 328h10M240 328h10M300 328h10M180 329h10M240 329h10M300 329h10M180 330h10M300 330h10M180 331h10M300 331h5M306 331h4M180 332h10M300 332h10M180 333h10M300 333h10M180 334h10M300 334h10M180 335h10M300 335h10M180 336h10M300 336h9M180 337h10M300 337h10M180 338h10M300 338h10M180 339h10M300 339h10M180 340h10M220 340h50M300 340h10M180 341h10M220 341h50M300 341h10M180 342h10M220 342h50M300 342h2M303 342h7M180 343h10M220 343h50M300 343h10M180 344h10M220 344h12M233 344h37M300 344h10M180 345h10M220 345h50M300 345h10M180 346h10M220 346h50M300 346h10M180 347h10M220 347h50M300 347h10M180 348h10M220 348h11M232 348h38M300 348h10M180 349h10M220 349h50M300 349h10M180 350h10M300 350h10M180 351h10M300 351h10M180 352h10M300 352h10M180 353h10M300 353h10M180 354h10M300 354h10M180 355h10M300 355h10M180 356h10M300 356h10M180 357h10M300 357h10M180 358h10M300 358h10M180 359h10M300 359h10M190 360h10M230 360h30M290 360h10M190 361h10M230 361h30M290 361h10M190 362h10M230 362h30M290 362h10M190 363h10M230 363h30M290 363h7M298 363h2M190 364h10M230 364h30M290 364h10M190 365h10M230 365h30M290 365h10M190 366h10M230 366h30M290 366h10M190 367h10M230 367h30M290 367h10M190 368h10M230 368h30M290 368h10M190 369h10M230 369h30M290 369h10M140 370h50M200 370h10M220 370h50M280 370h10M300 370h49M140 371h50M200 371h10M220 371h50M280 371h10M300 371h50M140 372h50M200 372h10M220 372h50M280 372h10M300 372h50M140 373h50M200 373h10M220 373h50M280 373h10M300 373h50M140 374h50M200 374h10M220 374h50M280 374h10M300 374h50M140 375h50M200 375h10M220 375h50M280 375h10M300 375h50M140 376h50M200 376h10M220 376h50M280 376h10M300 376h50M140 377h50M200 377h10M220 377h3M224 377h46M280 377h10M300 377h50M140 378h50M200 378h10M220 378h50M280 378h10M300 378h50M140 379h50M200 379h10M220 379h50M280 379h10M300 379h50M130 380h10M210 380h70M350 380h10M130 381h10M210 381h70M350 381h10M130 382h10M210 382h70M350 382h10M130 383h10M210 383h70M350 383h10M130 384h10M210 384h70M350 384h10M130 385h10M210 385h70M350 385h10M130 386h10M210 386h70M350 386h10M130 387h10M210 387h70M350 387h10M130 388h10M210 388h70M350 388h10M130 389h10M210 389h70M350 389h10M120 390h10M360 390h10M120 391h10M360 391h10M120 392h10M360 392h10M120 393h10M360 393h10M120 394h10M360 394h10M120 395h10M360 395h10M120 396h10M360 396h10M120 397h10M360 397h10M120 398h10M360 398h10M120 399h10M360 399h10M110 400h10M370 400h10M110 401h10M370 401h10M110 402h10M370 402h10M110 403h10M370 403h10M110 404h10M370 404h10M110 405h10M370 405h10M110 406h10M370 406h10M110 407h10M370 407h10M110 408h10M370 408h10M110 409h10M370 409h10M110 410h10M370 410h10M110 411h10M370 411h10M110 412h10M370 412h10M110 413h10M370 413h10M110 414h10M370 414h10M110 415h10M370 415h10M110 416h10M370 416h10M110 417h10M370 417h10M110 418h10M370 418h10M110 419h10M370 419h10M110 420h10M370 420h10M110 421h10M370 421h10M110 422h10M370 422h10M110 423h10M370 423h10M110 424h10M370 424h10M110 425h10M370 425h10M110 426h10M370 426h10M110 427h10M370 427h10M110 428h10M370 428h10M110 429h10M370 429h10M110 430h10M370 430h10M110 431h10M370 431h10M110 432h10M370 432h10M110 433h10M370 433h10M110 434h10M370 434h10M110 435h10M370 435h10M110 436h10M370 436h10M110 437h10M370 437h10M110 438h10M370 438h10M110 439h10M370 439h10" />
<path stroke="#000100" d="M211 178h1M268 193h1M265 195h1M232 242h1M313 249h1M232 344h1M349 370h1M223 377h1" />
<path stroke="#ff0000" d="M180 200h130M180 201h9M190 201h120M180 202h76M257 202h53M180 203h130M180 204h130M180 205h130M180 206h10M191 206h119M180 207h130M180 208h130M180 209h130M180 210h34M215 210h95M180 211h130M180 212h130M180 213h130M180 214h130M180 215h130M180 216h130M180 217h130M180 218h130M180 219h130M190 370h10M290 370h10M190 371h10M290 371h10M190 372h10M290 372h10M190 373h10M290 373h10M190 374h10M290 374h10M190 375h10M290 375h10M190 376h10M290 376h10M190 377h10M290 377h10M190 378h10M290 378h10M190 379h10M290 379h10M170 380h40M280 380h40M170 381h40M280 381h40M170 382h40M280 382h40M170 383h40M280 383h19M300 383h20M170 384h40M280 384h40M170 385h40M280 385h40M170 386h40M280 386h40M170 387h40M280 387h40M170 388h40M280 388h40M170 389h40M280 389h40M170 390h40M280 390h40M170 391h40M280 391h40M170 392h40M280 392h40M170 393h40M280 393h40M170 394h40M280 394h40M170 395h40M280 395h40M170 396h40M280 396h40M170 397h40M280 397h40M170 398h40M280 398h40M170 399h20M191 399h19M280 399h40M170 400h50M270 400h50M170 401h50M270 401h50M170 402h50M270 402h50M170 403h50M270 403h18M289 403h31M170 404h50M270 404h50M170 405h50M270 405h50M170 406h50M270 406h50M170 407h50M270 407h50M170 408h50M270 408h50M170 409h50M270 409h50M170 410h46M217 410h103M170 411h31M202 411h118M170 412h150M170 413h150M170 414h150M170 415h150M170 416h150M170 417h150M170 418h150M170 419h150M170 420h30M240 420h10M290 420h30M170 421h30M240 421h10M290 421h30M170 422h30M240 422h10M290 422h30M170 423h30M240 423h10M290 423h30M170 424h30M240 424h10M290 424h30M170 425h30M240 425h10M290 425h30M170 426h30M240 426h10M290 426h30M170 427h30M240 427h10M290 427h30M170 428h30M240 428h10M290 428h30M170 429h30M240 429h10M290 429h30M170 430h60M240 430h10M260 430h20M290 430h30M170 431h60M240 431h10M260 431h20M290 431h30M170 432h60M240 432h10M260 432h20M290 432h30M170 433h60M240 433h10M260 433h20M290 433h30M170 434h60M240 434h10M260 434h20M290 434h30M170 435h60M240 435h10M260 435h17M278 435h2M290 435h30M170 436h51M222 436h8M240 436h10M260 436h20M290 436h30M170 437h60M240 437h10M260 437h20M290 437h30M170 438h60M240 438h9M260 438h20M290 438h30M170 439h60M240 439h10M260 439h20M290 439h30" />
<path stroke="#fe0000" d="M189 201h1M288 403h1M216 410h1M201 411h1M249 438h1" />
<path stroke="#ff0100" d="M256 202h1M190 206h1M214 210h1M190 399h1M277 435h1" />
<path stroke="#c89878" d="M200 220h90M200 221h90M200 222h90M200 223h90M200 224h90M200 225h90M200 226h90M200 227h12M213 227h77M200 228h90M200 229h90M200 230h10M240 230h10M280 230h10M200 231h10M240 231h10M280 231h10M200 232h10M240 232h10M280 232h10M200 233h10M240 233h10M280 233h10M200 234h10M240 234h10M280 234h10M200 235h10M240 235h10M280 235h10M200 236h10M240 236h10M280 236h10M200 237h10M240 237h10M280 237h10M200 238h2M203 238h7M240 238h10M280 238h10M200 239h10M240 239h10M280 239h10M200 240h10M240 240h4M245 240h5M280 240h10M200 241h10M240 241h10M280 241h10M200 242h10M240 242h10M280 242h10M200 243h10M240 243h10M280 243h10M200 244h10M240 244h10M280 244h10M200 245h10M240 245h10M280 245h10M200 246h10M240 246h10M280 246h10M200 247h10M240 247h10M280 247h10M200 248h10M240 248h10M280 248h10M200 249h10M240 249h10M280 249h10M170 250h20M200 250h90M300 250h20M170 251h20M200 251h90M300 251h20M170 252h20M200 252h90M300 252h20M170 253h20M200 253h90M300 253h13M314 253h6M170 254h20M200 254h90M300 254h20M170 255h20M200 255h90M300 255h20M170 256h20M200 256h90M300 256h20M170 257h20M200 257h90M300 257h20M170 258h20M200 258h74M275 258h15M300 258h20M170 259h20M200 259h90M300 259h20M170 260h20M200 260h20M240 260h10M270 260h20M300 260h20M170 261h20M200 261h4M205 261h15M240 261h10M270 261h20M300 261h20M170 262h20M200 262h20M240 262h10M270 262h20M300 262h20M170 263h20M200 263h20M240 263h10M270 263h20M300 263h20M170 264h20M200 264h20M240 264h10M270 264h20M300 264h20M170 265h20M200 265h20M240 265h10M270 265h20M300 265h20M170 266h20M200 266h20M240 266h10M270 266h20M300 266h20M170 267h20M200 267h20M240 267h10M270 267h20M300 267h20M170 268h20M200 268h20M240 268h10M270 268h20M300 268h20M170 269h20M200 269h20M240 269h10M270 269h20M300 269h20M170 270h150M170 271h150M170 272h150M170 273h150M170 274h150M170 275h150M170 276h150M170 277h150M170 278h66M237 278h83M170 279h150M170 280h80M260 280h60M170 281h80M260 281h60M170 282h80M260 282h60M170 283h80M260 283h60M170 284h80M260 284h22M283 284h37M170 285h80M260 285h60M170 286h80M260 286h60M170 287h80M260 287h60M170 288h80M260 288h60M170 289h80M260 289h60M190 290h60M260 290h40M190 291h60M260 291h40M190 292h60M260 292h40M190 293h60M260 293h40M190 294h60M260 294h40M190 295h60M260 295h40M190 296h60M260 296h40M190 297h60M260 297h40M190 298h60M260 298h40M190 299h60M260 299h40M190 300h16M207 300h13M230 300h30M270 300h30M190 301h30M230 301h30M270 301h30M190 302h30M230 302h30M270 302h30M190 303h30M230 303h30M270 303h30M190 304h30M230 304h30M270 304h30M190 305h30M230 305h30M270 305h30M190 306h30M230 306h30M270 306h27M298 306h2M190 307h30M230 307h30M270 307h30M190 308h30M230 308h30M270 308h30M190 309h30M230 309h30M270 309h30M190 310h40M240 310h10M260 310h40M190 311h40M240 311h10M260 311h40M190 312h40M240 312h10M260 312h40M190 313h40M240 313h10M260 313h40M190 314h40M240 314h10M260 314h40M190 315h40M240 315h10M260 315h40M190 316h40M240 316h10M260 316h40M190 317h40M240 317h10M260 317h26M287 317h13M190 318h40M240 318h10M260 318h40M190 319h40M240 319h10M260 319h40M190 320h50M250 320h50M190 321h50M250 321h50M190 322h50M250 322h50M190 323h50M250 323h50M190 324h50M250 324h50M190 325h50M250 325h50M190 326h50M250 326h50M190 327h50M250 327h50M190 328h50M250 328h50M190 329h50M250 329h50M190 330h92M283 330h17M190 331h110M190 332h110M190 333h48M239 333h61M190 334h110M190 335h13M204 335h96M190 336h110M190 337h110M190 338h110M190 339h110M190 340h30M270 340h30M190 341h30M270 341h30M190 342h30M270 342h30M190 343h30M270 343h30M190 344h30M270 344h30M190 345h30M270 345h30M190 346h30M270 346h30M190 347h30M270 347h30M190 348h30M270 348h30M190 349h30M270 349h30M190 350h40M231 350h69M190 351h110M190 352h110M190 353h41M232 353h68M190 354h110M190 355h110M190 356h110M190 357h110M190 358h110M190 359h110M200 360h30M260 360h30M200 361h30M260 361h30M200 362h30M260 362h30M200 363h30M260 363h30M200 364h30M260 364h30M200 365h30M260 365h30M200 366h30M260 366h30M200 367h30M260 367h30M200 368h30M260 368h30M200 369h9M210 369h20M260 369h30M210 370h10M270 370h10M210 371h10M270 371h10M210 372h10M270 372h10M210 373h10M270 373h10M210 374h10M270 374h10M210 375h10M270 375h10M210 376h10M270 376h10M210 377h10M270 377h10M210 378h10M270 378h10M210 379h10M270 379h10M140 380h30M320 380h30M140 381h30M320 381h30M140 382h30M320 382h30M140 383h30M320 383h30M140 384h30M320 384h30M140 385h30M320 385h30M140 386h30M320 386h30M140 387h30M320 387h30M140 388h30M320 388h30M140 389h30M320 389h30M130 390h40M210 390h70M320 390h40M130 391h40M210 391h70M320 391h40M130 392h40M210 392h70M320 392h40M130 393h40M210 393h70M320 393h40M130 394h40M210 394h70M320 394h40M130 395h40M210 395h70M320 395h40M130 396h40M210 396h70M320 396h40M130 397h40M210 397h70M320 397h40M130 398h40M210 398h70M320 398h40M130 399h40M210 399h70M320 399h40M120 400h50M220 400h50M320 400h50M120 401h50M220 401h50M320 401h50M120 402h50M220 402h50M320 402h50M120 403h41M162 403h8M220 403h50M320 403h50M120 404h50M220 404h50M320 404h50M120 405h50M220 405h50M320 405h50M120 406h50M220 406h50M320 406h39M360 406h10M120 407h50M220 407h50M320 407h50M120 408h50M220 408h50M320 408h50M120 409h50M220 409h50M320 409h50M120 410h50M320 410h50M120 411h50M320 411h50M120 412h50M320 412h50M120 413h50M320 413h50M120 414h50M320 414h50M120 415h50M320 415h50M120 416h50M320 416h35M356 416h14M120 417h50M320 417h50M120 418h50M320 418h50M120 419h50M320 419h50M120 420h50M320 420h50M120 421h50M320 421h50M120 422h50M320 422h50M120 423h37M158 423h12M320 423h50M120 424h50M320 424h50M120 425h50M320 425h50M120 426h50M320 426h50M120 427h50M320 427h50M120 428h50M320 428h50M120 429h50M320 429h50M120 430h50M320 430h34M355 430h15M120 431h50M320 431h50M120 432h50M320 432h50M120 433h50M320 433h50M120 434h50M320 434h50M120 435h50M320 435h37M358 435h12M120 436h50M320 436h50M120 437h50M320 437h50M120 438h50M320 438h50M120 439h50M320 439h15M336 439h34" />
<path stroke="#c89879" d="M212 227h1M236 278h1M206 300h1M203 335h1M230 350h1M209 369h1M161 403h1M359 406h1M335 439h1" />
<path stroke="#000001" d="M263 232h1M218 237h1M227 266h1M254 293h1M305 331h1M302 342h1" />
<path stroke="#c89978" d="M202 238h1M244 240h1M313 253h1M274 258h1M286 317h1M238 333h1M355 416h1M157 423h1" />
<path stroke="#010000" d="M180 242h1M309 336h1M231 348h1M297 363h1" />
<path stroke="#c99878" d="M204 261h1M282 284h1M297 306h1M282 330h1M231 353h1M354 430h1M357 435h1" />
<path stroke="#ff0001" d="M299 383h1M221 436h1" />
<path stroke="#ffeb3b" d="M200 420h40M250 420h40M200 421h40M250 421h40M200 422h40M250 422h40M200 423h40M250 423h40M200 424h40M250 424h40M200 425h40M250 425h40M200 426h40M250 426h40M200 427h40M250 427h40M200 428h40M250 428h40M200 429h40M250 429h40M230 430h10M250 430h10M280 430h10M230 431h10M250 431h10M280 431h10M230 432h10M250 432h10M280 432h10M230 433h10M250 433h10M280 433h10M230 434h10M250 434h10M280 434h10M230 435h10M250 435h10M280 435h10M230 436h10M250 436h10M280 436h10M230 437h10M250 437h10M280 437h10M230 438h10M250 438h10M280 438h10M230 439h10M250 439h10M280 439h10" />
</svg>