<svg xmlns="http://www.w3.org/2000/svg" viewBox="0 -0.5 480 480" shape-rendering="crispEdges">
<metadata>Made with Pixels to Svg https://codepen.io/shshaw/pen/XbxvNj</metadata>
<path stroke="#000000" d="M190 170h100M190 171h100M190 172h100M190 173h100M190 174h100M190 175h100M190 176h100M190 177h100M190 178h100M190 179h100M180 180h10M200 180h10M220 180h10M270 180h10M290 180h10M180 181h10M200 181h10M220 181h10M270 181h10M290 181h10M180 182h10M200 182h10M220 182h10M270 182h10M290 182h10M180 183h10M200 183h10M220 183h10M270 183h10M290 183h10M180 184h10M200 184h10M220 184h10M270 184h10M290 184h10M181 185h9M200 185h10M220 185h10M270 185h10M290 185h10M180 186h10M200 186h10M220 186h10M270 186h10M290 186h10M180 187h10M200 187h10M220 187h10M270 187h10M290 187h10M180 188h10M200 188h10M220 188h10M270 188h10M290 188h10M180 189h10M200 189h10M220 189h10M270 189h10M290 189h10M170 190h10M200 190h10M220 190h10M260 190h10M300 190h10M170 191h10M200 191h10M220 191h10M260 191h10M300 191h10M170 192h10M200 192h10M220 192h10M260 192h10M300 192h10M170 193h10M200 193h10M220 193h10M260 193h10M300 193h10M170 194h10M200 194h10M220 194h10M260 194h10M300 194h10M170 195h10M200 195h10M220 195h10M260 195h10M300 195h10M170 196h10M200 196h6M207 196h3M220 196h10M260 196h10M300 196h10M170 197h10M200 197h10M220 197h10M260 197h10M300 197h10M170 198h10M200 198h10M220 198h10M260 198h10M300 198h10M170 199h10M200 199h10M220 199h10M260 199h10M300 199h10M170 200h20M210 200h10M230 200h10M260 200h10M290 200h20M170 201h20M210 201h10M230 201h10M260 201h10M291 201h19M170 202h20M210 202h10M230 202h10M260 202h10M290 202h20M170 203h20M210 203h10M230 203h10M260 203h10M290 203h20M170 204h20M210 204h10M230 204h10M260 204h10M290 204h20M170 205h20M210 205h10M230 205h10M260 205h10M290 205h20M170 206h20M210 206h10M230 206h10M260 206h10M290 206h20M170 207h20M210 207h10M230 207h10M260 207h10M290 207h20M170 208h20M210 208h10M230 208h10M260 208h10M290 208h20M170 209h20M210 209h10M230 209h10M260 209h10M290 209h20M170 210h10M190 210h10M280 210h10M300 210h10M170 211h10M190 211h10M280 211h10M300 211h10M170 212h10M190 212h10M280 212h10M300 212h10M170 213h10M190 213h10M280 213h10M300 213h10M170 214h10M190 214h10M280 214h10M300 214h10M170 215h10M190 215h10M280 215h10M300 215h10M170 216h10M190 216h10M280 216h10M300 216h10M170 217h10M190 217h10M280 217h10M300 217h10M170 218h10M190 218h10M280 218h10M300 218h10M170 219h10M190 219h10M280 219h10M300 219h10M170 220h20M300 220h10M170 221h20M300 221h10M170 222h20M300 222h10M170 223h20M300 223h10M170 224h20M300 224h10M170 225h20M300 225h10M170 226h20M300 226h10M170 227h20M300 227h10M170 228h20M300 228h10M170 229h20M300 229h10M170 230h10M200 230h30M250 230h30M290 230h20M170 231h10M200 231h30M250 231h30M290 231h20M170 232h10M200 232h30M250 232h30M290 232h20M170 233h10M200 233h30M250 233h30M290 233h20M170 234h10M200 234h30M250 234h30M290 234h20M170 235h10M200 235h30M250 235h30M290 235h20M170 236h10M200 236h30M250 236h30M290 236h20M170 237h10M200 237h30M250 237h30M290 237h20M170 238h10M200 238h30M250 238h30M290 238h20M170 239h10M200 239h30M250 239h30M290 239h20M170 240h10M300 240h10M170 241h10M300 241h10M170 242h10M300 242h10M170 243h10M300 243h10M170 244h10M300 244h10M170 245h10M300 245h10M170 246h10M300 246h10M170 247h10M300 247h10M170 248h10M300 248h10M170 249h10M300 249h10M170 250h20M200 250h10M220 250h10M250 250h10M270 250h10M290 250h20M170 251h20M200 251h10M220 251h10M250 251h10M270 251h10M290 251h20M170 252h20M200 252h10M220 252h10M250 252h10M270 252h10M290 252h20M170 253h20M200 253h10M220 253h10M250 253h10M270 253h10M290 253h20M170 254h20M200 254h10M220 254h10M250 254h10M270 254h10M290 254h20M170 255h20M200 255h10M220 255h10M250 255h10M270 255h10M290 255h20M170 256h20M200 256h10M220 256h10M250 256h10M270 256h10M290 256h20M170 257h20M200 257h10M220 257h10M250 257h10M270 257h10M290 257h20M170 258h20M200 258h10M220 258h10M250 258h10M270 258h10M290 258h20M170 259h20M200 259h10M220 259h10M250 259h10M270 259h10M290 259h20M160 260h10M210 260h10M260 260h10M310 260h10M160 261h10M210 261h10M260 261h10M310 261h10M160 262h10M210 262h10M260 262h10M310 262h10M160 263h10M210 263h4M215 263h5M260 263h10M310 263h10M160 264h10M210 264h10M260 264h10M310 264h10M160 265h10M210 265h10M260 265h10M310 265h10M160 266h10M210 266h10M260 266h10M310 266h10M160 267h10M210 267h10M260 267h10M310 267h10M160 268h10M210 268h10M260 268h10M310 268h10M160 269h10M210 269h10M260 269h10M310 269h10M160 270h10M240 270h10M310 270h10M160 271h10M240 271h10M310 271h10M160 272h10M240 272h10M310 272h10M160 273h10M240 273h10M310 273h10M160 274h10M240 274h10M310 274h10M160 275h10M240 275h10M310 275h10M160 276h10M240 276h10M311 276h9M160 277h10M240 277h10M310 277h10M160 278h10M240 278h10M310 278h10M160 279h10M240 279h10M310 279h10M160 280h10M210 280h10M240 280h10M260 280h10M310 280h10M160 281h10M210 281h10M240 281h10M260 281h10M310 281h10M160 282h10M210 282h10M240 282h10M260 282h10M310 282h10M160 283h10M210 283h10M240 283h10M260 283h10M310 283h10M160 284h10M210 284h10M240 284h10M260 284h10M310 284h10M160 285h10M210 285h10M240 285h10M260 285h10M310 285h5M316 285h4M160 286h10M210 286h10M240 286h10M260 286h10M310 286h10M160 287h10M210 287h10M240 287h10M260 287h10M310 287h10M160 288h10M210 288h10M240 288h10M260 288h10M310 288h10M160 289h10M210 289h10M240 289h10M260 289h10M310 289h10M170 290h20M200 290h10M240 290h10M270 290h10M290 290h20M170 291h20M200 291h10M240 291h10M270 291h10M290 291h20M170 292h20M200 292h10M240 292h10M270 292h10M290 292h20M170 293h20M200 293h10M240 293h10M270 293h10M290 293h20M170 294h20M200 294h10M240 294h10M270 294h10M290 294h20M170 295h20M200 295h10M240 295h10M270 295h10M290 295h20M170 296h20M200 296h10M240 296h10M270 296h9M290 296h20M170 297h20M200 297h10M240 297h10M270 297h10M290 297h20M170 298h20M200 298h10M240 298h10M270 298h10M290 298h20M170 299h20M200 299h10M240 299h10M270 299h10M290 299h20M180 300h10M220 300h10M250 300h10M290 300h10M180 301h10M220 301h10M250 301h10M290 301h10M180 302h10M220 302h10M250 302h10M290 302h10M180 303h10M220 303h10M250 303h10M290 303h10M180 304h10M220 304h10M250 304h10M290 304h10M180 305h10M220 305h10M250 305h10M290 305h10M180 306h10M220 306h10M250 306h10M290 306h10M180 307h10M220 307h10M250 307h10M290 307h10M180 308h10M220 308h10M250 308h10M290 308h10M180 309h10M220 309h10M250 309h10M290 309h10M180 310h10M230 310h20M290 310h10M180 311h10M230 311h20M290 311h10M180 312h10M230 312h20M290 312h10M180 313h10M230 313h20M290 313h10M180 314h10M230 314h20M290 314h10M180 315h10M230 315h20M290 315h10M180 316h10M230 316h20M290 316h10M180 317h4M185 317h5M230 317h20M290 317h10M180 318h10M230 318h20M290 318h10M180 319h10M230 319h20M290 319h10M180 320h10M290 320h10M180 321h10M290 321h10M180 322h10M290 322h10M180 323h10M290 323h10M180 324h10M290 324h10M180 325h10M290 325h10M180 326h10M290 326h7M298 326h2M180 327h10M290 327h10M180 328h10M290 328h10M180 329h10M290 329h10M180 340h10M230 340h20M290 340h10M180 341h10M230 341h20M290 341h10M180 342h10M230 342h20M290 342h10M180 343h10M230 343h20M290 343h10M180 344h10M230 344h20M290 344h10M180 345h10M230 345h20M290 345h10M180 346h10M230 346h20M290 346h10M180 347h10M230 347h20M290 347h10M180 348h10M230 348h20M290 348h10M180 349h10M230 349h20M290 349h10M180 350h10M290 350h10M180 351h10M290 351h10M180 352h10M290 352h10M180 353h10M290 353h10M180 354h10M290 354h10M180 355h10M290 355h10M180 356h10M290 356h10M180 357h10M290 357h10M180 358h10M290 358h10M180 359h10M290 359h10M190 360h10M280 360h10M190 361h10M280 361h10M190 362h10M280 362h10M190 363h10M280 363h10M190 364h10M280 364h10M190 365h10M280 365h10M190 366h10M280 366h10M190 367h10M280 367h10M190 368h10M280 368h10M190 369h10M280 369h10M180 370h20M280 370h20M180 371h20M280 371h20M180 372h20M280 372h20M180 373h8M189 373h11M280 373h20M180 374h20M280 374h20M180 375h20M280 375h20M180 376h20M280 376h20M180 377h20M280 377h20M180 378h20M280 378h20M180 379h20M280 379h20M170 380h10M190 380h10M280 380h10M300 380h10M170 381h10M190 381h10M280 381h10M300 381h10M170 382h10M190 382h10M280 382h10M300 382h10M170 383h10M190 383h10M280 383h10M300 383h10M170 384h10M190 384h10M280 384h10M300 384h10M170 385h10M190 385h10M280 385h10M300 385h10M170 386h10M190 386h10M280 386h10M300 386h10M170 387h10M190 387h10M280 387h10M300 387h10M170 388h10M190 388h10M280 388h10M300 388h10M170 389h10M190 389h10M280 389h10M300 389h10M160 390h10M190 390h20M270 390h20M310 390h10M160 391h10M190 391h20M270 391h20M310 391h10M160 392h10M190 392h20M270 392h20M310 392h10M160 393h10M190 393h20M270 393h20M310 393h10M160 394h10M190 394h20M270 394h20M310 394h10M160 395h10M190 395h20M270 395h20M310 395h10M160 396h10M190 396h20M270 396h20M310 396h10M160 397h10M190 397h20M270 397h20M310 397h10M160 398h10M190 398h20M270 398h20M310 398h10M160 399h10M190 399h20M270 399h20M310 399h10M160 400h10M190 400h30M260 400h30M310 400h10M160 401h10M190 401h30M260 401h30M310 401h10M160 402h10M190 402h30M260 402h30M310 402h10M160 403h10M190 403h30M260 403h30M310 403h10M160 404h10M190 404h30M260 404h30M310 404h10M160 405h10M190 405h30M260 405h30M310 405h10M160 406h10M190 406h30M260 406h30M310 406h10M160 407h10M190 407h30M260 407h30M310 407h10M160 408h10M190 408h30M260 408h30M310 408h10M160 409h10M190 409h30M260 409h30M310 409h10M160 410h10M220 410h10M250 410h10M310 410h10M160 411h10M220 411h10M250 411h10M310 411h10M160 412h10M220 412h10M250 412h10M310 412h10M160 413h10M220 413h10M250 413h10M310 413h10M160 414h10M220 414h10M250 414h10M310 414h10M160 415h10M220 415h10M250 415h10M310 415h10M160 416h10M220 416h10M250 416h10M310 416h10M160 417h10M220 417h10M250 417h10M310 417h10M160 418h10M220 418h10M250 418h10M310 418h10M160 419h10M220 419h10M250 419h10M310 419h10M160 420h10M190 420h20M270 420h20M310 420h10M160 421h10M190 421h20M270 421h20M310 421h10M160 422h10M190 422h20M270 422h20M310 422h10M160 423h10M190 423h20M270 423h20M310 423h10M160 424h10M190 424h20M270 424h20M310 424h10M160 425h10M190 425h20M270 425h20M310 425h10M160 426h10M190 426h20M270 426h20M310 426h10M160 427h10M190 427h20M270 427h20M310 427h10M160 428h10M190 428h20M270 428h20M310 428h10M160 429h10M190 429h20M270 429h20M310 429h10" />
<path stroke="#900030" d="M190 180h10M210 180h10M230 180h40M280 180h10M190 181h10M210 181h10M230 181h40M280 181h10M190 182h10M210 182h10M230 182h40M280 182h10M190 183h10M210 183h10M230 183h40M280 183h10M190 184h10M210 184h10M230 184h40M280 184h10M190 185h10M210 185h10M230 185h40M280 185h10M190 186h10M210 186h10M230 186h40M280 186h10M190 187h10M210 187h10M230 187h40M280 187h10M190 188h10M210 188h10M230 188h40M280 188h10M190 189h10M210 189h10M230 189h40M280 189h10M180 190h20M210 190h10M230 190h30M270 190h30M180 191h20M210 191h10M230 191h30M270 191h30M180 192h20M210 192h10M230 192h30M270 192h30M180 193h20M210 193h10M230 193h30M270 193h30M180 194h20M210 194h10M230 194h30M270 194h30M180 195h20M210 195h10M230 195h30M270 195h24M295 195h5M180 196h20M210 196h10M230 196h30M270 196h30M180 197h20M210 197h10M230 197h30M270 197h30M180 198h20M210 198h10M230 198h30M270 198h30M180 199h20M210 199h10M230 199h30M270 199h11M282 199h18M190 200h20M220 200h10M240 200h20M270 200h20M190 201h20M220 201h10M240 201h20M270 201h20M190 202h20M220 202h10M240 202h20M270 202h20M190 203h20M220 203h10M240 203h20M270 203h20M190 204h20M220 204h10M240 204h20M270 204h20M190 205h20M220 205h10M240 205h20M270 205h20M190 206h20M220 206h10M240 206h20M270 206h20M190 207h20M220 207h10M240 207h20M270 207h20M190 208h20M220 208h10M240 208h20M270 208h20M190 209h20M220 209h10M240 209h20M270 209h20M180 210h10M230 210h20M290 210h10M180 211h10M230 211h20M290 211h10M180 212h10M230 212h20M290 212h10M180 213h10M230 213h20M290 213h10M180 214h10M230 214h20M290 214h10M180 215h10M230 215h20M290 215h10M180 216h10M230 216h20M290 216h10M180 217h10M230 217h20M290 217h10M180 218h10M230 218h20M290 218h10M180 219h10M230 219h20M290 219h10M290 220h10M290 221h10M290 222h10M290 223h10M290 224h10M290 225h10M290 226h10M290 227h10M290 228h10M290 229h7M298 229h2M180 230h10M180 231h10M180 232h10M180 233h10M180 234h10M180 235h10M180 236h10M180 237h10M180 238h10M180 239h10M180 240h10M290 240h10M180 241h10M290 241h10M180 242h10M290 242h10M180 243h10M290 243h10M180 244h10M290 244h10M180 245h10M290 245h10M180 246h10M290 246h10M180 247h10M290 247h10M180 248h10M290 248h10M180 249h10M290 249h10M180 260h10M290 260h10M180 261h3M184 261h6M290 261h4M295 261h5M180 262h10M290 262h10M180 263h10M290 263h10M180 264h10M290 264h10M180 265h10M290 265h10M180 266h10M290 266h10M180 267h10M290 267h10M180 268h10M290 268h10M180 269h10M290 269h10M180 270h10M290 270h10M180 271h10M290 271h10M180 272h10M290 272h10M180 273h10M290 273h10M180 274h10M290 274h10M180 275h10M290 275h10M180 276h10M290 276h10M180 277h10M290 277h10M180 278h10M290 278h10M180 279h10M290 279h10M170 310h10M210 310h20M250 310h20M300 310h10M170 311h10M210 311h20M250 311h20M300 311h10M170 312h10M210 312h10M221 312h9M250 312h20M300 312h10M170 313h10M210 313h20M250 313h20M300 313h10M170 314h10M210 314h20M250 314h20M300 314h10M170 315h10M210 315h20M250 315h20M300 315h10M170 316h10M210 316h20M250 316h20M300 316h10M170 317h10M210 317h20M250 317h20M300 317h10M170 318h10M210 318h20M250 318h20M300 318h10M170 319h10M210 319h20M250 319h20M300 319h10M160 320h10M200 320h80M310 320h2M313 320h7M160 321h10M200 321h80M310 321h10M160 322h10M200 322h80M310 322h10M160 323h10M200 323h80M310 323h10M160 324h10M200 324h80M310 324h10M160 325h10M200 325h80M310 325h10M160 326h10M200 326h80M310 326h10M160 327h10M200 327h80M310 327h10M160 328h10M200 328h80M310 328h10M160 329h10M200 329h80M310 329h10M170 330h50M260 330h50M170 331h50M260 331h50M170 332h50M260 332h50M170 333h50M260 333h50M170 334h50M260 334h50M170 335h50M260 335h24M285 335h25M170 336h50M260 336h50M170 337h50M260 337h50M170 338h50M260 338h50M170 339h34M205 339h15M260 339h6M267 339h43M190 340h20M270 340h20M190 341h20M270 341h20M190 342h20M270 342h20M190 343h20M270 343h17M288 343h2M190 344h20M270 344h20M190 345h20M270 345h20M190 346h20M270 346h20M190 347h20M270 347h20M190 348h20M270 348h20M190 349h20M270 349h20M230 360h20M230 361h20M230 362h20M230 363h20M230 364h8M239 364h11M230 365h20M230 366h20M230 367h20M230 368h20M230 369h20M200 370h10M220 370h40M270 370h10M200 371h10M220 371h40M270 371h10M200 372h10M220 372h40M270 372h10M200 373h10M220 373h40M270 373h10M200 374h10M220 374h15M236 374h24M270 374h10M200 375h10M220 375h40M270 375h10M200 376h10M220 376h40M270 376h10M200 377h10M220 377h40M270 377h10M200 378h10M220 378h40M270 378h10M200 379h10M220 379h40M270 379h10M210 380h60M210 381h60M210 382h60M210 383h60M210 384h60M210 385h60M210 386h49M260 386h10M210 387h60M210 388h60M210 389h28M239 389h31" />
<path stroke="#010000" d="M180 185h1M315 285h1M279 296h1M297 326h1" />
<path stroke="#910030" d="M294 195h1M297 229h1M183 261h1M294 261h1M312 320h1M204 339h1" />
<path stroke="#000001" d="M206 196h1M290 201h1M188 373h1" />
<path stroke="#900031" d="M281 199h1M284 335h1M266 339h1M287 343h1" />
<path stroke="#a2fff3" d="M200 210h30M250 210h30M200 211h30M250 211h30M200 212h30M250 212h30M200 213h30M250 213h30M200 214h30M250 214h30M200 215h30M250 215h30M200 216h30M250 216h30M200 217h30M250 217h30M200 218h30M250 218h30M200 219h30M250 219h30M190 220h100M190 221h100M190 222h100M190 223h100M190 224h83M274 224h16M190 225h100M190 226h100M190 227h100M190 228h66M257 228h33M190 229h100M190 230h10M230 230h20M280 230h10M190 231h10M230 231h20M280 231h10M190 232h10M230 232h20M280 232h10M190 233h10M230 233h20M280 233h10M190 234h10M230 234h20M280 234h10M190 235h10M230 235h20M280 235h10M190 236h10M230 236h20M280 236h10M190 237h10M230 237h4M235 237h15M280 237h10M190 238h10M230 238h20M280 238h10M190 239h10M230 239h20M280 239h10M190 240h100M190 241h100M190 242h100M190 243h100M190 244h100M190 245h100M190 246h100M190 247h100M190 248h100M190 249h100M190 250h10M210 250h10M230 250h20M260 250h10M280 250h10M190 251h10M210 251h10M230 251h20M260 251h10M280 251h10M190 252h10M210 252h10M230 252h20M260 252h10M280 252h10M190 253h10M210 253h10M230 253h20M260 253h10M280 253h10M190 254h10M210 254h10M230 254h20M260 254h10M280 254h10M190 255h10M210 255h10M230 255h20M260 255h10M280 255h10M190 256h10M210 256h10M230 256h20M260 256h10M280 256h10M190 257h10M210 257h10M230 257h20M260 257h10M280 257h10M190 258h10M210 258h10M230 258h20M260 258h10M280 258h10M190 259h10M210 259h10M230 259h20M260 259h10M280 259h10M170 260h10M190 260h20M220 260h40M270 260h20M300 260h10M170 261h10M190 261h20M220 261h20M241 261h19M270 261h20M300 261h10M170 262h10M190 262h20M220 262h40M270 262h10M281 262h9M300 262h10M170 263h10M190 263h20M220 263h40M270 263h20M300 263h10M170 264h10M190 264h20M220 264h40M270 264h20M300 264h10M170 265h10M190 265h20M220 265h40M270 265h20M300 265h10M170 266h10M190 266h20M220 266h40M270 266h20M300 266h10M170 267h10M190 267h12M203 267h7M220 267h40M270 267h20M300 267h10M170 268h10M190 268h20M220 268h40M270 268h20M300 268h10M170 269h10M190 269h20M220 269h40M270 269h20M300 269h10M170 270h10M190 270h50M250 270h40M300 270h10M170 271h10M190 271h36M227 271h13M250 271h40M300 271h10M170 272h10M190 272h48M239 272h1M250 272h40M300 272h10M170 273h10M190 273h50M250 273h40M300 273h10M170 274h10M190 274h50M250 274h40M300 274h10M170 275h10M190 275h50M250 275h40M300 275h10M170 276h10M190 276h50M250 276h40M300 276h10M170 277h10M190 277h50M250 277h40M300 277h10M170 278h10M190 278h50M250 278h40M300 278h10M170 279h10M190 279h50M250 279h40M300 279h10M170 280h40M220 280h20M250 280h10M270 280h40M170 281h40M220 281h20M250 281h10M270 281h40M170 282h40M220 282h20M250 282h10M270 282h40M170 283h40M220 283h20M250 283h10M270 283h40M170 284h40M220 284h20M250 284h10M270 284h40M170 285h40M220 285h20M250 285h10M270 285h40M170 286h40M220 286h20M250 286h10M270 286h40M170 287h40M220 287h20M250 287h10M270 287h40M170 288h40M220 288h20M250 288h10M270 288h40M170 289h40M220 289h20M250 289h10M270 289h40M190 290h10M210 290h30M250 290h20M280 290h10M190 291h10M210 291h30M250 291h20M280 291h10M190 292h10M210 292h30M250 292h20M280 292h10M190 293h10M210 293h30M250 293h20M280 293h10M190 294h10M210 294h30M250 294h20M280 294h10M190 295h10M210 295h30M250 295h20M280 295h10M190 296h10M210 296h30M250 296h20M280 296h10M190 297h10M210 297h30M250 297h20M280 297h10M190 298h10M210 298h30M250 298h20M280 298h10M190 299h10M210 299h30M250 299h20M280 299h10M190 300h30M230 300h20M260 300h30M190 301h30M230 301h20M260 301h30M190 302h30M230 302h20M260 302h30M190 303h30M230 303h20M260 303h30M190 304h30M230 304h20M260 304h30M190 305h30M230 305h20M260 305h30M190 306h30M230 306h20M260 306h30M190 307h30M230 307h20M260 307h30M190 308h30M230 308h18M249 308h1M260 308h30M190 309h30M230 309h20M260 309h30M190 310h20M270 310h20M190 311h20M270 311h20M190 312h20M270 312h20M190 313h20M270 313h20M190 314h20M270 314h20M190 315h20M270 315h20M190 316h20M270 316h20M190 317h20M270 317h20M190 318h20M270 318h20M190 319h20M270 319h20M190 320h10M280 320h10M190 321h10M280 321h10M190 322h10M280 322h10M190 323h10M280 323h10M190 324h10M280 324h10M190 325h10M280 325h10M190 326h10M280 326h10M190 327h10M280 327h10M190 328h10M280 328h10M190 329h10M280 329h10M220 330h40M220 331h40M220 332h40M220 333h40M220 334h40M220 335h40M220 336h9M230 336h30M220 337h40M220 338h40M220 339h40M210 340h20M250 340h20M210 341h20M250 341h20M210 342h20M250 342h20M210 343h20M250 343h20M210 344h20M250 344h20M210 345h20M250 345h20M210 346h20M250 346h20M210 347h20M250 347h20M210 348h20M250 348h20M210 349h20M250 349h20M190 350h100M190 351h100M190 352h100M190 353h100M190 354h100M190 355h100M190 356h100M190 357h100M190 358h100M190 359h100M200 360h30M250 360h30M200 361h30M250 361h30M200 362h30M250 362h30M200 363h30M250 363h30M200 364h30M250 364h30M200 365h30M250 365h30M200 366h30M250 366h30M200 367h30M250 367h30M200 368h30M250 368h30M200 369h30M250 369h30M210 370h10M260 370h10M210 371h10M260 371h10M210 372h10M260 372h10M210 373h10M260 373h10M210 374h10M260 374h10M210 375h10M260 375h10M210 376h10M260 376h10M210 377h10M260 377h10M210 378h10M260 378h10M210 379h10M260 379h10" />
<path stroke="#a3fff3" d="M273 224h1M234 237h1M240 261h1" />
<path stroke="#a2fef3" d="M256 228h1M280 262h1M202 267h1M226 271h1M238 272h1M229 336h1" />
<path stroke="#000100" d="M214 263h1M310 276h1M184 317h1" />
<path stroke="#a2fff2" d="M248 308h1" />
<path stroke="#900130" d="M220 312h1M238 364h1M235 374h1M259 386h1M238 389h1" />
<path stroke="#ffffff" d="M70 360h70M70 361h52M123 361h17M70 362h70M70 363h70M70 364h70M70 365h70M70 366h70M70 367h70M70 368h70M70 369h70M80 370h10M120 370h10M80 371h10M120 371h10M80 372h10M120 372h10M80 373h10M120 373h10M80 374h10M120 374h10M80 375h10M120 375h10M80 376h10M120 376h10M80 377h10M120 377h10M80 378h2M83 378h7M120 378h10M80 379h10M120 379h10M90 380h10M110 380h10M180 380h10M200 380h10M270 380h10M290 380h10M90 381h10M110 381h10M180 381h10M200 381h10M270 381h10M290 381h10M90 382h10M110 382h10M180 382h10M200 382h10M270 382h10M290 382h10M90 383h10M110 383h10M180 383h10M200 383h10M270 383h10M290 383h10M90 384h10M110 384h10M180 384h10M200 384h10M270 384h10M290 384h10M90 385h10M110 385h10M180 385h10M200 385h10M270 385h10M290 385h10M90 386h10M110 386h10M180 386h10M200 386h10M270 386h10M290 386h10M90 387h10M110 387h10M180 387h10M200 387h10M270 387h10M290 387h10M90 388h10M110 388h10M180 388h10M200 388h10M270 388h8M279 388h1M290 388h10M90 389h10M110 389h10M180 389h10M200 389h10M270 389h10M290 389h10M100 390h10M170 390h20M210 390h20M250 390h20M290 390h20M100 391h10M170 391h20M210 391h20M250 391h20M290 391h20M100 392h10M170 392h20M210 392h20M250 392h20M290 392h20M100 393h10M170 393h20M210 393h20M250 393h20M290 393h20M100 394h10M170 394h20M210 394h20M250 394h20M290 394h20M100 395h10M170 395h20M210 395h20M250 395h20M290 395h20M100 396h10M170 396h20M210 396h20M250 396h20M290 396h13M304 396h6M100 397h10M170 397h20M210 397h20M250 397h20M290 397h20M100 398h10M170 398h20M210 398h20M250 398h20M290 398h20M100 399h10M170 399h20M210 399h20M250 399h20M290 399h20M100 400h10M170 400h20M220 400h10M250 400h10M290 400h20M100 401h10M170 401h20M220 401h10M250 401h10M290 401h20M100 402h10M170 402h20M220 402h10M250 402h10M290 402h20M100 403h10M170 403h20M220 403h10M250 403h10M290 403h20M100 404h10M170 404h20M220 404h10M250 404h10M290 404h20M100 405h10M170 405h20M220 405h10M250 405h10M290 405h20M100 406h10M170 406h20M220 406h10M250 406h10M290 406h20M100 407h10M170 407h20M220 407h10M250 407h10M290 407h20M100 408h10M170 408h20M220 408h10M250 408h10M290 408h20M100 409h10M170 409h20M220 409h10M250 409h10M290 409h20M100 410h10M170 410h20M210 410h10M260 410h10M290 410h20M100 411h10M170 411h20M210 411h10M260 411h10M290 411h20M100 412h10M170 412h20M210 412h10M260 412h10M290 412h20M100 413h10M170 413h20M210 413h10M260 413h10M290 413h20M100 414h10M170 414h20M210 414h10M260 414h10M290 414h20M100 415h10M170 415h20M210 415h10M260 415h10M290 415h20M100 416h10M170 416h20M210 416h10M260 416h10M290 416h20M100 417h10M170 417h20M210 417h10M260 417h10M290 417h20M100 418h10M170 418h20M210 418h10M260 418h10M290 418h20M100 419h10M170 419h20M210 419h10M260 419h10M290 419h20M90 420h30M170 420h20M210 420h20M250 420h20M290 420h20M90 421h30M170 421h20M210 421h20M250 421h20M290 421h20M90 422h29M170 422h20M210 422h20M250 422h20M290 422h20M90 423h9M100 423h20M170 423h20M210 423h20M250 423h20M290 423h20M90 424h30M170 424h20M210 424h20M250 424h20M290 424h20M90 425h30M170 425h20M210 425h20M250 425h20M290 425h20M90 426h30M170 426h20M210 426h20M250 426h20M290 426h20M90 427h30M170 427h20M210 427h20M250 427h20M290 427h20M90 428h30M170 428h20M210 428h18M229 428h1M250 428h20M290 428h20M90 429h30M170 429h20M210 429h20M250 429h20M290 429h20" />
<path stroke="#fffffe" d="M122 361h1M278 388h1M119 422h1" />
<path stroke="#a52a2a" d="M90 370h30M90 371h30M90 372h30M90 373h30M90 374h25M116 374h4M90 375h30M90 376h30M90 377h30M90 378h30M90 379h30M100 380h10M100 381h10M100 382h10M100 383h10M100 384h10M100 385h10M100 386h10M100 387h10M100 388h10M100 389h10" />
<path stroke="#a52b2a" d="M115 374h1" />
<path stroke="#fffeff" d="M82 378h1" />
<path stroke="#db4161" d="M230 390h20M230 391h20M230 392h20M230 393h20M230 394h20M230 395h20M230 396h20M230 397h20M230 398h20M230 399h20M230 400h20M230 401h20M230 402h20M230 403h20M230 404h20M230 405h20M230 406h20M230 407h20M230 408h20M230 409h20M230 410h20M230 411h20M230 412h20M230 413h20M230 414h20M230 415h20M230 416h20M230 417h20M230 418h20M230 419h20M230 420h20M230 421h20M230 422h20M230 423h20M230 424h20M230 425h20M230 426h20M230 427h20M230 428h20M230 429h20" />
<path stroke="#feffff" d="M303 396h1M99 423h1M228 428h1" />
<path stroke="#ffd700" d="M190 410h20M270 410h20M190 411h20M270 411h20M190 412h20M270 412h20M190 413h20M270 413h20M190 414h20M270 414h20M190 415h20M270 415h20M190 416h20M270 416h20M190 417h20M270 417h20M190 418h20M270 418h20M190 419h20M270 419h20" />
</svg>