<svg xmlns="http://www.w3.org/2000/svg" viewBox="0 -0.5 480 480" shape-rendering="crispEdges">
<metadata>Made with Pixels to Svg https://codepen.io/shshaw/pen/XbxvNj</metadata>
<path stroke="#000000" d="M180 180h110M180 181h110M180 182h104M285 182h5M180 183h110M180 184h110M180 185h110M180 186h110M180 187h110M180 188h110M180 189h110M180 190h10M280 190h10M180 191h10M280 191h10M180 192h10M280 192h10M180 193h10M280 193h10M180 194h10M280 194h10M180 195h10M280 195h10M180 196h10M280 196h10M180 197h10M280 197h10M180 198h10M280 198h10M180 199h10M280 199h10M180 200h10M280 200h10M180 201h10M280 201h10M180 202h10M280 202h10M180 203h10M280 203h10M180 204h10M280 204h10M180 205h10M280 205h10M180 206h10M280 206h10M180 207h1M182 207h8M280 207h10M180 208h10M280 208h10M180 209h10M280 209h10M180 210h10M280 210h10M180 211h10M280 211h10M180 212h10M280 212h10M180 213h10M280 213h10M180 214h10M280 214h10M180 215h10M280 215h10M180 216h10M280 216h10M180 217h10M280 217h10M180 218h10M280 218h10M180 219h10M280 219h10M180 220h10M280 220h10M180 221h10M280 221h10M180 222h10M280 222h10M180 223h10M280 223h10M180 224h10M280 224h10M180 225h10M280 225h10M180 226h10M280 226h10M180 227h10M280 227h10M180 228h10M280 228h10M180 229h10M280 229h10M180 230h10M280 230h10M180 231h10M280 231h10M180 232h10M280 232h10M180 233h10M280 233h10M180 234h10M280 234h10M180 235h10M280 235h10M180 236h10M280 236h10M180 237h10M280 237h10M180 238h10M280 238h10M180 239h10M280 239h10M180 240h10M200 240h10M220 240h10M240 240h10M260 240h10M280 240h10M180 241h10M200 241h10M220 241h10M240 241h6M247 241h3M260 241h10M280 241h10M180 242h10M200 242h10M220 242h10M240 242h10M260 242h10M280 242h10M180 243h10M200 243h10M220 243h10M240 243h10M260 243h10M280 243h10M180 244h10M200 244h10M220 244h10M240 244h10M260 244h10M280 244h10M180 245h10M200 245h10M220 245h10M240 245h10M260 245h10M280 245h10M180 246h10M200 246h10M220 246h10M240 246h10M260 246h10M280 246h10M180 247h10M200 247h10M220 247h10M240 247h10M260 247h10M280 247h10M180 248h10M200 248h10M220 248h10M240 248h10M260 248h9M280 248h10M180 249h10M200 249h10M220 249h10M240 249h10M260 249h10M280 249h10M180 250h10M200 250h10M220 250h10M240 250h10M260 250h10M280 250h10M180 251h10M200 251h10M220 251h10M240 251h10M260 251h10M280 251h10M180 252h10M200 252h10M220 252h10M240 252h10M260 252h10M280 252h10M180 253h10M200 253h10M220 253h10M240 253h10M260 253h10M280 253h10M180 254h10M200 254h10M220 254h10M240 254h10M260 254h10M280 254h10M180 255h10M200 255h10M220 255h10M240 255h10M260 255h10M280 255h10M180 256h10M200 256h10M220 256h10M240 256h10M260 256h10M280 256h10M180 257h10M200 257h10M220 257h10M240 257h10M260 257h10M280 257h10M180 258h10M200 258h10M220 258h10M240 258h10M260 258h10M280 258h10M180 259h10M200 259h10M220 259h10M240 259h10M260 259h10M280 259h10M180 260h39M220 260h56M277 260h13M180 261h110M180 262h110M180 263h110M180 264h102M283 264h7M180 265h110M180 266h110M180 267h110M180 268h110M180 269h110M170 270h20M200 270h30M240 270h30M280 270h20M170 271h20M200 271h18M219 271h11M240 271h30M280 271h20M170 272h20M200 272h30M240 272h30M280 272h20M170 273h20M200 273h30M240 273h30M280 273h20M170 274h20M200 274h30M240 274h30M280 274h20M170 275h20M200 275h30M240 275h30M280 275h20M170 276h20M200 276h30M240 276h30M280 276h20M170 277h20M200 277h30M240 277h30M280 277h1M282 277h18M170 278h20M200 278h30M240 278h30M280 278h20M170 279h20M200 279h30M240 279h30M280 279h20M170 280h20M280 280h20M170 281h20M280 281h20M170 282h20M280 282h20M170 283h20M280 283h20M170 284h20M280 284h20M170 285h20M280 285h20M170 286h20M280 286h20M170 287h20M280 287h20M170 288h20M280 288h20M170 289h20M280 289h20M160 290h30M200 290h10M220 290h10M240 290h10M260 290h10M280 290h30M160 291h30M200 291h10M220 291h10M240 291h10M260 291h10M280 291h30M160 292h30M200 292h10M220 292h10M240 292h10M260 292h9M280 292h30M160 293h30M200 293h10M220 293h10M240 293h10M260 293h10M280 293h30M160 294h30M200 294h10M220 294h10M240 294h10M260 294h10M280 294h30M160 295h30M200 295h10M220 295h10M240 295h10M260 295h10M280 295h30M160 296h30M200 296h10M220 296h10M240 296h6M247 296h3M260 296h10M280 296h30M160 297h30M200 297h10M220 297h10M240 297h10M260 297h10M280 297h30M160 298h30M200 298h10M220 298h10M240 298h10M260 298h10M280 298h30M160 299h30M200 299h10M220 299h10M240 299h10M260 299h10M280 299h30M170 300h10M220 300h10M240 300h10M290 300h10M170 301h10M220 301h10M240 301h10M290 301h10M170 302h10M220 302h10M240 302h10M290 302h10M170 303h10M220 303h10M240 303h10M290 303h10M170 304h10M220 304h10M240 304h10M290 304h10M170 305h10M220 305h10M240 305h10M290 305h10M170 306h10M220 306h10M240 306h10M290 306h10M170 307h10M220 307h10M240 307h10M290 307h10M170 308h10M220 308h10M240 308h10M290 308h10M170 309h10M220 309h10M240 309h10M290 309h10M160 310h20M210 310h10M250 310h10M290 310h20M160 311h20M210 311h10M250 311h1M252 311h8M290 311h20M160 312h20M210 312h10M250 312h10M290 312h4M295 312h15M160 313h20M210 313h10M250 313h10M290 313h20M160 314h20M210 314h10M250 314h10M290 314h20M160 315h20M210 315h10M250 315h10M290 315h20M160 316h20M210 316h10M250 316h10M290 316h20M160 317h20M210 317h10M250 317h10M290 317h20M160 318h20M210 318h10M250 318h10M290 318h20M160 319h20M210 319h10M250 319h10M290 319h20M160 320h20M190 320h10M220 320h10M240 320h10M270 320h10M290 320h20M160 321h20M190 321h10M220 321h10M240 321h10M270 321h10M290 321h20M160 322h20M190 322h10M220 322h10M240 322h10M270 322h10M290 322h17M308 322h2M160 323h20M190 323h10M220 323h10M240 323h10M270 323h10M290 323h20M160 324h20M190 324h10M220 324h10M240 324h10M270 324h10M290 324h20M160 325h20M190 325h10M220 325h10M240 325h10M270 325h10M290 325h20M160 326h20M190 326h10M220 326h10M240 326h10M270 326h10M290 326h20M160 327h20M190 327h10M220 327h10M240 327h10M270 327h10M290 327h20M160 328h20M190 328h10M220 328h10M240 328h10M270 328h10M290 328h20M160 329h20M190 329h10M220 329h10M240 329h10M270 329h10M290 329h20M160 330h1M162 330h18M190 330h90M290 330h20M160 331h20M190 331h90M290 331h20M160 332h20M190 332h4M195 332h85M290 332h20M160 333h20M190 333h90M290 333h20M160 334h20M190 334h90M290 334h20M160 335h20M190 335h27M218 335h62M290 335h20M160 336h20M190 336h90M290 336h20M160 337h20M190 337h90M290 337h20M160 338h20M190 338h90M290 338h20M161 339h19M190 339h90M290 339h20M160 340h30M200 340h30M240 340h30M280 340h30M160 341h30M200 341h30M240 341h30M280 341h30M160 342h30M200 342h30M240 342h30M280 342h30M160 343h30M200 343h30M240 343h30M280 343h30M160 344h30M200 344h30M240 344h30M280 344h30M160 345h30M200 345h30M240 345h30M280 345h30M160 346h4M165 346h25M200 346h30M240 346h30M280 346h30M160 347h30M200 347h30M240 347h30M280 347h30M160 348h30M200 348h30M240 348h30M280 348h30M160 349h30M200 349h30M240 349h30M280 349h30M160 350h30M280 350h25M306 350h4M160 351h30M280 351h30M160 352h30M280 352h30M160 353h30M280 353h30M160 354h30M280 354h30M160 355h30M280 355h30M160 356h30M280 356h30M160 357h30M280 357h30M160 358h30M280 358h30M160 359h30M280 359h30M120 360h40M170 360h40M230 360h7M238 360h2M260 360h40M310 360h40M120 361h40M170 361h40M230 361h10M260 361h40M310 361h40M120 362h40M170 362h40M230 362h10M260 362h40M310 362h40M120 363h40M170 363h40M230 363h10M260 363h40M310 363h40M120 364h40M170 364h40M230 364h10M260 364h40M310 364h40M120 365h40M170 365h40M230 365h10M260 365h40M310 365h40M120 366h40M170 366h40M230 366h10M260 366h40M310 366h40M120 367h40M170 367h40M230 367h10M260 367h40M310 367h40M120 368h40M170 368h40M230 368h10M260 368h40M310 368h40M120 369h40M170 369h40M230 369h10M260 369h40M310 369h40M110 370h10M180 370h110M350 370h3M354 370h6M110 371h10M180 371h110M350 371h10M110 372h10M180 372h110M350 372h10M110 373h10M180 373h110M350 373h10M110 374h10M180 374h110M350 374h10M110 375h10M180 375h110M350 375h10M110 376h10M180 376h110M350 376h10M110 377h10M180 377h20M201 377h89M350 377h10M110 378h10M180 378h110M350 378h10M110 379h10M180 379h110M350 379h10M100 380h10M190 380h90M360 380h10M100 381h10M190 381h90M360 381h10M100 382h10M190 382h90M360 382h10M100 383h10M190 383h90M360 383h10M100 384h10M190 384h90M360 384h10M100 385h10M190 385h90M360 385h10M100 386h10M190 386h90M360 386h10M100 387h10M190 387h90M360 387h10M100 388h7M108 388h2M190 388h90M360 388h10M100 389h10M190 389h90M360 389h10M90 390h10M140 390h10M160 390h40M320 390h10M370 390h10M90 391h10M140 391h10M160 391h40M320 391h10M370 391h10M90 392h10M140 392h10M160 392h40M320 392h10M370 392h10M90 393h10M140 393h10M160 393h40M320 393h10M370 393h10M90 394h10M140 394h10M160 394h40M320 394h10M370 394h10M90 395h10M140 395h10M160 395h40M320 395h10M370 395h10M90 396h10M140 396h10M160 396h40M320 396h10M370 396h10M90 397h10M140 397h10M160 397h40M320 397h10M370 397h10M90 398h10M140 398h10M160 398h40M320 398h10M370 398h2M373 398h7M90 399h10M140 399h10M160 399h40M320 399h10M370 399h10M80 400h10M130 400h10M160 400h10M330 400h10M380 400h10M80 401h10M130 401h10M160 401h10M330 401h10M380 401h10M80 402h10M130 402h10M160 402h10M330 402h10M380 402h10M80 403h10M130 403h10M160 403h10M330 403h10M380 403h10M80 404h10M130 404h10M160 404h10M330 404h10M380 404h10M80 405h10M130 405h10M160 405h10M330 405h10M380 405h10M80 406h10M130 406h10M160 406h10M330 406h10M380 406h10M80 407h10M130 407h10M160 407h10M330 407h10M380 407h10M80 408h10M130 408h10M160 408h10M330 408h10M380 408h10M80 409h10M130 409h10M160 409h10M330 409h10M380 409h10M80 410h10M120 410h10M160 410h10M180 410h10M340 410h10M380 410h10M80 411h10M120 411h10M160 411h10M180 411h10M340 411h10M380 411h10M80 412h10M120 412h10M160 412h10M180 412h10M340 412h10M380 412h10M80 413h10M120 413h10M160 413h10M180 413h10M340 413h10M380 413h10M80 414h5M86 414h4M120 414h10M160 414h10M180 414h10M340 414h10M380 414h10M80 415h10M120 415h10M160 415h10M180 415h10M340 415h10M380 415h10M80 416h10M120 416h10M160 416h10M180 416h10M340 416h10M380 416h10M80 417h10M120 417h10M160 417h10M180 417h10M340 417h10M380 417h10M80 418h10M120 418h10M160 418h10M180 418h10M340 418h10M380 418h10M80 419h10M120 419h10M160 419h10M180 419h10M340 419h3M344 419h6M380 419h10M80 420h10M120 420h10M160 420h10M340 420h10M380 420h10M80 421h10M120 421h10M160 421h10M340 421h10M380 421h10M80 422h10M120 422h10M160 422h10M340 422h10M380 422h10M80 423h10M120 423h10M160 423h10M340 423h10M380 423h10M80 424h10M120 424h10M160 424h10M340 424h10M380 424h10M80 425h10M120 425h10M160 425h10M340 425h10M380 425h10M80 426h10M120 426h10M160 426h10M340 426h10M380 426h10M80 427h10M120 427h10M160 427h10M340 427h10M380 427h10M80 428h10M120 428h10M160 428h10M341 428h9M380 428h10M80 429h10M120 429h10M160 429h10M340 429h10M380 429h10" />
<path stroke="#000001" d="M284 182h1M269 248h1M218 271h1M281 277h1M269 292h1M251 311h1M161 330h1M194 332h1M164 346h1M305 350h1M353 370h1M200 377h1M107 388h1" />
<path stroke="#a2fff3" d="M190 190h90M190 191h90M190 192h90M190 193h90M190 194h90M190 195h90M190 196h90M190 197h90M190 198h90M190 199h90M190 200h67M258 200h22M190 201h90M190 202h14M205 202h75M190 203h90M190 204h90M190 205h90M190 206h90M190 207h90M190 208h90M190 209h90M190 210h90M190 211h90M190 212h90M190 213h90M190 214h90M190 215h90M190 216h90M190 217h90M190 218h90M190 219h90M190 220h90M190 221h90M190 222h90M190 223h90M190 224h74M265 224h15M190 225h90M190 226h90M190 227h90M190 228h90M190 229h90M190 230h90M190 231h90M190 232h90M190 233h90M190 234h90M190 235h90M190 236h90M190 237h90M190 238h90M190 239h90M190 240h10M210 240h10M230 240h10M250 240h10M270 240h10M190 241h10M210 241h10M230 241h10M250 241h10M270 241h10M190 242h10M210 242h10M230 242h10M250 242h10M270 242h10M190 243h10M210 243h10M230 243h10M250 243h10M270 243h10M190 244h10M210 244h10M230 244h10M250 244h10M270 244h10M190 245h10M210 245h10M230 245h10M250 245h10M270 245h10M190 246h10M210 246h10M230 246h10M250 246h10M270 246h10M190 247h10M210 247h10M230 247h10M250 247h10M270 247h10M190 248h10M210 248h10M230 248h10M250 248h10M270 248h10M190 249h10M210 249h10M230 249h10M250 249h10M270 249h10M190 250h10M210 250h10M230 250h10M250 250h10M270 250h10M190 251h10M210 251h10M230 251h2M233 251h7M250 251h10M270 251h10M190 252h10M210 252h10M230 252h10M250 252h10M270 252h10M190 253h10M210 253h10M230 253h10M250 253h10M270 253h10M190 254h10M210 254h10M230 254h10M250 254h10M270 254h10M190 255h10M210 255h10M230 255h10M250 255h10M270 255h10M190 256h10M210 256h10M230 256h10M250 256h10M270 256h10M190 257h10M210 257h10M230 257h10M250 257h10M270 257h10M190 258h10M210 258h10M230 258h10M250 258h10M270 258h10M190 259h10M210 259h10M230 259h10M250 259h10M270 259h10M160 360h10M300 360h10M160 361h10M300 361h10M160 362h10M300 362h10M160 363h10M300 363h10M160 364h10M300 364h10M160 365h10M300 365h10M160 366h10M300 366h10M160 367h10M300 367h10M160 368h10M300 368h10M160 369h2M163 369h7M300 369h10M120 370h60M290 370h60M120 371h60M290 371h60M120 372h60M290 372h60M120 373h60M290 373h60M120 374h60M290 374h60M120 375h60M290 375h60M120 376h15M136 376h44M290 376h60M120 377h60M290 377h60M120 378h60M290 378h60M120 379h60M290 379h60M110 380h80M280 380h80M110 381h80M280 381h80M110 382h80M280 382h80M110 383h80M280 383h80M110 384h80M280 384h80M110 385h80M280 385h80M110 386h80M280 386h80M110 387h80M280 387h80M110 388h13M124 388h66M280 388h80M110 389h80M280 389h80M100 390h40M150 390h10M200 390h35M236 390h84M330 390h40M100 391h40M150 391h10M200 391h120M330 391h40M100 392h40M150 392h10M200 392h115M316 392h4M330 392h40M100 393h40M150 393h10M200 393h120M330 393h40M100 394h40M150 394h10M200 394h120M330 394h40M100 395h40M150 395h10M200 395h120M330 395h40M100 396h40M150 396h10M200 396h120M330 396h40M100 397h40M150 397h10M200 397h11M212 397h108M330 397h40M100 398h40M150 398h10M200 398h120M330 398h40M100 399h23M124 399h16M150 399h10M200 399h120M330 399h40M90 400h40M140 400h20M170 400h160M340 400h40M90 401h40M140 401h20M170 401h160M340 401h40M90 402h40M140 402h20M170 402h160M340 402h40M90 403h40M140 403h20M170 403h160M340 403h32M373 403h7M90 404h40M140 404h20M170 404h160M340 404h40M90 405h40M140 405h17M158 405h2M170 405h160M340 405h40M90 406h40M140 406h20M170 406h42M213 406h117M340 406h40M90 407h40M140 407h20M170 407h160M340 407h40M90 408h40M140 408h20M170 408h160M340 408h40M90 409h40M140 409h20M170 409h160M340 409h40M90 410h30M130 410h30M170 410h10M190 410h150M350 410h30M90 411h30M130 411h30M170 411h10M190 411h150M350 411h30M90 412h30M130 412h30M170 412h10M190 412h150M350 412h30M90 413h30M130 413h30M170 413h10M190 413h150M350 413h23M374 413h6M90 414h30M130 414h30M170 414h10M190 414h150M350 414h30M90 415h30M130 415h30M170 415h10M190 415h150M350 415h30M90 416h30M130 416h30M170 416h10M190 416h150M350 416h30M90 417h30M130 417h30M170 417h10M190 417h150M350 417h30M90 418h6M97 418h23M130 418h30M170 418h10M190 418h150M350 418h30M90 419h30M130 419h30M170 419h10M190 419h150M350 419h2M353 419h27M90 420h30M130 420h30M170 420h170M350 420h30M90 421h30M130 421h30M170 421h170M350 421h30M90 422h30M130 422h30M170 422h170M350 422h30M90 423h30M130 423h30M170 423h170M350 423h30M90 424h30M130 424h30M170 424h170M350 424h30M90 425h30M130 425h30M170 425h170M350 425h30M90 426h30M130 426h30M170 426h170M350 426h30M90 427h30M130 427h30M170 427h170M350 427h30M90 428h30M130 428h30M170 428h170M350 428h30M90 429h30M130 429h30M170 429h170M350 429h30" />
<path stroke="#a2fff2" d="M257 200h1M212 406h1" />
<path stroke="#a3fff3" d="M204 202h1M264 224h1M162 369h1M135 376h1M123 388h1M315 392h1M123 399h1M372 403h1M96 418h1" />
<path stroke="#000100" d="M181 207h1M307 322h1M217 335h1M160 339h1M85 414h1M343 419h1M340 428h1" />
<path stroke="#010000" d="M246 241h1M219 260h1M276 260h1M282 264h1M246 296h1M294 312h1M237 360h1M372 398h1" />
<path stroke="#a2fef3" d="M232 251h1M235 390h1M211 397h1M157 405h1M373 413h1M352 419h1" />
<path stroke="#ecbcb4" d="M190 270h10M230 270h10M270 270h10M190 271h10M230 271h10M270 271h10M190 272h10M230 272h10M270 272h10M190 273h10M230 273h10M270 273h10M190 274h10M230 274h10M270 274h10M190 275h10M230 275h10M270 275h10M190 276h10M230 276h10M270 276h10M190 277h10M230 277h6M237 277h3M270 277h10M190 278h10M230 278h10M270 278h10M190 279h10M230 279h10M270 279h10M190 280h90M190 281h90M190 282h10M201 282h24M226 282h54M190 283h90M190 284h90M190 285h11M202 285h78M190 286h90M190 287h90M190 288h90M190 289h90M190 290h10M210 290h10M230 290h10M250 290h10M270 290h10M190 291h10M210 291h10M230 291h10M250 291h10M270 291h10M190 292h10M210 292h10M230 292h10M250 292h10M270 292h10M190 293h10M210 293h10M230 293h10M250 293h10M270 293h10M190 294h10M210 294h10M230 294h10M250 294h10M270 294h10M190 295h10M210 295h10M230 295h10M250 295h10M270 295h10M190 296h10M210 296h10M230 296h10M250 296h10M270 296h10M190 297h10M210 297h10M230 297h10M250 297h10M270 297h10M190 298h10M210 298h10M230 298h10M250 298h10M270 298h10M190 299h10M210 299h10M230 299h10M250 299h10M270 299h10M180 300h40M230 300h10M250 300h40M180 301h40M230 301h10M250 301h40M180 302h40M230 302h10M250 302h40M180 303h15M196 303h24M230 303h10M250 303h40M180 304h40M230 304h10M250 304h40M180 305h40M230 305h10M250 305h40M180 306h40M230 306h10M250 306h40M180 307h40M230 307h10M250 307h40M180 308h40M230 308h10M250 308h40M180 309h40M230 309h10M250 309h40M180 310h1M182 310h7M190 310h8M199 310h11M220 310h30M260 310h30M180 311h30M220 311h30M260 311h20M281 311h9M180 312h30M220 312h20M241 312h9M260 312h30M180 313h30M220 313h30M260 313h30M180 314h30M220 314h30M260 314h30M180 315h30M220 315h30M260 315h30M180 316h19M200 316h10M220 316h30M260 316h30M180 317h30M220 317h30M260 317h30M180 318h30M220 318h30M260 318h30M180 319h30M220 319h14M235 319h15M260 319h30M180 320h10M200 320h20M230 320h10M250 320h20M280 320h10M180 321h10M200 321h20M230 321h10M250 321h20M280 321h10M180 322h10M200 322h20M230 322h10M250 322h20M280 322h10M180 323h10M200 323h20M230 323h10M250 323h20M280 323h10M180 324h10M200 324h20M230 324h10M250 324h20M280 324h10M180 325h10M200 325h20M230 325h10M250 325h20M280 325h10M180 326h10M200 326h20M230 326h10M250 326h20M280 326h10M180 327h10M200 327h20M230 327h10M250 327h14M265 327h5M280 327h10M180 328h10M200 328h20M230 328h10M250 328h20M280 328h10M180 329h10M200 329h20M230 329h10M250 329h20M280 329h10M180 330h10M280 330h10M180 331h10M280 331h10M180 332h10M280 332h10M180 333h10M280 333h10M180 334h10M280 334h10M180 335h10M280 335h10M180 336h10M280 336h10M180 337h10M280 337h10M180 338h10M280 338h10M180 339h10M280 339h10M190 340h10M230 340h10M270 340h10M190 341h10M230 341h10M270 341h10M190 342h10M230 342h10M270 342h10M190 343h10M230 343h10M270 343h10M190 344h10M230 344h10M270 344h10M190 345h10M230 345h10M270 345h10M190 346h10M230 346h10M270 346h10M190 347h10M230 347h10M270 347h10M190 348h10M230 348h10M270 348h10M190 349h10M230 349h10M270 349h10M190 350h40M240 350h40M190 351h40M240 351h40M190 352h40M240 352h40M190 353h40M240 353h40M190 354h40M240 354h40M190 355h40M240 355h4M245 355h35M190 356h40M240 356h40M190 357h40M240 357h40M190 358h40M240 358h40M190 359h40M240 359h40M210 360h20M240 360h20M210 361h20M240 361h20M210 362h20M240 362h20M210 363h20M240 363h20M210 364h20M240 364h20M210 365h20M240 365h20M210 366h20M240 366h20M210 367h20M240 367h20M210 368h20M240 368h20M210 369h20M240 369h20" />
<path stroke="#ecbcb5" d="M236 277h1M200 282h1" />
<path stroke="#edbcb4" d="M225 282h1M201 285h1M195 303h1M189 310h1M198 310h1M240 312h1M234 319h1M264 327h1" />
<path stroke="#ecbdb4" d="M181 310h1M280 311h1M199 316h1M244 355h1" />
<path stroke="#ff0000" d="M230 350h10M230 351h10M230 352h10M230 353h10M230 354h10M230 355h10M231 356h9M230 357h10M230 358h10M230 359h10" />
<path stroke="#ff0001" d="M230 356h1" />
</svg>