<svg xmlns="http://www.w3.org/2000/svg" viewBox="0 -0.5 480 480" shape-rendering="crispEdges">
<metadata>Made with Pixels to Svg https://codepen.io/shshaw/pen/XbxvNj</metadata>
<path stroke="#000000" d="M210 170h90M210 171h90M210 172h8M219 172h81M210 173h90M210 174h90M210 175h90M210 176h12M223 176h77M210 177h90M210 178h90M210 179h90M180 180h25M206 180h4M300 180h10M180 181h30M300 181h10M180 182h30M300 182h10M180 183h30M300 183h10M180 184h30M300 184h10M180 185h30M300 185h10M180 186h30M300 186h10M180 187h30M300 187h10M180 188h30M300 188h10M180 189h30M300 189h10M160 190h20M300 190h10M160 191h20M300 191h10M160 192h20M300 192h10M160 193h20M300 193h10M160 194h20M300 194h10M160 195h20M300 195h10M160 196h13M174 196h6M300 196h10M160 197h20M300 197h10M160 198h20M300 198h10M160 199h20M300 199h10M150 200h10M190 200h10M300 200h10M150 201h10M190 201h10M300 201h10M150 202h10M190 202h10M300 202h10M150 203h10M190 203h10M300 203h10M150 204h10M190 204h10M300 204h10M150 205h10M190 205h10M300 205h10M150 206h10M190 206h10M300 206h10M150 207h10M190 207h10M300 207h10M150 208h10M190 208h10M300 208h10M150 209h10M190 209h10M300 209h10M150 210h10M180 210h10M300 210h10M150 211h10M180 211h10M300 211h10M150 212h10M180 212h10M300 212h10M150 213h10M180 213h10M300 213h10M150 214h10M180 214h10M300 214h10M150 215h10M180 215h10M300 215h10M150 216h10M180 216h10M300 216h10M150 217h10M180 217h10M300 217h10M150 218h10M180 218h10M300 218h10M150 219h10M180 219h10M300 219h10M160 220h140M160 221h140M160 222h140M160 223h140M160 224h24M185 224h115M160 225h140M160 226h140M160 227h140M160 228h140M160 229h8M169 229h131M170 230h20M290 230h20M170 231h20M290 231h20M170 232h20M290 232h20M170 233h20M290 233h20M170 234h20M290 234h20M170 235h20M290 235h20M170 236h20M290 236h20M170 237h20M290 237h20M170 238h20M290 238h20M170 239h20M290 239h20M170 240h20M290 240h20M170 241h20M290 241h20M170 242h20M290 242h20M170 243h20M290 243h20M170 244h20M290 244h20M170 245h20M290 245h20M170 246h20M290 246h20M170 247h20M290 247h20M170 248h20M290 248h20M170 249h20M290 249h20M160 250h20M210 250h20M250 250h20M300 250h20M160 251h20M210 251h20M250 251h20M300 251h20M160 252h20M210 252h20M250 252h20M300 252h20M160 253h1M162 253h18M210 253h20M250 253h20M300 253h20M160 254h20M210 254h20M250 254h20M300 254h20M160 255h20M210 255h20M250 255h20M300 255h20M160 256h20M210 256h20M250 256h20M300 256h10M311 256h9M160 257h20M210 257h20M250 257h20M300 257h20M160 258h20M210 258h20M250 258h20M300 258h20M160 259h20M210 259h20M250 259h20M300 259h20M150 260h10M170 260h10M300 260h10M320 260h10M150 261h10M170 261h10M300 261h10M320 261h10M150 262h10M170 262h10M300 262h10M320 262h10M150 263h10M170 263h10M300 263h10M320 263h10M150 264h10M170 264h10M300 264h10M320 264h10M150 265h10M170 265h10M300 265h10M320 265h10M150 266h10M170 266h10M300 266h10M320 266h10M150 267h10M170 267h10M300 267h10M320 267h10M150 268h10M170 268h10M300 268h10M320 268h10M150 269h10M170 269h10M300 269h10M320 269h10M150 270h10M240 270h10M320 270h10M150 271h10M240 271h10M320 271h10M150 272h10M240 272h10M320 272h10M150 273h10M240 273h10M320 273h10M150 274h10M240 274h10M320 274h10M150 275h10M240 275h10M320 275h10M150 276h10M240 276h10M320 276h10M150 277h10M240 277h10M320 277h10M150 278h10M240 278h10M320 278h10M150 279h10M240 279h10M320 279h10M150 280h10M170 280h10M240 280h10M300 280h10M320 280h10M150 281h10M170 281h10M240 281h10M300 281h10M320 281h10M150 282h10M170 282h10M240 282h10M300 282h1M302 282h8M320 282h10M150 283h10M170 283h10M240 283h10M300 283h10M320 283h10M150 284h10M170 284h10M240 284h10M300 284h10M320 284h10M150 285h10M170 285h10M240 285h10M300 285h10M320 285h10M150 286h10M170 286h10M240 286h10M300 286h10M320 286h10M150 287h10M170 287h10M240 287h10M300 287h10M320 287h10M150 288h10M170 288h10M240 288h10M300 288h10M320 288h10M150 289h10M170 289h10M240 289h10M300 289h10M320 289h10M150 290h10M170 290h20M210 290h10M260 290h2M263 290h7M290 290h20M320 290h10M150 291h10M170 291h20M210 291h10M260 291h10M290 291h20M320 291h10M150 292h10M170 292h20M210 292h10M260 292h10M290 292h20M320 292h10M150 293h10M170 293h20M210 293h10M260 293h10M290 293h20M320 293h10M150 294h10M170 294h20M210 294h10M260 294h10M290 294h20M320 294h10M150 295h10M170 295h20M210 295h10M260 295h10M290 295h20M320 295h10M150 296h10M170 296h20M210 296h10M260 296h10M290 296h20M320 296h10M150 297h10M170 297h20M210 297h10M260 297h10M290 297h20M320 297h10M150 298h10M170 298h20M210 298h10M260 298h10M290 298h20M320 298h10M150 299h10M170 299h20M210 299h10M260 299h10M290 299h20M320 299h10M160 300h30M200 300h30M250 300h30M290 300h30M160 301h30M200 301h30M250 301h30M290 301h30M160 302h30M200 302h30M250 302h30M290 302h30M160 303h30M200 303h30M250 303h30M290 303h30M160 304h14M175 304h15M200 304h30M250 304h30M290 304h30M160 305h30M200 305h30M250 305h30M290 305h30M160 306h30M200 306h30M250 306h30M290 306h30M160 307h30M200 307h30M250 307h30M290 307h30M160 308h30M200 308h30M250 308h30M290 308h30M160 309h30M200 309h30M250 309h30M290 309h30M160 310h160M160 311h160M160 312h160M160 313h160M160 314h130M291 314h29M160 315h160M160 316h160M160 317h160M160 318h160M160 319h160M170 320h13M184 320h26M270 320h19M290 320h20M170 321h40M270 321h40M170 322h40M270 322h40M170 323h40M270 323h40M170 324h40M270 324h40M170 325h40M270 325h40M170 326h40M270 326h40M170 327h40M270 327h40M170 328h40M270 328h40M170 329h40M270 329h40M170 330h140M170 331h140M170 332h140M170 333h140M170 334h140M170 335h9M180 335h130M170 336h140M170 337h140M170 338h140M170 339h31M202 339h108M110 340h60M180 340h40M260 340h40M310 340h60M110 341h60M180 341h40M260 341h40M310 341h60M110 342h60M180 342h40M260 342h40M310 342h60M110 343h60M180 343h40M260 343h40M310 343h60M110 344h60M180 344h40M260 344h40M310 344h60M110 345h1M112 345h58M180 345h40M260 345h40M310 345h60M110 346h60M180 346h40M260 346h40M310 346h60M110 347h60M180 347h40M260 347h40M310 347h60M110 348h60M180 348h40M260 348h9M270 348h30M310 348h27M338 348h32M110 349h60M180 349h32M213 349h7M260 349h40M310 349h60M100 350h10M130 350h10M150 350h10M190 350h100M320 350h10M340 350h10M370 350h10M100 351h10M130 351h10M150 351h10M190 351h100M320 351h10M340 351h10M370 351h10M100 352h10M130 352h10M150 352h10M190 352h100M320 352h10M340 352h10M370 352h10M100 353h10M130 353h10M150 353h10M190 353h100M320 353h10M340 353h10M370 353h10M100 354h10M130 354h10M150 354h10M190 354h100M320 354h10M340 354h10M370 354h10M100 355h10M130 355h10M150 355h10M190 355h100M320 355h10M340 355h10M370 355h10M100 356h10M130 356h10M150 356h10M190 356h100M320 356h10M340 356h10M370 356h10M100 357h10M130 357h10M150 357h10M190 357h100M320 357h10M340 357h10M370 357h10M100 358h10M130 358h10M150 358h10M190 358h100M320 358h10M340 358h10M370 358h10M100 359h10M130 359h10M150 359h10M190 359h100M320 359h10M340 359h10M370 359h10M90 360h10M110 360h40M200 360h80M330 360h40M380 360h10M90 361h10M110 361h40M200 361h80M330 361h40M380 361h10M90 362h10M110 362h40M200 362h80M330 362h40M380 362h10M90 363h10M110 363h40M200 363h80M330 363h40M380 363h10M90 364h10M110 364h40M200 364h80M330 364h40M380 364h10M90 365h10M110 365h40M200 365h80M330 365h40M380 365h10M90 366h10M110 366h40M200 366h2M203 366h77M330 366h40M380 366h10M90 367h10M110 367h40M200 367h80M330 367h40M380 367h10M90 368h10M110 368h40M200 368h76M277 368h3M330 368h40M380 368h10M90 369h10M110 369h40M200 369h80M330 369h40M380 369h10M80 370h10M150 370h30M210 370h60M300 370h30M390 370h10M80 371h10M150 371h30M210 371h60M300 371h30M390 371h10M80 372h10M150 372h30M210 372h60M300 372h30M390 372h10M80 373h10M150 373h30M210 373h60M300 373h30M390 373h10M80 374h10M150 374h30M210 374h60M300 374h30M390 374h10M80 375h10M150 375h30M210 375h60M300 375h30M390 375h10M80 376h10M150 376h30M210 376h60M300 376h30M390 376h10M80 377h10M150 377h24M175 377h5M210 377h60M300 377h30M390 377h10M80 378h10M150 378h30M210 378h60M300 378h30M390 378h10M80 379h10M150 379h30M210 379h60M300 379h30M390 379h10M80 380h10M180 380h10M290 380h10M390 380h10M80 381h10M180 381h10M290 381h10M390 381h10M80 382h10M180 382h10M290 382h10M390 382h10M80 383h10M180 383h10M290 383h10M390 383h10M80 384h10M180 384h10M290 384h10M390 384h10M80 385h10M180 385h10M290 385h10M390 385h10M80 386h10M180 386h10M290 386h10M390 386h10M80 387h10M180 387h10M290 387h10M390 387h10M80 388h10M180 388h10M290 388h10M390 388h10M80 389h10M180 389h10M290 389h10M390 389h10M80 390h10M170 390h10M300 390h10M390 390h10M80 391h10M170 391h10M300 391h10M390 391h10M80 392h7M88 392h2M170 392h10M300 392h10M390 392h10M80 393h10M170 393h10M300 393h10M390 393h10M80 394h10M170 394h10M300 394h10M390 394h10M80 395h10M170 395h10M300 395h10M390 395h10M80 396h10M170 396h10M300 396h10M390 396h10M80 397h10M170 397h10M300 397h10M390 397h10M80 398h10M170 398h10M300 398h10M390 398h10M80 399h10M170 399h10M300 399h10M390 399h10M80 400h10M160 400h10M220 400h10M250 400h10M310 400h10M390 400h10M80 401h10M160 401h10M220 401h10M250 401h10M310 401h10M390 401h10M80 402h10M160 402h10M220 402h10M250 402h10M310 402h10M390 402h10M80 403h10M160 403h10M220 403h10M250 403h10M310 403h10M390 403h10M80 404h10M160 404h10M220 404h10M250 404h10M310 404h10M390 404h10M80 405h10M160 405h10M220 405h10M250 405h10M310 405h10M390 405h10M80 406h10M160 406h10M220 406h10M250 406h10M310 406h10M390 406h10M80 407h10M160 407h10M220 407h10M250 407h10M310 407h10M390 407h10M80 408h10M160 408h10M220 408h10M250 408h10M310 408h10M390 408h10M80 409h10M160 409h10M220 409h10M250 409h10M310 409h10M390 409h10M80 410h10M170 410h10M220 410h10M250 410h10M300 410h10M390 410h10M80 411h10M170 411h10M220 411h10M250 411h2M253 411h7M300 411h10M390 411h10M80 412h10M170 412h4M175 412h5M220 412h10M250 412h10M300 412h10M390 412h10M80 413h10M170 413h10M220 413h10M250 413h10M300 413h10M390 413h10M80 414h10M170 414h10M220 414h10M250 414h10M300 414h10M390 414h10M80 415h10M170 415h10M220 415h10M250 415h10M300 415h10M390 415h10M80 416h10M170 416h10M220 416h10M250 416h10M300 416h10M390 416h10M80 417h10M170 417h10M220 417h10M250 417h10M300 417h10M390 417h10M80 418h10M170 418h5M176 418h4M220 418h10M250 418h10M300 418h10M390 418h10M80 419h10M170 419h10M220 419h10M250 419h10M300 419h10M390 419h10" />
<path stroke="#000001" d="M218 172h1M173 196h1M161 253h1M290 314h1M179 335h1M269 348h1M212 349h1" />
<path stroke="#010000" d="M222 176h1M168 229h1M174 304h1M183 320h1M201 339h1M111 345h1M276 368h1M174 377h1M87 392h1M252 411h1M174 412h1" />
<path stroke="#000100" d="M205 180h1M184 224h1M310 256h1M301 282h1M262 290h1M289 320h1M337 348h1M202 366h1M175 418h1" />
<path stroke="#2c533e" d="M210 180h60M280 180h20M210 181h60M280 181h20M210 182h60M280 182h20M210 183h60M280 183h20M210 184h60M280 184h20M210 185h60M280 185h20M210 186h60M280 186h20M210 187h60M280 187h20M210 188h58M269 188h1M280 188h20M210 189h60M280 189h20M180 190h80M290 190h10M180 191h80M290 191h10M180 192h80M290 192h10M180 193h80M290 193h10M180 194h80M290 194h10M180 195h80M290 195h10M180 196h29M210 196h50M290 196h10M180 197h80M290 197h10M180 198h80M290 198h10M180 199h80M290 199h10M160 200h30M200 200h70M280 200h20M160 201h30M200 201h17M218 201h52M280 201h20M160 202h30M200 202h70M280 202h20M160 203h30M200 203h70M280 203h20M160 204h30M200 204h70M280 204h20M160 205h30M200 205h70M280 205h20M160 206h30M200 206h70M280 206h20M160 207h30M200 207h70M280 207h20M160 208h30M200 208h70M280 208h20M160 209h30M200 209h70M280 209h20M160 210h20M190 210h32M223 210h37M270 210h10M290 210h10M160 211h20M190 211h70M270 211h10M290 211h10M160 212h20M190 212h70M270 212h10M290 212h10M160 213h20M190 213h70M270 213h10M290 213h10M160 214h20M190 214h24M215 214h45M270 214h10M290 214h10M160 215h20M190 215h70M270 215h10M290 215h10M160 216h20M190 216h70M270 216h10M290 216h10M160 217h20M190 217h70M270 217h10M290 217h10M160 218h20M190 218h70M270 218h10M290 218h8M299 218h1M160 219h20M190 219h70M270 219h10M290 219h10M170 340h10M300 340h10M170 341h10M300 341h10M170 342h10M300 342h10M170 343h10M300 343h10M170 344h10M300 344h10M170 345h3M174 345h6M300 345h10M170 346h10M300 346h10M170 347h10M300 347h10M170 348h10M300 348h10M170 349h10M300 349h10M160 350h20M290 350h10M160 351h14M175 351h5M290 351h10M160 352h20M290 352h10M160 353h20M290 353h10M160 354h20M290 354h10M160 355h20M290 355h10M160 356h20M290 356h10M160 357h20M290 357h10M160 358h20M290 358h10M160 359h20M290 359h10M150 360h20M370 360h10M150 361h20M370 361h10M150 362h20M370 362h10M150 363h20M370 363h10M150 364h20M370 364h10M150 365h20M370 365h10M150 366h20M370 366h10M150 367h20M370 367h10M150 368h20M370 368h9M150 369h20M370 369h10M110 370h20M280 370h10M110 371h20M280 371h10M110 372h20M280 372h10M110 373h20M280 373h10M110 374h20M280 374h10M110 375h20M280 375h10M110 376h20M280 376h10M110 377h20M280 377h10M110 378h20M280 378h10M110 379h20M280 379h10M90 380h10M150 380h30M270 380h10M300 380h20M90 381h10M150 381h30M270 381h10M300 381h20M90 382h10M150 382h30M270 382h10M300 382h20M90 383h10M150 383h30M270 383h10M300 383h20M90 384h10M150 384h30M270 384h10M300 384h20M90 385h10M150 385h30M270 385h10M300 385h20M90 386h10M150 386h30M270 386h10M300 386h20M90 387h10M150 387h30M270 387h10M300 387h20M90 388h10M150 388h30M270 388h10M300 388h20M90 389h10M150 389h30M270 389h10M300 389h20M160 390h10M260 390h10M310 390h10M370 390h20M160 391h10M260 391h10M310 391h10M370 391h20M160 392h10M260 392h10M310 392h10M370 392h20M160 393h10M260 393h10M310 393h10M370 393h20M160 394h10M260 394h10M310 394h10M370 394h14M385 394h5M160 395h10M260 395h10M310 395h10M370 395h20M160 396h10M260 396h10M310 396h10M370 396h20M160 397h10M260 397h10M310 397h10M370 397h20M160 398h10M260 398h10M310 398h10M370 398h20M160 399h10M260 399h10M310 399h10M370 399h20M150 400h10M170 400h20M150 401h10M170 401h20M150 402h10M170 402h20M150 403h10M170 403h20M150 404h2M153 404h7M170 404h20M150 405h10M170 405h20M150 406h10M170 406h20M150 407h10M170 407h20M150 408h10M170 408h20M150 409h10M170 409h20M100 410h30M180 410h10M310 410h10M100 411h30M180 411h10M310 411h10M100 412h30M180 412h10M310 412h10M100 413h30M180 413h10M310 413h10M100 414h30M180 414h10M310 414h10M100 415h30M180 415h10M310 415h10M100 416h30M180 416h10M310 416h10M100 417h30M180 417h10M310 417h10M100 418h6M107 418h23M180 418h10M310 418h10M100 419h30M180 419h10M310 419h10" />
<path stroke="#ffd700" d="M270 180h10M270 181h10M270 182h10M270 183h10M270 184h10M270 185h10M270 186h10M270 187h10M270 188h10M270 189h10M260 190h30M260 191h30M260 192h30M260 193h30M260 194h30M260 195h30M260 196h30M260 197h30M260 198h30M260 199h30M270 200h10M270 201h10M270 202h10M270 203h10M270 204h10M270 205h10M270 206h10M270 207h10M270 208h10M270 209h10M260 210h10M280 210h10M260 211h10M280 211h10M260 212h10M280 212h10M260 213h10M280 213h10M260 214h10M280 214h10M260 215h10M280 215h10M260 216h10M280 216h10M260 217h10M280 217h10M260 218h10M280 218h10M260 219h10M280 219h10M210 240h20M250 240h20M210 241h20M250 241h20M210 242h20M250 242h20M210 243h20M250 243h20M210 244h20M250 244h20M210 245h20M250 245h20M210 246h20M250 246h20M210 247h20M250 247h20M210 248h20M250 248h20M210 249h20M250 249h20M180 250h30M230 250h20M270 250h21M292 250h8M180 251h30M230 251h20M270 251h30M180 252h30M230 252h20M270 252h30M180 253h30M230 253h20M270 253h30M180 254h30M230 254h20M270 254h30M180 255h30M230 255h20M270 255h30M180 256h30M230 256h20M270 256h30M180 257h30M230 257h20M270 257h30M180 258h30M230 258h20M270 258h30M180 259h30M230 259h20M270 259h30M210 260h20M250 260h20M210 261h20M250 261h20M210 262h20M250 262h20M210 263h20M250 263h20M210 264h17M228 264h2M250 264h20M210 265h20M250 265h20M210 266h20M250 266h14M265 266h5M210 267h20M250 267h20M210 268h20M250 268h20M210 269h20M250 269h20M160 290h10M310 290h10M160 291h10M310 291h10M160 292h10M310 292h10M160 293h10M310 293h10M160 294h10M310 294h10M160 295h10M310 295h10M160 296h10M310 296h10M160 297h10M310 297h10M160 298h10M310 298h10M160 299h10M310 299h10M210 320h60M210 321h60M210 322h60M210 323h60M210 324h60M210 325h60M210 326h60M210 327h60M210 328h60M210 329h60M220 340h40M220 341h40M220 342h13M234 342h26M220 343h40M220 344h40M220 345h28M249 345h11M220 346h40M220 347h40M220 348h40M220 349h40M110 350h20M140 350h10M330 350h10M350 350h20M110 351h20M140 351h10M330 351h10M350 351h20M110 352h20M140 352h10M330 352h10M350 352h20M110 353h20M140 353h10M330 353h10M350 353h20M110 354h20M140 354h10M330 354h10M350 354h20M110 355h20M140 355h10M330 355h10M350 355h20M110 356h20M140 356h10M330 356h10M350 356h20M110 357h20M140 357h10M330 357h10M350 357h20M110 358h20M140 358h10M330 358h10M350 358h1M352 358h18M110 359h20M140 359h10M330 359h10M350 359h20M200 370h10M270 370h10M200 371h10M270 371h10M200 372h10M270 372h10M200 373h10M270 373h10M200 374h10M270 374h10M200 375h10M270 375h10M200 376h10M270 376h10M200 377h10M270 377h10M200 378h10M270 378h10M200 379h10M270 379h10M140 380h10M210 380h10M260 380h10M320 380h30M140 381h10M210 381h10M260 381h10M320 381h30M140 382h10M210 382h10M260 382h10M320 382h30M140 383h10M210 383h10M260 383h10M320 383h30M140 384h10M210 384h10M260 384h10M320 384h3M324 384h26M140 385h10M210 385h10M260 385h10M320 385h1M322 385h28M140 386h10M210 386h10M260 386h10M320 386h30M140 387h10M210 387h10M260 387h10M320 387h30M140 388h10M210 388h10M260 388h10M320 388h30M140 389h10M210 389h10M260 389h10M320 389h30M130 390h30M220 390h40M130 391h30M220 391h40M130 392h30M220 392h10M231 392h29M130 393h30M220 393h40M130 394h30M220 394h40M130 395h30M220 395h40M130 396h30M220 396h40M130 397h11M142 397h18M220 397h40M130 398h30M220 398h40M130 399h30M220 399h40M140 400h10M320 400h30M140 401h10M320 401h30M140 402h10M320 402h30M140 403h10M320 403h30M140 404h10M320 404h30M140 405h10M320 405h30M140 406h10M320 406h30M140 407h10M320 407h8M329 407h21M140 408h10M320 408h30M140 409h10M320 409h20M341 409h9M130 410h10M150 410h10M330 410h10M130 411h10M150 411h10M330 411h10M130 412h10M150 412h10M330 412h10M130 413h10M150 413h10M330 413h10M130 414h10M150 414h10M330 414h10M130 415h10M150 415h10M330 415h10M130 416h10M150 416h10M330 416h10M130 417h10M150 417h10M330 417h10M130 418h10M150 418h10M330 418h10M130 419h10M150 419h10M330 419h10" />
<path stroke="#2c523e" d="M268 188h1M217 201h1M214 214h1M298 218h1M379 368h1M106 418h1" />
<path stroke="#2c533f" d="M209 196h1M173 345h1M152 404h1" />
<path stroke="#2d533e" d="M222 210h1M174 351h1M384 394h1" />
<path stroke="#713f1e" d="M190 230h100M190 231h100M190 232h100M190 233h100M190 234h100M190 235h100M190 236h100M190 237h100M190 238h100M190 239h100M190 240h20M230 240h20M270 240h20M190 241h20M230 241h20M270 241h20M190 242h20M230 242h20M270 242h20M190 243h20M230 243h20M270 243h20M190 244h20M230 244h20M270 244h20M190 245h20M230 245h20M270 245h20M190 246h20M230 246h20M270 246h20M190 247h20M230 247h20M270 247h20M190 248h20M230 248h20M270 248h20M190 249h20M230 249h20M270 249h20M160 260h10M180 260h30M230 260h20M270 260h30M310 260h10M160 261h10M180 261h30M230 261h20M270 261h30M310 261h10M160 262h10M180 262h30M230 262h20M270 262h30M310 262h10M160 263h10M180 263h30M230 263h20M270 263h30M310 263h10M160 264h10M180 264h30M230 264h20M270 264h30M310 264h10M160 265h10M180 265h30M230 265h20M270 265h30M310 265h10M160 266h10M180 266h30M230 266h20M270 266h30M310 266h10M160 267h10M180 267h30M230 267h20M270 267h30M310 267h10M160 268h10M180 268h30M230 268h20M270 268h30M310 268h10M160 269h10M180 269h30M230 269h20M270 269h30M310 269h10M160 270h80M250 270h70M160 271h80M250 271h70M160 272h80M250 272h70M160 273h80M250 273h23M274 273h46M160 274h56M217 274h23M250 274h70M160 275h80M250 275h70M160 276h80M250 276h70M160 277h72M233 277h7M250 277h70M160 278h80M250 278h70M160 279h80M250 279h70M160 280h10M180 280h60M250 280h50M310 280h10M160 281h10M180 281h60M250 281h50M310 281h10M160 282h10M180 282h60M250 282h50M310 282h10M160 283h10M180 283h60M250 283h50M310 283h10M160 284h10M180 284h60M250 284h50M310 284h10M160 285h10M180 285h60M250 285h50M310 285h10M160 286h10M180 286h60M250 286h50M310 286h10M160 287h10M180 287h60M250 287h50M310 287h10M160 288h10M180 288h28M209 288h31M250 288h50M310 288h10M160 289h6M167 289h3M180 289h60M250 289h50M310 289h10M190 290h20M220 290h40M270 290h20M190 291h20M220 291h40M270 291h20M190 292h20M220 292h40M270 292h20M190 293h20M220 293h40M270 293h20M190 294h20M220 294h40M270 294h20M190 295h20M220 295h40M270 295h20M190 296h20M220 296h40M270 296h20M190 297h20M220 297h40M270 297h20M190 298h20M220 298h40M270 298h20M190 299h20M220 299h40M270 299h20M190 300h10M230 300h20M280 300h10M190 301h10M230 301h20M280 301h10M190 302h10M230 302h20M280 302h10M190 303h10M230 303h20M280 303h10M190 304h10M230 304h20M280 304h10M190 305h10M230 305h20M280 305h10M190 306h10M230 306h20M280 306h10M190 307h10M230 307h20M280 307h10M190 308h10M230 308h20M280 308h10M190 309h10M230 309h20M280 309h10M220 380h40M220 381h19M240 381h20M220 382h40M220 383h40M220 384h40M220 385h40M220 386h40M220 387h40M220 388h40M220 389h40M230 400h20M230 401h20M230 402h20M230 403h20M230 404h20M230 405h20M230 406h20M230 407h20M230 408h20M230 409h20M230 410h20M230 411h20M230 412h20M230 413h20M230 414h20M230 415h20M230 416h20M230 417h20M230 418h20M230 419h20" />
<path stroke="#fed700" d="M291 250h1M264 266h1M351 358h1M321 385h1M141 397h1" />
<path stroke="#ffd701" d="M227 264h1M233 342h1M248 345h1M323 384h1M230 392h1" />
<path stroke="#703f1e" d="M273 273h1M216 274h1" />
<path stroke="#713e1e" d="M232 277h1M208 288h1M166 289h1" />
<path stroke="#5b402c" d="M180 350h10M180 351h10M180 352h10M180 353h10M180 354h10M180 355h10M180 356h10M180 357h10M180 358h10M180 359h10M170 360h30M280 360h30M170 361h30M280 361h30M170 362h30M280 362h30M170 363h30M280 363h30M170 364h30M280 364h30M170 365h30M280 365h30M170 366h30M280 366h30M170 367h30M280 367h30M170 368h15M186 368h14M280 368h30M170 369h30M280 369h30M130 370h20M290 370h10M370 370h20M130 371h20M290 371h10M370 371h20M130 372h20M290 372h10M370 372h20M130 373h20M290 373h10M370 373h20M130 374h20M290 374h10M370 374h20M130 375h20M290 375h10M370 375h20M130 376h20M290 376h10M370 376h20M130 377h20M290 377h10M370 377h20M130 378h20M290 378h10M370 378h20M130 379h20M290 379h10M370 379h20M100 380h10M120 380h20M380 380h10M100 381h10M120 381h20M380 381h10M100 382h10M120 382h20M380 382h10M100 383h10M120 383h20M380 383h10M100 384h10M120 384h20M380 384h10M100 385h10M120 385h20M380 385h10M100 386h10M120 386h20M380 386h10M100 387h10M120 387h20M380 387h10M100 388h10M120 388h20M380 388h10M100 389h10M120 389h20M380 389h10M290 390h10M320 390h20M290 391h10M320 391h20M290 392h10M320 392h20M290 393h10M320 393h20M290 394h10M320 394h20M290 395h10M320 395h20M290 396h10M320 396h5M326 396h14M290 397h10M320 397h20M290 398h10M320 398h20M290 399h10M320 399h20M90 400h10M190 400h30M290 400h20M350 400h20M90 401h10M190 401h30M290 401h20M350 401h20M90 402h10M190 402h30M290 402h20M350 402h20M90 403h10M190 403h30M290 403h20M350 403h20M90 404h10M190 404h30M290 404h20M350 404h20M90 405h10M190 405h30M290 405h20M350 405h20M90 406h10M190 406h30M290 406h20M350 406h20M90 407h10M190 407h30M290 407h20M350 407h20M90 408h10M190 408h30M290 408h20M350 408h20M90 409h10M190 409h30M290 409h20M350 409h20M90 410h10M140 410h10M160 410h10M190 410h30M320 410h10M340 410h20M90 411h10M140 411h10M160 411h10M190 411h30M320 411h10M340 411h20M90 412h10M140 412h10M160 412h10M190 412h30M320 412h10M340 412h20M90 413h10M140 413h10M160 413h10M190 413h30M320 413h10M340 413h20M90 414h10M140 414h10M160 414h10M190 414h30M320 414h10M340 414h20M90 415h10M140 415h10M160 415h10M190 415h30M320 415h10M340 415h20M90 416h10M140 416h10M160 416h10M190 416h30M320 416h10M340 416h20M90 417h10M140 417h10M160 417h10M190 417h30M320 417h10M340 417h20M90 418h10M140 418h10M160 418h10M190 418h30M320 418h10M340 418h20M90 419h10M140 419h10M160 419h10M190 419h30M320 419h10M340 419h20" />
<path stroke="#a79870" d="M300 350h20M300 351h20M300 352h20M300 353h20M300 354h20M300 355h20M300 356h20M300 357h20M300 358h20M300 359h20M100 360h10M310 360h20M100 361h10M310 361h20M100 362h10M310 362h20M100 363h10M310 363h20M100 364h10M310 364h20M100 365h10M310 365h20M100 366h10M310 366h10M321 366h9M100 367h10M310 367h20M100 368h10M310 368h20M100 369h10M310 369h20M90 370h20M180 370h20M330 370h30M90 371h20M180 371h20M330 371h30M90 372h20M180 372h20M330 372h30M90 373h20M180 373h20M330 373h30M90 374h20M180 374h20M330 374h30M90 375h20M180 375h20M330 375h30M90 376h20M180 376h20M330 376h30M90 377h20M180 377h20M330 377h30M90 378h20M180 378h20M330 378h26M357 378h3M90 379h20M180 379h20M330 379h30M190 380h10M280 380h10M190 381h10M280 381h10M190 382h10M280 382h10M190 383h10M280 383h10M190 384h10M280 384h10M190 385h10M280 385h10M190 386h10M280 386h10M190 387h10M280 387h10M190 388h10M280 388h10M190 389h10M280 389h10M120 390h10M180 390h10M270 390h20M120 391h10M180 391h10M270 391h20M120 392h10M180 392h10M270 392h20M120 393h10M180 393h10M270 393h20M120 394h10M180 394h10M270 394h20M120 395h10M180 395h10M270 395h20M120 396h10M180 396h10M270 396h20M120 397h10M180 397h10M270 397h20M120 398h10M180 398h10M270 398h20M120 399h10M180 399h10M270 399h20M110 400h30M260 400h20M370 400h20M110 401h30M260 401h20M370 401h20M110 402h30M260 402h20M370 402h20M110 403h30M260 403h20M370 403h20M110 404h30M260 404h20M370 404h20M110 405h30M260 405h20M370 405h20M110 406h30M260 406h20M370 406h20M110 407h30M260 407h20M370 407h20M110 408h30M260 408h20M370 408h20M110 409h30M260 409h20M370 409h20M260 410h10M360 410h30M260 411h10M360 411h30M260 412h10M360 412h30M260 413h10M360 413h30M260 414h10M360 414h30M260 415h10M360 415h30M260 416h10M360 416h30M260 417h10M360 417h30M260 418h10M360 418h30M260 419h10M360 419h30" />
<path stroke="#a79871" d="M320 366h1M356 378h1" />
<path stroke="#5b402d" d="M185 368h1" />
<path stroke="#1a0e0c" d="M360 370h10M360 371h10M360 372h10M360 373h10M360 374h10M360 375h10M360 376h10M360 377h10M360 378h10M360 379h10M110 380h10M200 380h10M350 380h30M110 381h10M200 381h10M350 381h30M110 382h10M200 382h10M350 382h30M110 383h10M200 383h10M350 383h30M110 384h10M200 384h10M350 384h30M110 385h10M200 385h10M350 385h30M110 386h10M200 386h10M350 386h30M110 387h10M200 387h10M350 387h30M110 388h10M200 388h10M350 388h30M110 389h10M200 389h10M350 389h30M90 390h30M190 390h30M340 390h30M90 391h30M190 391h30M340 391h30M90 392h30M190 392h30M340 392h30M90 393h30M190 393h30M340 393h30M90 394h30M190 394h30M340 394h30M90 395h30M190 395h30M340 395h30M90 396h30M190 396h30M340 396h30M90 397h30M190 397h30M340 397h30M90 398h30M190 398h30M340 398h30M90 399h30M190 399h30M340 399h30M100 400h10M280 400h10M100 401h10M280 401h10M100 402h10M280 402h10M100 403h10M280 403h10M100 404h10M280 404h10M100 405h10M280 405h10M100 406h10M280 406h10M100 407h10M280 407h10M100 408h10M280 408h10M100 409h10M280 409h10M270 410h30M270 411h30M270 412h30M270 413h30M270 414h30M270 415h30M270 416h30M270 417h30M270 418h30M270 419h30" />
<path stroke="#713f1f" d="M239 381h1" />
<path stroke="#5b412c" d="M325 396h1" />
<path stroke="#ffd600" d="M328 407h1M340 409h1" />
</svg>