<svg xmlns="http://www.w3.org/2000/svg" viewBox="0 -0.5 480 480" shape-rendering="crispEdges">
<metadata>Made with Pixels to Svg https://codepen.io/shshaw/pen/XbxvNj</metadata>
<path stroke="#000000" d="M220 190h50M220 191h50M220 192h50M220 193h50M220 194h50M220 195h50M220 196h50M220 197h50M220 198h50M220 199h50M210 200h8M219 200h1M270 200h10M210 201h10M270 201h10M210 202h10M270 202h10M210 203h10M270 203h10M210 204h3M214 204h6M270 204h10M210 205h10M270 205h10M210 206h10M270 206h10M210 207h10M270 207h10M210 208h10M270 208h10M210 209h10M270 209h10M200 210h10M280 210h10M200 211h10M280 211h10M200 212h10M280 212h10M200 213h10M280 213h10M200 214h10M280 214h10M200 215h10M280 215h10M200 216h10M280 216h10M200 217h10M280 217h10M200 218h10M280 218h10M200 219h10M280 219h10M190 220h10M290 220h10M190 221h10M290 221h10M190 222h10M290 222h10M190 223h10M290 223h10M190 224h10M290 224h10M190 225h10M290 225h10M190 226h10M290 226h10M190 227h10M290 227h10M190 228h10M290 228h10M190 229h10M290 229h10M180 230h10M300 230h10M180 231h10M300 231h10M180 232h10M300 232h10M180 233h10M300 233h10M180 234h10M300 234h10M180 235h10M300 235h10M180 236h10M300 236h10M180 237h10M300 237h10M180 238h10M300 238h10M180 239h10M300 239h10M180 240h10M300 240h10M180 241h10M300 241h10M180 242h10M300 242h10M180 243h10M300 243h10M180 244h10M300 244h10M180 245h10M300 245h10M180 246h10M300 246h10M180 247h10M300 247h10M180 248h10M300 248h10M180 249h10M300 249h10M180 250h10M300 250h10M180 251h10M300 251h10M180 252h10M300 252h10M180 253h10M300 253h10M180 254h10M300 254h10M180 255h10M300 255h10M180 256h10M300 256h10M180 257h10M300 257h10M180 258h10M300 258h10M180 259h10M300 259h10M170 260h10M310 260h10M170 261h10M310 261h10M170 262h10M310 262h10M170 263h10M310 263h10M170 264h10M310 264h10M170 265h10M310 265h10M170 266h10M310 266h10M170 267h10M310 267h10M170 268h10M310 268h10M170 269h10M310 269h10M160 270h10M320 270h10M160 271h10M320 271h10M160 272h10M320 272h10M160 273h10M320 273h10M160 274h10M320 274h10M160 275h10M320 275h10M160 276h10M320 276h10M160 277h10M320 277h10M160 278h10M320 278h10M160 279h10M320 279h10M170 280h10M230 280h10M250 280h10M310 280h10M170 281h10M230 281h10M250 281h10M310 281h10M170 282h10M230 282h10M250 282h10M310 282h10M170 283h10M230 283h10M250 283h10M310 283h10M170 284h10M230 284h10M250 284h10M310 284h10M170 285h10M230 285h10M250 285h10M310 285h10M170 286h10M230 286h10M250 286h10M310 286h10M170 287h10M230 287h10M250 287h10M310 287h10M170 288h10M230 288h10M250 288h10M310 288h10M170 289h10M230 289h10M250 289h10M310 289h10M170 290h10M230 290h10M250 290h10M310 290h10M170 291h10M230 291h10M250 291h10M310 291h9M170 292h10M230 292h10M250 292h10M310 292h10M170 293h10M230 293h10M250 293h10M310 293h10M170 294h10M230 294h10M250 294h10M310 294h10M170 295h10M230 295h10M250 295h10M310 295h10M170 296h10M230 296h10M250 296h10M310 296h10M170 297h10M230 297h10M250 297h10M310 297h10M170 298h10M230 298h10M250 298h10M310 298h10M170 299h10M230 299h10M250 299h10M310 299h10M170 300h10M230 300h10M250 300h10M310 300h10M170 301h10M230 301h10M250 301h10M310 301h10M170 302h10M230 302h10M250 302h10M310 302h10M170 303h10M230 303h10M250 303h10M310 303h10M170 304h10M230 304h10M250 304h10M310 304h10M170 305h10M230 305h10M250 305h10M310 305h10M170 306h10M230 306h10M250 306h10M310 306h10M170 307h10M230 307h10M250 307h10M310 307h10M170 308h10M230 308h10M250 308h10M310 308h10M170 309h10M230 309h10M250 309h10M310 309h10M170 310h10M230 310h30M310 310h10M170 311h10M230 311h30M310 311h10M170 312h10M230 312h30M310 312h10M170 313h10M230 313h30M310 313h10M170 314h10M230 314h30M310 314h10M170 315h10M230 315h30M310 315h10M170 316h10M230 316h30M310 316h10M170 317h10M230 317h30M310 317h10M170 318h10M230 318h16M247 318h13M310 318h5M316 318h4M170 319h10M230 319h30M310 319h10M180 320h10M300 320h10M180 321h10M300 321h10M180 322h10M300 322h10M180 323h10M300 323h10M180 324h10M300 324h10M180 325h10M300 325h10M180 326h10M300 326h10M180 327h10M300 327h10M180 328h10M300 328h10M180 329h10M300 329h10M190 330h10M290 330h10M190 331h10M290 331h10M190 332h10M290 332h10M190 333h10M290 333h10M190 334h10M290 334h10M190 335h10M290 335h10M190 336h10M290 336h10M190 337h10M290 337h10M190 338h10M290 338h10M190 339h10M290 339h10M190 340h10M290 340h10M190 341h10M290 341h10M190 342h10M290 342h10M190 343h10M290 343h10M190 344h10M290 344h10M190 345h10M290 345h10M190 346h10M290 346h10M190 347h10M290 347h10M190 348h10M290 348h10M190 349h10M290 349h10M190 350h10M290 350h10M190 351h10M290 351h10M190 352h10M290 352h10M190 353h10M290 353h10M190 354h10M290 354h10M190 355h10M290 355h10M190 356h10M290 356h10M190 357h10M290 357h10M190 358h10M290 358h10M190 359h10M290 359h10M200 360h10M280 360h10M200 361h10M280 361h10M200 362h10M280 362h10M200 363h10M280 363h10M200 364h10M280 364h10M200 365h10M280 365h10M200 366h10M280 366h10M200 367h10M280 367h10M200 368h10M280 368h10M200 369h10M280 369h10M150 370h50M210 370h10M270 370h10M290 370h50M150 371h50M210 371h10M270 371h10M290 371h50M150 372h50M210 372h10M270 372h10M290 372h2M293 372h47M150 373h50M210 373h10M270 373h10M290 373h50M150 374h50M210 374h10M270 374h1M272 374h8M290 374h50M150 375h50M210 375h10M270 375h10M290 375h50M150 376h50M210 376h10M270 376h10M290 376h50M150 377h50M210 377h10M270 377h10M290 377h50M150 378h50M210 378h10M270 378h10M290 378h50M150 379h50M210 379h10M270 379h10M290 379h50M140 380h10M340 380h10M140 381h10M340 381h10M140 382h10M340 382h10M140 383h10M340 383h10M140 384h9M340 384h10M140 385h10M340 385h10M140 386h10M340 386h10M140 387h10M340 387h10M140 388h10M340 388h10M140 389h10M340 389h10M130 390h10M350 390h10M130 391h10M350 391h10M130 392h10M350 392h10M130 393h10M350 393h10M130 394h10M350 394h10M130 395h10M350 395h10M130 396h10M350 396h10M130 397h10M350 397h10M130 398h10M350 398h10M130 399h10M350 399h10M130 400h10M350 400h10M130 401h10M350 401h10M130 402h10M350 402h10M130 403h10M350 403h10M130 404h10M350 404h10M130 405h10M350 405h10M130 406h10M350 406h10M130 407h10M350 407h10M130 408h10M350 408h10M130 409h10M350 409h10M130 410h10M350 410h10M130 411h10M350 411h10M130 412h10M350 412h10M130 413h10M350 413h10M130 414h10M350 414h10M130 415h10M350 415h10M130 416h10M350 416h10M130 417h10M350 417h10M130 418h10M350 418h10M130 419h10M350 419h10M130 420h10M350 420h10M130 421h10M350 421h10M130 422h10M350 422h10M130 423h10M350 423h10M130 424h10M350 424h10M130 425h3M134 425h6M350 425h10M130 426h10M350 426h10M130 427h5M136 427h4M350 427h10M130 428h10M350 428h10M130 429h10M350 429h10" />
<path stroke="#000001" d="M218 200h1M149 384h1" />
<path stroke="#facb27" d="M220 200h10M240 200h10M260 200h10M220 201h10M240 201h10M260 201h10M220 202h10M240 202h10M260 202h10M220 203h10M240 203h10M260 203h10M220 204h10M240 204h10M260 204h10M220 205h10M240 205h10M260 205h10M220 206h10M240 206h10M260 206h10M220 207h10M240 207h10M260 207h10M220 208h10M240 208h10M260 208h10M220 209h10M240 209h10M260 209h10M210 210h20M240 210h10M260 210h20M210 211h20M240 211h10M260 211h20M210 212h7M218 212h12M240 212h10M260 212h20M210 213h20M240 213h10M260 213h20M210 214h20M240 214h10M260 214h20M210 215h20M240 215h10M260 215h20M210 216h20M240 216h10M260 216h20M210 217h20M240 217h10M260 217h20M210 218h20M240 218h4M245 218h5M260 218h20M210 219h20M240 219h10M260 219h20M200 220h30M240 220h10M260 220h30M200 221h30M240 221h10M260 221h30M200 222h30M240 222h6M247 222h3M260 222h30M200 223h30M240 223h10M260 223h30M200 224h30M240 224h10M260 224h30M200 225h30M240 225h10M260 225h30M200 226h30M240 226h10M260 226h30M200 227h30M240 227h10M260 227h30M200 228h30M240 228h10M260 228h30M200 229h30M240 229h10M260 229h30M190 230h110M190 231h110M190 232h110M190 233h110M190 234h110M190 235h110M190 236h110M190 237h110M190 238h110M190 239h1M192 239h108M190 240h110M190 241h110M190 242h110M190 243h110M190 244h110M190 245h110M190 246h110M190 247h110M190 248h110M190 249h110M190 250h53M244 250h56M190 251h110M190 252h110M190 253h110M190 254h110M190 255h110M190 256h110M190 257h110M190 258h110M190 259h110" />
<path stroke="#feaf00" d="M230 200h10M250 200h10M230 201h10M250 201h10M230 202h10M250 202h10M230 203h10M250 203h10M230 204h10M250 204h10M230 205h10M250 205h10M230 206h10M250 206h10M230 207h10M250 207h10M230 208h10M250 208h10M230 209h10M250 209h10M230 210h10M250 210h10M230 211h10M250 211h10M230 212h10M250 212h10M230 213h10M250 213h10M230 214h10M250 214h10M230 215h10M250 215h10M230 216h7M238 216h2M250 216h10M230 217h10M250 217h10M230 218h4M235 218h5M250 218h10M230 219h10M250 219h10M230 220h10M250 220h10M230 221h10M250 221h10M230 222h10M250 222h10M230 223h10M250 223h10M230 224h10M250 224h10M230 225h10M251 225h9M230 226h10M250 226h10M230 227h10M250 227h10M230 228h10M250 228h10M230 229h10M250 229h10M180 260h130M180 261h130M180 262h130M180 263h130M180 264h63M244 264h66M180 265h130M180 266h130M180 267h124M305 267h5M180 268h41M222 268h88M180 269h52M233 269h77M170 270h150M170 271h150M170 272h150M170 273h150M170 274h150M170 275h150M170 276h150M170 277h150M170 278h150M170 279h150M160 380h10M190 380h10M290 380h10M320 380h10M160 381h10M190 381h10M290 381h10M320 381h10M160 382h10M190 382h10M290 382h10M320 382h10M160 383h10M190 383h10M291 383h9M320 383h10M160 384h10M190 384h10M290 384h10M320 384h10M160 385h10M190 385h10M290 385h10M320 385h10M160 386h10M190 386h10M290 386h10M320 386h10M160 387h10M190 387h10M290 387h10M320 387h10M160 388h10M190 388h10M290 388h10M320 388h10M160 389h10M190 389h10M290 389h10M320 389h10M160 390h10M190 390h10M290 390h10M320 390h10M160 391h10M190 391h10M290 391h10M320 391h10M160 392h10M190 392h10M290 392h10M320 392h10M160 393h10M190 393h10M290 393h10M320 393h10M160 394h10M190 394h10M290 394h10M320 394h10M160 395h10M190 395h10M290 395h10M320 395h10M160 396h10M190 396h10M290 396h10M320 396h10M160 397h10M190 397h10M290 397h10M320 397h10M160 398h10M190 398h10M290 398h10M320 398h10M160 399h10M190 399h10M290 399h10M320 399h10M160 400h10M190 400h10M290 400h10M320 400h10M160 401h10M190 401h10M290 401h10M320 401h10M160 402h10M190 402h10M290 402h10M320 402h10M160 403h10M190 403h10M290 403h10M320 403h10M160 404h10M190 404h10M290 404h10M320 404h10M160 405h10M190 405h10M290 405h10M320 405h10M160 406h10M190 406h10M290 406h10M320 406h10M160 407h10M190 407h10M290 407h10M320 407h10M160 408h10M190 408h10M290 408h10M320 408h10M160 409h10M190 409h10M290 409h10M320 409h10M160 410h10M190 410h10M290 410h10M320 410h10M160 411h10M190 411h10M290 411h10M320 411h10M160 412h10M190 412h10M290 412h10M320 412h10M160 413h10M190 413h10M290 413h10M320 413h10M160 414h10M190 414h10M290 414h10M320 414h10M160 415h10M190 415h10M290 415h10M320 415h10M160 416h10M190 416h10M290 416h10M320 416h10M160 417h10M190 417h10M290 417h10M320 417h10M160 418h10M190 418h10M290 418h10M320 418h10M160 419h10M190 419h10M290 419h10M320 419h10M160 420h10M190 420h10M290 420h10M320 420h10M160 421h10M190 421h10M290 421h10M320 421h10M160 422h10M190 422h10M290 422h10M320 422h10M160 423h10M190 423h10M290 423h10M320 423h10M160 424h10M190 424h10M290 424h10M320 424h10M160 425h10M190 425h10M290 425h10M320 425h10M160 426h10M190 426h10M290 426h10M320 426h10M160 427h10M190 427h10M290 427h10M320 427h10M160 428h10M190 428h10M290 428h10M320 428h10M160 429h10M190 429h10M290 429h10M320 429h10" />
<path stroke="#010000" d="M213 204h1M246 318h1M315 318h1M135 427h1" />
<path stroke="#faca27" d="M217 212h1M244 218h1" />
<path stroke="#ffaf00" d="M237 216h1M234 218h1M243 264h1" />
<path stroke="#fbcb27" d="M246 222h1M243 250h1" />
<path stroke="#feae00" d="M250 225h1M304 267h1M232 269h1" />
<path stroke="#facb26" d="M191 239h1" />
<path stroke="#feaf01" d="M221 268h1M290 383h1" />
<path stroke="#8c8c8c" d="M180 280h20M290 280h20M180 281h20M290 281h20M180 282h20M290 282h20M180 283h20M290 283h20M180 284h20M290 284h20M180 285h20M290 285h20M180 286h20M290 286h20M180 287h20M290 287h20M180 288h20M290 288h20M180 289h20M290 289h20M190 290h10M290 290h10M190 291h10M290 291h10M190 292h10M290 292h10M190 293h10M290 293h10M190 294h10M290 294h10M190 295h10M290 295h10M190 296h10M290 296h10M190 297h10M290 297h10M190 298h10M290 298h10M190 299h10M290 299h10M190 300h10M290 300h10M190 301h10M290 301h10M190 302h10M290 302h10M190 303h10M290 303h10M190 304h10M290 304h10M190 305h10M290 305h10M190 306h10M290 306h10M190 307h10M290 307h10M190 308h10M290 308h10M190 309h10M290 309h10M220 320h50M220 321h50M220 322h50M220 323h50M220 324h50M220 325h50M220 326h50M220 327h50M220 328h50M220 329h50M210 330h70M210 331h70M210 332h70M210 333h70M210 334h70M210 335h70M210 336h70M210 337h70M210 338h70M210 339h70M210 340h30M250 340h30M210 341h30M250 341h30M210 342h30M250 342h30M210 343h30M250 343h30M210 344h30M250 344h30M210 345h30M250 345h30M210 346h9M220 346h20M250 346h30M210 347h26M237 347h3M250 347h30M210 348h30M250 348h30M210 349h30M250 349h30M220 350h10M260 350h10M220 351h10M260 351h10M220 352h10M260 352h10M220 353h10M260 353h10M220 354h10M260 354h10M220 355h10M260 355h10M220 356h10M260 356h10M220 357h10M260 357h10M220 358h10M260 358h10M220 359h10M260 359h10" />
<path stroke="#d2b48c" d="M200 280h30M240 280h10M260 280h30M200 281h30M240 281h10M260 281h30M200 282h30M240 282h10M260 282h30M200 283h30M240 283h10M260 283h30M200 284h30M240 284h10M260 284h30M200 285h30M240 285h10M260 285h30M200 286h30M240 286h10M260 286h30M200 287h30M240 287h10M260 287h30M200 288h30M240 288h10M260 288h30M200 289h30M240 289h10M260 289h30M180 290h10M200 290h30M240 290h10M260 290h30M300 290h10M180 291h10M200 291h30M240 291h10M260 291h30M300 291h10M180 292h10M200 292h30M240 292h10M260 292h30M300 292h10M180 293h10M200 293h30M240 293h10M260 293h30M300 293h10M180 294h10M200 294h30M240 294h10M260 294h30M300 294h10M180 295h10M200 295h12M213 295h17M240 295h10M260 295h30M300 295h10M180 296h10M200 296h30M240 296h10M260 296h30M300 296h10M180 297h10M200 297h30M240 297h10M260 297h30M300 297h10M180 298h10M200 298h30M240 298h10M260 298h30M300 298h10M180 299h10M200 299h30M240 299h10M260 299h30M300 299h10M180 300h10M200 300h30M240 300h10M260 300h30M300 300h10M180 301h10M200 301h30M240 301h10M260 301h30M300 301h10M180 302h10M200 302h30M240 302h10M260 302h30M300 302h10M180 303h10M200 303h30M240 303h10M260 303h30M300 303h10M180 304h10M200 304h30M240 304h10M260 304h30M300 304h10M180 305h10M200 305h30M240 305h10M260 305h30M300 305h10M180 306h10M200 306h30M240 306h10M260 306h30M300 306h10M180 307h10M200 307h30M240 307h10M260 307h30M300 307h10M180 308h10M200 308h2M203 308h27M240 308h10M260 308h30M300 308h10M180 309h10M200 309h30M240 309h10M260 309h30M300 309h10M180 310h50M260 310h50M180 311h50M260 311h50M180 312h50M260 312h50M180 313h50M260 313h50M180 314h50M260 314h50M180 315h50M260 315h50M180 316h50M260 316h50M180 317h50M260 317h50M180 318h50M260 318h50M180 319h50M260 319h8M269 319h41M190 320h30M270 320h30M190 321h30M270 321h30M190 322h30M270 322h30M190 323h30M270 323h30M190 324h30M270 324h30M190 325h30M270 325h30M190 326h30M270 326h30M190 327h30M270 327h30M190 328h30M270 328h30M190 329h30M270 329h30M200 330h10M280 330h10M200 331h10M280 331h10M200 332h10M280 332h10M200 333h10M280 333h10M200 334h10M280 334h10M200 335h10M280 335h10M200 336h10M280 336h10M200 337h10M280 337h10M200 338h10M280 338h10M200 339h10M280 339h10M200 340h10M240 340h10M280 340h10M200 341h10M240 341h10M280 341h10M200 342h10M240 342h10M280 342h10M200 343h10M240 343h10M280 343h10M200 344h10M240 344h10M280 344h10M200 345h10M240 345h10M280 345h10M200 346h10M240 346h10M280 346h10M200 347h10M240 347h10M280 347h10M200 348h10M240 348h10M280 348h10M200 349h10M240 349h10M280 349h10M200 350h20M230 350h30M270 350h20M200 351h20M230 351h30M270 351h20M200 352h20M230 352h30M270 352h20M200 353h20M230 353h30M270 353h20M200 354h20M230 354h30M270 354h20M200 355h20M230 355h30M270 355h20M200 356h20M230 356h30M270 356h20M200 357h20M230 357h30M270 357h15M286 357h4M200 358h20M230 358h30M270 358h20M200 359h20M230 359h30M270 359h20M210 360h70M210 361h70M210 362h70M210 363h70M210 364h70M210 365h70M210 366h70M210 367h70M210 368h70M210 369h70M220 370h50M220 371h50M220 372h50M220 373h50M220 374h50M220 375h50M220 376h50M220 377h50M220 378h50M220 379h50M230 380h30M230 381h30M230 382h30M230 383h12M243 383h17M230 384h30M230 385h30M230 386h30M230 387h30M230 388h30M230 389h30" />
<path stroke="#000100" d="M319 291h1M292 372h1M271 374h1M133 425h1" />
<path stroke="#d2b48d" d="M212 295h1M242 383h1" />
<path stroke="#d2b58c" d="M202 308h1M268 319h1" />
<path stroke="#8d8c8c" d="M219 346h1" />
<path stroke="#8c8c8d" d="M236 347h1" />
<path stroke="#d3b48c" d="M285 357h1" />
<path stroke="#990000" d="M200 370h10M280 370h10M200 371h10M280 371h10M200 372h10M280 372h10M200 373h10M280 373h10M200 374h10M280 374h10M200 375h10M280 375h10M200 376h10M280 376h10M200 377h10M280 377h10M200 378h10M280 378h10M200 379h10M280 379h10M210 380h10M270 380h10M210 381h10M270 381h10M210 382h10M270 382h10M210 383h10M270 383h10M210 384h10M270 384h10M210 385h10M270 385h10M210 386h10M270 386h10M210 387h10M270 387h10M210 388h10M270 388h10M210 389h10M270 389h10M150 390h10M200 390h10M220 390h10M260 390h10M280 390h10M330 390h10M150 391h10M200 391h10M220 391h10M260 391h10M280 391h10M330 391h10M150 392h10M200 392h10M220 392h10M260 392h10M280 392h10M330 392h10M150 393h10M200 393h10M220 393h10M260 393h10M280 393h10M330 393h10M150 394h10M200 394h10M220 394h10M260 394h10M280 394h10M330 394h10M150 395h10M200 395h10M220 395h10M260 395h10M280 395h10M330 395h10M151 396h9M200 396h10M220 396h10M260 396h10M280 396h10M330 396h10M150 397h10M200 397h10M220 397h10M260 397h10M280 397h10M330 397h10M150 398h10M200 398h10M220 398h10M260 398h10M280 398h10M330 398h10M150 399h10M200 399h10M220 399h10M260 399h10M280 399h10M330 399h10M140 400h10M210 400h10M270 400h10M340 400h10M140 401h10M210 401h10M270 401h10M340 401h10M140 402h10M210 402h10M270 402h10M340 402h10M140 403h10M210 403h10M270 403h10M340 403h10M140 404h10M210 404h10M270 404h10M340 404h10M140 405h10M210 405h10M270 405h10M340 405h10M140 406h10M210 406h10M270 406h10M340 406h10M140 407h10M210 407h10M270 407h10M340 407h10M140 408h10M210 408h10M270 408h10M340 408h10M140 409h10M210 409h10M270 409h10M340 409h10M150 410h10M200 410h10M280 410h10M330 410h10M150 411h10M200 411h10M280 411h10M330 411h10M150 412h10M200 412h10M280 412h10M330 412h10M150 413h10M200 413h10M280 413h10M330 413h10M150 414h10M200 414h10M280 414h10M330 414h10M150 415h10M200 415h10M280 415h10M330 415h10M150 416h10M200 416h10M280 416h10M330 416h10M150 417h10M200 417h10M280 417h10M330 417h10M150 418h10M200 418h10M280 418h10M330 418h10M150 419h10M200 419h10M280 419h10M330 419h10M140 420h10M210 420h10M270 420h10M340 420h10M140 421h10M210 421h10M270 421h10M340 421h10M140 422h10M210 422h10M270 422h10M340 422h10M140 423h10M210 423h10M270 423h10M340 423h10M140 424h10M210 424h10M270 424h10M340 424h10M140 425h10M210 425h10M270 425h10M340 425h10M140 426h10M210 426h10M270 426h10M340 426h10M140 427h10M210 427h10M270 427h10M340 427h10M140 428h10M210 428h10M270 428h10M340 428h10M140 429h10M210 429h10M270 429h10M340 429h10" />
<path stroke="#333366" d="M150 380h10M200 380h10M220 380h10M260 380h10M280 380h10M330 380h10M150 381h10M200 381h10M220 381h10M260 381h10M280 381h10M330 381h10M150 382h10M200 382h10M220 382h10M260 382h10M280 382h10M330 382h10M150 383h10M200 383h10M220 383h10M260 383h10M280 383h10M330 383h10M150 384h10M200 384h10M220 384h10M260 384h10M280 384h10M330 384h10M150 385h10M200 385h10M220 385h10M260 385h10M280 385h10M330 385h10M150 386h10M200 386h10M220 386h10M260 386h10M280 386h10M330 386h10M150 387h10M200 387h10M220 387h10M260 387h10M280 387h10M330 387h10M150 388h10M200 388h10M220 388h10M260 388h10M280 388h10M330 388h10M150 389h10M200 389h10M220 389h10M260 389h10M280 389h10M330 389h10M140 390h10M210 390h10M270 390h10M340 390h10M140 391h10M210 391h10M270 391h10M340 391h10M140 392h10M210 392h10M270 392h10M340 392h10M140 393h10M210 393h10M270 393h10M340 393h10M140 394h10M210 394h10M270 394h10M340 394h10M140 395h10M210 395h10M270 395h10M340 395h10M140 396h10M210 396h10M270 396h10M340 396h10M140 397h10M210 397h10M270 397h10M340 397h10M140 398h10M210 398h10M270 398h10M340 398h10M140 399h10M210 399h10M270 399h10M340 399h10M150 400h10M200 400h10M280 400h10M330 400h10M150 401h10M200 401h10M280 401h10M330 401h10M150 402h10M200 402h10M280 402h10M330 402h10M150 403h10M200 403h10M280 403h10M330 403h10M150 404h10M200 404h10M280 404h10M330 404h10M150 405h10M200 405h10M280 405h10M330 405h10M150 406h10M200 406h10M280 406h10M330 406h10M150 407h10M200 407h10M280 407h10M330 407h10M150 408h10M200 408h10M280 408h10M330 408h10M150 409h10M200 409h10M280 409h10M330 409h10M140 410h10M210 410h10M270 410h10M340 410h10M140 411h10M210 411h10M270 411h10M340 411h10M140 412h10M210 412h10M270 412h10M340 412h10M140 413h10M210 413h10M270 413h10M340 413h10M140 414h10M210 414h10M270 414h10M340 414h10M140 415h10M210 415h10M270 415h10M340 415h10M140 416h10M210 416h10M270 416h10M340 416h10M140 417h10M210 417h10M270 417h10M340 417h10M140 418h10M210 418h10M270 418h10M340 418h10M140 419h10M210 419h10M270 419h10M340 419h10M150 420h10M200 420h10M280 420h10M330 420h10M150 421h10M200 421h10M280 421h10M330 421h10M150 422h10M200 422h10M280 422h10M330 422h10M150 423h10M200 423h10M280 423h10M330 423h10M150 424h10M200 424h10M280 424h10M330 424h10M150 425h10M200 425h10M280 425h10M330 425h10M150 426h10M200 426h10M280 426h10M330 426h10M150 427h10M200 427h10M280 427h10M330 427h10M150 428h10M200 428h10M280 428h10M330 428h10M150 429h10M200 429h10M280 429h10M330 429h10" />
<path stroke="#aac2d2" d="M170 380h13M184 380h6M300 380h20M170 381h20M300 381h20M170 382h20M300 382h20M170 383h20M300 383h20M170 384h20M300 384h20M170 385h20M300 385h20M170 386h20M300 386h20M170 387h20M300 387h20M170 388h20M300 388h20M170 389h20M300 389h20M170 390h20M300 390h20M170 391h20M300 391h20M170 392h20M300 392h20M170 393h20M300 393h20M170 394h20M300 394h20M170 395h20M300 395h20M170 396h20M300 396h20M170 397h20M300 397h20M170 398h20M300 398h20M170 399h20M300 399h20M170 400h20M300 400h20M170 401h20M300 401h20M170 402h20M300 402h20M170 403h20M300 403h20M170 404h20M300 404h20M170 405h20M300 405h20M170 406h20M300 406h20M170 407h20M300 407h15M316 407h4M170 408h20M300 408h20M170 409h20M300 409h20M170 410h20M300 410h20M170 411h20M300 411h20M170 412h20M300 412h20M170 413h20M300 413h20M170 414h20M300 414h20M170 415h20M300 415h20M170 416h20M300 416h20M170 417h20M300 417h20M170 418h20M300 418h20M170 419h20M300 419h20M170 420h20M300 420h20M170 421h5M176 421h14M300 421h20M170 422h20M300 422h20M170 423h20M300 423h20M170 424h20M300 424h20M170 425h20M300 425h20M170 426h20M300 426h20M170 427h20M300 427h20M170 428h20M300 428h20M170 429h20M300 429h20" />
<path stroke="#abc2d2" d="M183 380h1M315 407h1" />
<path stroke="#ccffff" d="M230 390h30M230 391h30M230 392h30M230 393h30M230 394h30M230 395h30M230 396h30M230 397h30M230 398h30M230 399h30M220 400h50M220 401h50M220 402h50M220 403h50M220 404h50M220 405h50M220 406h36M257 406h13M220 407h50M220 408h50M220 409h50M220 410h50M220 411h50M220 412h50M220 413h50M220 414h50M220 415h50M220 416h50M220 417h50M220 418h50M220 419h50M220 420h50M220 421h50M220 422h50M220 423h50M220 424h50M220 425h50M220 426h50M220 427h50M220 428h50M220 429h50" />
<path stroke="#980000" d="M150 396h1" />
<path stroke="#ccfeff" d="M256 406h1" />
<path stroke="#aac3d2" d="M175 421h1" />
</svg>