<svg xmlns="http://www.w3.org/2000/svg" viewBox="0 -0.5 480 480" shape-rendering="crispEdges">
<metadata>Made with Pixels to Svg https://codepen.io/shshaw/pen/XbxvNj</metadata>
<path stroke="#000000" d="M210 200h60M210 201h60M210 202h36M247 202h23M210 203h60M210 204h60M210 205h60M210 206h60M210 207h60M210 208h60M210 209h60M200 210h10M270 210h10M200 211h10M270 211h10M200 212h10M270 212h10M200 213h10M270 213h10M200 214h10M270 214h10M200 215h4M205 215h5M270 215h10M200 216h10M270 216h10M200 217h10M270 217h10M200 218h10M270 218h10M200 219h10M270 219h10M190 220h10M280 220h10M190 221h10M280 221h10M190 222h10M280 222h10M190 223h10M280 223h10M190 224h10M280 224h10M190 225h10M280 225h10M190 226h10M280 226h10M190 227h10M280 227h10M190 228h10M280 228h10M190 229h10M280 229h10M180 230h10M290 230h10M180 231h10M290 231h10M180 232h10M290 232h10M180 233h10M290 233h10M180 234h10M290 234h10M180 235h10M290 235h10M180 236h10M290 236h10M180 237h10M290 237h10M180 238h10M290 238h10M180 239h10M290 239h10M180 240h10M290 240h10M180 241h10M290 241h10M180 242h10M290 242h10M180 243h10M290 243h10M180 244h10M290 244h10M180 245h10M290 245h10M180 246h10M290 246h10M180 247h10M290 247h10M180 248h10M290 248h10M180 249h10M290 249h10M180 250h10M200 250h16M217 250h13M250 250h30M290 250h10M180 251h10M200 251h30M250 251h30M290 251h10M180 252h1M182 252h8M200 252h30M250 252h30M290 252h10M180 253h10M200 253h30M250 253h30M290 253h10M180 254h10M200 254h30M250 254h30M290 254h10M180 255h10M200 255h30M250 255h30M290 255h10M180 256h10M200 256h30M250 256h30M290 256h10M180 257h10M200 257h30M250 257h30M290 257h10M180 258h10M200 258h30M250 258h30M290 258h10M180 259h10M200 259h30M250 259h30M290 259h10M180 260h10M290 260h10M180 261h10M290 261h10M180 262h10M290 262h10M180 263h10M290 263h10M180 264h10M290 264h10M180 265h10M290 265h10M180 266h10M290 266h10M180 267h10M290 267h10M180 268h10M290 268h10M180 269h10M290 269h10M180 270h10M210 270h20M250 270h20M290 270h10M180 271h10M210 271h20M250 271h20M290 271h10M180 272h10M210 272h20M250 272h20M290 272h10M180 273h10M210 273h20M250 273h20M290 273h10M180 274h10M210 274h20M250 274h20M290 274h10M180 275h10M210 275h20M250 275h20M290 275h10M180 276h10M210 276h20M250 276h20M290 276h10M180 277h10M210 277h20M250 277h20M290 277h10M180 278h10M210 278h20M250 278h20M290 278h10M180 279h10M210 279h20M250 279h20M290 279h10M170 280h20M230 280h10M290 280h20M170 281h20M230 281h10M290 281h20M170 282h20M230 282h10M290 282h20M170 283h20M230 283h10M290 283h20M170 284h20M230 284h10M290 284h20M170 285h20M230 285h10M290 285h20M170 286h20M230 286h10M290 286h15M306 286h4M170 287h20M230 287h10M290 287h20M170 288h20M230 288h10M290 288h20M170 289h20M230 289h10M290 289h20M160 290h10M180 290h10M230 290h10M290 290h10M310 290h10M160 291h10M180 291h10M230 291h10M290 291h10M310 291h10M160 292h10M180 292h10M230 292h10M290 292h10M310 292h10M160 293h10M180 293h10M230 293h10M290 293h10M310 293h10M160 294h10M180 294h10M230 294h10M290 294h10M310 294h10M160 295h10M180 295h10M230 295h10M290 295h10M310 295h10M160 296h10M180 296h10M230 296h10M290 296h10M310 296h10M161 297h9M180 297h10M230 297h10M290 297h10M310 297h10M160 298h10M180 298h10M230 298h10M290 298h10M310 298h10M160 299h10M180 299h10M230 299h10M290 299h10M310 299h10M160 300h10M220 300h10M310 300h10M160 301h10M220 301h10M310 301h10M160 302h10M220 302h8M229 302h1M310 302h10M160 303h10M220 303h10M310 303h10M160 304h10M220 304h10M310 304h10M160 305h10M220 305h10M310 305h10M160 306h10M220 306h10M310 306h10M160 307h10M220 307h10M310 307h10M160 308h10M220 308h10M310 308h10M160 309h10M220 309h10M310 309h10M160 310h10M220 310h10M250 310h10M310 310h10M160 311h10M220 311h10M250 311h10M310 311h10M160 312h10M220 312h10M250 312h10M310 312h10M160 313h10M220 313h10M250 313h10M310 313h10M160 314h10M220 314h10M250 314h10M310 314h10M160 315h10M220 315h10M250 315h10M310 315h10M160 316h10M220 316h10M250 316h10M310 316h10M160 317h10M220 317h10M250 317h10M310 317h10M160 318h10M220 318h10M250 318h10M310 318h10M160 319h10M220 319h10M250 319h10M310 319h10M170 320h20M230 320h20M290 320h20M170 321h20M230 321h20M290 321h20M170 322h20M230 322h20M290 322h20M170 323h20M230 323h20M290 323h20M170 324h20M230 324h20M290 324h20M170 325h20M230 325h20M290 325h20M170 326h20M230 326h20M290 326h20M170 327h20M230 327h20M290 327h20M170 328h20M230 328h20M290 328h20M170 329h20M230 329h20M290 329h20M180 330h10M220 330h40M290 330h10M180 331h10M220 331h40M290 331h10M180 332h10M220 332h40M290 332h10M180 333h10M220 333h40M290 333h10M180 334h10M220 334h40M290 334h10M180 335h10M220 335h40M290 335h10M180 336h10M220 336h40M290 336h10M180 337h10M220 337h40M290 337h10M180 338h10M220 338h40M290 338h10M180 339h10M220 339h40M290 339h10M180 340h10M210 340h10M260 340h10M290 340h5M296 340h4M180 341h10M210 341h10M260 341h10M290 341h10M180 342h10M210 342h10M260 342h10M290 342h10M180 343h10M210 343h10M260 343h10M290 343h10M180 344h10M210 344h10M260 344h10M290 344h10M180 345h10M210 345h10M260 345h10M290 345h10M180 346h10M210 346h10M260 346h10M290 346h10M180 347h10M210 347h10M260 347h10M290 347h10M180 348h10M210 348h10M260 348h10M290 348h10M180 349h10M210 349h10M260 349h10M290 349h10M180 350h10M210 350h10M230 350h20M260 350h10M290 350h10M180 351h10M210 351h10M230 351h20M260 351h10M290 351h10M180 352h1M182 352h8M210 352h7M218 352h2M230 352h20M260 352h10M290 352h10M180 353h10M210 353h10M230 353h20M260 353h10M290 353h10M180 354h10M210 354h10M230 354h20M260 354h10M290 354h10M180 355h10M210 355h10M230 355h20M260 355h10M290 355h10M180 356h10M210 356h10M230 356h20M260 356h10M290 356h10M180 357h10M210 357h10M230 357h7M238 357h12M260 357h10M290 357h10M180 358h10M210 358h10M230 358h20M260 358h10M290 358h10M180 359h10M210 359h10M230 359h20M260 359h10M290 359h10M190 360h10M210 360h10M260 360h10M280 360h10M190 361h10M210 361h10M260 361h10M280 361h10M190 362h10M210 362h10M260 362h10M280 362h10M190 363h10M210 363h10M260 363h10M280 363h10M190 364h10M210 364h10M260 364h10M280 364h10M190 365h10M210 365h10M260 365h10M280 365h10M190 366h10M210 366h10M260 366h10M280 366h10M190 367h10M210 367h10M260 367h10M280 367h10M190 368h10M210 368h10M260 368h10M280 368h10M190 369h10M210 369h10M260 369h10M280 369h10M140 370h50M200 370h20M230 370h20M260 370h20M290 370h50M140 371h50M200 371h20M230 371h20M260 371h20M290 371h50M140 372h50M200 372h20M230 372h20M260 372h20M290 372h50M140 373h50M200 373h20M230 373h20M260 373h20M290 373h50M140 374h50M200 374h20M230 374h20M260 374h20M290 374h50M140 375h50M200 375h20M230 375h20M260 375h20M290 375h50M140 376h50M200 376h20M230 376h20M260 376h20M290 376h8M299 376h41M140 377h50M200 377h20M230 377h20M260 377h20M290 377h50M140 378h50M200 378h20M230 378h20M260 378h20M290 378h50M140 379h50M200 379h20M230 379h20M260 379h20M290 379h50M120 380h20M160 380h10M210 380h60M310 380h10M340 380h20M120 381h20M160 381h10M210 381h60M310 381h10M340 381h20M120 382h20M160 382h10M210 382h60M310 382h10M340 382h20M120 383h20M160 383h10M210 383h60M310 383h10M340 383h20M120 384h5M126 384h14M160 384h10M210 384h60M310 384h10M340 384h20M120 385h20M160 385h10M210 385h60M310 385h10M340 385h20M120 386h20M160 386h10M210 386h60M310 386h10M340 386h20M120 387h20M160 387h10M210 387h31M242 387h28M310 387h10M340 387h20M120 388h20M160 388h10M210 388h60M310 388h10M340 388h20M120 389h20M160 389h10M210 389h60M310 389h10M340 389h20M110 390h10M170 390h10M300 390h10M360 390h10M110 391h10M170 391h10M300 391h10M360 391h10M110 392h10M170 392h10M300 392h10M360 392h10M110 393h10M170 393h10M300 393h10M360 393h10M110 394h10M170 394h10M300 394h10M360 394h10M110 395h10M170 395h10M300 395h10M360 395h10M110 396h10M170 396h10M300 396h10M360 396h10M110 397h10M170 397h10M300 397h10M360 397h10M110 398h10M170 398h10M300 398h10M360 398h10M110 399h10M170 399h10M300 399h10M360 399h10M110 400h10M180 400h20M280 400h20M360 400h10M110 401h10M180 401h20M280 401h20M360 401h10M110 402h10M180 402h20M280 402h20M360 402h10M110 403h10M180 403h20M280 403h20M360 403h10M110 404h10M180 404h20M280 404h20M360 404h10M110 405h10M180 405h20M280 405h20M360 405h10M110 406h10M180 406h20M280 406h20M360 406h10M110 407h10M181 407h19M280 407h20M360 407h10M110 408h10M180 408h20M280 408h20M360 408h10M110 409h10M180 409h20M280 409h20M360 409h3M364 409h6M100 410h10M170 410h10M300 410h10M370 410h10M100 411h10M170 411h10M300 411h10M370 411h10M100 412h10M170 412h10M300 412h10M370 412h10M100 413h10M170 413h10M300 413h10M370 413h10M100 414h10M170 414h10M300 414h10M370 414h10M100 415h10M170 415h10M300 415h10M370 415h10M100 416h8M109 416h1M170 416h10M300 416h10M370 416h10M100 417h10M170 417h10M300 417h10M370 417h10M100 418h10M170 418h10M300 418h10M370 418h10M100 419h10M170 419h10M300 419h10M370 419h10M100 420h10M150 420h10M180 420h10M290 420h10M320 420h10M370 420h10M100 421h10M150 421h10M180 421h10M290 421h10M320 421h10M370 421h10M100 422h10M150 422h10M180 422h10M290 422h10M320 422h10M370 422h4M375 422h5M100 423h10M150 423h10M180 423h10M290 423h10M320 423h10M370 423h10M100 424h10M150 424h10M180 424h10M290 424h10M320 424h10M370 424h10M100 425h10M150 425h10M180 425h10M290 425h10M320 425h10M370 425h10M100 426h10M150 426h10M180 426h10M290 426h10M320 426h10M370 426h10M100 427h10M150 427h10M180 427h10M290 427h10M320 427h10M370 427h10M100 428h10M150 428h10M180 428h10M290 428h10M320 428h10M370 428h10M100 429h10M150 429h10M180 429h10M290 429h10M320 429h10M370 429h10M100 430h10M150 430h10M190 430h10M280 430h10M320 430h10M370 430h10M100 431h10M150 431h10M190 431h10M280 431h10M320 431h10M370 431h10M100 432h10M150 432h10M190 432h10M280 432h10M320 432h10M370 432h10M100 433h10M150 433h10M190 433h10M280 433h10M320 433h10M370 433h10M100 434h10M150 434h10M190 434h10M280 434h10M320 434h10M370 434h10M100 435h10M150 435h10M190 435h10M280 435h10M320 435h10M370 435h10M100 436h10M150 436h10M190 436h10M280 436h10M320 436h10M370 436h10M100 437h10M150 437h10M190 437h10M280 437h10M320 437h10M370 437h10M100 438h10M150 438h10M190 438h10M280 438h10M320 438h10M370 438h10M100 439h10M150 439h10M190 439h10M280 439h10M320 439h10M370 439h10" />
<path stroke="#010000" d="M246 202h1M204 215h1M216 250h1M228 302h1M237 357h1M180 407h1M363 409h1M108 416h1" />
<path stroke="#713f1e" d="M210 210h60M210 211h60M210 212h60M210 213h60M210 214h60M210 215h60M210 216h60M210 217h60M210 218h60M210 219h60M200 220h10M220 220h60M200 221h10M220 221h60M200 222h10M220 222h60M200 223h10M220 223h60M200 224h10M220 224h60M200 225h10M220 225h60M200 226h10M220 226h60M200 227h10M220 227h60M200 228h10M220 228h60M200 229h10M220 229h60M190 230h10M210 230h80M190 231h10M210 231h80M190 232h10M210 232h80M190 233h10M210 233h80M190 234h10M210 234h80M190 235h10M210 235h80M190 236h10M210 236h80M190 237h10M210 237h80M190 238h10M210 238h80M190 239h10M210 239h80M190 240h100M190 241h100M190 242h100M190 243h100M190 244h100M190 245h100M190 246h100M190 247h100M190 248h100M190 249h100M190 250h10M230 250h20M280 250h10M190 251h10M230 251h20M280 251h10M190 252h10M230 252h20M280 252h10M190 253h10M230 253h20M280 253h10M190 254h10M230 254h20M280 254h10M190 255h10M230 255h20M280 255h10M190 256h10M230 256h20M280 256h10M190 257h10M230 257h20M280 257h10M190 258h10M230 258h20M280 258h10M190 259h10M230 259h20M280 259h10M190 260h100M190 261h100M190 262h100M190 263h100M190 264h100M190 265h78M269 265h21M190 266h100M190 267h100M190 268h58M249 268h17M267 268h23M190 269h100M190 270h20M230 270h20M270 270h20M190 271h20M230 271h20M270 271h20M190 272h20M230 272h20M270 272h20M190 273h20M230 273h20M270 273h20M190 274h20M230 274h20M270 274h20M190 275h20M230 275h20M270 275h20M190 276h20M230 276h20M270 276h20M190 277h20M230 277h20M270 277h20M190 278h20M230 278h20M270 278h20M190 279h20M230 279h20M270 279h20M190 280h40M240 280h50M190 281h40M240 281h50M190 282h40M240 282h50M190 283h40M240 283h50M190 284h40M240 284h50M190 285h40M240 285h50M190 286h40M240 286h50M190 287h40M240 287h50M190 288h40M240 288h50M190 289h40M240 289h50M170 290h10M190 290h40M240 290h50M300 290h10M170 291h10M190 291h40M240 291h50M300 291h10M170 292h10M190 292h40M240 292h50M300 292h10M170 293h10M190 293h40M240 293h50M300 293h10M170 294h10M190 294h40M240 294h50M300 294h10M170 295h10M190 295h40M240 295h50M300 295h10M170 296h10M190 296h40M240 296h50M300 296h10M170 297h10M190 297h40M240 297h50M300 297h10M170 298h10M190 298h40M240 298h50M300 298h10M170 299h10M190 299h40M240 299h50M300 299h10M170 300h50M230 300h80M170 301h50M230 301h80M170 302h50M230 302h80M170 303h50M230 303h80M170 304h50M230 304h80M170 305h50M230 305h80M170 306h50M230 306h80M170 307h50M230 307h80M170 308h20M191 308h29M230 308h80M170 309h50M230 309h38M269 309h41M170 310h50M230 310h20M260 310h50M170 311h50M230 311h20M260 311h50M170 312h50M230 312h20M260 312h50M170 313h50M230 313h20M260 313h50M170 314h50M230 314h20M260 314h50M170 315h50M230 315h20M260 315h50M170 316h50M230 316h20M260 316h50M170 317h50M230 317h20M260 317h50M170 318h50M230 318h20M260 318h50M170 319h50M230 319h20M260 319h29M290 319h20M190 320h40M250 320h40M190 321h40M250 321h40M190 322h40M250 322h40M190 323h40M250 323h40M190 324h40M250 324h40M190 325h40M250 325h40M190 326h40M250 326h40M190 327h40M250 327h40M190 328h40M250 328h40M190 329h40M250 329h40M190 330h30M260 330h30M190 331h30M260 331h30M190 332h30M260 332h30M190 333h30M260 333h30M190 334h30M260 334h30M190 335h30M260 335h30M190 336h30M260 336h30M190 337h30M260 337h30M190 338h30M260 338h30M190 339h30M260 339h30M190 340h20M220 340h40M270 340h20M190 341h20M220 341h40M270 341h20M190 342h20M220 342h40M270 342h20M190 343h20M220 343h40M270 343h20M190 344h20M220 344h40M270 344h20M190 345h20M220 345h40M270 345h20M190 346h20M220 346h40M270 346h20M190 347h20M220 347h40M270 347h20M190 348h20M220 348h40M270 348h20M190 349h11M202 349h8M220 349h40M270 349h20M190 350h20M220 350h10M250 350h10M270 350h20M190 351h20M220 351h10M250 351h10M270 351h20M190 352h20M220 352h10M250 352h10M270 352h20M190 353h20M220 353h10M250 353h10M270 353h20M190 354h20M220 354h10M250 354h10M270 354h20M190 355h20M220 355h10M250 355h10M270 355h20M190 356h20M220 356h10M250 356h10M270 356h20M190 357h20M220 357h10M250 357h10M270 357h20M190 358h20M220 358h10M250 358h10M270 358h20M190 359h20M220 359h10M250 359h10M270 359h20M200 360h10M220 360h40M270 360h10M200 361h10M220 361h38M259 361h1M270 361h10M200 362h10M220 362h40M270 362h10M200 363h10M220 363h40M270 363h10M200 364h10M220 364h31M252 364h8M270 364h10M200 365h10M220 365h40M270 365h10M200 366h10M220 366h40M270 366h10M200 367h10M220 367h40M270 367h10M200 368h10M220 368h40M270 368h10M200 369h10M220 369h40M270 369h10M221 370h9M250 370h10M220 371h10M250 371h10M220 372h10M250 372h10M220 373h10M250 373h10M220 374h10M250 374h10M220 375h10M250 375h10M220 376h10M250 376h10M220 377h10M250 377h10M220 378h10M250 378h10M220 379h10M250 379h10M220 390h40M220 391h40M220 392h40M220 393h40M220 394h40M220 395h40M220 396h14M235 396h25M220 397h40M220 398h40M220 399h40M230 400h20M230 401h20M230 402h20M230 403h20M230 404h20M230 405h20M230 406h20M230 407h20M230 408h20M230 409h20" />
<path stroke="#a27250" d="M210 220h10M210 221h10M210 222h10M210 223h10M210 224h10M210 225h10M210 226h10M210 227h10M210 228h10M210 229h10M200 230h10M200 231h10M200 232h10M200 233h8M209 233h1M200 234h10M200 235h10M200 236h10M200 237h10M200 238h10M200 239h7M208 239h2" />
<path stroke="#a27350" d="M208 233h1" />
<path stroke="#a37250" d="M207 239h1" />
<path stroke="#000100" d="M181 252h1M160 297h1M295 340h1M181 352h1M217 352h1M298 376h1M241 387h1" />
<path stroke="#713e1e" d="M268 265h1M190 308h1M268 309h1M289 319h1M220 370h1" />
<path stroke="#713f1f" d="M248 268h1M266 268h1M251 364h1" />
<path stroke="#000001" d="M305 286h1M125 384h1M374 422h1" />
<path stroke="#703f1e" d="M201 349h1M258 361h1M234 396h1" />
<path stroke="#ffffff" d="M190 370h10M280 370h10M190 371h10M280 371h10M190 372h10M280 372h10M190 373h10M280 373h10M190 374h10M280 374h10M190 375h10M280 375h10M190 376h1M192 376h8M280 376h10M190 377h10M280 377h10M190 378h10M280 378h10M190 379h10M280 379h10M140 380h20M170 380h40M270 380h40M320 380h20M140 381h20M170 381h40M270 381h40M320 381h17M338 381h2M140 382h20M170 382h40M270 382h40M320 382h20M140 383h20M170 383h40M270 383h40M320 383h20M140 384h20M170 384h40M270 384h40M320 384h20M140 385h20M170 385h40M270 385h40M320 385h20M140 386h20M170 386h40M270 386h40M320 386h20M140 387h20M170 387h40M270 387h40M320 387h20M140 388h20M170 388h40M270 388h40M320 388h20M140 389h20M170 389h40M270 389h40M320 389h20M120 390h50M180 390h30M270 390h30M310 390h50M120 391h50M180 391h30M270 391h30M310 391h50M120 392h50M180 392h30M270 392h30M310 392h50M120 393h50M180 393h30M270 393h30M310 393h50M120 394h50M180 394h30M270 394h30M310 394h50M120 395h50M180 395h30M270 395h30M310 395h50M120 396h50M180 396h30M270 396h30M310 396h50M120 397h50M180 397h30M270 397h30M310 397h50M120 398h50M180 398h30M270 398h30M310 398h50M120 399h50M180 399h30M270 399h30M310 399h50M120 400h60M200 400h10M270 400h10M300 400h60M120 401h60M200 401h10M270 401h10M300 401h49M350 401h10M120 402h60M200 402h10M270 402h10M300 402h60M120 403h60M200 403h10M270 403h10M300 403h60M120 404h60M200 404h10M270 404h10M300 404h60M120 405h60M200 405h10M270 405h10M300 405h60M120 406h60M200 406h10M270 406h10M300 406h60M120 407h60M200 407h10M270 407h10M300 407h60M120 408h51M172 408h8M200 408h10M270 408h10M300 408h60M120 409h60M200 409h10M270 409h10M300 409h60M110 410h37M148 410h22M180 410h30M270 410h30M310 410h60M110 411h60M180 411h30M270 411h30M310 411h60M110 412h60M180 412h30M270 412h30M310 412h60M110 413h60M180 413h30M270 413h30M310 413h60M110 414h60M180 414h30M270 414h30M310 414h30M341 414h29M110 415h60M180 415h30M270 415h30M310 415h60M110 416h60M180 416h30M270 416h30M310 416h60M110 417h60M180 417h30M270 417h30M310 417h60M110 418h60M180 418h30M270 418h30M310 418h60M110 419h60M180 419h30M270 419h30M310 419h60M110 420h40M160 420h20M190 420h20M270 420h20M300 420h20M330 420h40M110 421h40M160 421h20M190 421h20M270 421h20M300 421h20M330 421h40M110 422h40M160 422h20M190 422h20M270 422h20M300 422h20M330 422h40M110 423h40M160 423h20M191 423h19M270 423h20M300 423h20M330 423h40M110 424h40M160 424h20M190 424h20M270 424h20M300 424h20M330 424h40M110 425h40M160 425h20M190 425h20M270 425h20M300 425h20M330 425h40M110 426h12M123 426h27M160 426h20M190 426h20M270 426h20M300 426h20M330 426h40M110 427h40M160 427h20M190 427h20M270 427h20M300 427h20M330 427h40M110 428h40M160 428h20M190 428h20M270 428h20M300 428h20M330 428h40M110 429h40M160 429h20M190 429h20M270 429h20M300 429h20M330 429h40M110 430h40M160 430h30M200 430h10M270 430h10M290 430h23M314 430h6M330 430h40M110 431h40M160 431h30M200 431h10M270 431h10M290 431h30M330 431h40M110 432h40M160 432h30M200 432h10M270 432h10M290 432h30M330 432h40M110 433h40M160 433h30M200 433h10M270 433h10M290 433h30M330 433h40M110 434h40M160 434h30M200 434h10M270 434h10M290 434h30M330 434h40M110 435h40M160 435h19M180 435h10M200 435h10M270 435h10M290 435h30M330 435h40M110 436h40M160 436h30M200 436h10M270 436h10M290 436h30M330 436h40M110 437h40M160 437h30M200 437h10M270 437h10M290 437h30M330 437h40M110 438h40M160 438h30M200 438h10M270 438h10M290 438h30M330 438h40M110 439h40M160 439h30M200 439h10M270 439h10M290 439h30M330 439h40" />
<path stroke="#fffffe" d="M191 376h1M122 426h1M179 435h1" />
<path stroke="#fffeff" d="M337 381h1M349 401h1M340 414h1M190 423h1M313 430h1" />
<path stroke="#4192c3" d="M210 390h10M260 390h10M210 391h10M260 391h10M210 392h10M260 392h10M210 393h10M260 393h10M210 394h10M260 394h10M210 395h10M260 395h10M210 396h10M260 396h10M210 397h10M260 397h10M210 398h10M260 398h10M210 399h10M260 399h10M210 400h20M250 400h20M210 401h20M250 401h20M210 402h20M250 402h20M210 403h20M250 403h20M210 404h20M250 404h20M210 405h20M250 405h20M210 406h20M250 406h20M210 407h20M250 407h20M210 408h20M250 408h20M210 409h20M250 409h20M210 410h60M210 411h60M210 412h60M210 413h60M210 414h31M242 414h28M210 415h60M210 416h60M210 417h60M210 418h60M210 419h60M210 420h60M210 421h60M210 422h60M210 423h60M210 424h60M210 425h60M210 426h60M210 427h60M210 428h60M210 429h60M210 430h60M210 431h60M210 432h60M210 433h60M210 434h60M210 435h60M210 436h60M210 437h60M210 438h60M210 439h60" />
<path stroke="#feffff" d="M171 408h1M147 410h1" />
<path stroke="#4193c3" d="M241 414h1" />
</svg>