<svg xmlns="http://www.w3.org/2000/svg" viewBox="0 -0.5 480 480" shape-rendering="crispEdges">
<metadata>Made with Pixels to Svg https://codepen.io/shshaw/pen/XbxvNj</metadata>
<path stroke="#000000" d="M200 190h90M200 191h90M200 192h90M200 193h90M200 194h90M200 195h90M200 196h90M200 197h90M200 198h90M200 199h90M190 200h10M290 200h10M190 201h10M290 201h10M190 202h10M290 202h10M190 203h10M290 203h10M190 204h10M290 204h10M190 205h10M290 205h10M190 206h10M290 206h10M190 207h10M290 207h10M190 208h10M290 208h10M190 209h10M290 209h10M180 210h10M300 210h10M180 211h10M300 211h10M180 212h10M300 212h10M180 213h10M300 213h10M180 214h10M300 214h10M180 215h10M300 215h10M180 216h10M300 216h10M180 217h10M300 217h10M180 218h10M300 218h10M180 219h10M300 219h10M180 220h10M300 220h10M180 221h10M300 221h10M180 222h10M300 222h10M180 223h10M300 223h10M180 224h10M300 224h10M180 225h10M300 225h3M304 225h6M180 226h10M300 226h10M180 227h10M300 227h10M180 228h10M300 228h10M180 229h10M300 229h10M180 230h10M300 230h10M180 231h10M300 231h10M180 232h10M300 232h10M180 233h10M300 233h10M180 234h10M300 234h10M180 235h10M300 235h10M180 236h10M300 236h10M180 237h10M300 237h10M180 238h10M300 238h10M180 239h10M300 239h10M120 240h70M300 240h70M120 241h70M300 241h70M120 242h70M300 242h70M120 243h70M300 243h67M368 243h2M120 244h70M300 244h70M120 245h70M300 245h70M120 246h70M300 246h70M120 247h70M300 247h70M120 248h70M300 248h70M120 249h2M123 249h67M300 249h70M110 250h10M370 250h10M110 251h10M370 251h10M110 252h10M370 252h10M110 253h10M370 253h10M110 254h10M370 254h10M110 255h10M370 255h10M110 256h10M370 256h5M376 256h4M110 257h10M370 257h10M110 258h10M370 258h10M110 259h10M370 259h10M120 260h250M120 261h250M120 262h34M155 262h35M191 262h62M254 262h116M120 263h250M120 264h250M120 265h250M120 266h227M348 266h5M354 266h16M120 267h229M350 267h20M120 268h250M120 269h250M160 270h10M180 270h10M230 270h10M300 270h10M320 270h10M160 271h10M180 271h10M230 271h10M300 271h10M320 271h10M160 272h10M180 272h10M230 272h10M300 272h10M320 272h10M160 273h10M180 273h10M230 273h10M300 273h10M320 273h10M160 274h10M180 274h10M230 274h10M300 274h10M320 274h10M160 275h10M180 275h10M230 275h10M300 275h10M320 275h10M160 276h10M180 276h10M230 276h10M300 276h10M320 276h10M160 277h10M180 277h10M230 277h10M300 277h10M320 277h10M160 278h10M180 278h10M230 278h10M300 278h10M320 278h10M160 279h10M180 279h10M230 279h10M300 279h10M320 279h10M160 280h10M220 280h10M320 280h10M160 281h10M220 281h10M320 281h10M160 282h10M220 282h10M320 282h10M160 283h10M220 283h10M320 283h10M160 284h10M220 284h10M320 284h10M160 285h10M220 285h10M320 285h10M160 286h10M220 286h10M320 286h10M160 287h10M220 287h10M320 287h10M160 288h10M220 288h10M320 288h10M160 289h10M220 289h10M320 289h10M170 290h20M220 290h10M300 290h20M170 291h20M220 291h10M300 291h20M170 292h20M220 292h10M300 292h20M170 293h20M220 293h10M300 293h20M170 294h20M220 294h10M300 294h20M170 295h20M220 295h10M300 295h20M170 296h20M220 296h10M300 296h20M170 297h20M220 297h10M300 297h20M170 298h20M220 298h10M300 298h20M170 299h20M220 299h10M300 299h12M313 299h7M180 300h40M260 300h50M180 301h40M260 301h50M180 302h40M260 302h50M180 303h40M260 303h50M180 304h40M260 304h50M180 305h40M260 305h27M288 305h22M180 306h40M260 306h50M180 307h40M260 307h50M180 308h40M260 308h50M180 309h40M260 309h50M180 310h50M250 310h60M180 311h50M250 311h60M180 312h50M250 312h60M180 313h50M250 313h60M180 314h50M250 314h60M180 315h50M250 315h60M180 316h50M250 316h60M180 317h50M250 317h60M180 318h50M250 318h60M180 319h50M250 319h60M130 320h230M130 321h230M130 322h230M130 323h230M130 324h230M130 325h230M130 326h230M130 327h230M130 328h215M346 328h14M130 329h230M110 330h20M180 330h40M270 330h40M360 330h20M110 331h20M180 331h40M270 331h40M360 331h20M110 332h20M180 332h40M270 332h40M360 332h20M110 333h20M180 333h40M270 333h40M360 333h20M110 334h20M180 334h40M270 334h40M360 334h20M110 335h20M180 335h40M270 335h40M360 335h20M110 336h20M180 336h40M270 336h40M360 336h20M110 337h20M180 337h40M270 337h40M360 337h20M110 338h20M180 338h40M270 338h40M360 338h20M110 339h20M180 339h40M270 339h40M360 339h20M100 340h10M180 340h130M380 340h10M100 341h10M180 341h130M380 341h10M100 342h10M180 342h130M380 342h10M100 343h10M180 343h130M380 343h10M100 344h10M180 344h130M380 344h10M100 345h10M180 345h130M380 345h10M100 346h10M180 346h130M380 346h10M100 347h10M180 347h130M380 347h10M100 348h10M180 348h130M380 348h10M100 349h10M180 349h71M252 349h58M380 349h10M90 350h10M190 350h110M390 350h10M90 351h10M190 351h104M295 351h5M390 351h10M90 352h10M190 352h110M390 352h1M392 352h8M90 353h10M190 353h110M390 353h10M90 354h10M190 354h110M390 354h10M90 355h10M190 355h110M390 355h10M90 356h10M190 356h110M390 356h10M90 357h10M190 357h104M295 357h5M390 357h10M90 358h10M190 358h110M390 358h10M90 359h10M190 359h110M390 359h10M80 360h10M200 360h90M400 360h10M80 361h10M200 361h23M224 361h66M400 361h10M80 362h10M200 362h90M400 362h10M80 363h10M200 363h90M400 363h10M80 364h10M200 364h90M400 364h10M80 365h10M200 365h90M400 365h10M80 366h10M200 366h88M289 366h1M400 366h10M80 367h10M200 367h26M227 367h63M400 367h10M80 368h10M200 368h90M400 368h10M80 369h10M200 369h90M400 369h10M80 370h10M210 370h70M370 370h10M400 370h10M80 371h10M210 371h70M370 371h10M400 371h10M80 372h10M210 372h70M370 372h10M400 372h10M80 373h10M210 373h70M370 373h10M400 373h10M80 374h10M210 374h70M370 374h10M400 374h10M80 375h10M210 375h70M370 375h10M400 375h10M80 376h10M210 376h70M370 376h10M400 376h10M80 377h10M210 377h70M370 377h10M400 377h10M80 378h10M210 378h70M370 378h10M400 378h10M80 379h10M210 379h70M370 379h10M400 379h10M70 380h10M150 380h10M330 380h10M360 380h30M410 380h10M70 381h10M150 381h10M330 381h10M360 381h30M410 381h10M70 382h10M150 382h10M330 382h10M360 382h30M410 382h10M70 383h10M150 383h10M330 383h10M360 383h30M410 383h10M70 384h10M150 384h10M330 384h10M360 384h30M410 384h10M70 385h10M150 385h10M330 385h10M360 385h30M410 385h10M70 386h10M150 386h10M330 386h10M360 386h30M410 386h10M70 387h10M150 387h10M330 387h10M360 387h30M410 387h10M70 388h10M150 388h10M330 388h10M360 388h30M410 388h10M70 389h10M150 389h10M330 389h10M360 389h30M410 389h10M70 390h10M150 390h10M330 390h10M370 390h10M410 390h10M70 391h10M150 391h10M330 391h10M370 391h10M410 391h10M70 392h10M150 392h10M330 392h10M370 392h10M410 392h10M70 393h10M150 393h10M330 393h10M370 393h10M410 393h10M70 394h10M150 394h10M330 394h10M370 394h10M410 394h10M70 395h10M150 395h10M330 395h10M370 395h10M410 395h10M70 396h10M150 396h10M330 396h10M370 396h10M410 396h10M70 397h10M150 397h10M330 397h10M370 397h10M410 397h10M70 398h10M150 398h10M330 398h10M370 398h10M410 398h10M70 399h10M150 399h10M330 399h10M370 399h10M410 399h10M70 400h10M150 400h10M330 400h10M370 400h10M410 400h10M70 401h10M150 401h10M330 401h10M370 401h10M410 401h10M70 402h10M150 402h10M330 402h10M370 402h10M410 402h10M70 403h10M150 403h10M330 403h10M370 403h10M410 403h10M70 404h10M150 404h10M330 404h10M370 404h10M410 404h10M70 405h10M150 405h10M330 405h10M370 405h10M410 405h10M70 406h10M150 406h10M330 406h10M370 406h5M376 406h4M410 406h10M70 407h10M150 407h10M330 407h10M370 407h10M410 407h10M70 408h10M150 408h10M330 408h10M370 408h10M410 408h10M70 409h10M150 409h10M330 409h10M370 409h10M410 409h10M70 410h10M150 410h10M330 410h10M370 410h10M410 410h10M70 411h10M150 411h10M330 411h10M370 411h10M410 411h10M70 412h10M150 412h10M330 412h10M370 412h10M410 412h10M70 413h10M150 413h10M330 413h10M370 413h10M410 413h10M70 414h10M150 414h10M330 414h10M370 414h10M410 414h10M70 415h10M150 415h10M330 415h10M370 415h10M410 415h10M70 416h10M150 416h10M330 416h10M370 416h10M410 416h10M70 417h10M150 417h10M330 417h10M370 417h10M410 417h10M70 418h10M150 418h10M330 418h10M370 418h10M410 418h10M70 419h5M76 419h4M150 419h10M330 419h10M370 419h10M410 419h10" />
<path stroke="#cbf382" d="M200 200h90M200 201h90M200 202h83M284 202h6M200 203h90M200 204h25M226 204h64M200 205h90M200 206h90M200 207h90M200 208h90M200 209h90M190 210h110M190 211h110M190 212h110M190 213h110M190 214h110M190 215h110M190 216h110M190 217h110M190 218h110M190 219h6M197 219h103M190 220h110M190 221h110M190 222h110M190 223h110M190 224h110M190 225h110M190 226h110M190 227h110M190 228h110M190 229h110M120 250h250M120 251h205M326 251h8M335 251h35M120 252h250M120 253h250M120 254h216M337 254h33M120 255h250M120 256h250M120 257h250M120 258h8M129 258h241M120 259h250" />
<path stroke="#cbf282" d="M283 202h1M196 219h1M325 251h1M334 251h1" />
<path stroke="#caf382" d="M225 204h1M336 254h1" />
<path stroke="#010000" d="M303 225h1M375 256h1M312 299h1M345 328h1M294 351h1M294 357h1M288 366h1M375 406h1M75 419h1" />
<path stroke="#51a200" d="M190 230h110M190 231h110M190 232h110M190 233h110M190 234h110M190 235h110M190 236h110M190 237h110M190 238h110M190 239h110M190 240h110M190 241h110M190 242h110M190 243h110M190 244h110M190 245h110M190 246h110M190 247h110M190 248h110M190 249h110" />
<path stroke="#000100" d="M367 243h1M154 262h1M190 262h1M253 262h1M349 267h1M391 352h1M223 361h1M226 367h1" />
<path stroke="#000001" d="M122 249h1M347 266h1M353 266h1M287 305h1M251 349h1" />
<path stroke="#cbf383" d="M128 258h1" />
<path stroke="#d2b48c" d="M170 270h10M190 270h40M240 270h60M310 270h10M170 271h10M190 271h40M240 271h60M310 271h10M170 272h10M190 272h40M240 272h60M310 272h10M170 273h10M190 273h40M240 273h60M310 273h10M170 274h10M190 274h40M240 274h60M310 274h10M170 275h10M190 275h20M211 275h19M240 275h60M310 275h10M170 276h10M190 276h13M204 276h26M240 276h60M310 276h10M170 277h10M190 277h40M240 277h60M310 277h10M170 278h10M190 278h40M240 278h60M310 278h10M170 279h10M190 279h8M199 279h31M240 279h60M310 279h10M170 280h50M230 280h90M170 281h50M230 281h90M170 282h50M230 282h90M170 283h50M230 283h90M170 284h50M230 284h90M170 285h50M230 285h90M170 286h50M230 286h90M170 287h50M230 287h90M170 288h50M230 288h90M170 289h50M230 289h90M190 290h30M230 290h70M190 291h30M230 291h70M190 292h30M230 292h70M190 293h30M230 293h70M190 294h30M230 294h70M190 295h30M230 295h70M190 296h30M230 296h70M190 297h30M230 297h70M190 298h30M230 298h70M190 299h30M230 299h70M220 300h40M220 301h40M220 302h40M220 303h40M220 304h40M220 305h40M220 306h40M220 307h40M220 308h40M220 309h40M230 310h20M230 311h20M230 312h20M230 313h20M230 314h20M230 315h20M230 316h20M230 317h20M230 318h20M230 319h20M130 330h6M137 330h33M320 330h40M130 331h40M320 331h40M130 332h40M320 332h40M130 333h40M320 333h40M130 334h40M320 334h40M130 335h40M320 335h40M130 336h40M320 336h40M130 337h40M320 337h40M130 338h40M320 338h10M331 338h29M130 339h40M320 339h40M110 340h60M320 340h60M110 341h60M320 341h60M110 342h2M113 342h57M320 342h60M110 343h60M320 343h60M110 344h60M320 344h60M110 345h60M320 345h60M110 346h60M320 346h60M110 347h60M320 347h60M110 348h60M320 348h60M110 349h60M320 349h60M100 350h57M158 350h12M320 350h70M100 351h70M320 351h70M100 352h70M320 352h70M100 353h70M320 353h70M100 354h70M320 354h70M100 355h70M320 355h70M100 356h70M320 356h70M100 357h70M320 357h70M100 358h70M320 358h70M100 359h70M320 359h70M90 360h80M190 360h10M290 360h10M320 360h80M90 361h80M190 361h10M290 361h10M320 361h21M342 361h58M90 362h80M190 362h10M290 362h10M320 362h80M90 363h80M190 363h10M290 363h10M320 363h80M90 364h4M95 364h75M190 364h10M290 364h10M320 364h80M90 365h80M190 365h10M290 365h10M320 365h80M90 366h80M190 366h10M290 366h10M320 366h80M90 367h80M190 367h10M290 367h10M320 367h80M90 368h80M190 368h10M290 368h10M320 368h80M90 369h80M190 369h10M290 369h10M320 369h70M391 369h9M90 370h80M190 370h20M280 370h20M320 370h50M380 370h20M90 371h80M190 371h20M280 371h20M320 371h50M380 371h20M90 372h80M190 372h20M280 372h20M320 372h50M380 372h20M90 373h80M190 373h20M280 373h20M320 373h50M380 373h20M90 374h80M190 374h20M280 374h20M320 374h50M380 374h20M90 375h80M190 375h20M280 375h20M320 375h50M380 375h20M90 376h80M190 376h20M280 376h20M320 376h50M380 376h20M90 377h80M190 377h20M280 377h20M320 377h50M380 377h20M90 378h80M190 378h20M280 378h20M320 378h50M380 378h20M90 379h80M190 379h20M280 379h20M320 379h50M380 379h20M80 380h10M110 380h10M140 380h10M160 380h10M190 380h110M320 380h10M340 380h20M390 380h20M80 381h10M110 381h10M140 381h10M160 381h10M190 381h110M320 381h10M340 381h20M390 381h20M80 382h10M110 382h10M140 382h10M160 382h10M190 382h110M320 382h10M340 382h20M390 382h20M80 383h10M110 383h10M140 383h10M160 383h10M190 383h110M320 383h10M340 383h20M390 383h20M80 384h10M110 384h10M140 384h10M160 384h10M190 384h93M284 384h16M320 384h10M340 384h20M390 384h20M80 385h10M110 385h5M116 385h4M140 385h10M160 385h10M190 385h110M320 385h10M340 385h20M390 385h20M80 386h10M110 386h10M140 386h10M160 386h10M190 386h110M320 386h10M340 386h20M390 386h20M80 387h10M110 387h10M140 387h10M160 387h10M190 387h110M320 387h10M340 387h20M390 387h20M80 388h10M110 388h10M140 388h10M160 388h10M190 388h107M298 388h2M320 388h10M340 388h20M390 388h20M80 389h10M110 389h10M140 389h10M160 389h10M190 389h110M320 389h10M340 389h20M390 389h20M80 390h10M140 390h10M340 390h30M380 390h30M80 391h10M140 391h10M340 391h30M380 391h30M80 392h10M140 392h10M340 392h30M380 392h30M80 393h10M140 393h10M340 393h30M380 393h30M80 394h10M140 394h10M340 394h30M380 394h30M80 395h10M140 395h10M340 395h30M380 395h30M80 396h10M140 396h10M340 396h30M380 396h30M80 397h10M140 397h10M340 397h30M380 397h30M80 398h10M140 398h10M340 398h30M380 398h30M80 399h10M140 399h10M340 399h30M380 399h30M80 400h20M130 400h20M340 400h30M380 400h30M80 401h20M130 401h20M340 401h30M380 401h30M80 402h20M130 402h20M340 402h30M380 402h30M80 403h20M130 403h20M340 403h30M380 403h30M80 404h20M130 404h20M340 404h30M380 404h30M80 405h7M88 405h12M130 405h20M340 405h30M380 405h30M80 406h20M130 406h20M340 406h30M380 406h30M80 407h20M130 407h20M340 407h30M380 407h30M80 408h20M130 408h20M340 408h30M380 408h30M80 409h20M130 409h20M340 409h30M380 409h30M80 410h30M120 410h30M340 410h30M380 410h30M80 411h30M120 411h30M340 411h30M380 411h30M80 412h30M120 412h30M340 412h30M380 412h30M80 413h30M120 413h30M340 413h30M380 413h30M80 414h30M120 414h1M122 414h28M340 414h30M380 414h30M80 415h30M120 415h30M340 415h30M380 415h30M80 416h30M120 416h30M340 416h30M380 416h30M80 417h30M120 417h30M340 417h30M380 417h30M80 418h30M120 418h17M138 418h12M340 418h30M380 418h30M80 419h30M120 419h30M340 419h30M380 419h11M392 419h18" />
<path stroke="#d3b48c" d="M210 275h1M198 279h1M330 338h1M390 369h1M297 388h1M87 405h1" />
<path stroke="#d2b48d" d="M203 276h1M341 361h1M137 418h1" />
<path stroke="#d2b58c" d="M136 330h1M112 342h1M157 350h1M94 364h1M283 384h1M115 385h1M121 414h1M391 419h1" />
<path stroke="#6110a2" d="M170 330h10M310 330h10M170 331h10M310 331h10M170 332h10M310 332h10M170 333h10M310 333h10M170 334h10M310 334h10M170 335h10M310 335h10M170 336h10M310 336h10M170 337h10M310 337h10M170 338h10M310 338h10M170 339h10M310 339h10M170 340h10M310 340h10M170 341h10M310 341h10M170 342h10M310 342h10M170 343h10M310 343h10M170 344h10M310 344h10M170 345h10M310 345h10M170 346h10M310 346h10M170 347h10M310 347h10M170 348h10M310 348h10M170 349h10M310 349h10M170 350h20M300 350h20M170 351h20M300 351h20M170 352h20M300 352h20M170 353h20M300 353h20M170 354h20M300 354h20M170 355h20M300 355h20M170 356h20M300 356h20M170 357h20M300 357h20M170 358h20M300 358h20M170 359h20M300 359h20M170 360h20M300 360h20M170 361h20M300 361h20M170 362h20M300 362h20M170 363h20M300 363h20M170 364h20M300 364h20M170 365h20M300 365h20M170 366h20M300 366h20M170 367h20M300 367h20M170 368h17M188 368h2M300 368h20M170 369h20M300 369h20M170 370h20M300 370h20M170 371h20M300 371h20M170 372h20M300 372h20M170 373h20M300 373h20M170 374h20M300 374h20M170 375h20M300 375h20M170 376h20M300 376h20M170 377h20M300 377h20M170 378h20M300 378h20M170 379h20M300 379h20M170 380h20M300 380h20M170 381h20M300 381h20M170 382h20M300 382h20M170 383h20M300 383h20M170 384h20M300 384h20M170 385h20M300 385h20M170 386h20M300 386h20M170 387h20M300 387h20M170 388h20M300 388h20M170 389h20M300 389h20M160 390h10M190 390h72M263 390h37M320 390h10M160 391h10M190 391h110M320 391h10M160 392h10M190 392h110M320 392h10M160 393h4M165 393h5M190 393h76M267 393h33M320 393h10M160 394h10M190 394h110M320 394h10M160 395h10M190 395h110M320 395h10M160 396h10M190 396h109M320 396h10M160 397h10M190 397h110M320 397h10M160 398h10M190 398h110M320 398h10M160 399h10M190 399h110M320 399h10M160 400h10M190 400h110M320 400h10M160 401h10M190 401h25M216 401h84M320 401h10M160 402h10M190 402h110M320 402h10M160 403h10M190 403h110M320 403h10M160 404h10M190 404h110M320 404h10M160 405h10M190 405h110M320 405h10M160 406h10M190 406h110M320 406h10M160 407h10M190 407h110M320 407h10M160 408h10M190 408h110M320 408h10M160 409h10M190 409h110M320 409h10M160 410h170M160 411h170M160 412h170M160 413h170M160 414h170M160 415h170M160 416h170M160 417h170M160 418h170M160 419h170" />
<path stroke="#e35100" d="M220 330h10M240 330h30M220 331h10M240 331h30M220 332h10M240 332h30M220 333h10M240 333h30M220 334h10M240 334h30M220 335h10M240 335h30M220 336h10M240 336h30M220 337h10M240 337h30M220 338h10M240 338h30M220 339h10M240 339h30" />
<path stroke="#fbf236" d="M230 330h10M230 331h10M230 332h10M230 333h10M230 334h10M230 335h10M230 336h10M230 337h10M230 338h10M230 339h10M170 390h20M300 390h20M170 391h10M181 391h9M300 391h20M170 392h20M300 392h20M170 393h20M300 393h20M170 394h20M300 394h7M308 394h12M170 395h20M300 395h20M170 396h20M300 396h20M170 397h20M300 397h20M170 398h20M300 398h20M170 399h20M300 399h17M318 399h2M170 400h20M300 400h20M170 401h20M300 401h20M170 402h20M300 402h20M170 403h20M300 403h20M170 404h20M300 404h20M170 405h20M300 405h11M312 405h8M170 406h20M300 406h20M170 407h20M300 407h20M170 408h20M300 408h20M170 409h20M300 409h20" />
<path stroke="#6111a2" d="M187 368h1M262 390h1" />
<path stroke="#db4161" d="M90 380h20M120 380h20M90 381h20M120 381h20M90 382h20M120 382h20M90 383h20M120 383h20M90 384h20M120 384h20M90 385h20M120 385h20M90 386h20M120 386h20M90 387h20M120 387h20M90 388h20M120 388h20M90 389h20M120 389h20M90 390h50M90 391h50M90 392h50M90 393h50M90 394h50M90 395h50M90 396h50M90 397h50M90 398h50M90 399h50M100 400h30M100 401h30M100 402h30M100 403h30M100 404h30M100 405h30M100 406h30M100 407h30M100 408h30M100 409h30M110 410h10M110 411h10M110 412h10M110 413h10M110 414h10M110 415h10M110 416h10M110 417h10M110 418h10M110 419h10" />
<path stroke="#faf236" d="M180 391h1" />
<path stroke="#6110a3" d="M164 393h1M266 393h1M299 396h1M215 401h1" />
<path stroke="#fbf336" d="M307 394h1" />
<path stroke="#fbf237" d="M317 399h1M311 405h1" />
</svg>