<svg xmlns="http://www.w3.org/2000/svg" viewBox="0 -0.5 480 480" shape-rendering="crispEdges">
<metadata>Made with Pixels to Svg https://codepen.io/shshaw/pen/XbxvNj</metadata>
<path stroke="#000000" d="M180 190h80M180 191h80M180 192h80M180 193h80M180 194h80M180 195h80M180 196h3M184 196h76M180 197h80M180 198h80M180 199h80M160 200h20M260 200h10M160 201h20M260 201h10M160 202h20M260 202h10M160 203h20M260 203h10M160 204h20M260 204h10M160 205h20M260 205h10M160 206h20M260 206h10M160 207h20M260 207h10M160 208h20M260 208h10M160 209h20M260 209h10M150 210h10M270 210h20M150 211h10M270 211h20M150 212h10M270 212h17M288 212h2M150 213h10M270 213h20M150 214h10M270 214h20M150 215h10M270 215h20M150 216h10M270 216h20M150 217h10M270 217h20M150 218h10M270 218h20M150 219h10M270 219h20M150 220h10M220 220h10M290 220h10M150 221h10M220 221h10M290 221h10M150 222h10M220 222h10M290 222h10M150 223h10M220 223h10M290 223h10M150 224h10M220 224h10M290 224h10M150 225h10M220 225h10M290 225h10M150 226h10M220 226h10M290 226h10M150 227h10M220 227h10M290 227h10M150 228h10M220 228h10M290 228h10M150 229h10M220 229h10M290 229h10M150 230h10M190 230h20M230 230h10M300 230h10M150 231h10M190 231h20M230 231h10M300 231h10M150 232h10M190 232h20M230 232h10M300 232h10M150 233h10M190 233h20M230 233h10M300 233h10M150 234h10M190 234h20M230 234h10M300 234h10M150 235h10M190 235h20M230 235h10M300 235h10M150 236h10M190 236h20M230 236h10M300 236h10M150 237h10M190 237h20M230 237h10M300 237h10M150 238h10M190 238h10M201 238h9M230 238h10M300 238h10M150 239h10M190 239h20M230 239h10M300 239h10M140 240h10M210 240h10M240 240h10M310 240h10M140 241h10M210 241h10M240 241h10M310 241h10M140 242h10M210 242h10M240 242h10M310 242h10M140 243h10M210 243h10M240 243h10M310 243h10M140 244h10M210 244h10M240 244h10M310 244h10M140 245h10M210 245h10M240 245h10M310 245h10M140 246h10M210 246h10M240 246h10M310 246h10M140 247h10M210 247h10M240 247h10M310 247h10M140 248h10M210 248h10M240 248h10M310 248h10M140 249h10M210 249h10M240 249h10M310 249h10M140 250h10M310 250h10M140 251h10M310 251h10M140 252h10M310 252h10M140 253h10M310 253h10M140 254h10M310 254h10M140 255h10M310 255h10M140 256h10M310 256h10M140 257h10M310 257h10M140 258h10M310 258h10M140 259h3M144 259h6M310 259h10M140 260h10M310 260h10M140 261h10M310 261h10M140 262h10M310 262h10M140 263h10M310 263h10M140 264h10M310 264h10M140 265h10M310 265h10M140 266h10M310 266h10M140 267h10M310 267h10M140 268h10M310 268h10M140 269h10M310 269h10M140 270h10M310 270h10M140 271h10M310 271h10M140 272h10M310 272h10M140 273h10M310 273h10M140 274h10M310 274h10M140 275h10M310 275h10M140 276h10M310 276h10M140 277h10M310 277h10M140 278h10M310 278h10M140 279h10M310 279h10M140 280h10M200 280h10M230 280h10M260 280h10M310 280h10M140 281h10M200 281h10M230 281h10M260 281h10M310 281h10M140 282h10M200 282h10M230 282h10M260 282h10M310 282h10M140 283h10M200 283h10M230 283h10M260 283h10M310 283h10M140 284h10M200 284h10M230 284h10M260 284h10M310 284h10M140 285h10M200 285h10M230 285h10M260 285h10M310 285h10M140 286h10M200 286h10M230 286h10M260 286h10M310 286h10M140 287h10M200 287h10M230 287h10M260 287h10M310 287h10M140 288h10M200 288h10M230 288h10M260 288h10M310 288h10M140 289h10M200 289h10M230 289h10M260 289h10M310 289h10M150 290h20M230 290h10M300 290h4M305 290h5M150 291h20M230 291h10M300 291h10M150 292h20M230 292h10M300 292h10M150 293h20M230 293h10M300 293h10M150 294h20M230 294h10M300 294h10M150 295h20M230 295h10M300 295h10M150 296h20M230 296h10M300 296h10M150 297h20M230 297h10M300 297h10M150 298h20M230 298h10M300 298h10M150 299h20M230 299h10M300 299h10M170 300h10M220 300h10M290 300h10M170 301h10M220 301h10M290 301h10M170 302h10M220 302h10M290 302h10M170 303h10M220 303h10M290 303h10M170 304h10M220 304h10M290 304h10M170 305h10M220 305h10M290 305h10M170 306h10M220 306h10M290 306h10M170 307h10M220 307h10M290 307h10M170 308h10M220 308h10M290 308h10M170 309h10M220 309h10M290 309h10M180 310h10M220 310h10M240 310h10M280 310h10M180 311h10M220 311h10M240 311h10M280 311h10M180 312h10M220 312h10M240 312h10M280 312h10M180 313h10M220 313h10M240 313h10M280 313h10M180 314h10M220 314h10M240 314h10M280 314h10M180 315h10M220 315h10M240 315h10M280 315h10M180 316h10M220 316h10M240 316h10M280 316h10M180 317h10M220 317h10M240 317h10M280 317h10M180 318h10M220 318h10M240 318h10M280 318h10M180 319h10M220 319h10M240 319h10M280 319h10M180 320h10M230 320h10M280 320h10M180 321h10M230 321h10M280 321h10M180 322h10M230 322h10M280 322h10M180 323h10M230 323h10M280 323h10M180 324h10M230 324h10M280 324h10M180 325h10M230 325h10M280 325h10M180 326h10M230 326h10M280 326h10M180 327h10M230 327h10M280 327h10M180 328h10M230 328h10M280 328h10M180 329h10M230 329h10M280 329h10M180 330h10M280 330h10M180 331h10M280 331h10M180 332h10M280 332h6M287 332h3M180 333h10M280 333h10M180 334h10M280 334h10M180 335h10M280 335h10M180 336h10M280 336h10M180 337h10M280 337h10M180 338h10M280 338h10M180 339h10M280 339h10M180 340h10M280 340h10M180 341h10M280 341h10M180 342h10M280 342h10M180 343h3M184 343h6M280 343h10M180 344h10M280 344h10M180 345h10M280 345h10M180 346h10M280 346h10M180 347h10M280 347h10M180 348h10M280 348h10M180 349h10M280 349h10M190 350h10M270 350h10M190 351h10M270 351h10M190 352h10M270 352h10M190 353h10M270 353h10M190 354h10M270 354h10M190 355h10M270 355h10M190 356h10M270 356h10M190 357h10M270 357h10M190 358h10M270 358h10M190 359h10M270 359h10M200 360h10M260 360h10M200 361h5M206 361h4M260 361h10M200 362h10M260 362h10M200 363h10M260 363h10M200 364h10M260 364h10M200 365h10M260 365h10M200 366h10M260 366h10M200 367h10M260 367h10M200 368h10M260 368h10M200 369h10M260 369h10M210 370h20M240 370h20M210 371h20M240 371h20M210 372h20M240 372h20M210 373h20M240 373h20M210 374h20M240 374h20M210 375h20M240 375h20M210 376h20M240 376h20M210 377h20M240 377h20M210 378h20M240 378h20M210 379h20M240 379h20M190 380h20M260 380h20M190 381h20M260 381h20M190 382h20M260 382h20M190 383h20M260 383h20M190 384h20M260 384h20M190 385h20M260 385h20M190 386h20M260 386h20M190 387h20M260 387h20M190 388h20M260 388h20M190 389h20M260 389h20M180 390h10M280 390h10M180 391h10M280 391h10M180 392h10M280 392h10M180 393h10M280 393h10M180 394h10M280 394h10M180 395h10M280 395h10M180 396h10M280 396h10M180 397h10M280 397h10M180 398h10M280 398h10M180 399h10M280 399h10M170 400h10M290 400h10M170 401h10M290 401h10M170 402h10M290 402h10M170 403h10M290 403h10M170 404h10M290 404h10M170 405h10M290 405h10M170 406h10M290 406h10M170 407h10M290 407h10M170 408h10M290 408h10M170 409h10M290 409h10M170 410h10M290 410h10M170 411h10M290 411h10M170 412h10M290 412h10M170 413h10M290 413h10M170 414h10M290 414h10M170 415h10M290 415h10M170 416h10M290 416h10M170 417h10M290 417h10M170 418h10M290 418h10M170 419h10M290 419h10M170 420h10M290 420h10M170 421h10M290 421h10M170 422h10M290 422h10M170 423h10M290 423h10M170 424h10M290 424h10M170 425h10M290 425h10M170 426h10M290 426h10M170 427h10M290 427h10M170 428h10M290 428h10M170 429h10M290 429h10" />
<path stroke="#010000" d="M183 196h1M183 343h1" />
<path stroke="#a2908e" d="M180 200h80M180 201h80M180 202h80M180 203h64M245 203h15M180 204h80M180 205h80M180 206h80M180 207h80M180 208h10M191 208h69M180 209h80M160 210h110M160 211h110M160 212h110M160 213h110M160 214h110M160 215h110M160 216h67M228 216h42M160 217h110M160 218h110M160 219h110M160 220h60M230 220h22M253 220h37M160 221h60M230 221h60M160 222h60M230 222h60M160 223h60M230 223h60M160 224h60M230 224h60M160 225h60M230 225h45M276 225h14M160 226h60M230 226h60M160 227h60M230 227h60M160 228h60M230 228h60M160 229h60M230 229h60M160 230h30M210 230h20M240 230h60M160 231h30M210 231h20M240 231h60M160 232h30M210 232h20M240 232h60M160 233h30M210 233h20M240 233h60M160 234h30M210 234h6M217 234h13M240 234h60M160 235h30M210 235h20M240 235h60M160 236h30M210 236h20M240 236h34M275 236h25M160 237h30M210 237h20M240 237h60M160 238h30M210 238h20M240 238h60M160 239h30M210 239h20M240 239h60M150 240h60M220 240h20M250 240h43M294 240h5M300 240h10M150 241h60M220 241h20M250 241h60M150 242h60M220 242h20M250 242h60M150 243h60M220 243h20M250 243h60M150 244h60M220 244h20M250 244h60M150 245h60M220 245h20M250 245h60M150 246h60M220 246h20M250 246h60M150 247h60M220 247h20M250 247h60M150 248h60M220 248h20M250 248h60M150 249h60M220 249h20M250 249h60M150 250h40M280 250h23M304 250h6M150 251h40M280 251h30M150 252h40M280 252h30M150 253h40M280 253h30M150 254h40M280 254h30M150 255h40M280 255h30M150 256h40M280 256h30M150 257h40M280 257h30M150 258h40M280 258h30M150 259h40M280 259h30M150 260h30M290 260h20M150 261h30M290 261h20M150 262h30M290 262h20M150 263h30M290 263h20M150 264h30M290 264h20M150 265h30M290 265h20M150 266h30M290 266h20M150 267h30M290 267h20M150 268h30M290 268h20M150 269h30M290 269h20M150 270h20M300 270h10M150 271h20M300 271h10M150 272h20M300 272h10M150 273h20M300 273h10M150 274h20M300 274h10M150 275h20M300 275h10M150 276h20M300 276h10M150 277h20M300 277h10M150 278h20M300 278h10M150 279h20M300 279h10M150 280h30M290 280h20M150 281h30M290 281h20M150 282h30M290 282h20M150 283h30M290 283h20M150 284h30M290 284h20M150 285h30M290 285h20M150 286h30M290 286h20M150 287h30M290 287h20M150 288h30M290 288h20M150 289h30M290 289h20M170 290h10M290 290h10M170 291h10M290 291h10M170 292h10M290 292h10M170 293h10M290 293h10M170 294h10M290 294h10M170 295h10M290 295h10M170 296h10M290 296h10M170 297h10M290 297h10M170 298h10M290 298h10M170 299h10M290 299h10" />
<path stroke="#a2918e" d="M244 203h1M190 208h1M274 236h1" />
<path stroke="#000001" d="M287 212h1M200 238h1M143 259h1" />
<path stroke="#a2908f" d="M227 216h1M275 225h1M293 240h1M299 240h1" />
<path stroke="#a3908e" d="M252 220h1M216 234h1M303 250h1" />
<path stroke="#713f1e" d="M190 250h90M190 251h90M190 252h90M190 253h90M190 254h90M190 255h90M190 256h90M190 257h90M190 258h90M190 259h90M180 260h10M220 260h30M280 260h10M180 261h10M220 261h30M280 261h10M180 262h10M220 262h30M280 262h10M180 263h10M220 263h30M280 263h10M180 264h10M220 264h30M280 264h10M180 265h10M220 265h30M280 265h10M180 266h10M220 266h30M280 266h10M180 267h10M220 267h30M280 267h5M286 267h4M180 268h10M220 268h30M280 268h10M180 269h10M220 269h30M280 269h10M180 290h10M220 290h10M240 290h10M280 290h10M180 291h10M220 291h10M240 291h10M280 291h10M180 292h10M220 292h10M240 292h10M280 292h10M180 293h10M220 293h10M240 293h10M280 293h10M180 294h10M220 294h10M240 294h10M280 294h10M180 295h10M220 295h10M240 295h10M280 295h10M180 296h10M220 296h10M240 296h10M280 296h10M180 297h10M220 297h10M240 297h10M280 297h10M180 298h10M220 298h10M240 298h10M280 298h10M180 299h10M220 299h10M240 299h10M280 299h10M180 300h40M230 300h30M261 300h29M180 301h40M230 301h60M180 302h40M230 302h60M180 303h40M230 303h60M180 304h40M230 304h60M180 305h40M230 305h60M180 306h40M230 306h60M180 307h40M230 307h60M180 308h40M230 308h60M180 309h40M230 309h60M190 310h30M230 310h10M250 310h30M190 311h30M230 311h10M250 311h30M190 312h30M230 312h10M250 312h30M190 313h30M230 313h10M250 313h30M190 314h30M230 314h10M250 314h30M190 315h30M230 315h10M250 315h30M190 316h30M230 316h10M250 316h30M190 317h30M230 317h10M250 317h30M190 318h30M230 318h10M250 318h30M190 319h30M230 319h10M250 319h30M190 320h40M240 320h40M190 321h40M240 321h40M190 322h40M240 322h40M190 323h40M240 323h40M190 324h40M240 324h3M244 324h36M190 325h40M240 325h19M260 325h20M190 326h40M240 326h40M190 327h40M240 327h40M190 328h40M240 328h40M190 329h40M240 329h40M190 330h30M250 330h30M190 331h30M250 331h30M190 332h30M250 332h30M190 333h30M250 333h30M190 334h30M250 334h30M190 335h30M250 335h10M261 335h19M190 336h30M250 336h30M190 337h30M250 337h30M190 338h30M250 338h30M190 339h30M250 339h30M190 340h30M250 340h30M190 341h30M250 341h30M190 342h30M250 342h30M190 343h30M250 343h30M190 344h30M250 344h30M190 345h30M250 345h30M190 346h30M250 346h30M190 347h30M250 347h30M190 348h30M250 348h30M190 349h30M250 349h30M200 350h70M200 351h70M200 352h70M200 353h70M200 354h70M200 355h70M200 356h70M200 357h70M200 358h70M200 359h70M210 360h50M210 361h50M210 362h50M210 363h50M210 364h50M210 365h50M210 366h12M223 366h37M210 367h50M210 368h38M249 368h11M210 369h50M230 370h10M230 371h10M230 372h10M230 373h10M230 374h10M230 375h10M230 376h10M230 377h10M230 378h10M230 379h10M220 380h30M220 381h30M220 382h30M220 383h30M220 384h30M220 385h30M220 386h30M220 387h30M220 388h30M220 389h30M210 390h10M230 390h10M250 390h10M210 391h10M230 391h10M250 391h10M210 392h10M230 392h10M250 392h10M210 393h10M230 393h10M250 393h10M210 394h10M230 394h10M250 394h10M210 395h10M230 395h10M250 395h10M210 396h10M230 396h10M250 396h10M210 397h10M230 397h10M250 397h10M210 398h10M230 398h10M250 398h10M210 399h10M230 399h10M250 399h10M220 400h10M240 400h10M220 401h10M240 401h10M220 402h10M240 402h10M220 403h10M240 403h10M220 404h10M240 404h10M220 405h10M240 405h10M220 406h10M240 406h10M220 407h10M240 407h10M220 408h10M240 408h10M220 409h10M240 409h10M230 410h10M230 411h10M230 412h10M230 413h10M230 414h10M230 415h10M230 416h10M230 417h10M230 418h10M230 419h10" />
<path stroke="#00ffff" d="M190 260h30M250 260h30M190 261h30M250 261h30M190 262h30M250 262h30M190 263h30M250 263h30M190 264h30M250 264h30M190 265h30M250 265h30M190 266h30M250 266h30M190 267h30M250 267h30M190 268h30M250 268h30M190 269h30M250 269h30M170 270h14M185 270h5M220 270h30M280 270h20M170 271h20M220 271h30M280 271h20M170 272h14M185 272h5M220 272h30M280 272h20M170 273h20M220 273h30M280 273h20M170 274h20M220 274h30M280 274h20M170 275h20M220 275h30M280 275h20M170 276h20M220 276h30M280 276h20M170 277h20M220 277h30M280 277h20M170 278h20M220 278h29M280 278h20M170 279h20M220 279h30M280 279h20M180 280h10M220 280h10M240 280h10M280 280h10M180 281h10M220 281h10M240 281h10M280 281h10M180 282h10M220 282h10M240 282h10M280 282h10M180 283h10M220 283h10M240 283h10M280 283h10M180 284h10M220 284h10M240 284h10M280 284h10M180 285h10M220 285h10M240 285h10M280 285h10M180 286h10M220 286h10M240 286h10M280 286h10M180 287h10M220 287h10M240 287h10M280 287h10M180 288h10M220 288h10M240 288h10M280 288h10M180 289h10M220 289h10M240 289h10M280 289h10M190 290h30M250 290h30M190 291h30M250 291h30M190 292h30M250 292h30M190 293h30M250 293h30M190 294h30M250 294h30M190 295h30M250 295h30M190 296h30M250 296h30M190 297h30M250 297h30M190 298h30M250 298h30M190 299h30M250 299h30M160 310h20M290 310h20M160 311h20M290 311h20M160 312h20M290 312h20M160 313h20M290 313h20M160 314h20M290 314h20M160 315h20M290 315h20M160 316h20M290 316h20M160 317h20M290 317h20M160 318h20M290 318h20M160 319h20M290 319h20M160 320h20M290 320h20M160 321h20M290 321h20M160 322h20M290 322h20M160 323h20M290 323h20M160 324h20M290 324h20M160 325h20M290 325h20M160 326h20M290 326h20M160 327h20M290 327h20M160 328h20M290 328h20M160 329h20M290 329h20M210 380h10M250 380h10M210 381h10M250 381h10M210 382h10M250 382h10M210 383h10M250 383h10M210 384h10M250 384h10M210 385h10M250 385h10M210 386h10M250 386h10M210 387h10M250 387h10M210 388h10M250 388h10M210 389h10M250 389h10M220 390h10M240 390h10M220 391h10M240 391h10M220 392h10M240 392h10M220 393h10M240 393h10M220 394h10M240 394h9M220 395h10M240 395h10M220 396h10M240 396h10M220 397h10M240 397h10M220 398h10M240 398h10M220 399h10M240 399h10M230 400h10M230 401h10M230 402h10M230 403h10M230 404h10M230 405h10M230 406h10M230 407h10M230 408h10M230 409h10" />
<path stroke="#703f1e" d="M285 267h1M243 324h1M222 366h1" />
<path stroke="#00feff" d="M184 270h1M184 272h1" />
<path stroke="#9c7155" d="M190 270h30M250 270h30M190 271h30M251 271h29M190 272h30M250 272h30M190 273h30M250 273h30M190 274h30M250 274h30M190 275h30M250 275h30M190 276h30M250 276h30M190 277h30M250 277h30M190 278h30M250 278h30M190 279h30M250 279h30M190 280h10M210 280h10M250 280h10M270 280h10M190 281h10M210 281h10M250 281h10M270 281h10M190 282h10M210 282h10M250 282h10M270 282h10M190 283h10M210 283h10M250 283h10M270 283h10M190 284h10M210 284h10M250 284h10M270 284h10M190 285h10M210 285h10M250 285h10M270 285h10M190 286h10M210 286h10M250 286h10M270 286h10M190 287h10M210 287h10M250 287h10M270 287h10M190 288h10M211 288h9M250 288h10M270 288h10M190 289h10M210 289h10M250 289h10M270 289h10" />
<path stroke="#9c7055" d="M250 271h1" />
<path stroke="#01ffff" d="M249 278h1M249 394h1" />
<path stroke="#9d7155" d="M210 288h1" />
<path stroke="#000100" d="M304 290h1M286 332h1M205 361h1" />
<path stroke="#713f1f" d="M260 300h1M260 335h1M248 368h1" />
<path stroke="#713e1e" d="M259 325h1" />
<path stroke="#0e3f0f" d="M220 330h30M220 331h30M220 332h30M220 333h30M220 334h30M220 335h30M220 336h30M220 337h30M220 338h30M220 339h30M220 340h30M220 341h30M220 342h30M220 343h30M220 344h30M220 345h30M220 346h30M220 347h30M220 348h30M220 349h10M231 349h19" />
<path stroke="#0e3f0e" d="M230 349h1" />
<path stroke="#9999ff" d="M190 390h20M260 390h20M190 391h20M260 391h20M190 392h20M260 392h20M190 393h20M260 393h20M190 394h20M260 394h20M190 395h20M260 395h20M190 396h20M260 396h20M190 397h20M260 397h20M190 398h20M260 398h20M190 399h20M260 399h20M180 400h30M260 400h30M180 401h30M260 401h30M180 402h30M260 402h30M180 403h30M260 403h30M180 404h30M260 404h30M180 405h30M260 405h30M180 406h30M260 406h30M180 407h30M260 407h30M180 408h30M260 408h30M180 409h30M260 409h30M180 410h30M260 410h30M180 411h30M260 411h30M180 412h30M260 412h30M180 413h30M260 413h30M180 414h30M260 414h30M180 415h30M260 415h30M180 416h30M260 416h30M180 417h30M260 417h30M180 418h30M260 418h30M180 419h30M260 419h30M180 420h30M260 420h30M180 421h30M260 421h30M180 422h30M260 422h30M180 423h30M260 423h30M180 424h30M260 424h30M180 425h30M260 425h30M180 426h30M260 426h30M180 427h30M260 427h30M180 428h30M260 428h30M180 429h30M260 429h30" />
<path stroke="#99ffcc" d="M210 400h10M250 400h10M210 401h10M250 401h10M210 402h10M250 402h10M210 403h10M250 403h10M210 404h10M250 404h10M210 405h10M250 405h10M210 406h10M250 406h10M210 407h10M250 407h10M210 408h10M250 408h10M210 409h10M250 409h10M210 410h20M240 410h20M210 411h20M240 411h20M210 412h20M240 412h20M210 413h20M240 413h14M255 413h5M210 414h12M223 414h7M240 414h20M210 415h20M240 415h20M210 416h20M240 416h20M210 417h20M240 417h20M210 418h20M240 418h20M210 419h20M240 419h20M210 420h50M210 421h50M210 422h50M210 423h50M210 424h50M210 425h50M210 426h50M210 427h37M248 427h12M210 428h50M210 429h50" />
<path stroke="#99ffcd" d="M254 413h1" />
<path stroke="#98ffcc" d="M222 414h1" />
<path stroke="#99fecc" d="M247 427h1" />
</svg>