<svg xmlns="http://www.w3.org/2000/svg" viewBox="0 -0.5 480 480" shape-rendering="crispEdges">
<metadata>Made with Pixels to Svg https://codepen.io/shshaw/pen/XbxvNj</metadata>
<path stroke="#ff0000" d="M170 170h130M170 171h130M170 172h130M170 173h130M170 174h130M170 175h130M170 176h130M170 177h130M170 178h130M170 179h130M170 180h50M270 180h30M170 181h50M270 181h30M170 182h3M174 182h46M270 182h30M170 183h50M270 183h13M284 183h16M170 184h50M270 184h30M170 185h50M270 185h30M170 186h50M270 186h30M170 187h50M270 187h30M170 188h50M270 188h30M170 189h50M270 189h30M170 190h30M270 190h30M170 191h30M270 191h30M170 192h30M270 192h30M170 193h30M270 193h30M170 194h30M270 194h30M170 195h30M270 195h30M170 196h30M270 196h30M170 197h13M184 197h16M270 197h30M170 198h30M270 198h30M170 199h30M270 199h30M170 200h30M270 200h30M170 201h30M270 201h30M170 202h30M270 202h30M170 203h30M270 203h30M170 204h30M270 204h30M170 205h30M270 205h30M170 206h30M270 206h30M170 207h30M270 207h30M170 208h30M270 208h30M170 209h30M270 209h30M170 210h30M270 210h30M170 211h2M173 211h27M270 211h30M170 212h30M270 212h30M170 213h30M270 213h30M170 214h30M270 214h10M281 214h19M170 215h30M270 215h30M170 216h30M270 216h30M170 217h30M270 217h30M170 218h30M270 218h30M170 219h30M270 219h30M170 220h20M280 220h20M170 221h20M280 221h3M284 221h16M170 222h20M280 222h20M170 223h20M280 223h20M170 224h20M280 224h20M170 225h20M280 225h20M170 226h20M280 226h20M170 227h20M280 227h20M170 228h20M280 228h20M170 229h20M280 229h20M100 230h66M167 230h13M290 230h80M100 231h80M290 231h59M350 231h20M100 232h80M290 232h33M324 232h46M100 233h80M290 233h80M100 234h80M290 234h80M100 235h80M290 235h80M100 236h44M145 236h35M290 236h80M100 237h80M290 237h80M100 238h80M290 238h80M100 239h80M290 239h80M100 240h70M300 240h70M100 241h70M300 241h70M100 242h38M139 242h31M300 242h70M100 243h70M300 243h70M100 244h70M300 244h70M100 245h70M300 245h70M100 246h70M300 246h70M100 247h70M300 247h70M100 248h70M300 248h70M100 249h70M300 249h70M110 250h60M300 250h60M110 251h60M300 251h60M110 252h60M300 252h60M110 253h60M300 253h60M110 254h60M300 254h60M110 255h60M300 255h60M110 256h60M300 256h60M110 257h60M300 257h60M110 258h60M300 258h60M110 259h60M300 259h60M110 260h70M290 260h70M110 261h70M290 261h70M110 262h70M290 262h70M110 263h70M290 263h70M110 264h70M290 264h70M110 265h70M290 265h70M110 266h55M166 266h14M290 266h70M110 267h70M290 267h70M110 268h70M290 268h70M110 269h70M290 269h70M120 270h60M290 270h60M120 271h60M290 271h60M120 272h60M290 272h60M120 273h60M290 273h60M120 274h60M290 274h60M120 275h60M290 275h60M120 276h60M290 276h60M120 277h60M290 277h60M120 278h60M290 278h60M120 279h60M290 279h60M120 280h60M290 280h57M348 280h2M120 281h60M290 281h60M120 282h60M290 282h60M120 283h60M290 283h60M120 284h60M290 284h13M304 284h46M120 285h60M290 285h10M301 285h49M120 286h60M290 286h60M120 287h35M156 287h24M290 287h60M120 288h60M290 288h60M120 289h60M290 289h60M130 290h60M280 290h60M130 291h60M280 291h60M130 292h60M280 292h60M130 293h60M280 293h60M130 294h60M280 294h60M130 295h60M280 295h60M130 296h60M280 296h60M130 297h60M280 297h60M130 298h60M280 298h60M130 299h60M280 299h60M130 300h50M290 300h50M130 301h50M290 301h50M130 302h50M290 302h50M130 303h50M290 303h50M130 304h50M290 304h2M293 304h47M130 305h50M290 305h50M130 306h50M290 306h50M130 307h50M290 307h38M329 307h11M130 308h50M290 308h50M130 309h50M290 309h50M140 310h30M300 310h30M140 311h30M300 311h30M140 312h30M300 312h30M140 313h30M300 313h30M140 314h30M300 314h30M140 315h30M300 315h6M307 315h23M140 316h30M300 316h30M140 317h30M300 317h30M140 318h30M300 318h30M140 319h30M300 319h30M140 320h30M300 320h30M140 321h30M300 321h30M140 322h30M300 322h30M140 323h30M300 323h30M140 324h30M300 324h30M140 325h30M300 325h30M140 326h30M300 326h30M140 327h30M300 327h30M140 328h30M300 328h30M140 329h30M300 329h30M150 330h20M300 330h20M150 331h20M300 331h20M150 332h20M300 332h20M150 333h20M300 333h20M150 334h19M300 334h20M150 335h20M300 335h20M150 336h20M300 336h20M150 337h20M300 337h20M150 338h20M300 338h20M150 339h20M300 339h20M150 340h30M290 340h30M150 341h30M290 341h30M150 342h30M290 342h30M150 343h30M290 343h30M150 344h30M290 344h30M150 345h30M290 345h30M150 346h30M290 346h30M150 347h30M290 347h30M150 348h30M290 348h30M150 349h30M290 349h30M160 350h20M290 350h20M160 351h20M290 351h20M160 352h20M290 352h20M160 353h20M290 353h20M160 354h20M290 354h20M160 355h20M290 355h20M160 356h20M290 356h20M160 357h20M290 357h20M160 358h20M290 358h20M160 359h20M290 359h20M160 360h20M290 360h20M160 361h20M290 361h20M160 362h20M290 362h20M160 363h20M290 363h20M160 364h20M290 364h20M160 365h20M290 365h20M160 366h20M290 366h20M160 367h20M290 367h20M160 368h20M290 368h20M160 369h20M290 369h20M170 370h10M290 370h10M170 371h10M290 371h10M170 372h10M290 372h10M170 373h10M290 373h10M170 374h10M290 374h10M170 375h10M290 375h10M170 376h10M290 376h10M170 377h10M290 377h10M170 378h10M290 378h10M170 379h10M290 379h10M170 380h20M280 380h20M170 381h20M280 381h20M170 382h20M280 382h20M170 383h20M280 383h20M170 384h20M280 384h20M170 385h20M280 385h20M170 386h20M280 386h20M170 387h20M280 387h20M170 388h20M280 388h20M170 389h20M280 389h20M180 390h20M270 390h20M180 391h20M270 391h20M180 392h20M270 392h20M180 393h20M270 393h20M180 394h20M270 394h20M180 395h20M270 395h20M180 396h20M270 396h20M180 397h20M270 397h20M180 398h20M270 398h20M180 399h20M270 399h20M180 400h10M230 400h10M280 400h10M180 401h10M230 401h10M280 401h10M180 402h10M230 402h10M280 402h10M180 403h10M230 403h10M280 403h10M180 404h10M230 404h10M280 404h10M180 405h10M230 405h10M280 405h10M180 406h10M230 406h10M280 406h10M180 407h10M230 407h10M280 407h10M180 408h10M230 408h10M280 408h10M180 409h10M230 409h10M280 409h10M190 410h10M230 410h10M270 410h10M190 411h10M230 411h10M270 411h10M190 412h10M230 412h10M270 412h10M190 413h10M230 413h10M270 413h10M190 414h10M230 414h10M270 414h10M190 415h10M230 415h10M270 415h10M190 416h10M230 416h10M270 416h10M190 417h10M230 417h10M270 417h10M190 418h10M230 418h10M270 418h10M190 419h10M230 419h10M270 419h10M190 420h90M190 421h90M190 422h90M190 423h90M190 424h90M190 425h90M190 426h90M190 427h90M190 428h90M190 429h90M200 430h70M200 431h70M200 432h70M200 433h70M200 434h70M200 435h70M200 436h70M200 437h70M200 438h70M200 439h64M265 439h5M200 440h70M200 441h70M200 442h70M200 443h70M200 444h44M245 444h25M200 445h70M200 446h70M200 447h70M200 448h70M200 449h70" />
<path stroke="#000000" d="M220 180h50M220 181h50M220 182h50M220 183h33M254 183h16M220 184h8M229 184h41M220 185h50M220 186h50M220 187h50M220 188h50M220 189h50M200 190h70M200 191h70M200 192h70M200 193h70M200 194h70M200 195h59M260 195h10M200 196h70M200 197h70M200 198h70M200 199h70M200 200h40M250 200h20M200 201h40M250 201h20M200 202h40M250 202h20M200 203h40M250 203h20M200 204h40M250 204h20M200 205h40M250 205h20M200 206h40M250 206h20M200 207h40M250 207h20M200 208h40M250 208h20M200 209h40M250 209h20M200 210h20M230 210h10M250 210h20M200 211h20M230 211h10M250 211h20M200 212h20M230 212h10M250 212h20M200 213h20M230 213h10M250 213h20M200 214h20M230 214h10M250 214h20M200 215h20M230 215h10M250 215h20M200 216h20M230 216h10M250 216h20M200 217h20M230 217h10M250 217h20M200 218h20M230 218h10M250 218h20M200 219h20M230 219h10M250 219h20M190 220h20M260 220h20M190 221h20M260 221h20M190 222h20M260 222h20M190 223h20M260 223h20M190 224h20M260 224h20M190 225h20M260 225h20M190 226h20M260 226h20M190 227h20M260 227h20M190 228h20M260 228h20M190 229h20M260 229h20M180 230h20M210 230h10M240 230h10M270 230h20M180 231h20M210 231h10M240 231h10M270 231h20M180 232h20M210 232h10M240 232h10M270 232h20M180 233h20M210 233h10M240 233h10M270 233h20M180 234h20M210 234h10M240 234h10M270 234h20M180 235h20M210 235h10M240 235h10M270 235h20M180 236h20M210 236h10M240 236h10M270 236h20M180 237h20M210 237h10M240 237h10M270 237h20M180 238h20M210 238h10M240 238h10M270 238h20M180 239h20M210 239h10M240 239h10M270 239h20M170 240h10M190 240h10M220 240h10M250 240h10M270 240h10M290 240h10M170 241h10M190 241h10M220 241h10M250 241h10M270 241h10M290 241h10M170 242h10M190 242h10M220 242h10M250 242h10M270 242h10M290 242h10M170 243h10M190 243h10M220 243h10M250 243h10M270 243h10M290 243h10M170 244h10M190 244h10M220 244h10M250 244h10M270 244h10M290 244h10M170 245h10M190 245h10M220 245h10M250 245h10M270 245h10M290 245h10M170 246h10M190 246h10M220 246h10M250 246h10M270 246h10M290 246h10M170 247h10M190 247h10M220 247h10M250 247h10M270 247h10M290 247h10M170 248h10M190 248h10M220 248h10M250 248h10M270 248h10M290 248h10M170 249h10M190 249h10M220 249h10M250 249h10M270 249h10M290 249h10M170 250h10M190 250h10M270 250h10M290 250h10M170 251h10M190 251h10M270 251h10M290 251h10M170 252h10M190 252h10M270 252h10M290 252h10M170 253h10M190 253h10M270 253h10M290 253h10M170 254h10M190 254h10M270 254h10M290 254h10M170 255h10M190 255h10M270 255h10M290 255h10M170 256h10M190 256h10M270 256h10M290 256h10M170 257h10M190 257h10M270 257h10M290 257h10M170 258h10M190 258h10M270 258h10M290 258h10M170 259h10M190 259h10M270 259h10M290 259h10M180 260h10M280 260h10M180 261h10M280 261h10M180 262h10M280 262h10M180 263h10M280 263h10M180 264h10M280 264h10M180 265h10M280 265h10M180 266h10M280 266h10M180 267h10M280 267h10M180 268h10M280 268h10M180 269h10M280 269h10M180 270h10M220 270h30M280 270h10M180 271h10M220 271h30M280 271h10M180 272h10M220 272h30M280 272h10M180 273h10M220 273h30M280 273h10M180 274h10M220 274h29M280 274h10M180 275h10M220 275h30M280 275h10M180 276h10M220 276h30M280 276h10M180 277h10M220 277h30M280 277h10M180 278h10M220 278h30M280 278h10M180 279h10M220 279h27M248 279h2M280 279h10M180 280h10M280 280h10M180 281h10M280 281h10M180 282h10M280 282h10M180 283h10M280 283h10M180 284h10M280 284h10M180 285h10M280 285h10M180 286h10M280 286h10M180 287h10M280 287h10M180 288h10M280 288h10M180 289h10M280 289h10M190 290h10M270 290h10M191 291h9M270 291h10M190 292h10M270 292h10M190 293h10M270 293h10M190 294h10M270 294h10M190 295h10M270 295h10M190 296h10M270 296h10M190 297h10M270 297h10M190 298h10M270 298h10M190 299h10M270 299h10M180 300h30M260 300h30M180 301h30M260 301h30M180 302h30M260 302h30M180 303h30M260 303h30M180 304h30M260 304h30M180 305h30M260 305h30M180 306h30M260 306h30M180 307h30M260 307h30M180 308h30M260 308h30M180 309h30M260 309h30M170 310h10M290 310h10M170 311h10M290 311h10M170 312h10M290 312h10M170 313h10M290 313h10M170 314h10M290 314h10M170 315h10M290 315h10M170 316h10M290 316h10M170 317h10M290 317h10M170 318h10M290 318h10M170 319h10M290 319h10M170 320h10M190 320h10M220 320h30M270 320h10M290 320h10M170 321h10M190 321h10M220 321h30M270 321h10M290 321h10M170 322h10M190 322h10M220 322h30M270 322h10M290 322h10M170 323h10M190 323h10M220 323h30M270 323h10M290 323h10M170 324h10M190 324h10M220 324h30M270 324h10M290 324h10M170 325h10M190 325h10M220 325h30M270 325h10M290 325h10M170 326h10M190 326h10M220 326h30M270 326h10M290 326h10M170 327h10M190 327h10M220 327h30M270 327h10M290 327h10M170 328h10M190 328h10M220 328h30M270 328h10M290 328h10M170 329h10M190 329h10M220 329h30M270 329h10M290 329h10M170 330h10M200 330h30M250 330h20M290 330h10M170 331h10M200 331h30M250 331h20M290 331h10M170 332h10M200 332h30M250 332h20M290 332h10M170 333h10M200 333h30M250 333h20M290 333h10M170 334h10M200 334h30M250 334h20M290 334h10M170 335h10M200 335h30M250 335h20M290 335h10M170 336h10M200 336h30M250 336h20M290 336h10M170 337h10M200 337h30M250 337h20M290 337h10M170 338h10M200 338h30M250 338h20M290 338h10M170 339h10M200 339h30M250 339h20M290 339h10M180 340h10M230 340h10M280 340h10M180 341h10M230 341h10M280 341h10M180 342h10M230 342h10M280 342h10M180 343h10M230 343h10M280 343h10M180 344h10M230 344h10M280 344h10M180 345h10M230 345h10M280 345h10M180 346h10M230 346h10M280 346h10M180 347h10M230 347h10M280 347h10M180 348h10M230 348h10M280 348h10M180 349h10M230 349h10M280 349h10M180 350h50M240 350h50M180 351h50M240 351h50M180 352h50M240 352h50M180 353h50M240 353h50M180 354h50M240 354h50M180 355h50M240 355h50M180 356h50M240 356h50M180 357h50M240 357h50M180 358h50M240 358h50M180 359h50M240 359h50M180 360h10M280 360h10M180 361h10M280 361h10M180 362h10M280 362h10M180 363h10M280 363h10M180 364h10M280 364h10M180 365h10M280 365h10M180 366h10M280 366h10M180 367h10M280 367h10M180 368h10M280 368h10M180 369h10M280 369h10M180 370h10M280 370h10M180 371h10M280 371h10M180 372h10M280 372h10M180 373h10M280 373h10M180 374h10M280 374h10M180 375h10M280 375h10M180 376h10M280 376h10M180 377h10M280 377h10M180 378h10M280 378h10M180 379h10M280 379h10M190 380h90M190 381h90M190 382h90M190 383h90M190 384h90M190 385h90M190 386h90M190 387h90M190 388h90M190 389h90M200 390h70M200 391h70M200 392h70M200 393h70M200 394h70M200 395h70M200 396h70M200 397h70M200 398h70M200 399h70M200 400h30M240 400h30M200 401h30M240 401h30M200 402h30M240 402h30M200 403h30M240 403h30M200 404h30M240 404h30M200 405h30M240 405h13M254 405h16M200 406h30M240 406h30M200 407h30M240 407h30M200 408h30M240 408h30M200 409h30M240 409h30" />
<path stroke="#ff0001" d="M173 182h1M323 232h1M347 280h1M155 287h1" />
<path stroke="#000100" d="M253 183h1M259 195h1M247 279h1M190 291h1M253 405h1" />
<path stroke="#ff0100" d="M283 183h1M172 211h1M280 214h1M283 221h1M166 230h1M349 231h1M292 304h1M328 307h1M169 334h1M244 444h1" />
<path stroke="#010000" d="M228 184h1M249 274h1" />
<path stroke="#fe0000" d="M183 197h1M144 236h1M138 242h1M165 266h1M303 284h1M300 285h1M306 315h1M264 439h1" />
<path stroke="#ffffff" d="M240 200h10M240 201h10M240 202h10M240 203h10M240 204h10M240 205h10M240 206h10M240 207h10M240 208h2M243 208h7M240 209h10M221 210h9M240 210h10M220 211h10M240 211h10M220 212h10M240 212h10M220 213h10M240 213h10M220 214h10M240 214h10M220 215h10M240 215h10M220 216h10M240 216h10M220 217h10M240 217h10M220 218h10M240 218h10M220 219h10M240 219h10M220 230h10M250 230h10M220 231h10M250 231h10M220 232h10M250 232h10M220 233h10M250 233h10M220 234h10M250 234h10M220 235h10M250 235h10M220 236h10M250 236h10M220 237h10M250 237h10M220 238h10M250 238h10M220 239h10M250 239h10M210 240h10M240 240h10M210 241h10M240 241h10M210 242h10M240 242h10M210 243h10M240 243h10M210 244h10M240 244h10M210 245h10M240 245h10M210 246h10M240 246h10M210 247h10M240 247h10M210 248h10M240 248h10M210 249h10M240 249h10M190 400h10M270 400h10M190 401h10M270 401h10M190 402h10M270 402h10M190 403h10M270 403h10M190 404h10M270 404h10M190 405h10M270 405h10M190 406h10M270 406h10M190 407h10M270 407h10M190 408h10M270 408h10M190 409h10M270 409h10M200 410h30M240 410h30M200 411h30M240 411h30M200 412h30M240 412h30M200 413h30M240 413h2M243 413h27M200 414h30M240 414h30M200 415h30M240 415h30M200 416h30M240 416h30M200 417h30M240 417h30M200 418h30M240 418h30M200 419h30M240 419h30" />
<path stroke="#fffffe" d="M242 208h1M242 413h1" />
<path stroke="#fffeff" d="M220 210h1" />
<path stroke="#dab380" d="M210 220h50M210 221h50M210 222h50M210 223h50M210 224h50M210 225h50M210 226h50M210 227h50M210 228h50M210 229h50M200 230h10M230 230h10M260 230h10M200 231h10M230 231h10M260 231h10M200 232h10M230 232h10M260 232h10M200 233h10M230 233h10M260 233h10M200 234h10M230 234h10M260 234h10M200 235h10M230 235h10M260 235h10M200 236h10M230 236h10M260 236h10M200 237h10M230 237h10M260 237h10M200 238h10M230 238h10M260 238h10M200 239h10M230 239h10M260 239h10M180 240h10M200 240h10M230 240h10M260 240h10M280 240h10M180 241h10M200 241h10M230 241h10M260 241h10M280 241h10M180 242h10M200 242h10M230 242h10M260 242h10M280 242h10M180 243h10M200 243h10M230 243h10M260 243h10M280 243h10M180 244h10M200 244h10M230 244h10M260 244h10M280 244h10M180 245h10M200 245h10M230 245h10M260 245h10M280 245h10M180 246h10M200 246h10M230 246h10M260 246h10M280 246h10M180 247h10M200 247h10M230 247h10M260 247h10M280 247h10M180 248h10M200 248h10M230 248h10M260 248h10M280 248h10M180 249h10M200 249h10M230 249h10M260 249h10M280 249h10M180 250h10M210 250h50M280 250h10M180 251h10M210 251h50M280 251h10M180 252h10M210 252h50M280 252h10M180 253h10M210 253h50M280 253h10M180 254h10M210 254h50M280 254h10M180 255h10M210 255h50M280 255h10M180 256h8M189 256h1M210 256h50M280 256h10M180 257h10M210 257h50M280 257h10M180 258h10M210 258h50M280 258h10M180 259h10M210 259h50M280 259h10M190 260h20M260 260h20M190 261h20M260 261h20M190 262h20M260 262h20M190 263h20M260 263h20M190 264h20M260 264h20M190 265h20M260 265h20M190 266h20M260 266h20M190 267h20M260 267h20M190 268h20M260 268h20M190 269h20M260 269h20M190 270h20M260 270h20M190 271h20M260 271h20M190 272h20M260 272h20M190 273h20M260 273h20M190 274h20M260 274h20M190 275h20M260 275h20M190 276h20M260 276h20M190 277h20M260 277h20M190 278h20M260 278h20M190 279h20M260 279h20M190 280h20M260 280h20M190 281h20M260 281h20M190 282h20M260 282h20M190 283h20M260 283h20M190 284h20M260 284h20M190 285h20M260 285h20M190 286h20M260 286h20M190 287h20M260 287h20M190 288h20M260 288h20M190 289h20M260 289h20M200 290h70M200 291h70M200 292h70M200 293h15M216 293h54M200 294h70M200 295h70M200 296h70M200 297h70M200 298h70M200 299h70M210 300h50M210 301h50M210 302h50M210 303h36M247 303h13M210 304h39M250 304h10M210 305h31M242 305h18M210 306h50M210 307h50M210 308h50M210 309h50M200 320h20M250 320h20M200 321h20M250 321h20M200 322h20M250 322h20M200 323h20M250 323h20M200 324h20M250 324h20M200 325h20M250 325h20M200 326h20M250 326h20M200 327h20M250 327h20M200 328h20M250 328h20M200 329h20M250 329h20" />
<path stroke="#a2baff" d="M200 250h10M260 250h10M200 251h10M260 251h10M200 252h10M260 252h10M200 253h10M260 253h10M200 254h10M260 254h10M200 255h10M260 255h10M200 256h10M260 256h10M200 257h10M260 257h10M200 258h9M260 258h10M200 259h10M260 259h10" />
<path stroke="#dab381" d="M188 256h1M215 293h1" />
<path stroke="#a2bafe" d="M209 258h1" />
<path stroke="#e35100" d="M210 260h50M210 261h50M210 262h50M210 263h50M210 264h50M210 265h50M210 266h50M210 267h50M210 268h50M210 269h50M210 270h10M250 270h10M210 271h10M250 271h10M210 272h10M250 272h10M210 273h10M250 273h10M210 274h10M250 274h10M210 275h10M250 275h10M210 276h10M250 276h10M210 277h10M250 277h10M210 278h10M250 278h10M210 279h10M250 279h10M210 280h50M210 281h50M210 282h50M210 283h50M210 284h50M210 285h50M210 286h50M210 287h50M210 288h23M234 288h26M210 289h50" />
<path stroke="#e35101" d="M233 288h1" />
<path stroke="#dbb380" d="M246 303h1M249 304h1" />
<path stroke="#dab280" d="M241 305h1" />
<path stroke="#49a269" d="M180 310h110M180 311h110M180 312h110M180 313h110M180 314h110M180 315h110M180 316h110M180 317h110M180 318h110M180 319h64M245 319h45M180 320h10M280 320h10M180 321h10M280 321h10M180 322h10M280 322h10M180 323h10M280 323h10M180 324h10M280 324h10M180 325h10M280 325h10M180 326h10M280 326h10M180 327h10M280 327h10M180 328h10M280 328h10M180 329h10M280 329h10M180 330h20M230 330h20M270 330h20M180 331h20M230 331h20M270 331h20M180 332h20M230 332h20M270 332h20M180 333h20M230 333h20M270 333h20M180 334h20M230 334h20M270 334h20M180 335h20M230 335h20M270 335h20M180 336h20M230 336h20M270 336h20M180 337h20M230 337h20M270 337h20M180 338h20M230 338h20M270 338h20M180 339h20M230 339h20M270 339h20M190 340h40M240 340h40M190 341h40M240 341h21M262 341h18M190 342h19M210 342h20M240 342h40M190 343h40M240 343h40M190 344h21M212 344h18M240 344h40M190 345h40M240 345h40M190 346h40M240 346h40M190 347h40M240 347h40M190 348h40M240 348h40M190 349h40M240 349h40M230 350h10M230 351h10M230 352h10M230 353h10M230 354h10M230 355h10M230 356h10M230 357h10M230 358h10M230 359h10M190 360h90M190 361h90M190 362h90M190 363h4M195 363h85M190 364h90M190 365h90M190 366h90M190 367h90M190 368h90M190 369h90M190 370h75M266 370h14M190 371h90M190 372h90M190 373h90M190 374h46M237 374h43M190 375h90M190 376h90M190 377h90M190 378h37M228 378h52M190 379h90" />
<path stroke="#49a369" d="M244 319h1M211 344h1M265 370h1" />
<path stroke="#48a269" d="M261 341h1" />
<path stroke="#49a268" d="M209 342h1M194 363h1M236 374h1M227 378h1" />
</svg>