<svg xmlns="http://www.w3.org/2000/svg" viewBox="0 -0.5 480 480" shape-rendering="crispEdges">
<metadata>Made with Pixels to Svg https://codepen.io/shshaw/pen/XbxvNj</metadata>
<path stroke="#000000" d="M160 180h13M174 180h26M160 181h40M160 182h40M160 183h40M160 184h40M160 185h40M160 186h40M160 187h40M160 188h40M160 189h40M150 190h10M200 190h10M150 191h10M200 191h10M150 192h10M200 192h10M150 193h10M200 193h10M150 194h10M200 194h10M150 195h10M200 195h10M150 196h10M200 196h10M150 197h10M200 197h10M150 198h10M200 198h10M150 199h10M200 199h10M150 200h10M210 200h10M150 201h10M210 201h10M150 202h10M210 202h10M150 203h10M210 203h10M150 204h10M210 204h10M150 205h10M210 205h10M150 206h10M210 206h10M150 207h10M210 207h10M150 208h10M210 208h10M150 209h10M210 209h10M140 210h10M220 210h10M140 211h10M220 211h10M140 212h10M220 212h10M140 213h10M220 213h10M140 214h10M220 214h10M140 215h10M220 215h10M140 216h10M220 216h10M140 217h10M220 217h10M140 218h10M220 218h10M140 219h10M220 219h10M130 220h10M230 220h10M130 221h10M230 221h10M130 222h10M230 222h10M130 223h10M230 223h10M130 224h10M230 224h10M130 225h10M230 225h10M130 226h10M230 226h10M130 227h10M230 227h10M130 228h10M230 228h10M130 229h10M230 229h10M120 230h10M240 230h10M120 231h10M240 231h10M120 232h10M240 232h10M120 233h10M240 233h10M120 234h10M240 234h10M120 235h10M240 235h10M120 236h10M240 236h10M120 237h10M240 237h10M120 238h10M240 238h10M120 239h10M240 239h10M110 240h10M250 240h10M110 241h10M250 241h10M110 242h10M250 242h10M110 243h10M250 243h10M110 244h10M250 244h10M110 245h10M250 245h10M110 246h10M250 246h10M110 247h10M250 247h10M110 248h10M250 248h10M110 249h10M250 249h10M100 250h10M260 250h10M100 251h10M260 251h10M100 252h10M260 252h10M100 253h10M260 253h10M100 254h10M260 254h10M100 255h10M260 255h10M100 256h10M260 256h10M100 257h10M260 257h10M100 258h10M260 258h10M100 259h10M260 259h10M100 260h10M260 260h10M300 260h10M320 260h10M350 260h10M380 260h20M420 260h10M100 261h10M260 261h10M300 261h10M320 261h10M350 261h10M380 261h20M420 261h10M100 262h10M260 262h10M300 262h10M320 262h10M350 262h10M380 262h20M420 262h10M100 263h10M260 263h10M300 263h10M320 263h10M350 263h10M380 263h20M420 263h10M100 264h10M260 264h10M300 264h10M320 264h10M350 264h10M380 264h20M420 264h10M100 265h10M260 265h10M300 265h10M320 265h10M350 265h10M380 265h20M420 265h10M100 266h10M260 266h10M300 266h10M320 266h10M350 266h10M380 266h20M420 266h10M100 267h10M260 267h10M300 267h10M320 267h10M350 267h10M380 267h20M420 267h10M100 268h10M260 268h10M300 268h10M320 268h10M350 268h10M380 268h20M420 268h10M100 269h10M260 269h10M300 269h10M320 269h10M350 269h10M380 269h20M420 269h10M110 270h10M250 270h10M300 270h30M340 270h10M360 270h10M380 270h10M400 270h10M420 270h10M110 271h10M250 271h10M300 271h30M340 271h10M360 271h10M380 271h10M400 271h10M420 271h10M110 272h10M250 272h10M300 272h30M340 272h10M360 272h10M380 272h10M400 272h10M420 272h10M110 273h10M250 273h10M300 273h30M340 273h10M360 273h10M380 273h10M400 273h10M420 273h10M110 274h10M250 274h10M300 274h30M340 274h10M360 274h3M364 274h6M380 274h10M400 274h10M420 274h10M110 275h10M251 275h9M300 275h16M317 275h13M340 275h10M360 275h10M380 275h10M400 275h10M420 275h10M110 276h10M250 276h10M300 276h11M312 276h18M340 276h10M360 276h10M380 276h10M400 276h10M420 276h10M110 277h10M250 277h10M300 277h15M316 277h14M340 277h10M360 277h10M380 277h10M400 277h10M420 277h10M110 278h10M250 278h10M300 278h30M340 278h10M360 278h10M380 278h10M400 278h10M420 278h10M110 279h10M250 279h10M300 279h30M340 279h10M360 279h10M380 279h10M400 279h10M420 279h10M100 280h8M109 280h1M170 280h30M210 280h30M250 280h10M300 280h10M320 280h10M340 280h10M360 280h10M380 280h10M400 280h10M420 280h10M100 281h10M170 281h30M210 281h14M225 281h15M250 281h10M300 281h10M320 281h10M340 281h10M360 281h10M380 281h10M400 281h10M420 281h10M100 282h10M170 282h30M210 282h30M250 282h10M300 282h10M320 282h10M340 282h10M360 282h10M380 282h10M400 282h10M420 282h10M100 283h10M170 283h30M210 283h30M250 283h10M300 283h10M320 283h10M340 283h10M360 283h10M380 283h10M400 283h10M420 283h10M100 284h10M170 284h30M210 284h30M250 284h10M300 284h10M320 284h10M340 284h10M360 284h10M380 284h10M400 284h10M420 284h10M100 285h10M170 285h30M210 285h30M250 285h10M300 285h10M320 285h10M340 285h10M360 285h10M380 285h10M400 285h10M420 285h10M100 286h10M170 286h30M210 286h30M250 286h10M300 286h10M320 286h10M340 286h10M360 286h10M380 286h10M400 286h10M420 286h10M100 287h10M170 287h30M210 287h30M250 287h10M300 287h10M320 287h10M340 287h10M360 287h10M380 287h10M400 287h10M420 287h10M100 288h10M170 288h30M210 288h30M250 288h10M300 288h10M320 288h10M340 288h10M360 288h10M380 288h10M400 288h10M420 288h10M100 289h10M170 289h30M210 289h30M250 289h10M300 289h10M320 289h8M329 289h1M340 289h10M360 289h10M380 289h10M400 289h10M420 289h10M100 290h10M250 290h10M300 290h10M320 290h10M350 290h10M380 290h20M420 290h20M100 291h10M250 291h10M300 291h10M320 291h10M350 291h10M380 291h20M420 291h20M100 292h10M250 292h10M300 292h10M320 292h10M350 292h10M380 292h20M420 292h20M100 293h10M250 293h10M300 293h10M320 293h10M350 293h10M380 293h20M420 293h20M100 294h10M250 294h10M300 294h10M320 294h10M350 294h10M380 294h20M420 294h20M100 295h10M250 295h10M300 295h10M320 295h10M350 295h10M380 295h20M420 295h20M100 296h10M250 296h10M300 296h10M320 296h10M350 296h10M380 296h20M420 296h20M100 297h10M250 297h10M300 297h10M320 297h10M350 297h10M380 297h20M420 297h20M100 298h10M250 298h10M300 298h10M320 298h10M350 298h10M380 298h20M420 298h20M100 299h10M250 299h10M300 299h10M320 299h10M350 299h10M380 299h20M420 299h20M100 300h2M103 300h7M130 300h20M200 300h10M250 300h10M100 301h10M130 301h20M200 301h10M250 301h10M100 302h10M130 302h20M200 302h10M250 302h10M100 303h10M130 303h20M200 303h10M250 303h10M100 304h10M130 304h20M200 304h10M250 304h5M256 304h4M100 305h10M130 305h20M200 305h10M250 305h10M100 306h10M130 306h20M200 306h10M250 306h10M100 307h10M130 307h20M200 307h10M250 307h10M100 308h10M130 308h20M200 308h10M250 308h10M100 309h10M130 309h20M200 309h10M250 309h10M100 310h10M120 310h10M200 310h10M250 310h10M100 311h10M120 311h10M200 311h10M250 311h10M100 312h10M120 312h10M200 312h10M250 312h10M100 313h10M120 313h10M200 313h10M250 313h10M100 314h10M120 314h10M200 314h10M250 314h10M100 315h10M120 315h10M200 315h10M250 315h10M100 316h10M120 316h10M200 316h10M250 316h10M100 317h10M120 317h10M200 317h10M250 317h10M100 318h10M120 318h10M200 318h10M250 318h10M100 319h10M120 319h10M200 319h10M250 319h10M100 320h10M120 320h10M200 320h10M250 320h10M100 321h10M120 321h10M200 321h10M250 321h10M100 322h10M120 322h10M200 322h10M250 322h10M100 323h10M120 323h10M200 323h10M250 323h10M100 324h10M120 324h10M200 324h10M250 324h10M100 325h10M120 325h10M200 325h10M250 325h10M100 326h10M120 326h10M200 326h10M250 326h10M100 327h10M120 327h10M200 327h10M250 327h10M100 328h10M120 328h10M200 328h10M250 328h10M100 329h10M120 329h10M200 329h10M250 329h10M100 330h10M120 330h10M200 330h10M250 330h10M100 331h10M120 331h10M200 331h10M250 331h10M100 332h10M120 332h10M200 332h10M250 332h10M100 333h10M120 333h10M200 333h10M250 333h10M100 334h10M120 334h10M200 334h10M250 334h10M100 335h10M120 335h10M200 335h10M250 335h10M100 336h10M120 336h10M200 336h10M250 336h10M100 337h10M120 337h10M200 337h10M250 337h10M100 338h10M120 338h10M200 338h10M250 338h10M100 339h10M120 339h10M200 339h10M250 339h10M100 340h10M130 340h10M210 340h10M250 340h10M100 341h10M130 341h10M210 341h10M250 341h10M100 342h10M130 342h10M210 342h10M250 342h10M100 343h10M130 343h10M210 343h10M250 343h10M100 344h10M130 344h10M210 344h10M250 344h10M100 345h10M130 345h10M210 345h10M250 345h10M100 346h10M130 346h10M210 346h10M250 346h10M100 347h10M130 347h10M210 347h6M217 347h3M250 347h10M100 348h10M130 348h10M210 348h10M250 348h10M100 349h10M130 349h10M210 349h9M250 349h10M100 350h10M140 350h10M190 350h20M250 350h10M100 351h10M140 351h10M190 351h20M250 351h10M100 352h10M140 352h10M190 352h20M250 352h10M100 353h10M140 353h10M190 353h20M250 353h10M100 354h10M140 354h10M190 354h20M250 354h10M100 355h10M140 355h10M190 355h20M250 355h10M100 356h10M140 356h10M190 356h20M250 356h10M100 357h10M140 357h10M190 357h20M250 357h10M100 358h10M140 358h10M190 358h20M250 358h10M100 359h10M140 359h10M190 359h7M198 359h12M250 359h10M100 360h10M140 360h10M210 360h20M250 360h10M100 361h10M140 361h10M210 361h20M250 361h10M100 362h10M140 362h10M210 362h20M250 362h10M100 363h10M140 363h10M210 363h20M250 363h10M100 364h10M140 364h10M210 364h20M250 364h10M100 365h10M140 365h5M146 365h4M210 365h20M250 365h10M100 366h10M140 366h10M210 366h20M250 366h10M100 367h10M140 367h10M210 367h20M250 367h10M100 368h10M140 368h10M210 368h20M250 368h10M100 369h10M140 369h10M210 369h20M250 369h10M100 370h10M120 370h10M140 370h10M250 370h10M100 371h10M120 371h10M140 371h10M250 371h10M100 372h10M120 372h10M140 372h10M250 372h10M100 373h10M120 373h10M140 373h10M250 373h10M100 374h10M120 374h10M140 374h10M250 374h10M100 375h10M120 375h10M140 375h10M250 375h10M100 376h10M120 376h10M140 376h10M250 376h10M100 377h10M120 377h10M140 377h10M250 377h10M100 378h10M120 378h10M140 378h10M250 378h10M100 379h10M120 379h10M140 379h10M250 379h10M110 380h10M130 380h20M240 380h10M110 381h10M130 381h20M240 381h10M110 382h10M130 382h20M240 382h10M110 383h10M130 383h20M240 383h10M110 384h10M130 384h20M240 384h10M110 385h10M130 385h20M240 385h10M110 386h10M130 386h20M240 386h10M110 387h10M130 387h20M240 387h10M110 388h10M130 388h20M240 388h10M110 389h10M130 389h20M240 389h10M140 390h10M160 390h10M200 390h10M240 390h10M300 390h10M140 391h10M160 391h10M200 391h10M240 391h10M300 391h10M140 392h10M160 392h10M200 392h10M240 392h10M300 392h10M140 393h10M160 393h10M200 393h10M240 393h10M300 393h10M140 394h10M160 394h10M200 394h10M240 394h10M300 394h10M140 395h10M160 395h10M200 395h10M240 395h10M300 395h10M140 396h10M160 396h10M200 396h10M240 396h10M300 396h10M140 397h10M160 397h10M200 397h10M240 397h10M300 397h10M140 398h10M160 398h10M200 398h10M240 398h10M300 398h10M140 399h10M160 399h10M200 399h10M240 399h10M300 399h10M110 400h40M170 400h10M200 400h10M230 400h70M110 401h40M170 401h10M200 401h10M230 401h70M110 402h40M170 402h10M200 402h10M230 402h70M110 403h40M170 403h10M200 403h10M230 403h70M110 404h40M170 404h10M200 404h10M230 404h5M236 404h64M110 405h40M170 405h10M200 405h10M230 405h70M110 406h40M170 406h10M200 406h10M230 406h70M110 407h40M170 407h10M200 407h10M230 407h70M110 408h40M170 408h10M200 408h10M230 408h57M288 408h12M110 409h40M170 409h10M200 409h10M230 409h70M100 410h10M180 410h50M320 410h10M100 411h10M180 411h50M320 411h10M100 412h10M180 412h50M320 412h10M100 413h10M180 413h50M320 413h10M100 414h10M180 414h50M320 414h10M100 415h10M180 415h50M320 415h10M100 416h10M180 416h50M320 416h10M100 417h10M180 417h50M320 417h10M100 418h10M180 418h50M320 418h10M100 419h10M180 419h50M320 419h10M90 420h10M300 420h20M90 421h10M300 421h20M90 422h10M300 422h12M313 422h7M90 423h10M300 423h20M90 424h10M300 424h20M90 425h10M300 425h20M90 426h10M300 426h20M90 427h10M300 427h20M90 428h10M300 428h20M90 429h10M300 429h20M90 430h10M130 430h10M240 430h60M90 431h10M130 431h10M240 431h60M90 432h10M130 432h10M240 432h60M90 433h10M130 433h10M240 433h60M90 434h10M130 434h10M240 434h60M90 435h10M130 435h10M240 435h60M90 436h10M130 436h10M240 436h60M90 437h10M130 437h10M240 437h60M90 438h10M130 438h10M240 438h60M90 439h10M130 439h10M240 439h60" />
<path stroke="#000001" d="M173 180h1M311 276h1M224 281h1M197 359h1M287 408h1" />
<path stroke="#c84e11" d="M160 190h40M160 191h40M160 192h40M160 193h40M160 194h31M192 194h8M160 195h40M160 196h40M160 197h40M160 198h40M160 199h40M160 200h50M160 201h50M160 202h50M160 203h50M160 204h50M160 205h50M160 206h37M198 206h12M160 207h50M160 208h50M160 209h50M150 210h70M150 211h23M174 211h46M150 212h70M150 213h70M150 214h70M150 215h70M150 216h70M150 217h70M150 218h70M150 219h70M140 220h90M140 221h90M140 222h90M140 223h90M140 224h90M140 225h19M160 225h70M140 226h90M140 227h90M140 228h90M140 229h90M130 230h110M130 231h110M130 232h110M130 233h110M130 234h110M130 235h110M130 236h110M130 237h110M130 238h110M130 239h110M120 240h130M120 241h130M120 242h28M149 242h101M120 243h130M120 244h130M120 245h130M120 246h130M120 247h130M120 248h130M120 249h130M120 260h10M140 260h10M160 260h10M180 260h10M200 260h10M220 260h10M240 260h10M120 261h10M140 261h10M160 261h10M180 261h10M200 261h10M220 261h10M240 261h10M120 262h10M140 262h10M160 262h10M180 262h10M200 262h10M220 262h10M240 262h10M120 263h10M140 263h10M160 263h10M180 263h10M200 263h10M220 263h10M240 263h10M120 264h10M140 264h10M160 264h10M180 264h10M200 264h10M220 264h10M240 264h10M120 265h10M140 265h10M161 265h9M180 265h10M200 265h10M220 265h10M240 265h10M120 266h10M140 266h10M160 266h10M180 266h10M200 266h10M220 266h10M240 266h10M120 267h10M140 267h10M160 267h10M180 267h10M200 267h10M220 267h10M240 267h10M120 268h10M140 268h10M160 268h10M180 268h10M200 268h10M220 268h10M240 268h10M120 269h10M140 269h10M160 269h10M180 269h10M200 269h10M220 269h10M240 269h10" />
<path stroke="#c84e10" d="M191 194h1M197 206h1M173 211h1" />
<path stroke="#c94e11" d="M159 225h1" />
<path stroke="#c84f11" d="M148 242h1M160 265h1" />
<path stroke="#92370b" d="M110 250h150M110 251h150M110 252h150M110 253h150M110 254h150M110 255h150M110 256h72M183 256h77M110 257h150M110 258h150M110 259h150M110 260h10M130 260h10M150 260h10M170 260h10M190 260h10M210 260h10M230 260h10M250 260h10M110 261h10M130 261h10M150 261h10M170 261h10M190 261h10M210 261h10M230 261h10M250 261h10M110 262h10M130 262h10M150 262h10M170 262h10M190 262h10M210 262h10M230 262h10M250 262h10M110 263h10M130 263h10M150 263h10M170 263h10M190 263h10M210 263h10M230 263h10M250 263h10M110 264h10M130 264h10M150 264h10M170 264h10M190 264h10M210 264h10M230 264h10M250 264h10M110 265h10M130 265h10M150 265h10M170 265h10M190 265h10M210 265h10M230 265h10M250 265h10M110 266h10M130 266h10M150 266h10M170 266h10M190 266h10M210 266h10M230 266h10M250 266h10M110 267h10M130 267h10M150 267h10M170 267h10M190 267h10M210 267h10M230 267h10M250 267h10M110 268h10M130 268h10M150 268h10M170 268h10M190 268h10M210 268h10M230 268h10M250 268h10M110 269h10M130 269h10M150 269h10M170 269h10M190 269h10M210 269h10M230 269h10M250 269h10" />
<path stroke="#fbf236" d="M290 250h160M290 251h160M290 252h160M290 253h19M310 253h140M290 254h76M367 254h83M290 255h86M377 255h73M290 256h160M290 257h160M290 258h160M290 259h160M290 260h10M310 260h10M330 260h20M360 260h20M400 260h20M430 260h20M290 261h10M310 261h10M330 261h20M360 261h20M400 261h20M430 261h20M290 262h10M310 262h10M330 262h20M360 262h20M400 262h20M430 262h20M290 263h10M310 263h10M330 263h20M360 263h20M400 263h20M430 263h20M290 264h10M310 264h10M330 264h20M360 264h20M400 264h20M430 264h20M290 265h10M310 265h10M330 265h20M360 265h20M400 265h20M430 265h20M290 266h10M310 266h10M330 266h20M360 266h20M400 266h20M430 266h20M290 267h10M310 267h10M330 267h20M360 267h20M400 267h20M430 267h20M290 268h10M310 268h10M330 268h20M360 268h20M400 268h20M430 268h20M290 269h10M310 269h10M330 269h20M360 269h20M400 269h20M430 269h20M290 270h10M330 270h10M350 270h10M370 270h10M390 270h10M410 270h10M430 270h20M290 271h10M330 271h10M350 271h10M370 271h10M390 271h10M410 271h10M430 271h20M290 272h10M330 272h10M350 272h10M370 272h10M390 272h10M410 272h10M430 272h20M290 273h10M330 273h10M350 273h10M370 273h10M390 273h10M410 273h10M430 273h20M290 274h10M330 274h10M350 274h10M370 274h10M390 274h10M410 274h10M430 274h20M290 275h10M330 275h10M350 275h10M370 275h10M390 275h10M410 275h10M430 275h20M290 276h10M330 276h10M350 276h10M370 276h10M390 276h10M410 276h10M430 276h20M290 277h10M330 277h10M350 277h10M370 277h10M390 277h10M410 277h10M430 277h20M290 278h10M330 278h10M350 278h10M370 278h10M390 278h10M410 278h10M430 278h20M290 279h10M330 279h10M350 279h10M370 279h10M390 279h10M410 279h10M430 279h20M290 280h10M310 280h10M330 280h10M350 280h10M370 280h10M390 280h10M410 280h10M430 280h20M290 281h10M310 281h10M330 281h10M350 281h10M370 281h10M390 281h10M410 281h10M430 281h20M290 282h10M310 282h10M330 282h10M350 282h10M370 282h10M390 282h10M410 282h10M430 282h20M290 283h2M293 283h7M310 283h10M330 283h10M350 283h10M370 283h10M390 283h10M410 283h10M430 283h20M290 284h10M310 284h10M330 284h10M350 284h10M370 284h10M390 284h10M410 284h10M430 284h20M290 285h10M310 285h10M330 285h10M350 285h10M370 285h10M390 285h10M410 285h10M430 285h20M290 286h10M310 286h10M330 286h10M350 286h10M370 286h10M390 286h10M410 286h10M430 286h20M290 287h10M310 287h10M330 287h10M350 287h10M370 287h10M390 287h10M410 287h10M430 287h20M290 288h10M310 288h10M330 288h10M350 288h10M370 288h10M390 288h10M410 288h10M430 288h20M290 289h10M310 289h10M330 289h10M350 289h10M370 289h10M390 289h10M410 289h10M430 289h20M290 290h10M310 290h10M330 290h20M360 290h20M400 290h20M440 290h10M290 291h10M310 291h10M330 291h20M360 291h20M400 291h20M440 291h10M290 292h10M310 292h10M330 292h20M360 292h20M400 292h20M440 292h10M290 293h10M310 293h10M330 293h20M360 293h20M400 293h20M440 293h10M290 294h10M310 294h10M330 294h20M360 294h20M400 294h20M440 294h8M449 294h1M290 295h10M310 295h10M330 295h20M360 295h20M400 295h20M440 295h10M290 296h10M310 296h10M330 296h20M360 296h20M400 296h20M440 296h10M290 297h10M310 297h10M330 297h20M360 297h20M400 297h20M440 297h10M290 298h10M310 298h10M330 298h20M360 298h20M401 298h19M440 298h10M290 299h10M310 299h10M330 299h20M360 299h20M400 299h20M440 299h10M290 300h160M290 301h160M290 302h160M290 303h160M290 304h160M290 305h160M290 306h160M290 307h160M290 308h160M290 309h160M310 310h10M310 311h10M310 312h10M310 313h10M310 314h10M310 315h10M310 316h10M310 317h10M310 318h10M310 319h10M310 320h10M310 321h10M310 322h10M310 323h10M310 324h10M310 325h10M310 326h10M310 327h10M310 328h10M310 329h10M130 330h10M310 330h10M130 331h10M310 331h10M130 332h10M310 332h10M130 333h10M310 333h10M130 334h10M310 334h10M130 335h10M310 335h10M130 336h10M310 336h10M130 337h10M310 337h10M130 338h10M310 338h10M130 339h10M310 339h10M310 340h10M310 341h10M310 342h10M310 343h10M310 344h10M310 345h10M310 346h10M310 347h10M310 348h10M310 349h10M310 350h10M310 351h10M310 352h10M310 353h10M310 354h10M310 355h10M310 356h10M310 357h10M310 358h10M310 359h10M310 360h10M310 361h10M310 362h8M319 362h1M310 363h10M310 364h10M310 365h10M310 366h10M310 367h10M310 368h10M310 369h10M310 370h10M310 371h10M310 372h10M310 373h10M310 374h10M310 375h10M310 376h10M310 377h10M310 378h10M310 379h10M310 380h10M310 381h10M310 382h10M310 383h10M310 384h10M310 385h10M310 386h10M310 387h10M310 388h10M310 389h10M310 390h10M310 391h10M310 392h10M310 393h10M310 394h10M310 395h10M310 396h10M310 397h10M310 398h10M310 399h10M310 400h10M310 401h10M310 402h10M310 403h10M310 404h10M310 405h10M310 406h10M310 407h10M310 408h10M310 409h10" />
<path stroke="#faf236" d="M309 253h1M366 254h1M318 362h1" />
<path stroke="#fbf336" d="M376 255h1M292 283h1M448 294h1M400 298h1" />
<path stroke="#92370a" d="M182 256h1" />
<path stroke="#f0e2b6" d="M120 270h40M120 271h40M120 272h40M120 273h40M120 274h40M120 275h40M120 276h40M120 277h40M120 278h40M120 279h40M110 280h50M110 281h50M110 282h50M110 283h50M110 284h50M110 285h50M110 286h50M110 287h50M110 288h50M110 289h50M110 290h50M110 291h50M110 292h50M110 293h50M110 294h8M119 294h41M110 295h50M110 296h49M110 297h50M110 298h50M110 299h50M110 300h20M150 300h10M110 301h20M150 301h10M110 302h20M150 302h10M110 303h20M150 303h10M110 304h20M150 304h10M110 305h20M150 305h10M110 306h20M150 306h10M110 307h20M150 307h10M110 308h20M150 308h10M110 309h20M150 309h10M110 310h10M150 310h10M110 311h10M150 311h10M110 312h10M150 312h10M110 313h10M150 313h10M110 314h10M150 314h10M110 315h10M150 315h10M110 316h10M150 316h10M110 317h10M150 317h10M110 318h10M150 318h10M110 319h10M150 319h10M110 320h10M150 320h10M110 321h10M150 321h10M110 322h10M150 322h10M110 323h10M150 323h10M110 324h10M150 324h10M110 325h10M150 325h10M110 326h10M150 326h10M110 327h10M150 327h10M110 328h10M150 328h10M110 329h10M150 329h10M110 330h10M110 331h10M110 332h10M110 333h10M110 334h10M110 335h10M110 336h10M110 337h10M110 338h10M110 339h10M110 340h20M110 341h20M110 342h20M110 343h20M110 344h20M110 345h20M110 346h18M129 346h1M110 347h20M110 348h20M110 349h20M110 350h30M110 351h30M110 352h30M110 353h30M110 354h30M110 355h30M110 356h30M110 357h30M110 358h30M110 359h30M110 360h30M110 361h30M110 362h30M110 363h30M110 364h30M110 365h30M110 366h30M110 367h30M110 368h30M110 369h30M110 370h10M130 370h10M110 371h5M116 371h4M130 371h10M110 372h10M130 372h10M110 373h10M130 373h10M110 374h10M130 374h3M134 374h6M110 375h10M130 375h10M110 376h10M130 376h10M110 377h10M130 377h10M110 378h10M130 378h10M110 379h10M130 379h10" />
<path stroke="#eec39a" d="M160 270h90M160 271h90M160 272h90M160 273h90M160 274h90M160 275h90M160 276h90M160 277h58M219 277h31M160 278h90M160 279h90M160 280h10M200 280h10M240 280h10M160 281h10M200 281h10M240 281h10M160 282h10M200 282h10M240 282h10M160 283h10M200 283h10M240 283h10M160 284h10M200 284h10M240 284h10M160 285h10M200 285h10M240 285h10M160 286h10M200 286h10M240 286h10M160 287h10M200 287h10M240 287h10M160 288h10M200 288h10M240 288h10M160 289h10M200 289h10M240 289h10M160 290h90M160 291h90M160 292h90M160 293h90M160 294h90M160 295h64M225 295h25M160 296h90M160 297h90M160 298h90M160 299h90M160 300h10M190 300h10M210 300h10M240 300h10M160 301h10M190 301h10M210 301h10M240 301h10M160 302h10M190 302h10M210 302h10M240 302h10M160 303h10M190 303h10M210 303h10M240 303h10M160 304h10M190 304h10M210 304h10M240 304h10M160 305h10M190 305h10M210 305h10M240 305h10M160 306h10M190 306h10M210 306h10M240 306h10M160 307h10M190 307h10M210 307h10M240 307h10M160 308h4M165 308h5M190 308h10M210 308h10M240 308h10M160 309h10M190 309h10M210 309h10M240 309h10M130 310h20M160 310h10M190 310h10M210 310h10M240 310h10M130 311h20M160 311h10M190 311h10M210 311h10M240 311h10M130 312h20M160 312h10M190 312h10M210 312h10M240 312h10M130 313h20M160 313h10M190 313h10M210 313h10M240 313h10M130 314h20M160 314h10M190 314h10M210 314h10M240 314h10M130 315h20M160 315h10M190 315h10M210 315h10M240 315h10M130 316h20M160 316h10M190 316h10M210 316h10M240 316h10M130 317h20M160 317h10M190 317h10M210 317h10M240 317h10M130 318h20M160 318h10M190 318h10M210 318h10M240 318h5M246 318h4M130 319h20M160 319h10M190 319h10M210 319h10M240 319h10M130 320h20M160 320h40M210 320h40M130 321h20M160 321h40M210 321h40M130 322h20M160 322h40M210 322h40M130 323h20M160 323h40M210 323h40M130 324h20M160 324h40M210 324h40M130 325h20M160 325h40M210 325h40M130 326h20M160 326h31M192 326h8M210 326h40M130 327h20M160 327h40M210 327h40M130 328h20M160 328h40M210 328h40M130 329h20M160 329h40M210 329h40M140 330h60M210 330h40M140 331h60M210 331h40M140 332h60M210 332h40M140 333h60M210 333h40M140 334h60M210 334h40M140 335h60M210 335h40M140 336h60M210 336h40M140 337h48M189 337h11M210 337h40M140 338h60M210 338h40M140 339h60M210 339h40M150 340h60M220 340h30M150 341h60M220 341h30M150 342h60M220 342h30M150 343h60M220 343h30M150 344h60M220 344h30M150 345h60M220 345h30M150 346h60M220 346h30M150 347h60M220 347h30M150 348h60M220 348h30M150 349h60M220 349h30M150 350h40M210 350h40M150 351h40M210 351h40M150 352h40M210 352h40M150 353h40M210 353h40M150 354h19M170 354h20M210 354h40M150 355h40M210 355h40M150 356h40M210 356h40M150 357h40M210 357h40M150 358h40M210 358h40M150 359h40M210 359h40M150 360h60M230 360h20M150 361h60M230 361h20M150 362h60M230 362h20M150 363h60M230 363h20M150 364h60M230 364h20M150 365h60M230 365h20M150 366h60M230 366h20M150 367h33M184 367h26M230 367h20M150 368h60M230 368h20M150 369h60M230 369h20M150 370h100M150 371h100M150 372h100M150 373h100M150 374h100M150 375h100M150 376h100M150 377h100M150 378h100M150 379h100M150 380h90M150 381h90M150 382h90M150 383h90M150 384h90M150 385h90M150 386h90M150 387h90M150 388h90M150 389h50M201 389h39M150 390h10M170 390h24M195 390h5M210 390h30M150 391h10M170 391h30M210 391h14M225 391h15M150 392h10M170 392h30M210 392h30M150 393h10M170 393h30M210 393h30M150 394h10M170 394h30M210 394h30M150 395h10M170 395h30M210 395h1M212 395h28M150 396h10M170 396h30M210 396h30M150 397h10M170 397h30M210 397h30M150 398h10M170 398h30M210 398h30M150 399h10M170 399h30M210 399h30M150 400h20M180 400h20M210 400h20M300 400h10M150 401h20M180 401h20M210 401h20M300 401h10M150 402h20M180 402h20M210 402h20M300 402h10M150 403h20M180 403h20M210 403h20M300 403h10M150 404h20M180 404h20M210 404h20M300 404h10M150 405h20M180 405h20M210 405h20M300 405h10M150 406h20M180 406h20M210 406h20M300 406h10M150 407h20M180 407h20M210 407h20M300 407h10M150 408h20M180 408h20M210 408h20M300 408h10M150 409h20M180 409h20M210 409h20M300 409h10M300 410h20M300 411h20M300 412h20M300 413h20M300 414h20M300 415h20M300 416h20M300 417h20M300 418h20M300 419h20" />
<path stroke="#010000" d="M363 274h1M315 277h1M108 280h1M102 300h1M255 304h1M216 347h1M219 349h1M312 422h1" />
<path stroke="#000100" d="M250 275h1M316 275h1M328 289h1M145 365h1M235 404h1" />
<path stroke="#eec39b" d="M218 277h1M224 295h1M164 308h1M245 318h1M191 326h1M188 337h1M200 389h1M194 390h1M224 391h1" />
<path stroke="#f0e3b6" d="M118 294h1M115 371h1M133 374h1" />
<path stroke="#f1e2b6" d="M159 296h1" />
<path stroke="#ff0000" d="M170 300h20M220 300h20M170 301h20M220 301h20M170 302h20M220 302h20M170 303h20M220 303h20M170 304h20M220 304h20M170 305h20M220 305h20M170 306h20M220 306h20M170 307h20M220 307h20M170 308h20M220 308h20M170 309h20M220 309h20M170 310h20M220 310h20M170 311h20M220 311h5M226 311h14M170 312h20M220 312h20M170 313h20M220 313h20M170 314h20M220 314h20M170 315h20M220 315h20M170 316h20M220 316h20M170 317h20M220 317h20M170 318h20M220 318h20M170 319h20M220 319h20" />
<path stroke="#fe0000" d="M225 311h1" />
<path stroke="#16171a" d="M140 340h10M140 341h10M140 342h10M140 343h10M140 344h10M140 345h10M140 346h10M140 347h10M140 348h10M140 349h10" />
<path stroke="#f0e2b7" d="M128 346h1" />
<path stroke="#eec29a" d="M169 354h1M211 395h1" />
<path stroke="#efc39a" d="M183 367h1" />
<path stroke="#305182" d="M110 410h70M230 410h70M110 411h70M230 411h70M110 412h70M230 412h70M110 413h70M230 413h70M110 414h70M230 414h70M110 415h70M230 415h70M110 416h70M230 416h70M110 417h70M230 417h70M110 418h70M230 418h70M110 419h70M230 419h70M100 420h200M100 421h200M100 422h200M100 423h185M286 423h14M100 424h200M100 425h200M100 426h200M100 427h200M100 428h200M100 429h200M100 430h30M140 430h100M100 431h30M140 431h100M100 432h30M140 432h100M100 433h30M140 433h100M100 434h30M140 434h100M100 435h30M140 435h100M100 436h30M140 436h100M100 437h30M140 437h100M100 438h30M140 438h100M100 439h30M140 439h84M225 439h15" />
<path stroke="#315182" d="M285 423h1" />
<path stroke="#305183" d="M224 439h1" />
</svg>