<svg xmlns="http://www.w3.org/2000/svg" viewBox="0 -0.5 480 480" shape-rendering="crispEdges">
<metadata>Made with Pixels to Svg https://codepen.io/shshaw/pen/XbxvNj</metadata>
<path stroke="#000000" d="M220 180h30M220 181h30M220 182h30M220 183h30M220 184h30M220 185h30M220 186h30M220 187h30M220 188h30M220 189h30M210 190h50M210 191h50M210 192h50M210 193h50M210 194h50M210 195h50M210 196h50M210 197h50M210 198h35M246 198h14M210 199h50M210 200h50M210 201h50M210 202h50M210 203h50M210 204h50M210 205h50M210 206h50M210 207h23M234 207h26M210 208h50M210 209h50M190 220h90M190 221h90M190 222h90M190 223h90M190 224h90M190 225h90M190 226h90M190 227h9M200 227h80M190 228h90M190 229h90M180 230h110M180 231h110M180 232h110M180 233h110M180 234h110M180 235h110M180 236h110M180 237h110M180 238h110M180 239h110M180 240h30M260 240h30M180 241h30M260 241h30M180 242h30M260 242h30M180 243h30M260 243h30M180 244h16M197 244h13M260 244h30M180 245h30M260 245h30M180 246h30M260 246h30M180 247h30M260 247h30M180 248h30M260 248h30M180 249h30M260 249h30M170 250h30M270 250h30M170 251h30M270 251h30M170 252h30M270 252h30M170 253h30M270 253h30M170 254h30M270 254h30M170 255h30M270 255h30M170 256h30M270 256h30M170 257h30M270 257h30M170 258h30M270 258h30M170 259h30M270 259h30M170 260h30M210 260h10M250 260h10M270 260h30M170 261h30M210 261h10M250 261h10M270 261h30M170 262h30M210 262h10M250 262h10M270 262h30M170 263h30M210 263h10M250 263h10M270 263h30M170 264h30M210 264h10M250 264h10M270 264h30M170 265h30M210 265h10M250 265h10M270 265h30M170 266h30M210 266h10M250 266h10M270 266h2M273 266h27M170 267h30M210 267h10M250 267h10M270 267h30M170 268h30M210 268h10M250 268h10M270 268h30M170 269h30M210 269h10M250 269h10M270 269h30M170 270h20M220 270h10M240 270h10M280 270h20M170 271h20M220 271h10M240 271h10M280 271h20M170 272h20M220 272h10M240 272h10M280 272h20M170 273h20M220 273h10M240 273h4M245 273h5M280 273h20M170 274h20M220 274h10M240 274h10M280 274h20M170 275h20M220 275h10M240 275h10M280 275h20M170 276h20M220 276h10M240 276h10M280 276h20M170 277h20M220 277h10M240 277h10M280 277h20M170 278h20M220 278h10M240 278h10M280 278h20M170 279h20M220 279h10M240 279h10M280 279h20M170 280h20M280 280h20M170 281h20M280 281h20M170 282h20M280 282h20M170 283h20M280 283h20M170 284h20M280 284h20M170 285h7M178 285h12M280 285h20M170 286h20M280 286h20M170 287h20M280 287h20M170 288h20M280 288h20M170 289h20M280 289h20M160 290h10M180 290h10M210 290h20M240 290h20M280 290h10M300 290h10M160 291h10M180 291h10M210 291h20M240 291h20M280 291h10M300 291h10M160 292h10M180 292h10M210 292h20M240 292h20M280 292h10M300 292h10M160 293h10M180 293h10M210 293h20M240 293h20M280 293h10M300 293h10M160 294h10M180 294h10M210 294h20M240 294h20M280 294h10M300 294h10M160 295h10M180 295h10M210 295h20M240 295h20M280 295h10M300 295h10M160 296h10M180 296h10M210 296h20M240 296h20M280 296h10M300 296h10M160 297h10M180 297h10M210 297h20M240 297h20M280 297h10M300 297h10M160 298h10M180 298h10M210 298h20M240 298h20M280 298h10M300 298h10M160 299h10M180 299h10M210 299h20M240 299h20M280 299h10M300 299h10M160 300h10M180 300h10M220 300h10M280 300h10M300 300h10M160 301h10M180 301h10M220 301h10M280 301h10M300 301h10M160 302h10M180 302h10M220 302h10M280 302h10M300 302h10M160 303h10M180 303h10M220 303h10M280 303h10M300 303h10M160 304h10M180 304h10M220 304h10M280 304h10M300 304h10M160 305h10M180 305h10M220 305h10M280 305h10M300 305h10M160 306h10M180 306h10M220 306h10M280 306h10M300 306h10M160 307h10M180 307h10M220 307h10M280 307h10M300 307h10M160 308h10M180 308h10M220 308h10M280 308h10M300 308h10M160 309h8M169 309h1M180 309h10M220 309h10M280 309h10M300 309h10M170 310h10M220 310h10M290 310h2M293 310h7M170 311h10M220 311h10M290 311h10M170 312h10M220 312h10M290 312h10M170 313h10M220 313h10M291 313h9M170 314h10M220 314h10M290 314h10M170 315h10M220 315h10M290 315h10M170 316h10M220 316h10M290 316h10M170 317h10M220 317h10M290 317h10M170 318h6M177 318h3M220 318h10M290 318h10M170 319h10M220 319h10M290 319h10M170 320h10M220 320h10M240 320h10M290 320h10M170 321h10M220 321h3M224 321h6M240 321h10M290 321h10M170 322h10M220 322h10M240 322h10M290 322h10M170 323h10M220 323h10M240 323h10M290 323h10M170 324h10M220 324h10M240 324h10M290 324h10M170 325h10M220 325h10M240 325h10M290 325h10M170 326h10M220 326h10M240 326h10M290 326h10M170 327h10M220 327h10M240 327h10M290 327h10M170 328h10M220 328h10M240 328h10M290 328h10M170 329h10M220 329h10M240 329h10M290 329h10M170 330h10M200 330h10M230 330h10M290 330h10M170 331h10M200 331h10M230 331h10M290 331h10M170 332h10M200 332h10M230 332h10M290 332h10M170 333h10M200 333h10M230 333h10M290 333h10M170 334h10M200 334h10M230 334h10M290 334h10M170 335h10M200 335h10M230 335h10M290 335h10M170 336h10M200 336h10M230 336h10M290 336h10M170 337h10M200 337h10M230 337h10M290 337h10M170 338h10M200 338h10M230 338h10M290 338h10M170 339h10M200 339h10M230 339h10M290 339h10M170 340h10M290 340h10M170 341h10M290 341h10M170 342h10M290 342h10M170 343h10M290 343h10M170 344h10M290 344h10M170 345h10M290 345h10M170 346h10M290 346h10M170 347h10M290 347h10M170 348h10M290 348h10M170 349h10M290 349h10M180 350h10M280 350h10M180 351h10M280 351h10M180 352h10M280 352h10M180 353h10M280 353h10M180 354h10M280 354h10M180 355h10M280 355h10M180 356h10M280 356h10M180 357h10M280 357h10M180 358h10M280 358h10M180 359h10M280 359h10M190 360h20M260 360h20M190 361h20M260 361h20M190 362h20M260 362h20M190 363h20M260 363h20M190 364h20M260 364h20M190 365h20M260 365h20M190 366h20M260 366h20M190 367h20M260 367h20M190 368h20M260 368h20M190 369h20M260 369h20M180 370h30M260 370h30M180 371h30M260 371h30M180 372h30M260 372h30M180 373h30M260 373h30M180 374h30M260 374h30M180 375h30M260 375h30M180 376h30M260 376h30M180 377h30M260 377h30M180 378h30M260 378h30M180 379h30M260 379h30M160 380h60M250 380h60M160 381h60M250 381h60M160 382h60M250 382h60M160 383h60M250 383h60M160 384h60M250 384h60M160 385h60M250 385h60M160 386h60M250 386h60M160 387h60M250 387h60M160 388h60M250 388h60M160 389h60M250 389h32M283 389h27M150 390h80M240 390h80M150 391h80M240 391h80M150 392h80M240 392h80M150 393h80M240 393h80M150 394h45M196 394h34M240 394h80M150 395h21M172 395h13M186 395h44M240 395h80M150 396h80M240 396h80M150 397h80M240 397h80M150 398h80M240 398h80M150 399h80M240 399h80M140 400h190M140 401h190M140 402h190M140 403h108M249 403h81M140 404h190M140 405h34M175 405h113M289 405h41M140 406h190M140 407h190M140 408h190M140 409h190M140 410h190M140 411h190M140 412h190M140 413h190M140 414h190M140 415h190M140 416h115M256 416h74M140 417h190M140 418h190M140 419h190M140 420h190M140 421h36M177 421h153M140 422h190M140 423h20M161 423h169M140 424h190M140 425h190M140 426h190M140 427h190M140 428h190M140 429h190" />
<path stroke="#000001" d="M245 198h1M233 207h1M272 266h1M290 313h1M176 318h1M185 395h1M248 403h1M176 421h1" />
<path stroke="#993399" d="M210 210h50M210 211h50M210 212h50M210 213h50M210 214h50M210 215h40M251 215h9M210 216h50M210 217h50M210 218h50M210 219h50" />
<path stroke="#993299" d="M250 215h1" />
<path stroke="#000100" d="M199 227h1M196 244h1M244 273h1M292 310h1M223 321h1M160 423h1" />
<path stroke="#713f1e" d="M210 240h50M210 241h50M210 242h50M210 243h50M210 244h50M210 245h50M210 246h50M210 247h50M210 248h50M210 249h50M200 250h70M200 251h70M200 252h70M200 253h70M200 254h59M260 254h10M200 255h70M200 256h70M200 257h70M200 258h70M200 259h70M200 260h10M220 260h30M260 260h10M200 261h10M220 261h30M260 261h10M200 262h10M220 262h30M260 262h10M200 263h10M220 263h30M260 263h10M200 264h10M220 264h30M260 264h10M200 265h8M209 265h1M220 265h30M260 265h10M200 266h10M220 266h30M260 266h10M200 267h10M220 267h30M260 267h10M200 268h10M220 268h30M260 268h10M200 269h10M220 269h30M260 269h10M190 270h30M230 270h10M250 270h30M190 271h30M230 271h10M250 271h8M259 271h21M190 272h30M230 272h10M250 272h30M190 273h30M230 273h10M250 273h30M190 274h30M230 274h10M250 274h30M190 275h30M230 275h10M250 275h30M190 276h30M230 276h10M250 276h30M190 277h30M230 277h10M250 277h30M190 278h30M230 278h10M250 278h30M190 279h30M230 279h10M250 279h30M190 280h90M190 281h90M190 282h90M190 283h90M190 284h90M190 285h90M190 286h90M190 287h90M190 288h90M190 289h90M170 290h10M190 290h20M230 290h10M260 290h20M290 290h10M170 291h10M190 291h20M230 291h10M260 291h20M290 291h10M170 292h10M190 292h20M230 292h10M260 292h20M290 292h10M170 293h10M190 293h20M230 293h10M260 293h20M290 293h10M170 294h10M190 294h20M230 294h10M260 294h20M290 294h10M170 295h10M190 295h20M230 295h10M260 295h20M290 295h10M170 296h10M190 296h20M230 296h10M260 296h20M290 296h10M170 297h10M190 297h20M230 297h10M260 297h20M290 297h10M170 298h10M190 298h20M230 298h10M260 298h20M290 298h10M170 299h10M190 299h20M230 299h10M260 299h20M290 299h10M190 300h30M230 300h50M190 301h30M230 301h50M190 302h30M230 302h50M190 303h30M230 303h50M190 304h30M230 304h50M190 305h30M230 305h50M190 306h30M230 306h50M190 307h30M230 307h50M190 308h30M230 308h50M190 309h30M230 309h50M180 310h40M230 310h60M180 311h40M230 311h5M236 311h54M180 312h40M230 312h60M180 313h40M230 313h60M180 314h40M230 314h60M180 315h40M230 315h60M180 316h40M230 316h60M180 317h40M230 317h60M180 318h40M230 318h60M180 319h40M230 319h60M180 320h40M230 320h10M250 320h40M180 321h40M230 321h4M235 321h5M250 321h40M180 322h40M230 322h10M250 322h40M180 323h40M230 323h10M250 323h40M180 324h40M230 324h10M250 324h40M180 325h40M230 325h10M250 325h40M180 326h40M230 326h10M250 326h40M180 327h40M230 327h10M250 327h40M180 328h40M230 328h10M250 328h40M180 329h40M230 329h10M250 329h40M180 330h20M210 330h20M240 330h50M180 331h20M210 331h20M240 331h50M180 332h20M210 332h20M240 332h50M180 333h20M210 333h20M240 333h50M180 334h20M210 334h20M240 334h50M180 335h20M210 335h20M240 335h1M242 335h48M180 336h20M210 336h20M240 336h50M180 337h20M210 337h20M240 337h50M180 338h20M210 338h20M240 338h50M180 339h20M210 339h20M240 339h50M180 340h40M250 340h40M180 341h40M250 341h40M180 342h40M250 342h40M180 343h40M250 343h40M180 344h40M250 344h40M180 345h40M250 345h40M180 346h40M250 346h40M180 347h40M250 347h40M180 348h40M250 348h40M180 349h40M250 349h40M190 350h90M190 351h90M190 352h90M190 353h90M190 354h90M190 355h90M190 356h90M190 357h90M190 358h90M190 359h90M210 360h50M210 361h50M210 362h50M210 363h50M210 364h50M210 365h50M210 366h50M210 367h50M210 368h50M210 369h50M220 370h30M220 371h30M220 372h30M220 373h30M220 374h30M220 375h30M220 376h30M220 377h30M220 378h30M220 379h30M230 380h10M230 381h10M230 382h10M230 383h10M230 384h10M230 385h10M230 386h10M230 387h10M230 388h10M230 389h10" />
<path stroke="#713e1e" d="M259 254h1M208 265h1M235 311h1M241 335h1" />
<path stroke="#703f1e" d="M258 271h1M234 321h1" />
<path stroke="#010000" d="M177 285h1M168 309h1M282 389h1M195 394h1M171 395h1M174 405h1M288 405h1M255 416h1" />
<path stroke="#ffffff" d="M170 300h10M290 300h10M170 301h10M290 301h10M170 302h10M290 302h10M170 303h10M290 303h10M170 304h10M290 304h10M170 305h10M290 305h10M170 306h10M290 306h10M170 307h10M290 307h10M170 308h10M290 308h10M170 309h10M290 309h10M210 370h10M250 370h10M210 371h10M250 371h10M210 372h10M250 372h10M210 373h10M250 373h10M210 374h10M250 374h10M210 375h10M250 375h10M210 376h10M250 376h10M210 377h10M250 377h10M210 378h10M250 378h9M210 379h10M250 379h10M220 380h10M240 380h10M220 381h10M240 381h3M244 381h6M220 382h10M240 382h10M220 383h10M240 383h10M220 384h10M240 384h10M220 385h10M240 385h10M220 386h10M240 386h10M220 387h4M225 387h5M240 387h10M220 388h10M240 388h10M220 389h10M240 389h10M230 390h10M230 391h10M230 392h10M230 393h10M230 394h10M230 395h10M230 396h10M230 397h10M230 398h10M230 399h10" />
<path stroke="#0e3f0f" d="M220 340h30M220 341h30M220 342h30M220 343h30M220 344h30M220 345h30M220 346h30M220 347h30M220 348h30M220 349h30" />
<path stroke="#fffeff" d="M259 378h1" />
<path stroke="#feffff" d="M243 381h1" />
<path stroke="#fffffe" d="M224 387h1" />
</svg>