<svg xmlns="http://www.w3.org/2000/svg" viewBox="0 -0.5 480 480" shape-rendering="crispEdges">
<metadata>Made with Pixels to Svg https://codepen.io/shshaw/pen/XbxvNj</metadata>
<path stroke="#000000" d="M180 210h120M180 211h120M180 212h120M180 213h120M180 214h120M180 215h120M180 216h120M180 217h120M180 218h120M180 219h120M160 220h170M160 221h170M160 222h2M163 222h167M160 223h166M327 223h3M160 224h170M160 225h170M160 226h170M160 227h170M160 228h158M319 228h11M160 229h170M150 230h190M150 231h190M150 232h190M150 233h190M150 234h190M150 235h190M150 236h190M150 237h190M150 238h148M299 238h41M150 239h190M140 240h210M140 241h210M140 242h210M140 243h210M140 244h200M341 244h9M140 245h210M140 246h210M140 247h210M140 248h55M196 248h154M140 249h26M167 249h183M140 250h70M280 250h70M140 251h70M280 251h70M140 252h70M280 252h70M140 253h70M280 253h70M140 254h70M280 254h70M140 255h70M280 255h70M140 256h70M280 256h70M140 257h70M280 257h70M140 258h70M280 258h70M140 259h70M280 259h70M130 260h70M210 260h30M250 260h30M290 260h70M130 261h70M210 261h30M250 261h30M290 261h70M130 262h70M210 262h7M218 262h22M250 262h30M290 262h70M130 263h70M210 263h30M250 263h30M290 263h3M294 263h66M130 264h47M178 264h22M210 264h30M250 264h30M290 264h70M130 265h70M210 265h30M250 265h30M290 265h70M130 266h16M147 266h53M210 266h30M250 266h30M290 266h70M130 267h70M210 267h30M250 267h30M290 267h70M130 268h70M210 268h30M250 268h30M290 268h70M130 269h70M210 269h30M250 269h30M290 269h70M130 270h70M290 270h80M130 271h70M290 271h80M130 272h70M290 272h80M130 273h70M290 273h80M130 274h70M290 274h25M316 274h54M130 275h70M290 275h80M130 276h43M174 276h26M290 276h80M130 277h70M290 277h41M332 277h38M130 278h70M290 278h80M130 279h70M290 279h80M120 280h80M210 280h20M260 280h20M290 280h80M120 281h80M210 281h20M260 281h20M290 281h80M120 282h47M168 282h32M210 282h20M260 282h20M290 282h80M120 283h80M210 283h20M260 283h20M290 283h10M301 283h69M120 284h80M210 284h20M260 284h20M290 284h80M120 285h80M210 285h20M260 285h20M290 285h39M330 285h40M120 286h80M210 286h20M260 286h20M290 286h80M120 287h80M210 287h20M260 287h20M290 287h80M120 288h80M210 288h20M260 288h20M290 288h80M120 289h80M210 289h20M260 289h20M290 289h80M120 290h6M127 290h69M197 290h3M250 290h10M290 290h80M120 291h20M141 291h31M173 291h27M250 291h10M290 291h80M120 292h80M250 292h10M290 292h80M120 293h80M250 293h10M290 293h80M120 294h80M250 294h10M290 294h80M120 295h80M250 295h10M290 295h80M120 296h80M250 296h10M290 296h80M120 297h80M250 297h10M290 297h80M120 298h80M250 298h10M290 298h80M120 299h80M250 299h10M290 299h80M120 300h70M250 300h10M300 300h70M120 301h70M250 301h5M256 301h4M300 301h70M120 302h70M250 302h10M300 302h70M120 303h70M250 303h10M300 303h70M120 304h70M250 304h10M300 304h70M120 305h70M250 305h7M258 305h2M300 305h70M120 306h13M134 306h56M250 306h10M300 306h70M120 307h70M250 307h10M300 307h70M120 308h70M250 308h10M300 308h70M120 309h70M250 309h10M300 309h70M120 310h70M250 310h10M300 310h70M120 311h70M250 311h10M300 311h70M120 312h70M250 312h10M300 312h70M120 313h70M250 313h10M300 313h70M120 314h70M250 314h10M300 314h70M120 315h70M250 315h10M300 315h70M120 316h70M250 316h10M300 316h70M120 317h70M250 317h10M300 317h38M339 317h31M120 318h70M250 318h10M300 318h70M120 319h70M250 319h10M300 319h70M130 320h60M191 320h9M230 320h10M260 320h10M290 320h70M130 321h70M230 321h10M260 321h10M290 321h70M130 322h70M230 322h10M260 322h10M290 322h70M130 323h70M230 323h10M260 323h10M290 323h70M130 324h70M230 324h10M260 324h10M290 324h70M130 325h70M230 325h10M260 325h10M290 325h70M130 326h70M230 326h10M260 326h10M290 326h70M130 327h70M230 327h10M260 327h10M290 327h70M130 328h70M230 328h10M260 328h10M290 328h70M130 329h70M230 329h10M260 329h10M290 329h70M130 330h70M240 330h20M290 330h70M130 331h70M240 331h20M290 331h70M130 332h70M240 332h20M290 332h70M130 333h40M171 333h29M240 333h20M290 333h70M130 334h70M240 334h20M290 334h70M130 335h70M240 335h20M290 335h39M330 335h30M130 336h5M136 336h64M240 336h20M290 336h70M130 337h70M240 337h20M290 337h70M130 338h70M240 338h20M290 338h70M130 339h70M240 339h20M290 339h70M130 340h7M138 340h62M290 340h70M130 341h70M290 341h63M354 341h6M130 342h70M290 342h70M130 343h19M150 343h50M290 343h70M130 344h70M290 344h70M130 345h70M290 345h70M130 346h70M290 346h70M130 347h70M290 347h70M130 348h70M290 348h70M130 349h70M290 349h70M140 350h70M280 350h70M140 351h70M280 351h70M140 352h70M280 352h70M140 353h70M280 353h64M345 353h5M140 354h70M280 354h70M140 355h70M280 355h70M140 356h70M280 356h70M140 357h70M280 357h70M140 358h37M178 358h32M280 358h70M140 359h70M280 359h70M140 360h10M160 360h60M270 360h60M340 360h10M140 361h10M160 361h60M270 361h60M340 361h10M140 362h10M160 362h60M270 362h60M340 362h10M140 363h10M160 363h60M270 363h60M340 363h10M140 364h10M160 364h60M270 364h60M340 364h10M140 365h10M160 365h60M270 365h60M340 365h10M140 366h10M160 366h60M270 366h3M274 366h56M340 366h10M140 367h10M160 367h60M270 367h60M340 367h10M140 368h10M160 368h29M190 368h30M270 368h2M273 368h57M340 368h10M140 369h10M160 369h60M270 369h60M340 369h10M160 370h80M250 370h80M160 371h42M203 371h37M250 371h80M160 372h80M250 372h80M160 373h80M250 373h80M160 374h80M250 374h80M160 375h80M250 375h80M160 376h80M250 376h80M160 377h80M250 377h80M160 378h80M250 378h8M259 378h71M160 379h80M250 379h80M170 380h50M270 380h50M170 381h50M270 381h50M170 382h50M270 382h50M170 383h50M270 383h50M170 384h50M270 384h50M170 385h50M270 385h50M170 386h50M270 386h50M170 387h50M270 387h50M170 388h50M270 388h50M170 389h50M270 389h50M180 390h10M200 390h10M280 390h10M300 390h10M180 391h10M200 391h10M280 391h10M300 391h10M180 392h10M200 392h10M280 392h10M300 392h10M180 393h10M200 393h10M280 393h10M300 393h10M180 394h10M200 394h10M280 394h10M300 394h10M180 395h10M200 395h10M280 395h10M300 395h10M180 396h10M200 396h10M280 396h10M300 396h10M180 397h10M200 397h10M280 397h10M300 397h10M180 398h10M200 398h10M280 398h10M300 398h10M180 399h10M200 399h10M280 399h10M300 399h10M200 400h10M280 400h10M200 401h10M280 401h10M200 402h10M280 402h10M200 403h10M280 403h10M200 404h10M280 404h10M200 405h10M280 405h10M200 406h10M280 406h10M200 407h10M280 407h10M200 408h10M280 408h10M200 409h10M280 409h10M200 410h10M280 410h10M200 411h10M280 411h10M200 412h10M280 412h10M200 413h10M280 413h10M200 414h10M280 414h10M200 415h10M280 415h10M200 416h10M280 416h10M200 417h10M280 417h10M200 418h10M280 418h10M200 419h10M280 419h10M200 420h10M280 420h10M200 421h10M280 421h10M200 422h10M280 422h10M200 423h10M280 423h10M200 424h10M280 424h10M200 425h10M280 425h10M200 426h10M280 426h10M200 427h10M280 427h10M200 428h10M280 428h10M200 429h10M280 429h10" />
<path stroke="#010000" d="M162 222h1M318 228h1M195 248h1M177 264h1M315 274h1M300 283h1M126 290h1M255 301h1M135 336h1M177 358h1M273 366h1M189 368h1M258 378h1" />
<path stroke="#000001" d="M326 223h1M293 263h1M146 266h1M173 276h1M167 282h1M329 285h1M140 291h1M257 305h1M338 317h1M170 333h1M329 335h1M137 340h1M353 341h1M149 343h1M344 353h1M272 368h1" />
<path stroke="#000100" d="M298 238h1M340 244h1M166 249h1M217 262h1M331 277h1M196 290h1M172 291h1M133 306h1M190 320h1M202 371h1" />
<path stroke="#c89878" d="M210 250h70M210 251h70M210 252h70M210 253h70M210 254h70M210 255h70M210 256h70M210 257h70M210 258h70M210 259h70M200 260h10M240 260h10M280 260h10M200 261h10M240 261h10M280 261h10M200 262h10M240 262h10M280 262h10M200 263h10M240 263h10M280 263h10M200 264h10M240 264h10M280 264h10M200 265h10M240 265h10M280 265h10M200 266h10M240 266h10M280 266h10M200 267h10M240 267h10M280 267h10M200 268h10M240 268h10M280 268h10M200 269h10M240 269h10M280 269h10M200 270h90M200 271h90M200 272h90M200 273h90M200 274h90M200 275h90M200 276h90M200 277h90M200 278h90M200 279h90M200 280h10M230 280h30M280 280h10M200 281h10M230 281h30M280 281h10M200 282h10M230 282h30M280 282h10M200 283h10M230 283h30M280 283h10M200 284h10M230 284h30M280 284h10M200 285h10M230 285h30M280 285h10M200 286h10M230 286h30M280 286h10M200 287h2M203 287h7M230 287h30M280 287h10M200 288h10M230 288h30M280 288h10M200 289h10M230 289h30M280 289h10M200 290h50M260 290h15M277 290h13M200 291h50M260 291h30M200 292h50M260 292h30M200 293h50M260 293h30M200 294h50M260 294h30M200 295h50M260 295h30M200 296h22M223 296h27M260 296h30M200 297h50M260 297h30M200 298h50M260 298h30M200 299h50M260 299h30M190 300h60M260 300h40M190 301h60M260 301h40M190 302h60M260 302h12M273 302h27M190 303h60M260 303h40M190 304h60M260 304h40M190 305h60M260 305h40M190 306h60M260 306h40M190 307h60M260 307h40M190 308h60M260 308h40M190 309h60M260 309h40M200 310h50M260 310h30M200 311h50M260 311h30M200 312h50M260 312h30M200 313h50M260 313h30M200 314h50M260 314h30M200 315h50M260 315h30M200 316h50M260 316h30M200 317h50M260 317h30M200 318h50M260 318h30M200 319h50M260 319h30M200 320h30M240 320h20M270 320h20M200 321h30M240 321h20M270 321h20M200 322h30M240 322h20M270 322h20M200 323h30M240 323h20M270 323h20M200 324h30M240 324h20M270 324h20M200 325h30M240 325h20M270 325h20M200 326h30M240 326h20M270 326h20M200 327h30M240 327h20M270 327h20M200 328h30M240 328h20M270 328h20M200 329h30M240 329h20M270 329h20M200 330h40M260 330h30M200 331h40M260 331h30M200 332h40M260 332h30M200 333h4M205 333h35M260 333h30M200 334h40M260 334h30M200 335h40M260 335h30M200 336h40M260 336h7M268 336h22M200 337h40M260 337h30M200 338h40M260 338h30M200 339h40M260 339h30M200 340h30M260 340h30M200 341h30M260 341h30M200 342h30M260 342h30M200 343h30M260 343h30M200 344h30M260 344h30M200 345h30M260 345h30M200 346h30M260 346h30M200 347h30M260 347h30M200 348h30M260 348h30M200 349h30M260 349h30M210 350h20M260 350h20M210 351h10M221 351h9M260 351h20M210 352h20M260 352h20M210 353h20M260 353h20M210 354h20M260 354h20M210 355h20M260 355h20M210 356h20M260 356h20M210 357h20M260 357h20M210 358h20M260 358h20M210 359h20M260 359h20M220 360h50M220 361h50M220 362h50M220 363h50M220 364h50M220 365h50M220 366h50M220 367h50M220 368h50M220 369h50M240 370h10M240 371h10M240 372h10M240 373h10M240 374h10M240 375h10M240 376h10M240 377h10M240 378h10M240 379h10M230 380h30M230 381h30M230 382h30M230 383h30M230 384h30M230 385h30M230 386h30M230 387h30M230 388h30M230 389h30M230 390h30M230 391h30M230 392h30M230 393h30M230 394h30M230 395h30M230 396h30M230 397h30M230 398h30M230 399h30M240 400h10M240 401h10M240 402h7M248 402h2M240 403h10M240 404h10M240 405h10M240 406h10M240 407h10M240 408h10M240 409h10" />
<path stroke="#c89978" d="M202 287h1M220 351h1M247 402h1" />
<path stroke="#c89879" d="M275 290h1M272 302h1" />
<path stroke="#c99878" d="M276 290h1M222 296h1M204 333h1M267 336h1" />
<path stroke="#ffd700" d="M190 310h10M290 310h10M190 311h10M290 311h10M190 312h10M290 312h10M190 313h10M290 313h10M190 314h10M290 314h10M190 315h10M290 315h1M292 315h8M190 316h10M290 316h10M190 317h10M290 317h10M190 318h10M290 318h10M190 319h10M290 319h10" />
<path stroke="#fed700" d="M291 315h1" />
<path stroke="#6e4734" d="M230 340h30M230 341h30M230 342h30M230 343h30M230 344h7M238 344h22M230 345h30M230 346h30M230 347h30M230 348h30M230 349h30M230 350h30M230 351h30M230 352h30M230 353h30M230 354h30M230 355h30M230 356h30M230 357h30M230 358h30M230 359h30" />
<path stroke="#6f4734" d="M237 344h1" />
<path stroke="#505050" d="M220 380h10M260 380h10M220 381h10M260 381h10M220 382h10M260 382h10M220 383h10M260 383h10M220 384h10M260 384h10M220 385h10M260 385h10M220 386h10M260 386h10M220 387h10M260 387h10M220 388h10M260 388h10M220 389h10M260 389h10M210 390h20M260 390h20M210 391h20M260 391h20M210 392h20M260 392h20M210 393h20M260 393h20M210 394h20M260 394h20M210 395h20M260 395h20M210 396h20M260 396h20M210 397h20M260 397h20M210 398h20M260 398h20M210 399h20M260 399h20M210 400h20M260 400h20M210 401h20M260 401h20M210 402h20M260 402h20M210 403h20M260 403h20M210 404h20M260 404h20M210 405h20M260 405h20M210 406h20M260 406h20M210 407h20M260 407h20M210 408h20M260 408h20M210 409h20M260 409h20M210 410h20M260 410h20M210 411h20M260 411h20M210 412h20M260 412h20M210 413h20M260 413h20M210 414h20M260 414h20M210 415h20M260 415h20M210 416h20M260 416h20M210 417h20M260 417h20M210 418h20M260 418h20M210 419h20M260 419h20M210 420h20M260 420h20M210 421h20M260 421h20M210 422h20M260 422h20M210 423h20M260 423h20M210 424h20M260 424h20M210 425h20M260 425h20M210 426h20M260 426h20M210 427h20M260 427h20M210 428h20M260 428h20M210 429h20M260 429h20" />
<path stroke="#ffffff" d="M230 400h10M250 400h10M230 401h10M250 401h10M230 402h10M250 402h10M230 403h10M250 403h10M230 404h10M250 404h10M230 405h10M250 405h10M230 406h10M250 406h10M230 407h10M250 407h10M230 408h10M250 408h10M230 409h10M250 409h10M230 410h30M230 411h30M230 412h30M230 413h30M230 414h30M230 415h30M230 416h30M230 417h30M230 418h30M230 419h30M230 420h30M230 421h30M230 422h30M230 423h30M230 424h30M230 425h30M230 426h30M230 427h30M230 428h30M230 429h30" />
</svg>