<svg xmlns="http://www.w3.org/2000/svg" viewBox="0 -0.5 480 480" shape-rendering="crispEdges">
<metadata>Made with Pixels to Svg https://codepen.io/shshaw/pen/XbxvNj</metadata>
<path stroke="#49a269" d="M200 170h70M200 171h70M200 172h70M200 173h70M200 174h70M200 175h70M201 176h46M248 176h22M200 177h70M200 178h70M200 179h70M200 180h70M200 181h70M200 182h70M200 183h70M200 184h70M200 185h70M200 186h70M200 187h70M200 188h70M200 189h70M190 190h90M190 191h90M190 192h12M203 192h77M190 193h90M190 194h90M190 195h90M190 196h90M190 197h90M190 198h90M190 199h90M190 200h90M190 201h90M190 202h90M190 203h90M190 204h90M190 205h90M190 206h90M190 207h90M190 208h90M190 209h90M180 210h110M180 211h110M180 212h19M200 212h90M180 213h110M180 214h110M180 215h110M180 216h110M180 217h110M180 218h110M180 219h110M180 220h30M260 220h30M180 221h30M260 221h30M180 222h30M260 222h30M180 223h30M260 223h30M180 224h30M260 224h30M180 225h30M260 225h30M180 226h30M260 226h30M180 227h30M260 227h30M180 228h30M260 228h30M180 229h30M260 229h30M170 230h30M270 230h30M170 231h30M270 231h30M170 232h30M270 232h30M170 233h30M270 233h30M170 234h30M270 234h30M170 235h30M270 235h30M170 236h30M270 236h30M170 237h30M270 237h30M170 238h30M270 238h30M170 239h30M270 239h30M170 240h20M290 240h10M170 241h20M290 241h10M170 242h20M290 242h10M170 243h20M290 243h10M170 244h20M290 244h10M170 245h20M290 245h10M170 246h20M290 246h10M170 247h20M290 247h10M170 248h20M290 248h10M170 249h20M290 249h10M160 250h30M300 250h10M160 251h30M300 251h10M160 252h30M300 252h10M160 253h30M300 253h10M160 254h30M300 254h10M160 255h30M300 255h10M160 256h30M300 256h10M160 257h30M300 257h10M160 258h30M300 258h10M160 259h30M300 259h10M160 260h30M280 260h30M160 261h30M280 261h30M160 262h30M280 262h30M160 263h30M280 263h30M160 264h30M280 264h30M160 265h30M280 265h30M160 266h30M280 266h30M160 267h30M280 267h30M160 268h30M280 268h30M160 269h30M280 269h30M150 270h30M290 270h30M150 271h30M290 271h30M150 272h30M290 272h30M150 273h30M290 273h30M150 274h30M290 274h30M150 275h30M290 275h30M150 276h30M290 276h30M150 277h30M290 277h30M150 278h30M290 278h30M150 279h30M290 279h30M150 280h28M179 280h1M290 280h30M150 281h30M290 281h30M150 282h30M290 282h30M150 283h30M290 283h30M150 284h8M159 284h21M290 284h30M150 285h30M290 285h30M150 286h30M290 286h30M150 287h30M290 287h30M150 288h30M290 288h30M150 289h30M290 289h30M140 290h30M300 290h30M140 291h30M300 291h30M140 292h30M300 292h30M140 293h30M300 293h30M140 294h30M300 294h30M140 295h30M300 295h30M140 296h30M300 296h30M140 297h30M300 297h30M140 298h30M300 298h30M140 299h30M300 299h30M140 300h40M290 300h40M140 301h40M290 301h40M140 302h40M290 302h40M140 303h40M290 303h40M140 304h40M290 304h40M140 305h40M290 305h40M140 306h40M290 306h40M140 307h40M290 307h16M307 307h23M140 308h40M290 308h40M140 309h40M290 309h40M130 310h30M170 310h10M290 310h10M310 310h30M130 311h30M170 311h10M290 311h10M310 311h30M130 312h30M170 312h10M290 312h10M310 312h30M130 313h30M170 313h10M290 313h10M310 313h30M130 314h30M170 314h10M290 314h10M310 314h30M130 315h30M170 315h10M290 315h10M310 315h30M130 316h30M170 316h10M290 316h10M310 316h30M130 317h30M170 317h10M290 317h10M310 317h30M130 318h30M170 318h10M290 318h10M310 318h30M130 319h30M170 319h10M290 319h10M310 319h30M130 320h20M180 320h10M280 320h10M320 320h20M130 321h20M180 321h10M280 321h10M320 321h20M130 322h20M180 322h10M280 322h10M320 322h20M130 323h20M180 323h10M280 323h10M320 323h20M130 324h20M180 324h10M280 324h10M320 324h20M130 325h20M180 325h10M280 325h10M320 325h20M130 326h20M180 326h10M280 326h10M320 326h20M130 327h20M180 327h10M280 327h10M320 327h20M130 328h20M180 328h10M280 328h10M320 328h20M130 329h20M180 329h10M280 329h10M320 329h20M120 330h30M190 330h10M270 330h10M320 330h30M120 331h30M190 331h10M270 331h10M320 331h30M120 332h30M190 332h10M270 332h10M320 332h30M120 333h30M190 333h10M270 333h10M320 333h30M120 334h30M190 334h10M270 334h10M320 334h30M120 335h30M190 335h10M270 335h10M320 335h30M120 336h30M190 336h10M270 336h10M320 336h30M120 337h30M190 337h10M270 337h10M320 337h30M120 338h30M190 338h10M270 338h10M320 338h30M120 339h30M190 339h10M270 339h10M320 339h30M120 340h40M310 340h40M120 341h40M310 341h40M120 342h40M310 342h40M120 343h40M310 343h40M120 344h40M310 344h40M120 345h40M310 345h40M120 346h40M310 346h40M120 347h40M310 347h40M120 348h40M310 348h40M120 349h40M310 349h40M110 350h60M300 350h60M110 351h60M300 351h60M110 352h60M300 352h60M110 353h60M300 353h60M110 354h60M300 354h60M110 355h60M300 355h60M110 356h60M300 356h60M110 357h60M300 357h60M110 358h60M300 358h56M357 358h3M110 359h60M300 359h60M110 360h100M260 360h100M110 361h100M260 361h100M110 362h100M260 362h100M110 363h100M260 363h100M110 364h100M260 364h100M110 365h100M260 365h100M110 366h100M260 366h100M110 367h100M260 367h100M110 368h100M260 368h25M286 368h74M110 369h100M260 369h59M320 369h40M100 370h110M260 370h110M100 371h110M260 371h110M100 372h110M260 372h4M265 372h105M100 373h110M260 373h110M100 374h110M260 374h110M100 375h110M260 375h110M100 376h110M260 376h110M100 377h110M260 377h110M100 378h110M260 378h110M100 379h110M260 379h110M100 380h110M260 380h110M100 381h110M260 381h110M100 382h110M260 382h110M100 383h110M260 383h110M100 384h110M260 384h110M100 385h110M260 385h110M100 386h110M260 386h110M100 387h110M260 387h110M100 388h110M260 388h110M100 389h110M260 389h110M170 390h40M260 390h40M170 391h40M260 391h40M170 392h40M260 392h40M170 393h40M260 393h40M170 394h18M189 394h21M260 394h40M170 395h40M260 395h40M170 396h40M260 396h40M170 397h40M260 397h40M170 398h14M185 398h25M260 398h40M170 399h40M260 399h40M170 400h40M260 400h40M170 401h40M260 401h40M170 402h40M260 402h40M170 403h40M260 403h40M170 404h40M260 404h40M170 405h40M260 405h40M170 406h40M260 406h40M170 407h40M260 407h40M170 408h40M260 408h40M170 409h40M260 409h40M170 410h40M260 410h40M170 411h40M260 411h40M170 412h40M260 412h40M170 413h40M260 413h40M170 414h40M260 414h40M170 415h40M260 415h19M280 415h20M170 416h40M260 416h40M170 417h40M260 417h40M170 418h40M260 418h40M170 419h40M260 419h40M170 420h30M270 420h30M170 421h30M270 421h30M170 422h30M270 422h30M170 423h30M270 423h30M170 424h30M270 424h30M170 425h30M270 425h30M170 426h30M270 426h30M170 427h30M270 427h30M170 428h30M270 428h30M170 429h30M270 429h30M170 430h40M230 430h10M260 430h40M170 431h40M230 431h10M260 431h40M170 432h40M230 432h10M260 432h40M170 433h40M230 433h10M260 433h40M170 434h40M230 434h10M260 434h40M170 435h10M181 435h29M230 435h10M260 435h40M170 436h40M230 436h10M260 436h40M170 437h40M230 437h10M260 437h40M170 438h5M176 438h34M230 438h10M260 438h40M170 439h40M230 439h10M260 439h27M288 439h12M170 440h130M170 441h130M170 442h130M170 443h130M170 444h130M170 445h130M170 446h130M170 447h130M170 448h130M170 449h130" />
<path stroke="#49a268" d="M200 176h1M158 284h1M356 358h1M188 394h1M287 439h1" />
<path stroke="#49a369" d="M247 176h1M202 192h1M199 212h1M178 280h1M319 369h1M184 398h1M175 438h1" />
<path stroke="#2800ba" d="M210 220h36M247 220h13M210 221h50M210 222h30M241 222h19M210 223h50M210 224h50M210 225h50M210 226h50M210 227h50M210 228h50M210 229h50M200 230h40M250 230h20M200 231h40M250 231h20M200 232h40M250 232h20M200 233h40M250 233h20M200 234h40M250 234h20M200 235h40M250 235h20M200 236h40M250 236h20M200 237h33M234 237h6M250 237h20M200 238h40M250 238h20M200 239h40M250 239h20M190 240h60M260 240h30M190 241h60M260 241h30M190 242h33M224 242h26M260 242h30M190 243h60M260 243h30M190 244h60M260 244h30M190 245h11M202 245h48M260 245h30M190 246h24M215 246h35M260 246h30M190 247h60M260 247h30M190 248h60M260 248h30M190 249h60M260 249h30M190 250h110M190 251h110M190 252h110M190 253h110M190 254h25M216 254h84M190 255h110M190 256h110M190 257h93M284 257h16M190 258h110M190 259h110M200 340h30M240 340h30M200 341h30M240 341h30M200 342h30M240 342h2M243 342h27M200 343h30M240 343h30M200 344h30M240 344h30M200 345h30M240 345h30M200 346h30M240 346h30M200 347h5M206 347h24M240 347h30M200 348h30M240 348h30M200 349h30M240 349h30M220 370h10M240 370h10M220 371h10M240 371h10M220 372h10M240 372h10M220 373h10M240 373h10M220 374h10M240 374h10M220 375h10M240 375h10M220 376h10M240 376h10M220 377h10M240 377h10M220 378h10M240 378h10M220 379h10M240 379h10M220 380h30M220 381h30M220 382h30M220 383h30M220 384h30M220 385h30M220 386h30M220 387h30M220 388h30M220 389h30" />
<path stroke="#2900ba" d="M246 220h1M240 222h1M201 245h1" />
<path stroke="#92d3ff" d="M240 230h10M240 231h10M240 232h10M240 233h10M240 234h10M240 235h10M240 236h10M240 237h10M240 238h10M240 239h10M250 240h10M250 241h10M250 242h10M250 243h10M250 244h10M250 245h10M250 246h10M250 247h10M250 248h10M250 249h10M220 390h30M220 391h30M220 392h30M220 393h30M220 394h30M220 395h30M220 396h30M220 397h30M220 398h30M220 399h30M220 400h10M240 400h10M220 401h10M240 401h10M220 402h10M240 402h10M220 403h10M240 403h10M220 404h10M240 404h10M220 405h10M240 405h4M245 405h5M220 406h10M240 406h10M220 407h10M240 407h8M249 407h1M220 408h10M240 408h10M220 409h10M240 409h10" />
<path stroke="#2800bb" d="M233 237h1M215 254h1M242 342h1" />
<path stroke="#2801ba" d="M223 242h1M214 246h1M283 257h1M205 347h1" />
<path stroke="#000000" d="M190 260h10M270 260h10M190 261h10M270 261h10M190 262h10M270 262h10M190 263h10M270 263h10M190 264h10M270 264h10M190 265h10M270 265h10M190 266h10M270 266h10M190 267h10M270 267h10M190 268h10M270 268h10M190 269h10M270 269h1M272 269h8M180 270h10M280 270h10M180 271h10M280 271h10M180 272h10M280 272h10M180 273h10M280 273h10M180 274h10M280 274h10M180 275h10M280 275h10M180 276h10M280 276h10M180 277h10M280 277h10M180 278h10M280 278h10M180 279h10M280 279h10M180 280h10M280 280h10M180 281h10M280 281h10M180 282h10M280 282h10M180 283h10M280 283h10M180 284h10M280 284h10M180 285h10M280 285h10M180 286h10M280 286h10M180 287h10M280 287h10M180 288h10M280 288h10M180 289h10M280 289h10M170 290h10M290 290h10M170 291h10M290 291h10M170 292h10M290 292h10M170 293h10M290 293h10M170 294h10M290 294h10M170 295h10M290 295h10M170 296h10M290 296h10M170 297h10M290 297h10M170 298h10M290 298h10M170 299h10M290 299h10M180 300h10M280 300h10M180 301h10M280 301h10M180 302h10M280 302h10M180 303h10M280 303h10M180 304h10M280 304h10M180 305h10M280 305h10M180 306h10M280 306h10M180 307h10M280 307h10M180 308h10M280 308h10M180 309h10M280 309h10M160 310h10M180 310h10M230 310h10M280 310h10M300 310h10M160 311h10M180 311h10M230 311h10M280 311h10M300 311h10M160 312h10M180 312h10M230 312h10M280 312h10M300 312h10M160 313h10M180 313h10M230 313h10M280 313h10M300 313h10M160 314h10M180 314h10M230 314h10M280 314h10M300 314h10M160 315h10M180 315h10M230 315h10M280 315h10M300 315h10M160 316h10M180 316h10M230 316h10M280 316h10M300 316h10M160 317h10M180 317h10M230 317h10M280 317h10M300 317h10M160 318h10M180 318h10M230 318h10M280 318h10M300 318h10M160 319h10M180 319h10M230 319h10M280 319h10M300 319h10M150 320h10M170 320h10M190 320h10M270 320h10M290 320h10M310 320h10M150 321h10M170 321h10M190 321h10M270 321h10M290 321h10M310 321h10M150 322h10M170 322h10M190 322h10M270 322h10M290 322h10M310 322h10M150 323h10M170 323h10M190 323h10M270 323h10M290 323h10M310 323h10M150 324h10M170 324h10M190 324h10M270 324h10M290 324h10M310 324h10M150 325h10M170 325h10M190 325h10M270 325h10M290 325h10M310 325h10M150 326h10M170 326h10M190 326h10M270 326h10M290 326h10M310 326h10M150 327h10M170 327h10M190 327h10M270 327h10M290 327h10M310 327h10M150 328h10M170 328h10M190 328h10M270 328h10M290 328h10M310 328h10M150 329h10M170 329h10M190 329h10M270 329h10M290 329h10M310 329h10M150 330h10M170 330h20M200 330h10M260 330h10M280 330h20M310 330h10M150 331h10M170 331h20M200 331h10M260 331h10M280 331h20M310 331h10M150 332h10M170 332h20M200 332h10M260 332h10M280 332h20M310 332h10M150 333h10M170 333h20M200 333h10M260 333h10M280 333h20M310 333h10M150 334h10M170 334h20M200 334h10M260 334h10M280 334h20M310 334h10M150 335h10M170 335h20M200 335h10M260 335h10M280 335h20M310 335h10M150 336h10M170 336h20M200 336h10M260 336h10M280 336h20M310 336h10M150 337h10M170 337h20M200 337h10M260 337h10M280 337h20M310 337h10M150 338h10M170 338h20M200 338h10M260 338h10M280 338h20M310 338h10M150 339h10M170 339h20M200 339h10M260 339h10M280 339h20M310 339h10M160 340h10M190 340h10M270 340h10M300 340h10M160 341h10M190 341h10M270 341h10M300 341h10M160 342h10M190 342h10M270 342h10M300 342h10M160 343h10M190 343h10M270 343h10M300 343h10M160 344h10M190 344h10M270 344h10M300 344h10M160 345h10M190 345h10M270 345h10M300 345h10M160 346h10M190 346h10M270 346h10M300 346h10M160 347h10M190 347h10M270 347h10M300 347h10M160 348h10M190 348h10M270 348h10M300 348h10M160 349h10M190 349h10M270 349h10M300 349h10M170 350h50M250 350h50M170 351h50M250 351h50M170 352h50M250 352h50M170 353h50M250 353h50M170 354h50M250 354h50M170 355h50M250 355h50M170 356h50M250 356h50M170 357h50M250 357h50M170 358h50M250 358h50M170 359h50M250 359h50M210 360h10M250 360h10M210 361h10M250 361h10M210 362h10M250 362h10M210 363h10M250 363h10M210 364h10M250 364h10M210 365h10M250 365h10M210 366h10M250 366h10M210 367h10M250 367h10M210 368h10M250 368h10M210 369h10M250 369h10M210 370h10M250 370h10M210 371h10M250 371h10M210 372h10M250 372h10M210 373h10M250 373h10M210 374h10M250 374h10M210 375h10M250 375h10M210 376h10M250 376h10M210 377h10M250 377h10M210 378h10M250 378h10M210 379h10M250 379h10M210 380h10M250 380h10M210 381h10M250 381h10M210 382h10M250 382h10M210 383h10M250 383h10M210 384h10M250 384h10M210 385h10M250 385h10M210 386h10M250 386h10M210 387h10M250 387h10M210 388h10M250 388h10M210 389h10M250 389h10M210 390h10M250 390h10M210 391h10M250 391h10M210 392h10M250 392h10M210 393h10M250 393h10M210 394h10M250 394h10M210 395h10M250 395h10M210 396h10M250 396h10M210 397h10M250 397h10M210 398h10M250 398h10M210 399h4M215 399h5M250 399h10M210 400h7M218 400h2M230 400h10M250 400h10M210 401h10M230 401h10M250 401h10M210 402h10M230 402h10M250 402h10M210 403h10M230 403h10M250 403h10M210 404h10M230 404h10M250 404h10M210 405h10M230 405h10M250 405h10M210 406h10M230 406h10M250 406h10M210 407h10M230 407h10M250 407h10M210 408h10M230 408h10M250 408h10M210 409h10M230 409h10M250 409h10M210 410h10M230 410h10M250 410h10M210 411h10M230 411h10M250 411h10M210 412h10M230 412h10M250 412h10M210 413h10M230 413h10M250 413h10M210 414h10M230 414h10M250 414h10M210 415h10M230 415h10M250 415h10M210 416h10M230 416h10M250 416h10M210 417h10M230 417h10M250 417h10M210 418h10M230 418h10M250 418h10M210 419h10M230 419h10M250 419h10M200 420h10M230 420h10M260 420h10M200 421h10M230 421h10M260 421h10M200 422h10M230 422h10M260 422h10M200 423h10M230 423h10M260 423h10M200 424h10M230 424h10M260 424h10M200 425h10M230 425h10M260 425h10M200 426h10M230 426h10M260 426h10M200 427h10M230 427h10M260 427h10M200 428h10M230 428h10M260 428h10M200 429h10M230 429h10M260 429h10M210 430h20M240 430h20M210 431h20M240 431h20M210 432h20M240 432h20M210 433h20M240 433h20M210 434h20M240 434h20M210 435h20M240 435h20M210 436h20M240 436h20M210 437h20M240 437h20M210 438h20M240 438h20M210 439h20M240 439h20" />
<path stroke="#6e4734" d="M200 260h10M260 260h10M200 261h10M260 261h10M200 262h10M260 262h10M200 263h10M260 263h10M200 264h10M260 264h10M200 265h10M260 265h10M200 266h10M260 266h10M200 267h10M260 267h10M200 268h10M260 268h10M200 269h10M260 269h10M190 270h10M270 270h10M190 271h10M270 271h10M190 272h10M270 272h10M190 273h10M270 273h10M190 274h10M270 274h10M190 275h10M270 275h10M190 276h10M270 276h10M190 277h10M270 277h10M190 278h10M270 278h10M190 279h10M270 279h10M190 280h10M270 280h10M190 281h10M270 281h10M190 282h10M270 282h10M190 283h10M270 283h10M190 284h10M270 284h10M190 285h10M270 285h10M190 286h10M270 286h10M190 287h10M270 287h10M190 288h10M270 288h10M190 289h10M270 289h10M190 290h10M270 290h10M190 291h10M270 291h10M190 292h10M270 292h10M190 293h10M270 293h10M190 294h10M270 294h10M190 295h5M196 295h4M270 295h10M190 296h10M270 296h10M190 297h10M270 297h10M190 298h10M270 298h10M190 299h10M270 299h10" />
<path stroke="#eec39a" d="M210 260h50M210 261h50M210 262h50M210 263h50M210 264h50M210 265h50M210 266h50M210 267h50M210 268h50M210 269h50M230 270h10M230 271h10M230 272h10M230 273h10M230 274h10M230 275h10M230 276h10M230 277h10M230 278h10M230 279h10M230 280h10M230 281h10M230 282h10M230 283h10M230 284h10M230 285h3M234 285h6M230 286h10M230 287h10M230 288h10M230 289h10M180 290h10M230 290h10M280 290h10M180 291h10M230 291h10M280 291h10M180 292h10M230 292h10M280 292h10M180 293h10M230 293h10M280 293h10M180 294h10M230 294h10M280 294h10M180 295h10M230 295h10M280 295h10M180 296h10M230 296h10M280 296h10M180 297h10M230 297h10M280 297h10M180 298h10M230 298h10M280 298h10M180 299h10M230 299h10M280 299h10M190 300h90M190 301h90M190 302h90M190 303h45M236 303h44M190 304h90M190 305h90M190 306h90M190 307h90M190 308h90M190 309h90M190 310h10M210 310h20M240 310h20M270 310h10M190 311h10M210 311h20M240 311h20M270 311h10M190 312h10M210 312h20M240 312h20M270 312h10M190 313h10M210 313h20M240 313h20M270 313h10M190 314h10M210 314h20M240 314h20M270 314h10M190 315h10M210 315h20M240 315h20M270 315h10M190 316h10M210 316h20M240 316h20M270 316h10M190 317h10M210 317h20M240 317h20M270 317h10M191 318h9M210 318h20M240 318h20M270 318h10M190 319h10M210 319h20M240 319h20M270 319h10M160 320h10M200 320h30M240 320h30M300 320h10M160 321h10M200 321h30M240 321h30M300 321h10M160 322h10M200 322h30M240 322h30M300 322h10M160 323h10M200 323h30M240 323h30M300 323h10M160 324h10M200 324h30M240 324h30M300 324h10M160 325h10M200 325h30M240 325h30M300 325h10M160 326h10M200 326h30M240 326h30M300 326h10M160 327h10M200 327h30M240 327h30M300 327h10M160 328h10M200 328h30M240 328h30M300 328h10M160 329h10M200 329h30M240 329h30M300 329h10M160 330h10M210 330h50M300 330h10M160 331h10M210 331h50M300 331h10M160 332h10M210 332h50M300 332h10M160 333h10M210 333h50M300 333h10M160 334h10M210 334h50M300 334h10M160 335h10M210 335h50M300 335h10M160 336h10M210 336h50M300 336h10M160 337h10M210 337h50M300 337h10M160 338h10M210 338h50M300 338h10M160 339h10M210 339h50M300 339h10M170 340h20M280 340h20M170 341h20M280 341h20M170 342h20M280 342h20M170 343h20M280 343h20M170 344h20M280 344h20M170 345h20M280 345h20M170 346h20M280 346h20M170 347h20M280 347h20M170 348h20M280 348h20M170 349h20M280 349h20M220 410h10M240 410h10M220 411h10M240 411h10M220 412h10M240 412h10M220 413h10M240 413h10M220 414h10M240 414h10M220 415h10M240 415h10M220 416h10M240 416h10M220 417h10M240 417h10M220 418h10M240 418h10M220 419h10M240 419h10" />
<path stroke="#000100" d="M271 269h1M214 399h1M217 400h1" />
<path stroke="#306082" d="M200 270h30M240 270h30M200 271h30M240 271h30M200 272h30M240 272h30M200 273h30M240 273h30M200 274h30M240 274h30M200 275h30M240 275h30M200 276h30M240 276h30M200 277h30M240 277h30M200 278h30M240 278h30M200 279h30M240 279h30" />
<path stroke="#ffffff" d="M200 280h10M240 280h10M200 281h10M240 281h10M200 282h10M240 282h10M200 283h10M240 283h10M200 284h10M240 284h10M200 285h10M240 285h10M200 286h10M240 286h10M200 287h10M240 287h9M200 288h10M240 288h10M200 289h10M240 289h10M200 290h10M240 290h10M200 291h10M240 291h10M200 292h10M240 292h10M200 293h10M240 293h10M200 294h10M240 294h10M200 295h10M240 295h10M200 296h10M240 296h10M200 297h10M240 297h10M200 298h10M240 298h10M200 299h10M240 299h10M210 420h20M240 420h20M210 421h20M240 421h20M210 422h20M240 422h20M210 423h20M240 423h20M210 424h20M240 424h20M210 425h20M240 425h20M210 426h20M240 426h20M210 427h20M240 427h20M210 428h20M240 428h20M210 429h20M240 429h20" />
<path stroke="#639bff" d="M210 280h20M250 280h20M210 281h20M250 281h20M210 282h20M250 282h20M210 283h20M250 283h20M210 284h20M250 284h20M210 285h20M250 285h20M210 286h20M250 286h20M210 287h20M250 287h20M210 288h20M250 288h20M210 289h20M250 289h20M210 290h20M250 290h20M210 291h20M250 291h20M210 292h20M250 292h20M210 293h20M250 293h20M210 294h20M250 294h20M210 295h20M250 295h20M210 296h20M250 296h20M210 297h20M250 297h20M210 298h20M250 298h20M210 299h20M250 299h20" />
<path stroke="#eec39b" d="M233 285h1" />
<path stroke="#feffff" d="M249 287h1" />
<path stroke="#6f4734" d="M195 295h1" />
<path stroke="#eec29a" d="M235 303h1M190 318h1" />
<path stroke="#48a269" d="M306 307h1M285 368h1M264 372h1M279 415h1M180 435h1" />
<path stroke="#e35100" d="M200 310h10M260 310h10M200 311h10M260 311h10M200 312h10M260 312h10M200 313h10M260 313h10M200 314h10M260 314h10M200 315h10M260 315h10M200 316h10M260 316h10M200 317h10M260 317h10M200 318h10M260 318h10M200 319h10M260 319h10M230 320h10M230 321h10M230 322h10M230 323h10M230 324h10M230 325h10M230 326h10M230 327h10M230 328h10M230 329h10" />
<path stroke="#4161fb" d="M230 340h10M230 341h10M230 342h10M230 343h10M230 344h10M230 345h10M230 346h10M230 347h10M230 348h10M230 349h10M230 350h10M230 351h10M230 352h10M230 353h10M230 354h10M230 355h10M230 356h10M230 357h10M230 358h10M230 359h10M220 360h10M240 360h10M220 361h10M240 361h10M220 362h10M240 362h10M220 363h10M240 363h10M220 364h10M240 364h10M220 365h10M240 365h10M220 366h10M240 366h10M220 367h10M240 367h10M220 368h10M240 368h10M220 369h10M240 369h10M230 370h10M230 371h10M230 372h10M230 373h10M230 374h10M230 375h10M230 376h10M230 377h10M230 378h10M230 379h10" />
<path stroke="#4141ff" d="M220 350h10M240 350h10M220 351h10M240 351h10M220 352h10M240 352h10M220 353h10M240 353h10M220 354h10M240 354h10M220 355h10M240 355h10M220 356h10M240 356h10M220 357h10M240 357h10M220 358h10M240 358h10M220 359h10M240 359h10M230 360h10M230 361h10M230 362h10M230 363h10M230 364h10M230 365h10M230 366h10M230 367h10M230 368h10M230 369h10" />
<path stroke="#92d2ff" d="M244 405h1" />
<path stroke="#92d3fe" d="M248 407h1" />
</svg>