<svg xmlns="http://www.w3.org/2000/svg" viewBox="0 -0.5 480 480" shape-rendering="crispEdges">
<metadata>Made with Pixels to Svg https://codepen.io/shshaw/pen/XbxvNj</metadata>
<path stroke="#000000" d="M200 210h70M200 211h70M200 212h70M200 213h70M200 214h70M200 215h70M200 216h70M200 217h70M200 218h70M200 219h70M190 220h10M270 220h10M190 221h10M270 221h10M190 222h10M270 222h10M190 223h10M270 223h10M190 224h10M270 224h10M190 225h10M270 225h10M190 226h10M270 226h10M190 227h10M270 227h10M190 228h10M270 228h10M190 229h10M270 229h10M180 230h10M280 230h10M180 231h10M280 231h10M180 232h10M280 232h10M180 233h10M280 233h10M180 234h10M280 234h10M180 235h10M280 235h10M180 236h10M280 236h2M283 236h7M180 237h10M280 237h10M180 238h10M280 238h10M180 239h10M280 239h10M180 240h10M280 240h10M180 241h10M280 241h10M180 242h10M280 242h10M180 243h10M280 243h10M180 244h10M280 244h10M180 245h10M280 245h10M180 246h10M280 246h10M180 247h10M280 247h10M180 248h10M280 248h10M180 249h10M280 249h10M180 250h10M200 250h30M240 250h30M280 250h10M180 251h10M200 251h30M240 251h30M280 251h10M180 252h10M200 252h30M240 252h3M244 252h26M280 252h10M180 253h10M200 253h30M240 253h30M280 253h10M180 254h10M200 254h30M240 254h30M280 254h10M180 255h10M200 255h30M240 255h30M280 255h10M180 256h10M200 256h30M240 256h30M280 256h10M180 257h10M200 257h30M240 257h30M280 257h10M180 258h10M200 258h30M240 258h30M280 258h10M180 259h10M200 259h30M240 259h30M280 259h10M180 260h1M182 260h8M280 260h10M180 261h10M280 261h10M180 262h10M280 262h10M180 263h10M280 263h10M180 264h10M280 264h10M180 265h10M280 265h10M180 266h10M280 266h9M180 267h10M280 267h10M180 268h10M280 268h10M180 269h10M280 269h10M180 270h10M200 270h10M220 270h10M240 270h10M260 270h10M280 270h10M180 271h10M200 271h10M220 271h10M240 271h10M260 271h10M280 271h10M180 272h10M200 272h10M220 272h10M240 272h10M260 272h10M280 272h10M180 273h10M200 273h10M220 273h10M240 273h10M260 273h10M280 273h10M180 274h10M200 274h10M220 274h10M240 274h10M260 274h10M280 274h10M180 275h10M200 275h10M220 275h10M240 275h10M260 275h10M280 275h10M180 276h10M200 276h10M220 276h10M240 276h10M260 276h10M280 276h10M180 277h10M200 277h10M220 277h10M240 277h10M260 277h10M280 277h10M180 278h10M200 278h10M220 278h10M240 278h10M260 278h10M280 278h10M180 279h10M200 279h10M220 279h10M240 279h10M260 279h10M280 279h10M180 280h10M210 280h10M250 280h10M280 280h10M180 281h10M210 281h10M250 281h10M280 281h10M180 282h10M210 282h10M250 282h10M280 282h10M180 283h10M210 283h10M250 283h10M280 283h10M180 284h10M210 284h10M250 284h10M280 284h10M180 285h10M210 285h10M250 285h10M280 285h10M180 286h10M210 286h10M250 286h10M280 286h10M180 287h10M210 287h8M219 287h1M250 287h10M280 287h10M180 288h10M210 288h10M250 288h10M280 288h10M180 289h10M210 289h10M250 289h10M280 289h10M170 290h10M230 290h3M234 290h6M290 290h10M170 291h10M230 291h10M290 291h10M170 292h10M230 292h10M290 292h10M170 293h10M230 293h10M290 293h10M170 294h10M230 294h10M290 294h10M170 295h10M230 295h10M290 295h10M170 296h10M230 296h10M290 296h10M170 297h10M230 297h10M290 297h10M170 298h10M230 298h10M290 298h10M170 299h10M230 299h10M291 299h9M170 300h10M230 300h10M290 300h10M170 301h10M230 301h10M290 301h10M170 302h10M230 302h10M290 302h10M170 303h10M230 303h10M290 303h10M170 304h10M230 304h10M290 304h10M170 305h10M230 305h10M290 305h10M170 306h10M230 306h10M290 306h10M170 307h10M230 307h10M290 307h10M170 308h10M230 308h10M290 308h10M170 309h10M230 309h10M290 309h10M180 310h10M220 310h10M280 310h10M180 311h10M220 311h10M280 311h10M180 312h10M220 312h10M280 312h10M180 313h10M220 313h10M280 313h10M180 314h10M220 314h10M280 314h10M180 315h10M220 315h10M280 315h10M180 316h10M220 316h10M280 316h10M180 317h10M220 317h10M280 317h10M180 318h10M220 318h10M280 318h10M180 319h10M220 319h10M280 319h10M180 320h10M230 320h10M280 320h10M180 321h10M230 321h10M280 321h10M180 322h10M230 322h10M280 322h10M180 323h10M230 323h10M280 323h10M180 324h10M230 324h10M280 324h10M180 325h10M230 325h10M281 325h9M180 326h10M230 326h10M280 326h10M180 327h10M230 327h10M280 327h10M180 328h10M230 328h10M280 328h10M180 329h10M230 329h10M280 329h10M180 330h10M280 330h10M180 331h10M280 331h10M180 332h10M280 332h10M180 333h10M280 333h10M180 334h10M280 334h10M180 335h10M280 335h10M180 336h10M280 336h10M180 337h10M280 337h10M180 338h10M280 338h10M180 339h10M280 339h10M180 340h20M270 340h20M180 341h20M270 341h20M181 342h19M270 342h20M180 343h20M270 343h20M180 344h20M270 344h20M180 345h20M270 345h20M180 346h20M270 346h20M180 347h20M270 347h20M180 348h20M270 348h20M180 349h20M270 349h20M180 350h10M200 350h10M260 350h10M280 350h10M180 351h10M200 351h10M260 351h10M280 351h10M180 352h10M200 352h10M260 352h10M280 352h10M180 353h10M200 353h10M260 353h10M280 353h10M180 354h10M200 354h10M260 354h10M280 354h10M180 355h10M200 355h10M260 355h10M280 355h10M180 356h10M200 356h10M260 356h10M280 356h10M180 357h10M200 357h10M260 357h10M280 357h10M180 358h10M200 358h10M260 358h10M280 358h10M180 359h10M200 359h10M260 359h10M280 359h10M180 360h10M210 360h10M250 360h10M280 360h10M180 361h10M210 361h10M250 361h10M280 361h10M180 362h10M210 362h10M250 362h10M280 362h10M180 363h10M210 363h10M250 363h10M280 363h10M180 364h10M210 364h10M250 364h10M280 364h10M180 365h10M210 365h10M250 365h10M280 365h10M180 366h10M210 366h10M250 366h10M280 366h10M180 367h10M210 367h10M250 367h10M280 367h10M180 368h10M210 368h10M250 368h10M280 368h10M180 369h10M210 369h10M250 369h10M280 369h10M180 370h10M200 370h10M220 370h10M240 370h10M260 370h10M280 370h10M180 371h10M200 371h10M220 371h10M240 371h10M260 371h10M280 371h10M180 372h10M200 372h10M220 372h10M240 372h10M260 372h10M280 372h10M180 373h10M200 373h10M220 373h10M240 373h10M260 373h10M280 373h10M180 374h10M200 374h10M220 374h10M240 374h10M260 374h10M280 374h10M180 375h10M200 375h10M220 375h10M240 375h10M260 375h10M280 375h10M180 376h10M200 376h10M220 376h10M240 376h10M260 376h10M280 376h10M180 377h10M200 377h10M220 377h10M240 377h10M260 377h10M280 377h10M180 378h10M200 378h10M220 378h10M240 378h10M260 378h10M280 378h10M180 379h10M200 379h10M220 379h10M240 379h10M260 379h10M280 379h10M190 380h10M220 380h10M240 380h10M270 380h10M190 381h10M220 381h10M240 381h10M270 381h10M190 382h10M220 382h10M240 382h10M270 382h10M190 383h10M220 383h10M240 383h10M270 383h10M190 384h10M220 384h10M240 384h10M270 384h10M190 385h10M220 385h10M240 385h10M270 385h10M190 386h10M220 386h10M240 386h10M270 386h10M190 387h10M220 387h10M240 387h10M270 387h10M190 388h10M220 388h10M240 388h10M270 388h10M190 389h10M220 389h10M240 389h10M270 389h10M180 390h10M200 390h20M230 390h10M250 390h18M269 390h1M280 390h10M180 391h10M200 391h20M230 391h10M250 391h20M280 391h10M180 392h10M201 392h5M207 392h13M230 392h10M250 392h20M280 392h10M180 393h10M200 393h20M230 393h10M250 393h20M280 393h10M180 394h10M200 394h20M230 394h10M250 394h20M280 394h10M180 395h10M200 395h20M230 395h10M250 395h14M265 395h5M280 395h10M180 396h10M200 396h20M230 396h10M250 396h20M280 396h10M180 397h10M200 397h20M230 397h10M250 397h20M280 397h10M180 398h10M200 398h20M230 398h10M250 398h20M280 398h10M180 399h10M200 399h20M230 399h10M250 399h20M280 399h10M180 400h10M200 400h10M230 400h10M260 400h10M280 400h10M180 401h10M200 401h10M230 401h10M260 401h10M280 401h10M180 402h10M200 402h10M230 402h10M260 402h10M280 402h10M180 403h10M200 403h10M230 403h10M260 403h10M280 403h10M180 404h10M200 404h10M230 404h10M260 404h10M280 404h10M180 405h10M200 405h10M230 405h10M260 405h10M280 405h10M180 406h10M200 406h10M230 406h10M260 406h10M280 406h10M180 407h10M200 407h10M230 407h10M260 407h10M280 407h10M180 408h10M200 408h10M230 408h10M260 408h1M262 408h8M280 408h10M180 409h10M200 409h10M230 409h10M260 409h10M280 409h10M180 410h10M210 410h10M230 410h10M250 410h10M280 410h10M180 411h10M210 411h10M230 411h10M250 411h10M280 411h10M180 412h10M210 412h10M230 412h10M250 412h10M280 412h10M180 413h10M210 413h10M230 413h10M250 413h10M280 413h10M180 414h10M210 414h10M230 414h10M250 414h10M280 414h10M180 415h10M210 415h10M230 415h10M250 415h10M280 415h10M180 416h10M210 416h10M230 416h10M250 416h10M280 416h10M180 417h10M210 417h10M230 417h10M250 417h10M280 417h10M180 418h10M210 418h10M230 418h10M250 418h10M280 418h10M180 419h10M210 419h10M230 419h10M250 419h10M280 419h10" />
<path stroke="#ddd14c" d="M200 220h70M200 221h70M200 222h70M200 223h70M200 224h70M200 225h70M200 226h70M200 227h70M200 228h70M200 229h70M190 230h90M190 231h90M190 232h90M190 233h60M251 233h29M190 234h55M246 234h23M270 234h10M190 235h90M190 236h45M236 236h44M190 237h90M190 238h16M207 238h73M190 239h90M190 240h20M260 240h20M190 241h20M260 241h20M190 242h20M260 242h4M265 242h15M190 243h20M260 243h20M190 244h20M260 244h20M190 245h20M260 245h20M190 246h20M260 246h20M190 247h20M260 247h20M190 248h20M260 248h20M190 249h20M260 249h20M190 250h10M270 250h10M190 251h10M270 251h10M190 252h10M270 252h10M190 253h10M270 253h10M190 254h10M270 254h10M190 255h10M270 255h10M190 256h10M270 256h10M190 257h10M270 257h10M190 258h10M270 258h10M190 259h10M270 259h10M190 260h10M270 260h10M190 261h10M270 261h10M190 262h10M270 262h10M190 263h10M270 263h10M190 264h10M270 264h10M190 265h10M270 265h10M190 266h10M270 266h10M190 267h10M270 267h10M190 268h10M270 268h10M190 269h10M270 269h10M190 270h10M270 270h10M190 271h10M270 271h10M190 272h10M270 272h10M190 273h10M270 273h10M190 274h10M270 274h10M190 275h10M270 275h10M190 276h10M270 276h10M190 277h10M270 277h10M190 278h10M270 278h10M190 279h10M270 279h10M190 280h10M270 280h10M190 281h10M270 281h10M190 282h10M270 282h10M190 283h10M270 283h10M190 284h10M270 284h10M190 285h10M270 285h10M190 286h10M270 286h10M190 287h10M270 287h10M190 288h10M270 288h10M190 289h10M270 289h10M190 290h10M270 290h10M190 291h10M270 291h10M190 292h10M270 292h10M190 293h10M270 293h10M190 294h10M270 294h10M190 295h10M270 295h10M190 296h10M270 296h10M190 297h10M270 297h10M190 298h10M270 298h10M190 299h10M270 299h10M190 350h10M270 350h10M190 351h10M270 351h10M190 352h10M270 352h10M190 353h10M270 353h10M190 354h10M270 354h10M190 355h10M270 355h10M190 356h10M270 356h10M190 357h10M270 357h10M190 358h10M270 358h10M190 359h10M270 359h10M190 360h20M260 360h20M190 361h20M260 361h20M190 362h20M260 362h20M190 363h20M260 363h20M190 364h20M260 364h20M190 365h20M260 365h20M190 366h20M260 366h20M190 367h20M260 367h20M190 368h20M260 368h20M190 369h20M260 369h20M190 370h10M270 370h10M190 371h10M270 371h10M190 372h10M270 372h10M190 373h10M270 373h10M190 374h10M270 374h7M278 374h2M190 375h10M270 375h10M190 376h10M270 376h10M190 377h10M270 377h10M190 378h10M270 378h10M190 379h10M270 379h10" />
<path stroke="#ddd04c" d="M250 233h1M235 236h1M277 374h1" />
<path stroke="#ddd14d" d="M245 234h1M269 234h1M206 238h1" />
<path stroke="#010000" d="M282 236h1M243 252h1M180 342h1M264 395h1M261 408h1" />
<path stroke="#ecbcb4" d="M210 240h9M220 240h40M210 241h50M210 242h50M210 243h50M210 244h50M210 245h50M210 246h38M249 246h11M210 247h50M210 248h50M210 249h50M230 250h10M230 251h10M230 252h10M230 253h10M230 254h5M236 254h4M230 255h10M230 256h10M230 257h10M230 258h10M230 259h10M200 260h70M200 261h70M200 262h70M200 263h70M200 264h70M200 265h70M200 266h70M200 267h70M200 268h70M200 269h70M210 270h10M230 270h10M250 270h10M210 271h10M230 271h10M250 271h10M210 272h10M230 272h10M250 272h10M210 273h10M230 273h10M250 273h10M210 274h10M230 274h10M250 274h10M210 275h10M230 275h10M250 275h10M210 276h10M230 276h10M250 276h10M210 277h10M230 277h10M250 277h10M210 278h10M230 278h10M250 278h10M210 279h10M230 279h10M250 279h10M200 280h10M220 280h30M260 280h10M200 281h10M220 281h13M234 281h16M260 281h10M200 282h10M220 282h30M260 282h10M200 283h10M220 283h30M260 283h10M200 284h10M220 284h30M260 284h10M200 285h10M220 285h30M260 285h10M200 286h10M220 286h30M260 286h10M200 287h10M220 287h30M260 287h10M200 288h10M220 288h30M260 288h10M200 289h10M220 289h30M260 289h10M180 290h10M200 290h30M240 290h30M280 290h10M180 291h10M200 291h30M240 291h30M280 291h10M180 292h10M200 292h30M240 292h30M280 292h10M180 293h10M200 293h30M240 293h30M280 293h10M180 294h10M200 294h30M240 294h30M280 294h10M180 295h10M200 295h30M240 295h30M280 295h10M180 296h10M200 296h30M240 296h30M280 296h10M180 297h10M200 297h30M240 297h30M280 297h10M180 298h10M200 298h30M240 298h30M280 298h10M180 299h10M200 299h30M240 299h30M280 299h10M180 300h20M210 300h20M240 300h20M270 300h20M180 301h20M210 301h20M240 301h20M270 301h20M180 302h20M210 302h20M240 302h20M270 302h20M180 303h20M210 303h20M240 303h20M270 303h20M180 304h20M210 304h20M240 304h20M270 304h20M180 305h20M210 305h20M240 305h20M270 305h20M180 306h20M210 306h20M240 306h20M270 306h20M180 307h20M210 307h20M240 307h20M270 307h20M180 308h20M210 308h20M240 308h20M270 308h20M180 309h20M210 309h20M240 309h20M270 309h20M190 310h30M230 310h50M190 311h30M230 311h32M263 311h17M190 312h30M230 312h50M190 313h30M230 313h50M190 314h30M230 314h50M190 315h30M230 315h50M190 316h30M230 316h50M190 317h30M230 317h50M190 318h30M230 318h50M190 319h30M230 319h50M190 320h40M240 320h40M190 321h40M240 321h40M190 322h40M240 322h40M190 323h40M240 323h40M190 324h40M240 324h40M190 325h40M240 325h40M190 326h40M240 326h40M190 327h40M240 327h40M190 328h40M240 328h40M190 329h40M240 329h40M190 330h20M211 330h9M250 330h30M190 331h30M250 331h30M190 332h30M250 332h30M190 333h30M250 333h30M190 334h30M250 334h30M190 335h30M250 335h30M190 336h30M250 336h30M190 337h30M250 337h30M190 338h30M250 338h30M190 339h30M250 339h30M200 340h20M250 340h20M200 341h20M250 341h20M200 342h20M250 342h20M200 343h20M250 343h20M200 344h20M250 344h20M200 345h20M250 345h20M200 346h20M250 346h20M200 347h20M250 347h20M200 348h20M250 348h20M200 349h1M202 349h18M250 349h20M210 350h50M210 351h50M210 352h50M210 353h50M210 354h50M210 355h50M210 356h50M210 357h50M210 358h50M210 359h27M238 359h22M220 360h30M220 361h30M220 362h30M220 363h8M229 363h21M220 364h30M220 365h30M220 366h30M220 367h30M220 368h30M220 369h30M230 370h10M230 371h10M230 372h10M230 373h10M230 374h10M230 375h10M230 376h10M230 377h10M230 378h10M230 379h10M230 380h10M230 381h10M230 382h10M230 383h10M230 384h10M230 385h10M230 386h10M230 387h10M230 388h10M230 389h10" />
<path stroke="#edbcb4" d="M219 240h1M210 330h1M201 349h1M237 359h1M228 363h1" />
<path stroke="#dcd14c" d="M264 242h1" />
<path stroke="#ecbcb5" d="M248 246h1M233 281h1" />
<path stroke="#ecbdb4" d="M235 254h1M262 311h1" />
<path stroke="#000100" d="M181 260h1M289 266h1M280 325h1M268 390h1" />
<path stroke="#000001" d="M218 287h1M233 290h1M290 299h1M200 392h1M206 392h1" />
<path stroke="#f00060" d="M200 300h10M260 300h10M200 301h10M260 301h10M200 302h10M260 302h10M200 303h10M260 303h6M267 303h3M200 304h10M260 304h10M200 305h10M260 305h10M200 306h10M260 306h10M200 307h10M260 307h10M200 308h10M260 308h10M200 309h10M260 309h10" />
<path stroke="#f00061" d="M266 303h1" />
<path stroke="#cc3300" d="M220 330h30M220 331h30M220 332h30M220 333h30M220 334h30M220 335h30M220 336h30M220 337h30M220 338h30M220 339h30M220 340h30M220 341h30M220 342h30M220 343h30M220 344h30M220 345h30M220 346h30M220 347h30M220 348h30M220 349h30" />
<path stroke="#ffffff" d="M210 370h10M250 370h10M210 371h10M250 371h10M210 372h10M250 372h10M210 373h10M250 373h10M210 374h10M250 374h10M210 375h10M250 375h10M210 376h10M250 376h10M210 377h10M250 377h10M210 378h10M250 378h10M210 379h10M250 379h10M200 380h20M250 380h20M200 381h20M250 381h20M200 382h20M250 382h20M200 383h20M250 383h20M200 384h20M250 384h20M200 385h20M250 385h20M200 386h20M250 386h20M200 387h20M250 387h20M200 388h20M250 388h18M269 388h1M200 389h20M250 389h20M190 390h10M220 390h10M240 390h10M270 390h10M190 391h10M221 391h9M240 391h10M270 391h10M190 392h10M220 392h10M240 392h10M270 392h10M190 393h10M220 393h10M240 393h10M270 393h10M190 394h10M220 394h10M240 394h10M270 394h10M190 395h10M220 395h10M240 395h10M270 395h10M190 396h6M197 396h3M220 396h10M240 396h10M270 396h10M190 397h10M220 397h10M240 397h10M270 397h10M190 398h10M220 398h10M240 398h10M270 398h10M190 399h10M220 399h10M240 399h10M270 399h10M190 400h7M198 400h2M210 400h20M240 400h20M270 400h10M190 401h10M210 401h20M240 401h20M270 401h10M190 402h10M210 402h20M240 402h20M270 402h10M190 403h10M210 403h20M240 403h20M270 403h10M190 404h10M210 404h20M240 404h20M270 404h10M190 405h10M210 405h20M240 405h20M270 405h10M190 406h10M210 406h20M240 406h20M270 406h10M190 407h10M210 407h20M240 407h20M270 407h10M190 408h10M210 408h20M240 408h20M270 408h10M190 409h10M210 409h20M240 409h17M258 409h2M270 409h10M190 410h20M220 410h10M240 410h10M260 410h20M190 411h20M220 411h10M240 411h10M260 411h20M190 412h20M220 412h10M240 412h10M260 412h20M190 413h20M220 413h10M240 413h10M260 413h20M190 414h20M220 414h10M240 414h10M260 414h20M190 415h20M220 415h10M240 415h10M260 415h20M190 416h20M220 416h10M240 416h10M260 416h20M190 417h20M220 417h10M240 417h10M260 417h20M190 418h20M220 418h10M240 418h10M260 418h20M190 419h20M220 419h10M240 419h10M260 419h20" />
<path stroke="#fffeff" d="M268 388h1M220 391h1M196 396h1" />
<path stroke="#fffffe" d="M197 400h1M257 409h1" />
</svg>