<svg xmlns="http://www.w3.org/2000/svg" viewBox="0 -0.5 480 480" shape-rendering="crispEdges">
<metadata>Made with Pixels to Svg https://codepen.io/shshaw/pen/XbxvNj</metadata>
<path stroke="#000000" d="M200 170h30M250 170h30M200 171h30M250 171h30M200 172h30M250 172h30M200 173h30M250 173h30M200 174h30M250 174h30M200 175h30M250 175h30M200 176h30M250 176h30M200 177h30M250 177h30M200 178h30M250 178h30M200 179h30M250 179h30M190 180h10M230 180h20M280 180h10M190 181h10M230 181h20M280 181h10M190 182h10M230 182h20M280 182h10M190 183h10M230 183h20M280 183h10M190 184h10M230 184h20M280 184h10M190 185h10M230 185h20M280 185h10M190 186h10M230 186h20M280 186h10M190 187h10M230 187h20M280 187h10M190 188h10M230 188h20M280 188h10M190 189h10M230 189h20M280 189h10M190 190h10M280 190h10M190 191h10M280 191h10M190 192h10M280 192h10M190 193h10M280 193h10M190 194h10M280 194h10M190 195h10M280 195h10M190 196h10M280 196h10M190 197h10M280 197h10M190 198h10M280 198h10M190 199h10M280 199h10M170 200h30M280 200h30M170 201h30M280 201h30M170 202h30M280 202h30M170 203h30M280 203h30M170 204h30M280 204h30M170 205h30M280 205h30M170 206h30M280 206h30M170 207h30M280 207h30M170 208h30M280 208h30M170 209h30M280 209h30M160 210h10M190 210h10M280 210h10M310 210h10M160 211h10M190 211h10M280 211h10M310 211h10M160 212h10M190 212h10M280 212h10M310 212h10M160 213h10M190 213h10M280 213h10M310 213h10M160 214h10M190 214h10M280 214h10M310 214h10M160 215h10M190 215h10M280 215h10M310 215h10M160 216h10M190 216h10M280 216h10M310 216h10M160 217h10M190 217h10M280 217h3M284 217h6M310 217h10M160 218h10M190 218h10M280 218h10M310 218h10M160 219h10M190 219h10M280 219h10M310 219h10M150 220h10M190 220h20M270 220h20M320 220h10M150 221h10M190 221h20M270 221h20M320 221h10M150 222h10M190 222h20M270 222h20M320 222h10M150 223h10M190 223h20M270 223h20M320 223h10M150 224h10M190 224h20M270 224h20M320 224h10M150 225h10M190 225h20M270 225h20M320 225h10M150 226h10M190 226h20M270 226h20M320 226h10M150 227h10M190 227h20M270 227h20M320 227h10M150 228h10M190 228h20M270 228h20M320 228h10M150 229h10M190 229h20M270 229h20M320 229h10M150 230h10M200 230h80M320 230h10M150 231h10M200 231h80M320 231h10M150 232h10M200 232h80M320 232h10M150 233h10M200 233h80M320 233h10M150 234h10M200 234h80M320 234h10M150 235h10M200 235h80M320 235h10M150 236h10M200 236h40M241 236h39M320 236h10M150 237h10M200 237h80M320 237h10M150 238h10M200 238h80M320 238h10M150 239h10M200 239h24M225 239h55M320 239h10M160 240h10M210 240h60M310 240h10M160 241h10M210 241h60M310 241h10M160 242h6M167 242h3M210 242h60M310 242h10M160 243h10M210 243h60M310 243h10M160 244h10M210 244h60M310 244h10M160 245h10M210 245h60M310 245h10M160 246h10M210 246h60M310 246h10M160 247h10M210 247h60M310 247h10M160 248h10M210 248h60M310 248h10M160 249h10M210 249h60M310 249h10M170 250h20M290 250h20M170 251h20M290 251h20M170 252h20M290 252h20M170 253h20M290 253h20M170 254h20M290 254h20M170 255h20M290 255h20M170 256h20M290 256h20M170 257h20M290 257h20M170 258h20M290 258h20M170 259h20M290 259h20M170 260h10M190 260h20M270 260h20M300 260h10M170 261h10M190 261h20M270 261h20M300 261h10M170 262h10M190 262h3M194 262h16M270 262h20M300 262h10M170 263h10M190 263h20M270 263h20M300 263h10M170 264h10M190 264h20M270 264h20M300 264h10M170 265h10M190 265h20M270 265h20M300 265h10M170 266h10M190 266h20M270 266h20M300 266h10M170 267h10M190 267h20M270 267h20M300 267h10M170 268h10M190 268h20M270 268h20M300 268h10M170 269h10M190 269h20M270 269h20M300 269h10M170 270h10M210 270h60M300 270h10M170 271h10M210 271h60M300 271h10M170 272h10M210 272h60M300 272h10M170 273h10M210 273h60M300 273h10M170 274h10M210 274h60M300 274h10M170 275h10M210 275h60M300 275h10M170 276h10M210 276h60M300 276h10M170 277h10M210 277h60M300 277h10M170 278h10M210 278h60M300 278h10M170 279h10M210 279h60M300 279h10M180 280h20M280 280h20M180 281h20M280 281h20M180 282h20M280 282h20M180 283h20M280 283h20M180 284h20M280 284h20M180 285h20M280 285h20M180 286h20M280 286h20M180 287h20M280 287h20M180 288h20M280 288h20M180 289h20M280 289h20M190 290h10M280 290h10M190 291h10M280 291h10M190 292h10M280 292h10M190 293h10M280 293h10M190 294h1M192 294h8M280 294h10M190 295h10M280 295h10M190 296h10M280 296h10M190 297h10M280 297h10M190 298h10M280 298h10M190 299h10M280 299h10M190 300h10M280 300h10M190 301h10M280 301h10M190 302h10M280 302h10M190 303h10M280 303h10M190 304h10M280 304h10M190 305h10M280 305h10M190 306h10M280 306h10M190 307h10M280 307h10M190 308h10M280 308h10M190 309h10M280 309h10M170 310h30M280 310h30M170 311h30M280 311h30M170 312h30M280 312h30M170 313h30M280 313h30M170 314h30M280 314h30M170 315h30M280 315h30M170 316h30M280 316h30M170 317h30M280 317h30M170 318h30M280 318h30M170 319h30M280 319h30M170 320h10M190 320h10M280 320h10M300 320h10M170 321h10M190 321h10M280 321h10M300 321h10M170 322h10M190 322h10M280 322h10M300 322h10M170 323h6M177 323h3M190 323h10M280 323h10M300 323h10M170 324h10M190 324h10M280 324h10M300 324h10M170 325h10M190 325h10M280 325h10M300 325h10M170 326h10M190 326h10M280 326h10M300 326h10M170 327h10M190 327h10M280 327h10M300 327h10M170 328h10M190 328h10M280 328h10M300 328h10M170 329h10M190 329h10M280 329h10M300 329h10M170 330h10M200 330h10M270 330h10M300 330h10M170 331h10M200 331h10M270 331h10M300 331h10M170 332h10M200 332h10M270 332h10M300 332h10M170 333h10M200 333h10M270 333h10M300 333h10M170 334h10M200 334h10M270 334h10M300 334h10M170 335h10M200 335h10M270 335h10M300 335h10M170 336h10M200 336h10M270 336h10M300 336h10M170 337h10M200 337h10M270 337h10M300 337h10M170 338h10M200 338h10M270 338h10M300 338h10M170 339h10M200 339h10M270 339h10M300 339h10M170 340h10M200 340h20M260 340h20M300 340h10M170 341h10M200 341h20M260 341h20M300 341h10M170 342h10M200 342h20M260 342h20M300 342h10M170 343h10M200 343h20M260 343h20M300 343h10M170 344h10M200 344h20M260 344h20M300 344h10M170 345h10M200 345h20M260 345h20M300 345h10M170 346h10M200 346h20M260 346h20M300 346h10M170 347h10M200 347h20M260 347h20M300 347h10M170 348h10M200 348h20M260 348h20M300 348h10M170 349h10M200 349h20M260 349h20M300 349h10M180 350h10M210 350h60M290 350h10M180 351h10M210 351h60M290 351h10M180 352h10M210 352h60M290 352h10M180 353h10M210 353h60M290 353h10M180 354h10M210 354h60M290 354h10M180 355h10M210 355h60M290 355h10M180 356h10M210 356h60M290 356h10M180 357h10M210 357h60M290 357h10M180 358h10M210 358h60M290 358h10M180 359h10M210 359h60M290 359h10M180 360h10M220 360h40M290 360h10M180 361h10M220 361h40M290 361h10M180 362h10M220 362h40M290 362h10M180 363h10M220 363h40M290 363h10M180 364h10M220 364h40M290 364h10M180 365h10M220 365h40M290 365h10M180 366h10M220 366h40M290 366h10M180 367h10M220 367h40M290 367h10M180 368h10M220 368h40M290 368h10M180 369h10M220 369h40M290 369h10M160 370h20M230 370h20M300 370h20M160 371h20M230 371h20M300 371h20M160 372h20M230 372h20M300 372h20M160 373h20M230 373h20M300 373h20M160 374h20M230 374h20M300 374h20M160 375h20M230 375h20M300 375h20M160 376h20M230 376h20M300 376h20M160 377h20M230 377h20M300 377h20M160 378h20M230 378h20M300 378h20M160 379h5M166 379h14M230 379h20M300 379h20M150 380h10M320 380h10M150 381h10M320 381h10M150 382h10M320 382h10M150 383h10M320 383h10M150 384h10M320 384h10M150 385h10M320 385h10M150 386h10M320 386h10M150 387h10M320 387h10M150 388h10M320 388h10M150 389h10M320 389h10M140 390h10M330 390h10M140 391h10M330 391h10M140 392h10M330 392h10M140 393h10M330 393h10M140 394h10M330 394h10M140 395h10M330 395h10M140 396h10M330 396h10M140 397h8M149 397h1M330 397h10M140 398h10M330 398h10M140 399h10M330 399h10M140 400h10M330 400h10M140 401h10M330 401h10M140 402h10M330 402h10M140 403h10M330 403h10M140 404h10M330 404h10M140 405h10M330 405h10M140 406h10M330 406h10M140 407h10M330 407h10M140 408h10M330 408h10M140 409h10M330 409h10M140 410h10M330 410h10M140 411h10M330 411h10M140 412h10M330 412h10M140 413h10M330 413h10M140 414h10M330 414h10M140 415h10M330 415h10M140 416h10M330 416h10M140 417h10M330 417h10M140 418h10M330 418h10M140 419h10M330 419h10M140 420h10M330 420h10M140 421h10M330 421h10M140 422h10M330 422h10M140 423h10M330 423h10M140 424h10M330 424h10M140 425h10M330 425h10M140 426h10M330 426h10M140 427h10M330 427h10M140 428h10M330 428h10M140 429h10M330 429h10M140 430h10M330 430h10M140 431h10M330 431h10M140 432h10M330 432h10M140 433h10M330 433h10M140 434h10M330 434h10M140 435h10M330 435h10M140 436h10M330 436h10M141 437h9M330 437h10M140 438h10M330 438h10M140 439h10M330 439h7M338 439h2" />
<path stroke="#2000b2" d="M200 180h30M250 180h30M200 181h30M250 181h30M200 182h30M250 182h30M200 183h30M250 183h30M200 184h30M250 184h30M200 185h30M250 185h30M200 186h30M250 186h30M200 187h30M250 187h30M200 188h30M250 188h30M200 189h30M250 189h30M200 190h80M200 191h80M200 192h80M200 193h80M200 194h80M200 195h80M200 196h80M200 197h80M200 198h80M200 199h80M200 200h37M238 200h42M200 201h80M200 202h80M200 203h80M200 204h80M200 205h80M200 206h80M200 207h80M200 208h80M200 209h80M170 210h20M200 210h80M290 210h20M170 211h20M200 211h80M290 211h20M170 212h20M200 212h80M290 212h20M170 213h20M200 213h80M290 213h20M170 214h20M200 214h80M290 214h20M170 215h20M200 215h80M290 215h20M170 216h20M200 216h46M247 216h33M290 216h20M170 217h20M200 217h80M290 217h20M170 218h20M200 218h80M290 218h20M170 219h20M200 219h80M290 219h20M160 220h30M210 220h60M290 220h30M160 221h30M210 221h60M290 221h30M160 222h30M210 222h60M290 222h30M160 223h30M210 223h60M290 223h30M160 224h30M210 224h60M290 224h30M160 225h30M210 225h60M290 225h30M160 226h30M210 226h60M290 226h30M160 227h30M210 227h60M290 227h30M160 228h30M210 228h60M290 228h30M160 229h30M210 229h60M290 229h30M160 230h40M280 230h40M160 231h40M280 231h40M160 232h40M280 232h40M160 233h40M280 233h40M160 234h40M280 234h40M160 235h40M280 235h40M160 236h40M280 236h40M160 237h40M280 237h40M160 238h40M280 238h40M160 239h9M170 239h30M280 239h40M170 240h40M270 240h40M170 241h40M270 241h40M170 242h40M270 242h40M170 243h40M270 243h40M170 244h40M270 244h40M170 245h40M270 245h40M170 246h40M270 246h40M170 247h40M270 247h40M170 248h40M270 248h40M170 249h40M270 249h40M190 250h100M190 251h100M190 252h100M190 253h100M190 254h100M190 255h100M190 256h100M190 257h100M190 258h100M190 259h100M180 260h10M210 260h60M290 260h10M180 261h10M210 261h60M290 261h10M180 262h10M210 262h60M290 262h10M180 263h10M210 263h60M290 263h10M180 264h10M210 264h60M290 264h10M180 265h10M210 265h60M290 265h10M180 266h10M210 266h60M290 266h10M180 267h10M210 267h60M290 267h10M180 268h10M210 268h60M290 268h10M180 269h10M210 269h60M290 269h10M180 270h30M270 270h30M180 271h30M270 271h30M180 272h30M270 272h30M180 273h30M270 273h30M180 274h30M270 274h30M180 275h30M270 275h30M180 276h30M270 276h30M180 277h30M270 277h30M180 278h30M270 278h30M180 279h30M270 279h30M200 280h10M230 280h20M270 280h10M200 281h10M230 281h20M270 281h10M200 282h10M230 282h20M270 282h10M200 283h10M230 283h20M270 283h10M200 284h10M230 284h20M270 284h10M200 285h10M230 285h20M270 285h10M200 286h10M230 286h20M270 286h10M200 287h10M230 287h20M270 287h10M200 288h10M230 288h20M270 288h10M200 289h10M230 289h20M270 289h10M200 290h80M200 291h80M200 292h80M200 293h14M215 293h65M200 294h80M200 295h80M200 296h80M200 297h80M200 298h80M200 299h80M200 300h10M220 300h40M270 300h10M200 301h10M220 301h40M271 301h9M200 302h10M220 302h40M270 302h10M200 303h10M220 303h40M270 303h10M200 304h10M220 304h40M270 304h10M200 305h10M220 305h40M270 305h10M200 306h10M220 306h40M270 306h1M272 306h8M200 307h10M220 307h40M270 307h10M200 308h10M220 308h40M270 308h10M200 309h10M220 309h40M270 309h10M200 310h10M230 310h20M270 310h10M200 311h10M230 311h20M270 311h10M200 312h10M230 312h20M270 312h10M200 313h10M230 313h20M270 313h10M200 314h10M230 314h20M270 314h10M200 315h10M230 315h20M270 315h10M200 316h10M230 316h20M270 316h10M200 317h10M230 317h20M270 317h10M200 318h10M230 318h20M270 318h10M200 319h10M230 319h20M270 319h10M180 320h10M200 320h20M260 320h20M290 320h10M180 321h10M200 321h20M260 321h20M290 321h10M180 322h10M200 322h20M260 322h20M290 322h10M180 323h10M200 323h20M260 323h20M290 323h10M180 324h10M200 324h15M216 324h4M260 324h20M290 324h10M180 325h10M200 325h20M260 325h20M290 325h10M180 326h10M200 326h20M260 326h20M290 326h10M180 327h10M200 327h20M260 327h20M290 327h10M180 328h7M188 328h2M200 328h20M260 328h20M290 328h10M180 329h10M200 329h20M260 329h20M290 329h10M180 330h20M210 330h20M250 330h20M280 330h20M180 331h20M210 331h20M250 331h20M280 331h20M180 332h20M210 332h20M250 332h20M280 332h20M180 333h20M210 333h20M250 333h20M280 333h11M292 333h8M180 334h20M210 334h20M250 334h20M280 334h20M180 335h20M210 335h20M250 335h20M280 335h20M180 336h20M210 336h20M250 336h20M280 336h20M180 337h20M210 337h20M250 337h20M280 337h20M180 338h20M210 338h20M250 338h20M280 338h20M180 339h20M210 339h20M250 339h20M280 339h20M180 340h20M220 340h40M280 340h20M180 341h20M220 341h40M280 341h20M180 342h20M220 342h40M280 342h20M180 343h20M220 343h40M280 343h20M180 344h20M220 344h40M280 344h20M180 345h20M220 345h40M280 345h20M180 346h20M220 346h40M280 346h20M180 347h20M220 347h40M280 347h20M180 348h20M220 348h40M280 348h20M180 349h20M220 349h25M246 349h14M280 349h20M190 350h20M270 350h20M190 351h20M270 351h20M190 352h20M270 352h20M190 353h20M270 353h20M190 354h20M270 354h20M190 355h20M270 355h20M190 356h20M270 356h20M190 357h20M270 357h20M190 358h20M270 358h20M190 359h20M270 359h20M190 360h30M260 360h30M190 361h30M260 361h30M190 362h30M260 362h30M190 363h30M260 363h30M190 364h30M260 364h30M190 365h30M260 365h30M190 366h24M215 366h5M260 366h30M190 367h30M260 367h30M190 368h30M260 368h30M190 369h30M260 369h30M180 370h50M250 370h34M285 370h15M180 371h50M250 371h50M180 372h12M193 372h37M250 372h50M180 373h50M250 373h50M180 374h50M250 374h50M180 375h50M250 375h50M180 376h50M250 376h50M180 377h50M250 377h17M268 377h32M180 378h50M250 378h50M180 379h50M250 379h50M160 380h160M160 381h37M198 381h122M160 382h160M160 383h160M160 384h160M160 385h160M160 386h160M160 387h160M160 388h160M160 389h160M150 390h20M200 390h10M240 390h10M260 390h10M280 390h10M320 390h10M150 391h20M200 391h10M240 391h10M260 391h10M280 391h10M320 391h10M150 392h20M200 392h10M240 392h10M260 392h10M280 392h10M320 392h10M150 393h20M201 393h9M240 393h10M260 393h10M280 393h10M320 393h10M150 394h20M200 394h10M240 394h10M260 394h10M280 394h10M320 394h10M150 395h20M200 395h10M240 395h10M260 395h10M280 395h10M320 395h10M150 396h20M200 396h10M240 396h10M260 396h10M280 396h10M320 396h10M150 397h20M200 397h10M240 397h10M260 397h10M280 397h10M320 397h10M150 398h20M200 398h10M240 398h10M260 398h10M280 398h10M320 398h10M150 399h20M200 399h10M240 399h8M249 399h1M260 399h10M280 399h10M320 399h10M150 400h20M180 400h10M200 400h10M220 400h30M260 400h10M280 400h20M310 400h20M150 401h20M180 401h10M200 401h10M220 401h30M260 401h10M280 401h20M310 401h18M329 401h1M150 402h20M180 402h10M200 402h10M220 402h30M260 402h10M281 402h19M310 402h20M150 403h20M180 403h10M200 403h10M220 403h30M260 403h10M280 403h20M310 403h20M150 404h20M180 404h10M200 404h10M220 404h30M260 404h10M280 404h20M310 404h20M150 405h20M180 405h10M200 405h10M220 405h30M260 405h10M280 405h20M310 405h20M150 406h20M180 406h10M200 406h10M220 406h30M260 406h10M280 406h20M310 406h20M150 407h20M180 407h10M200 407h10M220 407h30M260 407h10M280 407h20M310 407h20M150 408h20M180 408h10M200 408h10M220 408h30M260 408h10M280 408h20M310 408h20M150 409h20M180 409h10M200 409h10M220 409h30M260 409h10M280 409h20M310 409h20M150 410h20M190 410h20M230 410h20M270 410h30M310 410h20M150 411h20M190 411h20M230 411h20M270 411h30M310 411h20M150 412h20M190 412h20M230 412h20M270 412h30M310 412h20M150 413h20M190 413h20M230 413h20M270 413h30M310 413h20M150 414h20M190 414h20M230 414h20M270 414h30M310 414h20M150 415h20M190 415h20M230 415h20M270 415h30M310 415h20M150 416h20M190 416h20M230 416h20M270 416h14M285 416h15M310 416h20M150 417h20M190 417h20M230 417h20M270 417h30M310 417h20M150 418h20M190 418h20M230 418h20M270 418h30M310 418h20M150 419h20M190 419h20M230 419h20M270 419h30M310 419h20M150 420h20M180 420h10M200 420h10M220 420h30M260 420h10M280 420h20M310 420h20M150 421h20M180 421h10M200 421h10M220 421h30M260 421h10M280 421h20M310 421h20M150 422h20M180 422h10M200 422h10M220 422h30M260 422h10M280 422h10M291 422h9M310 422h20M150 423h10M161 423h9M180 423h10M200 423h10M220 423h30M260 423h10M280 423h20M310 423h20M150 424h20M180 424h10M200 424h10M220 424h30M260 424h10M280 424h20M310 424h20M150 425h20M180 425h10M200 425h10M220 425h30M260 425h10M280 425h20M310 425h20M150 426h20M180 426h10M200 426h10M220 426h30M260 426h10M280 426h20M310 426h20M150 427h20M180 427h10M200 427h10M220 427h30M260 427h10M280 427h20M310 427h20M150 428h20M180 428h10M200 428h10M220 428h30M260 428h10M280 428h20M310 428h20M150 429h20M180 429h10M200 429h10M220 429h30M260 429h10M280 429h20M310 429h20M150 430h20M180 430h10M200 430h10M240 430h10M260 430h10M280 430h20M310 430h20M150 431h20M180 431h10M200 431h10M240 431h10M260 431h10M280 431h20M310 431h11M322 431h8M150 432h20M180 432h10M200 432h10M240 432h10M260 432h10M280 432h20M310 432h20M150 433h20M180 433h10M200 433h10M240 433h10M260 433h10M280 433h20M310 433h20M150 434h20M180 434h10M200 434h10M240 434h10M260 434h10M280 434h20M310 434h20M150 435h20M180 435h10M200 435h10M240 435h10M260 435h10M280 435h20M310 435h20M150 436h20M180 436h10M200 436h10M240 436h10M260 436h10M280 436h20M310 436h20M150 437h20M180 437h10M200 437h10M240 437h10M260 437h10M280 437h20M310 437h20M150 438h20M180 438h10M200 438h10M240 438h10M260 438h10M280 438h20M310 438h20M150 439h20M180 439h10M200 439h10M240 439h10M260 439h10M280 439h20M310 439h20" />
<path stroke="#2100b2" d="M237 200h1M246 216h1M270 301h1M291 333h1M192 372h1M267 377h1M321 431h1" />
<path stroke="#000100" d="M283 217h1M166 242h1M193 262h1M148 397h1M337 439h1" />
<path stroke="#010000" d="M240 236h1M165 379h1" />
<path stroke="#2001b2" d="M169 239h1M214 293h1M271 306h1M187 328h1M214 366h1M328 401h1M280 402h1M160 423h1" />
<path stroke="#000001" d="M224 239h1M191 294h1M176 323h1M140 437h1" />
<path stroke="#ffffff" d="M210 280h20M250 280h20M210 281h20M250 281h20M210 282h20M250 282h20M210 283h20M250 283h20M210 284h20M250 284h20M210 285h20M250 285h20M210 286h13M224 286h6M250 286h20M210 287h20M250 287h20M210 288h20M250 288h20M210 289h20M250 289h20" />
<path stroke="#fffeff" d="M223 286h1" />
<path stroke="#ff0000" d="M210 300h10M260 300h10M210 301h10M260 301h10M210 302h10M260 302h10M210 303h10M260 303h10M210 304h10M260 304h10M210 305h10M260 305h10M210 306h10M260 306h10M210 307h10M260 307h10M210 308h10M260 308h10M210 309h10M260 309h10M210 310h20M250 310h20M210 311h20M250 311h20M210 312h20M250 312h20M210 313h20M250 313h20M210 314h20M250 314h20M210 315h20M250 315h20M210 316h20M250 316h20M210 317h20M250 317h20M210 318h20M250 318h20M210 319h20M250 319h20M220 320h40M220 321h40M220 322h40M220 323h40M220 324h40M220 325h40M220 326h40M220 327h40M220 328h40M220 329h40M230 330h20M230 331h20M230 332h20M230 333h20M230 334h20M230 335h20M230 336h20M230 337h20M230 338h20M230 339h20M170 390h30M210 390h30M250 390h10M270 390h10M290 390h30M170 391h30M210 391h30M250 391h10M270 391h10M290 391h30M170 392h30M210 392h30M250 392h10M270 392h10M290 392h30M170 393h30M210 393h30M250 393h10M270 393h10M290 393h30M170 394h30M210 394h30M250 394h10M270 394h10M290 394h30M170 395h30M210 395h30M250 395h10M270 395h10M290 395h30M170 396h30M210 396h30M250 396h10M270 396h10M290 396h30M170 397h30M210 397h30M250 397h10M270 397h10M290 397h30M170 398h30M210 398h30M250 398h10M270 398h10M290 398h30M170 399h30M210 399h30M250 399h10M270 399h10M290 399h30M170 400h10M190 400h10M210 400h10M250 400h10M270 400h10M300 400h10M170 401h10M190 401h10M210 401h10M250 401h10M270 401h10M300 401h10M170 402h10M190 402h10M210 402h10M250 402h10M270 402h10M300 402h10M170 403h10M190 403h10M210 403h10M250 403h10M270 403h10M300 403h10M170 404h10M190 404h10M210 404h10M250 404h10M270 404h10M300 404h10M170 405h10M190 405h10M210 405h10M250 405h9M270 405h10M300 405h10M170 406h10M190 406h10M210 406h10M250 406h10M270 406h10M300 406h10M170 407h10M190 407h10M210 407h10M250 407h10M270 407h10M300 407h10M170 408h10M190 408h1M192 408h8M210 408h10M250 408h10M270 408h10M300 408h10M170 409h10M190 409h10M210 409h10M250 409h10M270 409h10M300 409h10M170 410h20M210 410h20M250 410h20M300 410h10M170 411h20M210 411h20M250 411h20M300 411h10M170 412h20M210 412h20M250 412h20M300 412h10M170 413h20M210 413h20M250 413h20M300 413h10M170 414h20M210 414h20M250 414h20M300 414h10M170 415h20M210 415h20M250 415h20M300 415h10M170 416h20M210 416h20M250 416h20M300 416h10M170 417h20M210 417h20M250 417h20M300 417h10M170 418h20M210 418h20M250 418h20M300 418h10M170 419h20M210 419h20M250 419h20M300 419h10M170 420h10M190 420h10M210 420h10M250 420h10M270 420h10M300 420h10M170 421h10M190 421h10M210 421h10M250 421h10M270 421h10M300 421h10M170 422h10M190 422h10M210 422h10M250 422h10M270 422h10M300 422h10M170 423h10M190 423h10M210 423h10M250 423h10M270 423h10M300 423h10M170 424h10M190 424h10M210 424h10M250 424h10M270 424h10M300 424h10M170 425h10M190 425h10M210 425h10M250 425h10M270 425h10M300 425h10M170 426h10M190 426h10M210 426h10M250 426h10M270 426h10M300 426h10M170 427h10M190 427h10M210 427h10M250 427h10M270 427h10M300 427h10M170 428h10M190 428h10M210 428h10M250 428h10M270 428h10M300 428h10M170 429h10M190 429h10M210 429h10M250 429h10M270 429h10M300 429h10M170 430h10M190 430h10M210 430h30M250 430h10M270 430h10M300 430h10M170 431h10M190 431h10M210 431h30M250 431h10M270 431h10M300 431h10M170 432h10M190 432h10M210 432h30M250 432h10M270 432h10M300 432h10M170 433h10M190 433h10M210 433h30M250 433h10M270 433h10M300 433h10M170 434h10M190 434h10M210 434h30M250 434h10M270 434h10M300 434h10M170 435h10M190 435h10M210 435h30M250 435h10M270 435h10M300 435h10M170 436h10M190 436h10M210 436h30M250 436h10M270 436h10M300 436h10M170 437h10M190 437h10M210 437h30M250 437h10M270 437h10M300 437h10M170 438h10M190 438h10M210 438h30M250 438h10M270 438h10M300 438h10M170 439h10M190 439h10M210 439h30M250 439h10M270 439h10M300 439h10" />
<path stroke="#2000b3" d="M215 324h1M245 349h1M284 370h1M197 381h1M200 393h1M248 399h1M284 416h1M290 422h1" />
<path stroke="#ff0100" d="M259 405h1" />
<path stroke="#ff0001" d="M191 408h1" />
</svg>