<svg xmlns="http://www.w3.org/2000/svg" viewBox="0 -0.5 480 480" shape-rendering="crispEdges">
<metadata>Made with Pixels to Svg https://codepen.io/shshaw/pen/XbxvNj</metadata>
<path stroke="#000000" d="M200 180h90M200 181h90M200 182h90M200 183h90M200 184h90M200 185h90M200 186h90M200 187h90M200 188h90M200 189h90M200 190h10M280 190h10M200 191h10M280 191h10M200 192h10M280 192h10M200 193h10M280 193h10M200 194h10M280 194h10M200 195h10M280 195h10M200 196h10M280 196h10M200 197h10M280 197h10M200 198h10M280 198h10M200 199h10M280 199h10M200 200h10M280 200h10M200 201h10M280 201h10M200 202h10M280 202h10M200 203h10M280 203h10M200 204h10M280 204h10M200 205h10M280 205h10M200 206h10M280 206h10M200 207h10M280 207h10M200 208h10M280 208h10M200 209h10M280 209h10M200 210h10M280 210h10M200 211h6M207 211h3M280 211h10M200 212h10M280 212h10M200 213h10M280 213h10M200 214h10M280 214h10M200 215h10M280 215h10M200 216h10M280 216h10M200 217h10M280 217h10M200 218h10M280 218h10M200 219h10M280 219h10M200 220h10M280 220h10M200 221h10M280 221h10M200 222h10M280 222h10M200 223h10M280 223h10M200 224h10M280 224h10M200 225h10M280 225h6M287 225h3M200 226h10M280 226h10M200 227h10M280 227h10M200 228h10M280 228h10M200 229h10M280 229h10M200 230h10M280 230h10M200 231h10M281 231h9M200 232h10M280 232h10M200 233h10M280 233h10M200 234h10M280 234h10M200 235h10M280 235h10M200 236h10M280 236h10M200 237h10M280 237h10M200 238h10M280 238h10M200 239h10M280 239h10M200 240h10M280 240h10M200 241h10M280 241h10M200 242h10M280 242h10M200 243h10M280 243h10M200 244h10M280 244h10M200 245h10M280 245h10M200 246h10M280 246h10M200 247h10M280 247h10M200 248h10M280 248h10M200 249h10M280 249h10M160 250h170M160 251h170M160 252h170M160 253h170M160 254h170M160 255h140M301 255h29M160 256h170M160 257h170M160 258h170M160 259h170M150 260h10M330 260h10M150 261h10M330 261h10M150 262h10M330 262h10M150 263h10M330 263h10M150 264h10M330 264h10M150 265h10M330 265h10M150 266h10M330 266h10M150 267h10M330 267h10M150 268h10M330 268h10M150 269h10M330 269h10M150 270h10M200 270h90M330 270h10M150 271h10M200 271h82M283 271h7M330 271h10M150 272h10M200 272h90M330 272h10M150 273h10M200 273h90M330 273h10M150 274h10M200 274h90M330 274h10M150 275h10M200 275h90M330 275h10M150 276h10M200 276h90M330 276h10M150 277h10M200 277h26M227 277h63M330 277h10M150 278h10M200 278h90M330 278h10M150 279h10M200 279h90M330 279h10M160 280h40M290 280h40M160 281h40M290 281h40M160 282h40M290 282h40M160 283h40M290 283h40M160 284h40M290 284h40M160 285h40M290 285h40M160 286h40M290 286h40M160 287h40M290 287h40M160 288h40M290 288h40M160 289h40M290 289h40M170 290h10M310 290h10M170 291h10M310 291h10M170 292h10M310 292h10M170 293h10M310 293h10M170 294h10M310 294h10M170 295h10M310 295h10M170 296h10M310 296h4M315 296h5M170 297h10M310 297h10M170 298h10M310 298h10M170 299h10M310 299h10M170 300h10M190 300h10M210 300h50M270 300h30M310 300h10M170 301h10M190 301h10M210 301h25M236 301h24M270 301h30M310 301h10M170 302h10M190 302h10M210 302h50M270 302h30M310 302h10M170 303h10M190 303h10M210 303h50M270 303h30M310 303h10M170 304h10M190 304h10M210 304h50M270 304h30M310 304h10M170 305h10M190 305h10M210 305h50M270 305h30M310 305h10M170 306h10M190 306h10M210 306h50M270 306h30M310 306h10M170 307h10M190 307h10M210 307h50M270 307h30M310 307h10M170 308h10M190 308h10M210 308h50M270 308h30M310 308h10M170 309h10M190 309h10M210 309h50M270 309h30M310 309h10M170 310h10M190 310h20M220 310h20M250 310h20M280 310h20M310 310h10M170 311h10M190 311h20M220 311h20M250 311h20M280 311h20M310 311h10M170 312h10M190 312h20M220 312h20M250 312h20M280 312h20M310 312h10M170 313h10M190 313h20M220 313h20M250 313h20M280 313h18M299 313h1M310 313h10M170 314h10M190 314h20M220 314h20M250 314h20M280 314h20M310 314h10M170 315h10M190 315h20M220 315h20M250 315h20M280 315h20M310 315h10M170 316h10M190 316h20M220 316h20M250 316h20M280 316h20M310 316h10M170 317h10M190 317h20M220 317h20M250 317h20M280 317h20M310 317h10M170 318h10M190 318h20M220 318h20M250 318h20M280 318h20M310 318h10M170 319h10M190 319h20M220 319h20M250 319h20M280 319h20M310 319h10M160 320h10M200 320h10M220 320h10M240 320h10M260 320h10M280 320h10M320 320h10M160 321h10M200 321h10M220 321h10M240 321h10M260 321h10M280 321h10M320 321h10M160 322h10M200 322h10M220 322h10M240 322h10M260 322h10M280 322h10M320 322h10M160 323h10M200 323h10M220 323h10M240 323h10M260 323h10M280 323h10M320 323h10M160 324h10M200 324h10M220 324h10M240 324h10M260 324h10M280 324h10M320 324h10M160 325h10M200 325h10M220 325h10M240 325h10M260 325h10M280 325h10M320 325h10M160 326h10M200 326h10M220 326h10M240 326h10M260 326h10M280 326h10M320 326h10M160 327h5M166 327h4M200 327h10M220 327h10M240 327h10M260 327h10M280 327h10M320 327h10M160 328h10M200 328h10M220 328h10M240 328h10M260 328h10M280 328h10M320 328h10M160 329h10M200 329h10M220 329h10M240 329h10M260 329h10M280 329h10M320 329h10M160 330h10M240 330h10M320 330h10M160 331h10M240 331h10M320 331h10M160 332h10M240 332h10M320 332h10M160 333h10M240 333h10M320 333h10M160 334h10M240 334h10M320 334h10M160 335h10M240 335h10M320 335h10M160 336h10M240 336h10M320 336h10M160 337h10M240 337h10M320 337h10M160 338h10M240 338h10M320 338h10M160 339h10M240 339h10M320 339h10M160 340h10M190 340h10M250 340h10M290 340h10M320 340h10M160 341h10M190 341h10M250 341h10M290 341h10M320 341h10M160 342h10M190 342h10M250 342h10M290 342h10M320 342h10M160 343h10M190 343h10M250 343h10M290 343h10M320 343h10M160 344h10M190 344h10M250 344h10M290 344h10M320 344h10M160 345h10M190 345h10M250 345h10M290 345h10M320 345h10M160 346h10M190 346h10M250 346h10M290 346h10M320 346h10M160 347h10M190 347h10M250 347h10M290 347h10M320 347h10M160 348h10M190 348h10M250 348h10M290 348h10M320 348h10M160 349h10M190 349h10M250 349h10M290 349h10M320 349h10M160 350h10M190 350h10M230 350h10M260 350h10M290 350h10M320 350h10M160 351h10M190 351h10M230 351h10M260 351h9M290 351h10M320 351h10M160 352h10M190 352h10M230 352h10M260 352h10M290 352h10M320 352h10M160 353h10M190 353h10M230 353h10M260 353h10M290 353h10M320 353h10M160 354h10M190 354h10M230 354h10M260 354h10M290 354h10M320 354h10M160 355h10M190 355h10M231 355h9M260 355h10M290 355h10M320 355h10M160 356h10M190 356h10M230 356h10M260 356h10M290 356h10M320 356h10M160 357h10M190 357h10M230 357h10M260 357h10M290 357h10M320 357h10M160 358h10M190 358h10M230 358h10M260 358h10M290 358h10M320 358h10M160 359h10M190 359h10M230 359h10M260 359h10M290 359h10M320 359h10M160 360h10M190 360h10M240 360h20M290 360h10M320 360h10M160 361h10M190 361h10M240 361h20M290 361h10M320 361h10M160 362h10M190 362h10M240 362h20M290 362h10M320 362h10M160 363h10M190 363h10M240 363h20M290 363h10M320 363h10M160 364h10M190 364h10M240 364h20M290 364h10M320 364h10M160 365h10M190 365h10M240 365h20M290 365h10M320 365h10M160 366h10M190 366h10M240 366h20M290 366h10M320 366h10M160 367h10M190 367h10M240 367h20M290 367h10M320 367h10M160 368h10M190 368h10M240 368h20M290 368h10M320 368h10M160 369h10M190 369h10M240 369h20M290 369h10M320 369h10M160 370h10M190 370h10M290 370h10M320 370h10M160 371h10M190 371h10M290 371h10M320 371h10M160 372h10M190 372h10M290 372h10M320 372h10M160 373h10M190 373h10M290 373h10M320 373h10M160 374h10M190 374h10M290 374h10M320 374h10M160 375h10M190 375h10M290 375h10M320 375h10M160 376h10M190 376h10M290 376h10M320 376h10M160 377h10M190 377h10M290 377h10M320 377h10M160 378h10M190 378h10M290 378h10M320 378h10M160 379h10M190 379h10M290 379h10M320 379h10M160 380h10M190 380h10M290 380h10M320 380h10M160 381h10M190 381h10M290 381h10M320 381h10M160 382h10M190 382h10M290 382h10M320 382h10M160 383h10M190 383h10M290 383h10M320 383h10M160 384h10M190 384h10M290 384h10M320 384h10M160 385h10M190 385h10M290 385h10M320 385h10M160 386h10M190 386h10M290 386h10M320 386h10M160 387h10M190 387h10M290 387h10M320 387h10M160 388h10M190 388h10M290 388h10M320 388h10M160 389h10M190 389h10M290 389h10M320 389h10M170 390h10M200 390h10M280 390h10M310 390h10M170 391h10M200 391h10M280 391h10M310 391h10M170 392h10M200 392h10M280 392h10M310 392h10M170 393h10M200 393h10M280 393h10M310 393h10M170 394h10M200 394h10M280 394h10M310 394h10M170 395h10M200 395h10M280 395h10M310 395h10M170 396h10M200 396h10M280 396h10M310 396h10M170 397h10M200 397h10M280 397h10M310 397h10M170 398h10M200 398h10M280 398h10M310 398h10M170 399h10M200 399h10M280 399h10M310 399h10M120 400h90M280 400h90M120 401h90M280 401h90M120 402h90M280 402h90M120 403h90M280 403h90M120 404h90M280 404h90M120 405h90M280 405h90M120 406h90M280 406h90M120 407h90M280 407h90M120 408h90M280 408h90M120 409h90M280 409h90M110 410h10M160 410h10M190 410h10M210 410h10M270 410h10M290 410h10M320 410h10M370 410h10M110 411h10M160 411h10M190 411h10M210 411h10M270 411h10M290 411h10M320 411h10M370 411h10M110 412h10M160 412h10M190 412h10M210 412h10M270 412h10M290 412h10M320 412h10M370 412h10M110 413h10M160 413h10M190 413h10M210 413h5M216 413h4M270 413h10M290 413h10M320 413h10M370 413h10M110 414h10M160 414h10M190 414h10M210 414h10M270 414h10M290 414h10M320 414h10M370 414h10M110 415h10M160 415h10M190 415h10M210 415h10M270 415h10M290 415h10M320 415h10M370 415h10M110 416h10M160 416h10M190 416h10M210 416h10M270 416h10M290 416h10M320 416h10M370 416h10M110 417h10M160 417h10M190 417h10M210 417h10M270 417h10M290 417h10M320 417h10M370 417h10M110 418h10M160 418h10M190 418h10M210 418h10M270 418h10M290 418h10M320 418h10M370 418h10M110 419h10M160 419h10M190 419h10M210 419h10M270 419h10M290 419h10M320 419h10M370 419h10M100 420h10M150 420h10M180 420h10M220 420h10M260 420h10M300 420h10M330 420h10M380 420h10M100 421h10M150 421h10M180 421h10M220 421h10M260 421h10M300 421h10M330 421h10M380 421h10M100 422h10M150 422h10M180 422h10M220 422h2M223 422h7M260 422h10M300 422h10M330 422h10M380 422h10M100 423h10M150 423h10M180 423h10M220 423h10M260 423h10M300 423h10M330 423h10M380 423h10M100 424h10M150 424h10M180 424h10M220 424h10M260 424h10M300 424h10M330 424h10M380 424h10M100 425h10M150 425h10M180 425h10M220 425h10M260 425h10M300 425h10M330 425h10M380 425h10M100 426h10M150 426h10M180 426h10M220 426h10M260 426h10M300 426h10M330 426h10M380 426h10M100 427h10M150 427h10M180 427h10M220 427h10M260 427h10M300 427h10M330 427h10M380 427h10M100 428h10M150 428h10M180 428h10M220 428h10M260 428h10M300 428h10M330 428h10M380 428h10M100 429h10M150 429h10M180 429h10M220 429h10M260 429h10M300 429h10M330 429h10M380 429h10M100 430h10M140 430h10M180 430h10M210 430h30M250 430h24M275 430h5M300 430h10M340 430h10M380 430h10M100 431h10M140 431h10M180 431h10M210 431h30M250 431h30M300 431h10M340 431h10M380 431h10M100 432h10M140 432h10M180 432h10M210 432h30M250 432h30M300 432h10M340 432h10M380 432h10M100 433h2M103 433h7M140 433h10M180 433h10M210 433h30M250 433h30M300 433h10M340 433h7M348 433h2M380 433h10M100 434h10M140 434h10M180 434h10M210 434h30M250 434h23M274 434h6M300 434h10M340 434h10M380 434h10M100 435h10M140 435h10M180 435h10M210 435h30M250 435h30M300 435h10M340 435h10M380 435h10M100 436h10M140 436h10M180 436h10M210 436h30M250 436h30M300 436h10M340 436h10M380 436h10M100 437h10M140 437h5M146 437h4M180 437h10M210 437h30M250 437h30M300 437h10M340 437h10M380 437h10M100 438h10M140 438h10M180 438h10M210 438h30M250 438h30M300 438h10M340 438h10M380 438h10M100 439h10M140 439h10M180 439h10M210 439h30M250 439h30M300 439h10M340 439h10M380 439h10M100 440h10M150 440h10M180 440h10M200 440h30M240 440h10M260 440h30M300 440h10M330 440h10M380 440h10M100 441h10M150 441h10M180 441h10M200 441h30M240 441h10M260 441h30M300 441h10M330 441h10M380 441h10M100 442h10M150 442h10M180 442h10M200 442h30M240 442h10M260 442h30M300 442h10M330 442h10M380 442h10M100 443h10M150 443h10M180 443h10M200 443h30M240 443h10M260 443h30M300 443h10M330 443h10M380 443h10M100 444h10M150 444h10M180 444h10M200 444h30M240 444h10M260 444h30M300 444h10M330 444h10M380 444h10M100 445h10M150 445h10M180 445h10M200 445h30M240 445h10M260 445h30M300 445h10M330 445h10M380 445h10M100 446h10M150 446h10M180 446h10M200 446h30M240 446h10M260 446h30M300 446h10M330 446h10M380 446h10M100 447h10M150 447h9M180 447h10M200 447h30M240 447h10M260 447h30M300 447h10M330 447h10M380 447h10M100 448h10M150 448h10M180 448h10M200 448h30M240 448h10M260 448h30M300 448h10M330 448h10M380 448h10M100 449h10M150 449h10M180 449h10M200 449h30M240 449h10M260 449h30M300 449h10M330 449h10M380 449h10" />
<path stroke="#ffffff" d="M210 190h10M230 190h10M250 190h10M270 190h10M210 191h10M230 191h10M250 191h10M270 191h10M210 192h10M230 192h10M250 192h10M270 192h10M210 193h10M230 193h10M250 193h10M270 193h10M210 194h10M230 194h10M250 194h10M270 194h10M210 195h10M230 195h10M250 195h10M270 195h10M210 196h10M230 196h10M250 196h10M270 196h10M210 197h10M230 197h10M250 197h10M270 197h10M210 198h10M230 198h10M250 198h10M270 198h10M210 199h10M230 199h10M250 199h10M270 199h10M210 200h10M230 200h10M250 200h10M270 200h10M210 201h10M230 201h10M250 201h10M270 201h10M210 202h10M230 202h10M250 202h10M270 202h10M210 203h10M230 203h10M250 203h10M270 203h10M210 204h10M230 204h10M250 204h10M270 204h10M210 205h10M230 205h10M250 205h10M270 205h10M210 206h10M230 206h10M250 206h10M270 206h10M210 207h10M230 207h10M250 207h10M270 207h10M210 208h10M230 208h10M250 208h10M270 208h10M210 209h10M230 209h10M250 209h10M270 209h10M210 210h10M230 210h10M250 210h10M270 210h10M210 211h10M230 211h10M250 211h10M270 211h10M210 212h10M230 212h10M250 212h10M270 212h10M210 213h10M230 213h10M250 213h10M270 213h10M210 214h10M230 214h10M250 214h10M270 214h10M210 215h10M230 215h10M250 215h10M270 215h10M210 216h10M230 216h10M250 216h10M270 216h10M210 217h10M230 217h10M250 217h10M270 217h10M210 218h10M230 218h10M250 218h10M270 218h10M210 219h10M230 219h10M250 219h10M270 219h10M210 220h4M215 220h5M230 220h10M250 220h10M270 220h10M210 221h10M230 221h10M250 221h10M270 221h10M210 222h10M230 222h10M250 222h10M270 222h10M210 223h10M230 223h10M250 223h10M270 223h10M210 224h10M230 224h10M250 224h10M270 224h10M210 225h10M230 225h10M250 225h10M270 225h10M210 226h10M230 226h10M250 226h10M270 226h10M210 227h10M230 227h10M250 227h10M270 227h10M210 228h10M230 228h10M250 228h10M270 228h10M210 229h10M230 229h10M250 229h10M270 229h10M240 230h10M240 231h10M240 232h10M240 233h10M240 234h10M240 235h10M240 236h10M240 237h10M240 238h10M240 239h10M230 240h30M230 241h30M230 242h30M230 243h30M230 244h30M230 245h30M230 246h30M230 247h30M230 248h30M230 249h30M160 260h170M160 261h170M160 262h170M160 263h170M160 264h170M160 265h170M160 266h170M160 267h170M160 268h132M293 268h15M309 268h21M160 269h170M160 270h40M290 270h40M160 271h40M290 271h40M160 272h17M178 272h22M290 272h40M160 273h40M290 273h40M160 274h40M290 274h40M160 275h40M290 275h40M160 276h40M290 276h40M160 277h40M290 277h40M160 278h40M290 278h40M160 279h40M290 279h40M220 380h50M220 381h50M220 382h50M220 383h50M220 384h50M220 385h50M220 386h50M220 387h50M220 388h50M220 389h50M200 410h10M280 410h10M200 411h10M280 411h10M200 412h10M280 412h10M200 413h10M280 413h10M200 414h10M280 414h10M200 415h10M280 415h10M200 416h10M280 416h10M200 417h10M280 417h10M200 418h10M280 418h10M200 419h10M280 419h10M190 420h30M270 420h30M190 421h30M270 421h30M190 422h30M270 422h30M190 423h30M270 423h30M190 424h30M270 424h30M190 425h30M270 425h30M190 426h30M270 426h30M190 427h30M270 427h30M190 428h30M270 428h30M190 429h30M270 429h30M190 430h20M280 430h20M190 431h20M280 431h20M190 432h20M280 432h20M190 433h20M280 433h20M190 434h20M280 434h20M190 435h20M280 435h20M190 436h20M280 436h20M190 437h20M280 437h20M190 438h20M280 438h20M190 439h20M280 439h20M190 440h10M230 440h10M250 440h10M290 440h10M190 441h10M230 441h10M250 441h10M290 441h10M190 442h10M230 442h10M250 442h10M290 442h10M190 443h10M230 443h10M250 443h10M290 443h10M190 444h10M230 444h10M250 444h10M290 444h10M190 445h10M230 445h10M250 445h8M259 445h1M290 445h10M190 446h10M230 446h10M250 446h10M290 446h10M190 447h10M230 447h10M250 447h10M290 447h10M190 448h10M230 448h10M250 448h10M290 448h10M190 449h10M230 449h10M250 449h10M290 449h10" />
<path stroke="#b41c30" d="M220 190h10M240 190h10M260 190h10M220 191h10M240 191h10M260 191h10M220 192h10M240 192h10M260 192h10M220 193h10M240 193h10M260 193h10M220 194h10M240 194h10M260 194h10M220 195h10M240 195h10M260 195h10M220 196h10M240 196h10M260 196h10M220 197h10M240 197h10M260 197h10M220 198h10M240 198h10M260 198h10M220 199h10M240 199h10M260 199h10M220 200h10M240 200h10M260 200h10M220 201h10M240 201h10M260 201h10M220 202h10M240 202h10M260 202h10M220 203h10M240 203h10M260 203h10M220 204h10M240 204h10M260 204h10M220 205h10M240 205h10M260 205h10M220 206h10M240 206h10M260 206h10M220 207h10M240 207h10M260 207h10M220 208h10M240 208h10M260 208h10M220 209h10M240 209h10M260 209h10M220 210h10M240 210h10M260 210h10M220 211h10M240 211h10M260 211h10M220 212h10M240 212h10M260 212h10M220 213h10M240 213h10M260 213h10M220 214h10M240 214h10M260 214h10M220 215h10M240 215h10M260 215h10M220 216h10M240 216h10M260 216h10M220 217h10M240 217h10M260 217h10M220 218h10M240 218h10M260 218h10M220 219h10M240 219h10M260 219h10M220 220h10M240 220h10M260 220h10M220 221h10M240 221h10M260 221h10M220 222h10M240 222h10M260 222h10M220 223h10M240 223h10M260 223h10M220 224h10M240 224h10M260 224h10M220 225h10M240 225h10M260 225h10M220 226h10M240 226h10M260 226h10M220 227h10M240 227h10M260 227h10M220 228h10M240 228h10M260 228h10M220 229h10M240 229h10M260 229h10M200 280h10M230 280h30M280 280h10M200 281h10M230 281h30M280 281h10M200 282h10M230 282h30M280 282h10M200 283h10M230 283h30M280 283h10M200 284h10M230 284h30M280 284h10M200 285h10M230 285h30M280 285h10M200 286h10M230 286h30M280 286h10M200 287h10M230 287h30M280 287h10M200 288h10M230 288h30M280 288h10M200 289h10M230 289h30M280 289h10M200 290h20M240 290h10M270 290h20M200 291h20M240 291h10M270 291h20M200 292h20M240 292h10M270 292h20M200 293h20M240 293h10M270 293h20M200 294h20M240 294h10M270 294h20M200 295h20M240 295h10M270 295h20M200 296h20M240 296h10M270 296h20M200 297h20M240 297h10M270 297h20M200 298h20M240 298h10M270 298h20M200 299h20M240 299h10M270 299h20M240 310h10M240 311h10M240 312h10M240 313h10M240 314h10M240 315h10M240 316h10M240 317h10M240 318h10M240 319h10M190 320h10M230 320h10M250 320h10M290 320h10M190 321h10M230 321h10M250 321h10M290 321h10M190 322h10M230 322h10M250 322h10M290 322h10M190 323h10M230 323h10M250 323h10M290 323h10M190 324h10M230 324h10M250 324h10M290 324h10M190 325h10M230 325h10M250 325h10M290 325h10M190 326h10M230 326h10M250 326h10M290 326h10M190 327h10M230 327h10M250 327h10M290 327h10M190 328h10M230 328h10M250 328h10M290 328h10M190 329h10M230 329h10M250 329h10M290 329h10M190 330h50M250 330h50M190 331h50M250 331h50M190 332h50M250 332h50M190 333h50M250 333h50M190 334h50M250 334h50M190 335h50M250 335h50M190 336h50M250 336h50M190 337h50M250 337h50M190 338h50M250 338h48M299 338h1M190 339h50M250 339h50M200 340h50M260 340h30M200 341h50M260 341h30M200 342h50M260 342h30M200 343h50M260 343h30M200 344h50M260 344h30M200 345h50M260 345h30M200 346h50M260 346h30M200 347h50M260 347h30M200 348h50M260 348h30M200 349h50M260 349h30M200 350h30M240 350h20M270 350h20M200 351h30M240 351h20M270 351h20M200 352h30M240 352h20M270 352h20M200 353h30M240 353h20M270 353h20M200 354h30M240 354h20M270 354h20M200 355h23M224 355h6M240 355h20M270 355h20M200 356h30M240 356h20M270 356h20M200 357h30M240 357h20M270 357h20M200 358h30M240 358h20M270 358h20M200 359h30M240 359h20M270 359h20M200 360h40M260 360h30M200 361h40M260 361h30M200 362h40M260 362h30M200 363h40M260 363h30M200 364h40M260 364h30M200 365h40M260 365h30M200 366h40M260 366h30M200 367h40M260 367h30M200 368h40M260 368h30M200 369h40M260 369h30M200 370h90M200 371h90M200 372h90M200 373h90M200 374h90M200 375h90M200 376h90M200 377h90M200 378h90M200 379h90M200 380h20M270 380h20M200 381h20M270 381h20M200 382h20M270 382h20M200 383h20M270 383h20M200 384h20M270 384h20M200 385h20M270 385h20M200 386h8M209 386h11M270 386h20M200 387h20M270 387h20M200 388h20M270 388h20M200 389h20M270 389h20M210 390h70M210 391h70M210 392h70M210 393h70M210 394h70M210 395h70M210 396h70M210 397h70M210 398h70M210 399h70M210 400h20M260 400h20M210 401h20M260 401h20M210 402h20M260 402h20M210 403h20M260 403h14M275 403h5M210 404h20M260 404h20M210 405h20M260 405h20M210 406h20M260 406h20M210 407h20M260 407h20M210 408h20M260 408h5M266 408h14M210 409h20M260 409h20" />
<path stroke="#000001" d="M206 211h1M314 296h1M269 351h1M230 355h1M215 413h1M347 433h1" />
<path stroke="#fffeff" d="M214 220h1M292 268h1" />
<path stroke="#000100" d="M286 225h1M280 231h1M226 277h1M235 301h1M298 313h1M274 430h1M145 437h1" />
<path stroke="#38396e" d="M210 230h30M250 230h30M210 231h30M250 231h30M210 232h30M250 232h30M210 233h30M250 233h30M210 234h30M250 234h30M210 235h30M250 235h30M210 236h30M250 236h30M210 237h30M250 237h30M210 238h30M250 238h30M210 239h30M250 239h30M210 240h20M260 240h20M210 241h20M260 241h9M270 241h10M210 242h20M260 242h20M210 243h20M260 243h20M210 244h20M260 244h20M210 245h20M260 245h20M210 246h20M260 246h17M278 246h2M210 247h20M260 247h20M210 248h20M260 248h20M210 249h20M260 249h20M120 410h40M170 410h20M300 410h20M330 410h40M120 411h40M170 411h20M300 411h20M330 411h40M120 412h40M170 412h20M300 412h20M330 412h40M120 413h40M170 413h20M300 413h20M330 413h40M120 414h40M170 414h20M300 414h20M330 414h40M120 415h40M170 415h20M300 415h20M330 415h40M120 416h40M170 416h20M300 416h20M330 416h15M346 416h24M120 417h40M170 417h20M300 417h20M330 417h25M356 417h14M120 418h40M170 418h20M300 418h20M330 418h40M120 419h40M170 419h20M300 419h20M330 419h40M110 420h40M160 420h20M310 420h20M340 420h39M110 421h40M160 421h20M310 421h20M340 421h40M110 422h40M160 422h20M310 422h20M340 422h40M110 423h40M160 423h20M310 423h20M340 423h40M110 424h40M160 424h8M169 424h11M310 424h20M340 424h40M110 425h40M160 425h20M310 425h20M340 425h40M110 426h40M160 426h20M310 426h20M340 426h40M110 427h40M160 427h20M310 427h20M340 427h40M110 428h40M160 428h20M310 428h20M340 428h40M110 429h40M160 429h20M310 429h20M340 429h40M110 430h30M150 430h30M310 430h30M350 430h30M110 431h30M150 431h30M310 431h24M335 431h5M350 431h30M110 432h30M150 432h30M310 432h30M350 432h30M110 433h30M150 433h30M310 433h30M350 433h30M110 434h30M150 434h30M310 434h30M350 434h9M360 434h20M110 435h30M150 435h30M310 435h30M350 435h30M110 436h30M150 436h30M310 436h20M331 436h9M350 436h30M110 437h30M150 437h30M310 437h30M350 437h30M110 438h30M150 438h30M310 438h30M350 438h30M110 439h30M150 439h30M310 439h30M350 439h30M110 440h40M160 440h20M310 440h20M340 440h40M110 441h40M160 441h20M310 441h20M340 441h40M110 442h40M160 442h20M310 442h20M340 442h40M110 443h40M160 443h20M310 443h20M340 443h40M110 444h40M160 444h20M310 444h20M340 444h40M110 445h40M160 445h20M310 445h20M340 445h40M110 446h40M161 446h19M310 446h20M340 446h40M110 447h40M160 447h20M310 447h20M340 447h40M110 448h40M160 448h20M310 448h20M340 448h40M110 449h40M160 449h20M310 449h20M340 449h40" />
<path stroke="#38396f" d="M269 241h1M359 434h1" />
<path stroke="#38386e" d="M277 246h1M355 417h1M379 420h1M334 431h1M160 446h1" />
<path stroke="#010000" d="M300 255h1M282 271h1M165 327h1M222 422h1M102 433h1M273 434h1M159 447h1" />
<path stroke="#fffffe" d="M308 268h1" />
<path stroke="#feffff" d="M177 272h1M258 445h1" />
<path stroke="#929292" d="M210 280h20M260 280h20M210 281h20M260 281h20M210 282h20M260 282h20M210 283h20M260 283h20M210 284h20M260 284h20M210 285h20M260 285h17M278 285h2M210 286h20M260 286h20M210 287h20M260 287h20M210 288h20M260 288h20M210 289h20M260 289h20M180 290h20M220 290h20M250 290h20M290 290h20M180 291h20M220 291h20M250 291h20M290 291h20M180 292h20M220 292h20M250 292h20M290 292h20M180 293h20M220 293h20M250 293h20M290 293h20M180 294h20M220 294h20M250 294h20M290 294h20M180 295h20M220 295h20M250 295h20M290 295h20M180 296h20M220 296h20M250 296h20M290 296h20M180 297h20M220 297h20M250 297h20M290 297h20M180 298h20M220 298h20M250 298h20M290 298h20M180 299h20M220 299h20M250 299h20M290 299h20M180 300h10M300 300h10M180 301h10M300 301h10M180 302h10M300 302h10M180 303h10M300 303h10M180 304h10M300 304h10M180 305h10M300 305h10M180 306h10M300 306h10M180 307h10M300 307h10M180 308h10M300 308h10M180 309h10M300 309h10M180 310h10M300 310h8M309 310h1M180 311h10M300 311h10M180 312h10M300 312h10M180 313h10M300 313h10M180 314h10M300 314h10M180 315h10M300 315h10M180 316h10M300 316h10M180 317h10M300 317h10M180 318h10M300 318h10M180 319h10M300 319h10M170 320h20M300 320h20M170 321h20M300 321h20M170 322h20M300 322h20M170 323h17M188 323h2M300 323h20M170 324h8M179 324h11M300 324h20M170 325h20M300 325h20M170 326h20M300 326h20M170 327h20M300 327h20M170 328h20M300 328h20M170 329h20M300 329h4M305 329h15M170 330h20M300 330h20M170 331h20M300 331h20M170 332h20M300 332h20M170 333h20M300 333h20M170 334h20M300 334h20M170 335h20M300 335h20M170 336h20M300 336h20M170 337h20M300 337h20M170 338h20M300 338h20M170 339h20M300 339h1M302 339h18M170 340h20M300 340h20M170 341h20M300 341h20M171 342h19M300 342h20M170 343h20M300 343h20M170 344h20M300 344h20M170 345h20M300 345h20M170 346h20M300 346h20M170 347h20M300 347h20M170 348h20M300 348h20M170 349h20M300 349h20M170 350h20M300 350h20M170 351h20M300 351h20M170 352h20M300 352h20M170 353h20M300 353h20M170 354h20M300 354h20M170 355h20M300 355h20M170 356h20M300 356h20M170 357h20M300 357h20M170 358h20M300 358h20M170 359h20M300 359h20M170 360h20M300 360h20M170 361h20M300 361h20M170 362h2M173 362h17M300 362h20M170 363h20M300 363h20M170 364h20M300 364h20M170 365h20M300 365h20M170 366h20M300 366h20M170 367h20M300 367h20M170 368h20M300 368h20M170 369h20M300 369h20M170 370h20M300 370h20M170 371h20M300 371h20M170 372h20M300 372h20M170 373h20M300 373h20M170 374h20M300 374h20M170 375h20M300 375h20M170 376h20M300 376h20M170 377h20M300 377h20M170 378h20M300 378h20M170 379h20M300 379h20M170 380h20M300 380h13M314 380h6M170 381h12M183 381h7M300 381h20M170 382h20M300 382h20M170 383h20M300 383h20M170 384h20M300 384h20M170 385h20M300 385h20M170 386h20M300 386h20M170 387h20M300 387h20M170 388h20M300 388h20M170 389h20M300 389h20M180 390h20M290 390h20M180 391h20M290 391h20M180 392h20M290 392h20M180 393h20M290 393h20M180 394h20M290 394h20M180 395h20M290 395h20M180 396h20M290 396h20M180 397h20M290 397h20M180 398h20M290 398h20M180 399h20M290 399h20M230 400h30M230 401h30M230 402h30M230 403h30M230 404h30M230 405h30M230 406h30M230 407h30M230 408h30M230 409h30M220 410h50M220 411h50M220 412h50M220 413h50M220 414h50M220 415h50M220 416h50M220 417h50M220 418h50M220 419h50M230 420h30M230 421h30M230 422h30M230 423h30M230 424h30M230 425h30M230 426h30M230 427h30M230 428h30M230 429h30M240 430h10M240 431h10M240 432h10M240 433h10M240 434h10M240 435h10M240 436h10M240 437h10M240 438h10M240 439h10" />
<path stroke="#929392" d="M277 285h1M187 323h1M178 324h1M304 329h1M301 339h1M172 362h1M313 380h1" />
<path stroke="#00ffff" d="M200 300h10M260 300h10M200 301h10M260 301h10M200 302h10M260 302h10M200 303h10M260 303h10M200 304h10M260 304h10M200 305h10M260 305h10M200 306h10M260 306h10M200 307h10M260 307h10M200 308h10M260 308h10M200 309h10M260 309h10M210 310h10M270 310h10M210 311h10M270 311h10M210 312h10M270 312h10M210 313h10M270 313h10M210 314h10M270 314h10M210 315h10M270 315h10M210 316h10M270 316h10M210 317h10M270 317h10M210 318h10M270 318h10M210 319h10M270 319h10M210 320h10M270 320h10M210 321h10M270 321h10M210 322h10M270 322h10M210 323h10M270 323h10M210 324h10M270 324h10M210 325h10M270 325h10M210 326h10M270 326h10M210 327h10M270 327h10M210 328h10M270 328h10M210 329h10M270 329h10" />
<path stroke="#929293" d="M308 310h1M170 342h1M182 381h1" />
<path stroke="#b41d30" d="M298 338h1M223 355h1M208 386h1M274 403h1M265 408h1" />
<path stroke="#39396e" d="M345 416h1M168 424h1M330 436h1" />
</svg>