<svg xmlns="http://www.w3.org/2000/svg" viewBox="0 -0.5 480 480" shape-rendering="crispEdges">
<metadata>Made with Pixels to Svg https://codepen.io/shshaw/pen/XbxvNj</metadata>
<path stroke="#000000" d="M190 190h10M240 190h10M260 190h10M190 191h10M240 191h10M260 191h10M190 192h10M240 192h10M260 192h10M190 193h10M240 193h10M260 193h10M190 194h10M240 194h10M260 194h10M190 195h10M240 195h10M260 195h10M190 196h10M240 196h10M260 196h10M190 197h10M240 197h10M260 197h10M190 198h10M240 198h10M260 198h10M190 199h10M240 199h10M260 199h10M180 200h10M200 200h40M250 200h10M270 200h30M180 201h10M200 201h40M250 201h10M270 201h30M180 202h10M200 202h40M250 202h10M270 202h30M180 203h10M200 203h20M221 203h19M250 203h10M270 203h17M288 203h12M180 204h10M200 204h40M250 204h10M270 204h30M180 205h10M200 205h40M250 205h10M270 205h30M180 206h10M200 206h40M250 206h10M270 206h30M180 207h10M200 207h40M250 207h10M270 207h10M281 207h19M180 208h10M200 208h40M250 208h10M270 208h30M180 209h10M200 209h40M250 209h10M270 209h30M170 210h10M300 210h10M170 211h10M300 211h10M170 212h10M300 212h10M170 213h10M300 213h10M170 214h10M300 214h10M170 215h10M300 215h10M170 216h10M300 216h10M170 217h10M300 217h10M170 218h10M300 218h10M170 219h10M300 219h10M160 220h10M190 220h10M220 220h10M310 220h10M160 221h10M190 221h10M220 221h10M310 221h10M160 222h10M190 222h10M220 222h10M310 222h10M160 223h10M190 223h10M220 223h10M310 223h10M160 224h10M190 224h10M220 224h10M310 224h10M160 225h10M190 225h10M220 225h10M310 225h3M314 225h6M160 226h10M190 226h10M220 226h10M310 226h10M160 227h10M190 227h10M220 227h10M310 227h10M160 228h10M190 228h10M220 228h10M310 228h10M160 229h10M190 229h10M220 229h10M310 229h10M160 230h10M200 230h10M230 230h10M310 230h10M160 231h10M200 231h10M230 231h10M310 231h10M160 232h10M200 232h10M230 232h10M310 232h10M160 233h10M200 233h10M230 233h10M310 233h10M160 234h10M200 234h10M230 234h10M310 234h10M160 235h10M200 235h10M230 235h10M310 235h10M160 236h10M200 236h10M230 236h10M310 236h10M160 237h10M200 237h10M230 237h10M310 237h10M161 238h9M200 238h10M230 238h10M310 238h10M160 239h10M200 239h10M230 239h10M310 239h10M160 240h10M310 240h10M160 241h10M310 241h10M160 242h10M310 242h10M160 243h10M310 243h10M160 244h10M310 244h10M160 245h10M310 245h10M160 246h10M310 246h10M160 247h10M310 247h10M160 248h10M310 248h10M160 249h10M310 249h10M170 250h10M310 250h10M170 251h10M310 251h10M170 252h10M310 252h10M170 253h10M310 253h10M170 254h10M310 254h10M170 255h10M310 255h10M170 256h10M310 256h10M170 257h10M310 257h10M170 258h10M310 258h10M170 259h10M310 259h10M170 260h10M310 260h10M170 261h10M310 261h10M170 262h10M310 262h10M170 263h10M310 263h10M170 264h10M310 264h10M170 265h10M310 265h10M170 266h10M310 266h10M170 267h10M310 267h10M170 268h10M310 268h10M170 269h10M310 269h10M170 270h10M190 270h20M240 270h20M310 270h10M170 271h10M190 271h20M240 271h9M250 271h10M310 271h10M170 272h10M190 272h20M240 272h20M310 272h10M170 273h10M190 273h20M240 273h20M310 273h10M170 274h10M190 274h20M240 274h20M310 274h10M170 275h10M190 275h20M240 275h20M310 275h10M170 276h10M190 276h20M240 276h20M310 276h10M170 277h10M190 277h20M240 277h20M310 277h10M170 278h10M190 278h20M240 278h20M310 278h10M170 279h10M190 279h20M240 279h20M310 279h10M170 280h10M220 280h10M290 280h20M170 281h10M220 281h10M290 281h20M170 282h10M220 282h10M290 282h20M170 283h10M220 283h10M290 283h20M170 284h10M220 284h10M290 284h20M170 285h10M220 285h10M290 285h20M170 286h10M220 286h10M290 286h20M170 287h10M220 287h10M290 287h20M170 288h6M177 288h3M220 288h10M290 288h20M170 289h10M220 289h10M290 289h20M170 290h10M210 290h10M280 290h10M310 290h10M170 291h10M210 291h10M280 291h10M310 291h10M170 292h10M210 292h10M280 292h10M310 292h10M170 293h10M210 293h10M280 293h10M310 293h10M170 294h10M210 294h10M280 294h10M310 294h10M170 295h10M210 295h10M280 295h10M310 295h10M170 296h10M210 296h10M280 296h10M310 296h10M170 297h10M210 297h10M280 297h10M310 297h10M170 298h10M210 298h10M280 298h10M310 298h10M170 299h10M210 299h10M281 299h9M310 299h10M170 300h10M200 300h10M310 300h10M170 301h10M200 301h10M310 301h10M170 302h10M200 302h10M310 302h10M170 303h10M200 303h10M310 303h10M170 304h10M200 304h10M310 304h10M170 305h10M200 305h10M310 305h10M170 306h10M200 306h10M310 306h10M170 307h10M200 307h10M310 307h10M170 308h10M200 308h10M310 308h10M170 309h10M200 309h10M310 309h10M160 310h10M190 310h10M220 310h10M160 311h10M190 311h10M220 311h10M160 312h10M190 312h10M220 312h10M160 313h10M190 313h10M220 313h10M160 314h10M190 314h10M220 314h10M160 315h10M190 315h10M220 315h10M160 316h10M190 316h10M220 316h10M160 317h10M190 317h10M220 317h10M160 318h10M190 318h10M220 318h10M160 319h10M190 319h10M220 319h10M160 320h10M200 320h20M160 321h7M168 321h2M200 321h20M160 322h10M200 322h20M160 323h10M200 323h20M160 324h10M200 324h20M160 325h10M200 325h20M160 326h10M200 326h20M160 327h10M200 327h20M160 328h10M200 328h20M160 329h10M200 329h20M160 330h10M160 331h10M160 332h10M160 333h10M160 334h10M160 335h10M160 336h10M160 337h10M160 338h10M160 339h10M160 340h10M200 340h20M160 341h10M200 341h20M160 342h10M200 342h20M160 343h10M200 343h20M160 344h10M200 344h20M160 345h10M200 345h20M160 346h10M200 346h20M160 347h10M200 347h20M160 348h10M200 348h20M160 349h10M200 349h20M140 350h20M170 350h10M140 351h20M170 351h10M140 352h20M170 352h10M140 353h20M170 353h10M140 354h20M170 354h10M140 355h20M170 355h10M140 356h20M170 356h10M140 357h20M170 357h10M140 358h20M170 358h10M140 359h20M170 359h10M120 360h20M120 361h20M120 362h20M120 363h20M120 364h20M120 365h20M120 366h20M120 367h20M120 368h20M120 369h20M110 370h10M110 371h10M110 372h10M110 373h10M110 374h10M110 375h10M110 376h10M110 377h10M110 378h10M110 379h10M110 380h10M160 380h10M110 381h10M160 381h10M110 382h10M160 382h10M110 383h10M160 383h10M110 384h10M160 384h10M110 385h10M160 385h10M110 386h10M160 386h10M110 387h10M160 387h10M110 388h10M160 388h10M110 389h10M160 389h10M120 390h10M170 390h10M120 391h10M170 391h10M120 392h10M170 392h10M120 393h10M170 393h10M120 394h10M170 394h10M120 395h10M170 395h10M120 396h10M170 396h10M120 397h10M170 397h10M120 398h10M170 398h10M120 399h10M170 399h10M130 400h20M170 400h10M130 401h20M170 401h10M130 402h20M170 402h10M130 403h20M170 403h10M130 404h20M170 404h10M130 405h20M170 405h10M130 406h20M170 406h10M130 407h20M170 407h10M130 408h20M170 408h10M130 409h20M170 409h10M150 410h20M150 411h20M150 412h20M150 413h20M150 414h20M150 415h20M150 416h20M150 417h20M150 418h20M150 419h20" />
<path stroke="#ff9900" d="M190 200h10M240 200h10M260 200h10M190 201h10M240 201h10M260 201h10M190 202h10M240 202h10M260 202h10M190 203h10M240 203h10M260 203h10M190 204h10M240 204h10M260 204h10M190 205h10M240 205h10M260 205h10M190 206h10M240 206h10M260 206h10M190 207h10M240 207h10M260 207h10M190 208h10M240 208h10M260 208h10M190 209h10M240 209h10M260 209h10M180 210h120M180 211h120M180 212h101M282 212h18M180 213h120M180 214h120M180 215h120M180 216h120M180 217h120M180 218h120M180 219h120M170 220h20M200 220h20M230 220h80M170 221h20M200 221h20M230 221h66M297 221h13M170 222h20M200 222h20M230 222h80M170 223h20M200 223h20M230 223h80M170 224h20M200 224h20M230 224h80M170 225h20M200 225h20M230 225h80M170 226h20M200 226h20M230 226h80M170 227h20M200 227h20M230 227h80M170 228h20M200 228h20M230 228h80M170 229h20M200 229h20M230 229h80M170 230h30M210 230h20M240 230h70M170 231h30M210 231h20M240 231h70M170 232h30M210 232h20M240 232h70M170 233h30M210 233h20M240 233h70M170 234h30M210 234h20M240 234h70M170 235h30M210 235h20M240 235h70M170 236h30M210 236h20M240 236h70M170 237h30M210 237h20M240 237h70M170 238h30M210 238h20M240 238h70M170 239h30M210 239h20M240 239h70M170 240h10M260 240h50M170 241h10M260 241h50M170 242h10M260 242h50M170 243h10M260 243h50M170 244h10M260 244h50M170 245h10M260 245h50M170 246h10M260 246h50M170 247h10M260 247h50M170 248h10M260 248h50M170 249h10M260 249h50M270 250h40M270 251h40M270 252h40M270 253h40M270 254h40M270 255h40M270 256h40M270 257h40M270 258h40M270 259h40M270 260h40M270 261h40M270 262h40M270 263h40M270 264h40M270 265h40M270 266h40M270 267h40M270 268h40M270 269h40M270 270h40M270 271h40M270 272h40M270 273h40M270 274h40M270 275h40M270 276h40M270 277h40M270 278h40M270 279h40M270 280h20M270 281h20M270 282h20M270 283h20M270 284h20M270 285h20M270 286h20M270 287h20M270 288h20M270 289h20M270 290h10M270 291h10M270 292h10M270 293h10M270 294h10M270 295h10M270 296h10M270 297h10M270 298h10M270 299h10" />
<path stroke="#000100" d="M220 203h1M280 207h1M313 225h1M160 238h1M280 299h1" />
<path stroke="#000001" d="M287 203h1M176 288h1M167 321h1" />
<path stroke="#ff9901" d="M281 212h1M296 221h1" />
<path stroke="#ecbcb4" d="M180 240h80M180 241h80M180 242h80M180 243h55M236 243h24M180 244h80M180 245h80M180 246h80M180 247h80M180 248h80M180 249h80M180 250h90M180 251h90M180 252h90M180 253h90M180 254h90M180 255h90M180 256h90M180 257h90M180 258h90M180 259h90M180 260h90M180 261h25M206 261h64M180 262h90M180 263h90M180 264h90M180 265h90M180 266h90M180 267h6M187 267h83M180 268h90M180 269h90M180 270h10M210 270h30M260 270h10M180 271h10M210 271h30M260 271h10M180 272h10M210 272h30M260 272h10M180 273h10M210 273h30M260 273h10M180 274h10M210 274h30M260 274h10M180 275h10M210 275h30M260 275h10M180 276h10M210 276h30M260 276h10M180 277h10M210 277h30M260 277h10M180 278h10M210 278h30M260 278h10M180 279h10M210 279h30M260 279h10M180 280h40M230 280h40M180 281h40M230 281h40M180 282h40M230 282h40M180 283h40M230 283h40M180 284h40M230 284h40M180 285h40M230 285h40M180 286h40M230 286h40M180 287h40M230 287h40M180 288h40M230 288h40M180 289h40M230 289h40M180 290h30M220 290h50M300 290h10M180 291h30M220 291h50M300 291h10M180 292h17M198 292h12M220 292h50M300 292h10M180 293h30M220 293h50M300 293h10M180 294h30M220 294h50M300 294h10M180 295h30M220 295h50M300 295h10M180 296h30M220 296h50M300 296h10M180 297h30M220 297h50M300 297h10M180 298h30M220 298h50M300 298h10M180 299h30M220 299h50M300 299h10M180 300h20M210 300h70M180 301h20M210 301h70M180 302h20M210 302h70M180 303h20M210 303h70M180 304h20M210 304h70M180 305h20M210 305h70M180 306h20M210 306h70M180 307h20M210 307h70M180 308h20M210 308h70M180 309h20M210 309h70M170 310h20M200 310h20M230 310h12M243 310h27M170 311h20M200 311h20M230 311h40M170 312h20M200 312h20M230 312h40M170 313h20M200 313h20M230 313h40M170 314h20M200 314h20M230 314h40M170 315h20M200 315h20M230 315h40M170 316h20M200 316h20M230 316h40M170 317h20M200 317h20M230 317h40M170 318h20M200 318h20M230 318h40M170 319h20M200 319h20M230 319h40M170 320h30M220 320h40M170 321h30M220 321h40M170 322h30M220 322h40M170 323h30M220 323h40M170 324h30M220 324h40M170 325h30M220 325h40M170 326h30M220 326h40M170 327h30M220 327h40M170 328h30M220 328h40M170 329h30M220 329h40M170 330h80M290 330h20M170 331h80M290 331h20M170 332h80M290 332h20M170 333h80M290 333h20M170 334h80M290 334h20M170 335h15M186 335h64M290 335h20M170 336h80M290 336h20M170 337h80M290 337h20M170 338h80M290 338h20M170 339h39M210 339h40M290 339h20M170 340h30M220 340h40M290 340h20M170 341h30M220 341h40M290 341h20M170 342h30M220 342h40M290 342h20M170 343h30M220 343h40M290 343h20M170 344h30M220 344h40M290 344h20M170 345h30M220 345h40M290 345h20M170 346h30M220 346h40M290 346h20M170 347h30M220 347h40M290 347h20M170 348h30M220 348h40M290 348h20M170 349h30M220 349h40M290 349h20M180 350h90M290 350h20M180 351h90M290 351h20M180 352h90M290 352h20M180 353h90M290 353h20M180 354h59M240 354h30M290 354h20M180 355h90M290 355h20M180 356h90M290 356h20M180 357h90M290 357h20M180 358h90M290 358h20M180 359h90M290 359h20M190 360h35M226 360h54M190 361h90M190 362h90M190 363h90M190 364h90M190 365h90M190 366h90M190 367h90M190 368h90M190 369h90M200 370h60M200 371h60M200 372h60M200 373h60M200 374h60M200 375h60M200 376h60M200 377h60M200 378h60M200 379h60M150 390h20M150 391h20M150 392h20M150 393h20M150 394h20M150 395h20M150 396h20M150 397h20M150 398h20M150 399h20M150 400h20M150 401h20M150 402h20M150 403h20M150 404h20M150 405h20M150 406h20M150 407h20M150 408h20M150 409h15M166 409h4" />
<path stroke="#ecbdb4" d="M235 243h1M205 261h1" />
<path stroke="#edbcb4" d="M186 267h1M225 360h1M165 409h1" />
<path stroke="#010000" d="M249 271h1" />
<path stroke="#16171a" d="M290 290h10M290 291h10M290 292h10M290 293h10M290 294h10M290 295h10M290 296h10M290 297h10M290 298h10M290 299h10M280 300h10M300 300h10M280 301h10M300 301h10M280 302h10M300 302h10M280 303h7M288 303h2M300 303h10M280 304h10M300 304h10M280 305h10M300 305h10M280 306h10M300 306h10M280 307h10M300 307h10M280 308h10M300 308h10M280 309h10M300 309h10M270 310h10M310 310h10M270 311h10M310 311h10M270 312h10M310 312h10M270 313h10M310 313h10M270 314h10M310 314h10M270 315h10M310 315h10M270 316h10M310 316h10M270 317h10M310 317h10M270 318h10M310 318h10M270 319h10M310 319h10M260 320h10M290 320h30M260 321h10M290 321h30M260 322h10M290 322h30M260 323h10M290 323h30M260 324h10M290 324h30M260 325h10M290 325h30M260 326h10M290 326h30M260 327h10M290 327h30M260 328h10M290 328h30M260 329h10M290 329h30M250 330h10M280 330h10M310 330h10M250 331h10M280 331h10M310 331h10M250 332h10M280 332h10M310 332h10M250 333h10M280 333h10M310 333h10M250 334h10M280 334h10M310 334h10M250 335h10M280 335h10M310 335h10M250 336h10M280 336h10M310 336h10M250 337h10M280 337h10M310 337h10M250 338h10M280 338h10M310 338h10M250 339h10M280 339h10M310 339h10M260 340h10M280 340h10M310 340h10M260 341h10M280 341h10M310 341h10M260 342h10M280 342h10M310 342h10M260 343h10M280 343h10M310 343h10M260 344h10M280 344h10M310 344h10M260 345h10M280 345h10M310 345h10M260 346h10M280 346h10M310 346h10M260 347h10M280 347h10M310 347h10M260 348h10M280 348h10M310 348h10M260 349h10M280 349h10M310 349h10M270 350h20M310 350h10M270 351h20M310 351h10M270 352h20M310 352h10M270 353h20M310 353h10M270 354h20M310 354h10M270 355h20M310 355h10M270 356h20M310 356h10M270 357h20M310 357h10M270 358h20M310 358h10M270 359h20M310 359h10M280 360h20M320 360h10M280 361h20M320 361h10M280 362h20M320 362h10M280 363h20M320 363h10M280 364h20M320 364h10M280 365h20M320 365h10M280 366h18M299 366h1M320 366h10M280 367h20M320 367h10M280 368h20M320 368h10M280 369h20M320 369h10M290 370h10M320 370h10M290 371h10M320 371h10M290 372h10M320 372h10M290 373h10M320 373h10M290 374h10M320 374h10M290 375h10M320 375h10M290 376h10M320 376h10M290 377h10M320 377h10M290 378h10M320 378h10M290 379h10M320 379h10M290 380h10M330 380h10M290 381h10M330 381h10M290 382h10M330 382h10M290 383h10M330 383h10M290 384h10M330 384h10M290 385h10M330 385h10M290 386h10M330 386h10M290 387h10M330 387h10M290 388h10M330 388h10M290 389h10M330 389h10M330 390h10M330 391h10M330 392h10M330 393h10M330 394h10M330 395h10M330 396h10M330 397h10M330 398h10M330 399h10M330 400h10M330 401h10M330 402h10M330 403h10M330 404h10M330 405h10M330 406h10M330 407h10M330 408h10M330 409h10M330 410h10M330 411h10M330 412h10M330 413h10M330 414h10M330 415h10M330 416h10M330 417h10M330 418h10M330 419h10" />
<path stroke="#ecbcb5" d="M197 292h1M242 310h1M185 335h1M209 339h1M239 354h1" />
<path stroke="#a7a7a7" d="M290 300h10M290 301h10M290 302h10M290 303h10M290 304h10M290 305h10M290 306h10M290 307h10M290 308h10M290 309h10M280 310h30M280 311h30M280 312h30M280 313h30M280 314h30M280 315h30M280 316h30M280 317h30M280 318h30M280 319h30M270 320h20M270 321h20M270 322h20M270 323h20M270 324h20M270 325h20M270 326h20M270 327h20M270 328h20M270 329h20M260 330h20M260 331h20M260 332h20M260 333h20M260 334h20M260 335h20M260 336h20M260 337h20M260 338h20M260 339h20M270 340h10M270 341h10M270 342h10M270 343h10M270 344h10M270 345h10M270 346h10M270 347h10M270 348h10M270 349h10M140 380h20M140 381h20M140 382h20M140 383h20M140 384h20M140 385h20M140 386h20M140 387h20M140 388h20M140 389h20" />
<path stroke="#16171b" d="M287 303h1" />
<path stroke="#5fcde4" d="M160 350h10M160 351h10M160 352h10M160 353h10M160 354h10M160 355h10M160 356h10M160 357h10M160 358h10M160 359h10M140 360h40M140 361h40M140 362h40M140 363h21M162 363h18M140 364h40M140 365h40M140 366h40M140 367h40M140 368h40M140 369h40M120 370h60M280 370h10M120 371h60M280 371h10M120 372h60M280 372h10M120 373h60M280 373h10M120 374h60M280 374h10M120 375h60M280 375h10M120 376h60M280 376h10M120 377h60M280 377h10M120 378h60M280 378h10M120 379h60M280 379h10M120 380h10M170 380h20M270 380h20M300 380h30M120 381h10M170 381h20M270 381h20M300 381h30M120 382h10M170 382h20M270 382h20M300 382h30M120 383h10M170 383h20M270 383h20M300 383h30M120 384h10M170 384h20M270 384h20M300 384h30M120 385h10M170 385h20M270 385h20M300 385h30M120 386h10M170 386h20M270 386h20M300 386h30M120 387h10M170 387h20M270 387h20M300 387h30M120 388h10M170 388h20M270 388h20M300 388h30M120 389h10M170 389h20M270 389h20M300 389h30M180 390h10M210 390h10M230 390h10M260 390h70M180 391h10M210 391h10M230 391h10M260 391h70M180 392h10M210 392h10M230 392h10M260 392h70M180 393h10M210 393h10M230 393h10M260 393h70M180 394h10M210 394h10M230 394h10M260 394h24M285 394h45M180 395h10M210 395h10M230 395h10M260 395h70M180 396h10M210 396h10M230 396h10M260 396h70M180 397h10M210 397h10M230 397h10M260 397h70M180 398h10M210 398h10M230 398h10M260 398h70M180 399h10M210 399h10M230 399h10M260 399h70M180 400h20M210 400h10M230 400h10M250 400h73M324 400h6M180 401h20M210 401h10M230 401h10M250 401h80M180 402h20M210 402h10M230 402h10M250 402h80M180 403h20M210 403h10M230 403h10M250 403h80M180 404h20M210 404h10M230 404h10M250 404h80M180 405h20M210 405h10M230 405h10M250 405h80M180 406h20M210 406h10M230 406h10M250 406h80M180 407h20M210 407h10M230 407h10M250 407h23M274 407h56M180 408h20M210 408h10M230 408h10M250 408h80M180 409h20M210 409h10M230 409h10M250 409h80M170 410h50M230 410h100M170 411h50M230 411h100M170 412h50M230 412h100M170 413h50M230 413h100M170 414h50M230 414h100M171 415h49M230 415h100M170 416h50M230 416h100M170 417h50M230 417h100M170 418h50M230 418h100M170 419h50M230 419h100" />
<path stroke="#ffffff" d="M180 360h10M300 360h20M180 361h10M300 361h20M180 362h10M300 362h20M180 363h10M300 363h20M180 364h10M300 364h20M180 365h10M300 365h20M180 366h10M300 366h20M180 367h10M300 367h20M180 368h10M300 368h20M180 369h10M300 369h20M180 370h20M260 370h20M300 370h20M180 371h20M260 371h20M300 371h20M180 372h20M260 372h20M300 372h20M180 373h20M260 373h20M300 373h20M180 374h20M260 374h20M300 374h20M180 375h20M260 375h20M300 375h20M180 376h20M260 376h20M300 376h20M180 377h20M260 377h20M300 377h20M180 378h20M260 378h20M300 378h20M180 379h20M260 379h20M300 379h20M130 380h10M190 380h30M230 380h40M130 381h10M190 381h30M230 381h40M130 382h10M190 382h30M230 382h40M130 383h10M190 383h30M230 383h40M130 384h10M190 384h30M230 384h40M130 385h10M190 385h30M230 385h40M130 386h10M190 386h30M230 386h40M130 387h10M190 387h30M230 387h40M130 388h10M190 388h30M230 388h40M130 389h10M190 389h30M230 389h40M130 390h10M190 390h20M240 390h20M130 391h10M190 391h20M240 391h20M130 392h10M190 392h20M240 392h20M130 393h10M190 393h20M240 393h20M130 394h10M190 394h20M240 394h20M130 395h10M190 395h20M240 395h20M130 396h10M190 396h20M240 396h20M130 397h10M190 397h20M240 397h20M130 398h10M190 398h20M240 398h20M130 399h10M190 399h20M240 399h20M200 400h10M240 400h10M200 401h10M240 401h10M200 402h10M240 402h10M200 403h10M240 403h10M200 404h10M240 404h10M200 405h10M240 405h10M200 406h10M240 406h10M200 407h10M240 407h10M200 408h10M240 408h10M200 409h10M240 409h10" />
<path stroke="#5fcde5" d="M161 363h1M284 394h1M323 400h1M170 415h1" />
<path stroke="#16161a" d="M298 366h1" />
<path stroke="#68aed4" d="M220 380h10M220 381h10M220 382h10M220 383h10M220 384h10M220 385h10M220 386h10M220 387h10M220 388h10M220 389h10M220 390h10M220 391h10M220 392h10M220 393h10M220 394h10M220 395h10M220 396h10M220 397h10M220 398h10M220 399h10M220 400h10M220 401h10M220 402h10M220 403h10M220 404h10M220 405h10M220 406h10M220 407h10M220 408h10M220 409h10M220 410h10M220 411h10M220 412h10M220 413h10M220 414h10M220 415h10M220 416h10M220 417h10M220 418h10M220 419h10" />
<path stroke="#8b8b8b" d="M140 390h10M140 391h10M140 392h10M140 393h10M140 394h10M140 395h10M140 396h10M140 397h10M140 398h10M140 399h10" />
<path stroke="#5ecde4" d="M273 407h1" />
</svg>